%
M48
M72
T01C0.02000
T02C0.02756
T03C0.03200
T04C0.03543
T05C0.03937
T06C0.04000
T07C0.11800
T08C0.13000
%
T01
X176833Y171000
X173333Y253500
T02
X128255Y255000
X118412Y255000
X243333Y210000
X243333Y200000
X258333Y200000
X258333Y210000
X250333Y180000
X250333Y160000
X263412Y145000
X273255Y145000
X293412Y145000
X303255Y145000
X228255Y145000
X218412Y145000
X198255Y145000
X188412Y145000
T03
X188333Y125000
X178333Y125000
X168333Y125000
X153333Y135000
X143333Y135000
X198333Y125000
X208333Y125000
X218333Y125000
X228333Y125000
X238333Y125000
X248333Y125000
X258333Y125000
X268333Y125000
X278333Y125000
X288333Y125000
X298333Y125000
X298333Y95000
X288333Y95000
X278333Y95000
X268333Y95000
X258333Y95000
X248333Y95000
X238333Y95000
X228333Y95000
X218333Y95000
X208333Y95000
X198333Y95000
X188333Y95000
X178333Y95000
X168333Y95000
X158333Y65000
X158333Y55000
T04
X143333Y85000
X148333Y105000
X118333Y105000
X173333Y85000
X138333Y240000
X138333Y270000
T05
X118333Y155000
X118333Y115000
T06
X93333Y125000
X93333Y135000
X93333Y145000
X183333Y180000
X183333Y190000
X183333Y200000
X183333Y210000
X183333Y220000
X183333Y230000
X183333Y270000
X173333Y270000
X163333Y270000
X153333Y270000
X193333Y270000
X203333Y270000
X213333Y270000
X233333Y270000
X243333Y270000
X253333Y270000
X263333Y270000
X273333Y270000
X283333Y270000
X293333Y270000
X303333Y270000
X298333Y165000
X288333Y165000
X278333Y165000
X223333Y165000
X213333Y165000
X203333Y165000
X107233Y247200
X89433Y247200
X89433Y272800
X107233Y272800
X183333Y50000
X193333Y50000
X203333Y50000
X213333Y50000
X223333Y50000
X233333Y50000
X253333Y50000
X263333Y50000
X273333Y50000
X283333Y50000
X293333Y50000
X303333Y50000
T07
X108648Y75000
X132270Y75000
X120459Y56496
T08
X213333Y224000
X288333Y224000
M30
