G75*
%MOIN*%
%OFA0B0*%
%FSLAX25Y25*%
%IPPOS*%
%LPD*%
%AMOC8*
5,1,8,0,0,1.08239X$1,22.5*
%
%ADD10R,0.06500X0.06500*%
%ADD11C,0.06500*%
%ADD12C,0.07400*%
%ADD13C,0.07800*%
%ADD14C,0.17000*%
%ADD15C,0.06400*%
%ADD16C,0.06400*%
%ADD17C,0.01200*%
%ADD18C,0.04000*%
%ADD19C,0.01000*%
D10*
X0198255Y0145000D03*
X0228255Y0145000D03*
X0273255Y0145000D03*
X0303255Y0145000D03*
X0118412Y0255000D03*
D11*
X0128255Y0255000D03*
X0243333Y0210000D03*
X0243333Y0200000D03*
X0258333Y0200000D03*
X0258333Y0210000D03*
X0250333Y0180000D03*
X0250333Y0160000D03*
X0263412Y0145000D03*
X0293412Y0145000D03*
X0218412Y0145000D03*
X0188412Y0145000D03*
D12*
X0153333Y0135000D03*
X0143333Y0135000D03*
X0148333Y0105000D03*
X0143333Y0085000D03*
X0158333Y0065000D03*
X0158333Y0055000D03*
X0183333Y0050000D03*
X0193333Y0050000D03*
X0203333Y0050000D03*
X0213333Y0050000D03*
X0223333Y0050000D03*
X0233333Y0050000D03*
X0253333Y0050000D03*
X0263333Y0050000D03*
X0273333Y0050000D03*
X0283333Y0050000D03*
X0293333Y0050000D03*
X0303333Y0050000D03*
X0173333Y0085000D03*
X0118333Y0105000D03*
X0093333Y0125000D03*
X0093333Y0135000D03*
X0093333Y0145000D03*
X0183333Y0180000D03*
X0183333Y0190000D03*
X0183333Y0200000D03*
X0183333Y0210000D03*
X0183333Y0220000D03*
X0183333Y0230000D03*
X0138333Y0240000D03*
X0107233Y0247200D03*
X0089433Y0247200D03*
X0089433Y0272800D03*
X0107233Y0272800D03*
X0138333Y0270000D03*
X0153333Y0270000D03*
X0163333Y0270000D03*
X0173333Y0270000D03*
X0183333Y0270000D03*
X0193333Y0270000D03*
X0203333Y0270000D03*
X0213333Y0270000D03*
X0233333Y0270000D03*
X0243333Y0270000D03*
X0253333Y0270000D03*
X0263333Y0270000D03*
X0273333Y0270000D03*
X0283333Y0270000D03*
X0293333Y0270000D03*
X0303333Y0270000D03*
D13*
X0118333Y0155000D03*
X0118333Y0115000D03*
D14*
X0108648Y0075000D03*
X0132270Y0075000D03*
X0120459Y0056496D03*
D15*
X0168333Y0095000D03*
X0178333Y0095000D03*
X0188333Y0095000D03*
X0198333Y0095000D03*
X0208333Y0095000D03*
X0218333Y0095000D03*
X0228333Y0095000D03*
X0238333Y0095000D03*
X0248333Y0095000D03*
X0258333Y0095000D03*
X0268333Y0095000D03*
X0278333Y0095000D03*
X0288333Y0095000D03*
X0298333Y0095000D03*
X0298333Y0125000D03*
X0288333Y0125000D03*
X0278333Y0125000D03*
X0268333Y0125000D03*
X0258333Y0125000D03*
X0248333Y0125000D03*
X0238333Y0125000D03*
X0228333Y0125000D03*
X0218333Y0125000D03*
X0208333Y0125000D03*
X0198333Y0125000D03*
X0188333Y0125000D03*
X0178333Y0125000D03*
X0168333Y0125000D03*
D16*
X0203333Y0161800D02*
X0203333Y0168200D01*
X0213333Y0168200D02*
X0213333Y0161800D01*
X0223333Y0161800D02*
X0223333Y0168200D01*
X0278333Y0168200D02*
X0278333Y0161800D01*
X0288333Y0161800D02*
X0288333Y0168200D01*
X0298333Y0168200D02*
X0298333Y0161800D01*
D17*
X0298333Y0165000D02*
X0298333Y0177000D01*
X0260333Y0215000D01*
X0256333Y0215000D01*
X0253333Y0212000D01*
X0253333Y0203000D01*
X0245333Y0195000D01*
X0245333Y0177000D01*
X0222833Y0154500D01*
X0222833Y0150000D01*
X0227833Y0145000D01*
X0228255Y0145000D01*
X0222833Y0150000D02*
X0218333Y0150000D01*
X0203333Y0165000D01*
X0202833Y0165000D01*
X0196833Y0171000D01*
X0176833Y0171000D01*
X0183333Y0207500D02*
X0223333Y0167500D01*
X0223333Y0165000D01*
X0273255Y0145000D02*
X0273333Y0145000D01*
X0288333Y0160000D01*
X0288333Y0165000D01*
X0218333Y0095000D02*
X0203333Y0080000D01*
X0203333Y0050000D01*
X0197833Y0044500D01*
X0161333Y0044500D01*
X0152833Y0053000D01*
X0152833Y0083000D01*
X0148333Y0087500D01*
X0148333Y0105000D01*
X0183333Y0207500D02*
X0183333Y0210000D01*
D18*
X0176833Y0171000D03*
X0173333Y0253500D03*
D19*
X0173333Y0123000D01*
X0198333Y0098000D01*
X0198333Y0095000D01*
X0188333Y0095000D02*
X0188333Y0092500D01*
X0175333Y0079500D01*
X0171333Y0079500D01*
X0159333Y0091500D01*
X0159333Y0250500D01*
X0173333Y0264500D01*
X0177833Y0264500D01*
X0183333Y0270000D01*
X0185833Y0262500D02*
X0174333Y0262500D01*
X0161333Y0249500D01*
X0161333Y0122000D01*
X0178333Y0105000D01*
X0178333Y0095000D01*
X0183333Y0093000D02*
X0180333Y0090000D01*
X0176333Y0090000D01*
X0171333Y0095000D01*
X0168333Y0095000D01*
X0183333Y0093000D02*
X0183333Y0103000D01*
X0163333Y0123000D01*
X0163333Y0248500D01*
X0175333Y0260500D01*
X0193833Y0260500D01*
X0203333Y0270000D01*
X0207333Y0264500D02*
X0287833Y0264500D01*
X0293333Y0270000D01*
X0303333Y0270000D02*
X0305333Y0268000D01*
X0305333Y0241000D01*
X0186833Y0241000D01*
X0177833Y0232000D01*
X0177833Y0208000D01*
X0183333Y0202500D01*
X0183333Y0200000D01*
X0175833Y0200000D02*
X0175833Y0233000D01*
X0207333Y0264500D01*
X0193333Y0270000D02*
X0185833Y0262500D01*
X0153333Y0270000D02*
X0130833Y0247500D01*
X0107333Y0247500D01*
X0107233Y0247200D01*
X0104833Y0252500D02*
X0099833Y0247500D01*
X0089833Y0247500D01*
X0089433Y0247200D01*
X0104833Y0252500D02*
X0111833Y0252500D01*
X0114333Y0250000D01*
X0122833Y0250000D01*
X0127833Y0255000D01*
X0128255Y0255000D01*
X0183333Y0230000D02*
X0189333Y0230000D01*
X0209333Y0210000D01*
X0243333Y0210000D01*
X0258333Y0210000D02*
X0258333Y0207000D01*
X0278333Y0187000D01*
X0278333Y0165000D01*
X0298333Y0155000D02*
X0305333Y0162000D01*
X0305333Y0241000D01*
X0258333Y0200000D02*
X0258333Y0187500D01*
X0250833Y0180000D01*
X0250333Y0180000D01*
X0255333Y0175000D01*
X0255333Y0158000D01*
X0252333Y0155000D01*
X0251333Y0155000D01*
X0221333Y0125000D01*
X0218333Y0125000D01*
X0211333Y0125000D02*
X0226333Y0140000D01*
X0232333Y0140000D01*
X0250333Y0158000D01*
X0250333Y0160000D01*
X0261333Y0145000D02*
X0243333Y0127000D01*
X0243333Y0122500D01*
X0237083Y0116250D01*
X0238333Y0115000D01*
X0238333Y0100000D01*
X0216333Y0100000D01*
X0213333Y0097000D01*
X0213333Y0093000D01*
X0185333Y0065000D01*
X0158333Y0065000D01*
X0143333Y0109500D02*
X0108833Y0075000D01*
X0108648Y0075000D01*
X0143333Y0109500D02*
X0143333Y0135000D01*
X0208333Y0125000D02*
X0211333Y0125000D01*
X0228333Y0125000D02*
X0237083Y0116250D01*
X0238333Y0100000D02*
X0238333Y0095000D01*
X0248333Y0095000D02*
X0248333Y0052500D01*
X0247833Y0052000D01*
X0247833Y0048000D01*
X0251333Y0044500D01*
X0297833Y0044500D01*
X0303333Y0050000D01*
X0293333Y0050000D02*
X0303333Y0060000D01*
X0303333Y0097000D01*
X0298333Y0102000D01*
X0265333Y0102000D01*
X0258333Y0095000D01*
X0263333Y0097000D02*
X0263333Y0060000D01*
X0253333Y0050000D01*
X0268333Y0065000D02*
X0283333Y0050000D01*
X0268333Y0065000D02*
X0268333Y0095000D01*
X0263333Y0097000D02*
X0266333Y0100000D01*
X0290333Y0100000D01*
X0295333Y0095000D01*
X0298333Y0095000D01*
X0288333Y0125000D02*
X0288333Y0133000D01*
X0298333Y0143000D01*
X0298333Y0155000D01*
X0293412Y0145000D02*
X0282333Y0145000D01*
X0277333Y0140000D01*
X0268833Y0140000D01*
X0263833Y0145000D01*
X0263412Y0145000D01*
X0261333Y0145000D01*
X0183333Y0190000D02*
X0183333Y0192500D01*
X0175833Y0200000D01*
M02*
