G75*
%MOIN*%
%OFA0B0*%
%FSLAX25Y25*%
%IPPOS*%
%LPD*%
%AMOC8*
5,1,8,0,0,1.08239X$1,22.5*
%
%ADD10R,0.07300X0.07300*%
%ADD11C,0.07300*%
%ADD12C,0.08200*%
%ADD13C,0.08600*%
%ADD14C,0.17800*%
%ADD15C,0.07200*%
%ADD16C,0.07200*%
%ADD17C,0.13800*%
D10*
X0198255Y0145000D03*
X0228255Y0145000D03*
X0273255Y0145000D03*
X0303255Y0145000D03*
X0118412Y0255000D03*
D11*
X0128255Y0255000D03*
X0243333Y0210000D03*
X0243333Y0200000D03*
X0258333Y0200000D03*
X0258333Y0210000D03*
X0250333Y0180000D03*
X0250333Y0160000D03*
X0263412Y0145000D03*
X0293412Y0145000D03*
X0218412Y0145000D03*
X0188412Y0145000D03*
D12*
X0153333Y0135000D03*
X0143333Y0135000D03*
X0148333Y0105000D03*
X0143333Y0085000D03*
X0158333Y0065000D03*
X0158333Y0055000D03*
X0183333Y0050000D03*
X0193333Y0050000D03*
X0203333Y0050000D03*
X0213333Y0050000D03*
X0223333Y0050000D03*
X0233333Y0050000D03*
X0253333Y0050000D03*
X0263333Y0050000D03*
X0273333Y0050000D03*
X0283333Y0050000D03*
X0293333Y0050000D03*
X0303333Y0050000D03*
X0173333Y0085000D03*
X0118333Y0105000D03*
X0093333Y0125000D03*
X0093333Y0135000D03*
X0093333Y0145000D03*
X0183333Y0180000D03*
X0183333Y0190000D03*
X0183333Y0200000D03*
X0183333Y0210000D03*
X0183333Y0220000D03*
X0183333Y0230000D03*
X0138333Y0240000D03*
X0107233Y0247200D03*
X0089433Y0247200D03*
X0089433Y0272800D03*
X0107233Y0272800D03*
X0138333Y0270000D03*
X0153333Y0270000D03*
X0163333Y0270000D03*
X0173333Y0270000D03*
X0183333Y0270000D03*
X0193333Y0270000D03*
X0203333Y0270000D03*
X0213333Y0270000D03*
X0233333Y0270000D03*
X0243333Y0270000D03*
X0253333Y0270000D03*
X0263333Y0270000D03*
X0273333Y0270000D03*
X0283333Y0270000D03*
X0293333Y0270000D03*
X0303333Y0270000D03*
D13*
X0118333Y0155000D03*
X0118333Y0115000D03*
D14*
X0108648Y0075000D03*
X0132270Y0075000D03*
X0120459Y0056496D03*
D15*
X0168333Y0095000D03*
X0178333Y0095000D03*
X0188333Y0095000D03*
X0198333Y0095000D03*
X0208333Y0095000D03*
X0218333Y0095000D03*
X0228333Y0095000D03*
X0238333Y0095000D03*
X0248333Y0095000D03*
X0258333Y0095000D03*
X0268333Y0095000D03*
X0278333Y0095000D03*
X0288333Y0095000D03*
X0298333Y0095000D03*
X0298333Y0125000D03*
X0288333Y0125000D03*
X0278333Y0125000D03*
X0268333Y0125000D03*
X0258333Y0125000D03*
X0248333Y0125000D03*
X0238333Y0125000D03*
X0228333Y0125000D03*
X0218333Y0125000D03*
X0208333Y0125000D03*
X0198333Y0125000D03*
X0188333Y0125000D03*
X0178333Y0125000D03*
X0168333Y0125000D03*
D16*
X0203333Y0161800D02*
X0203333Y0168200D01*
X0213333Y0168200D02*
X0213333Y0161800D01*
X0223333Y0161800D02*
X0223333Y0168200D01*
X0278333Y0168200D02*
X0278333Y0161800D01*
X0288333Y0161800D02*
X0288333Y0168200D01*
X0298333Y0168200D02*
X0298333Y0161800D01*
D17*
X0288333Y0224000D03*
X0213333Y0224000D03*
M02*
