G75*
%MOIN*%
%OFA0B0*%
%FSLAX25Y25*%
%IPPOS*%
%LPD*%
%AMOC8*
5,1,8,0,0,1.08239X$1,22.5*
%
%ADD10R,0.07300X0.07300*%
%ADD11C,0.07300*%
%ADD12C,0.08200*%
%ADD13C,0.08600*%
%ADD14C,0.17800*%
%ADD15C,0.07200*%
%ADD16C,0.07200*%
%ADD17C,0.13800*%
D10*
X0168255Y0140000D03*
X0188412Y0140000D03*
X0233255Y0140000D03*
X0278255Y0140000D03*
X0308255Y0140000D03*
D11*
X0298412Y0140000D03*
X0268412Y0140000D03*
X0255333Y0155000D03*
X0255333Y0175000D03*
X0258333Y0200000D03*
X0248333Y0200000D03*
X0248333Y0220000D03*
X0258333Y0220000D03*
X0223412Y0140000D03*
X0198255Y0140000D03*
X0158412Y0140000D03*
D12*
X0148333Y0160000D03*
X0178333Y0160000D03*
X0183333Y0175000D03*
X0183333Y0185000D03*
X0183333Y0195000D03*
X0183333Y0205000D03*
X0183333Y0215000D03*
X0183333Y0225000D03*
X0178333Y0265000D03*
X0168333Y0265000D03*
X0158333Y0265000D03*
X0188333Y0265000D03*
X0198333Y0265000D03*
X0208333Y0265000D03*
X0218333Y0265000D03*
X0238333Y0265000D03*
X0248333Y0265000D03*
X0258333Y0265000D03*
X0268333Y0265000D03*
X0278333Y0265000D03*
X0288333Y0265000D03*
X0298333Y0265000D03*
X0308333Y0265000D03*
X0112233Y0267800D03*
X0094433Y0267800D03*
X0094433Y0242200D03*
X0112233Y0242200D03*
X0098333Y0140000D03*
X0098333Y0130000D03*
X0098333Y0120000D03*
X0143333Y0120000D03*
X0143333Y0090000D03*
X0158333Y0085000D03*
X0158333Y0075000D03*
X0178333Y0075000D03*
X0158333Y0060000D03*
X0158333Y0050000D03*
X0178333Y0045000D03*
X0188333Y0045000D03*
X0198333Y0045000D03*
X0208333Y0045000D03*
X0218333Y0045000D03*
X0228333Y0045000D03*
X0238333Y0045000D03*
X0258333Y0045000D03*
X0268333Y0045000D03*
X0278333Y0045000D03*
X0288333Y0045000D03*
X0298333Y0045000D03*
X0308333Y0045000D03*
D13*
X0123333Y0110000D03*
X0123333Y0150000D03*
D14*
X0113648Y0070000D03*
X0137270Y0070000D03*
X0125459Y0051496D03*
D15*
X0173333Y0090000D03*
X0183333Y0090000D03*
X0193333Y0090000D03*
X0203333Y0090000D03*
X0213333Y0090000D03*
X0223333Y0090000D03*
X0233333Y0090000D03*
X0243333Y0090000D03*
X0253333Y0090000D03*
X0263333Y0090000D03*
X0273333Y0090000D03*
X0283333Y0090000D03*
X0293333Y0090000D03*
X0303333Y0090000D03*
X0303333Y0120000D03*
X0293333Y0120000D03*
X0283333Y0120000D03*
X0273333Y0120000D03*
X0263333Y0120000D03*
X0253333Y0120000D03*
X0243333Y0120000D03*
X0233333Y0120000D03*
X0223333Y0120000D03*
X0213333Y0120000D03*
X0203333Y0120000D03*
X0193333Y0120000D03*
X0183333Y0120000D03*
X0173333Y0120000D03*
D16*
X0208333Y0156800D02*
X0208333Y0163200D01*
X0218333Y0163200D02*
X0218333Y0156800D01*
X0228333Y0156800D02*
X0228333Y0163200D01*
X0283333Y0163200D02*
X0283333Y0156800D01*
X0293333Y0156800D02*
X0293333Y0163200D01*
X0303333Y0163200D02*
X0303333Y0156800D01*
D17*
X0293333Y0219000D03*
X0218333Y0219000D03*
M02*
