%
M48
M72
T01C0.02000
T02C0.02756
T03C0.03200
T04C0.03543
T05C0.03937
T06C0.04000
T07C0.11800
T08C0.13000
%
T01
X175833Y129000
X190833Y158000
X197833Y164500
X166833Y210000
X190833Y243500
X171833Y249000
X208333Y98500
T02
X198255Y140000
X188412Y140000
X168255Y140000
X158412Y140000
X223412Y140000
X233255Y140000
X255333Y155000
X268412Y140000
X278255Y140000
X298412Y140000
X308255Y140000
X255333Y175000
X258333Y200000
X248333Y200000
X248333Y220000
X258333Y220000
T03
X253333Y120000
X243333Y120000
X233333Y120000
X223333Y120000
X213333Y120000
X203333Y120000
X193333Y120000
X183333Y120000
X173333Y120000
X173333Y90000
X183333Y90000
X193333Y90000
X203333Y90000
X213333Y90000
X223333Y90000
X233333Y90000
X243333Y90000
X253333Y90000
X263333Y90000
X273333Y90000
X283333Y90000
X293333Y90000
X303333Y90000
X303333Y120000
X293333Y120000
X283333Y120000
X273333Y120000
X263333Y120000
X158333Y85000
X158333Y75000
X158333Y60000
X158333Y50000
T04
X178333Y45000
X178333Y75000
X143333Y90000
X143333Y120000
X148333Y160000
X178333Y160000
T05
X123333Y150000
X123333Y110000
T06
X98333Y120000
X98333Y130000
X98333Y140000
X183333Y175000
X183333Y185000
X183333Y195000
X183333Y205000
X183333Y215000
X183333Y225000
X178333Y265000
X168333Y265000
X158333Y265000
X188333Y265000
X198333Y265000
X208333Y265000
X218333Y265000
X238333Y265000
X248333Y265000
X258333Y265000
X268333Y265000
X278333Y265000
X288333Y265000
X298333Y265000
X308333Y265000
X303333Y160000
X293333Y160000
X283333Y160000
X228333Y160000
X218333Y160000
X208333Y160000
X112233Y242200
X94433Y242200
X94433Y267800
X112233Y267800
X188333Y45000
X198333Y45000
X208333Y45000
X218333Y45000
X228333Y45000
X238333Y45000
X258333Y45000
X268333Y45000
X278333Y45000
X288333Y45000
X298333Y45000
X308333Y45000
T07
X113648Y70000
X137270Y70000
X125459Y51496
T08
X218333Y219000
X293333Y219000
M30
