G75*
%MOIN*%
%OFA0B0*%
%FSLAX25Y25*%
%IPPOS*%
%LPD*%
%AMOC8*
5,1,8,0,0,1.08239X$1,22.5*
%
%ADD10R,0.06500X0.06500*%
%ADD11C,0.06500*%
%ADD12C,0.07400*%
%ADD13C,0.07800*%
%ADD14C,0.17000*%
%ADD15C,0.06400*%
%ADD16C,0.06400*%
%ADD17C,0.01200*%
%ADD18C,0.01000*%
%ADD19C,0.04000*%
D10*
X0168255Y0140000D03*
X0188412Y0140000D03*
X0233255Y0140000D03*
X0278255Y0140000D03*
X0308255Y0140000D03*
D11*
X0298412Y0140000D03*
X0268412Y0140000D03*
X0255333Y0155000D03*
X0255333Y0175000D03*
X0258333Y0200000D03*
X0248333Y0200000D03*
X0248333Y0220000D03*
X0258333Y0220000D03*
X0223412Y0140000D03*
X0198255Y0140000D03*
X0158412Y0140000D03*
D12*
X0148333Y0160000D03*
X0178333Y0160000D03*
X0183333Y0175000D03*
X0183333Y0185000D03*
X0183333Y0195000D03*
X0183333Y0205000D03*
X0183333Y0215000D03*
X0183333Y0225000D03*
X0178333Y0265000D03*
X0168333Y0265000D03*
X0158333Y0265000D03*
X0188333Y0265000D03*
X0198333Y0265000D03*
X0208333Y0265000D03*
X0218333Y0265000D03*
X0238333Y0265000D03*
X0248333Y0265000D03*
X0258333Y0265000D03*
X0268333Y0265000D03*
X0278333Y0265000D03*
X0288333Y0265000D03*
X0298333Y0265000D03*
X0308333Y0265000D03*
X0112233Y0267800D03*
X0094433Y0267800D03*
X0094433Y0242200D03*
X0112233Y0242200D03*
X0098333Y0140000D03*
X0098333Y0130000D03*
X0098333Y0120000D03*
X0143333Y0120000D03*
X0143333Y0090000D03*
X0158333Y0085000D03*
X0158333Y0075000D03*
X0178333Y0075000D03*
X0158333Y0060000D03*
X0158333Y0050000D03*
X0178333Y0045000D03*
X0188333Y0045000D03*
X0198333Y0045000D03*
X0208333Y0045000D03*
X0218333Y0045000D03*
X0228333Y0045000D03*
X0238333Y0045000D03*
X0258333Y0045000D03*
X0268333Y0045000D03*
X0278333Y0045000D03*
X0288333Y0045000D03*
X0298333Y0045000D03*
X0308333Y0045000D03*
D13*
X0123333Y0110000D03*
X0123333Y0150000D03*
D14*
X0113648Y0070000D03*
X0137270Y0070000D03*
X0125459Y0051496D03*
D15*
X0173333Y0090000D03*
X0183333Y0090000D03*
X0193333Y0090000D03*
X0203333Y0090000D03*
X0213333Y0090000D03*
X0223333Y0090000D03*
X0233333Y0090000D03*
X0243333Y0090000D03*
X0253333Y0090000D03*
X0263333Y0090000D03*
X0273333Y0090000D03*
X0283333Y0090000D03*
X0293333Y0090000D03*
X0303333Y0090000D03*
X0303333Y0120000D03*
X0293333Y0120000D03*
X0283333Y0120000D03*
X0273333Y0120000D03*
X0263333Y0120000D03*
X0253333Y0120000D03*
X0243333Y0120000D03*
X0233333Y0120000D03*
X0223333Y0120000D03*
X0213333Y0120000D03*
X0203333Y0120000D03*
X0193333Y0120000D03*
X0183333Y0120000D03*
X0173333Y0120000D03*
D16*
X0208333Y0156800D02*
X0208333Y0163200D01*
X0218333Y0163200D02*
X0218333Y0156800D01*
X0228333Y0156800D02*
X0228333Y0163200D01*
X0283333Y0163200D02*
X0283333Y0156800D01*
X0293333Y0156800D02*
X0293333Y0163200D01*
X0303333Y0163200D02*
X0303333Y0156800D01*
D17*
X0278333Y0140000D02*
X0278255Y0140000D01*
X0278333Y0140000D02*
X0278333Y0118000D01*
X0272833Y0112500D01*
X0223333Y0112500D01*
X0209333Y0098500D01*
X0208333Y0098500D01*
X0210833Y0115000D02*
X0188333Y0092500D01*
X0188333Y0088000D01*
X0185333Y0085000D01*
X0181333Y0085000D01*
X0178333Y0088000D01*
X0178333Y0124000D01*
X0179583Y0125250D01*
X0175833Y0129000D01*
X0179583Y0125250D02*
X0188333Y0134000D01*
X0188333Y0140000D01*
X0188412Y0140000D01*
X0208333Y0140000D02*
X0228333Y0160000D01*
X0235833Y0165500D02*
X0235833Y0142500D01*
X0233333Y0140000D01*
X0233255Y0140000D01*
X0208333Y0140000D02*
X0208333Y0118000D01*
X0211333Y0115000D01*
X0210833Y0115000D01*
X0211333Y0115000D02*
X0235333Y0115000D01*
X0240333Y0120000D01*
X0243333Y0120000D01*
X0208333Y0160000D02*
X0218833Y0170500D01*
X0230833Y0170500D01*
X0235833Y0165500D01*
X0178333Y0160000D02*
X0178333Y0172500D01*
X0177833Y0173000D01*
X0177833Y0199500D01*
X0183333Y0205000D01*
X0098333Y0140000D02*
X0098333Y0137500D01*
X0117833Y0118000D01*
X0117833Y0104000D01*
X0152833Y0069000D01*
X0152833Y0048000D01*
X0163833Y0037000D01*
X0230333Y0037000D01*
X0238333Y0045000D01*
X0208333Y0045000D02*
X0202833Y0039500D01*
X0176333Y0039500D01*
X0172833Y0043000D01*
X0172833Y0053000D01*
X0152833Y0073000D01*
X0152833Y0088000D01*
X0143333Y0097500D01*
X0143333Y0120000D01*
D18*
X0168333Y0126500D02*
X0168333Y0088000D01*
X0173833Y0082500D01*
X0202833Y0082500D01*
X0208333Y0088000D01*
X0208333Y0092000D01*
X0226333Y0110000D01*
X0273333Y0110000D01*
X0283333Y0120000D01*
X0285333Y0120000D01*
X0303333Y0138000D01*
X0303333Y0150000D01*
X0310333Y0157000D01*
X0310333Y0253000D01*
X0298333Y0265000D01*
X0300833Y0272500D02*
X0308333Y0265000D01*
X0300833Y0272500D02*
X0158333Y0272500D01*
X0152833Y0267000D01*
X0152833Y0254500D01*
X0166833Y0240500D01*
X0166833Y0210000D01*
X0183333Y0225000D02*
X0183333Y0237500D01*
X0171833Y0249000D01*
X0168333Y0242000D02*
X0170333Y0240000D01*
X0170333Y0151000D01*
X0163333Y0144000D01*
X0163333Y0090000D01*
X0178333Y0075000D01*
X0198333Y0075000D01*
X0213333Y0090000D01*
X0228333Y0075000D02*
X0243333Y0090000D01*
X0238333Y0088000D02*
X0200833Y0050500D01*
X0193833Y0050500D01*
X0188333Y0045000D01*
X0228333Y0045000D02*
X0228333Y0075000D01*
X0238333Y0088000D02*
X0238333Y0092000D01*
X0243333Y0097000D01*
X0277333Y0097000D01*
X0300333Y0120000D01*
X0303333Y0120000D01*
X0298412Y0140000D02*
X0297333Y0140000D01*
X0283333Y0154000D01*
X0283333Y0160000D01*
X0283333Y0154500D01*
X0268833Y0140000D01*
X0268412Y0140000D01*
X0263333Y0138000D02*
X0263333Y0150000D01*
X0276333Y0163000D01*
X0276333Y0253000D01*
X0288333Y0265000D01*
X0268333Y0265000D02*
X0268333Y0158000D01*
X0253333Y0143000D01*
X0253333Y0120000D01*
X0273333Y0120000D02*
X0273333Y0128000D01*
X0263333Y0138000D01*
X0257333Y0150000D02*
X0260333Y0153000D01*
X0260333Y0170000D01*
X0255333Y0175000D01*
X0248333Y0182000D01*
X0248333Y0200000D01*
X0258333Y0220000D02*
X0258333Y0232500D01*
X0220333Y0270500D01*
X0166333Y0270500D01*
X0160833Y0265000D01*
X0158333Y0265000D01*
X0168333Y0265000D02*
X0168333Y0242000D01*
X0190833Y0243500D02*
X0190833Y0158000D01*
X0188833Y0163000D02*
X0173333Y0147500D01*
X0173333Y0131500D01*
X0168333Y0126500D01*
X0183333Y0113000D02*
X0188333Y0118000D01*
X0188333Y0131000D01*
X0193333Y0136000D01*
X0193333Y0152500D01*
X0201333Y0160500D01*
X0201333Y0262000D01*
X0198333Y0265000D01*
X0197833Y0255500D02*
X0188333Y0265000D01*
X0197833Y0255500D02*
X0197833Y0164500D01*
X0188833Y0163000D02*
X0188833Y0177000D01*
X0183333Y0182500D01*
X0183333Y0185000D01*
X0218333Y0160000D02*
X0226333Y0168000D01*
X0230333Y0168000D01*
X0233333Y0165000D01*
X0233333Y0149500D01*
X0223833Y0140000D01*
X0223412Y0140000D01*
X0231333Y0135000D02*
X0237333Y0135000D01*
X0255333Y0153000D01*
X0255333Y0155000D01*
X0256333Y0150000D02*
X0257333Y0150000D01*
X0256333Y0150000D02*
X0226333Y0120000D01*
X0223333Y0120000D01*
X0216333Y0120000D02*
X0231333Y0135000D01*
X0216333Y0120000D02*
X0213333Y0120000D01*
X0198333Y0140000D02*
X0198255Y0140000D01*
X0198333Y0140000D02*
X0218333Y0160000D01*
X0183333Y0113000D02*
X0183333Y0090000D01*
X0263333Y0090000D02*
X0266333Y0090000D01*
X0271333Y0095000D01*
X0275333Y0095000D01*
X0278333Y0092000D01*
X0278333Y0065000D01*
X0298333Y0045000D01*
X0288333Y0045000D02*
X0273333Y0060000D01*
X0273333Y0090000D01*
D19*
X0208333Y0098500D03*
X0175833Y0129000D03*
X0190833Y0158000D03*
X0197833Y0164500D03*
X0166833Y0210000D03*
X0190833Y0243500D03*
X0171833Y0249000D03*
M02*
