%
M48
M72
T01C0.02000
T02C0.03200
T03C0.03543
T04C0.04000
T05C0.05906
T06C0.07500
T07C0.13000
%
T01
X279200Y211200
X336800Y216800
X336800Y256800
X287200Y294400
T02
X441400Y175000
X451400Y175000
X511400Y175000
X521400Y175000
T03
X531400Y145000
X501400Y145000
X501400Y115000
X531400Y115000
X461400Y115000
X431400Y115000
X431400Y145000
X461400Y145000
X387195Y151000
X361605Y151000
X341400Y175000
X311400Y175000
X296400Y175000
X296400Y155000
X296400Y135000
X296400Y115000
X266400Y115000
X266400Y135000
X266400Y155000
X266400Y175000
X266400Y195000
X296400Y195000
X358400Y415000
X388400Y415000
T04
X386400Y385000
X376400Y385000
X366400Y385000
X356400Y385000
X346400Y385000
X336400Y385000
X396400Y385000
X406400Y385000
X520900Y308000
X530900Y308000
X540900Y308000
X550900Y275000
X561900Y275000
X511900Y275000
X500900Y275000
X406400Y225000
X396400Y225000
X386400Y225000
X376400Y225000
X366400Y225000
X356400Y225000
X346400Y225000
X336400Y225000
X216400Y225000
X206400Y225000
X206400Y215000
X216400Y215000
X196400Y215000
X186400Y215000
X186400Y225000
X196400Y225000
X176400Y225000
X166400Y225000
X166400Y215000
X176400Y215000
X156400Y215000
X156400Y225000
X146400Y225000
X136400Y225000
X136400Y215000
X146400Y215000
X126400Y215000
X126400Y225000
X126400Y385000
X126400Y395000
X136400Y395000
X146400Y395000
X146400Y385000
X136400Y385000
X156400Y385000
X156400Y395000
X166400Y395000
X176400Y395000
X176400Y385000
X166400Y385000
X186400Y385000
X196400Y385000
X196400Y395000
X186400Y395000
X206400Y395000
X216400Y395000
X216400Y385000
X206400Y385000
X433600Y88900
X433600Y71100
X459200Y71100
X459200Y88900
X503600Y88900
X503600Y71100
X529200Y71100
X529200Y88900
T05
X180770Y87874
X352030Y87874
X352030Y72126
T06
X504400Y402000
X555400Y402000
T07
X530900Y367000
M30
