G75*
%MOIN*%
%OFA0B0*%
%FSLAX25Y25*%
%IPPOS*%
%LPD*%
%AMOC8*
5,1,8,0,0,1.08239X$1,22.5*
%
%ADD10C,0.00400*%
%ADD11C,0.00800*%
%ADD12C,0.01000*%
%ADD13C,0.00600*%
%ADD14R,0.05000X0.05000*%
%ADD15C,0.01200*%
%ADD16C,0.00500*%
%ADD17C,0.01969*%
%ADD18C,0.00100*%
%ADD19C,0.00200*%
%ADD20R,0.03500X0.05000*%
D10*
X0052068Y0075700D02*
X0053603Y0077235D01*
X0053603Y0080304D01*
X0055137Y0079537D02*
X0055137Y0076467D01*
X0055905Y0075700D01*
X0057439Y0075700D01*
X0058207Y0076467D01*
X0059741Y0076467D02*
X0060508Y0075700D01*
X0062043Y0075700D01*
X0062810Y0076467D01*
X0059741Y0076467D02*
X0059741Y0079537D01*
X0060508Y0080304D01*
X0062043Y0080304D01*
X0062810Y0079537D01*
X0058207Y0079537D02*
X0057439Y0080304D01*
X0055905Y0080304D01*
X0055137Y0079537D01*
X0050533Y0080304D02*
X0050533Y0077235D01*
X0052068Y0075700D01*
X0051986Y0092165D02*
X0052754Y0092933D01*
X0052754Y0094467D01*
X0053521Y0093700D01*
X0054288Y0093700D01*
X0055056Y0094467D01*
X0055056Y0096002D01*
X0056590Y0096002D02*
X0058125Y0096002D01*
X0056590Y0098304D02*
X0059659Y0098304D01*
X0056590Y0098304D02*
X0056590Y0093700D01*
X0052754Y0094467D02*
X0052754Y0096002D01*
X0050452Y0096769D02*
X0049684Y0096002D01*
X0050452Y0095235D01*
X0050452Y0094467D01*
X0049684Y0093700D01*
X0048150Y0093700D01*
X0047382Y0094467D01*
X0045848Y0094467D02*
X0045080Y0093700D01*
X0043546Y0093700D01*
X0042778Y0094467D01*
X0041244Y0094467D02*
X0041244Y0093700D01*
X0040476Y0093700D01*
X0040476Y0094467D01*
X0041244Y0094467D01*
X0038942Y0094467D02*
X0038174Y0093700D01*
X0036640Y0093700D01*
X0035873Y0094467D01*
X0038942Y0097537D01*
X0038942Y0094467D01*
X0035873Y0094467D02*
X0035873Y0097537D01*
X0036640Y0098304D01*
X0038174Y0098304D01*
X0038942Y0097537D01*
X0042778Y0097537D02*
X0043546Y0098304D01*
X0045080Y0098304D01*
X0045848Y0097537D01*
X0045848Y0096769D01*
X0045080Y0096002D01*
X0045848Y0095235D01*
X0045848Y0094467D01*
X0045080Y0096002D02*
X0044313Y0096002D01*
X0047382Y0097537D02*
X0048150Y0098304D01*
X0049684Y0098304D01*
X0050452Y0097537D01*
X0050452Y0096769D01*
X0049684Y0096002D02*
X0048917Y0096002D01*
X0033331Y0119482D02*
X0033331Y0122552D01*
X0031797Y0124086D02*
X0031029Y0124854D01*
X0031029Y0126388D01*
X0031797Y0127155D01*
X0032564Y0127155D01*
X0033331Y0126388D01*
X0034099Y0127155D01*
X0034866Y0127155D01*
X0035633Y0126388D01*
X0035633Y0124854D01*
X0034866Y0124086D01*
X0033331Y0125621D02*
X0033331Y0126388D01*
X0034866Y0128690D02*
X0034866Y0129457D01*
X0035633Y0129457D01*
X0035633Y0128690D01*
X0034866Y0128690D01*
X0034866Y0130992D02*
X0035633Y0131759D01*
X0035633Y0133294D01*
X0034866Y0134061D01*
X0034099Y0134061D01*
X0033331Y0133294D01*
X0033331Y0132527D01*
X0033331Y0133294D02*
X0032564Y0134061D01*
X0031797Y0134061D01*
X0031029Y0133294D01*
X0031029Y0131759D01*
X0031797Y0130992D01*
X0031029Y0135596D02*
X0034099Y0135596D01*
X0035633Y0137131D01*
X0034099Y0138665D01*
X0031029Y0138665D01*
X0041029Y0138665D02*
X0041029Y0135596D01*
X0043331Y0135596D01*
X0042564Y0137131D01*
X0042564Y0137898D01*
X0043331Y0138665D01*
X0044866Y0138665D01*
X0045633Y0137898D01*
X0045633Y0136363D01*
X0044866Y0135596D01*
X0044866Y0134061D02*
X0045633Y0133294D01*
X0045633Y0130992D01*
X0041029Y0130992D01*
X0041029Y0133294D01*
X0041797Y0134061D01*
X0042564Y0134061D01*
X0043331Y0133294D01*
X0043331Y0130992D01*
X0043331Y0129457D02*
X0041797Y0129457D01*
X0041029Y0128690D01*
X0041029Y0126388D01*
X0045633Y0126388D01*
X0044099Y0126388D02*
X0044099Y0128690D01*
X0043331Y0129457D01*
X0043331Y0133294D02*
X0044099Y0134061D01*
X0044866Y0134061D01*
X0051029Y0133294D02*
X0051797Y0134061D01*
X0052564Y0134061D01*
X0053331Y0133294D01*
X0053331Y0130992D01*
X0053331Y0129457D02*
X0054099Y0128690D01*
X0054099Y0126388D01*
X0055633Y0126388D02*
X0051029Y0126388D01*
X0051029Y0128690D01*
X0051797Y0129457D01*
X0053331Y0129457D01*
X0051029Y0130992D02*
X0051029Y0133294D01*
X0051029Y0130992D02*
X0055633Y0130992D01*
X0055633Y0133294D01*
X0054866Y0134061D01*
X0054099Y0134061D01*
X0053331Y0133294D01*
X0051797Y0135596D02*
X0051029Y0136363D01*
X0051029Y0137898D01*
X0051797Y0138665D01*
X0054866Y0135596D01*
X0055633Y0136363D01*
X0055633Y0137898D01*
X0054866Y0138665D01*
X0051797Y0138665D01*
X0051797Y0135596D02*
X0054866Y0135596D01*
X0061029Y0137131D02*
X0065633Y0137131D01*
X0065633Y0138665D02*
X0065633Y0135596D01*
X0064866Y0134061D02*
X0064099Y0134061D01*
X0063331Y0133294D01*
X0063331Y0130992D01*
X0063331Y0129457D02*
X0064099Y0128690D01*
X0064099Y0126388D01*
X0065633Y0126388D02*
X0061029Y0126388D01*
X0061029Y0128690D01*
X0061797Y0129457D01*
X0063331Y0129457D01*
X0061029Y0130992D02*
X0061029Y0133294D01*
X0061797Y0134061D01*
X0062564Y0134061D01*
X0063331Y0133294D01*
X0064866Y0134061D02*
X0065633Y0133294D01*
X0065633Y0130992D01*
X0061029Y0130992D01*
X0062564Y0135596D02*
X0061029Y0137131D01*
X0071029Y0137898D02*
X0073331Y0135596D01*
X0073331Y0138665D01*
X0075633Y0137898D02*
X0071029Y0137898D01*
X0071029Y0134061D02*
X0071029Y0130992D01*
X0075633Y0130992D01*
X0075633Y0134061D01*
X0073331Y0132527D02*
X0073331Y0130992D01*
X0073331Y0129457D02*
X0071797Y0129457D01*
X0071029Y0128690D01*
X0071029Y0126388D01*
X0075633Y0126388D01*
X0074099Y0126388D02*
X0074099Y0128690D01*
X0073331Y0129457D01*
X0081029Y0128690D02*
X0081029Y0126388D01*
X0085633Y0126388D01*
X0084099Y0126388D02*
X0084099Y0128690D01*
X0083331Y0129457D01*
X0081797Y0129457D01*
X0081029Y0128690D01*
X0081029Y0130992D02*
X0085633Y0130992D01*
X0085633Y0134061D01*
X0084866Y0135596D02*
X0085633Y0136363D01*
X0085633Y0137898D01*
X0084866Y0138665D01*
X0083331Y0138665D01*
X0082564Y0137898D01*
X0082564Y0137131D01*
X0083331Y0135596D01*
X0081029Y0135596D01*
X0081029Y0138665D01*
X0081029Y0134061D02*
X0081029Y0130992D01*
X0083331Y0130992D02*
X0083331Y0132527D01*
X0091029Y0133294D02*
X0091797Y0134061D01*
X0092564Y0134061D01*
X0093331Y0133294D01*
X0093331Y0130992D01*
X0093331Y0129457D02*
X0094099Y0128690D01*
X0094099Y0126388D01*
X0095633Y0126388D02*
X0091029Y0126388D01*
X0091029Y0128690D01*
X0091797Y0129457D01*
X0093331Y0129457D01*
X0091029Y0130992D02*
X0091029Y0133294D01*
X0091029Y0130992D02*
X0095633Y0130992D01*
X0095633Y0133294D01*
X0094866Y0134061D01*
X0094099Y0134061D01*
X0093331Y0133294D01*
X0093331Y0135596D02*
X0093331Y0138665D01*
X0091029Y0137898D02*
X0093331Y0135596D01*
X0095633Y0137898D02*
X0091029Y0137898D01*
X0101029Y0138665D02*
X0101029Y0135596D01*
X0103331Y0135596D01*
X0102564Y0137131D01*
X0102564Y0137898D01*
X0103331Y0138665D01*
X0104866Y0138665D01*
X0105633Y0137898D01*
X0105633Y0136363D01*
X0104866Y0135596D01*
X0105633Y0134061D02*
X0102564Y0134061D01*
X0101029Y0132527D01*
X0102564Y0130992D01*
X0105633Y0130992D01*
X0103331Y0130992D02*
X0103331Y0134061D01*
X0103331Y0129457D02*
X0101797Y0129457D01*
X0101029Y0128690D01*
X0101029Y0126388D01*
X0105633Y0126388D01*
X0104099Y0126388D02*
X0104099Y0128690D01*
X0103331Y0129457D01*
X0111029Y0128690D02*
X0111029Y0126388D01*
X0115633Y0126388D01*
X0114099Y0126388D02*
X0114099Y0128690D01*
X0113331Y0129457D01*
X0111797Y0129457D01*
X0111029Y0128690D01*
X0112564Y0130992D02*
X0111029Y0132527D01*
X0112564Y0134061D01*
X0115633Y0134061D01*
X0114866Y0135596D02*
X0115633Y0136363D01*
X0115633Y0137898D01*
X0114866Y0138665D01*
X0114099Y0138665D01*
X0113331Y0137898D01*
X0113331Y0135596D01*
X0114866Y0135596D01*
X0113331Y0135596D02*
X0111797Y0137131D01*
X0111029Y0138665D01*
X0113331Y0134061D02*
X0113331Y0130992D01*
X0112564Y0130992D02*
X0115633Y0130992D01*
X0121029Y0132527D02*
X0122564Y0134061D01*
X0125633Y0134061D01*
X0125633Y0135596D02*
X0124866Y0135596D01*
X0121797Y0138665D01*
X0121029Y0138665D01*
X0121029Y0135596D01*
X0123331Y0134061D02*
X0123331Y0130992D01*
X0122564Y0130992D02*
X0121029Y0132527D01*
X0122564Y0130992D02*
X0125633Y0130992D01*
X0123331Y0129457D02*
X0124099Y0128690D01*
X0124099Y0126388D01*
X0125633Y0126388D02*
X0121029Y0126388D01*
X0121029Y0128690D01*
X0121797Y0129457D01*
X0123331Y0129457D01*
X0117357Y0098304D02*
X0114288Y0098304D01*
X0114288Y0093700D01*
X0112754Y0094467D02*
X0111986Y0093700D01*
X0111219Y0093700D01*
X0110452Y0094467D01*
X0110452Y0092933D01*
X0109684Y0092165D01*
X0108150Y0093700D02*
X0105080Y0093700D01*
X0103546Y0093700D02*
X0102778Y0093700D01*
X0102778Y0094467D01*
X0103546Y0094467D01*
X0103546Y0093700D01*
X0101244Y0094467D02*
X0100476Y0093700D01*
X0098942Y0093700D01*
X0098174Y0094467D01*
X0101244Y0097537D01*
X0101244Y0094467D01*
X0098174Y0094467D02*
X0098174Y0097537D01*
X0098942Y0098304D01*
X0100476Y0098304D01*
X0101244Y0097537D01*
X0105080Y0096769D02*
X0106615Y0098304D01*
X0106615Y0093700D01*
X0110452Y0094467D02*
X0110452Y0096002D01*
X0112754Y0096002D02*
X0112754Y0094467D01*
X0114288Y0096002D02*
X0115823Y0096002D01*
X0187033Y0064804D02*
X0187033Y0060200D01*
X0188568Y0061735D01*
X0190103Y0060200D01*
X0190103Y0064804D01*
X0191637Y0064804D02*
X0193172Y0064804D01*
X0192405Y0064804D02*
X0192405Y0060200D01*
X0193172Y0060200D02*
X0191637Y0060200D01*
X0194707Y0060200D02*
X0194707Y0064804D01*
X0197008Y0064804D01*
X0197776Y0064037D01*
X0197776Y0062502D01*
X0197008Y0061735D01*
X0194707Y0061735D01*
X0199310Y0062502D02*
X0200845Y0062502D01*
X0199310Y0064804D02*
X0199310Y0060200D01*
X0202380Y0060200D01*
X0203914Y0060200D02*
X0203914Y0064804D01*
X0206216Y0064804D01*
X0206984Y0064037D01*
X0206984Y0062502D01*
X0206216Y0061735D01*
X0203914Y0061735D01*
X0205449Y0061735D02*
X0206984Y0060200D01*
X0202380Y0064804D02*
X0199310Y0064804D01*
X0198637Y0075200D02*
X0198637Y0079804D01*
X0201707Y0075200D01*
X0201707Y0079804D01*
X0203241Y0079804D02*
X0205543Y0079804D01*
X0206310Y0079037D01*
X0206310Y0075967D01*
X0205543Y0075200D01*
X0203241Y0075200D01*
X0203241Y0079804D01*
X0197103Y0079037D02*
X0196335Y0079804D01*
X0194801Y0079804D01*
X0194033Y0079037D01*
X0194033Y0075967D01*
X0194801Y0075200D01*
X0196335Y0075200D01*
X0197103Y0075967D01*
X0197103Y0077502D01*
X0195568Y0077502D01*
X0219325Y0095967D02*
X0220093Y0095200D01*
X0221627Y0095200D01*
X0222395Y0095967D01*
X0222395Y0096735D01*
X0221627Y0097502D01*
X0220860Y0097502D01*
X0221627Y0097502D02*
X0222395Y0098269D01*
X0222395Y0099037D01*
X0221627Y0099804D01*
X0220093Y0099804D01*
X0219325Y0099037D01*
X0223929Y0099037D02*
X0223929Y0095967D01*
X0226999Y0099037D01*
X0226999Y0095967D01*
X0226231Y0095200D01*
X0224697Y0095200D01*
X0223929Y0095967D01*
X0223929Y0099037D02*
X0224697Y0099804D01*
X0226231Y0099804D01*
X0226999Y0099037D01*
X0228533Y0099037D02*
X0228533Y0095967D01*
X0231603Y0099037D01*
X0231603Y0095967D01*
X0230835Y0095200D01*
X0229301Y0095200D01*
X0228533Y0095967D01*
X0228533Y0099037D02*
X0229301Y0099804D01*
X0230835Y0099804D01*
X0231603Y0099037D01*
X0233137Y0099037D02*
X0233137Y0097502D01*
X0233905Y0096735D01*
X0233905Y0095200D01*
X0233137Y0095200D01*
X0235439Y0095200D02*
X0236207Y0095200D01*
X0235439Y0095200D02*
X0235439Y0096735D01*
X0236207Y0097502D01*
X0236207Y0099037D01*
X0235439Y0099804D01*
X0233905Y0099804D01*
X0233137Y0099037D01*
X0259325Y0099037D02*
X0260093Y0099804D01*
X0261627Y0099804D01*
X0262395Y0099037D01*
X0262395Y0098269D01*
X0261627Y0097502D01*
X0262395Y0096735D01*
X0262395Y0095967D01*
X0261627Y0095200D01*
X0260093Y0095200D01*
X0259325Y0095967D01*
X0260860Y0097502D02*
X0261627Y0097502D01*
X0263929Y0099037D02*
X0264697Y0099804D01*
X0266231Y0099804D01*
X0266999Y0099037D01*
X0263929Y0095967D01*
X0264697Y0095200D01*
X0266231Y0095200D01*
X0266999Y0095967D01*
X0266999Y0099037D01*
X0268533Y0099037D02*
X0269301Y0099804D01*
X0270835Y0099804D01*
X0271603Y0099037D01*
X0268533Y0095967D01*
X0269301Y0095200D01*
X0270835Y0095200D01*
X0271603Y0095967D01*
X0271603Y0099037D01*
X0273137Y0099037D02*
X0273905Y0099804D01*
X0275439Y0099804D01*
X0276207Y0099037D01*
X0276207Y0097502D01*
X0275439Y0096735D01*
X0275439Y0095200D01*
X0276207Y0095200D01*
X0273905Y0095200D02*
X0273905Y0096735D01*
X0273137Y0097502D01*
X0273137Y0099037D01*
X0273137Y0095200D02*
X0273905Y0095200D01*
X0268533Y0095967D02*
X0268533Y0099037D01*
X0263929Y0099037D02*
X0263929Y0095967D01*
X0284709Y0095200D02*
X0287778Y0095200D01*
X0286244Y0095200D02*
X0286244Y0099804D01*
X0284709Y0098269D01*
X0289313Y0099037D02*
X0289313Y0095967D01*
X0292382Y0099037D01*
X0292382Y0095967D01*
X0291615Y0095200D01*
X0290080Y0095200D01*
X0289313Y0095967D01*
X0289313Y0099037D02*
X0290080Y0099804D01*
X0291615Y0099804D01*
X0292382Y0099037D01*
X0293917Y0099804D02*
X0293917Y0095200D01*
X0293917Y0096735D02*
X0296219Y0098269D01*
X0297754Y0097502D02*
X0297754Y0099037D01*
X0298521Y0099804D01*
X0300056Y0099804D01*
X0300823Y0099037D01*
X0300823Y0097502D01*
X0300056Y0096735D01*
X0300056Y0095200D01*
X0300823Y0095200D01*
X0298521Y0095200D02*
X0298521Y0096735D01*
X0297754Y0097502D01*
X0297754Y0095200D02*
X0298521Y0095200D01*
X0296219Y0095200D02*
X0293917Y0096735D01*
X0349709Y0098269D02*
X0351244Y0099804D01*
X0351244Y0095200D01*
X0352778Y0095200D02*
X0349709Y0095200D01*
X0354313Y0095967D02*
X0354313Y0099037D01*
X0355080Y0099804D01*
X0356615Y0099804D01*
X0357382Y0099037D01*
X0354313Y0095967D01*
X0355080Y0095200D01*
X0356615Y0095200D01*
X0357382Y0095967D01*
X0357382Y0099037D01*
X0358917Y0099804D02*
X0358917Y0095200D01*
X0358917Y0096735D02*
X0361219Y0098269D01*
X0362754Y0097502D02*
X0362754Y0099037D01*
X0363521Y0099804D01*
X0365056Y0099804D01*
X0365823Y0099037D01*
X0365823Y0097502D01*
X0365056Y0096735D01*
X0365056Y0095200D01*
X0365823Y0095200D01*
X0363521Y0095200D02*
X0363521Y0096735D01*
X0362754Y0097502D01*
X0362754Y0095200D02*
X0363521Y0095200D01*
X0361219Y0095200D02*
X0358917Y0096735D01*
X0315633Y0161200D02*
X0311029Y0161200D01*
X0311029Y0165804D02*
X0315633Y0165804D01*
X0315633Y0168873D01*
X0315633Y0170408D02*
X0311029Y0170408D01*
X0311029Y0172710D01*
X0311797Y0173477D01*
X0314866Y0173477D01*
X0315633Y0172710D01*
X0315633Y0170408D01*
X0313331Y0167339D02*
X0313331Y0165804D01*
X0311029Y0165804D02*
X0311029Y0168873D01*
X0305633Y0168106D02*
X0305633Y0166571D01*
X0304866Y0165804D01*
X0301797Y0165804D01*
X0301029Y0166571D01*
X0301029Y0168106D01*
X0301797Y0168873D01*
X0301029Y0170408D02*
X0305633Y0170408D01*
X0305633Y0173477D01*
X0305633Y0175012D02*
X0301029Y0175012D01*
X0303331Y0175779D02*
X0305633Y0178081D01*
X0304099Y0175012D02*
X0301029Y0178081D01*
X0295633Y0178081D02*
X0291029Y0178081D01*
X0292564Y0176546D01*
X0291029Y0175012D01*
X0295633Y0175012D01*
X0295633Y0173477D02*
X0293331Y0170408D01*
X0291029Y0173477D01*
X0291029Y0168873D02*
X0295633Y0168873D01*
X0291029Y0165804D01*
X0295633Y0165804D01*
X0294866Y0164269D02*
X0291797Y0164269D01*
X0291029Y0163502D01*
X0291029Y0161200D01*
X0295633Y0161200D01*
X0295633Y0163502D01*
X0294866Y0164269D01*
X0301029Y0163502D02*
X0301029Y0161967D01*
X0301797Y0161200D01*
X0302564Y0161200D01*
X0303331Y0161967D01*
X0303331Y0163502D01*
X0304099Y0164269D01*
X0304866Y0164269D01*
X0305633Y0163502D01*
X0305633Y0161967D01*
X0304866Y0161200D01*
X0301797Y0164269D02*
X0301029Y0163502D01*
X0305633Y0168106D02*
X0304866Y0168873D01*
X0315633Y0164269D02*
X0315633Y0161200D01*
X0295633Y0180383D02*
X0295633Y0181918D01*
X0294866Y0182685D01*
X0291797Y0182685D01*
X0291029Y0181918D01*
X0291029Y0180383D01*
X0291797Y0179616D01*
X0294866Y0179616D01*
X0295633Y0180383D01*
X0294866Y0184220D02*
X0295633Y0184987D01*
X0295633Y0186522D01*
X0294866Y0187289D01*
X0294099Y0187289D01*
X0293331Y0186522D01*
X0293331Y0184987D01*
X0292564Y0184220D01*
X0291797Y0184220D01*
X0291029Y0184987D01*
X0291029Y0186522D01*
X0291797Y0187289D01*
X0291029Y0188824D02*
X0291029Y0190358D01*
X0291029Y0189591D02*
X0295633Y0189591D01*
X0295633Y0188824D02*
X0295633Y0190358D01*
X0295633Y0191893D02*
X0293331Y0194962D01*
X0291029Y0191893D01*
X0284866Y0173477D02*
X0285633Y0172710D01*
X0285633Y0171175D01*
X0284866Y0170408D01*
X0281797Y0170408D01*
X0281029Y0171175D01*
X0281029Y0172710D01*
X0281797Y0173477D01*
X0281029Y0168873D02*
X0285633Y0165804D01*
X0284866Y0164269D02*
X0281797Y0164269D01*
X0281029Y0163502D01*
X0281029Y0161200D01*
X0285633Y0161200D01*
X0285633Y0163502D01*
X0284866Y0164269D01*
X0275633Y0164269D02*
X0274099Y0162735D01*
X0274099Y0163502D02*
X0274099Y0161200D01*
X0275633Y0161200D02*
X0271029Y0161200D01*
X0271029Y0163502D01*
X0271797Y0164269D01*
X0273331Y0164269D01*
X0274099Y0163502D01*
X0274866Y0165804D02*
X0275633Y0166571D01*
X0275633Y0168106D01*
X0274866Y0168873D01*
X0274099Y0168873D01*
X0273331Y0168106D01*
X0273331Y0166571D01*
X0272564Y0165804D01*
X0271797Y0165804D01*
X0271029Y0166571D01*
X0271029Y0168106D01*
X0271797Y0168873D01*
X0271029Y0170408D02*
X0271029Y0173477D01*
X0271029Y0171942D02*
X0275633Y0171942D01*
X0265633Y0170408D02*
X0265633Y0173477D01*
X0263331Y0171942D02*
X0263331Y0170408D01*
X0261797Y0168873D02*
X0261029Y0168106D01*
X0261029Y0166571D01*
X0261797Y0165804D01*
X0264866Y0165804D01*
X0265633Y0166571D01*
X0265633Y0168106D01*
X0264866Y0168873D01*
X0265633Y0170408D02*
X0261029Y0170408D01*
X0261029Y0173477D01*
X0255633Y0172710D02*
X0254866Y0173477D01*
X0251797Y0173477D01*
X0251029Y0172710D01*
X0251029Y0170408D01*
X0255633Y0170408D01*
X0255633Y0172710D01*
X0255633Y0168873D02*
X0251029Y0168873D01*
X0251029Y0165804D02*
X0255633Y0168873D01*
X0255633Y0165804D02*
X0251029Y0165804D01*
X0251797Y0164269D02*
X0251029Y0163502D01*
X0251029Y0161967D01*
X0251797Y0161200D01*
X0254866Y0161200D01*
X0255633Y0161967D01*
X0255633Y0163502D01*
X0254866Y0164269D01*
X0253331Y0164269D01*
X0253331Y0162735D01*
X0245633Y0162735D02*
X0244099Y0164269D01*
X0241029Y0164269D01*
X0241797Y0165804D02*
X0244866Y0165804D01*
X0245633Y0166571D01*
X0245633Y0168106D01*
X0244866Y0168873D01*
X0244866Y0170408D02*
X0245633Y0171175D01*
X0245633Y0172710D01*
X0244866Y0173477D01*
X0244866Y0170408D02*
X0241797Y0170408D01*
X0241029Y0171175D01*
X0241029Y0172710D01*
X0241797Y0173477D01*
X0241797Y0168873D02*
X0241029Y0168106D01*
X0241029Y0166571D01*
X0241797Y0165804D01*
X0241029Y0161200D02*
X0244099Y0161200D01*
X0245633Y0162735D01*
X0261029Y0163502D02*
X0261029Y0161967D01*
X0261797Y0161200D01*
X0262564Y0161200D01*
X0263331Y0161967D01*
X0263331Y0163502D01*
X0264099Y0164269D01*
X0264866Y0164269D01*
X0265633Y0163502D01*
X0265633Y0161967D01*
X0264866Y0161200D01*
X0261797Y0164269D02*
X0261029Y0163502D01*
X0136974Y0245200D02*
X0136207Y0245200D01*
X0136207Y0246735D01*
X0136974Y0247502D01*
X0136974Y0249037D01*
X0136207Y0249804D01*
X0134672Y0249804D01*
X0133905Y0249037D01*
X0133905Y0247502D01*
X0134672Y0246735D01*
X0134672Y0245200D01*
X0133905Y0245200D01*
X0132370Y0245200D02*
X0130068Y0246735D01*
X0132370Y0248269D01*
X0130068Y0249804D02*
X0130068Y0245200D01*
X0128533Y0245967D02*
X0128533Y0247502D01*
X0127766Y0248269D01*
X0126999Y0248269D01*
X0125464Y0247502D01*
X0125464Y0249804D01*
X0128533Y0249804D01*
X0128533Y0245967D02*
X0127766Y0245200D01*
X0126231Y0245200D01*
X0125464Y0245967D01*
X0123929Y0245967D02*
X0123929Y0245200D01*
X0123162Y0245200D01*
X0123162Y0245967D01*
X0123929Y0245967D01*
X0121627Y0245200D02*
X0118558Y0245200D01*
X0120093Y0245200D02*
X0120093Y0249804D01*
X0118558Y0248269D01*
X0096974Y0247502D02*
X0096207Y0246735D01*
X0096207Y0245200D01*
X0096974Y0245200D01*
X0096974Y0247502D02*
X0096974Y0249037D01*
X0096207Y0249804D01*
X0094672Y0249804D01*
X0093905Y0249037D01*
X0093905Y0247502D01*
X0094672Y0246735D01*
X0094672Y0245200D01*
X0093905Y0245200D01*
X0092370Y0245200D02*
X0090068Y0246735D01*
X0092370Y0248269D01*
X0090068Y0249804D02*
X0090068Y0245200D01*
X0088533Y0245967D02*
X0087766Y0245200D01*
X0086231Y0245200D01*
X0085464Y0245967D01*
X0083929Y0245967D02*
X0083929Y0245200D01*
X0083162Y0245200D01*
X0083162Y0245967D01*
X0083929Y0245967D01*
X0085464Y0247502D02*
X0086999Y0248269D01*
X0087766Y0248269D01*
X0088533Y0247502D01*
X0088533Y0245967D01*
X0085464Y0247502D02*
X0085464Y0249804D01*
X0088533Y0249804D01*
X0081627Y0245200D02*
X0078558Y0245200D01*
X0080093Y0245200D02*
X0080093Y0249804D01*
X0078558Y0248269D01*
X0078558Y0265200D02*
X0081627Y0265200D01*
X0080093Y0265200D02*
X0080093Y0269804D01*
X0078558Y0268269D01*
X0083162Y0265967D02*
X0083929Y0265967D01*
X0083929Y0265200D01*
X0083162Y0265200D01*
X0083162Y0265967D01*
X0085464Y0265967D02*
X0086231Y0265200D01*
X0087766Y0265200D01*
X0088533Y0265967D01*
X0088533Y0267502D01*
X0087766Y0268269D01*
X0086999Y0268269D01*
X0085464Y0267502D01*
X0085464Y0269804D01*
X0088533Y0269804D01*
X0090068Y0269804D02*
X0090068Y0265200D01*
X0090068Y0266735D02*
X0092370Y0268269D01*
X0093905Y0267502D02*
X0093905Y0269037D01*
X0094672Y0269804D01*
X0096207Y0269804D01*
X0096974Y0269037D01*
X0096974Y0267502D01*
X0096207Y0266735D01*
X0096207Y0265200D01*
X0096974Y0265200D01*
X0094672Y0265200D02*
X0094672Y0266735D01*
X0093905Y0267502D01*
X0093905Y0265200D02*
X0094672Y0265200D01*
X0092370Y0265200D02*
X0090068Y0266735D01*
X0091029Y0296388D02*
X0091029Y0298690D01*
X0091797Y0299457D01*
X0093331Y0299457D01*
X0094099Y0298690D01*
X0094099Y0296388D01*
X0095633Y0296388D02*
X0091029Y0296388D01*
X0091797Y0300992D02*
X0094866Y0300992D01*
X0095633Y0301759D01*
X0095633Y0303294D01*
X0094866Y0304061D01*
X0094866Y0305596D02*
X0095633Y0305596D01*
X0094866Y0305596D02*
X0091797Y0308665D01*
X0091029Y0308665D01*
X0091029Y0305596D01*
X0091797Y0304061D02*
X0091029Y0303294D01*
X0091029Y0301759D01*
X0091797Y0300992D01*
X0085633Y0301759D02*
X0085633Y0303294D01*
X0084866Y0304061D01*
X0084866Y0305596D02*
X0085633Y0306363D01*
X0085633Y0307898D01*
X0084866Y0308665D01*
X0084099Y0308665D01*
X0083331Y0307898D01*
X0083331Y0305596D01*
X0084866Y0305596D01*
X0083331Y0305596D02*
X0081797Y0307131D01*
X0081029Y0308665D01*
X0075633Y0307898D02*
X0075633Y0306363D01*
X0074866Y0305596D01*
X0074866Y0304061D02*
X0075633Y0303294D01*
X0075633Y0301759D01*
X0074866Y0300992D01*
X0071797Y0300992D01*
X0071029Y0301759D01*
X0071029Y0303294D01*
X0071797Y0304061D01*
X0071029Y0305596D02*
X0073331Y0305596D01*
X0072564Y0307131D01*
X0072564Y0307898D01*
X0073331Y0308665D01*
X0074866Y0308665D01*
X0075633Y0307898D01*
X0071029Y0308665D02*
X0071029Y0305596D01*
X0065633Y0303294D02*
X0064866Y0304061D01*
X0065633Y0303294D02*
X0065633Y0301759D01*
X0064866Y0300992D01*
X0061797Y0300992D01*
X0061029Y0301759D01*
X0061029Y0303294D01*
X0061797Y0304061D01*
X0063331Y0305596D02*
X0063331Y0308665D01*
X0061029Y0307898D02*
X0063331Y0305596D01*
X0065633Y0307898D02*
X0061029Y0307898D01*
X0055633Y0307898D02*
X0055633Y0306363D01*
X0054866Y0305596D01*
X0054866Y0304061D02*
X0055633Y0303294D01*
X0055633Y0300992D01*
X0051029Y0300992D01*
X0051029Y0303294D01*
X0051797Y0304061D01*
X0052564Y0304061D01*
X0053331Y0303294D01*
X0053331Y0300992D01*
X0053331Y0299457D02*
X0054099Y0298690D01*
X0054099Y0296388D01*
X0055633Y0296388D02*
X0051029Y0296388D01*
X0051029Y0298690D01*
X0051797Y0299457D01*
X0053331Y0299457D01*
X0053331Y0303294D02*
X0054099Y0304061D01*
X0054866Y0304061D01*
X0051797Y0305596D02*
X0051029Y0306363D01*
X0051029Y0307898D01*
X0051797Y0308665D01*
X0052564Y0308665D01*
X0053331Y0307898D01*
X0054099Y0308665D01*
X0054866Y0308665D01*
X0055633Y0307898D01*
X0053331Y0307898D02*
X0053331Y0307131D01*
X0045633Y0307898D02*
X0045633Y0306363D01*
X0044866Y0305596D01*
X0043331Y0307131D02*
X0043331Y0307898D01*
X0044099Y0308665D01*
X0044866Y0308665D01*
X0045633Y0307898D01*
X0043331Y0307898D02*
X0042564Y0308665D01*
X0041797Y0308665D01*
X0041029Y0307898D01*
X0041029Y0306363D01*
X0041797Y0305596D01*
X0041029Y0304061D02*
X0041029Y0300992D01*
X0045633Y0300992D01*
X0043331Y0300992D02*
X0043331Y0302527D01*
X0043331Y0299457D02*
X0041797Y0299457D01*
X0041029Y0298690D01*
X0041029Y0296388D01*
X0045633Y0296388D01*
X0044099Y0296388D02*
X0044099Y0298690D01*
X0043331Y0299457D01*
X0035633Y0300992D02*
X0031029Y0300992D01*
X0031029Y0304061D01*
X0031797Y0305596D02*
X0031029Y0306363D01*
X0031029Y0307898D01*
X0031797Y0308665D01*
X0032564Y0308665D01*
X0035633Y0305596D01*
X0035633Y0308665D01*
X0033331Y0302527D02*
X0033331Y0300992D01*
X0033331Y0299457D02*
X0034099Y0298690D01*
X0034099Y0296388D01*
X0035633Y0296388D02*
X0031029Y0296388D01*
X0031029Y0298690D01*
X0031797Y0299457D01*
X0033331Y0299457D01*
X0061029Y0298690D02*
X0061029Y0296388D01*
X0065633Y0296388D01*
X0064099Y0296388D02*
X0064099Y0298690D01*
X0063331Y0299457D01*
X0061797Y0299457D01*
X0061029Y0298690D01*
X0071029Y0298690D02*
X0071029Y0296388D01*
X0075633Y0296388D01*
X0074099Y0296388D02*
X0074099Y0298690D01*
X0073331Y0299457D01*
X0071797Y0299457D01*
X0071029Y0298690D01*
X0081029Y0298690D02*
X0081029Y0296388D01*
X0085633Y0296388D01*
X0084099Y0296388D02*
X0084099Y0298690D01*
X0083331Y0299457D01*
X0081797Y0299457D01*
X0081029Y0298690D01*
X0081797Y0300992D02*
X0081029Y0301759D01*
X0081029Y0303294D01*
X0081797Y0304061D01*
X0081797Y0300992D02*
X0084866Y0300992D01*
X0085633Y0301759D01*
X0101029Y0300992D02*
X0101029Y0303294D01*
X0101797Y0304061D01*
X0104866Y0304061D01*
X0105633Y0303294D01*
X0105633Y0300992D01*
X0101029Y0300992D01*
X0101797Y0299457D02*
X0103331Y0299457D01*
X0104099Y0298690D01*
X0104099Y0296388D01*
X0105633Y0296388D02*
X0101029Y0296388D01*
X0101029Y0298690D01*
X0101797Y0299457D01*
X0103331Y0305596D02*
X0101797Y0307131D01*
X0101029Y0308665D01*
X0103331Y0307898D02*
X0103331Y0305596D01*
X0104866Y0305596D01*
X0105633Y0306363D01*
X0105633Y0307898D01*
X0104866Y0308665D01*
X0104099Y0308665D01*
X0103331Y0307898D01*
X0111029Y0308665D02*
X0111797Y0308665D01*
X0114866Y0305596D01*
X0115633Y0305596D01*
X0114866Y0304061D02*
X0111797Y0304061D01*
X0111029Y0303294D01*
X0111029Y0300992D01*
X0115633Y0300992D01*
X0115633Y0303294D01*
X0114866Y0304061D01*
X0111029Y0305596D02*
X0111029Y0308665D01*
X0111797Y0299457D02*
X0111029Y0298690D01*
X0111029Y0296388D01*
X0115633Y0296388D01*
X0114099Y0296388D02*
X0114099Y0298690D01*
X0113331Y0299457D01*
X0111797Y0299457D01*
X0121029Y0298690D02*
X0121029Y0296388D01*
X0125633Y0296388D01*
X0124099Y0296388D02*
X0124099Y0298690D01*
X0123331Y0299457D01*
X0121797Y0299457D01*
X0121029Y0298690D01*
X0121029Y0300992D02*
X0121029Y0304061D01*
X0123331Y0302527D02*
X0123331Y0300992D01*
X0125633Y0300992D02*
X0121029Y0300992D01*
X0123331Y0305596D02*
X0123331Y0308665D01*
X0121029Y0307898D02*
X0123331Y0305596D01*
X0125633Y0307898D02*
X0121029Y0307898D01*
X0121029Y0331200D02*
X0121029Y0333502D01*
X0121797Y0334269D01*
X0123331Y0334269D01*
X0124099Y0333502D01*
X0124099Y0331200D01*
X0125633Y0331200D02*
X0121029Y0331200D01*
X0122564Y0335804D02*
X0121029Y0337339D01*
X0122564Y0338873D01*
X0125633Y0338873D01*
X0125633Y0340408D02*
X0122564Y0343477D01*
X0121797Y0343477D01*
X0121029Y0342710D01*
X0121029Y0341175D01*
X0121797Y0340408D01*
X0123331Y0338873D02*
X0123331Y0335804D01*
X0122564Y0335804D02*
X0125633Y0335804D01*
X0125633Y0340408D02*
X0125633Y0343477D01*
X0115633Y0342710D02*
X0115633Y0341175D01*
X0114866Y0340408D01*
X0115633Y0338873D02*
X0112564Y0338873D01*
X0111029Y0337339D01*
X0112564Y0335804D01*
X0115633Y0335804D01*
X0113331Y0335804D02*
X0113331Y0338873D01*
X0111797Y0340408D02*
X0111029Y0341175D01*
X0111029Y0342710D01*
X0111797Y0343477D01*
X0112564Y0343477D01*
X0113331Y0342710D01*
X0114099Y0343477D01*
X0114866Y0343477D01*
X0115633Y0342710D01*
X0113331Y0342710D02*
X0113331Y0341942D01*
X0113331Y0334269D02*
X0114099Y0333502D01*
X0114099Y0331200D01*
X0115633Y0331200D02*
X0111029Y0331200D01*
X0111029Y0333502D01*
X0111797Y0334269D01*
X0113331Y0334269D01*
X0105633Y0335804D02*
X0102564Y0335804D01*
X0101029Y0337339D01*
X0102564Y0338873D01*
X0105633Y0338873D01*
X0103331Y0338873D02*
X0103331Y0335804D01*
X0103331Y0334269D02*
X0104099Y0333502D01*
X0104099Y0331200D01*
X0105633Y0331200D02*
X0101029Y0331200D01*
X0101029Y0333502D01*
X0101797Y0334269D01*
X0103331Y0334269D01*
X0103331Y0340408D02*
X0103331Y0343477D01*
X0105633Y0342710D02*
X0101029Y0342710D01*
X0103331Y0340408D01*
X0095633Y0341175D02*
X0094866Y0340408D01*
X0093331Y0340408D01*
X0093331Y0342710D01*
X0094099Y0343477D01*
X0094866Y0343477D01*
X0095633Y0342710D01*
X0095633Y0341175D01*
X0093331Y0340408D02*
X0091797Y0341942D01*
X0091029Y0343477D01*
X0091797Y0338873D02*
X0092564Y0338873D01*
X0093331Y0338106D01*
X0093331Y0335804D01*
X0093331Y0334269D02*
X0094099Y0333502D01*
X0094099Y0331200D01*
X0095633Y0331200D02*
X0091029Y0331200D01*
X0091029Y0333502D01*
X0091797Y0334269D01*
X0093331Y0334269D01*
X0091029Y0335804D02*
X0091029Y0338106D01*
X0091797Y0338873D01*
X0093331Y0338106D02*
X0094099Y0338873D01*
X0094866Y0338873D01*
X0095633Y0338106D01*
X0095633Y0335804D01*
X0091029Y0335804D01*
X0085633Y0335804D02*
X0085633Y0338106D01*
X0084866Y0338873D01*
X0084099Y0338873D01*
X0083331Y0338106D01*
X0083331Y0335804D01*
X0083331Y0334269D02*
X0084099Y0333502D01*
X0084099Y0331200D01*
X0085633Y0331200D02*
X0081029Y0331200D01*
X0081029Y0333502D01*
X0081797Y0334269D01*
X0083331Y0334269D01*
X0085633Y0335804D02*
X0081029Y0335804D01*
X0081029Y0338106D01*
X0081797Y0338873D01*
X0082564Y0338873D01*
X0083331Y0338106D01*
X0084866Y0340408D02*
X0085633Y0340408D01*
X0084866Y0340408D02*
X0081797Y0343477D01*
X0081029Y0343477D01*
X0081029Y0340408D01*
X0075633Y0341942D02*
X0071029Y0341942D01*
X0071029Y0340408D02*
X0071029Y0343477D01*
X0071797Y0338873D02*
X0071029Y0338106D01*
X0071029Y0336571D01*
X0071797Y0335804D01*
X0072564Y0335804D01*
X0073331Y0336571D01*
X0073331Y0338106D01*
X0074099Y0338873D01*
X0074866Y0338873D01*
X0075633Y0338106D01*
X0075633Y0336571D01*
X0074866Y0335804D01*
X0075633Y0334269D02*
X0074099Y0332735D01*
X0074099Y0333502D02*
X0074099Y0331200D01*
X0075633Y0331200D02*
X0071029Y0331200D01*
X0071029Y0333502D01*
X0071797Y0334269D01*
X0073331Y0334269D01*
X0074099Y0333502D01*
X0065633Y0335804D02*
X0061029Y0335804D01*
X0061029Y0338873D01*
X0061797Y0340408D02*
X0061029Y0341175D01*
X0061029Y0342710D01*
X0061797Y0343477D01*
X0064866Y0340408D01*
X0065633Y0341175D01*
X0065633Y0342710D01*
X0064866Y0343477D01*
X0061797Y0343477D01*
X0061797Y0340408D02*
X0064866Y0340408D01*
X0063331Y0337339D02*
X0063331Y0335804D01*
X0063331Y0334269D02*
X0064099Y0333502D01*
X0064099Y0331200D01*
X0065633Y0331200D02*
X0061029Y0331200D01*
X0061029Y0333502D01*
X0061797Y0334269D01*
X0063331Y0334269D01*
X0055633Y0335804D02*
X0055633Y0338873D01*
X0054866Y0340408D02*
X0051797Y0343477D01*
X0054866Y0343477D01*
X0055633Y0342710D01*
X0055633Y0341175D01*
X0054866Y0340408D01*
X0051797Y0340408D01*
X0051029Y0341175D01*
X0051029Y0342710D01*
X0051797Y0343477D01*
X0051029Y0338873D02*
X0051029Y0335804D01*
X0055633Y0335804D01*
X0053331Y0335804D02*
X0053331Y0337339D01*
X0053331Y0334269D02*
X0054099Y0333502D01*
X0054099Y0331200D01*
X0055633Y0331200D02*
X0051029Y0331200D01*
X0051029Y0333502D01*
X0051797Y0334269D01*
X0053331Y0334269D01*
X0045633Y0335804D02*
X0045633Y0338106D01*
X0044866Y0338873D01*
X0044099Y0338873D01*
X0043331Y0338106D01*
X0043331Y0335804D01*
X0043331Y0334269D02*
X0044099Y0333502D01*
X0044099Y0331200D01*
X0045633Y0331200D02*
X0041029Y0331200D01*
X0041029Y0333502D01*
X0041797Y0334269D01*
X0043331Y0334269D01*
X0045633Y0335804D02*
X0041029Y0335804D01*
X0041029Y0338106D01*
X0041797Y0338873D01*
X0042564Y0338873D01*
X0043331Y0338106D01*
X0041797Y0340408D02*
X0041029Y0341175D01*
X0041029Y0342710D01*
X0041797Y0343477D01*
X0042564Y0343477D01*
X0045633Y0340408D01*
X0045633Y0343477D01*
X0035633Y0342710D02*
X0035633Y0340408D01*
X0031029Y0340408D01*
X0031029Y0342710D01*
X0031797Y0343477D01*
X0034866Y0343477D01*
X0035633Y0342710D01*
X0035633Y0338873D02*
X0031029Y0338873D01*
X0031029Y0335804D02*
X0035633Y0338873D01*
X0035633Y0335804D02*
X0031029Y0335804D01*
X0031797Y0334269D02*
X0031029Y0333502D01*
X0031029Y0331967D01*
X0031797Y0331200D01*
X0034866Y0331200D01*
X0035633Y0331967D01*
X0035633Y0333502D01*
X0034866Y0334269D01*
X0033331Y0334269D01*
X0033331Y0332735D01*
X0081244Y0229804D02*
X0081244Y0225200D01*
X0082778Y0225200D02*
X0079709Y0225200D01*
X0079709Y0228269D02*
X0081244Y0229804D01*
X0084313Y0229037D02*
X0085080Y0229804D01*
X0086615Y0229804D01*
X0087382Y0229037D01*
X0087382Y0228269D01*
X0084313Y0225200D01*
X0087382Y0225200D01*
X0088917Y0225200D02*
X0088917Y0229804D01*
X0091219Y0228269D02*
X0088917Y0226735D01*
X0091219Y0225200D01*
X0092754Y0225200D02*
X0093521Y0225200D01*
X0093521Y0226735D01*
X0092754Y0227502D01*
X0092754Y0229037D01*
X0093521Y0229804D01*
X0095056Y0229804D01*
X0095823Y0229037D01*
X0095823Y0227502D01*
X0095056Y0226735D01*
X0095056Y0225200D01*
X0095823Y0225200D01*
X0095056Y0209804D02*
X0093521Y0209804D01*
X0092754Y0209037D01*
X0092754Y0207502D01*
X0093521Y0206735D01*
X0093521Y0205200D01*
X0092754Y0205200D01*
X0091219Y0205200D02*
X0088917Y0206735D01*
X0091219Y0208269D01*
X0088917Y0209804D02*
X0088917Y0205200D01*
X0087382Y0205200D02*
X0084313Y0205200D01*
X0087382Y0208269D01*
X0087382Y0209037D01*
X0086615Y0209804D01*
X0085080Y0209804D01*
X0084313Y0209037D01*
X0081244Y0209804D02*
X0081244Y0205200D01*
X0082778Y0205200D02*
X0079709Y0205200D01*
X0079709Y0208269D02*
X0081244Y0209804D01*
X0095056Y0209804D02*
X0095823Y0209037D01*
X0095823Y0207502D01*
X0095056Y0206735D01*
X0095056Y0205200D01*
X0095823Y0205200D01*
X0095056Y0189804D02*
X0093521Y0189804D01*
X0092754Y0189037D01*
X0092754Y0187502D01*
X0093521Y0186735D01*
X0093521Y0185200D01*
X0092754Y0185200D01*
X0091219Y0185200D02*
X0088917Y0186735D01*
X0091219Y0188269D01*
X0088917Y0189804D02*
X0088917Y0185200D01*
X0087382Y0185200D02*
X0084313Y0185200D01*
X0087382Y0188269D01*
X0087382Y0189037D01*
X0086615Y0189804D01*
X0085080Y0189804D01*
X0084313Y0189037D01*
X0081244Y0189804D02*
X0081244Y0185200D01*
X0082778Y0185200D02*
X0079709Y0185200D01*
X0079709Y0188269D02*
X0081244Y0189804D01*
X0095056Y0189804D02*
X0095823Y0189037D01*
X0095823Y0187502D01*
X0095056Y0186735D01*
X0095056Y0185200D01*
X0095823Y0185200D01*
X0095633Y0173477D02*
X0095633Y0170408D01*
X0095633Y0171942D02*
X0091029Y0171942D01*
X0092564Y0170408D01*
X0091029Y0168873D02*
X0091029Y0165804D01*
X0095633Y0165804D01*
X0095633Y0168873D01*
X0093331Y0167339D02*
X0093331Y0165804D01*
X0093331Y0164269D02*
X0094099Y0163502D01*
X0094099Y0161200D01*
X0095633Y0161200D02*
X0091029Y0161200D01*
X0091029Y0163502D01*
X0091797Y0164269D01*
X0093331Y0164269D01*
X0101029Y0163502D02*
X0101029Y0161200D01*
X0105633Y0161200D01*
X0104099Y0161200D02*
X0104099Y0163502D01*
X0103331Y0164269D01*
X0101797Y0164269D01*
X0101029Y0163502D01*
X0101029Y0165804D02*
X0105633Y0165804D01*
X0105633Y0168873D01*
X0105633Y0170408D02*
X0102564Y0173477D01*
X0101797Y0173477D01*
X0101029Y0172710D01*
X0101029Y0171175D01*
X0101797Y0170408D01*
X0101029Y0168873D02*
X0101029Y0165804D01*
X0103331Y0165804D02*
X0103331Y0167339D01*
X0105633Y0170408D02*
X0105633Y0173477D01*
X0111029Y0172710D02*
X0111797Y0173477D01*
X0112564Y0173477D01*
X0113331Y0172710D01*
X0114099Y0173477D01*
X0114866Y0173477D01*
X0115633Y0172710D01*
X0115633Y0171175D01*
X0114866Y0170408D01*
X0115633Y0168873D02*
X0115633Y0165804D01*
X0111029Y0165804D01*
X0111029Y0168873D01*
X0111797Y0170408D02*
X0111029Y0171175D01*
X0111029Y0172710D01*
X0113331Y0172710D02*
X0113331Y0171942D01*
X0113331Y0167339D02*
X0113331Y0165804D01*
X0113331Y0164269D02*
X0114099Y0163502D01*
X0114099Y0161200D01*
X0115633Y0161200D02*
X0111029Y0161200D01*
X0111029Y0163502D01*
X0111797Y0164269D01*
X0113331Y0164269D01*
X0121029Y0163502D02*
X0121029Y0161200D01*
X0125633Y0161200D01*
X0124099Y0161200D02*
X0124099Y0163502D01*
X0123331Y0164269D01*
X0121797Y0164269D01*
X0121029Y0163502D01*
X0121029Y0165804D02*
X0121029Y0168873D01*
X0122564Y0170408D02*
X0121029Y0171942D01*
X0125633Y0171942D01*
X0125633Y0170408D02*
X0125633Y0173477D01*
X0123331Y0167339D02*
X0123331Y0165804D01*
X0125633Y0165804D02*
X0121029Y0165804D01*
X0085633Y0165804D02*
X0085633Y0168106D01*
X0084866Y0168873D01*
X0081797Y0168873D01*
X0081029Y0168106D01*
X0081029Y0165804D01*
X0085633Y0165804D01*
X0083331Y0164269D02*
X0084099Y0163502D01*
X0084099Y0161200D01*
X0085633Y0161200D02*
X0081029Y0161200D01*
X0081029Y0163502D01*
X0081797Y0164269D01*
X0083331Y0164269D01*
X0081797Y0170408D02*
X0081029Y0171175D01*
X0081029Y0172710D01*
X0081797Y0173477D01*
X0082564Y0173477D01*
X0083331Y0172710D01*
X0084099Y0173477D01*
X0084866Y0173477D01*
X0085633Y0172710D01*
X0085633Y0171175D01*
X0084866Y0170408D01*
X0083331Y0171942D02*
X0083331Y0172710D01*
X0075633Y0173477D02*
X0075633Y0170408D01*
X0072564Y0173477D01*
X0071797Y0173477D01*
X0071029Y0172710D01*
X0071029Y0171175D01*
X0071797Y0170408D01*
X0071797Y0168873D02*
X0071029Y0168106D01*
X0071029Y0165804D01*
X0075633Y0165804D01*
X0075633Y0168106D01*
X0074866Y0168873D01*
X0071797Y0168873D01*
X0071797Y0164269D02*
X0073331Y0164269D01*
X0074099Y0163502D01*
X0074099Y0161200D01*
X0075633Y0161200D02*
X0071029Y0161200D01*
X0071029Y0163502D01*
X0071797Y0164269D01*
X0065633Y0165804D02*
X0065633Y0168106D01*
X0064866Y0168873D01*
X0061797Y0168873D01*
X0061029Y0168106D01*
X0061029Y0165804D01*
X0065633Y0165804D01*
X0063331Y0164269D02*
X0064099Y0163502D01*
X0064099Y0161200D01*
X0065633Y0161200D02*
X0061029Y0161200D01*
X0061029Y0163502D01*
X0061797Y0164269D01*
X0063331Y0164269D01*
X0062564Y0170408D02*
X0061029Y0171942D01*
X0065633Y0171942D01*
X0065633Y0170408D02*
X0065633Y0173477D01*
X0055633Y0172710D02*
X0055633Y0171175D01*
X0054866Y0170408D01*
X0051797Y0173477D01*
X0054866Y0173477D01*
X0055633Y0172710D01*
X0054866Y0170408D02*
X0051797Y0170408D01*
X0051029Y0171175D01*
X0051029Y0172710D01*
X0051797Y0173477D01*
X0051797Y0168873D02*
X0051029Y0168106D01*
X0051029Y0165804D01*
X0055633Y0165804D01*
X0055633Y0168106D01*
X0054866Y0168873D01*
X0051797Y0168873D01*
X0051797Y0164269D02*
X0051029Y0163502D01*
X0051029Y0161200D01*
X0055633Y0161200D01*
X0054099Y0161200D02*
X0054099Y0163502D01*
X0053331Y0164269D01*
X0051797Y0164269D01*
X0045633Y0163502D02*
X0045633Y0161967D01*
X0044866Y0161200D01*
X0041797Y0161200D01*
X0041029Y0161967D01*
X0041029Y0163502D01*
X0041797Y0164269D01*
X0043331Y0164269D02*
X0043331Y0162735D01*
X0043331Y0164269D02*
X0044866Y0164269D01*
X0045633Y0163502D01*
X0045633Y0165804D02*
X0041029Y0165804D01*
X0045633Y0168873D01*
X0041029Y0168873D01*
X0041029Y0170408D02*
X0041029Y0172710D01*
X0041797Y0173477D01*
X0044866Y0173477D01*
X0045633Y0172710D01*
X0045633Y0170408D01*
X0041029Y0170408D01*
X0035633Y0171175D02*
X0035633Y0172710D01*
X0034866Y0173477D01*
X0031029Y0173477D01*
X0031797Y0175012D02*
X0032564Y0175012D01*
X0033331Y0175779D01*
X0033331Y0177314D01*
X0034099Y0178081D01*
X0034866Y0178081D01*
X0035633Y0177314D01*
X0035633Y0175779D01*
X0034866Y0175012D01*
X0031797Y0175012D02*
X0031029Y0175779D01*
X0031029Y0177314D01*
X0031797Y0178081D01*
X0031029Y0170408D02*
X0034866Y0170408D01*
X0035633Y0171175D01*
X0034866Y0168873D02*
X0034099Y0168873D01*
X0033331Y0168106D01*
X0033331Y0165804D01*
X0034099Y0164269D02*
X0031029Y0164269D01*
X0031029Y0165804D02*
X0031029Y0168106D01*
X0031797Y0168873D01*
X0032564Y0168873D01*
X0033331Y0168106D01*
X0034866Y0168873D02*
X0035633Y0168106D01*
X0035633Y0165804D01*
X0031029Y0165804D01*
X0034099Y0164269D02*
X0035633Y0162735D01*
X0034099Y0161200D01*
X0031029Y0161200D01*
X0031797Y0121017D02*
X0034866Y0121017D01*
X0241029Y0296388D02*
X0244099Y0296388D01*
X0245633Y0297923D01*
X0244099Y0299457D01*
X0241029Y0299457D01*
X0241797Y0300992D02*
X0244866Y0300992D01*
X0245633Y0301759D01*
X0245633Y0303294D01*
X0244866Y0304061D01*
X0244866Y0305596D02*
X0245633Y0306363D01*
X0245633Y0307898D01*
X0244866Y0308665D01*
X0244866Y0305596D02*
X0241797Y0305596D01*
X0241029Y0306363D01*
X0241029Y0307898D01*
X0241797Y0308665D01*
X0241797Y0304061D02*
X0241029Y0303294D01*
X0241029Y0301759D01*
X0241797Y0300992D01*
X0251029Y0300992D02*
X0255633Y0304061D01*
X0251029Y0304061D01*
X0251029Y0305596D02*
X0251029Y0307898D01*
X0251797Y0308665D01*
X0254866Y0308665D01*
X0255633Y0307898D01*
X0255633Y0305596D01*
X0251029Y0305596D01*
X0251029Y0300992D02*
X0255633Y0300992D01*
X0254866Y0299457D02*
X0253331Y0299457D01*
X0253331Y0297923D01*
X0251797Y0299457D02*
X0251029Y0298690D01*
X0251029Y0297156D01*
X0251797Y0296388D01*
X0254866Y0296388D01*
X0255633Y0297156D01*
X0255633Y0298690D01*
X0254866Y0299457D01*
X0261029Y0298690D02*
X0261029Y0297156D01*
X0261797Y0296388D01*
X0262564Y0296388D01*
X0263331Y0297156D01*
X0263331Y0298690D01*
X0264099Y0299457D01*
X0264866Y0299457D01*
X0265633Y0298690D01*
X0265633Y0297156D01*
X0264866Y0296388D01*
X0261797Y0299457D02*
X0261029Y0298690D01*
X0261797Y0300992D02*
X0264866Y0300992D01*
X0265633Y0301759D01*
X0265633Y0303294D01*
X0264866Y0304061D01*
X0265633Y0305596D02*
X0261029Y0305596D01*
X0261029Y0308665D01*
X0263331Y0307131D02*
X0263331Y0305596D01*
X0261797Y0304061D02*
X0261029Y0303294D01*
X0261029Y0301759D01*
X0261797Y0300992D01*
X0265633Y0305596D02*
X0265633Y0308665D01*
X0271029Y0308665D02*
X0271029Y0305596D01*
X0271029Y0307131D02*
X0275633Y0307131D01*
X0274866Y0304061D02*
X0275633Y0303294D01*
X0275633Y0301759D01*
X0274866Y0300992D01*
X0275633Y0299457D02*
X0274099Y0297923D01*
X0274099Y0298690D02*
X0274099Y0296388D01*
X0275633Y0296388D02*
X0271029Y0296388D01*
X0271029Y0298690D01*
X0271797Y0299457D01*
X0273331Y0299457D01*
X0274099Y0298690D01*
X0272564Y0300992D02*
X0273331Y0301759D01*
X0273331Y0303294D01*
X0274099Y0304061D01*
X0274866Y0304061D01*
X0271797Y0304061D02*
X0271029Y0303294D01*
X0271029Y0301759D01*
X0271797Y0300992D01*
X0272564Y0300992D01*
X0281029Y0298690D02*
X0281029Y0296388D01*
X0285633Y0296388D01*
X0285633Y0298690D01*
X0284866Y0299457D01*
X0281797Y0299457D01*
X0281029Y0298690D01*
X0285633Y0300992D02*
X0281029Y0304061D01*
X0281797Y0305596D02*
X0284866Y0305596D01*
X0285633Y0306363D01*
X0285633Y0307898D01*
X0284866Y0308665D01*
X0281797Y0308665D02*
X0281029Y0307898D01*
X0281029Y0306363D01*
X0281797Y0305596D01*
X0291029Y0305596D02*
X0293331Y0308665D01*
X0295633Y0305596D01*
X0295633Y0304061D02*
X0295633Y0302527D01*
X0295633Y0303294D02*
X0291029Y0303294D01*
X0291029Y0302527D02*
X0291029Y0304061D01*
X0291797Y0300992D02*
X0291029Y0300225D01*
X0291029Y0298690D01*
X0291797Y0297923D01*
X0292564Y0297923D01*
X0293331Y0298690D01*
X0293331Y0300225D01*
X0294099Y0300992D01*
X0294866Y0300992D01*
X0295633Y0300225D01*
X0295633Y0298690D01*
X0294866Y0297923D01*
X0294866Y0296388D02*
X0291797Y0296388D01*
X0291029Y0295621D01*
X0291029Y0294086D01*
X0291797Y0293319D01*
X0294866Y0293319D01*
X0295633Y0294086D01*
X0295633Y0295621D01*
X0294866Y0296388D01*
X0295633Y0291784D02*
X0291029Y0291784D01*
X0292564Y0290250D01*
X0291029Y0288715D01*
X0295633Y0288715D01*
X0295633Y0287180D02*
X0293331Y0284111D01*
X0291029Y0287180D01*
X0291029Y0282576D02*
X0295633Y0282576D01*
X0291029Y0279507D01*
X0295633Y0279507D01*
X0294866Y0277972D02*
X0291797Y0277972D01*
X0291029Y0277205D01*
X0291029Y0274903D01*
X0295633Y0274903D01*
X0295633Y0277205D01*
X0294866Y0277972D01*
X0301797Y0291784D02*
X0302564Y0291784D01*
X0303331Y0292552D01*
X0303331Y0294086D01*
X0304099Y0294854D01*
X0304866Y0294854D01*
X0305633Y0294086D01*
X0305633Y0292552D01*
X0304866Y0291784D01*
X0301797Y0291784D02*
X0301029Y0292552D01*
X0301029Y0294086D01*
X0301797Y0294854D01*
X0301797Y0296388D02*
X0304866Y0296388D01*
X0305633Y0297155D01*
X0305633Y0298690D01*
X0304866Y0299457D01*
X0305633Y0300992D02*
X0301029Y0300992D01*
X0301797Y0299457D02*
X0301029Y0298690D01*
X0301029Y0297155D01*
X0301797Y0296388D01*
X0305633Y0300992D02*
X0305633Y0304061D01*
X0305633Y0305596D02*
X0301029Y0305596D01*
X0303331Y0306363D02*
X0305633Y0308665D01*
X0304099Y0305596D02*
X0301029Y0308665D01*
X0311029Y0307898D02*
X0311029Y0305596D01*
X0315633Y0305596D01*
X0315633Y0307898D01*
X0314866Y0308665D01*
X0311797Y0308665D01*
X0311029Y0307898D01*
X0311029Y0304061D02*
X0311029Y0300992D01*
X0315633Y0300992D01*
X0315633Y0304061D01*
X0313331Y0302527D02*
X0313331Y0300992D01*
X0315633Y0299457D02*
X0315633Y0296388D01*
X0311029Y0296388D01*
X0286207Y0340200D02*
X0285439Y0340200D01*
X0285439Y0341735D01*
X0286207Y0342502D01*
X0286207Y0344037D01*
X0285439Y0344804D01*
X0283905Y0344804D01*
X0283137Y0344037D01*
X0283137Y0342502D01*
X0283905Y0341735D01*
X0283905Y0340200D01*
X0283137Y0340200D01*
X0281603Y0340967D02*
X0280835Y0340200D01*
X0279301Y0340200D01*
X0278533Y0340967D01*
X0281603Y0344037D01*
X0281603Y0340967D01*
X0281603Y0344037D02*
X0280835Y0344804D01*
X0279301Y0344804D01*
X0278533Y0344037D01*
X0278533Y0340967D01*
X0276999Y0340200D02*
X0273929Y0340200D01*
X0276999Y0343269D01*
X0276999Y0344037D01*
X0276231Y0344804D01*
X0274697Y0344804D01*
X0273929Y0344037D01*
X0272395Y0344037D02*
X0271627Y0344804D01*
X0270093Y0344804D01*
X0269325Y0344037D01*
X0272395Y0344037D02*
X0272395Y0343269D01*
X0269325Y0340200D01*
X0272395Y0340200D01*
D11*
X0216916Y0051299D02*
X0039751Y0051299D01*
X0039751Y0088701D01*
X0216916Y0088701D01*
X0216916Y0051299D01*
X0218333Y0102000D02*
X0218333Y0105000D01*
X0217333Y0105000D01*
X0218333Y0105000D02*
X0218333Y0108000D01*
X0238333Y0108000D01*
X0238333Y0105000D01*
X0239333Y0105000D01*
X0238333Y0105000D02*
X0238333Y0102000D01*
X0218333Y0102000D01*
X0238333Y0117500D02*
X0238333Y0132500D01*
X0240833Y0150000D02*
X0245833Y0150000D01*
X0248333Y0152500D01*
X0250833Y0150000D01*
X0255833Y0150000D01*
X0258333Y0152500D01*
X0260833Y0150000D01*
X0265833Y0150000D01*
X0268333Y0152500D01*
X0270833Y0150000D01*
X0275833Y0150000D01*
X0278333Y0152500D01*
X0280833Y0150000D01*
X0285833Y0150000D01*
X0288333Y0152500D01*
X0290833Y0150000D01*
X0295833Y0150000D01*
X0298333Y0152500D01*
X0300833Y0150000D01*
X0305833Y0150000D01*
X0308333Y0152500D01*
X0310833Y0150000D01*
X0315833Y0150000D01*
X0318333Y0152500D01*
X0318333Y0157500D01*
X0315833Y0160000D01*
X0310833Y0160000D01*
X0308333Y0157500D01*
X0305833Y0160000D01*
X0300833Y0160000D01*
X0298333Y0157500D01*
X0295833Y0160000D01*
X0290833Y0160000D01*
X0288333Y0157500D01*
X0285833Y0160000D01*
X0280833Y0160000D01*
X0278333Y0157500D01*
X0275833Y0160000D01*
X0270833Y0160000D01*
X0268333Y0157500D01*
X0265833Y0160000D01*
X0260833Y0160000D01*
X0258333Y0157500D01*
X0255833Y0160000D01*
X0250833Y0160000D01*
X0248333Y0157500D01*
X0245833Y0160000D01*
X0240833Y0160000D01*
X0238333Y0157500D01*
X0238333Y0152500D01*
X0240833Y0150000D01*
X0278333Y0132500D02*
X0278333Y0117500D01*
X0278333Y0108000D02*
X0278333Y0105000D01*
X0279333Y0105000D01*
X0278333Y0105000D02*
X0278333Y0102000D01*
X0258333Y0102000D01*
X0258333Y0105000D01*
X0257333Y0105000D01*
X0258333Y0105000D02*
X0258333Y0108000D01*
X0278333Y0108000D01*
X0283333Y0093000D02*
X0303333Y0093000D01*
X0303333Y0090000D01*
X0304333Y0090000D01*
X0303333Y0090000D02*
X0303333Y0087000D01*
X0283333Y0087000D01*
X0283333Y0090000D01*
X0282333Y0090000D01*
X0283333Y0090000D02*
X0283333Y0093000D01*
X0284833Y0077000D02*
X0301833Y0077000D01*
X0305333Y0068929D02*
X0305333Y0061000D01*
X0301833Y0053000D02*
X0284833Y0053000D01*
X0281333Y0061000D02*
X0281333Y0069047D01*
X0286333Y0065000D02*
X0286335Y0065172D01*
X0286341Y0065343D01*
X0286352Y0065515D01*
X0286367Y0065686D01*
X0286386Y0065857D01*
X0286409Y0066027D01*
X0286436Y0066197D01*
X0286468Y0066366D01*
X0286503Y0066534D01*
X0286543Y0066701D01*
X0286587Y0066867D01*
X0286634Y0067032D01*
X0286686Y0067196D01*
X0286742Y0067358D01*
X0286802Y0067519D01*
X0286866Y0067679D01*
X0286934Y0067837D01*
X0287005Y0067993D01*
X0287080Y0068147D01*
X0287160Y0068300D01*
X0287242Y0068450D01*
X0287329Y0068599D01*
X0287419Y0068745D01*
X0287513Y0068889D01*
X0287610Y0069031D01*
X0287711Y0069170D01*
X0287815Y0069307D01*
X0287922Y0069441D01*
X0288033Y0069572D01*
X0288146Y0069701D01*
X0288263Y0069827D01*
X0288383Y0069950D01*
X0288506Y0070070D01*
X0288632Y0070187D01*
X0288761Y0070300D01*
X0288892Y0070411D01*
X0289026Y0070518D01*
X0289163Y0070622D01*
X0289302Y0070723D01*
X0289444Y0070820D01*
X0289588Y0070914D01*
X0289734Y0071004D01*
X0289883Y0071091D01*
X0290033Y0071173D01*
X0290186Y0071253D01*
X0290340Y0071328D01*
X0290496Y0071399D01*
X0290654Y0071467D01*
X0290814Y0071531D01*
X0290975Y0071591D01*
X0291137Y0071647D01*
X0291301Y0071699D01*
X0291466Y0071746D01*
X0291632Y0071790D01*
X0291799Y0071830D01*
X0291967Y0071865D01*
X0292136Y0071897D01*
X0292306Y0071924D01*
X0292476Y0071947D01*
X0292647Y0071966D01*
X0292818Y0071981D01*
X0292990Y0071992D01*
X0293161Y0071998D01*
X0293333Y0072000D01*
X0293505Y0071998D01*
X0293676Y0071992D01*
X0293848Y0071981D01*
X0294019Y0071966D01*
X0294190Y0071947D01*
X0294360Y0071924D01*
X0294530Y0071897D01*
X0294699Y0071865D01*
X0294867Y0071830D01*
X0295034Y0071790D01*
X0295200Y0071746D01*
X0295365Y0071699D01*
X0295529Y0071647D01*
X0295691Y0071591D01*
X0295852Y0071531D01*
X0296012Y0071467D01*
X0296170Y0071399D01*
X0296326Y0071328D01*
X0296480Y0071253D01*
X0296633Y0071173D01*
X0296783Y0071091D01*
X0296932Y0071004D01*
X0297078Y0070914D01*
X0297222Y0070820D01*
X0297364Y0070723D01*
X0297503Y0070622D01*
X0297640Y0070518D01*
X0297774Y0070411D01*
X0297905Y0070300D01*
X0298034Y0070187D01*
X0298160Y0070070D01*
X0298283Y0069950D01*
X0298403Y0069827D01*
X0298520Y0069701D01*
X0298633Y0069572D01*
X0298744Y0069441D01*
X0298851Y0069307D01*
X0298955Y0069170D01*
X0299056Y0069031D01*
X0299153Y0068889D01*
X0299247Y0068745D01*
X0299337Y0068599D01*
X0299424Y0068450D01*
X0299506Y0068300D01*
X0299586Y0068147D01*
X0299661Y0067993D01*
X0299732Y0067837D01*
X0299800Y0067679D01*
X0299864Y0067519D01*
X0299924Y0067358D01*
X0299980Y0067196D01*
X0300032Y0067032D01*
X0300079Y0066867D01*
X0300123Y0066701D01*
X0300163Y0066534D01*
X0300198Y0066366D01*
X0300230Y0066197D01*
X0300257Y0066027D01*
X0300280Y0065857D01*
X0300299Y0065686D01*
X0300314Y0065515D01*
X0300325Y0065343D01*
X0300331Y0065172D01*
X0300333Y0065000D01*
X0300331Y0064828D01*
X0300325Y0064657D01*
X0300314Y0064485D01*
X0300299Y0064314D01*
X0300280Y0064143D01*
X0300257Y0063973D01*
X0300230Y0063803D01*
X0300198Y0063634D01*
X0300163Y0063466D01*
X0300123Y0063299D01*
X0300079Y0063133D01*
X0300032Y0062968D01*
X0299980Y0062804D01*
X0299924Y0062642D01*
X0299864Y0062481D01*
X0299800Y0062321D01*
X0299732Y0062163D01*
X0299661Y0062007D01*
X0299586Y0061853D01*
X0299506Y0061700D01*
X0299424Y0061550D01*
X0299337Y0061401D01*
X0299247Y0061255D01*
X0299153Y0061111D01*
X0299056Y0060969D01*
X0298955Y0060830D01*
X0298851Y0060693D01*
X0298744Y0060559D01*
X0298633Y0060428D01*
X0298520Y0060299D01*
X0298403Y0060173D01*
X0298283Y0060050D01*
X0298160Y0059930D01*
X0298034Y0059813D01*
X0297905Y0059700D01*
X0297774Y0059589D01*
X0297640Y0059482D01*
X0297503Y0059378D01*
X0297364Y0059277D01*
X0297222Y0059180D01*
X0297078Y0059086D01*
X0296932Y0058996D01*
X0296783Y0058909D01*
X0296633Y0058827D01*
X0296480Y0058747D01*
X0296326Y0058672D01*
X0296170Y0058601D01*
X0296012Y0058533D01*
X0295852Y0058469D01*
X0295691Y0058409D01*
X0295529Y0058353D01*
X0295365Y0058301D01*
X0295200Y0058254D01*
X0295034Y0058210D01*
X0294867Y0058170D01*
X0294699Y0058135D01*
X0294530Y0058103D01*
X0294360Y0058076D01*
X0294190Y0058053D01*
X0294019Y0058034D01*
X0293848Y0058019D01*
X0293676Y0058008D01*
X0293505Y0058002D01*
X0293333Y0058000D01*
X0293161Y0058002D01*
X0292990Y0058008D01*
X0292818Y0058019D01*
X0292647Y0058034D01*
X0292476Y0058053D01*
X0292306Y0058076D01*
X0292136Y0058103D01*
X0291967Y0058135D01*
X0291799Y0058170D01*
X0291632Y0058210D01*
X0291466Y0058254D01*
X0291301Y0058301D01*
X0291137Y0058353D01*
X0290975Y0058409D01*
X0290814Y0058469D01*
X0290654Y0058533D01*
X0290496Y0058601D01*
X0290340Y0058672D01*
X0290186Y0058747D01*
X0290033Y0058827D01*
X0289883Y0058909D01*
X0289734Y0058996D01*
X0289588Y0059086D01*
X0289444Y0059180D01*
X0289302Y0059277D01*
X0289163Y0059378D01*
X0289026Y0059482D01*
X0288892Y0059589D01*
X0288761Y0059700D01*
X0288632Y0059813D01*
X0288506Y0059930D01*
X0288383Y0060050D01*
X0288263Y0060173D01*
X0288146Y0060299D01*
X0288033Y0060428D01*
X0287922Y0060559D01*
X0287815Y0060693D01*
X0287711Y0060830D01*
X0287610Y0060969D01*
X0287513Y0061111D01*
X0287419Y0061255D01*
X0287329Y0061401D01*
X0287242Y0061550D01*
X0287160Y0061700D01*
X0287080Y0061853D01*
X0287005Y0062007D01*
X0286934Y0062163D01*
X0286866Y0062321D01*
X0286802Y0062481D01*
X0286742Y0062642D01*
X0286686Y0062804D01*
X0286634Y0062968D01*
X0286587Y0063133D01*
X0286543Y0063299D01*
X0286503Y0063466D01*
X0286468Y0063634D01*
X0286436Y0063803D01*
X0286409Y0063973D01*
X0286386Y0064143D01*
X0286367Y0064314D01*
X0286352Y0064485D01*
X0286341Y0064657D01*
X0286335Y0064828D01*
X0286333Y0065000D01*
X0346333Y0061000D02*
X0346333Y0069047D01*
X0349833Y0077000D02*
X0366833Y0077000D01*
X0370333Y0068929D02*
X0370333Y0061000D01*
X0366833Y0053000D02*
X0349833Y0053000D01*
X0351333Y0065000D02*
X0351335Y0065172D01*
X0351341Y0065343D01*
X0351352Y0065515D01*
X0351367Y0065686D01*
X0351386Y0065857D01*
X0351409Y0066027D01*
X0351436Y0066197D01*
X0351468Y0066366D01*
X0351503Y0066534D01*
X0351543Y0066701D01*
X0351587Y0066867D01*
X0351634Y0067032D01*
X0351686Y0067196D01*
X0351742Y0067358D01*
X0351802Y0067519D01*
X0351866Y0067679D01*
X0351934Y0067837D01*
X0352005Y0067993D01*
X0352080Y0068147D01*
X0352160Y0068300D01*
X0352242Y0068450D01*
X0352329Y0068599D01*
X0352419Y0068745D01*
X0352513Y0068889D01*
X0352610Y0069031D01*
X0352711Y0069170D01*
X0352815Y0069307D01*
X0352922Y0069441D01*
X0353033Y0069572D01*
X0353146Y0069701D01*
X0353263Y0069827D01*
X0353383Y0069950D01*
X0353506Y0070070D01*
X0353632Y0070187D01*
X0353761Y0070300D01*
X0353892Y0070411D01*
X0354026Y0070518D01*
X0354163Y0070622D01*
X0354302Y0070723D01*
X0354444Y0070820D01*
X0354588Y0070914D01*
X0354734Y0071004D01*
X0354883Y0071091D01*
X0355033Y0071173D01*
X0355186Y0071253D01*
X0355340Y0071328D01*
X0355496Y0071399D01*
X0355654Y0071467D01*
X0355814Y0071531D01*
X0355975Y0071591D01*
X0356137Y0071647D01*
X0356301Y0071699D01*
X0356466Y0071746D01*
X0356632Y0071790D01*
X0356799Y0071830D01*
X0356967Y0071865D01*
X0357136Y0071897D01*
X0357306Y0071924D01*
X0357476Y0071947D01*
X0357647Y0071966D01*
X0357818Y0071981D01*
X0357990Y0071992D01*
X0358161Y0071998D01*
X0358333Y0072000D01*
X0358505Y0071998D01*
X0358676Y0071992D01*
X0358848Y0071981D01*
X0359019Y0071966D01*
X0359190Y0071947D01*
X0359360Y0071924D01*
X0359530Y0071897D01*
X0359699Y0071865D01*
X0359867Y0071830D01*
X0360034Y0071790D01*
X0360200Y0071746D01*
X0360365Y0071699D01*
X0360529Y0071647D01*
X0360691Y0071591D01*
X0360852Y0071531D01*
X0361012Y0071467D01*
X0361170Y0071399D01*
X0361326Y0071328D01*
X0361480Y0071253D01*
X0361633Y0071173D01*
X0361783Y0071091D01*
X0361932Y0071004D01*
X0362078Y0070914D01*
X0362222Y0070820D01*
X0362364Y0070723D01*
X0362503Y0070622D01*
X0362640Y0070518D01*
X0362774Y0070411D01*
X0362905Y0070300D01*
X0363034Y0070187D01*
X0363160Y0070070D01*
X0363283Y0069950D01*
X0363403Y0069827D01*
X0363520Y0069701D01*
X0363633Y0069572D01*
X0363744Y0069441D01*
X0363851Y0069307D01*
X0363955Y0069170D01*
X0364056Y0069031D01*
X0364153Y0068889D01*
X0364247Y0068745D01*
X0364337Y0068599D01*
X0364424Y0068450D01*
X0364506Y0068300D01*
X0364586Y0068147D01*
X0364661Y0067993D01*
X0364732Y0067837D01*
X0364800Y0067679D01*
X0364864Y0067519D01*
X0364924Y0067358D01*
X0364980Y0067196D01*
X0365032Y0067032D01*
X0365079Y0066867D01*
X0365123Y0066701D01*
X0365163Y0066534D01*
X0365198Y0066366D01*
X0365230Y0066197D01*
X0365257Y0066027D01*
X0365280Y0065857D01*
X0365299Y0065686D01*
X0365314Y0065515D01*
X0365325Y0065343D01*
X0365331Y0065172D01*
X0365333Y0065000D01*
X0365331Y0064828D01*
X0365325Y0064657D01*
X0365314Y0064485D01*
X0365299Y0064314D01*
X0365280Y0064143D01*
X0365257Y0063973D01*
X0365230Y0063803D01*
X0365198Y0063634D01*
X0365163Y0063466D01*
X0365123Y0063299D01*
X0365079Y0063133D01*
X0365032Y0062968D01*
X0364980Y0062804D01*
X0364924Y0062642D01*
X0364864Y0062481D01*
X0364800Y0062321D01*
X0364732Y0062163D01*
X0364661Y0062007D01*
X0364586Y0061853D01*
X0364506Y0061700D01*
X0364424Y0061550D01*
X0364337Y0061401D01*
X0364247Y0061255D01*
X0364153Y0061111D01*
X0364056Y0060969D01*
X0363955Y0060830D01*
X0363851Y0060693D01*
X0363744Y0060559D01*
X0363633Y0060428D01*
X0363520Y0060299D01*
X0363403Y0060173D01*
X0363283Y0060050D01*
X0363160Y0059930D01*
X0363034Y0059813D01*
X0362905Y0059700D01*
X0362774Y0059589D01*
X0362640Y0059482D01*
X0362503Y0059378D01*
X0362364Y0059277D01*
X0362222Y0059180D01*
X0362078Y0059086D01*
X0361932Y0058996D01*
X0361783Y0058909D01*
X0361633Y0058827D01*
X0361480Y0058747D01*
X0361326Y0058672D01*
X0361170Y0058601D01*
X0361012Y0058533D01*
X0360852Y0058469D01*
X0360691Y0058409D01*
X0360529Y0058353D01*
X0360365Y0058301D01*
X0360200Y0058254D01*
X0360034Y0058210D01*
X0359867Y0058170D01*
X0359699Y0058135D01*
X0359530Y0058103D01*
X0359360Y0058076D01*
X0359190Y0058053D01*
X0359019Y0058034D01*
X0358848Y0058019D01*
X0358676Y0058008D01*
X0358505Y0058002D01*
X0358333Y0058000D01*
X0358161Y0058002D01*
X0357990Y0058008D01*
X0357818Y0058019D01*
X0357647Y0058034D01*
X0357476Y0058053D01*
X0357306Y0058076D01*
X0357136Y0058103D01*
X0356967Y0058135D01*
X0356799Y0058170D01*
X0356632Y0058210D01*
X0356466Y0058254D01*
X0356301Y0058301D01*
X0356137Y0058353D01*
X0355975Y0058409D01*
X0355814Y0058469D01*
X0355654Y0058533D01*
X0355496Y0058601D01*
X0355340Y0058672D01*
X0355186Y0058747D01*
X0355033Y0058827D01*
X0354883Y0058909D01*
X0354734Y0058996D01*
X0354588Y0059086D01*
X0354444Y0059180D01*
X0354302Y0059277D01*
X0354163Y0059378D01*
X0354026Y0059482D01*
X0353892Y0059589D01*
X0353761Y0059700D01*
X0353632Y0059813D01*
X0353506Y0059930D01*
X0353383Y0060050D01*
X0353263Y0060173D01*
X0353146Y0060299D01*
X0353033Y0060428D01*
X0352922Y0060559D01*
X0352815Y0060693D01*
X0352711Y0060830D01*
X0352610Y0060969D01*
X0352513Y0061111D01*
X0352419Y0061255D01*
X0352329Y0061401D01*
X0352242Y0061550D01*
X0352160Y0061700D01*
X0352080Y0061853D01*
X0352005Y0062007D01*
X0351934Y0062163D01*
X0351866Y0062321D01*
X0351802Y0062481D01*
X0351742Y0062642D01*
X0351686Y0062804D01*
X0351634Y0062968D01*
X0351587Y0063133D01*
X0351543Y0063299D01*
X0351503Y0063466D01*
X0351468Y0063634D01*
X0351436Y0063803D01*
X0351409Y0063973D01*
X0351386Y0064143D01*
X0351367Y0064314D01*
X0351352Y0064485D01*
X0351341Y0064657D01*
X0351335Y0064828D01*
X0351333Y0065000D01*
X0348333Y0087000D02*
X0348333Y0090000D01*
X0347333Y0090000D01*
X0348333Y0090000D02*
X0348333Y0093000D01*
X0368333Y0093000D01*
X0368333Y0090000D01*
X0369333Y0090000D01*
X0368333Y0090000D02*
X0368333Y0087000D01*
X0348333Y0087000D01*
X0303105Y0116000D02*
X0303112Y0116570D01*
X0303133Y0117140D01*
X0303168Y0117709D01*
X0303217Y0118277D01*
X0303280Y0118843D01*
X0303356Y0119408D01*
X0303447Y0119971D01*
X0303551Y0120532D01*
X0303669Y0121089D01*
X0303801Y0121644D01*
X0303946Y0122195D01*
X0304105Y0122743D01*
X0304277Y0123286D01*
X0304463Y0123825D01*
X0304661Y0124360D01*
X0304873Y0124889D01*
X0305098Y0125413D01*
X0305335Y0125931D01*
X0305585Y0126444D01*
X0305848Y0126950D01*
X0306123Y0127449D01*
X0306410Y0127942D01*
X0306709Y0128427D01*
X0307020Y0128905D01*
X0307342Y0129375D01*
X0307676Y0129837D01*
X0308021Y0130291D01*
X0308378Y0130736D01*
X0308745Y0131172D01*
X0309122Y0131599D01*
X0309510Y0132017D01*
X0309908Y0132425D01*
X0310316Y0132823D01*
X0310734Y0133211D01*
X0311161Y0133588D01*
X0311597Y0133955D01*
X0312042Y0134312D01*
X0312496Y0134657D01*
X0312958Y0134991D01*
X0313428Y0135313D01*
X0313906Y0135624D01*
X0314391Y0135923D01*
X0314884Y0136210D01*
X0315383Y0136485D01*
X0315889Y0136748D01*
X0316402Y0136998D01*
X0316920Y0137235D01*
X0317444Y0137460D01*
X0317973Y0137672D01*
X0318508Y0137870D01*
X0319047Y0138056D01*
X0319590Y0138228D01*
X0320138Y0138387D01*
X0320689Y0138532D01*
X0321244Y0138664D01*
X0321801Y0138782D01*
X0322362Y0138886D01*
X0322925Y0138977D01*
X0323490Y0139053D01*
X0324056Y0139116D01*
X0324624Y0139165D01*
X0325193Y0139200D01*
X0325763Y0139221D01*
X0326333Y0139228D01*
X0326903Y0139221D01*
X0327473Y0139200D01*
X0328042Y0139165D01*
X0328610Y0139116D01*
X0329176Y0139053D01*
X0329741Y0138977D01*
X0330304Y0138886D01*
X0330865Y0138782D01*
X0331422Y0138664D01*
X0331977Y0138532D01*
X0332528Y0138387D01*
X0333076Y0138228D01*
X0333619Y0138056D01*
X0334158Y0137870D01*
X0334693Y0137672D01*
X0335222Y0137460D01*
X0335746Y0137235D01*
X0336264Y0136998D01*
X0336777Y0136748D01*
X0337283Y0136485D01*
X0337782Y0136210D01*
X0338275Y0135923D01*
X0338760Y0135624D01*
X0339238Y0135313D01*
X0339708Y0134991D01*
X0340170Y0134657D01*
X0340624Y0134312D01*
X0341069Y0133955D01*
X0341505Y0133588D01*
X0341932Y0133211D01*
X0342350Y0132823D01*
X0342758Y0132425D01*
X0343156Y0132017D01*
X0343544Y0131599D01*
X0343921Y0131172D01*
X0344288Y0130736D01*
X0344645Y0130291D01*
X0344990Y0129837D01*
X0345324Y0129375D01*
X0345646Y0128905D01*
X0345957Y0128427D01*
X0346256Y0127942D01*
X0346543Y0127449D01*
X0346818Y0126950D01*
X0347081Y0126444D01*
X0347331Y0125931D01*
X0347568Y0125413D01*
X0347793Y0124889D01*
X0348005Y0124360D01*
X0348203Y0123825D01*
X0348389Y0123286D01*
X0348561Y0122743D01*
X0348720Y0122195D01*
X0348865Y0121644D01*
X0348997Y0121089D01*
X0349115Y0120532D01*
X0349219Y0119971D01*
X0349310Y0119408D01*
X0349386Y0118843D01*
X0349449Y0118277D01*
X0349498Y0117709D01*
X0349533Y0117140D01*
X0349554Y0116570D01*
X0349561Y0116000D01*
X0349554Y0115430D01*
X0349533Y0114860D01*
X0349498Y0114291D01*
X0349449Y0113723D01*
X0349386Y0113157D01*
X0349310Y0112592D01*
X0349219Y0112029D01*
X0349115Y0111468D01*
X0348997Y0110911D01*
X0348865Y0110356D01*
X0348720Y0109805D01*
X0348561Y0109257D01*
X0348389Y0108714D01*
X0348203Y0108175D01*
X0348005Y0107640D01*
X0347793Y0107111D01*
X0347568Y0106587D01*
X0347331Y0106069D01*
X0347081Y0105556D01*
X0346818Y0105050D01*
X0346543Y0104551D01*
X0346256Y0104058D01*
X0345957Y0103573D01*
X0345646Y0103095D01*
X0345324Y0102625D01*
X0344990Y0102163D01*
X0344645Y0101709D01*
X0344288Y0101264D01*
X0343921Y0100828D01*
X0343544Y0100401D01*
X0343156Y0099983D01*
X0342758Y0099575D01*
X0342350Y0099177D01*
X0341932Y0098789D01*
X0341505Y0098412D01*
X0341069Y0098045D01*
X0340624Y0097688D01*
X0340170Y0097343D01*
X0339708Y0097009D01*
X0339238Y0096687D01*
X0338760Y0096376D01*
X0338275Y0096077D01*
X0337782Y0095790D01*
X0337283Y0095515D01*
X0336777Y0095252D01*
X0336264Y0095002D01*
X0335746Y0094765D01*
X0335222Y0094540D01*
X0334693Y0094328D01*
X0334158Y0094130D01*
X0333619Y0093944D01*
X0333076Y0093772D01*
X0332528Y0093613D01*
X0331977Y0093468D01*
X0331422Y0093336D01*
X0330865Y0093218D01*
X0330304Y0093114D01*
X0329741Y0093023D01*
X0329176Y0092947D01*
X0328610Y0092884D01*
X0328042Y0092835D01*
X0327473Y0092800D01*
X0326903Y0092779D01*
X0326333Y0092772D01*
X0325763Y0092779D01*
X0325193Y0092800D01*
X0324624Y0092835D01*
X0324056Y0092884D01*
X0323490Y0092947D01*
X0322925Y0093023D01*
X0322362Y0093114D01*
X0321801Y0093218D01*
X0321244Y0093336D01*
X0320689Y0093468D01*
X0320138Y0093613D01*
X0319590Y0093772D01*
X0319047Y0093944D01*
X0318508Y0094130D01*
X0317973Y0094328D01*
X0317444Y0094540D01*
X0316920Y0094765D01*
X0316402Y0095002D01*
X0315889Y0095252D01*
X0315383Y0095515D01*
X0314884Y0095790D01*
X0314391Y0096077D01*
X0313906Y0096376D01*
X0313428Y0096687D01*
X0312958Y0097009D01*
X0312496Y0097343D01*
X0312042Y0097688D01*
X0311597Y0098045D01*
X0311161Y0098412D01*
X0310734Y0098789D01*
X0310316Y0099177D01*
X0309908Y0099575D01*
X0309510Y0099983D01*
X0309122Y0100401D01*
X0308745Y0100828D01*
X0308378Y0101264D01*
X0308021Y0101709D01*
X0307676Y0102163D01*
X0307342Y0102625D01*
X0307020Y0103095D01*
X0306709Y0103573D01*
X0306410Y0104058D01*
X0306123Y0104551D01*
X0305848Y0105050D01*
X0305585Y0105556D01*
X0305335Y0106069D01*
X0305098Y0106587D01*
X0304873Y0107111D01*
X0304661Y0107640D01*
X0304463Y0108175D01*
X0304277Y0108714D01*
X0304105Y0109257D01*
X0303946Y0109805D01*
X0303801Y0110356D01*
X0303669Y0110911D01*
X0303551Y0111468D01*
X0303447Y0112029D01*
X0303356Y0112592D01*
X0303280Y0113157D01*
X0303217Y0113723D01*
X0303168Y0114291D01*
X0303133Y0114860D01*
X0303112Y0115430D01*
X0303105Y0116000D01*
X0299005Y0199166D02*
X0296835Y0199166D01*
X0299005Y0199166D02*
X0301175Y0201337D01*
X0301175Y0203507D01*
X0300090Y0204592D01*
X0297920Y0204592D01*
X0295750Y0202422D01*
X0293579Y0202422D01*
X0292494Y0203507D01*
X0292494Y0205677D01*
X0294664Y0207848D01*
X0296835Y0207848D01*
X0300090Y0208933D02*
X0303346Y0212188D01*
X0305516Y0212188D01*
X0307686Y0210018D01*
X0307686Y0207848D01*
X0304431Y0204592D01*
X0306601Y0202422D02*
X0300090Y0208933D01*
X0307686Y0216529D02*
X0309857Y0218699D01*
X0312027Y0218699D01*
X0315282Y0215444D01*
X0312027Y0212188D01*
X0309857Y0212188D01*
X0309857Y0214359D01*
X0313112Y0217614D01*
X0314197Y0220870D02*
X0314197Y0223040D01*
X0317453Y0226295D01*
X0320708Y0227380D02*
X0320708Y0229551D01*
X0322879Y0231721D01*
X0325049Y0231721D01*
X0326134Y0230636D01*
X0321793Y0226295D01*
X0320708Y0227380D02*
X0322879Y0225210D01*
X0325049Y0225210D01*
X0327219Y0227380D01*
X0333655Y0221838D02*
X0340166Y0215327D01*
X0343421Y0218582D01*
X0343421Y0220753D01*
X0341251Y0222923D01*
X0339081Y0222923D01*
X0335825Y0219668D01*
X0342336Y0226179D02*
X0345591Y0222923D01*
X0347762Y0222923D01*
X0351017Y0226179D01*
X0352102Y0225093D02*
X0352102Y0222923D01*
X0351017Y0221838D01*
X0352102Y0225093D02*
X0346677Y0230519D01*
X0338071Y0238232D02*
X0331560Y0244743D01*
X0330475Y0243658D02*
X0332645Y0245828D01*
X0336986Y0245828D02*
X0340241Y0249084D01*
X0342411Y0249084D01*
X0345667Y0245828D01*
X0341326Y0241487D02*
X0336986Y0245828D01*
X0339156Y0239317D02*
X0336986Y0237147D01*
X0343497Y0252339D02*
X0350007Y0250169D01*
X0347837Y0256680D01*
X0351093Y0259935D02*
X0353263Y0262105D01*
X0355433Y0262105D01*
X0358689Y0258850D01*
X0355433Y0255595D01*
X0353263Y0255595D01*
X0353263Y0257765D01*
X0356518Y0261020D01*
X0357604Y0264276D02*
X0357604Y0266446D01*
X0360859Y0269702D01*
X0358689Y0271872D02*
X0365200Y0265361D01*
X0361944Y0262105D01*
X0359774Y0262105D01*
X0357604Y0264276D01*
X0364114Y0270787D02*
X0364114Y0272957D01*
X0366285Y0275127D01*
X0368455Y0275127D01*
X0369540Y0274042D01*
X0365200Y0269702D01*
X0366285Y0268616D02*
X0364114Y0270787D01*
X0366285Y0268616D02*
X0368455Y0268616D01*
X0370625Y0270787D01*
X0373881Y0274042D02*
X0369540Y0278383D01*
X0371711Y0280553D02*
X0372796Y0281638D01*
X0371711Y0280553D02*
X0371711Y0276212D01*
X0376051Y0282723D02*
X0376051Y0284894D01*
X0379307Y0288149D01*
X0380392Y0284894D02*
X0378222Y0282723D01*
X0376051Y0282723D01*
X0379307Y0279468D02*
X0382562Y0282723D01*
X0382562Y0284894D01*
X0380392Y0284894D01*
X0370550Y0258733D02*
X0377061Y0252222D01*
X0381402Y0256563D01*
X0374891Y0250052D02*
X0372720Y0247882D01*
X0373806Y0248967D02*
X0369465Y0253307D01*
X0368380Y0252222D01*
X0367295Y0248967D02*
X0365124Y0248967D01*
X0362954Y0246796D01*
X0362954Y0244626D01*
X0360784Y0242456D02*
X0360784Y0240286D01*
X0357528Y0237030D01*
X0359699Y0234860D02*
X0353188Y0241371D01*
X0356443Y0244626D01*
X0358613Y0244626D01*
X0360784Y0242456D01*
X0366209Y0241371D02*
X0359699Y0247882D01*
X0367295Y0248967D02*
X0370550Y0245711D01*
X0367295Y0255478D02*
X0366209Y0256563D01*
X0321793Y0221955D02*
X0318538Y0218699D01*
X0316368Y0218699D01*
X0314197Y0220870D01*
X0315833Y0310000D02*
X0310833Y0310000D01*
X0308333Y0312500D01*
X0305833Y0310000D01*
X0300833Y0310000D01*
X0298333Y0312500D01*
X0295833Y0310000D01*
X0290833Y0310000D01*
X0288333Y0312500D01*
X0285833Y0310000D01*
X0280833Y0310000D01*
X0278333Y0312500D01*
X0275833Y0310000D01*
X0270833Y0310000D01*
X0268333Y0312500D01*
X0265833Y0310000D01*
X0260833Y0310000D01*
X0258333Y0312500D01*
X0255833Y0310000D01*
X0250833Y0310000D01*
X0248333Y0312500D01*
X0245833Y0310000D01*
X0240833Y0310000D01*
X0238333Y0312500D01*
X0238333Y0317500D01*
X0240833Y0320000D01*
X0245833Y0320000D01*
X0248333Y0317500D01*
X0250833Y0320000D01*
X0255833Y0320000D01*
X0258333Y0317500D01*
X0260833Y0320000D01*
X0265833Y0320000D01*
X0268333Y0317500D01*
X0270833Y0320000D01*
X0275833Y0320000D01*
X0278333Y0317500D01*
X0280833Y0320000D01*
X0285833Y0320000D01*
X0288333Y0317500D01*
X0290833Y0320000D01*
X0295833Y0320000D01*
X0298333Y0317500D01*
X0300833Y0320000D01*
X0305833Y0320000D01*
X0308333Y0317500D01*
X0310833Y0320000D01*
X0315833Y0320000D01*
X0318333Y0317500D01*
X0318333Y0312500D01*
X0315833Y0310000D01*
X0288333Y0332000D02*
X0288333Y0335000D01*
X0289333Y0335000D01*
X0288333Y0335000D02*
X0288333Y0338000D01*
X0268333Y0338000D01*
X0268333Y0335000D01*
X0267333Y0335000D01*
X0268333Y0335000D02*
X0268333Y0332000D01*
X0288333Y0332000D01*
X0355025Y0332702D02*
X0355726Y0332002D01*
X0357828Y0332002D01*
X0357828Y0333403D02*
X0357127Y0334104D01*
X0355726Y0334104D01*
X0355025Y0333403D01*
X0355025Y0332702D01*
X0355025Y0330601D02*
X0355726Y0329900D01*
X0357127Y0329900D01*
X0357828Y0330601D01*
X0357828Y0333403D01*
X0359629Y0334104D02*
X0359629Y0331301D01*
X0361031Y0329900D01*
X0362432Y0331301D01*
X0362432Y0334104D01*
X0138333Y0258000D02*
X0138333Y0255000D01*
X0139333Y0255000D01*
X0138333Y0255000D02*
X0138333Y0252000D01*
X0118333Y0252000D01*
X0118333Y0255000D01*
X0117333Y0255000D01*
X0118333Y0255000D02*
X0118333Y0258000D01*
X0138333Y0258000D01*
X0099333Y0255000D02*
X0098333Y0255000D01*
X0098333Y0252000D01*
X0078333Y0252000D01*
X0078333Y0255000D01*
X0077333Y0255000D01*
X0078333Y0255000D02*
X0078333Y0258000D01*
X0098333Y0258000D01*
X0098333Y0255000D01*
X0098333Y0238000D02*
X0078333Y0238000D01*
X0078333Y0235000D01*
X0077333Y0235000D01*
X0078333Y0235000D02*
X0078333Y0232000D01*
X0098333Y0232000D01*
X0098333Y0235000D01*
X0099333Y0235000D01*
X0098333Y0235000D02*
X0098333Y0238000D01*
X0098333Y0218000D02*
X0078333Y0218000D01*
X0078333Y0215000D01*
X0077333Y0215000D01*
X0078333Y0215000D02*
X0078333Y0212000D01*
X0098333Y0212000D01*
X0098333Y0215000D01*
X0099333Y0215000D01*
X0098333Y0215000D02*
X0098333Y0218000D01*
X0098333Y0198000D02*
X0078333Y0198000D01*
X0078333Y0195000D01*
X0077333Y0195000D01*
X0078333Y0195000D02*
X0078333Y0192000D01*
X0098333Y0192000D01*
X0098333Y0195000D01*
X0099333Y0195000D01*
X0098333Y0195000D02*
X0098333Y0198000D01*
X0095833Y0160000D02*
X0090833Y0160000D01*
X0088333Y0157500D01*
X0088333Y0142500D01*
X0085833Y0140000D01*
X0080833Y0140000D01*
X0078333Y0142500D01*
X0078333Y0157500D01*
X0075833Y0160000D01*
X0070833Y0160000D01*
X0068333Y0157500D01*
X0068333Y0142500D01*
X0065833Y0140000D01*
X0060833Y0140000D01*
X0058333Y0142500D01*
X0058333Y0157500D01*
X0060833Y0160000D01*
X0065833Y0160000D01*
X0068333Y0157500D01*
X0058333Y0157500D02*
X0055833Y0160000D01*
X0050833Y0160000D01*
X0048333Y0157500D01*
X0048333Y0142500D01*
X0045833Y0140000D01*
X0040833Y0140000D01*
X0038333Y0142500D01*
X0035833Y0140000D01*
X0030833Y0140000D01*
X0028333Y0142500D01*
X0028333Y0157500D01*
X0030833Y0160000D01*
X0035833Y0160000D01*
X0038333Y0157500D01*
X0038333Y0142500D01*
X0048333Y0142500D02*
X0050833Y0140000D01*
X0055833Y0140000D01*
X0058333Y0142500D01*
X0068333Y0142500D02*
X0070833Y0140000D01*
X0075833Y0140000D01*
X0078333Y0142500D01*
X0088333Y0142500D02*
X0090833Y0140000D01*
X0095833Y0140000D01*
X0098333Y0142500D01*
X0098333Y0157500D01*
X0095833Y0160000D01*
X0098333Y0157500D02*
X0100833Y0160000D01*
X0105833Y0160000D01*
X0108333Y0157500D01*
X0108333Y0142500D01*
X0105833Y0140000D01*
X0100833Y0140000D01*
X0098333Y0142500D01*
X0108333Y0142500D02*
X0110833Y0140000D01*
X0115833Y0140000D01*
X0118333Y0142500D01*
X0118333Y0157500D01*
X0115833Y0160000D01*
X0110833Y0160000D01*
X0108333Y0157500D01*
X0118333Y0157500D02*
X0120833Y0160000D01*
X0125833Y0160000D01*
X0128333Y0157500D01*
X0128333Y0142500D01*
X0125833Y0140000D01*
X0120833Y0140000D01*
X0118333Y0142500D01*
X0120833Y0161500D02*
X0125833Y0161500D01*
X0088333Y0157500D02*
X0085833Y0160000D01*
X0080833Y0160000D01*
X0078333Y0157500D01*
X0048333Y0157500D02*
X0045833Y0160000D01*
X0040833Y0160000D01*
X0038333Y0157500D01*
X0078333Y0272000D02*
X0078333Y0275000D01*
X0077333Y0275000D01*
X0078333Y0275000D02*
X0078333Y0278000D01*
X0098333Y0278000D01*
X0098333Y0275000D01*
X0099333Y0275000D01*
X0098333Y0275000D02*
X0098333Y0272000D01*
X0078333Y0272000D01*
X0075833Y0310000D02*
X0070833Y0310000D01*
X0068333Y0312500D01*
X0068333Y0327500D01*
X0070833Y0330000D01*
X0075833Y0330000D01*
X0078333Y0327500D01*
X0078333Y0312500D01*
X0080833Y0310000D01*
X0085833Y0310000D01*
X0088333Y0312500D01*
X0088333Y0327500D01*
X0090833Y0330000D01*
X0095833Y0330000D01*
X0098333Y0327500D01*
X0098333Y0312500D01*
X0095833Y0310000D01*
X0090833Y0310000D01*
X0088333Y0312500D01*
X0078333Y0312500D02*
X0075833Y0310000D01*
X0068333Y0312500D02*
X0065833Y0310000D01*
X0060833Y0310000D01*
X0058333Y0312500D01*
X0058333Y0327500D01*
X0060833Y0330000D01*
X0065833Y0330000D01*
X0068333Y0327500D01*
X0058333Y0327500D02*
X0055833Y0330000D01*
X0050833Y0330000D01*
X0048333Y0327500D01*
X0048333Y0312500D01*
X0050833Y0310000D01*
X0055833Y0310000D01*
X0058333Y0312500D01*
X0048333Y0312500D02*
X0045833Y0310000D01*
X0040833Y0310000D01*
X0038333Y0312500D01*
X0038333Y0327500D01*
X0040833Y0330000D01*
X0045833Y0330000D01*
X0048333Y0327500D01*
X0038333Y0327500D02*
X0035833Y0330000D01*
X0030833Y0330000D01*
X0028333Y0327500D01*
X0028333Y0312500D01*
X0030833Y0310000D01*
X0035833Y0310000D01*
X0038333Y0312500D01*
X0035833Y0308500D02*
X0030833Y0308500D01*
X0078333Y0327500D02*
X0080833Y0330000D01*
X0085833Y0330000D01*
X0088333Y0327500D01*
X0098333Y0327500D02*
X0100833Y0330000D01*
X0105833Y0330000D01*
X0108333Y0327500D01*
X0108333Y0312500D01*
X0105833Y0310000D01*
X0100833Y0310000D01*
X0098333Y0312500D01*
X0108333Y0312500D02*
X0110833Y0310000D01*
X0115833Y0310000D01*
X0118333Y0312500D01*
X0120833Y0310000D01*
X0125833Y0310000D01*
X0128333Y0312500D01*
X0128333Y0327500D01*
X0125833Y0330000D01*
X0120833Y0330000D01*
X0118333Y0327500D01*
X0118333Y0312500D01*
X0118333Y0327500D02*
X0115833Y0330000D01*
X0110833Y0330000D01*
X0108333Y0327500D01*
D12*
X0047833Y0283337D02*
X0047833Y0277331D01*
X0038826Y0277331D01*
X0038826Y0274129D02*
X0047833Y0268124D01*
X0046332Y0264921D02*
X0047833Y0263420D01*
X0047833Y0260417D01*
X0046332Y0258916D01*
X0040327Y0258916D01*
X0038826Y0260417D01*
X0038826Y0263420D01*
X0040327Y0264921D01*
X0043329Y0264921D02*
X0043329Y0261918D01*
X0043329Y0264921D02*
X0046332Y0264921D01*
X0038826Y0268124D02*
X0047833Y0274129D01*
X0046332Y0255713D02*
X0047833Y0254212D01*
X0047833Y0251209D01*
X0046332Y0249708D01*
X0047833Y0246505D02*
X0047833Y0240500D01*
X0041828Y0246505D01*
X0040327Y0246505D01*
X0038826Y0245004D01*
X0038826Y0242001D01*
X0040327Y0240500D01*
X0038826Y0234295D02*
X0047833Y0234295D01*
X0047833Y0237297D02*
X0047833Y0231292D01*
X0046332Y0228089D02*
X0047833Y0226588D01*
X0047833Y0223586D01*
X0046332Y0222084D01*
X0040327Y0222084D01*
X0038826Y0223586D01*
X0038826Y0226588D01*
X0040327Y0228089D01*
X0041828Y0231292D02*
X0038826Y0234295D01*
X0040327Y0249708D02*
X0038826Y0251209D01*
X0038826Y0254212D01*
X0040327Y0255713D01*
X0041828Y0255713D01*
X0043329Y0254212D01*
X0044831Y0255713D01*
X0046332Y0255713D01*
X0043329Y0254212D02*
X0043329Y0252710D01*
X0043329Y0218882D02*
X0043329Y0212876D01*
X0038826Y0217380D01*
X0047833Y0217380D01*
X0047833Y0209674D02*
X0038826Y0209674D01*
X0041828Y0206671D01*
X0038826Y0203669D01*
X0047833Y0203669D01*
X0047833Y0197463D02*
X0038826Y0197463D01*
X0038826Y0194461D02*
X0038826Y0200466D01*
X0037833Y0110000D02*
X0037833Y0100000D01*
X0058833Y0100000D01*
X0058833Y0110000D01*
X0037833Y0110000D01*
X0048333Y0107500D02*
X0048333Y0102500D01*
X0097833Y0100000D02*
X0097833Y0110000D01*
X0118833Y0110000D01*
X0118833Y0100000D01*
X0097833Y0100000D01*
X0108333Y0102500D02*
X0108333Y0107500D01*
X0248826Y0191763D02*
X0257833Y0197768D01*
X0248826Y0197768D01*
X0253329Y0200970D02*
X0256332Y0200970D01*
X0257833Y0202472D01*
X0257833Y0205474D01*
X0256332Y0206976D01*
X0253329Y0206976D01*
X0251828Y0205474D01*
X0251828Y0202472D01*
X0253329Y0200970D01*
X0254831Y0210178D02*
X0251828Y0214682D01*
X0251828Y0217852D02*
X0251828Y0219353D01*
X0257833Y0219353D01*
X0257833Y0217852D02*
X0257833Y0220854D01*
X0256332Y0223990D02*
X0254831Y0225491D01*
X0254831Y0229995D01*
X0253329Y0229995D02*
X0257833Y0229995D01*
X0257833Y0225491D01*
X0256332Y0223990D01*
X0251828Y0225491D02*
X0251828Y0228494D01*
X0253329Y0229995D01*
X0248826Y0219353D02*
X0247324Y0219353D01*
X0257833Y0214682D02*
X0254831Y0210178D01*
X0257833Y0210178D02*
X0248826Y0210178D01*
X0248826Y0191763D02*
X0257833Y0191763D01*
X0256332Y0242406D02*
X0257833Y0243907D01*
X0257833Y0246910D01*
X0256332Y0248411D01*
X0253329Y0248411D01*
X0251828Y0246910D01*
X0251828Y0245408D01*
X0253329Y0242406D01*
X0248826Y0242406D01*
X0248826Y0248411D01*
X0251828Y0251614D02*
X0248826Y0254616D01*
X0257833Y0254616D01*
X0257833Y0251614D02*
X0257833Y0257619D01*
X0257833Y0260822D02*
X0257833Y0266827D01*
X0257833Y0263824D02*
X0248826Y0263824D01*
X0251828Y0260822D01*
X0250327Y0270029D02*
X0248826Y0271531D01*
X0248826Y0274533D01*
X0250327Y0276035D01*
X0256332Y0270029D01*
X0257833Y0271531D01*
X0257833Y0274533D01*
X0256332Y0276035D01*
X0250327Y0276035D01*
X0250327Y0270029D02*
X0256332Y0270029D01*
X0346833Y0332000D02*
X0351833Y0332000D01*
X0349333Y0334500D02*
X0349333Y0329500D01*
X0366833Y0332000D02*
X0371833Y0332000D01*
D13*
X0376333Y0332000D02*
X0379333Y0335000D01*
X0379333Y0349000D01*
X0376333Y0352000D01*
X0342333Y0352000D01*
X0339333Y0349000D01*
X0339333Y0335000D01*
X0342333Y0332000D01*
X0325833Y0317802D02*
X0325833Y0316134D01*
X0324999Y0315300D01*
X0323331Y0315300D02*
X0322497Y0316968D01*
X0322497Y0317802D01*
X0323331Y0318636D01*
X0324999Y0318636D01*
X0325833Y0317802D01*
X0323331Y0315300D02*
X0320829Y0315300D01*
X0320829Y0318636D01*
X0320829Y0313480D02*
X0320829Y0311812D01*
X0320829Y0312646D02*
X0324999Y0312646D01*
X0325833Y0311812D01*
X0325833Y0310978D01*
X0324999Y0310144D01*
X0324999Y0158636D02*
X0324165Y0158636D01*
X0323331Y0157802D01*
X0323331Y0155300D01*
X0324999Y0155300D01*
X0325833Y0156134D01*
X0325833Y0157802D01*
X0324999Y0158636D01*
X0321663Y0156968D02*
X0323331Y0155300D01*
X0321663Y0156968D02*
X0320829Y0158636D01*
X0320829Y0153480D02*
X0320829Y0151812D01*
X0320829Y0152646D02*
X0324999Y0152646D01*
X0325833Y0151812D01*
X0325833Y0150978D01*
X0324999Y0150144D01*
X0312546Y0110638D02*
X0312546Y0106368D01*
X0310411Y0108503D02*
X0314681Y0108503D01*
X0336911Y0108503D02*
X0341181Y0108503D01*
X0258333Y0125000D02*
X0258336Y0125245D01*
X0258345Y0125491D01*
X0258360Y0125736D01*
X0258381Y0125980D01*
X0258408Y0126224D01*
X0258441Y0126467D01*
X0258480Y0126710D01*
X0258525Y0126951D01*
X0258576Y0127191D01*
X0258633Y0127430D01*
X0258695Y0127667D01*
X0258764Y0127903D01*
X0258838Y0128137D01*
X0258918Y0128369D01*
X0259003Y0128599D01*
X0259094Y0128827D01*
X0259191Y0129052D01*
X0259293Y0129276D01*
X0259401Y0129496D01*
X0259514Y0129714D01*
X0259632Y0129929D01*
X0259756Y0130141D01*
X0259884Y0130350D01*
X0260018Y0130556D01*
X0260157Y0130758D01*
X0260301Y0130957D01*
X0260450Y0131152D01*
X0260603Y0131344D01*
X0260761Y0131532D01*
X0260923Y0131716D01*
X0261091Y0131895D01*
X0261262Y0132071D01*
X0261438Y0132242D01*
X0261617Y0132410D01*
X0261801Y0132572D01*
X0261989Y0132730D01*
X0262181Y0132883D01*
X0262376Y0133032D01*
X0262575Y0133176D01*
X0262777Y0133315D01*
X0262983Y0133449D01*
X0263192Y0133577D01*
X0263404Y0133701D01*
X0263619Y0133819D01*
X0263837Y0133932D01*
X0264057Y0134040D01*
X0264281Y0134142D01*
X0264506Y0134239D01*
X0264734Y0134330D01*
X0264964Y0134415D01*
X0265196Y0134495D01*
X0265430Y0134569D01*
X0265666Y0134638D01*
X0265903Y0134700D01*
X0266142Y0134757D01*
X0266382Y0134808D01*
X0266623Y0134853D01*
X0266866Y0134892D01*
X0267109Y0134925D01*
X0267353Y0134952D01*
X0267597Y0134973D01*
X0267842Y0134988D01*
X0268088Y0134997D01*
X0268333Y0135000D01*
X0268578Y0134997D01*
X0268824Y0134988D01*
X0269069Y0134973D01*
X0269313Y0134952D01*
X0269557Y0134925D01*
X0269800Y0134892D01*
X0270043Y0134853D01*
X0270284Y0134808D01*
X0270524Y0134757D01*
X0270763Y0134700D01*
X0271000Y0134638D01*
X0271236Y0134569D01*
X0271470Y0134495D01*
X0271702Y0134415D01*
X0271932Y0134330D01*
X0272160Y0134239D01*
X0272385Y0134142D01*
X0272609Y0134040D01*
X0272829Y0133932D01*
X0273047Y0133819D01*
X0273262Y0133701D01*
X0273474Y0133577D01*
X0273683Y0133449D01*
X0273889Y0133315D01*
X0274091Y0133176D01*
X0274290Y0133032D01*
X0274485Y0132883D01*
X0274677Y0132730D01*
X0274865Y0132572D01*
X0275049Y0132410D01*
X0275228Y0132242D01*
X0275404Y0132071D01*
X0275575Y0131895D01*
X0275743Y0131716D01*
X0275905Y0131532D01*
X0276063Y0131344D01*
X0276216Y0131152D01*
X0276365Y0130957D01*
X0276509Y0130758D01*
X0276648Y0130556D01*
X0276782Y0130350D01*
X0276910Y0130141D01*
X0277034Y0129929D01*
X0277152Y0129714D01*
X0277265Y0129496D01*
X0277373Y0129276D01*
X0277475Y0129052D01*
X0277572Y0128827D01*
X0277663Y0128599D01*
X0277748Y0128369D01*
X0277828Y0128137D01*
X0277902Y0127903D01*
X0277971Y0127667D01*
X0278033Y0127430D01*
X0278090Y0127191D01*
X0278141Y0126951D01*
X0278186Y0126710D01*
X0278225Y0126467D01*
X0278258Y0126224D01*
X0278285Y0125980D01*
X0278306Y0125736D01*
X0278321Y0125491D01*
X0278330Y0125245D01*
X0278333Y0125000D01*
X0278330Y0124755D01*
X0278321Y0124509D01*
X0278306Y0124264D01*
X0278285Y0124020D01*
X0278258Y0123776D01*
X0278225Y0123533D01*
X0278186Y0123290D01*
X0278141Y0123049D01*
X0278090Y0122809D01*
X0278033Y0122570D01*
X0277971Y0122333D01*
X0277902Y0122097D01*
X0277828Y0121863D01*
X0277748Y0121631D01*
X0277663Y0121401D01*
X0277572Y0121173D01*
X0277475Y0120948D01*
X0277373Y0120724D01*
X0277265Y0120504D01*
X0277152Y0120286D01*
X0277034Y0120071D01*
X0276910Y0119859D01*
X0276782Y0119650D01*
X0276648Y0119444D01*
X0276509Y0119242D01*
X0276365Y0119043D01*
X0276216Y0118848D01*
X0276063Y0118656D01*
X0275905Y0118468D01*
X0275743Y0118284D01*
X0275575Y0118105D01*
X0275404Y0117929D01*
X0275228Y0117758D01*
X0275049Y0117590D01*
X0274865Y0117428D01*
X0274677Y0117270D01*
X0274485Y0117117D01*
X0274290Y0116968D01*
X0274091Y0116824D01*
X0273889Y0116685D01*
X0273683Y0116551D01*
X0273474Y0116423D01*
X0273262Y0116299D01*
X0273047Y0116181D01*
X0272829Y0116068D01*
X0272609Y0115960D01*
X0272385Y0115858D01*
X0272160Y0115761D01*
X0271932Y0115670D01*
X0271702Y0115585D01*
X0271470Y0115505D01*
X0271236Y0115431D01*
X0271000Y0115362D01*
X0270763Y0115300D01*
X0270524Y0115243D01*
X0270284Y0115192D01*
X0270043Y0115147D01*
X0269800Y0115108D01*
X0269557Y0115075D01*
X0269313Y0115048D01*
X0269069Y0115027D01*
X0268824Y0115012D01*
X0268578Y0115003D01*
X0268333Y0115000D01*
X0268088Y0115003D01*
X0267842Y0115012D01*
X0267597Y0115027D01*
X0267353Y0115048D01*
X0267109Y0115075D01*
X0266866Y0115108D01*
X0266623Y0115147D01*
X0266382Y0115192D01*
X0266142Y0115243D01*
X0265903Y0115300D01*
X0265666Y0115362D01*
X0265430Y0115431D01*
X0265196Y0115505D01*
X0264964Y0115585D01*
X0264734Y0115670D01*
X0264506Y0115761D01*
X0264281Y0115858D01*
X0264057Y0115960D01*
X0263837Y0116068D01*
X0263619Y0116181D01*
X0263404Y0116299D01*
X0263192Y0116423D01*
X0262983Y0116551D01*
X0262777Y0116685D01*
X0262575Y0116824D01*
X0262376Y0116968D01*
X0262181Y0117117D01*
X0261989Y0117270D01*
X0261801Y0117428D01*
X0261617Y0117590D01*
X0261438Y0117758D01*
X0261262Y0117929D01*
X0261091Y0118105D01*
X0260923Y0118284D01*
X0260761Y0118468D01*
X0260603Y0118656D01*
X0260450Y0118848D01*
X0260301Y0119043D01*
X0260157Y0119242D01*
X0260018Y0119444D01*
X0259884Y0119650D01*
X0259756Y0119859D01*
X0259632Y0120071D01*
X0259514Y0120286D01*
X0259401Y0120504D01*
X0259293Y0120724D01*
X0259191Y0120948D01*
X0259094Y0121173D01*
X0259003Y0121401D01*
X0258918Y0121631D01*
X0258838Y0121863D01*
X0258764Y0122097D01*
X0258695Y0122333D01*
X0258633Y0122570D01*
X0258576Y0122809D01*
X0258525Y0123049D01*
X0258480Y0123290D01*
X0258441Y0123533D01*
X0258408Y0123776D01*
X0258381Y0124020D01*
X0258360Y0124264D01*
X0258345Y0124509D01*
X0258336Y0124755D01*
X0258333Y0125000D01*
X0218333Y0125000D02*
X0218336Y0125245D01*
X0218345Y0125491D01*
X0218360Y0125736D01*
X0218381Y0125980D01*
X0218408Y0126224D01*
X0218441Y0126467D01*
X0218480Y0126710D01*
X0218525Y0126951D01*
X0218576Y0127191D01*
X0218633Y0127430D01*
X0218695Y0127667D01*
X0218764Y0127903D01*
X0218838Y0128137D01*
X0218918Y0128369D01*
X0219003Y0128599D01*
X0219094Y0128827D01*
X0219191Y0129052D01*
X0219293Y0129276D01*
X0219401Y0129496D01*
X0219514Y0129714D01*
X0219632Y0129929D01*
X0219756Y0130141D01*
X0219884Y0130350D01*
X0220018Y0130556D01*
X0220157Y0130758D01*
X0220301Y0130957D01*
X0220450Y0131152D01*
X0220603Y0131344D01*
X0220761Y0131532D01*
X0220923Y0131716D01*
X0221091Y0131895D01*
X0221262Y0132071D01*
X0221438Y0132242D01*
X0221617Y0132410D01*
X0221801Y0132572D01*
X0221989Y0132730D01*
X0222181Y0132883D01*
X0222376Y0133032D01*
X0222575Y0133176D01*
X0222777Y0133315D01*
X0222983Y0133449D01*
X0223192Y0133577D01*
X0223404Y0133701D01*
X0223619Y0133819D01*
X0223837Y0133932D01*
X0224057Y0134040D01*
X0224281Y0134142D01*
X0224506Y0134239D01*
X0224734Y0134330D01*
X0224964Y0134415D01*
X0225196Y0134495D01*
X0225430Y0134569D01*
X0225666Y0134638D01*
X0225903Y0134700D01*
X0226142Y0134757D01*
X0226382Y0134808D01*
X0226623Y0134853D01*
X0226866Y0134892D01*
X0227109Y0134925D01*
X0227353Y0134952D01*
X0227597Y0134973D01*
X0227842Y0134988D01*
X0228088Y0134997D01*
X0228333Y0135000D01*
X0228578Y0134997D01*
X0228824Y0134988D01*
X0229069Y0134973D01*
X0229313Y0134952D01*
X0229557Y0134925D01*
X0229800Y0134892D01*
X0230043Y0134853D01*
X0230284Y0134808D01*
X0230524Y0134757D01*
X0230763Y0134700D01*
X0231000Y0134638D01*
X0231236Y0134569D01*
X0231470Y0134495D01*
X0231702Y0134415D01*
X0231932Y0134330D01*
X0232160Y0134239D01*
X0232385Y0134142D01*
X0232609Y0134040D01*
X0232829Y0133932D01*
X0233047Y0133819D01*
X0233262Y0133701D01*
X0233474Y0133577D01*
X0233683Y0133449D01*
X0233889Y0133315D01*
X0234091Y0133176D01*
X0234290Y0133032D01*
X0234485Y0132883D01*
X0234677Y0132730D01*
X0234865Y0132572D01*
X0235049Y0132410D01*
X0235228Y0132242D01*
X0235404Y0132071D01*
X0235575Y0131895D01*
X0235743Y0131716D01*
X0235905Y0131532D01*
X0236063Y0131344D01*
X0236216Y0131152D01*
X0236365Y0130957D01*
X0236509Y0130758D01*
X0236648Y0130556D01*
X0236782Y0130350D01*
X0236910Y0130141D01*
X0237034Y0129929D01*
X0237152Y0129714D01*
X0237265Y0129496D01*
X0237373Y0129276D01*
X0237475Y0129052D01*
X0237572Y0128827D01*
X0237663Y0128599D01*
X0237748Y0128369D01*
X0237828Y0128137D01*
X0237902Y0127903D01*
X0237971Y0127667D01*
X0238033Y0127430D01*
X0238090Y0127191D01*
X0238141Y0126951D01*
X0238186Y0126710D01*
X0238225Y0126467D01*
X0238258Y0126224D01*
X0238285Y0125980D01*
X0238306Y0125736D01*
X0238321Y0125491D01*
X0238330Y0125245D01*
X0238333Y0125000D01*
X0238330Y0124755D01*
X0238321Y0124509D01*
X0238306Y0124264D01*
X0238285Y0124020D01*
X0238258Y0123776D01*
X0238225Y0123533D01*
X0238186Y0123290D01*
X0238141Y0123049D01*
X0238090Y0122809D01*
X0238033Y0122570D01*
X0237971Y0122333D01*
X0237902Y0122097D01*
X0237828Y0121863D01*
X0237748Y0121631D01*
X0237663Y0121401D01*
X0237572Y0121173D01*
X0237475Y0120948D01*
X0237373Y0120724D01*
X0237265Y0120504D01*
X0237152Y0120286D01*
X0237034Y0120071D01*
X0236910Y0119859D01*
X0236782Y0119650D01*
X0236648Y0119444D01*
X0236509Y0119242D01*
X0236365Y0119043D01*
X0236216Y0118848D01*
X0236063Y0118656D01*
X0235905Y0118468D01*
X0235743Y0118284D01*
X0235575Y0118105D01*
X0235404Y0117929D01*
X0235228Y0117758D01*
X0235049Y0117590D01*
X0234865Y0117428D01*
X0234677Y0117270D01*
X0234485Y0117117D01*
X0234290Y0116968D01*
X0234091Y0116824D01*
X0233889Y0116685D01*
X0233683Y0116551D01*
X0233474Y0116423D01*
X0233262Y0116299D01*
X0233047Y0116181D01*
X0232829Y0116068D01*
X0232609Y0115960D01*
X0232385Y0115858D01*
X0232160Y0115761D01*
X0231932Y0115670D01*
X0231702Y0115585D01*
X0231470Y0115505D01*
X0231236Y0115431D01*
X0231000Y0115362D01*
X0230763Y0115300D01*
X0230524Y0115243D01*
X0230284Y0115192D01*
X0230043Y0115147D01*
X0229800Y0115108D01*
X0229557Y0115075D01*
X0229313Y0115048D01*
X0229069Y0115027D01*
X0228824Y0115012D01*
X0228578Y0115003D01*
X0228333Y0115000D01*
X0228088Y0115003D01*
X0227842Y0115012D01*
X0227597Y0115027D01*
X0227353Y0115048D01*
X0227109Y0115075D01*
X0226866Y0115108D01*
X0226623Y0115147D01*
X0226382Y0115192D01*
X0226142Y0115243D01*
X0225903Y0115300D01*
X0225666Y0115362D01*
X0225430Y0115431D01*
X0225196Y0115505D01*
X0224964Y0115585D01*
X0224734Y0115670D01*
X0224506Y0115761D01*
X0224281Y0115858D01*
X0224057Y0115960D01*
X0223837Y0116068D01*
X0223619Y0116181D01*
X0223404Y0116299D01*
X0223192Y0116423D01*
X0222983Y0116551D01*
X0222777Y0116685D01*
X0222575Y0116824D01*
X0222376Y0116968D01*
X0222181Y0117117D01*
X0221989Y0117270D01*
X0221801Y0117428D01*
X0221617Y0117590D01*
X0221438Y0117758D01*
X0221262Y0117929D01*
X0221091Y0118105D01*
X0220923Y0118284D01*
X0220761Y0118468D01*
X0220603Y0118656D01*
X0220450Y0118848D01*
X0220301Y0119043D01*
X0220157Y0119242D01*
X0220018Y0119444D01*
X0219884Y0119650D01*
X0219756Y0119859D01*
X0219632Y0120071D01*
X0219514Y0120286D01*
X0219401Y0120504D01*
X0219293Y0120724D01*
X0219191Y0120948D01*
X0219094Y0121173D01*
X0219003Y0121401D01*
X0218918Y0121631D01*
X0218838Y0121863D01*
X0218764Y0122097D01*
X0218695Y0122333D01*
X0218633Y0122570D01*
X0218576Y0122809D01*
X0218525Y0123049D01*
X0218480Y0123290D01*
X0218441Y0123533D01*
X0218408Y0123776D01*
X0218381Y0124020D01*
X0218360Y0124264D01*
X0218345Y0124509D01*
X0218336Y0124755D01*
X0218333Y0125000D01*
X0190333Y0135000D02*
X0141333Y0135000D01*
X0141333Y0131500D01*
X0135333Y0131500D01*
X0135333Y0135000D01*
X0127833Y0135000D01*
X0127833Y0094000D01*
X0135333Y0094000D01*
X0135333Y0097500D01*
X0141333Y0097500D01*
X0141333Y0094000D01*
X0190333Y0094000D01*
X0190333Y0135000D01*
X0134233Y0114500D02*
X0134235Y0114674D01*
X0134242Y0114848D01*
X0134252Y0115022D01*
X0134267Y0115196D01*
X0134286Y0115369D01*
X0134310Y0115542D01*
X0134338Y0115714D01*
X0134369Y0115885D01*
X0134406Y0116056D01*
X0134446Y0116225D01*
X0134490Y0116394D01*
X0134539Y0116561D01*
X0134591Y0116727D01*
X0134648Y0116892D01*
X0134709Y0117055D01*
X0134773Y0117217D01*
X0134842Y0117377D01*
X0134915Y0117536D01*
X0134991Y0117692D01*
X0135071Y0117847D01*
X0135155Y0118000D01*
X0135243Y0118150D01*
X0135335Y0118298D01*
X0135430Y0118445D01*
X0135528Y0118588D01*
X0135630Y0118729D01*
X0135736Y0118868D01*
X0135845Y0119004D01*
X0135957Y0119138D01*
X0136072Y0119268D01*
X0136191Y0119396D01*
X0136313Y0119520D01*
X0136437Y0119642D01*
X0136565Y0119761D01*
X0136695Y0119876D01*
X0136829Y0119988D01*
X0136965Y0120097D01*
X0137104Y0120203D01*
X0137245Y0120305D01*
X0137388Y0120403D01*
X0137535Y0120498D01*
X0137683Y0120590D01*
X0137833Y0120678D01*
X0137986Y0120762D01*
X0138141Y0120842D01*
X0138297Y0120918D01*
X0138456Y0120991D01*
X0138616Y0121060D01*
X0138778Y0121124D01*
X0138941Y0121185D01*
X0139106Y0121242D01*
X0139272Y0121294D01*
X0139439Y0121343D01*
X0139608Y0121387D01*
X0139777Y0121427D01*
X0139948Y0121464D01*
X0140119Y0121495D01*
X0140291Y0121523D01*
X0140464Y0121547D01*
X0140637Y0121566D01*
X0140811Y0121581D01*
X0140985Y0121591D01*
X0141159Y0121598D01*
X0141333Y0121600D01*
X0141507Y0121598D01*
X0141681Y0121591D01*
X0141855Y0121581D01*
X0142029Y0121566D01*
X0142202Y0121547D01*
X0142375Y0121523D01*
X0142547Y0121495D01*
X0142718Y0121464D01*
X0142889Y0121427D01*
X0143058Y0121387D01*
X0143227Y0121343D01*
X0143394Y0121294D01*
X0143560Y0121242D01*
X0143725Y0121185D01*
X0143888Y0121124D01*
X0144050Y0121060D01*
X0144210Y0120991D01*
X0144369Y0120918D01*
X0144525Y0120842D01*
X0144680Y0120762D01*
X0144833Y0120678D01*
X0144983Y0120590D01*
X0145131Y0120498D01*
X0145278Y0120403D01*
X0145421Y0120305D01*
X0145562Y0120203D01*
X0145701Y0120097D01*
X0145837Y0119988D01*
X0145971Y0119876D01*
X0146101Y0119761D01*
X0146229Y0119642D01*
X0146353Y0119520D01*
X0146475Y0119396D01*
X0146594Y0119268D01*
X0146709Y0119138D01*
X0146821Y0119004D01*
X0146930Y0118868D01*
X0147036Y0118729D01*
X0147138Y0118588D01*
X0147236Y0118445D01*
X0147331Y0118298D01*
X0147423Y0118150D01*
X0147511Y0118000D01*
X0147595Y0117847D01*
X0147675Y0117692D01*
X0147751Y0117536D01*
X0147824Y0117377D01*
X0147893Y0117217D01*
X0147957Y0117055D01*
X0148018Y0116892D01*
X0148075Y0116727D01*
X0148127Y0116561D01*
X0148176Y0116394D01*
X0148220Y0116225D01*
X0148260Y0116056D01*
X0148297Y0115885D01*
X0148328Y0115714D01*
X0148356Y0115542D01*
X0148380Y0115369D01*
X0148399Y0115196D01*
X0148414Y0115022D01*
X0148424Y0114848D01*
X0148431Y0114674D01*
X0148433Y0114500D01*
X0148431Y0114326D01*
X0148424Y0114152D01*
X0148414Y0113978D01*
X0148399Y0113804D01*
X0148380Y0113631D01*
X0148356Y0113458D01*
X0148328Y0113286D01*
X0148297Y0113115D01*
X0148260Y0112944D01*
X0148220Y0112775D01*
X0148176Y0112606D01*
X0148127Y0112439D01*
X0148075Y0112273D01*
X0148018Y0112108D01*
X0147957Y0111945D01*
X0147893Y0111783D01*
X0147824Y0111623D01*
X0147751Y0111464D01*
X0147675Y0111308D01*
X0147595Y0111153D01*
X0147511Y0111000D01*
X0147423Y0110850D01*
X0147331Y0110702D01*
X0147236Y0110555D01*
X0147138Y0110412D01*
X0147036Y0110271D01*
X0146930Y0110132D01*
X0146821Y0109996D01*
X0146709Y0109862D01*
X0146594Y0109732D01*
X0146475Y0109604D01*
X0146353Y0109480D01*
X0146229Y0109358D01*
X0146101Y0109239D01*
X0145971Y0109124D01*
X0145837Y0109012D01*
X0145701Y0108903D01*
X0145562Y0108797D01*
X0145421Y0108695D01*
X0145278Y0108597D01*
X0145131Y0108502D01*
X0144983Y0108410D01*
X0144833Y0108322D01*
X0144680Y0108238D01*
X0144525Y0108158D01*
X0144369Y0108082D01*
X0144210Y0108009D01*
X0144050Y0107940D01*
X0143888Y0107876D01*
X0143725Y0107815D01*
X0143560Y0107758D01*
X0143394Y0107706D01*
X0143227Y0107657D01*
X0143058Y0107613D01*
X0142889Y0107573D01*
X0142718Y0107536D01*
X0142547Y0107505D01*
X0142375Y0107477D01*
X0142202Y0107453D01*
X0142029Y0107434D01*
X0141855Y0107419D01*
X0141681Y0107409D01*
X0141507Y0107402D01*
X0141333Y0107400D01*
X0141159Y0107402D01*
X0140985Y0107409D01*
X0140811Y0107419D01*
X0140637Y0107434D01*
X0140464Y0107453D01*
X0140291Y0107477D01*
X0140119Y0107505D01*
X0139948Y0107536D01*
X0139777Y0107573D01*
X0139608Y0107613D01*
X0139439Y0107657D01*
X0139272Y0107706D01*
X0139106Y0107758D01*
X0138941Y0107815D01*
X0138778Y0107876D01*
X0138616Y0107940D01*
X0138456Y0108009D01*
X0138297Y0108082D01*
X0138141Y0108158D01*
X0137986Y0108238D01*
X0137833Y0108322D01*
X0137683Y0108410D01*
X0137535Y0108502D01*
X0137388Y0108597D01*
X0137245Y0108695D01*
X0137104Y0108797D01*
X0136965Y0108903D01*
X0136829Y0109012D01*
X0136695Y0109124D01*
X0136565Y0109239D01*
X0136437Y0109358D01*
X0136313Y0109480D01*
X0136191Y0109604D01*
X0136072Y0109732D01*
X0135957Y0109862D01*
X0135845Y0109996D01*
X0135736Y0110132D01*
X0135630Y0110271D01*
X0135528Y0110412D01*
X0135430Y0110555D01*
X0135335Y0110702D01*
X0135243Y0110850D01*
X0135155Y0111000D01*
X0135071Y0111153D01*
X0134991Y0111308D01*
X0134915Y0111464D01*
X0134842Y0111623D01*
X0134773Y0111783D01*
X0134709Y0111945D01*
X0134648Y0112108D01*
X0134591Y0112273D01*
X0134539Y0112439D01*
X0134490Y0112606D01*
X0134446Y0112775D01*
X0134406Y0112944D01*
X0134369Y0113115D01*
X0134338Y0113286D01*
X0134310Y0113458D01*
X0134286Y0113631D01*
X0134267Y0113804D01*
X0134252Y0113978D01*
X0134242Y0114152D01*
X0134235Y0114326D01*
X0134233Y0114500D01*
X0134999Y0140144D02*
X0135833Y0140978D01*
X0135833Y0141812D01*
X0134999Y0142646D01*
X0130829Y0142646D01*
X0130829Y0141812D02*
X0130829Y0143480D01*
X0132497Y0145300D02*
X0130829Y0146968D01*
X0135833Y0146968D01*
X0135833Y0145300D02*
X0135833Y0148636D01*
X0134999Y0150144D02*
X0135833Y0150978D01*
X0135833Y0151812D01*
X0134999Y0152646D01*
X0130829Y0152646D01*
X0130829Y0151812D02*
X0130829Y0153480D01*
X0131663Y0155300D02*
X0130829Y0156134D01*
X0130829Y0157802D01*
X0131663Y0158636D01*
X0132497Y0158636D01*
X0133331Y0157802D01*
X0134165Y0158636D01*
X0134999Y0158636D01*
X0135833Y0157802D01*
X0135833Y0156134D01*
X0134999Y0155300D01*
X0133331Y0156968D02*
X0133331Y0157802D01*
X0134999Y0310144D02*
X0135833Y0310978D01*
X0135833Y0311812D01*
X0134999Y0312646D01*
X0130829Y0312646D01*
X0130829Y0311812D02*
X0130829Y0313480D01*
X0133331Y0315300D02*
X0130829Y0317802D01*
X0135833Y0317802D01*
X0134999Y0320144D02*
X0135833Y0320978D01*
X0135833Y0321812D01*
X0134999Y0322646D01*
X0130829Y0322646D01*
X0130829Y0321812D02*
X0130829Y0323480D01*
X0131663Y0325300D02*
X0130829Y0326134D01*
X0130829Y0327802D01*
X0131663Y0328636D01*
X0132497Y0328636D01*
X0135833Y0325300D01*
X0135833Y0328636D01*
X0133331Y0318636D02*
X0133331Y0315300D01*
D14*
X0170833Y0272500D03*
X0175833Y0267500D03*
X0175833Y0262500D03*
X0170833Y0262500D03*
X0170833Y0257500D03*
X0165833Y0257500D03*
X0165833Y0252500D03*
X0160833Y0252500D03*
X0160833Y0247500D03*
X0160833Y0242500D03*
X0170833Y0242500D03*
X0175833Y0237500D03*
X0180833Y0237500D03*
X0190833Y0237500D03*
X0195833Y0237500D03*
X0200833Y0242500D03*
X0200833Y0247500D03*
X0195833Y0247500D03*
X0190833Y0247500D03*
X0185833Y0247500D03*
X0180833Y0247500D03*
X0180833Y0252500D03*
X0185833Y0252500D03*
X0190833Y0252500D03*
X0195833Y0252500D03*
X0200833Y0252500D03*
X0205833Y0252500D03*
X0205833Y0257500D03*
X0200833Y0257500D03*
X0200833Y0262500D03*
X0195833Y0262500D03*
X0190833Y0262500D03*
X0185833Y0262500D03*
X0180833Y0262500D03*
X0180833Y0257500D03*
X0185833Y0257500D03*
X0190833Y0257500D03*
X0195833Y0267500D03*
X0200833Y0272500D03*
X0210833Y0252500D03*
X0210833Y0247500D03*
X0210833Y0242500D03*
X0175833Y0247500D03*
X0170833Y0247500D03*
X0170833Y0252500D03*
X0175833Y0252500D03*
D15*
X0283333Y0070000D02*
X0283333Y0067000D01*
X0284833Y0063500D01*
X0283333Y0063000D02*
X0283333Y0060000D01*
X0348333Y0060000D02*
X0348333Y0063000D01*
X0349833Y0063500D02*
X0348333Y0067000D01*
X0348333Y0070000D01*
D16*
X0185083Y0103215D02*
X0185083Y0104717D01*
X0185083Y0103966D02*
X0180579Y0103966D01*
X0180579Y0103215D02*
X0180579Y0104717D01*
X0182831Y0112448D02*
X0182831Y0115451D01*
X0181330Y0123448D02*
X0184333Y0123448D01*
X0185083Y0124199D01*
X0185083Y0125700D01*
X0184333Y0126451D01*
X0181330Y0126451D01*
X0180579Y0125700D01*
X0180579Y0124199D01*
X0181330Y0123448D01*
D17*
X0206286Y0070000D02*
X0206288Y0070105D01*
X0206294Y0070210D01*
X0206304Y0070314D01*
X0206318Y0070418D01*
X0206336Y0070522D01*
X0206358Y0070624D01*
X0206383Y0070726D01*
X0206413Y0070827D01*
X0206446Y0070926D01*
X0206483Y0071024D01*
X0206524Y0071121D01*
X0206569Y0071216D01*
X0206617Y0071309D01*
X0206668Y0071401D01*
X0206724Y0071490D01*
X0206782Y0071577D01*
X0206844Y0071662D01*
X0206908Y0071745D01*
X0206976Y0071825D01*
X0207047Y0071902D01*
X0207121Y0071976D01*
X0207198Y0072048D01*
X0207277Y0072117D01*
X0207359Y0072182D01*
X0207443Y0072245D01*
X0207530Y0072304D01*
X0207619Y0072360D01*
X0207710Y0072413D01*
X0207803Y0072462D01*
X0207897Y0072507D01*
X0207993Y0072549D01*
X0208091Y0072587D01*
X0208190Y0072621D01*
X0208291Y0072652D01*
X0208392Y0072678D01*
X0208495Y0072701D01*
X0208598Y0072720D01*
X0208702Y0072735D01*
X0208806Y0072746D01*
X0208911Y0072753D01*
X0209016Y0072756D01*
X0209121Y0072755D01*
X0209226Y0072750D01*
X0209330Y0072741D01*
X0209434Y0072728D01*
X0209538Y0072711D01*
X0209641Y0072690D01*
X0209743Y0072665D01*
X0209844Y0072637D01*
X0209943Y0072604D01*
X0210042Y0072568D01*
X0210139Y0072528D01*
X0210234Y0072485D01*
X0210328Y0072437D01*
X0210420Y0072387D01*
X0210510Y0072333D01*
X0210598Y0072275D01*
X0210683Y0072214D01*
X0210766Y0072150D01*
X0210847Y0072083D01*
X0210925Y0072013D01*
X0211000Y0071939D01*
X0211072Y0071864D01*
X0211142Y0071785D01*
X0211208Y0071704D01*
X0211272Y0071620D01*
X0211332Y0071534D01*
X0211388Y0071446D01*
X0211442Y0071355D01*
X0211492Y0071263D01*
X0211538Y0071169D01*
X0211581Y0071073D01*
X0211620Y0070975D01*
X0211655Y0070877D01*
X0211686Y0070776D01*
X0211714Y0070675D01*
X0211738Y0070573D01*
X0211758Y0070470D01*
X0211774Y0070366D01*
X0211786Y0070262D01*
X0211794Y0070157D01*
X0211798Y0070052D01*
X0211798Y0069948D01*
X0211794Y0069843D01*
X0211786Y0069738D01*
X0211774Y0069634D01*
X0211758Y0069530D01*
X0211738Y0069427D01*
X0211714Y0069325D01*
X0211686Y0069224D01*
X0211655Y0069123D01*
X0211620Y0069025D01*
X0211581Y0068927D01*
X0211538Y0068831D01*
X0211492Y0068737D01*
X0211442Y0068645D01*
X0211388Y0068554D01*
X0211332Y0068466D01*
X0211272Y0068380D01*
X0211208Y0068296D01*
X0211142Y0068215D01*
X0211072Y0068136D01*
X0211000Y0068061D01*
X0210925Y0067987D01*
X0210847Y0067917D01*
X0210766Y0067850D01*
X0210683Y0067786D01*
X0210598Y0067725D01*
X0210510Y0067667D01*
X0210420Y0067613D01*
X0210328Y0067563D01*
X0210234Y0067515D01*
X0210139Y0067472D01*
X0210042Y0067432D01*
X0209943Y0067396D01*
X0209844Y0067363D01*
X0209743Y0067335D01*
X0209641Y0067310D01*
X0209538Y0067289D01*
X0209434Y0067272D01*
X0209330Y0067259D01*
X0209226Y0067250D01*
X0209121Y0067245D01*
X0209016Y0067244D01*
X0208911Y0067247D01*
X0208806Y0067254D01*
X0208702Y0067265D01*
X0208598Y0067280D01*
X0208495Y0067299D01*
X0208392Y0067322D01*
X0208291Y0067348D01*
X0208190Y0067379D01*
X0208091Y0067413D01*
X0207993Y0067451D01*
X0207897Y0067493D01*
X0207803Y0067538D01*
X0207710Y0067587D01*
X0207619Y0067640D01*
X0207530Y0067696D01*
X0207443Y0067755D01*
X0207359Y0067818D01*
X0207277Y0067883D01*
X0207198Y0067952D01*
X0207121Y0068024D01*
X0207047Y0068098D01*
X0206976Y0068175D01*
X0206908Y0068255D01*
X0206844Y0068338D01*
X0206782Y0068423D01*
X0206724Y0068510D01*
X0206668Y0068599D01*
X0206617Y0068691D01*
X0206569Y0068784D01*
X0206524Y0068879D01*
X0206483Y0068976D01*
X0206446Y0069074D01*
X0206413Y0069173D01*
X0206383Y0069274D01*
X0206358Y0069376D01*
X0206336Y0069478D01*
X0206318Y0069582D01*
X0206304Y0069686D01*
X0206294Y0069790D01*
X0206288Y0069895D01*
X0206286Y0070000D01*
X0044869Y0070000D02*
X0044871Y0070105D01*
X0044877Y0070210D01*
X0044887Y0070314D01*
X0044901Y0070418D01*
X0044919Y0070522D01*
X0044941Y0070624D01*
X0044966Y0070726D01*
X0044996Y0070827D01*
X0045029Y0070926D01*
X0045066Y0071024D01*
X0045107Y0071121D01*
X0045152Y0071216D01*
X0045200Y0071309D01*
X0045251Y0071401D01*
X0045307Y0071490D01*
X0045365Y0071577D01*
X0045427Y0071662D01*
X0045491Y0071745D01*
X0045559Y0071825D01*
X0045630Y0071902D01*
X0045704Y0071976D01*
X0045781Y0072048D01*
X0045860Y0072117D01*
X0045942Y0072182D01*
X0046026Y0072245D01*
X0046113Y0072304D01*
X0046202Y0072360D01*
X0046293Y0072413D01*
X0046386Y0072462D01*
X0046480Y0072507D01*
X0046576Y0072549D01*
X0046674Y0072587D01*
X0046773Y0072621D01*
X0046874Y0072652D01*
X0046975Y0072678D01*
X0047078Y0072701D01*
X0047181Y0072720D01*
X0047285Y0072735D01*
X0047389Y0072746D01*
X0047494Y0072753D01*
X0047599Y0072756D01*
X0047704Y0072755D01*
X0047809Y0072750D01*
X0047913Y0072741D01*
X0048017Y0072728D01*
X0048121Y0072711D01*
X0048224Y0072690D01*
X0048326Y0072665D01*
X0048427Y0072637D01*
X0048526Y0072604D01*
X0048625Y0072568D01*
X0048722Y0072528D01*
X0048817Y0072485D01*
X0048911Y0072437D01*
X0049003Y0072387D01*
X0049093Y0072333D01*
X0049181Y0072275D01*
X0049266Y0072214D01*
X0049349Y0072150D01*
X0049430Y0072083D01*
X0049508Y0072013D01*
X0049583Y0071939D01*
X0049655Y0071864D01*
X0049725Y0071785D01*
X0049791Y0071704D01*
X0049855Y0071620D01*
X0049915Y0071534D01*
X0049971Y0071446D01*
X0050025Y0071355D01*
X0050075Y0071263D01*
X0050121Y0071169D01*
X0050164Y0071073D01*
X0050203Y0070975D01*
X0050238Y0070877D01*
X0050269Y0070776D01*
X0050297Y0070675D01*
X0050321Y0070573D01*
X0050341Y0070470D01*
X0050357Y0070366D01*
X0050369Y0070262D01*
X0050377Y0070157D01*
X0050381Y0070052D01*
X0050381Y0069948D01*
X0050377Y0069843D01*
X0050369Y0069738D01*
X0050357Y0069634D01*
X0050341Y0069530D01*
X0050321Y0069427D01*
X0050297Y0069325D01*
X0050269Y0069224D01*
X0050238Y0069123D01*
X0050203Y0069025D01*
X0050164Y0068927D01*
X0050121Y0068831D01*
X0050075Y0068737D01*
X0050025Y0068645D01*
X0049971Y0068554D01*
X0049915Y0068466D01*
X0049855Y0068380D01*
X0049791Y0068296D01*
X0049725Y0068215D01*
X0049655Y0068136D01*
X0049583Y0068061D01*
X0049508Y0067987D01*
X0049430Y0067917D01*
X0049349Y0067850D01*
X0049266Y0067786D01*
X0049181Y0067725D01*
X0049093Y0067667D01*
X0049003Y0067613D01*
X0048911Y0067563D01*
X0048817Y0067515D01*
X0048722Y0067472D01*
X0048625Y0067432D01*
X0048526Y0067396D01*
X0048427Y0067363D01*
X0048326Y0067335D01*
X0048224Y0067310D01*
X0048121Y0067289D01*
X0048017Y0067272D01*
X0047913Y0067259D01*
X0047809Y0067250D01*
X0047704Y0067245D01*
X0047599Y0067244D01*
X0047494Y0067247D01*
X0047389Y0067254D01*
X0047285Y0067265D01*
X0047181Y0067280D01*
X0047078Y0067299D01*
X0046975Y0067322D01*
X0046874Y0067348D01*
X0046773Y0067379D01*
X0046674Y0067413D01*
X0046576Y0067451D01*
X0046480Y0067493D01*
X0046386Y0067538D01*
X0046293Y0067587D01*
X0046202Y0067640D01*
X0046113Y0067696D01*
X0046026Y0067755D01*
X0045942Y0067818D01*
X0045860Y0067883D01*
X0045781Y0067952D01*
X0045704Y0068024D01*
X0045630Y0068098D01*
X0045559Y0068175D01*
X0045491Y0068255D01*
X0045427Y0068338D01*
X0045365Y0068423D01*
X0045307Y0068510D01*
X0045251Y0068599D01*
X0045200Y0068691D01*
X0045152Y0068784D01*
X0045107Y0068879D01*
X0045066Y0068976D01*
X0045029Y0069074D01*
X0044996Y0069173D01*
X0044966Y0069274D01*
X0044941Y0069376D01*
X0044919Y0069478D01*
X0044901Y0069582D01*
X0044887Y0069686D01*
X0044877Y0069790D01*
X0044871Y0069895D01*
X0044869Y0070000D01*
D18*
X0238662Y0132809D02*
X0237942Y0132269D01*
X0237943Y0132270D02*
X0237762Y0132503D01*
X0237576Y0132731D01*
X0237384Y0132955D01*
X0237187Y0133174D01*
X0236985Y0133388D01*
X0236777Y0133597D01*
X0236564Y0133800D01*
X0236347Y0133999D01*
X0236124Y0134192D01*
X0235897Y0134380D01*
X0235666Y0134562D01*
X0235430Y0134739D01*
X0235189Y0134909D01*
X0234945Y0135074D01*
X0234697Y0135232D01*
X0234445Y0135385D01*
X0234189Y0135531D01*
X0233930Y0135671D01*
X0233667Y0135805D01*
X0233402Y0135932D01*
X0233133Y0136053D01*
X0232861Y0136167D01*
X0232587Y0136274D01*
X0232310Y0136375D01*
X0232031Y0136469D01*
X0231749Y0136556D01*
X0231466Y0136636D01*
X0231180Y0136709D01*
X0230893Y0136775D01*
X0230604Y0136834D01*
X0230314Y0136886D01*
X0230023Y0136931D01*
X0229731Y0136969D01*
X0229438Y0136999D01*
X0229144Y0137023D01*
X0228850Y0137039D01*
X0228556Y0137048D01*
X0228261Y0137050D01*
X0227966Y0137044D01*
X0227672Y0137032D01*
X0227378Y0137012D01*
X0227085Y0136985D01*
X0226792Y0136951D01*
X0226500Y0136910D01*
X0226210Y0136861D01*
X0225920Y0136806D01*
X0225633Y0136744D01*
X0225346Y0136674D01*
X0225062Y0136597D01*
X0224779Y0136514D01*
X0224499Y0136424D01*
X0224221Y0136327D01*
X0223945Y0136223D01*
X0223672Y0136112D01*
X0223402Y0135995D01*
X0223134Y0135871D01*
X0222870Y0135741D01*
X0222609Y0135604D01*
X0222352Y0135461D01*
X0222098Y0135311D01*
X0221847Y0135156D01*
X0221601Y0134994D01*
X0221359Y0134827D01*
X0221121Y0134653D01*
X0220887Y0134474D01*
X0220657Y0134289D01*
X0220433Y0134099D01*
X0220212Y0133903D01*
X0219997Y0133702D01*
X0219787Y0133495D01*
X0219582Y0133284D01*
X0219382Y0133067D01*
X0219187Y0132846D01*
X0218998Y0132620D01*
X0218815Y0132390D01*
X0218637Y0132155D01*
X0218465Y0131915D01*
X0218299Y0131672D01*
X0218139Y0131425D01*
X0217985Y0131174D01*
X0217837Y0130919D01*
X0217695Y0130660D01*
X0217560Y0130399D01*
X0217431Y0130134D01*
X0217309Y0129866D01*
X0217193Y0129595D01*
X0217084Y0129321D01*
X0216982Y0129045D01*
X0216887Y0128766D01*
X0216798Y0128485D01*
X0216716Y0128202D01*
X0216641Y0127917D01*
X0216574Y0127630D01*
X0216513Y0127342D01*
X0216459Y0127052D01*
X0216412Y0126761D01*
X0216373Y0126469D01*
X0216341Y0126177D01*
X0216315Y0125883D01*
X0216297Y0125589D01*
X0216287Y0125295D01*
X0216283Y0125000D01*
X0216287Y0124705D01*
X0216297Y0124411D01*
X0216315Y0124117D01*
X0216341Y0123823D01*
X0216373Y0123531D01*
X0216412Y0123239D01*
X0216459Y0122948D01*
X0216513Y0122658D01*
X0216574Y0122370D01*
X0216641Y0122083D01*
X0216716Y0121798D01*
X0216798Y0121515D01*
X0216887Y0121234D01*
X0216982Y0120955D01*
X0217084Y0120679D01*
X0217193Y0120405D01*
X0217309Y0120134D01*
X0217431Y0119866D01*
X0217560Y0119601D01*
X0217695Y0119340D01*
X0217837Y0119081D01*
X0217985Y0118826D01*
X0218139Y0118575D01*
X0218299Y0118328D01*
X0218465Y0118085D01*
X0218637Y0117845D01*
X0218815Y0117610D01*
X0218998Y0117380D01*
X0219187Y0117154D01*
X0219382Y0116933D01*
X0219582Y0116716D01*
X0219787Y0116505D01*
X0219997Y0116298D01*
X0220212Y0116097D01*
X0220433Y0115901D01*
X0220657Y0115711D01*
X0220887Y0115526D01*
X0221121Y0115347D01*
X0221359Y0115173D01*
X0221601Y0115006D01*
X0221847Y0114844D01*
X0222098Y0114689D01*
X0222352Y0114539D01*
X0222609Y0114396D01*
X0222870Y0114259D01*
X0223134Y0114129D01*
X0223402Y0114005D01*
X0223672Y0113888D01*
X0223945Y0113777D01*
X0224221Y0113673D01*
X0224499Y0113576D01*
X0224779Y0113486D01*
X0225062Y0113403D01*
X0225346Y0113326D01*
X0225633Y0113256D01*
X0225920Y0113194D01*
X0226210Y0113139D01*
X0226500Y0113090D01*
X0226792Y0113049D01*
X0227085Y0113015D01*
X0227378Y0112988D01*
X0227672Y0112968D01*
X0227966Y0112956D01*
X0228261Y0112950D01*
X0228556Y0112952D01*
X0228850Y0112961D01*
X0229144Y0112977D01*
X0229438Y0113001D01*
X0229731Y0113031D01*
X0230023Y0113069D01*
X0230314Y0113114D01*
X0230604Y0113166D01*
X0230893Y0113225D01*
X0231180Y0113291D01*
X0231466Y0113364D01*
X0231749Y0113444D01*
X0232031Y0113531D01*
X0232310Y0113625D01*
X0232587Y0113726D01*
X0232861Y0113833D01*
X0233133Y0113947D01*
X0233402Y0114068D01*
X0233667Y0114195D01*
X0233930Y0114329D01*
X0234189Y0114469D01*
X0234445Y0114615D01*
X0234697Y0114768D01*
X0234945Y0114926D01*
X0235189Y0115091D01*
X0235430Y0115261D01*
X0235666Y0115438D01*
X0235897Y0115620D01*
X0236124Y0115808D01*
X0236347Y0116001D01*
X0236564Y0116200D01*
X0236777Y0116403D01*
X0236985Y0116612D01*
X0237187Y0116826D01*
X0237384Y0117045D01*
X0237576Y0117269D01*
X0237762Y0117497D01*
X0237943Y0117730D01*
X0238662Y0117191D01*
X0238663Y0117190D01*
X0238469Y0116940D01*
X0238269Y0116694D01*
X0238063Y0116454D01*
X0237851Y0116219D01*
X0237633Y0115989D01*
X0237410Y0115764D01*
X0237182Y0115545D01*
X0236948Y0115331D01*
X0236709Y0115123D01*
X0236465Y0114921D01*
X0236216Y0114726D01*
X0235962Y0114536D01*
X0235704Y0114353D01*
X0235442Y0114176D01*
X0235175Y0114005D01*
X0234904Y0113841D01*
X0234629Y0113684D01*
X0234351Y0113533D01*
X0234068Y0113389D01*
X0233783Y0113253D01*
X0233494Y0113123D01*
X0233202Y0113000D01*
X0232907Y0112885D01*
X0232610Y0112777D01*
X0232309Y0112676D01*
X0232007Y0112582D01*
X0231702Y0112496D01*
X0231395Y0112417D01*
X0231087Y0112346D01*
X0230777Y0112283D01*
X0230465Y0112227D01*
X0230152Y0112178D01*
X0229838Y0112138D01*
X0229523Y0112105D01*
X0229207Y0112080D01*
X0228891Y0112062D01*
X0228575Y0112052D01*
X0228258Y0112050D01*
X0227941Y0112056D01*
X0227625Y0112069D01*
X0227309Y0112091D01*
X0226994Y0112119D01*
X0226679Y0112156D01*
X0226366Y0112200D01*
X0226053Y0112252D01*
X0225742Y0112312D01*
X0225433Y0112379D01*
X0225125Y0112454D01*
X0224819Y0112536D01*
X0224516Y0112625D01*
X0224214Y0112722D01*
X0223915Y0112827D01*
X0223619Y0112939D01*
X0223325Y0113057D01*
X0223035Y0113183D01*
X0222748Y0113316D01*
X0222463Y0113457D01*
X0222183Y0113604D01*
X0221906Y0113757D01*
X0221633Y0113918D01*
X0221364Y0114085D01*
X0221099Y0114259D01*
X0220839Y0114439D01*
X0220583Y0114625D01*
X0220332Y0114818D01*
X0220085Y0115016D01*
X0219843Y0115221D01*
X0219607Y0115431D01*
X0219375Y0115648D01*
X0219150Y0115870D01*
X0218929Y0116097D01*
X0218714Y0116329D01*
X0218505Y0116567D01*
X0218302Y0116810D01*
X0218104Y0117058D01*
X0217913Y0117310D01*
X0217728Y0117567D01*
X0217550Y0117829D01*
X0217378Y0118095D01*
X0217212Y0118364D01*
X0217053Y0118638D01*
X0216901Y0118916D01*
X0216756Y0119197D01*
X0216617Y0119482D01*
X0216486Y0119770D01*
X0216362Y0120062D01*
X0216244Y0120356D01*
X0216134Y0120653D01*
X0216032Y0120952D01*
X0215937Y0121254D01*
X0215849Y0121558D01*
X0215768Y0121865D01*
X0215695Y0122173D01*
X0215630Y0122483D01*
X0215572Y0122794D01*
X0215522Y0123107D01*
X0215480Y0123421D01*
X0215445Y0123735D01*
X0215418Y0124051D01*
X0215398Y0124367D01*
X0215387Y0124683D01*
X0215383Y0125000D01*
X0215387Y0125317D01*
X0215398Y0125633D01*
X0215418Y0125949D01*
X0215445Y0126265D01*
X0215480Y0126579D01*
X0215522Y0126893D01*
X0215572Y0127206D01*
X0215630Y0127517D01*
X0215695Y0127827D01*
X0215768Y0128135D01*
X0215849Y0128442D01*
X0215937Y0128746D01*
X0216032Y0129048D01*
X0216134Y0129347D01*
X0216244Y0129644D01*
X0216362Y0129938D01*
X0216486Y0130230D01*
X0216617Y0130518D01*
X0216756Y0130803D01*
X0216901Y0131084D01*
X0217053Y0131362D01*
X0217212Y0131636D01*
X0217378Y0131905D01*
X0217550Y0132171D01*
X0217728Y0132433D01*
X0217913Y0132690D01*
X0218104Y0132942D01*
X0218302Y0133190D01*
X0218505Y0133433D01*
X0218714Y0133671D01*
X0218929Y0133903D01*
X0219150Y0134130D01*
X0219375Y0134352D01*
X0219607Y0134569D01*
X0219843Y0134779D01*
X0220085Y0134984D01*
X0220332Y0135182D01*
X0220583Y0135375D01*
X0220839Y0135561D01*
X0221099Y0135741D01*
X0221364Y0135915D01*
X0221633Y0136082D01*
X0221906Y0136243D01*
X0222183Y0136396D01*
X0222463Y0136543D01*
X0222748Y0136684D01*
X0223035Y0136817D01*
X0223325Y0136943D01*
X0223619Y0137061D01*
X0223915Y0137173D01*
X0224214Y0137278D01*
X0224516Y0137375D01*
X0224819Y0137464D01*
X0225125Y0137546D01*
X0225433Y0137621D01*
X0225742Y0137688D01*
X0226053Y0137748D01*
X0226366Y0137800D01*
X0226679Y0137844D01*
X0226994Y0137881D01*
X0227309Y0137909D01*
X0227625Y0137931D01*
X0227941Y0137944D01*
X0228258Y0137950D01*
X0228575Y0137948D01*
X0228891Y0137938D01*
X0229207Y0137920D01*
X0229523Y0137895D01*
X0229838Y0137862D01*
X0230152Y0137822D01*
X0230465Y0137773D01*
X0230777Y0137717D01*
X0231087Y0137654D01*
X0231395Y0137583D01*
X0231702Y0137504D01*
X0232007Y0137418D01*
X0232309Y0137324D01*
X0232610Y0137223D01*
X0232907Y0137115D01*
X0233202Y0137000D01*
X0233494Y0136877D01*
X0233783Y0136747D01*
X0234068Y0136611D01*
X0234351Y0136467D01*
X0234629Y0136316D01*
X0234904Y0136159D01*
X0235175Y0135995D01*
X0235442Y0135824D01*
X0235704Y0135647D01*
X0235962Y0135464D01*
X0236216Y0135274D01*
X0236465Y0135079D01*
X0236709Y0134877D01*
X0236948Y0134669D01*
X0237182Y0134455D01*
X0237410Y0134236D01*
X0237633Y0134011D01*
X0237851Y0133781D01*
X0238063Y0133546D01*
X0238269Y0133306D01*
X0238469Y0133060D01*
X0238663Y0132810D01*
X0238588Y0132754D01*
X0238395Y0133002D01*
X0238196Y0133246D01*
X0237992Y0133484D01*
X0237782Y0133718D01*
X0237566Y0133946D01*
X0237344Y0134169D01*
X0237117Y0134387D01*
X0236885Y0134599D01*
X0236648Y0134805D01*
X0236406Y0135006D01*
X0236158Y0135200D01*
X0235907Y0135388D01*
X0235650Y0135570D01*
X0235390Y0135746D01*
X0235125Y0135915D01*
X0234856Y0136078D01*
X0234583Y0136234D01*
X0234307Y0136384D01*
X0234027Y0136526D01*
X0233743Y0136662D01*
X0233456Y0136791D01*
X0233166Y0136913D01*
X0232874Y0137027D01*
X0232578Y0137135D01*
X0232280Y0137235D01*
X0231980Y0137328D01*
X0231677Y0137413D01*
X0231373Y0137491D01*
X0231067Y0137562D01*
X0230759Y0137625D01*
X0230449Y0137681D01*
X0230139Y0137729D01*
X0229827Y0137769D01*
X0229514Y0137802D01*
X0229201Y0137827D01*
X0228887Y0137844D01*
X0228573Y0137854D01*
X0228258Y0137856D01*
X0227944Y0137850D01*
X0227630Y0137837D01*
X0227316Y0137816D01*
X0227003Y0137787D01*
X0226691Y0137751D01*
X0226380Y0137707D01*
X0226070Y0137655D01*
X0225761Y0137596D01*
X0225454Y0137529D01*
X0225148Y0137455D01*
X0224845Y0137374D01*
X0224543Y0137285D01*
X0224244Y0137188D01*
X0223947Y0137085D01*
X0223653Y0136974D01*
X0223362Y0136856D01*
X0223073Y0136731D01*
X0222788Y0136599D01*
X0222506Y0136460D01*
X0222228Y0136314D01*
X0221953Y0136161D01*
X0221682Y0136002D01*
X0221415Y0135836D01*
X0221152Y0135663D01*
X0220893Y0135485D01*
X0220639Y0135300D01*
X0220390Y0135108D01*
X0220145Y0134911D01*
X0219905Y0134708D01*
X0219670Y0134499D01*
X0219440Y0134284D01*
X0219216Y0134064D01*
X0218997Y0133839D01*
X0218784Y0133608D01*
X0218576Y0133372D01*
X0218374Y0133130D01*
X0218179Y0132885D01*
X0217989Y0132634D01*
X0217805Y0132379D01*
X0217628Y0132119D01*
X0217457Y0131855D01*
X0217293Y0131587D01*
X0217135Y0131315D01*
X0216984Y0131040D01*
X0216840Y0130760D01*
X0216702Y0130478D01*
X0216572Y0130192D01*
X0216448Y0129903D01*
X0216332Y0129610D01*
X0216223Y0129316D01*
X0216121Y0129018D01*
X0216027Y0128719D01*
X0215939Y0128416D01*
X0215859Y0128112D01*
X0215787Y0127807D01*
X0215722Y0127499D01*
X0215665Y0127190D01*
X0215615Y0126879D01*
X0215573Y0126568D01*
X0215538Y0126255D01*
X0215512Y0125942D01*
X0215492Y0125628D01*
X0215481Y0125314D01*
X0215477Y0125000D01*
X0215481Y0124686D01*
X0215492Y0124372D01*
X0215512Y0124058D01*
X0215538Y0123745D01*
X0215573Y0123432D01*
X0215615Y0123121D01*
X0215665Y0122810D01*
X0215722Y0122501D01*
X0215787Y0122193D01*
X0215859Y0121888D01*
X0215939Y0121584D01*
X0216027Y0121281D01*
X0216121Y0120982D01*
X0216223Y0120684D01*
X0216332Y0120390D01*
X0216448Y0120097D01*
X0216572Y0119808D01*
X0216702Y0119522D01*
X0216840Y0119240D01*
X0216984Y0118960D01*
X0217135Y0118685D01*
X0217293Y0118413D01*
X0217457Y0118145D01*
X0217628Y0117881D01*
X0217805Y0117621D01*
X0217989Y0117366D01*
X0218179Y0117115D01*
X0218374Y0116870D01*
X0218576Y0116628D01*
X0218784Y0116392D01*
X0218997Y0116161D01*
X0219216Y0115936D01*
X0219440Y0115716D01*
X0219670Y0115501D01*
X0219905Y0115292D01*
X0220145Y0115089D01*
X0220390Y0114892D01*
X0220639Y0114700D01*
X0220893Y0114515D01*
X0221152Y0114337D01*
X0221415Y0114164D01*
X0221682Y0113998D01*
X0221953Y0113839D01*
X0222228Y0113686D01*
X0222506Y0113540D01*
X0222788Y0113401D01*
X0223073Y0113269D01*
X0223362Y0113144D01*
X0223653Y0113026D01*
X0223947Y0112915D01*
X0224244Y0112812D01*
X0224543Y0112715D01*
X0224845Y0112626D01*
X0225148Y0112545D01*
X0225454Y0112471D01*
X0225761Y0112404D01*
X0226070Y0112345D01*
X0226380Y0112293D01*
X0226691Y0112249D01*
X0227003Y0112213D01*
X0227316Y0112184D01*
X0227630Y0112163D01*
X0227944Y0112150D01*
X0228258Y0112144D01*
X0228573Y0112146D01*
X0228887Y0112156D01*
X0229201Y0112173D01*
X0229514Y0112198D01*
X0229827Y0112231D01*
X0230139Y0112271D01*
X0230449Y0112319D01*
X0230759Y0112375D01*
X0231067Y0112438D01*
X0231373Y0112509D01*
X0231677Y0112587D01*
X0231980Y0112672D01*
X0232280Y0112765D01*
X0232578Y0112865D01*
X0232874Y0112973D01*
X0233166Y0113087D01*
X0233456Y0113209D01*
X0233743Y0113338D01*
X0234027Y0113474D01*
X0234307Y0113616D01*
X0234583Y0113766D01*
X0234856Y0113922D01*
X0235125Y0114085D01*
X0235390Y0114254D01*
X0235650Y0114430D01*
X0235907Y0114612D01*
X0236158Y0114800D01*
X0236406Y0114994D01*
X0236648Y0115195D01*
X0236885Y0115401D01*
X0237117Y0115613D01*
X0237344Y0115831D01*
X0237566Y0116054D01*
X0237782Y0116282D01*
X0237992Y0116516D01*
X0238196Y0116754D01*
X0238395Y0116998D01*
X0238588Y0117246D01*
X0238513Y0117303D01*
X0238321Y0117056D01*
X0238124Y0116814D01*
X0237921Y0116577D01*
X0237712Y0116346D01*
X0237498Y0116119D01*
X0237278Y0115897D01*
X0237053Y0115681D01*
X0236822Y0115471D01*
X0236587Y0115266D01*
X0236346Y0115067D01*
X0236101Y0114874D01*
X0235851Y0114688D01*
X0235597Y0114507D01*
X0235338Y0114332D01*
X0235075Y0114164D01*
X0234808Y0114003D01*
X0234537Y0113848D01*
X0234263Y0113699D01*
X0233985Y0113558D01*
X0233703Y0113423D01*
X0233419Y0113295D01*
X0233131Y0113174D01*
X0232840Y0113060D01*
X0232547Y0112954D01*
X0232251Y0112854D01*
X0231953Y0112762D01*
X0231653Y0112677D01*
X0231350Y0112600D01*
X0231046Y0112530D01*
X0230741Y0112467D01*
X0230434Y0112412D01*
X0230125Y0112364D01*
X0229816Y0112324D01*
X0229505Y0112292D01*
X0229194Y0112267D01*
X0228883Y0112250D01*
X0228571Y0112240D01*
X0228259Y0112238D01*
X0227947Y0112244D01*
X0227635Y0112257D01*
X0227324Y0112278D01*
X0227013Y0112306D01*
X0226703Y0112343D01*
X0226394Y0112386D01*
X0226086Y0112437D01*
X0225779Y0112496D01*
X0225475Y0112562D01*
X0225171Y0112636D01*
X0224870Y0112717D01*
X0224571Y0112805D01*
X0224274Y0112901D01*
X0223979Y0113004D01*
X0223687Y0113114D01*
X0223398Y0113231D01*
X0223111Y0113355D01*
X0222828Y0113486D01*
X0222548Y0113624D01*
X0222272Y0113769D01*
X0221999Y0113921D01*
X0221730Y0114079D01*
X0221465Y0114244D01*
X0221204Y0114415D01*
X0220948Y0114592D01*
X0220695Y0114776D01*
X0220448Y0114966D01*
X0220205Y0115161D01*
X0219966Y0115363D01*
X0219733Y0115571D01*
X0219505Y0115784D01*
X0219283Y0116002D01*
X0219065Y0116226D01*
X0218854Y0116455D01*
X0218648Y0116690D01*
X0218447Y0116929D01*
X0218253Y0117173D01*
X0218065Y0117422D01*
X0217882Y0117675D01*
X0217706Y0117933D01*
X0217537Y0118195D01*
X0217374Y0118461D01*
X0217217Y0118731D01*
X0217067Y0119005D01*
X0216924Y0119282D01*
X0216787Y0119562D01*
X0216658Y0119846D01*
X0216535Y0120133D01*
X0216420Y0120423D01*
X0216312Y0120716D01*
X0216210Y0121011D01*
X0216116Y0121309D01*
X0216030Y0121609D01*
X0215951Y0121910D01*
X0215879Y0122214D01*
X0215814Y0122519D01*
X0215757Y0122826D01*
X0215708Y0123134D01*
X0215666Y0123444D01*
X0215632Y0123754D01*
X0215605Y0124065D01*
X0215586Y0124376D01*
X0215575Y0124688D01*
X0215571Y0125000D01*
X0215575Y0125312D01*
X0215586Y0125624D01*
X0215605Y0125935D01*
X0215632Y0126246D01*
X0215666Y0126556D01*
X0215708Y0126866D01*
X0215757Y0127174D01*
X0215814Y0127481D01*
X0215879Y0127786D01*
X0215951Y0128090D01*
X0216030Y0128391D01*
X0216116Y0128691D01*
X0216210Y0128989D01*
X0216312Y0129284D01*
X0216420Y0129577D01*
X0216535Y0129867D01*
X0216658Y0130154D01*
X0216787Y0130438D01*
X0216924Y0130718D01*
X0217067Y0130995D01*
X0217217Y0131269D01*
X0217374Y0131539D01*
X0217537Y0131805D01*
X0217706Y0132067D01*
X0217882Y0132325D01*
X0218065Y0132578D01*
X0218253Y0132827D01*
X0218447Y0133071D01*
X0218648Y0133310D01*
X0218854Y0133545D01*
X0219065Y0133774D01*
X0219283Y0133998D01*
X0219505Y0134216D01*
X0219733Y0134429D01*
X0219966Y0134637D01*
X0220205Y0134839D01*
X0220448Y0135034D01*
X0220695Y0135224D01*
X0220948Y0135408D01*
X0221204Y0135585D01*
X0221465Y0135756D01*
X0221730Y0135921D01*
X0221999Y0136079D01*
X0222272Y0136231D01*
X0222548Y0136376D01*
X0222828Y0136514D01*
X0223111Y0136645D01*
X0223398Y0136769D01*
X0223687Y0136886D01*
X0223979Y0136996D01*
X0224274Y0137099D01*
X0224571Y0137195D01*
X0224870Y0137283D01*
X0225171Y0137364D01*
X0225475Y0137438D01*
X0225779Y0137504D01*
X0226086Y0137563D01*
X0226394Y0137614D01*
X0226703Y0137657D01*
X0227013Y0137694D01*
X0227324Y0137722D01*
X0227635Y0137743D01*
X0227947Y0137756D01*
X0228259Y0137762D01*
X0228571Y0137760D01*
X0228883Y0137750D01*
X0229194Y0137733D01*
X0229505Y0137708D01*
X0229816Y0137676D01*
X0230125Y0137636D01*
X0230434Y0137588D01*
X0230741Y0137533D01*
X0231046Y0137470D01*
X0231350Y0137400D01*
X0231653Y0137323D01*
X0231953Y0137238D01*
X0232251Y0137146D01*
X0232547Y0137046D01*
X0232840Y0136940D01*
X0233131Y0136826D01*
X0233419Y0136705D01*
X0233703Y0136577D01*
X0233985Y0136442D01*
X0234263Y0136301D01*
X0234537Y0136152D01*
X0234808Y0135997D01*
X0235075Y0135836D01*
X0235338Y0135668D01*
X0235597Y0135493D01*
X0235851Y0135312D01*
X0236101Y0135126D01*
X0236346Y0134933D01*
X0236587Y0134734D01*
X0236822Y0134529D01*
X0237053Y0134319D01*
X0237278Y0134103D01*
X0237498Y0133881D01*
X0237712Y0133654D01*
X0237921Y0133423D01*
X0238124Y0133186D01*
X0238321Y0132944D01*
X0238513Y0132697D01*
X0238437Y0132641D01*
X0238247Y0132886D01*
X0238052Y0133126D01*
X0237850Y0133361D01*
X0237643Y0133591D01*
X0237430Y0133816D01*
X0237212Y0134036D01*
X0236988Y0134250D01*
X0236759Y0134459D01*
X0236526Y0134662D01*
X0236287Y0134860D01*
X0236044Y0135051D01*
X0235795Y0135237D01*
X0235543Y0135416D01*
X0235286Y0135589D01*
X0235025Y0135756D01*
X0234760Y0135917D01*
X0234491Y0136070D01*
X0234219Y0136218D01*
X0233943Y0136358D01*
X0233663Y0136492D01*
X0233381Y0136619D01*
X0233095Y0136739D01*
X0232807Y0136852D01*
X0232516Y0136958D01*
X0232222Y0137056D01*
X0231926Y0137148D01*
X0231628Y0137232D01*
X0231328Y0137309D01*
X0231026Y0137378D01*
X0230723Y0137441D01*
X0230418Y0137495D01*
X0230112Y0137543D01*
X0229804Y0137582D01*
X0229496Y0137614D01*
X0229188Y0137639D01*
X0228878Y0137656D01*
X0228569Y0137666D01*
X0228259Y0137668D01*
X0227949Y0137662D01*
X0227640Y0137649D01*
X0227331Y0137628D01*
X0227022Y0137600D01*
X0226715Y0137564D01*
X0226408Y0137521D01*
X0226102Y0137470D01*
X0225798Y0137412D01*
X0225495Y0137346D01*
X0225194Y0137273D01*
X0224895Y0137193D01*
X0224598Y0137105D01*
X0224303Y0137010D01*
X0224011Y0136908D01*
X0223721Y0136799D01*
X0223434Y0136682D01*
X0223150Y0136559D01*
X0222869Y0136429D01*
X0222591Y0136292D01*
X0222317Y0136148D01*
X0222046Y0135998D01*
X0221779Y0135841D01*
X0221516Y0135677D01*
X0221257Y0135507D01*
X0221002Y0135331D01*
X0220751Y0135149D01*
X0220506Y0134960D01*
X0220264Y0134766D01*
X0220028Y0134566D01*
X0219797Y0134360D01*
X0219570Y0134148D01*
X0219349Y0133931D01*
X0219134Y0133709D01*
X0218923Y0133482D01*
X0218719Y0133249D01*
X0218520Y0133011D01*
X0218327Y0132769D01*
X0218140Y0132522D01*
X0217959Y0132271D01*
X0217785Y0132015D01*
X0217616Y0131755D01*
X0217454Y0131491D01*
X0217299Y0131223D01*
X0217150Y0130951D01*
X0217008Y0130676D01*
X0216872Y0130397D01*
X0216744Y0130116D01*
X0216622Y0129831D01*
X0216508Y0129543D01*
X0216400Y0129252D01*
X0216300Y0128959D01*
X0216206Y0128664D01*
X0216120Y0128366D01*
X0216042Y0128067D01*
X0215971Y0127765D01*
X0215907Y0127462D01*
X0215850Y0127158D01*
X0215801Y0126852D01*
X0215760Y0126545D01*
X0215726Y0126237D01*
X0215699Y0125928D01*
X0215680Y0125619D01*
X0215669Y0125310D01*
X0215665Y0125000D01*
X0215669Y0124690D01*
X0215680Y0124381D01*
X0215699Y0124072D01*
X0215726Y0123763D01*
X0215760Y0123455D01*
X0215801Y0123148D01*
X0215850Y0122842D01*
X0215907Y0122538D01*
X0215971Y0122235D01*
X0216042Y0121933D01*
X0216120Y0121634D01*
X0216206Y0121336D01*
X0216300Y0121041D01*
X0216400Y0120748D01*
X0216508Y0120457D01*
X0216622Y0120169D01*
X0216744Y0119884D01*
X0216872Y0119603D01*
X0217008Y0119324D01*
X0217150Y0119049D01*
X0217299Y0118777D01*
X0217454Y0118509D01*
X0217616Y0118245D01*
X0217785Y0117985D01*
X0217959Y0117729D01*
X0218140Y0117478D01*
X0218327Y0117231D01*
X0218520Y0116989D01*
X0218719Y0116751D01*
X0218923Y0116518D01*
X0219134Y0116291D01*
X0219349Y0116069D01*
X0219570Y0115852D01*
X0219797Y0115640D01*
X0220028Y0115434D01*
X0220264Y0115234D01*
X0220506Y0115040D01*
X0220751Y0114851D01*
X0221002Y0114669D01*
X0221257Y0114493D01*
X0221516Y0114323D01*
X0221779Y0114159D01*
X0222046Y0114002D01*
X0222317Y0113852D01*
X0222591Y0113708D01*
X0222869Y0113571D01*
X0223150Y0113441D01*
X0223434Y0113318D01*
X0223721Y0113201D01*
X0224011Y0113092D01*
X0224303Y0112990D01*
X0224598Y0112895D01*
X0224895Y0112807D01*
X0225194Y0112727D01*
X0225495Y0112654D01*
X0225798Y0112588D01*
X0226102Y0112530D01*
X0226408Y0112479D01*
X0226715Y0112436D01*
X0227022Y0112400D01*
X0227331Y0112372D01*
X0227640Y0112351D01*
X0227949Y0112338D01*
X0228259Y0112332D01*
X0228569Y0112334D01*
X0228878Y0112344D01*
X0229188Y0112361D01*
X0229496Y0112386D01*
X0229804Y0112418D01*
X0230112Y0112457D01*
X0230418Y0112505D01*
X0230723Y0112559D01*
X0231026Y0112622D01*
X0231328Y0112691D01*
X0231628Y0112768D01*
X0231926Y0112852D01*
X0232222Y0112944D01*
X0232516Y0113042D01*
X0232807Y0113148D01*
X0233095Y0113261D01*
X0233381Y0113381D01*
X0233663Y0113508D01*
X0233943Y0113642D01*
X0234219Y0113782D01*
X0234491Y0113930D01*
X0234760Y0114083D01*
X0235025Y0114244D01*
X0235286Y0114411D01*
X0235543Y0114584D01*
X0235795Y0114763D01*
X0236044Y0114949D01*
X0236287Y0115140D01*
X0236526Y0115338D01*
X0236759Y0115541D01*
X0236988Y0115750D01*
X0237212Y0115964D01*
X0237430Y0116184D01*
X0237643Y0116409D01*
X0237850Y0116639D01*
X0238052Y0116874D01*
X0238247Y0117114D01*
X0238437Y0117359D01*
X0238362Y0117416D01*
X0238174Y0117173D01*
X0237979Y0116934D01*
X0237779Y0116701D01*
X0237574Y0116473D01*
X0237362Y0116249D01*
X0237146Y0116031D01*
X0236924Y0115818D01*
X0236697Y0115611D01*
X0236465Y0115409D01*
X0236228Y0115213D01*
X0235986Y0115023D01*
X0235740Y0114839D01*
X0235489Y0114661D01*
X0235234Y0114489D01*
X0234975Y0114324D01*
X0234712Y0114164D01*
X0234445Y0114012D01*
X0234175Y0113865D01*
X0233901Y0113726D01*
X0233624Y0113593D01*
X0233343Y0113467D01*
X0233060Y0113348D01*
X0232773Y0113236D01*
X0232484Y0113131D01*
X0232193Y0113033D01*
X0231899Y0112942D01*
X0231603Y0112859D01*
X0231306Y0112782D01*
X0231006Y0112713D01*
X0230705Y0112652D01*
X0230402Y0112597D01*
X0230098Y0112551D01*
X0229793Y0112511D01*
X0229488Y0112479D01*
X0229181Y0112455D01*
X0228874Y0112438D01*
X0228567Y0112428D01*
X0228259Y0112426D01*
X0227952Y0112432D01*
X0227645Y0112445D01*
X0227338Y0112465D01*
X0227032Y0112494D01*
X0226726Y0112529D01*
X0226422Y0112572D01*
X0226119Y0112623D01*
X0225817Y0112680D01*
X0225516Y0112746D01*
X0225217Y0112818D01*
X0224921Y0112898D01*
X0224626Y0112985D01*
X0224333Y0113079D01*
X0224043Y0113181D01*
X0223755Y0113289D01*
X0223470Y0113404D01*
X0223188Y0113527D01*
X0222909Y0113656D01*
X0222633Y0113792D01*
X0222361Y0113935D01*
X0222092Y0114084D01*
X0221827Y0114240D01*
X0221566Y0114402D01*
X0221309Y0114571D01*
X0221056Y0114746D01*
X0220808Y0114927D01*
X0220564Y0115114D01*
X0220324Y0115307D01*
X0220090Y0115505D01*
X0219860Y0115710D01*
X0219635Y0115920D01*
X0219416Y0116135D01*
X0219202Y0116356D01*
X0218993Y0116581D01*
X0218790Y0116812D01*
X0218593Y0117048D01*
X0218401Y0117289D01*
X0218216Y0117534D01*
X0218036Y0117783D01*
X0217863Y0118037D01*
X0217696Y0118295D01*
X0217535Y0118557D01*
X0217381Y0118823D01*
X0217233Y0119093D01*
X0217092Y0119366D01*
X0216957Y0119643D01*
X0216830Y0119922D01*
X0216709Y0120205D01*
X0216595Y0120491D01*
X0216489Y0120779D01*
X0216389Y0121070D01*
X0216296Y0121363D01*
X0216211Y0121659D01*
X0216133Y0121956D01*
X0216062Y0122255D01*
X0215999Y0122556D01*
X0215943Y0122858D01*
X0215894Y0123162D01*
X0215853Y0123467D01*
X0215819Y0123772D01*
X0215793Y0124078D01*
X0215774Y0124385D01*
X0215763Y0124693D01*
X0215759Y0125000D01*
X0215763Y0125307D01*
X0215774Y0125615D01*
X0215793Y0125922D01*
X0215819Y0126228D01*
X0215853Y0126533D01*
X0215894Y0126838D01*
X0215943Y0127142D01*
X0215999Y0127444D01*
X0216062Y0127745D01*
X0216133Y0128044D01*
X0216211Y0128341D01*
X0216296Y0128637D01*
X0216389Y0128930D01*
X0216489Y0129221D01*
X0216595Y0129509D01*
X0216709Y0129795D01*
X0216830Y0130078D01*
X0216957Y0130357D01*
X0217092Y0130634D01*
X0217233Y0130907D01*
X0217381Y0131177D01*
X0217535Y0131443D01*
X0217696Y0131705D01*
X0217863Y0131963D01*
X0218036Y0132217D01*
X0218216Y0132466D01*
X0218401Y0132711D01*
X0218593Y0132952D01*
X0218790Y0133188D01*
X0218993Y0133419D01*
X0219202Y0133644D01*
X0219416Y0133865D01*
X0219635Y0134080D01*
X0219860Y0134290D01*
X0220090Y0134495D01*
X0220324Y0134693D01*
X0220564Y0134886D01*
X0220808Y0135073D01*
X0221056Y0135254D01*
X0221309Y0135429D01*
X0221566Y0135598D01*
X0221827Y0135760D01*
X0222092Y0135916D01*
X0222361Y0136065D01*
X0222633Y0136208D01*
X0222909Y0136344D01*
X0223188Y0136473D01*
X0223470Y0136596D01*
X0223755Y0136711D01*
X0224043Y0136819D01*
X0224333Y0136921D01*
X0224626Y0137015D01*
X0224921Y0137102D01*
X0225217Y0137182D01*
X0225516Y0137254D01*
X0225817Y0137320D01*
X0226119Y0137377D01*
X0226422Y0137428D01*
X0226726Y0137471D01*
X0227032Y0137506D01*
X0227338Y0137535D01*
X0227645Y0137555D01*
X0227952Y0137568D01*
X0228259Y0137574D01*
X0228567Y0137572D01*
X0228874Y0137562D01*
X0229181Y0137545D01*
X0229488Y0137521D01*
X0229793Y0137489D01*
X0230098Y0137449D01*
X0230402Y0137403D01*
X0230705Y0137348D01*
X0231006Y0137287D01*
X0231306Y0137218D01*
X0231603Y0137141D01*
X0231899Y0137058D01*
X0232193Y0136967D01*
X0232484Y0136869D01*
X0232773Y0136764D01*
X0233060Y0136652D01*
X0233343Y0136533D01*
X0233624Y0136407D01*
X0233901Y0136274D01*
X0234175Y0136135D01*
X0234445Y0135988D01*
X0234712Y0135836D01*
X0234975Y0135676D01*
X0235234Y0135511D01*
X0235489Y0135339D01*
X0235740Y0135161D01*
X0235986Y0134977D01*
X0236228Y0134787D01*
X0236465Y0134591D01*
X0236697Y0134389D01*
X0236924Y0134182D01*
X0237146Y0133969D01*
X0237362Y0133751D01*
X0237574Y0133527D01*
X0237779Y0133299D01*
X0237979Y0133066D01*
X0238174Y0132827D01*
X0238362Y0132584D01*
X0238287Y0132528D01*
X0238100Y0132769D01*
X0237907Y0133006D01*
X0237708Y0133237D01*
X0237504Y0133464D01*
X0237295Y0133686D01*
X0237080Y0133902D01*
X0236859Y0134113D01*
X0236634Y0134319D01*
X0236404Y0134519D01*
X0236168Y0134714D01*
X0235929Y0134902D01*
X0235684Y0135085D01*
X0235435Y0135262D01*
X0235182Y0135432D01*
X0234925Y0135597D01*
X0234664Y0135755D01*
X0234399Y0135906D01*
X0234131Y0136051D01*
X0233859Y0136190D01*
X0233584Y0136322D01*
X0233305Y0136447D01*
X0233024Y0136565D01*
X0232740Y0136676D01*
X0232453Y0136780D01*
X0232164Y0136878D01*
X0231872Y0136968D01*
X0231579Y0137051D01*
X0231283Y0137126D01*
X0230986Y0137195D01*
X0230687Y0137256D01*
X0230386Y0137310D01*
X0230085Y0137356D01*
X0229782Y0137396D01*
X0229479Y0137427D01*
X0229174Y0137452D01*
X0228870Y0137468D01*
X0228565Y0137478D01*
X0228260Y0137480D01*
X0227955Y0137474D01*
X0227650Y0137461D01*
X0227345Y0137441D01*
X0227041Y0137413D01*
X0226738Y0137378D01*
X0226436Y0137335D01*
X0226135Y0137285D01*
X0225835Y0137228D01*
X0225537Y0137163D01*
X0225241Y0137091D01*
X0224946Y0137012D01*
X0224653Y0136925D01*
X0224363Y0136832D01*
X0224075Y0136731D01*
X0223789Y0136623D01*
X0223506Y0136509D01*
X0223226Y0136387D01*
X0222949Y0136259D01*
X0222676Y0136124D01*
X0222406Y0135983D01*
X0222139Y0135834D01*
X0221876Y0135680D01*
X0221617Y0135519D01*
X0221361Y0135351D01*
X0221110Y0135178D01*
X0220864Y0134998D01*
X0220622Y0134812D01*
X0220384Y0134621D01*
X0220151Y0134424D01*
X0219923Y0134221D01*
X0219700Y0134012D01*
X0219482Y0133799D01*
X0219270Y0133580D01*
X0219063Y0133356D01*
X0218861Y0133126D01*
X0218665Y0132892D01*
X0218475Y0132654D01*
X0218291Y0132410D01*
X0218113Y0132163D01*
X0217941Y0131911D01*
X0217775Y0131654D01*
X0217616Y0131394D01*
X0217462Y0131130D01*
X0217316Y0130863D01*
X0217176Y0130592D01*
X0217042Y0130317D01*
X0216916Y0130040D01*
X0216796Y0129759D01*
X0216683Y0129475D01*
X0216577Y0129189D01*
X0216478Y0128901D01*
X0216386Y0128610D01*
X0216302Y0128316D01*
X0216224Y0128021D01*
X0216154Y0127724D01*
X0216091Y0127426D01*
X0216035Y0127126D01*
X0215987Y0126824D01*
X0215946Y0126522D01*
X0215913Y0126219D01*
X0215887Y0125915D01*
X0215868Y0125610D01*
X0215857Y0125305D01*
X0215853Y0125000D01*
X0215857Y0124695D01*
X0215868Y0124390D01*
X0215887Y0124085D01*
X0215913Y0123781D01*
X0215946Y0123478D01*
X0215987Y0123176D01*
X0216035Y0122874D01*
X0216091Y0122574D01*
X0216154Y0122276D01*
X0216224Y0121979D01*
X0216302Y0121684D01*
X0216386Y0121390D01*
X0216478Y0121099D01*
X0216577Y0120811D01*
X0216683Y0120525D01*
X0216796Y0120241D01*
X0216916Y0119960D01*
X0217042Y0119683D01*
X0217176Y0119408D01*
X0217316Y0119137D01*
X0217462Y0118870D01*
X0217616Y0118606D01*
X0217775Y0118346D01*
X0217941Y0118089D01*
X0218113Y0117837D01*
X0218291Y0117590D01*
X0218475Y0117346D01*
X0218665Y0117108D01*
X0218861Y0116874D01*
X0219063Y0116644D01*
X0219270Y0116420D01*
X0219482Y0116201D01*
X0219700Y0115988D01*
X0219923Y0115779D01*
X0220151Y0115576D01*
X0220384Y0115379D01*
X0220622Y0115188D01*
X0220864Y0115002D01*
X0221110Y0114822D01*
X0221361Y0114649D01*
X0221617Y0114481D01*
X0221876Y0114320D01*
X0222139Y0114166D01*
X0222406Y0114017D01*
X0222676Y0113876D01*
X0222949Y0113741D01*
X0223226Y0113613D01*
X0223506Y0113491D01*
X0223789Y0113377D01*
X0224075Y0113269D01*
X0224363Y0113168D01*
X0224653Y0113075D01*
X0224946Y0112988D01*
X0225241Y0112909D01*
X0225537Y0112837D01*
X0225835Y0112772D01*
X0226135Y0112715D01*
X0226436Y0112665D01*
X0226738Y0112622D01*
X0227041Y0112587D01*
X0227345Y0112559D01*
X0227650Y0112539D01*
X0227955Y0112526D01*
X0228260Y0112520D01*
X0228565Y0112522D01*
X0228870Y0112532D01*
X0229174Y0112548D01*
X0229479Y0112573D01*
X0229782Y0112604D01*
X0230085Y0112644D01*
X0230386Y0112690D01*
X0230687Y0112744D01*
X0230986Y0112805D01*
X0231283Y0112874D01*
X0231579Y0112949D01*
X0231872Y0113032D01*
X0232164Y0113122D01*
X0232453Y0113220D01*
X0232740Y0113324D01*
X0233024Y0113435D01*
X0233305Y0113553D01*
X0233584Y0113678D01*
X0233859Y0113810D01*
X0234131Y0113949D01*
X0234399Y0114094D01*
X0234664Y0114245D01*
X0234925Y0114403D01*
X0235182Y0114568D01*
X0235435Y0114738D01*
X0235684Y0114915D01*
X0235929Y0115098D01*
X0236168Y0115286D01*
X0236404Y0115481D01*
X0236634Y0115681D01*
X0236859Y0115887D01*
X0237080Y0116098D01*
X0237295Y0116314D01*
X0237504Y0116536D01*
X0237708Y0116763D01*
X0237907Y0116994D01*
X0238100Y0117231D01*
X0238287Y0117472D01*
X0238212Y0117528D01*
X0238026Y0117289D01*
X0237835Y0117054D01*
X0237638Y0116825D01*
X0237435Y0116600D01*
X0237227Y0116379D01*
X0237013Y0116165D01*
X0236795Y0115955D01*
X0236571Y0115751D01*
X0236343Y0115552D01*
X0236109Y0115359D01*
X0235871Y0115172D01*
X0235629Y0114991D01*
X0235382Y0114815D01*
X0235131Y0114646D01*
X0234875Y0114483D01*
X0234616Y0114326D01*
X0234353Y0114176D01*
X0234087Y0114032D01*
X0233817Y0113894D01*
X0233544Y0113763D01*
X0233268Y0113639D01*
X0232988Y0113522D01*
X0232706Y0113412D01*
X0232422Y0113308D01*
X0232135Y0113212D01*
X0231845Y0113122D01*
X0231554Y0113040D01*
X0231261Y0112965D01*
X0230965Y0112897D01*
X0230669Y0112836D01*
X0230371Y0112783D01*
X0230071Y0112737D01*
X0229771Y0112698D01*
X0229470Y0112666D01*
X0229168Y0112642D01*
X0228865Y0112625D01*
X0228563Y0112616D01*
X0228260Y0112614D01*
X0227957Y0112620D01*
X0227655Y0112633D01*
X0227352Y0112653D01*
X0227051Y0112681D01*
X0226750Y0112716D01*
X0226450Y0112758D01*
X0226151Y0112808D01*
X0225854Y0112865D01*
X0225558Y0112929D01*
X0225264Y0113000D01*
X0224971Y0113079D01*
X0224681Y0113165D01*
X0224392Y0113258D01*
X0224107Y0113357D01*
X0223823Y0113464D01*
X0223543Y0113578D01*
X0223265Y0113698D01*
X0222990Y0113826D01*
X0222718Y0113960D01*
X0222450Y0114100D01*
X0222185Y0114247D01*
X0221924Y0114401D01*
X0221667Y0114561D01*
X0221414Y0114727D01*
X0221165Y0114899D01*
X0220920Y0115077D01*
X0220679Y0115262D01*
X0220444Y0115452D01*
X0220213Y0115647D01*
X0219986Y0115849D01*
X0219765Y0116055D01*
X0219549Y0116268D01*
X0219338Y0116485D01*
X0219133Y0116707D01*
X0218933Y0116935D01*
X0218738Y0117167D01*
X0218550Y0117404D01*
X0218367Y0117646D01*
X0218190Y0117891D01*
X0218019Y0118142D01*
X0217855Y0118396D01*
X0217696Y0118654D01*
X0217544Y0118916D01*
X0217399Y0119181D01*
X0217260Y0119450D01*
X0217127Y0119723D01*
X0217002Y0119998D01*
X0216883Y0120277D01*
X0216771Y0120558D01*
X0216666Y0120842D01*
X0216567Y0121129D01*
X0216476Y0121418D01*
X0216392Y0121709D01*
X0216315Y0122002D01*
X0216246Y0122296D01*
X0216183Y0122593D01*
X0216128Y0122890D01*
X0216080Y0123189D01*
X0216039Y0123489D01*
X0216006Y0123791D01*
X0215980Y0124092D01*
X0215962Y0124395D01*
X0215951Y0124697D01*
X0215947Y0125000D01*
X0215951Y0125303D01*
X0215962Y0125605D01*
X0215980Y0125908D01*
X0216006Y0126209D01*
X0216039Y0126511D01*
X0216080Y0126811D01*
X0216128Y0127110D01*
X0216183Y0127407D01*
X0216246Y0127704D01*
X0216315Y0127998D01*
X0216392Y0128291D01*
X0216476Y0128582D01*
X0216567Y0128871D01*
X0216666Y0129158D01*
X0216771Y0129442D01*
X0216883Y0129723D01*
X0217002Y0130002D01*
X0217127Y0130277D01*
X0217260Y0130550D01*
X0217399Y0130819D01*
X0217544Y0131084D01*
X0217696Y0131346D01*
X0217855Y0131604D01*
X0218019Y0131858D01*
X0218190Y0132109D01*
X0218367Y0132354D01*
X0218550Y0132596D01*
X0218738Y0132833D01*
X0218933Y0133065D01*
X0219133Y0133293D01*
X0219338Y0133515D01*
X0219549Y0133732D01*
X0219765Y0133945D01*
X0219986Y0134151D01*
X0220213Y0134353D01*
X0220444Y0134548D01*
X0220679Y0134738D01*
X0220920Y0134923D01*
X0221165Y0135101D01*
X0221414Y0135273D01*
X0221667Y0135439D01*
X0221924Y0135599D01*
X0222185Y0135753D01*
X0222450Y0135900D01*
X0222718Y0136040D01*
X0222990Y0136174D01*
X0223265Y0136302D01*
X0223543Y0136422D01*
X0223823Y0136536D01*
X0224107Y0136643D01*
X0224392Y0136742D01*
X0224681Y0136835D01*
X0224971Y0136921D01*
X0225264Y0137000D01*
X0225558Y0137071D01*
X0225854Y0137135D01*
X0226151Y0137192D01*
X0226450Y0137242D01*
X0226750Y0137284D01*
X0227051Y0137319D01*
X0227352Y0137347D01*
X0227655Y0137367D01*
X0227957Y0137380D01*
X0228260Y0137386D01*
X0228563Y0137384D01*
X0228865Y0137375D01*
X0229168Y0137358D01*
X0229470Y0137334D01*
X0229771Y0137302D01*
X0230071Y0137263D01*
X0230371Y0137217D01*
X0230669Y0137164D01*
X0230965Y0137103D01*
X0231261Y0137035D01*
X0231554Y0136960D01*
X0231845Y0136878D01*
X0232135Y0136788D01*
X0232422Y0136692D01*
X0232706Y0136588D01*
X0232988Y0136478D01*
X0233268Y0136361D01*
X0233544Y0136237D01*
X0233817Y0136106D01*
X0234087Y0135968D01*
X0234353Y0135824D01*
X0234616Y0135674D01*
X0234875Y0135517D01*
X0235131Y0135354D01*
X0235382Y0135185D01*
X0235629Y0135009D01*
X0235871Y0134828D01*
X0236109Y0134641D01*
X0236343Y0134448D01*
X0236571Y0134249D01*
X0236795Y0134045D01*
X0237013Y0133835D01*
X0237227Y0133621D01*
X0237435Y0133400D01*
X0237638Y0133175D01*
X0237835Y0132946D01*
X0238026Y0132711D01*
X0238212Y0132472D01*
X0238137Y0132415D01*
X0237952Y0132653D01*
X0237762Y0132885D01*
X0237567Y0133114D01*
X0237366Y0133337D01*
X0237159Y0133555D01*
X0236947Y0133769D01*
X0236730Y0133977D01*
X0236508Y0134179D01*
X0236281Y0134376D01*
X0236050Y0134568D01*
X0235814Y0134754D01*
X0235573Y0134934D01*
X0235328Y0135108D01*
X0235079Y0135276D01*
X0234825Y0135438D01*
X0234568Y0135593D01*
X0234307Y0135742D01*
X0234043Y0135885D01*
X0233775Y0136022D01*
X0233504Y0136151D01*
X0233230Y0136274D01*
X0232953Y0136391D01*
X0232673Y0136500D01*
X0232390Y0136603D01*
X0232106Y0136699D01*
X0231818Y0136787D01*
X0231529Y0136869D01*
X0231238Y0136944D01*
X0230945Y0137011D01*
X0230651Y0137072D01*
X0230355Y0137125D01*
X0230058Y0137170D01*
X0229760Y0137209D01*
X0229461Y0137240D01*
X0229161Y0137264D01*
X0228861Y0137281D01*
X0228561Y0137290D01*
X0228260Y0137292D01*
X0227960Y0137286D01*
X0227659Y0137274D01*
X0227360Y0137253D01*
X0227060Y0137226D01*
X0226762Y0137191D01*
X0226464Y0137149D01*
X0226168Y0137100D01*
X0225873Y0137043D01*
X0225579Y0136979D01*
X0225287Y0136909D01*
X0224997Y0136831D01*
X0224708Y0136745D01*
X0224422Y0136653D01*
X0224138Y0136554D01*
X0223857Y0136448D01*
X0223579Y0136335D01*
X0223303Y0136216D01*
X0223030Y0136089D01*
X0222761Y0135956D01*
X0222495Y0135817D01*
X0222232Y0135671D01*
X0221973Y0135519D01*
X0221717Y0135360D01*
X0221466Y0135195D01*
X0221219Y0135024D01*
X0220976Y0134847D01*
X0220737Y0134664D01*
X0220503Y0134476D01*
X0220274Y0134282D01*
X0220050Y0134082D01*
X0219830Y0133877D01*
X0219616Y0133666D01*
X0219406Y0133450D01*
X0219202Y0133230D01*
X0219004Y0133004D01*
X0218811Y0132773D01*
X0218624Y0132538D01*
X0218442Y0132299D01*
X0218267Y0132055D01*
X0218097Y0131806D01*
X0217934Y0131554D01*
X0217777Y0131298D01*
X0217626Y0131038D01*
X0217482Y0130774D01*
X0217344Y0130507D01*
X0217212Y0130237D01*
X0217088Y0129964D01*
X0216970Y0129687D01*
X0216859Y0129408D01*
X0216754Y0129126D01*
X0216657Y0128842D01*
X0216566Y0128555D01*
X0216483Y0128266D01*
X0216407Y0127976D01*
X0216337Y0127683D01*
X0216275Y0127389D01*
X0216221Y0127094D01*
X0216173Y0126797D01*
X0216133Y0126499D01*
X0216100Y0126200D01*
X0216074Y0125901D01*
X0216056Y0125601D01*
X0216045Y0125301D01*
X0216041Y0125000D01*
X0216045Y0124699D01*
X0216056Y0124399D01*
X0216074Y0124099D01*
X0216100Y0123800D01*
X0216133Y0123501D01*
X0216173Y0123203D01*
X0216221Y0122906D01*
X0216275Y0122611D01*
X0216337Y0122317D01*
X0216407Y0122024D01*
X0216483Y0121734D01*
X0216566Y0121445D01*
X0216657Y0121158D01*
X0216754Y0120874D01*
X0216859Y0120592D01*
X0216970Y0120313D01*
X0217088Y0120036D01*
X0217212Y0119763D01*
X0217344Y0119493D01*
X0217482Y0119226D01*
X0217626Y0118962D01*
X0217777Y0118702D01*
X0217934Y0118446D01*
X0218097Y0118194D01*
X0218267Y0117945D01*
X0218442Y0117701D01*
X0218624Y0117462D01*
X0218811Y0117227D01*
X0219004Y0116996D01*
X0219202Y0116770D01*
X0219406Y0116550D01*
X0219616Y0116334D01*
X0219830Y0116123D01*
X0220050Y0115918D01*
X0220274Y0115718D01*
X0220503Y0115524D01*
X0220737Y0115336D01*
X0220976Y0115153D01*
X0221219Y0114976D01*
X0221466Y0114805D01*
X0221717Y0114640D01*
X0221973Y0114481D01*
X0222232Y0114329D01*
X0222495Y0114183D01*
X0222761Y0114044D01*
X0223030Y0113911D01*
X0223303Y0113784D01*
X0223579Y0113665D01*
X0223857Y0113552D01*
X0224138Y0113446D01*
X0224422Y0113347D01*
X0224708Y0113255D01*
X0224997Y0113169D01*
X0225287Y0113091D01*
X0225579Y0113021D01*
X0225873Y0112957D01*
X0226168Y0112900D01*
X0226464Y0112851D01*
X0226762Y0112809D01*
X0227060Y0112774D01*
X0227360Y0112747D01*
X0227659Y0112726D01*
X0227960Y0112714D01*
X0228260Y0112708D01*
X0228561Y0112710D01*
X0228861Y0112719D01*
X0229161Y0112736D01*
X0229461Y0112760D01*
X0229760Y0112791D01*
X0230058Y0112830D01*
X0230355Y0112875D01*
X0230651Y0112928D01*
X0230945Y0112989D01*
X0231238Y0113056D01*
X0231529Y0113131D01*
X0231818Y0113213D01*
X0232106Y0113301D01*
X0232390Y0113397D01*
X0232673Y0113500D01*
X0232953Y0113609D01*
X0233230Y0113726D01*
X0233504Y0113849D01*
X0233775Y0113978D01*
X0234043Y0114115D01*
X0234307Y0114258D01*
X0234568Y0114407D01*
X0234825Y0114562D01*
X0235079Y0114724D01*
X0235328Y0114892D01*
X0235573Y0115066D01*
X0235814Y0115246D01*
X0236050Y0115432D01*
X0236281Y0115624D01*
X0236508Y0115821D01*
X0236730Y0116023D01*
X0236947Y0116231D01*
X0237159Y0116445D01*
X0237366Y0116663D01*
X0237567Y0116886D01*
X0237762Y0117115D01*
X0237952Y0117347D01*
X0238137Y0117585D01*
X0238061Y0117641D01*
X0237879Y0117406D01*
X0237690Y0117175D01*
X0237496Y0116948D01*
X0237296Y0116726D01*
X0237091Y0116510D01*
X0236881Y0116298D01*
X0236666Y0116092D01*
X0236446Y0115891D01*
X0236220Y0115695D01*
X0235991Y0115505D01*
X0235756Y0115321D01*
X0235517Y0115142D01*
X0235274Y0114969D01*
X0235027Y0114803D01*
X0234775Y0114642D01*
X0234520Y0114488D01*
X0234261Y0114340D01*
X0233999Y0114198D01*
X0233733Y0114063D01*
X0233464Y0113934D01*
X0233192Y0113812D01*
X0232917Y0113696D01*
X0232639Y0113587D01*
X0232359Y0113486D01*
X0232076Y0113391D01*
X0231791Y0113303D01*
X0231504Y0113222D01*
X0231216Y0113147D01*
X0230925Y0113081D01*
X0230633Y0113021D01*
X0230339Y0112968D01*
X0230044Y0112923D01*
X0229749Y0112884D01*
X0229452Y0112853D01*
X0229155Y0112830D01*
X0228857Y0112813D01*
X0228559Y0112804D01*
X0228261Y0112802D01*
X0227962Y0112808D01*
X0227664Y0112820D01*
X0227367Y0112840D01*
X0227070Y0112868D01*
X0226774Y0112902D01*
X0226478Y0112944D01*
X0226184Y0112993D01*
X0225891Y0113049D01*
X0225600Y0113112D01*
X0225310Y0113183D01*
X0225022Y0113260D01*
X0224736Y0113344D01*
X0224452Y0113436D01*
X0224170Y0113534D01*
X0223891Y0113639D01*
X0223615Y0113751D01*
X0223341Y0113870D01*
X0223071Y0113995D01*
X0222803Y0114127D01*
X0222539Y0114266D01*
X0222278Y0114411D01*
X0222021Y0114562D01*
X0221768Y0114719D01*
X0221519Y0114883D01*
X0221273Y0115053D01*
X0221032Y0115228D01*
X0220795Y0115410D01*
X0220563Y0115597D01*
X0220336Y0115789D01*
X0220113Y0115988D01*
X0219895Y0116191D01*
X0219682Y0116400D01*
X0219474Y0116614D01*
X0219272Y0116834D01*
X0219075Y0117057D01*
X0218884Y0117286D01*
X0218698Y0117520D01*
X0218518Y0117757D01*
X0218344Y0117999D01*
X0218176Y0118246D01*
X0218014Y0118496D01*
X0217858Y0118750D01*
X0217708Y0119008D01*
X0217565Y0119270D01*
X0217428Y0119535D01*
X0217297Y0119803D01*
X0217174Y0120074D01*
X0217057Y0120349D01*
X0216946Y0120626D01*
X0216843Y0120906D01*
X0216746Y0121188D01*
X0216656Y0121472D01*
X0216574Y0121759D01*
X0216498Y0122047D01*
X0216429Y0122337D01*
X0216368Y0122629D01*
X0216313Y0122922D01*
X0216266Y0123217D01*
X0216226Y0123512D01*
X0216193Y0123809D01*
X0216168Y0124106D01*
X0216150Y0124404D01*
X0216139Y0124702D01*
X0216135Y0125000D01*
X0216139Y0125298D01*
X0216150Y0125596D01*
X0216168Y0125894D01*
X0216193Y0126191D01*
X0216226Y0126488D01*
X0216266Y0126783D01*
X0216313Y0127078D01*
X0216368Y0127371D01*
X0216429Y0127663D01*
X0216498Y0127953D01*
X0216574Y0128241D01*
X0216656Y0128528D01*
X0216746Y0128812D01*
X0216843Y0129094D01*
X0216946Y0129374D01*
X0217057Y0129651D01*
X0217174Y0129926D01*
X0217297Y0130197D01*
X0217428Y0130465D01*
X0217565Y0130730D01*
X0217708Y0130992D01*
X0217858Y0131250D01*
X0218014Y0131504D01*
X0218176Y0131754D01*
X0218344Y0132001D01*
X0218518Y0132243D01*
X0218698Y0132480D01*
X0218884Y0132714D01*
X0219075Y0132943D01*
X0219272Y0133166D01*
X0219474Y0133386D01*
X0219682Y0133600D01*
X0219895Y0133809D01*
X0220113Y0134012D01*
X0220336Y0134211D01*
X0220563Y0134403D01*
X0220795Y0134590D01*
X0221032Y0134772D01*
X0221273Y0134947D01*
X0221519Y0135117D01*
X0221768Y0135281D01*
X0222021Y0135438D01*
X0222278Y0135589D01*
X0222539Y0135734D01*
X0222803Y0135873D01*
X0223071Y0136005D01*
X0223341Y0136130D01*
X0223615Y0136249D01*
X0223891Y0136361D01*
X0224170Y0136466D01*
X0224452Y0136564D01*
X0224736Y0136656D01*
X0225022Y0136740D01*
X0225310Y0136817D01*
X0225600Y0136888D01*
X0225891Y0136951D01*
X0226184Y0137007D01*
X0226478Y0137056D01*
X0226774Y0137098D01*
X0227070Y0137132D01*
X0227367Y0137160D01*
X0227664Y0137180D01*
X0227962Y0137192D01*
X0228261Y0137198D01*
X0228559Y0137196D01*
X0228857Y0137187D01*
X0229155Y0137170D01*
X0229452Y0137147D01*
X0229749Y0137116D01*
X0230044Y0137077D01*
X0230339Y0137032D01*
X0230633Y0136979D01*
X0230925Y0136919D01*
X0231216Y0136853D01*
X0231504Y0136778D01*
X0231791Y0136697D01*
X0232076Y0136609D01*
X0232359Y0136514D01*
X0232639Y0136413D01*
X0232917Y0136304D01*
X0233192Y0136188D01*
X0233464Y0136066D01*
X0233733Y0135937D01*
X0233999Y0135802D01*
X0234261Y0135660D01*
X0234520Y0135512D01*
X0234775Y0135358D01*
X0235027Y0135197D01*
X0235274Y0135031D01*
X0235517Y0134858D01*
X0235756Y0134679D01*
X0235991Y0134495D01*
X0236220Y0134305D01*
X0236446Y0134109D01*
X0236666Y0133908D01*
X0236881Y0133702D01*
X0237091Y0133490D01*
X0237296Y0133274D01*
X0237496Y0133052D01*
X0237690Y0132825D01*
X0237879Y0132594D01*
X0238061Y0132359D01*
X0237986Y0132302D01*
X0237805Y0132536D01*
X0237618Y0132765D01*
X0237425Y0132990D01*
X0237227Y0133210D01*
X0237024Y0133425D01*
X0236815Y0133635D01*
X0236601Y0133840D01*
X0236383Y0134039D01*
X0236159Y0134233D01*
X0235931Y0134422D01*
X0235699Y0134605D01*
X0235462Y0134782D01*
X0235220Y0134953D01*
X0234975Y0135119D01*
X0234726Y0135278D01*
X0234472Y0135431D01*
X0234216Y0135578D01*
X0233955Y0135719D01*
X0233691Y0135853D01*
X0233424Y0135981D01*
X0233154Y0136102D01*
X0232882Y0136217D01*
X0232606Y0136325D01*
X0232328Y0136426D01*
X0232047Y0136520D01*
X0231765Y0136607D01*
X0231480Y0136688D01*
X0231193Y0136761D01*
X0230905Y0136828D01*
X0230615Y0136887D01*
X0230323Y0136939D01*
X0230031Y0136984D01*
X0229737Y0137022D01*
X0229443Y0137053D01*
X0229148Y0137077D01*
X0228853Y0137093D01*
X0228557Y0137102D01*
X0228261Y0137104D01*
X0227965Y0137098D01*
X0227669Y0137086D01*
X0227374Y0137066D01*
X0227079Y0137039D01*
X0226785Y0137005D01*
X0226492Y0136963D01*
X0226200Y0136915D01*
X0225910Y0136859D01*
X0225621Y0136796D01*
X0225333Y0136726D01*
X0225047Y0136649D01*
X0224763Y0136566D01*
X0224482Y0136475D01*
X0224202Y0136377D01*
X0223925Y0136273D01*
X0223651Y0136162D01*
X0223380Y0136044D01*
X0223111Y0135920D01*
X0222846Y0135789D01*
X0222584Y0135651D01*
X0222325Y0135508D01*
X0222070Y0135358D01*
X0221818Y0135201D01*
X0221571Y0135039D01*
X0221328Y0134871D01*
X0221088Y0134696D01*
X0220853Y0134516D01*
X0220623Y0134331D01*
X0220397Y0134139D01*
X0220176Y0133943D01*
X0219960Y0133741D01*
X0219749Y0133533D01*
X0219543Y0133321D01*
X0219342Y0133103D01*
X0219146Y0132881D01*
X0218956Y0132654D01*
X0218772Y0132423D01*
X0218594Y0132187D01*
X0218421Y0131947D01*
X0218254Y0131702D01*
X0218093Y0131454D01*
X0217938Y0131201D01*
X0217790Y0130945D01*
X0217648Y0130686D01*
X0217512Y0130423D01*
X0217382Y0130157D01*
X0217260Y0129888D01*
X0217143Y0129615D01*
X0217034Y0129340D01*
X0216931Y0129063D01*
X0216835Y0128783D01*
X0216746Y0128501D01*
X0216664Y0128216D01*
X0216589Y0127930D01*
X0216521Y0127642D01*
X0216460Y0127353D01*
X0216406Y0127062D01*
X0216359Y0126769D01*
X0216319Y0126476D01*
X0216287Y0126182D01*
X0216262Y0125887D01*
X0216243Y0125592D01*
X0216233Y0125296D01*
X0216229Y0125000D01*
X0216233Y0124704D01*
X0216243Y0124408D01*
X0216262Y0124113D01*
X0216287Y0123818D01*
X0216319Y0123524D01*
X0216359Y0123231D01*
X0216406Y0122938D01*
X0216460Y0122647D01*
X0216521Y0122358D01*
X0216589Y0122070D01*
X0216664Y0121784D01*
X0216746Y0121499D01*
X0216835Y0121217D01*
X0216931Y0120937D01*
X0217034Y0120660D01*
X0217143Y0120385D01*
X0217260Y0120112D01*
X0217382Y0119843D01*
X0217512Y0119577D01*
X0217648Y0119314D01*
X0217790Y0119055D01*
X0217938Y0118799D01*
X0218093Y0118546D01*
X0218254Y0118298D01*
X0218421Y0118053D01*
X0218594Y0117813D01*
X0218772Y0117577D01*
X0218956Y0117346D01*
X0219146Y0117119D01*
X0219342Y0116897D01*
X0219543Y0116679D01*
X0219749Y0116467D01*
X0219960Y0116259D01*
X0220176Y0116057D01*
X0220397Y0115861D01*
X0220623Y0115669D01*
X0220853Y0115484D01*
X0221088Y0115304D01*
X0221328Y0115129D01*
X0221571Y0114961D01*
X0221818Y0114799D01*
X0222070Y0114642D01*
X0222325Y0114492D01*
X0222584Y0114349D01*
X0222846Y0114211D01*
X0223111Y0114080D01*
X0223380Y0113956D01*
X0223651Y0113838D01*
X0223925Y0113727D01*
X0224202Y0113623D01*
X0224482Y0113525D01*
X0224763Y0113434D01*
X0225047Y0113351D01*
X0225333Y0113274D01*
X0225621Y0113204D01*
X0225910Y0113141D01*
X0226200Y0113085D01*
X0226492Y0113037D01*
X0226785Y0112995D01*
X0227079Y0112961D01*
X0227374Y0112934D01*
X0227669Y0112914D01*
X0227965Y0112902D01*
X0228261Y0112896D01*
X0228557Y0112898D01*
X0228853Y0112907D01*
X0229148Y0112923D01*
X0229443Y0112947D01*
X0229737Y0112978D01*
X0230031Y0113016D01*
X0230323Y0113061D01*
X0230615Y0113113D01*
X0230905Y0113172D01*
X0231193Y0113239D01*
X0231480Y0113312D01*
X0231765Y0113393D01*
X0232047Y0113480D01*
X0232328Y0113574D01*
X0232606Y0113675D01*
X0232882Y0113783D01*
X0233154Y0113898D01*
X0233424Y0114019D01*
X0233691Y0114147D01*
X0233955Y0114281D01*
X0234216Y0114422D01*
X0234472Y0114569D01*
X0234726Y0114722D01*
X0234975Y0114881D01*
X0235220Y0115047D01*
X0235462Y0115218D01*
X0235699Y0115395D01*
X0235931Y0115578D01*
X0236159Y0115767D01*
X0236383Y0115961D01*
X0236601Y0116160D01*
X0236815Y0116365D01*
X0237024Y0116575D01*
X0237227Y0116790D01*
X0237425Y0117010D01*
X0237618Y0117235D01*
X0237805Y0117464D01*
X0237986Y0117698D01*
X0278662Y0132809D02*
X0277942Y0132269D01*
X0277943Y0132270D02*
X0277762Y0132503D01*
X0277576Y0132731D01*
X0277384Y0132955D01*
X0277187Y0133174D01*
X0276985Y0133388D01*
X0276777Y0133597D01*
X0276564Y0133800D01*
X0276347Y0133999D01*
X0276124Y0134192D01*
X0275897Y0134380D01*
X0275666Y0134562D01*
X0275430Y0134739D01*
X0275189Y0134909D01*
X0274945Y0135074D01*
X0274697Y0135232D01*
X0274445Y0135385D01*
X0274189Y0135531D01*
X0273930Y0135671D01*
X0273667Y0135805D01*
X0273402Y0135932D01*
X0273133Y0136053D01*
X0272861Y0136167D01*
X0272587Y0136274D01*
X0272310Y0136375D01*
X0272031Y0136469D01*
X0271749Y0136556D01*
X0271466Y0136636D01*
X0271180Y0136709D01*
X0270893Y0136775D01*
X0270604Y0136834D01*
X0270314Y0136886D01*
X0270023Y0136931D01*
X0269731Y0136969D01*
X0269438Y0136999D01*
X0269144Y0137023D01*
X0268850Y0137039D01*
X0268556Y0137048D01*
X0268261Y0137050D01*
X0267966Y0137044D01*
X0267672Y0137032D01*
X0267378Y0137012D01*
X0267085Y0136985D01*
X0266792Y0136951D01*
X0266500Y0136910D01*
X0266210Y0136861D01*
X0265920Y0136806D01*
X0265633Y0136744D01*
X0265346Y0136674D01*
X0265062Y0136597D01*
X0264779Y0136514D01*
X0264499Y0136424D01*
X0264221Y0136327D01*
X0263945Y0136223D01*
X0263672Y0136112D01*
X0263402Y0135995D01*
X0263134Y0135871D01*
X0262870Y0135741D01*
X0262609Y0135604D01*
X0262352Y0135461D01*
X0262098Y0135311D01*
X0261847Y0135156D01*
X0261601Y0134994D01*
X0261359Y0134827D01*
X0261121Y0134653D01*
X0260887Y0134474D01*
X0260657Y0134289D01*
X0260433Y0134099D01*
X0260212Y0133903D01*
X0259997Y0133702D01*
X0259787Y0133495D01*
X0259582Y0133284D01*
X0259382Y0133067D01*
X0259187Y0132846D01*
X0258998Y0132620D01*
X0258815Y0132390D01*
X0258637Y0132155D01*
X0258465Y0131915D01*
X0258299Y0131672D01*
X0258139Y0131425D01*
X0257985Y0131174D01*
X0257837Y0130919D01*
X0257695Y0130660D01*
X0257560Y0130399D01*
X0257431Y0130134D01*
X0257309Y0129866D01*
X0257193Y0129595D01*
X0257084Y0129321D01*
X0256982Y0129045D01*
X0256887Y0128766D01*
X0256798Y0128485D01*
X0256716Y0128202D01*
X0256641Y0127917D01*
X0256574Y0127630D01*
X0256513Y0127342D01*
X0256459Y0127052D01*
X0256412Y0126761D01*
X0256373Y0126469D01*
X0256341Y0126177D01*
X0256315Y0125883D01*
X0256297Y0125589D01*
X0256287Y0125295D01*
X0256283Y0125000D01*
X0256287Y0124705D01*
X0256297Y0124411D01*
X0256315Y0124117D01*
X0256341Y0123823D01*
X0256373Y0123531D01*
X0256412Y0123239D01*
X0256459Y0122948D01*
X0256513Y0122658D01*
X0256574Y0122370D01*
X0256641Y0122083D01*
X0256716Y0121798D01*
X0256798Y0121515D01*
X0256887Y0121234D01*
X0256982Y0120955D01*
X0257084Y0120679D01*
X0257193Y0120405D01*
X0257309Y0120134D01*
X0257431Y0119866D01*
X0257560Y0119601D01*
X0257695Y0119340D01*
X0257837Y0119081D01*
X0257985Y0118826D01*
X0258139Y0118575D01*
X0258299Y0118328D01*
X0258465Y0118085D01*
X0258637Y0117845D01*
X0258815Y0117610D01*
X0258998Y0117380D01*
X0259187Y0117154D01*
X0259382Y0116933D01*
X0259582Y0116716D01*
X0259787Y0116505D01*
X0259997Y0116298D01*
X0260212Y0116097D01*
X0260433Y0115901D01*
X0260657Y0115711D01*
X0260887Y0115526D01*
X0261121Y0115347D01*
X0261359Y0115173D01*
X0261601Y0115006D01*
X0261847Y0114844D01*
X0262098Y0114689D01*
X0262352Y0114539D01*
X0262609Y0114396D01*
X0262870Y0114259D01*
X0263134Y0114129D01*
X0263402Y0114005D01*
X0263672Y0113888D01*
X0263945Y0113777D01*
X0264221Y0113673D01*
X0264499Y0113576D01*
X0264779Y0113486D01*
X0265062Y0113403D01*
X0265346Y0113326D01*
X0265633Y0113256D01*
X0265920Y0113194D01*
X0266210Y0113139D01*
X0266500Y0113090D01*
X0266792Y0113049D01*
X0267085Y0113015D01*
X0267378Y0112988D01*
X0267672Y0112968D01*
X0267966Y0112956D01*
X0268261Y0112950D01*
X0268556Y0112952D01*
X0268850Y0112961D01*
X0269144Y0112977D01*
X0269438Y0113001D01*
X0269731Y0113031D01*
X0270023Y0113069D01*
X0270314Y0113114D01*
X0270604Y0113166D01*
X0270893Y0113225D01*
X0271180Y0113291D01*
X0271466Y0113364D01*
X0271749Y0113444D01*
X0272031Y0113531D01*
X0272310Y0113625D01*
X0272587Y0113726D01*
X0272861Y0113833D01*
X0273133Y0113947D01*
X0273402Y0114068D01*
X0273667Y0114195D01*
X0273930Y0114329D01*
X0274189Y0114469D01*
X0274445Y0114615D01*
X0274697Y0114768D01*
X0274945Y0114926D01*
X0275189Y0115091D01*
X0275430Y0115261D01*
X0275666Y0115438D01*
X0275897Y0115620D01*
X0276124Y0115808D01*
X0276347Y0116001D01*
X0276564Y0116200D01*
X0276777Y0116403D01*
X0276985Y0116612D01*
X0277187Y0116826D01*
X0277384Y0117045D01*
X0277576Y0117269D01*
X0277762Y0117497D01*
X0277943Y0117730D01*
X0278662Y0117191D01*
X0278663Y0117190D01*
X0278469Y0116940D01*
X0278269Y0116694D01*
X0278063Y0116454D01*
X0277851Y0116219D01*
X0277633Y0115989D01*
X0277410Y0115764D01*
X0277182Y0115545D01*
X0276948Y0115331D01*
X0276709Y0115123D01*
X0276465Y0114921D01*
X0276216Y0114726D01*
X0275962Y0114536D01*
X0275704Y0114353D01*
X0275442Y0114176D01*
X0275175Y0114005D01*
X0274904Y0113841D01*
X0274629Y0113684D01*
X0274351Y0113533D01*
X0274068Y0113389D01*
X0273783Y0113253D01*
X0273494Y0113123D01*
X0273202Y0113000D01*
X0272907Y0112885D01*
X0272610Y0112777D01*
X0272309Y0112676D01*
X0272007Y0112582D01*
X0271702Y0112496D01*
X0271395Y0112417D01*
X0271087Y0112346D01*
X0270777Y0112283D01*
X0270465Y0112227D01*
X0270152Y0112178D01*
X0269838Y0112138D01*
X0269523Y0112105D01*
X0269207Y0112080D01*
X0268891Y0112062D01*
X0268575Y0112052D01*
X0268258Y0112050D01*
X0267941Y0112056D01*
X0267625Y0112069D01*
X0267309Y0112091D01*
X0266994Y0112119D01*
X0266679Y0112156D01*
X0266366Y0112200D01*
X0266053Y0112252D01*
X0265742Y0112312D01*
X0265433Y0112379D01*
X0265125Y0112454D01*
X0264819Y0112536D01*
X0264516Y0112625D01*
X0264214Y0112722D01*
X0263915Y0112827D01*
X0263619Y0112939D01*
X0263325Y0113057D01*
X0263035Y0113183D01*
X0262748Y0113316D01*
X0262463Y0113457D01*
X0262183Y0113604D01*
X0261906Y0113757D01*
X0261633Y0113918D01*
X0261364Y0114085D01*
X0261099Y0114259D01*
X0260839Y0114439D01*
X0260583Y0114625D01*
X0260332Y0114818D01*
X0260085Y0115016D01*
X0259843Y0115221D01*
X0259607Y0115431D01*
X0259375Y0115648D01*
X0259150Y0115870D01*
X0258929Y0116097D01*
X0258714Y0116329D01*
X0258505Y0116567D01*
X0258302Y0116810D01*
X0258104Y0117058D01*
X0257913Y0117310D01*
X0257728Y0117567D01*
X0257550Y0117829D01*
X0257378Y0118095D01*
X0257212Y0118364D01*
X0257053Y0118638D01*
X0256901Y0118916D01*
X0256756Y0119197D01*
X0256617Y0119482D01*
X0256486Y0119770D01*
X0256362Y0120062D01*
X0256244Y0120356D01*
X0256134Y0120653D01*
X0256032Y0120952D01*
X0255937Y0121254D01*
X0255849Y0121558D01*
X0255768Y0121865D01*
X0255695Y0122173D01*
X0255630Y0122483D01*
X0255572Y0122794D01*
X0255522Y0123107D01*
X0255480Y0123421D01*
X0255445Y0123735D01*
X0255418Y0124051D01*
X0255398Y0124367D01*
X0255387Y0124683D01*
X0255383Y0125000D01*
X0255387Y0125317D01*
X0255398Y0125633D01*
X0255418Y0125949D01*
X0255445Y0126265D01*
X0255480Y0126579D01*
X0255522Y0126893D01*
X0255572Y0127206D01*
X0255630Y0127517D01*
X0255695Y0127827D01*
X0255768Y0128135D01*
X0255849Y0128442D01*
X0255937Y0128746D01*
X0256032Y0129048D01*
X0256134Y0129347D01*
X0256244Y0129644D01*
X0256362Y0129938D01*
X0256486Y0130230D01*
X0256617Y0130518D01*
X0256756Y0130803D01*
X0256901Y0131084D01*
X0257053Y0131362D01*
X0257212Y0131636D01*
X0257378Y0131905D01*
X0257550Y0132171D01*
X0257728Y0132433D01*
X0257913Y0132690D01*
X0258104Y0132942D01*
X0258302Y0133190D01*
X0258505Y0133433D01*
X0258714Y0133671D01*
X0258929Y0133903D01*
X0259150Y0134130D01*
X0259375Y0134352D01*
X0259607Y0134569D01*
X0259843Y0134779D01*
X0260085Y0134984D01*
X0260332Y0135182D01*
X0260583Y0135375D01*
X0260839Y0135561D01*
X0261099Y0135741D01*
X0261364Y0135915D01*
X0261633Y0136082D01*
X0261906Y0136243D01*
X0262183Y0136396D01*
X0262463Y0136543D01*
X0262748Y0136684D01*
X0263035Y0136817D01*
X0263325Y0136943D01*
X0263619Y0137061D01*
X0263915Y0137173D01*
X0264214Y0137278D01*
X0264516Y0137375D01*
X0264819Y0137464D01*
X0265125Y0137546D01*
X0265433Y0137621D01*
X0265742Y0137688D01*
X0266053Y0137748D01*
X0266366Y0137800D01*
X0266679Y0137844D01*
X0266994Y0137881D01*
X0267309Y0137909D01*
X0267625Y0137931D01*
X0267941Y0137944D01*
X0268258Y0137950D01*
X0268575Y0137948D01*
X0268891Y0137938D01*
X0269207Y0137920D01*
X0269523Y0137895D01*
X0269838Y0137862D01*
X0270152Y0137822D01*
X0270465Y0137773D01*
X0270777Y0137717D01*
X0271087Y0137654D01*
X0271395Y0137583D01*
X0271702Y0137504D01*
X0272007Y0137418D01*
X0272309Y0137324D01*
X0272610Y0137223D01*
X0272907Y0137115D01*
X0273202Y0137000D01*
X0273494Y0136877D01*
X0273783Y0136747D01*
X0274068Y0136611D01*
X0274351Y0136467D01*
X0274629Y0136316D01*
X0274904Y0136159D01*
X0275175Y0135995D01*
X0275442Y0135824D01*
X0275704Y0135647D01*
X0275962Y0135464D01*
X0276216Y0135274D01*
X0276465Y0135079D01*
X0276709Y0134877D01*
X0276948Y0134669D01*
X0277182Y0134455D01*
X0277410Y0134236D01*
X0277633Y0134011D01*
X0277851Y0133781D01*
X0278063Y0133546D01*
X0278269Y0133306D01*
X0278469Y0133060D01*
X0278663Y0132810D01*
X0278588Y0132754D01*
X0278395Y0133002D01*
X0278196Y0133246D01*
X0277992Y0133484D01*
X0277782Y0133718D01*
X0277566Y0133946D01*
X0277344Y0134169D01*
X0277117Y0134387D01*
X0276885Y0134599D01*
X0276648Y0134805D01*
X0276406Y0135006D01*
X0276158Y0135200D01*
X0275907Y0135388D01*
X0275650Y0135570D01*
X0275390Y0135746D01*
X0275125Y0135915D01*
X0274856Y0136078D01*
X0274583Y0136234D01*
X0274307Y0136384D01*
X0274027Y0136526D01*
X0273743Y0136662D01*
X0273456Y0136791D01*
X0273166Y0136913D01*
X0272874Y0137027D01*
X0272578Y0137135D01*
X0272280Y0137235D01*
X0271980Y0137328D01*
X0271677Y0137413D01*
X0271373Y0137491D01*
X0271067Y0137562D01*
X0270759Y0137625D01*
X0270449Y0137681D01*
X0270139Y0137729D01*
X0269827Y0137769D01*
X0269514Y0137802D01*
X0269201Y0137827D01*
X0268887Y0137844D01*
X0268573Y0137854D01*
X0268258Y0137856D01*
X0267944Y0137850D01*
X0267630Y0137837D01*
X0267316Y0137816D01*
X0267003Y0137787D01*
X0266691Y0137751D01*
X0266380Y0137707D01*
X0266070Y0137655D01*
X0265761Y0137596D01*
X0265454Y0137529D01*
X0265148Y0137455D01*
X0264845Y0137374D01*
X0264543Y0137285D01*
X0264244Y0137188D01*
X0263947Y0137085D01*
X0263653Y0136974D01*
X0263362Y0136856D01*
X0263073Y0136731D01*
X0262788Y0136599D01*
X0262506Y0136460D01*
X0262228Y0136314D01*
X0261953Y0136161D01*
X0261682Y0136002D01*
X0261415Y0135836D01*
X0261152Y0135663D01*
X0260893Y0135485D01*
X0260639Y0135300D01*
X0260390Y0135108D01*
X0260145Y0134911D01*
X0259905Y0134708D01*
X0259670Y0134499D01*
X0259440Y0134284D01*
X0259216Y0134064D01*
X0258997Y0133839D01*
X0258784Y0133608D01*
X0258576Y0133372D01*
X0258374Y0133130D01*
X0258179Y0132885D01*
X0257989Y0132634D01*
X0257805Y0132379D01*
X0257628Y0132119D01*
X0257457Y0131855D01*
X0257293Y0131587D01*
X0257135Y0131315D01*
X0256984Y0131040D01*
X0256840Y0130760D01*
X0256702Y0130478D01*
X0256572Y0130192D01*
X0256448Y0129903D01*
X0256332Y0129610D01*
X0256223Y0129316D01*
X0256121Y0129018D01*
X0256027Y0128719D01*
X0255939Y0128416D01*
X0255859Y0128112D01*
X0255787Y0127807D01*
X0255722Y0127499D01*
X0255665Y0127190D01*
X0255615Y0126879D01*
X0255573Y0126568D01*
X0255538Y0126255D01*
X0255512Y0125942D01*
X0255492Y0125628D01*
X0255481Y0125314D01*
X0255477Y0125000D01*
X0255481Y0124686D01*
X0255492Y0124372D01*
X0255512Y0124058D01*
X0255538Y0123745D01*
X0255573Y0123432D01*
X0255615Y0123121D01*
X0255665Y0122810D01*
X0255722Y0122501D01*
X0255787Y0122193D01*
X0255859Y0121888D01*
X0255939Y0121584D01*
X0256027Y0121281D01*
X0256121Y0120982D01*
X0256223Y0120684D01*
X0256332Y0120390D01*
X0256448Y0120097D01*
X0256572Y0119808D01*
X0256702Y0119522D01*
X0256840Y0119240D01*
X0256984Y0118960D01*
X0257135Y0118685D01*
X0257293Y0118413D01*
X0257457Y0118145D01*
X0257628Y0117881D01*
X0257805Y0117621D01*
X0257989Y0117366D01*
X0258179Y0117115D01*
X0258374Y0116870D01*
X0258576Y0116628D01*
X0258784Y0116392D01*
X0258997Y0116161D01*
X0259216Y0115936D01*
X0259440Y0115716D01*
X0259670Y0115501D01*
X0259905Y0115292D01*
X0260145Y0115089D01*
X0260390Y0114892D01*
X0260639Y0114700D01*
X0260893Y0114515D01*
X0261152Y0114337D01*
X0261415Y0114164D01*
X0261682Y0113998D01*
X0261953Y0113839D01*
X0262228Y0113686D01*
X0262506Y0113540D01*
X0262788Y0113401D01*
X0263073Y0113269D01*
X0263362Y0113144D01*
X0263653Y0113026D01*
X0263947Y0112915D01*
X0264244Y0112812D01*
X0264543Y0112715D01*
X0264845Y0112626D01*
X0265148Y0112545D01*
X0265454Y0112471D01*
X0265761Y0112404D01*
X0266070Y0112345D01*
X0266380Y0112293D01*
X0266691Y0112249D01*
X0267003Y0112213D01*
X0267316Y0112184D01*
X0267630Y0112163D01*
X0267944Y0112150D01*
X0268258Y0112144D01*
X0268573Y0112146D01*
X0268887Y0112156D01*
X0269201Y0112173D01*
X0269514Y0112198D01*
X0269827Y0112231D01*
X0270139Y0112271D01*
X0270449Y0112319D01*
X0270759Y0112375D01*
X0271067Y0112438D01*
X0271373Y0112509D01*
X0271677Y0112587D01*
X0271980Y0112672D01*
X0272280Y0112765D01*
X0272578Y0112865D01*
X0272874Y0112973D01*
X0273166Y0113087D01*
X0273456Y0113209D01*
X0273743Y0113338D01*
X0274027Y0113474D01*
X0274307Y0113616D01*
X0274583Y0113766D01*
X0274856Y0113922D01*
X0275125Y0114085D01*
X0275390Y0114254D01*
X0275650Y0114430D01*
X0275907Y0114612D01*
X0276158Y0114800D01*
X0276406Y0114994D01*
X0276648Y0115195D01*
X0276885Y0115401D01*
X0277117Y0115613D01*
X0277344Y0115831D01*
X0277566Y0116054D01*
X0277782Y0116282D01*
X0277992Y0116516D01*
X0278196Y0116754D01*
X0278395Y0116998D01*
X0278588Y0117246D01*
X0278513Y0117303D01*
X0278321Y0117056D01*
X0278124Y0116814D01*
X0277921Y0116577D01*
X0277712Y0116346D01*
X0277498Y0116119D01*
X0277278Y0115897D01*
X0277053Y0115681D01*
X0276822Y0115471D01*
X0276587Y0115266D01*
X0276346Y0115067D01*
X0276101Y0114874D01*
X0275851Y0114688D01*
X0275597Y0114507D01*
X0275338Y0114332D01*
X0275075Y0114164D01*
X0274808Y0114003D01*
X0274537Y0113848D01*
X0274263Y0113699D01*
X0273985Y0113558D01*
X0273703Y0113423D01*
X0273419Y0113295D01*
X0273131Y0113174D01*
X0272840Y0113060D01*
X0272547Y0112954D01*
X0272251Y0112854D01*
X0271953Y0112762D01*
X0271653Y0112677D01*
X0271350Y0112600D01*
X0271046Y0112530D01*
X0270741Y0112467D01*
X0270434Y0112412D01*
X0270125Y0112364D01*
X0269816Y0112324D01*
X0269505Y0112292D01*
X0269194Y0112267D01*
X0268883Y0112250D01*
X0268571Y0112240D01*
X0268259Y0112238D01*
X0267947Y0112244D01*
X0267635Y0112257D01*
X0267324Y0112278D01*
X0267013Y0112306D01*
X0266703Y0112343D01*
X0266394Y0112386D01*
X0266086Y0112437D01*
X0265779Y0112496D01*
X0265475Y0112562D01*
X0265171Y0112636D01*
X0264870Y0112717D01*
X0264571Y0112805D01*
X0264274Y0112901D01*
X0263979Y0113004D01*
X0263687Y0113114D01*
X0263398Y0113231D01*
X0263111Y0113355D01*
X0262828Y0113486D01*
X0262548Y0113624D01*
X0262272Y0113769D01*
X0261999Y0113921D01*
X0261730Y0114079D01*
X0261465Y0114244D01*
X0261204Y0114415D01*
X0260948Y0114592D01*
X0260695Y0114776D01*
X0260448Y0114966D01*
X0260205Y0115161D01*
X0259966Y0115363D01*
X0259733Y0115571D01*
X0259505Y0115784D01*
X0259283Y0116002D01*
X0259065Y0116226D01*
X0258854Y0116455D01*
X0258648Y0116690D01*
X0258447Y0116929D01*
X0258253Y0117173D01*
X0258065Y0117422D01*
X0257882Y0117675D01*
X0257706Y0117933D01*
X0257537Y0118195D01*
X0257374Y0118461D01*
X0257217Y0118731D01*
X0257067Y0119005D01*
X0256924Y0119282D01*
X0256787Y0119562D01*
X0256658Y0119846D01*
X0256535Y0120133D01*
X0256420Y0120423D01*
X0256312Y0120716D01*
X0256210Y0121011D01*
X0256116Y0121309D01*
X0256030Y0121609D01*
X0255951Y0121910D01*
X0255879Y0122214D01*
X0255814Y0122519D01*
X0255757Y0122826D01*
X0255708Y0123134D01*
X0255666Y0123444D01*
X0255632Y0123754D01*
X0255605Y0124065D01*
X0255586Y0124376D01*
X0255575Y0124688D01*
X0255571Y0125000D01*
X0255575Y0125312D01*
X0255586Y0125624D01*
X0255605Y0125935D01*
X0255632Y0126246D01*
X0255666Y0126556D01*
X0255708Y0126866D01*
X0255757Y0127174D01*
X0255814Y0127481D01*
X0255879Y0127786D01*
X0255951Y0128090D01*
X0256030Y0128391D01*
X0256116Y0128691D01*
X0256210Y0128989D01*
X0256312Y0129284D01*
X0256420Y0129577D01*
X0256535Y0129867D01*
X0256658Y0130154D01*
X0256787Y0130438D01*
X0256924Y0130718D01*
X0257067Y0130995D01*
X0257217Y0131269D01*
X0257374Y0131539D01*
X0257537Y0131805D01*
X0257706Y0132067D01*
X0257882Y0132325D01*
X0258065Y0132578D01*
X0258253Y0132827D01*
X0258447Y0133071D01*
X0258648Y0133310D01*
X0258854Y0133545D01*
X0259065Y0133774D01*
X0259283Y0133998D01*
X0259505Y0134216D01*
X0259733Y0134429D01*
X0259966Y0134637D01*
X0260205Y0134839D01*
X0260448Y0135034D01*
X0260695Y0135224D01*
X0260948Y0135408D01*
X0261204Y0135585D01*
X0261465Y0135756D01*
X0261730Y0135921D01*
X0261999Y0136079D01*
X0262272Y0136231D01*
X0262548Y0136376D01*
X0262828Y0136514D01*
X0263111Y0136645D01*
X0263398Y0136769D01*
X0263687Y0136886D01*
X0263979Y0136996D01*
X0264274Y0137099D01*
X0264571Y0137195D01*
X0264870Y0137283D01*
X0265171Y0137364D01*
X0265475Y0137438D01*
X0265779Y0137504D01*
X0266086Y0137563D01*
X0266394Y0137614D01*
X0266703Y0137657D01*
X0267013Y0137694D01*
X0267324Y0137722D01*
X0267635Y0137743D01*
X0267947Y0137756D01*
X0268259Y0137762D01*
X0268571Y0137760D01*
X0268883Y0137750D01*
X0269194Y0137733D01*
X0269505Y0137708D01*
X0269816Y0137676D01*
X0270125Y0137636D01*
X0270434Y0137588D01*
X0270741Y0137533D01*
X0271046Y0137470D01*
X0271350Y0137400D01*
X0271653Y0137323D01*
X0271953Y0137238D01*
X0272251Y0137146D01*
X0272547Y0137046D01*
X0272840Y0136940D01*
X0273131Y0136826D01*
X0273419Y0136705D01*
X0273703Y0136577D01*
X0273985Y0136442D01*
X0274263Y0136301D01*
X0274537Y0136152D01*
X0274808Y0135997D01*
X0275075Y0135836D01*
X0275338Y0135668D01*
X0275597Y0135493D01*
X0275851Y0135312D01*
X0276101Y0135126D01*
X0276346Y0134933D01*
X0276587Y0134734D01*
X0276822Y0134529D01*
X0277053Y0134319D01*
X0277278Y0134103D01*
X0277498Y0133881D01*
X0277712Y0133654D01*
X0277921Y0133423D01*
X0278124Y0133186D01*
X0278321Y0132944D01*
X0278513Y0132697D01*
X0278437Y0132641D01*
X0278247Y0132886D01*
X0278052Y0133126D01*
X0277850Y0133361D01*
X0277643Y0133591D01*
X0277430Y0133816D01*
X0277212Y0134036D01*
X0276988Y0134250D01*
X0276759Y0134459D01*
X0276526Y0134662D01*
X0276287Y0134860D01*
X0276044Y0135051D01*
X0275795Y0135237D01*
X0275543Y0135416D01*
X0275286Y0135589D01*
X0275025Y0135756D01*
X0274760Y0135917D01*
X0274491Y0136070D01*
X0274219Y0136218D01*
X0273943Y0136358D01*
X0273663Y0136492D01*
X0273381Y0136619D01*
X0273095Y0136739D01*
X0272807Y0136852D01*
X0272516Y0136958D01*
X0272222Y0137056D01*
X0271926Y0137148D01*
X0271628Y0137232D01*
X0271328Y0137309D01*
X0271026Y0137378D01*
X0270723Y0137441D01*
X0270418Y0137495D01*
X0270112Y0137543D01*
X0269804Y0137582D01*
X0269496Y0137614D01*
X0269188Y0137639D01*
X0268878Y0137656D01*
X0268569Y0137666D01*
X0268259Y0137668D01*
X0267949Y0137662D01*
X0267640Y0137649D01*
X0267331Y0137628D01*
X0267022Y0137600D01*
X0266715Y0137564D01*
X0266408Y0137521D01*
X0266102Y0137470D01*
X0265798Y0137412D01*
X0265495Y0137346D01*
X0265194Y0137273D01*
X0264895Y0137193D01*
X0264598Y0137105D01*
X0264303Y0137010D01*
X0264011Y0136908D01*
X0263721Y0136799D01*
X0263434Y0136682D01*
X0263150Y0136559D01*
X0262869Y0136429D01*
X0262591Y0136292D01*
X0262317Y0136148D01*
X0262046Y0135998D01*
X0261779Y0135841D01*
X0261516Y0135677D01*
X0261257Y0135507D01*
X0261002Y0135331D01*
X0260751Y0135149D01*
X0260506Y0134960D01*
X0260264Y0134766D01*
X0260028Y0134566D01*
X0259797Y0134360D01*
X0259570Y0134148D01*
X0259349Y0133931D01*
X0259134Y0133709D01*
X0258923Y0133482D01*
X0258719Y0133249D01*
X0258520Y0133011D01*
X0258327Y0132769D01*
X0258140Y0132522D01*
X0257959Y0132271D01*
X0257785Y0132015D01*
X0257616Y0131755D01*
X0257454Y0131491D01*
X0257299Y0131223D01*
X0257150Y0130951D01*
X0257008Y0130676D01*
X0256872Y0130397D01*
X0256744Y0130116D01*
X0256622Y0129831D01*
X0256508Y0129543D01*
X0256400Y0129252D01*
X0256300Y0128959D01*
X0256206Y0128664D01*
X0256120Y0128366D01*
X0256042Y0128067D01*
X0255971Y0127765D01*
X0255907Y0127462D01*
X0255850Y0127158D01*
X0255801Y0126852D01*
X0255760Y0126545D01*
X0255726Y0126237D01*
X0255699Y0125928D01*
X0255680Y0125619D01*
X0255669Y0125310D01*
X0255665Y0125000D01*
X0255669Y0124690D01*
X0255680Y0124381D01*
X0255699Y0124072D01*
X0255726Y0123763D01*
X0255760Y0123455D01*
X0255801Y0123148D01*
X0255850Y0122842D01*
X0255907Y0122538D01*
X0255971Y0122235D01*
X0256042Y0121933D01*
X0256120Y0121634D01*
X0256206Y0121336D01*
X0256300Y0121041D01*
X0256400Y0120748D01*
X0256508Y0120457D01*
X0256622Y0120169D01*
X0256744Y0119884D01*
X0256872Y0119603D01*
X0257008Y0119324D01*
X0257150Y0119049D01*
X0257299Y0118777D01*
X0257454Y0118509D01*
X0257616Y0118245D01*
X0257785Y0117985D01*
X0257959Y0117729D01*
X0258140Y0117478D01*
X0258327Y0117231D01*
X0258520Y0116989D01*
X0258719Y0116751D01*
X0258923Y0116518D01*
X0259134Y0116291D01*
X0259349Y0116069D01*
X0259570Y0115852D01*
X0259797Y0115640D01*
X0260028Y0115434D01*
X0260264Y0115234D01*
X0260506Y0115040D01*
X0260751Y0114851D01*
X0261002Y0114669D01*
X0261257Y0114493D01*
X0261516Y0114323D01*
X0261779Y0114159D01*
X0262046Y0114002D01*
X0262317Y0113852D01*
X0262591Y0113708D01*
X0262869Y0113571D01*
X0263150Y0113441D01*
X0263434Y0113318D01*
X0263721Y0113201D01*
X0264011Y0113092D01*
X0264303Y0112990D01*
X0264598Y0112895D01*
X0264895Y0112807D01*
X0265194Y0112727D01*
X0265495Y0112654D01*
X0265798Y0112588D01*
X0266102Y0112530D01*
X0266408Y0112479D01*
X0266715Y0112436D01*
X0267022Y0112400D01*
X0267331Y0112372D01*
X0267640Y0112351D01*
X0267949Y0112338D01*
X0268259Y0112332D01*
X0268569Y0112334D01*
X0268878Y0112344D01*
X0269188Y0112361D01*
X0269496Y0112386D01*
X0269804Y0112418D01*
X0270112Y0112457D01*
X0270418Y0112505D01*
X0270723Y0112559D01*
X0271026Y0112622D01*
X0271328Y0112691D01*
X0271628Y0112768D01*
X0271926Y0112852D01*
X0272222Y0112944D01*
X0272516Y0113042D01*
X0272807Y0113148D01*
X0273095Y0113261D01*
X0273381Y0113381D01*
X0273663Y0113508D01*
X0273943Y0113642D01*
X0274219Y0113782D01*
X0274491Y0113930D01*
X0274760Y0114083D01*
X0275025Y0114244D01*
X0275286Y0114411D01*
X0275543Y0114584D01*
X0275795Y0114763D01*
X0276044Y0114949D01*
X0276287Y0115140D01*
X0276526Y0115338D01*
X0276759Y0115541D01*
X0276988Y0115750D01*
X0277212Y0115964D01*
X0277430Y0116184D01*
X0277643Y0116409D01*
X0277850Y0116639D01*
X0278052Y0116874D01*
X0278247Y0117114D01*
X0278437Y0117359D01*
X0278362Y0117416D01*
X0278174Y0117173D01*
X0277979Y0116934D01*
X0277779Y0116701D01*
X0277574Y0116473D01*
X0277362Y0116249D01*
X0277146Y0116031D01*
X0276924Y0115818D01*
X0276697Y0115611D01*
X0276465Y0115409D01*
X0276228Y0115213D01*
X0275986Y0115023D01*
X0275740Y0114839D01*
X0275489Y0114661D01*
X0275234Y0114489D01*
X0274975Y0114324D01*
X0274712Y0114164D01*
X0274445Y0114012D01*
X0274175Y0113865D01*
X0273901Y0113726D01*
X0273624Y0113593D01*
X0273343Y0113467D01*
X0273060Y0113348D01*
X0272773Y0113236D01*
X0272484Y0113131D01*
X0272193Y0113033D01*
X0271899Y0112942D01*
X0271603Y0112859D01*
X0271306Y0112782D01*
X0271006Y0112713D01*
X0270705Y0112652D01*
X0270402Y0112597D01*
X0270098Y0112551D01*
X0269793Y0112511D01*
X0269488Y0112479D01*
X0269181Y0112455D01*
X0268874Y0112438D01*
X0268567Y0112428D01*
X0268259Y0112426D01*
X0267952Y0112432D01*
X0267645Y0112445D01*
X0267338Y0112465D01*
X0267032Y0112494D01*
X0266726Y0112529D01*
X0266422Y0112572D01*
X0266119Y0112623D01*
X0265817Y0112680D01*
X0265516Y0112746D01*
X0265217Y0112818D01*
X0264921Y0112898D01*
X0264626Y0112985D01*
X0264333Y0113079D01*
X0264043Y0113181D01*
X0263755Y0113289D01*
X0263470Y0113404D01*
X0263188Y0113527D01*
X0262909Y0113656D01*
X0262633Y0113792D01*
X0262361Y0113935D01*
X0262092Y0114084D01*
X0261827Y0114240D01*
X0261566Y0114402D01*
X0261309Y0114571D01*
X0261056Y0114746D01*
X0260808Y0114927D01*
X0260564Y0115114D01*
X0260324Y0115307D01*
X0260090Y0115505D01*
X0259860Y0115710D01*
X0259635Y0115920D01*
X0259416Y0116135D01*
X0259202Y0116356D01*
X0258993Y0116581D01*
X0258790Y0116812D01*
X0258593Y0117048D01*
X0258401Y0117289D01*
X0258216Y0117534D01*
X0258036Y0117783D01*
X0257863Y0118037D01*
X0257696Y0118295D01*
X0257535Y0118557D01*
X0257381Y0118823D01*
X0257233Y0119093D01*
X0257092Y0119366D01*
X0256957Y0119643D01*
X0256830Y0119922D01*
X0256709Y0120205D01*
X0256595Y0120491D01*
X0256489Y0120779D01*
X0256389Y0121070D01*
X0256296Y0121363D01*
X0256211Y0121659D01*
X0256133Y0121956D01*
X0256062Y0122255D01*
X0255999Y0122556D01*
X0255943Y0122858D01*
X0255894Y0123162D01*
X0255853Y0123467D01*
X0255819Y0123772D01*
X0255793Y0124078D01*
X0255774Y0124385D01*
X0255763Y0124693D01*
X0255759Y0125000D01*
X0255763Y0125307D01*
X0255774Y0125615D01*
X0255793Y0125922D01*
X0255819Y0126228D01*
X0255853Y0126533D01*
X0255894Y0126838D01*
X0255943Y0127142D01*
X0255999Y0127444D01*
X0256062Y0127745D01*
X0256133Y0128044D01*
X0256211Y0128341D01*
X0256296Y0128637D01*
X0256389Y0128930D01*
X0256489Y0129221D01*
X0256595Y0129509D01*
X0256709Y0129795D01*
X0256830Y0130078D01*
X0256957Y0130357D01*
X0257092Y0130634D01*
X0257233Y0130907D01*
X0257381Y0131177D01*
X0257535Y0131443D01*
X0257696Y0131705D01*
X0257863Y0131963D01*
X0258036Y0132217D01*
X0258216Y0132466D01*
X0258401Y0132711D01*
X0258593Y0132952D01*
X0258790Y0133188D01*
X0258993Y0133419D01*
X0259202Y0133644D01*
X0259416Y0133865D01*
X0259635Y0134080D01*
X0259860Y0134290D01*
X0260090Y0134495D01*
X0260324Y0134693D01*
X0260564Y0134886D01*
X0260808Y0135073D01*
X0261056Y0135254D01*
X0261309Y0135429D01*
X0261566Y0135598D01*
X0261827Y0135760D01*
X0262092Y0135916D01*
X0262361Y0136065D01*
X0262633Y0136208D01*
X0262909Y0136344D01*
X0263188Y0136473D01*
X0263470Y0136596D01*
X0263755Y0136711D01*
X0264043Y0136819D01*
X0264333Y0136921D01*
X0264626Y0137015D01*
X0264921Y0137102D01*
X0265217Y0137182D01*
X0265516Y0137254D01*
X0265817Y0137320D01*
X0266119Y0137377D01*
X0266422Y0137428D01*
X0266726Y0137471D01*
X0267032Y0137506D01*
X0267338Y0137535D01*
X0267645Y0137555D01*
X0267952Y0137568D01*
X0268259Y0137574D01*
X0268567Y0137572D01*
X0268874Y0137562D01*
X0269181Y0137545D01*
X0269488Y0137521D01*
X0269793Y0137489D01*
X0270098Y0137449D01*
X0270402Y0137403D01*
X0270705Y0137348D01*
X0271006Y0137287D01*
X0271306Y0137218D01*
X0271603Y0137141D01*
X0271899Y0137058D01*
X0272193Y0136967D01*
X0272484Y0136869D01*
X0272773Y0136764D01*
X0273060Y0136652D01*
X0273343Y0136533D01*
X0273624Y0136407D01*
X0273901Y0136274D01*
X0274175Y0136135D01*
X0274445Y0135988D01*
X0274712Y0135836D01*
X0274975Y0135676D01*
X0275234Y0135511D01*
X0275489Y0135339D01*
X0275740Y0135161D01*
X0275986Y0134977D01*
X0276228Y0134787D01*
X0276465Y0134591D01*
X0276697Y0134389D01*
X0276924Y0134182D01*
X0277146Y0133969D01*
X0277362Y0133751D01*
X0277574Y0133527D01*
X0277779Y0133299D01*
X0277979Y0133066D01*
X0278174Y0132827D01*
X0278362Y0132584D01*
X0278287Y0132528D01*
X0278100Y0132769D01*
X0277907Y0133006D01*
X0277708Y0133237D01*
X0277504Y0133464D01*
X0277295Y0133686D01*
X0277080Y0133902D01*
X0276859Y0134113D01*
X0276634Y0134319D01*
X0276404Y0134519D01*
X0276168Y0134714D01*
X0275929Y0134902D01*
X0275684Y0135085D01*
X0275435Y0135262D01*
X0275182Y0135432D01*
X0274925Y0135597D01*
X0274664Y0135755D01*
X0274399Y0135906D01*
X0274131Y0136051D01*
X0273859Y0136190D01*
X0273584Y0136322D01*
X0273305Y0136447D01*
X0273024Y0136565D01*
X0272740Y0136676D01*
X0272453Y0136780D01*
X0272164Y0136878D01*
X0271872Y0136968D01*
X0271579Y0137051D01*
X0271283Y0137126D01*
X0270986Y0137195D01*
X0270687Y0137256D01*
X0270386Y0137310D01*
X0270085Y0137356D01*
X0269782Y0137396D01*
X0269479Y0137427D01*
X0269174Y0137452D01*
X0268870Y0137468D01*
X0268565Y0137478D01*
X0268260Y0137480D01*
X0267955Y0137474D01*
X0267650Y0137461D01*
X0267345Y0137441D01*
X0267041Y0137413D01*
X0266738Y0137378D01*
X0266436Y0137335D01*
X0266135Y0137285D01*
X0265835Y0137228D01*
X0265537Y0137163D01*
X0265241Y0137091D01*
X0264946Y0137012D01*
X0264653Y0136925D01*
X0264363Y0136832D01*
X0264075Y0136731D01*
X0263789Y0136623D01*
X0263506Y0136509D01*
X0263226Y0136387D01*
X0262949Y0136259D01*
X0262676Y0136124D01*
X0262406Y0135983D01*
X0262139Y0135834D01*
X0261876Y0135680D01*
X0261617Y0135519D01*
X0261361Y0135351D01*
X0261110Y0135178D01*
X0260864Y0134998D01*
X0260622Y0134812D01*
X0260384Y0134621D01*
X0260151Y0134424D01*
X0259923Y0134221D01*
X0259700Y0134012D01*
X0259482Y0133799D01*
X0259270Y0133580D01*
X0259063Y0133356D01*
X0258861Y0133126D01*
X0258665Y0132892D01*
X0258475Y0132654D01*
X0258291Y0132410D01*
X0258113Y0132163D01*
X0257941Y0131911D01*
X0257775Y0131654D01*
X0257616Y0131394D01*
X0257462Y0131130D01*
X0257316Y0130863D01*
X0257176Y0130592D01*
X0257042Y0130317D01*
X0256916Y0130040D01*
X0256796Y0129759D01*
X0256683Y0129475D01*
X0256577Y0129189D01*
X0256478Y0128901D01*
X0256386Y0128610D01*
X0256302Y0128316D01*
X0256224Y0128021D01*
X0256154Y0127724D01*
X0256091Y0127426D01*
X0256035Y0127126D01*
X0255987Y0126824D01*
X0255946Y0126522D01*
X0255913Y0126219D01*
X0255887Y0125915D01*
X0255868Y0125610D01*
X0255857Y0125305D01*
X0255853Y0125000D01*
X0255857Y0124695D01*
X0255868Y0124390D01*
X0255887Y0124085D01*
X0255913Y0123781D01*
X0255946Y0123478D01*
X0255987Y0123176D01*
X0256035Y0122874D01*
X0256091Y0122574D01*
X0256154Y0122276D01*
X0256224Y0121979D01*
X0256302Y0121684D01*
X0256386Y0121390D01*
X0256478Y0121099D01*
X0256577Y0120811D01*
X0256683Y0120525D01*
X0256796Y0120241D01*
X0256916Y0119960D01*
X0257042Y0119683D01*
X0257176Y0119408D01*
X0257316Y0119137D01*
X0257462Y0118870D01*
X0257616Y0118606D01*
X0257775Y0118346D01*
X0257941Y0118089D01*
X0258113Y0117837D01*
X0258291Y0117590D01*
X0258475Y0117346D01*
X0258665Y0117108D01*
X0258861Y0116874D01*
X0259063Y0116644D01*
X0259270Y0116420D01*
X0259482Y0116201D01*
X0259700Y0115988D01*
X0259923Y0115779D01*
X0260151Y0115576D01*
X0260384Y0115379D01*
X0260622Y0115188D01*
X0260864Y0115002D01*
X0261110Y0114822D01*
X0261361Y0114649D01*
X0261617Y0114481D01*
X0261876Y0114320D01*
X0262139Y0114166D01*
X0262406Y0114017D01*
X0262676Y0113876D01*
X0262949Y0113741D01*
X0263226Y0113613D01*
X0263506Y0113491D01*
X0263789Y0113377D01*
X0264075Y0113269D01*
X0264363Y0113168D01*
X0264653Y0113075D01*
X0264946Y0112988D01*
X0265241Y0112909D01*
X0265537Y0112837D01*
X0265835Y0112772D01*
X0266135Y0112715D01*
X0266436Y0112665D01*
X0266738Y0112622D01*
X0267041Y0112587D01*
X0267345Y0112559D01*
X0267650Y0112539D01*
X0267955Y0112526D01*
X0268260Y0112520D01*
X0268565Y0112522D01*
X0268870Y0112532D01*
X0269174Y0112548D01*
X0269479Y0112573D01*
X0269782Y0112604D01*
X0270085Y0112644D01*
X0270386Y0112690D01*
X0270687Y0112744D01*
X0270986Y0112805D01*
X0271283Y0112874D01*
X0271579Y0112949D01*
X0271872Y0113032D01*
X0272164Y0113122D01*
X0272453Y0113220D01*
X0272740Y0113324D01*
X0273024Y0113435D01*
X0273305Y0113553D01*
X0273584Y0113678D01*
X0273859Y0113810D01*
X0274131Y0113949D01*
X0274399Y0114094D01*
X0274664Y0114245D01*
X0274925Y0114403D01*
X0275182Y0114568D01*
X0275435Y0114738D01*
X0275684Y0114915D01*
X0275929Y0115098D01*
X0276168Y0115286D01*
X0276404Y0115481D01*
X0276634Y0115681D01*
X0276859Y0115887D01*
X0277080Y0116098D01*
X0277295Y0116314D01*
X0277504Y0116536D01*
X0277708Y0116763D01*
X0277907Y0116994D01*
X0278100Y0117231D01*
X0278287Y0117472D01*
X0278212Y0117528D01*
X0278026Y0117289D01*
X0277835Y0117054D01*
X0277638Y0116825D01*
X0277435Y0116600D01*
X0277227Y0116379D01*
X0277013Y0116165D01*
X0276795Y0115955D01*
X0276571Y0115751D01*
X0276343Y0115552D01*
X0276109Y0115359D01*
X0275871Y0115172D01*
X0275629Y0114991D01*
X0275382Y0114815D01*
X0275131Y0114646D01*
X0274875Y0114483D01*
X0274616Y0114326D01*
X0274353Y0114176D01*
X0274087Y0114032D01*
X0273817Y0113894D01*
X0273544Y0113763D01*
X0273268Y0113639D01*
X0272988Y0113522D01*
X0272706Y0113412D01*
X0272422Y0113308D01*
X0272135Y0113212D01*
X0271845Y0113122D01*
X0271554Y0113040D01*
X0271261Y0112965D01*
X0270965Y0112897D01*
X0270669Y0112836D01*
X0270371Y0112783D01*
X0270071Y0112737D01*
X0269771Y0112698D01*
X0269470Y0112666D01*
X0269168Y0112642D01*
X0268865Y0112625D01*
X0268563Y0112616D01*
X0268260Y0112614D01*
X0267957Y0112620D01*
X0267655Y0112633D01*
X0267352Y0112653D01*
X0267051Y0112681D01*
X0266750Y0112716D01*
X0266450Y0112758D01*
X0266151Y0112808D01*
X0265854Y0112865D01*
X0265558Y0112929D01*
X0265264Y0113000D01*
X0264971Y0113079D01*
X0264681Y0113165D01*
X0264392Y0113258D01*
X0264107Y0113357D01*
X0263823Y0113464D01*
X0263543Y0113578D01*
X0263265Y0113698D01*
X0262990Y0113826D01*
X0262718Y0113960D01*
X0262450Y0114100D01*
X0262185Y0114247D01*
X0261924Y0114401D01*
X0261667Y0114561D01*
X0261414Y0114727D01*
X0261165Y0114899D01*
X0260920Y0115077D01*
X0260679Y0115262D01*
X0260444Y0115452D01*
X0260213Y0115647D01*
X0259986Y0115849D01*
X0259765Y0116055D01*
X0259549Y0116268D01*
X0259338Y0116485D01*
X0259133Y0116707D01*
X0258933Y0116935D01*
X0258738Y0117167D01*
X0258550Y0117404D01*
X0258367Y0117646D01*
X0258190Y0117891D01*
X0258019Y0118142D01*
X0257855Y0118396D01*
X0257696Y0118654D01*
X0257544Y0118916D01*
X0257399Y0119181D01*
X0257260Y0119450D01*
X0257127Y0119723D01*
X0257002Y0119998D01*
X0256883Y0120277D01*
X0256771Y0120558D01*
X0256666Y0120842D01*
X0256567Y0121129D01*
X0256476Y0121418D01*
X0256392Y0121709D01*
X0256315Y0122002D01*
X0256246Y0122296D01*
X0256183Y0122593D01*
X0256128Y0122890D01*
X0256080Y0123189D01*
X0256039Y0123489D01*
X0256006Y0123791D01*
X0255980Y0124092D01*
X0255962Y0124395D01*
X0255951Y0124697D01*
X0255947Y0125000D01*
X0255951Y0125303D01*
X0255962Y0125605D01*
X0255980Y0125908D01*
X0256006Y0126209D01*
X0256039Y0126511D01*
X0256080Y0126811D01*
X0256128Y0127110D01*
X0256183Y0127407D01*
X0256246Y0127704D01*
X0256315Y0127998D01*
X0256392Y0128291D01*
X0256476Y0128582D01*
X0256567Y0128871D01*
X0256666Y0129158D01*
X0256771Y0129442D01*
X0256883Y0129723D01*
X0257002Y0130002D01*
X0257127Y0130277D01*
X0257260Y0130550D01*
X0257399Y0130819D01*
X0257544Y0131084D01*
X0257696Y0131346D01*
X0257855Y0131604D01*
X0258019Y0131858D01*
X0258190Y0132109D01*
X0258367Y0132354D01*
X0258550Y0132596D01*
X0258738Y0132833D01*
X0258933Y0133065D01*
X0259133Y0133293D01*
X0259338Y0133515D01*
X0259549Y0133732D01*
X0259765Y0133945D01*
X0259986Y0134151D01*
X0260213Y0134353D01*
X0260444Y0134548D01*
X0260679Y0134738D01*
X0260920Y0134923D01*
X0261165Y0135101D01*
X0261414Y0135273D01*
X0261667Y0135439D01*
X0261924Y0135599D01*
X0262185Y0135753D01*
X0262450Y0135900D01*
X0262718Y0136040D01*
X0262990Y0136174D01*
X0263265Y0136302D01*
X0263543Y0136422D01*
X0263823Y0136536D01*
X0264107Y0136643D01*
X0264392Y0136742D01*
X0264681Y0136835D01*
X0264971Y0136921D01*
X0265264Y0137000D01*
X0265558Y0137071D01*
X0265854Y0137135D01*
X0266151Y0137192D01*
X0266450Y0137242D01*
X0266750Y0137284D01*
X0267051Y0137319D01*
X0267352Y0137347D01*
X0267655Y0137367D01*
X0267957Y0137380D01*
X0268260Y0137386D01*
X0268563Y0137384D01*
X0268865Y0137375D01*
X0269168Y0137358D01*
X0269470Y0137334D01*
X0269771Y0137302D01*
X0270071Y0137263D01*
X0270371Y0137217D01*
X0270669Y0137164D01*
X0270965Y0137103D01*
X0271261Y0137035D01*
X0271554Y0136960D01*
X0271845Y0136878D01*
X0272135Y0136788D01*
X0272422Y0136692D01*
X0272706Y0136588D01*
X0272988Y0136478D01*
X0273268Y0136361D01*
X0273544Y0136237D01*
X0273817Y0136106D01*
X0274087Y0135968D01*
X0274353Y0135824D01*
X0274616Y0135674D01*
X0274875Y0135517D01*
X0275131Y0135354D01*
X0275382Y0135185D01*
X0275629Y0135009D01*
X0275871Y0134828D01*
X0276109Y0134641D01*
X0276343Y0134448D01*
X0276571Y0134249D01*
X0276795Y0134045D01*
X0277013Y0133835D01*
X0277227Y0133621D01*
X0277435Y0133400D01*
X0277638Y0133175D01*
X0277835Y0132946D01*
X0278026Y0132711D01*
X0278212Y0132472D01*
X0278137Y0132415D01*
X0277952Y0132653D01*
X0277762Y0132885D01*
X0277567Y0133114D01*
X0277366Y0133337D01*
X0277159Y0133555D01*
X0276947Y0133769D01*
X0276730Y0133977D01*
X0276508Y0134179D01*
X0276281Y0134376D01*
X0276050Y0134568D01*
X0275814Y0134754D01*
X0275573Y0134934D01*
X0275328Y0135108D01*
X0275079Y0135276D01*
X0274825Y0135438D01*
X0274568Y0135593D01*
X0274307Y0135742D01*
X0274043Y0135885D01*
X0273775Y0136022D01*
X0273504Y0136151D01*
X0273230Y0136274D01*
X0272953Y0136391D01*
X0272673Y0136500D01*
X0272390Y0136603D01*
X0272106Y0136699D01*
X0271818Y0136787D01*
X0271529Y0136869D01*
X0271238Y0136944D01*
X0270945Y0137011D01*
X0270651Y0137072D01*
X0270355Y0137125D01*
X0270058Y0137170D01*
X0269760Y0137209D01*
X0269461Y0137240D01*
X0269161Y0137264D01*
X0268861Y0137281D01*
X0268561Y0137290D01*
X0268260Y0137292D01*
X0267960Y0137286D01*
X0267659Y0137274D01*
X0267360Y0137253D01*
X0267060Y0137226D01*
X0266762Y0137191D01*
X0266464Y0137149D01*
X0266168Y0137100D01*
X0265873Y0137043D01*
X0265579Y0136979D01*
X0265287Y0136909D01*
X0264997Y0136831D01*
X0264708Y0136745D01*
X0264422Y0136653D01*
X0264138Y0136554D01*
X0263857Y0136448D01*
X0263579Y0136335D01*
X0263303Y0136216D01*
X0263030Y0136089D01*
X0262761Y0135956D01*
X0262495Y0135817D01*
X0262232Y0135671D01*
X0261973Y0135519D01*
X0261717Y0135360D01*
X0261466Y0135195D01*
X0261219Y0135024D01*
X0260976Y0134847D01*
X0260737Y0134664D01*
X0260503Y0134476D01*
X0260274Y0134282D01*
X0260050Y0134082D01*
X0259830Y0133877D01*
X0259616Y0133666D01*
X0259406Y0133450D01*
X0259202Y0133230D01*
X0259004Y0133004D01*
X0258811Y0132773D01*
X0258624Y0132538D01*
X0258442Y0132299D01*
X0258267Y0132055D01*
X0258097Y0131806D01*
X0257934Y0131554D01*
X0257777Y0131298D01*
X0257626Y0131038D01*
X0257482Y0130774D01*
X0257344Y0130507D01*
X0257212Y0130237D01*
X0257088Y0129964D01*
X0256970Y0129687D01*
X0256859Y0129408D01*
X0256754Y0129126D01*
X0256657Y0128842D01*
X0256566Y0128555D01*
X0256483Y0128266D01*
X0256407Y0127976D01*
X0256337Y0127683D01*
X0256275Y0127389D01*
X0256221Y0127094D01*
X0256173Y0126797D01*
X0256133Y0126499D01*
X0256100Y0126200D01*
X0256074Y0125901D01*
X0256056Y0125601D01*
X0256045Y0125301D01*
X0256041Y0125000D01*
X0256045Y0124699D01*
X0256056Y0124399D01*
X0256074Y0124099D01*
X0256100Y0123800D01*
X0256133Y0123501D01*
X0256173Y0123203D01*
X0256221Y0122906D01*
X0256275Y0122611D01*
X0256337Y0122317D01*
X0256407Y0122024D01*
X0256483Y0121734D01*
X0256566Y0121445D01*
X0256657Y0121158D01*
X0256754Y0120874D01*
X0256859Y0120592D01*
X0256970Y0120313D01*
X0257088Y0120036D01*
X0257212Y0119763D01*
X0257344Y0119493D01*
X0257482Y0119226D01*
X0257626Y0118962D01*
X0257777Y0118702D01*
X0257934Y0118446D01*
X0258097Y0118194D01*
X0258267Y0117945D01*
X0258442Y0117701D01*
X0258624Y0117462D01*
X0258811Y0117227D01*
X0259004Y0116996D01*
X0259202Y0116770D01*
X0259406Y0116550D01*
X0259616Y0116334D01*
X0259830Y0116123D01*
X0260050Y0115918D01*
X0260274Y0115718D01*
X0260503Y0115524D01*
X0260737Y0115336D01*
X0260976Y0115153D01*
X0261219Y0114976D01*
X0261466Y0114805D01*
X0261717Y0114640D01*
X0261973Y0114481D01*
X0262232Y0114329D01*
X0262495Y0114183D01*
X0262761Y0114044D01*
X0263030Y0113911D01*
X0263303Y0113784D01*
X0263579Y0113665D01*
X0263857Y0113552D01*
X0264138Y0113446D01*
X0264422Y0113347D01*
X0264708Y0113255D01*
X0264997Y0113169D01*
X0265287Y0113091D01*
X0265579Y0113021D01*
X0265873Y0112957D01*
X0266168Y0112900D01*
X0266464Y0112851D01*
X0266762Y0112809D01*
X0267060Y0112774D01*
X0267360Y0112747D01*
X0267659Y0112726D01*
X0267960Y0112714D01*
X0268260Y0112708D01*
X0268561Y0112710D01*
X0268861Y0112719D01*
X0269161Y0112736D01*
X0269461Y0112760D01*
X0269760Y0112791D01*
X0270058Y0112830D01*
X0270355Y0112875D01*
X0270651Y0112928D01*
X0270945Y0112989D01*
X0271238Y0113056D01*
X0271529Y0113131D01*
X0271818Y0113213D01*
X0272106Y0113301D01*
X0272390Y0113397D01*
X0272673Y0113500D01*
X0272953Y0113609D01*
X0273230Y0113726D01*
X0273504Y0113849D01*
X0273775Y0113978D01*
X0274043Y0114115D01*
X0274307Y0114258D01*
X0274568Y0114407D01*
X0274825Y0114562D01*
X0275079Y0114724D01*
X0275328Y0114892D01*
X0275573Y0115066D01*
X0275814Y0115246D01*
X0276050Y0115432D01*
X0276281Y0115624D01*
X0276508Y0115821D01*
X0276730Y0116023D01*
X0276947Y0116231D01*
X0277159Y0116445D01*
X0277366Y0116663D01*
X0277567Y0116886D01*
X0277762Y0117115D01*
X0277952Y0117347D01*
X0278137Y0117585D01*
X0278061Y0117641D01*
X0277879Y0117406D01*
X0277690Y0117175D01*
X0277496Y0116948D01*
X0277296Y0116726D01*
X0277091Y0116510D01*
X0276881Y0116298D01*
X0276666Y0116092D01*
X0276446Y0115891D01*
X0276220Y0115695D01*
X0275991Y0115505D01*
X0275756Y0115321D01*
X0275517Y0115142D01*
X0275274Y0114969D01*
X0275027Y0114803D01*
X0274775Y0114642D01*
X0274520Y0114488D01*
X0274261Y0114340D01*
X0273999Y0114198D01*
X0273733Y0114063D01*
X0273464Y0113934D01*
X0273192Y0113812D01*
X0272917Y0113696D01*
X0272639Y0113587D01*
X0272359Y0113486D01*
X0272076Y0113391D01*
X0271791Y0113303D01*
X0271504Y0113222D01*
X0271216Y0113147D01*
X0270925Y0113081D01*
X0270633Y0113021D01*
X0270339Y0112968D01*
X0270044Y0112923D01*
X0269749Y0112884D01*
X0269452Y0112853D01*
X0269155Y0112830D01*
X0268857Y0112813D01*
X0268559Y0112804D01*
X0268261Y0112802D01*
X0267962Y0112808D01*
X0267664Y0112820D01*
X0267367Y0112840D01*
X0267070Y0112868D01*
X0266774Y0112902D01*
X0266478Y0112944D01*
X0266184Y0112993D01*
X0265891Y0113049D01*
X0265600Y0113112D01*
X0265310Y0113183D01*
X0265022Y0113260D01*
X0264736Y0113344D01*
X0264452Y0113436D01*
X0264170Y0113534D01*
X0263891Y0113639D01*
X0263615Y0113751D01*
X0263341Y0113870D01*
X0263071Y0113995D01*
X0262803Y0114127D01*
X0262539Y0114266D01*
X0262278Y0114411D01*
X0262021Y0114562D01*
X0261768Y0114719D01*
X0261519Y0114883D01*
X0261273Y0115053D01*
X0261032Y0115228D01*
X0260795Y0115410D01*
X0260563Y0115597D01*
X0260336Y0115789D01*
X0260113Y0115988D01*
X0259895Y0116191D01*
X0259682Y0116400D01*
X0259474Y0116614D01*
X0259272Y0116834D01*
X0259075Y0117057D01*
X0258884Y0117286D01*
X0258698Y0117520D01*
X0258518Y0117757D01*
X0258344Y0117999D01*
X0258176Y0118246D01*
X0258014Y0118496D01*
X0257858Y0118750D01*
X0257708Y0119008D01*
X0257565Y0119270D01*
X0257428Y0119535D01*
X0257297Y0119803D01*
X0257174Y0120074D01*
X0257057Y0120349D01*
X0256946Y0120626D01*
X0256843Y0120906D01*
X0256746Y0121188D01*
X0256656Y0121472D01*
X0256574Y0121759D01*
X0256498Y0122047D01*
X0256429Y0122337D01*
X0256368Y0122629D01*
X0256313Y0122922D01*
X0256266Y0123217D01*
X0256226Y0123512D01*
X0256193Y0123809D01*
X0256168Y0124106D01*
X0256150Y0124404D01*
X0256139Y0124702D01*
X0256135Y0125000D01*
X0256139Y0125298D01*
X0256150Y0125596D01*
X0256168Y0125894D01*
X0256193Y0126191D01*
X0256226Y0126488D01*
X0256266Y0126783D01*
X0256313Y0127078D01*
X0256368Y0127371D01*
X0256429Y0127663D01*
X0256498Y0127953D01*
X0256574Y0128241D01*
X0256656Y0128528D01*
X0256746Y0128812D01*
X0256843Y0129094D01*
X0256946Y0129374D01*
X0257057Y0129651D01*
X0257174Y0129926D01*
X0257297Y0130197D01*
X0257428Y0130465D01*
X0257565Y0130730D01*
X0257708Y0130992D01*
X0257858Y0131250D01*
X0258014Y0131504D01*
X0258176Y0131754D01*
X0258344Y0132001D01*
X0258518Y0132243D01*
X0258698Y0132480D01*
X0258884Y0132714D01*
X0259075Y0132943D01*
X0259272Y0133166D01*
X0259474Y0133386D01*
X0259682Y0133600D01*
X0259895Y0133809D01*
X0260113Y0134012D01*
X0260336Y0134211D01*
X0260563Y0134403D01*
X0260795Y0134590D01*
X0261032Y0134772D01*
X0261273Y0134947D01*
X0261519Y0135117D01*
X0261768Y0135281D01*
X0262021Y0135438D01*
X0262278Y0135589D01*
X0262539Y0135734D01*
X0262803Y0135873D01*
X0263071Y0136005D01*
X0263341Y0136130D01*
X0263615Y0136249D01*
X0263891Y0136361D01*
X0264170Y0136466D01*
X0264452Y0136564D01*
X0264736Y0136656D01*
X0265022Y0136740D01*
X0265310Y0136817D01*
X0265600Y0136888D01*
X0265891Y0136951D01*
X0266184Y0137007D01*
X0266478Y0137056D01*
X0266774Y0137098D01*
X0267070Y0137132D01*
X0267367Y0137160D01*
X0267664Y0137180D01*
X0267962Y0137192D01*
X0268261Y0137198D01*
X0268559Y0137196D01*
X0268857Y0137187D01*
X0269155Y0137170D01*
X0269452Y0137147D01*
X0269749Y0137116D01*
X0270044Y0137077D01*
X0270339Y0137032D01*
X0270633Y0136979D01*
X0270925Y0136919D01*
X0271216Y0136853D01*
X0271504Y0136778D01*
X0271791Y0136697D01*
X0272076Y0136609D01*
X0272359Y0136514D01*
X0272639Y0136413D01*
X0272917Y0136304D01*
X0273192Y0136188D01*
X0273464Y0136066D01*
X0273733Y0135937D01*
X0273999Y0135802D01*
X0274261Y0135660D01*
X0274520Y0135512D01*
X0274775Y0135358D01*
X0275027Y0135197D01*
X0275274Y0135031D01*
X0275517Y0134858D01*
X0275756Y0134679D01*
X0275991Y0134495D01*
X0276220Y0134305D01*
X0276446Y0134109D01*
X0276666Y0133908D01*
X0276881Y0133702D01*
X0277091Y0133490D01*
X0277296Y0133274D01*
X0277496Y0133052D01*
X0277690Y0132825D01*
X0277879Y0132594D01*
X0278061Y0132359D01*
X0277986Y0132302D01*
X0277805Y0132536D01*
X0277618Y0132765D01*
X0277425Y0132990D01*
X0277227Y0133210D01*
X0277024Y0133425D01*
X0276815Y0133635D01*
X0276601Y0133840D01*
X0276383Y0134039D01*
X0276159Y0134233D01*
X0275931Y0134422D01*
X0275699Y0134605D01*
X0275462Y0134782D01*
X0275220Y0134953D01*
X0274975Y0135119D01*
X0274726Y0135278D01*
X0274472Y0135431D01*
X0274216Y0135578D01*
X0273955Y0135719D01*
X0273691Y0135853D01*
X0273424Y0135981D01*
X0273154Y0136102D01*
X0272882Y0136217D01*
X0272606Y0136325D01*
X0272328Y0136426D01*
X0272047Y0136520D01*
X0271765Y0136607D01*
X0271480Y0136688D01*
X0271193Y0136761D01*
X0270905Y0136828D01*
X0270615Y0136887D01*
X0270323Y0136939D01*
X0270031Y0136984D01*
X0269737Y0137022D01*
X0269443Y0137053D01*
X0269148Y0137077D01*
X0268853Y0137093D01*
X0268557Y0137102D01*
X0268261Y0137104D01*
X0267965Y0137098D01*
X0267669Y0137086D01*
X0267374Y0137066D01*
X0267079Y0137039D01*
X0266785Y0137005D01*
X0266492Y0136963D01*
X0266200Y0136915D01*
X0265910Y0136859D01*
X0265621Y0136796D01*
X0265333Y0136726D01*
X0265047Y0136649D01*
X0264763Y0136566D01*
X0264482Y0136475D01*
X0264202Y0136377D01*
X0263925Y0136273D01*
X0263651Y0136162D01*
X0263380Y0136044D01*
X0263111Y0135920D01*
X0262846Y0135789D01*
X0262584Y0135651D01*
X0262325Y0135508D01*
X0262070Y0135358D01*
X0261818Y0135201D01*
X0261571Y0135039D01*
X0261328Y0134871D01*
X0261088Y0134696D01*
X0260853Y0134516D01*
X0260623Y0134331D01*
X0260397Y0134139D01*
X0260176Y0133943D01*
X0259960Y0133741D01*
X0259749Y0133533D01*
X0259543Y0133321D01*
X0259342Y0133103D01*
X0259146Y0132881D01*
X0258956Y0132654D01*
X0258772Y0132423D01*
X0258594Y0132187D01*
X0258421Y0131947D01*
X0258254Y0131702D01*
X0258093Y0131454D01*
X0257938Y0131201D01*
X0257790Y0130945D01*
X0257648Y0130686D01*
X0257512Y0130423D01*
X0257382Y0130157D01*
X0257260Y0129888D01*
X0257143Y0129615D01*
X0257034Y0129340D01*
X0256931Y0129063D01*
X0256835Y0128783D01*
X0256746Y0128501D01*
X0256664Y0128216D01*
X0256589Y0127930D01*
X0256521Y0127642D01*
X0256460Y0127353D01*
X0256406Y0127062D01*
X0256359Y0126769D01*
X0256319Y0126476D01*
X0256287Y0126182D01*
X0256262Y0125887D01*
X0256243Y0125592D01*
X0256233Y0125296D01*
X0256229Y0125000D01*
X0256233Y0124704D01*
X0256243Y0124408D01*
X0256262Y0124113D01*
X0256287Y0123818D01*
X0256319Y0123524D01*
X0256359Y0123231D01*
X0256406Y0122938D01*
X0256460Y0122647D01*
X0256521Y0122358D01*
X0256589Y0122070D01*
X0256664Y0121784D01*
X0256746Y0121499D01*
X0256835Y0121217D01*
X0256931Y0120937D01*
X0257034Y0120660D01*
X0257143Y0120385D01*
X0257260Y0120112D01*
X0257382Y0119843D01*
X0257512Y0119577D01*
X0257648Y0119314D01*
X0257790Y0119055D01*
X0257938Y0118799D01*
X0258093Y0118546D01*
X0258254Y0118298D01*
X0258421Y0118053D01*
X0258594Y0117813D01*
X0258772Y0117577D01*
X0258956Y0117346D01*
X0259146Y0117119D01*
X0259342Y0116897D01*
X0259543Y0116679D01*
X0259749Y0116467D01*
X0259960Y0116259D01*
X0260176Y0116057D01*
X0260397Y0115861D01*
X0260623Y0115669D01*
X0260853Y0115484D01*
X0261088Y0115304D01*
X0261328Y0115129D01*
X0261571Y0114961D01*
X0261818Y0114799D01*
X0262070Y0114642D01*
X0262325Y0114492D01*
X0262584Y0114349D01*
X0262846Y0114211D01*
X0263111Y0114080D01*
X0263380Y0113956D01*
X0263651Y0113838D01*
X0263925Y0113727D01*
X0264202Y0113623D01*
X0264482Y0113525D01*
X0264763Y0113434D01*
X0265047Y0113351D01*
X0265333Y0113274D01*
X0265621Y0113204D01*
X0265910Y0113141D01*
X0266200Y0113085D01*
X0266492Y0113037D01*
X0266785Y0112995D01*
X0267079Y0112961D01*
X0267374Y0112934D01*
X0267669Y0112914D01*
X0267965Y0112902D01*
X0268261Y0112896D01*
X0268557Y0112898D01*
X0268853Y0112907D01*
X0269148Y0112923D01*
X0269443Y0112947D01*
X0269737Y0112978D01*
X0270031Y0113016D01*
X0270323Y0113061D01*
X0270615Y0113113D01*
X0270905Y0113172D01*
X0271193Y0113239D01*
X0271480Y0113312D01*
X0271765Y0113393D01*
X0272047Y0113480D01*
X0272328Y0113574D01*
X0272606Y0113675D01*
X0272882Y0113783D01*
X0273154Y0113898D01*
X0273424Y0114019D01*
X0273691Y0114147D01*
X0273955Y0114281D01*
X0274216Y0114422D01*
X0274472Y0114569D01*
X0274726Y0114722D01*
X0274975Y0114881D01*
X0275220Y0115047D01*
X0275462Y0115218D01*
X0275699Y0115395D01*
X0275931Y0115578D01*
X0276159Y0115767D01*
X0276383Y0115961D01*
X0276601Y0116160D01*
X0276815Y0116365D01*
X0277024Y0116575D01*
X0277227Y0116790D01*
X0277425Y0117010D01*
X0277618Y0117235D01*
X0277805Y0117464D01*
X0277986Y0117698D01*
D19*
X0187833Y0132500D02*
X0187833Y0096500D01*
X0155333Y0096500D01*
X0155333Y0132500D01*
X0187833Y0132500D01*
D20*
X0192083Y0124500D03*
X0192083Y0114500D03*
X0192083Y0104500D03*
M02*
