G75*
%MOIN*%
%OFA0B0*%
%FSLAX25Y25*%
%IPPOS*%
%LPD*%
%AMOC8*
5,1,8,0,0,1.08239X$1,22.5*
%
%ADD10C,0.08200*%
%ADD11C,0.07800*%
%ADD12C,0.09658*%
%ADD13C,0.00500*%
%ADD14C,0.06800*%
%ADD15C,0.13800*%
%ADD16OC8,0.13200*%
%ADD17C,0.04800*%
D10*
X0033333Y0155000D03*
X0033333Y0165000D03*
X0043333Y0165000D03*
X0053333Y0165000D03*
X0063333Y0165000D03*
X0063333Y0155000D03*
X0053333Y0155000D03*
X0043333Y0155000D03*
X0073333Y0155000D03*
X0083333Y0155000D03*
X0093333Y0155000D03*
X0093333Y0165000D03*
X0083333Y0165000D03*
X0073333Y0165000D03*
X0103333Y0165000D03*
X0113333Y0165000D03*
X0123333Y0165000D03*
X0123333Y0155000D03*
X0113333Y0155000D03*
X0103333Y0155000D03*
X0103333Y0215000D03*
X0103333Y0230000D03*
X0103333Y0245000D03*
X0103333Y0260000D03*
X0113333Y0260000D03*
X0103333Y0275000D03*
X0073333Y0275000D03*
X0073333Y0260000D03*
X0073333Y0245000D03*
X0073333Y0230000D03*
X0073333Y0215000D03*
X0143333Y0260000D03*
X0123333Y0325000D03*
X0113333Y0325000D03*
X0103333Y0325000D03*
X0093333Y0325000D03*
X0083333Y0325000D03*
X0073333Y0325000D03*
X0063333Y0325000D03*
X0053333Y0325000D03*
X0043333Y0325000D03*
X0033333Y0325000D03*
X0033333Y0335000D03*
X0043333Y0335000D03*
X0053333Y0335000D03*
X0063333Y0335000D03*
X0073333Y0335000D03*
X0083333Y0335000D03*
X0093333Y0335000D03*
X0103333Y0335000D03*
X0113333Y0335000D03*
X0123333Y0335000D03*
X0243333Y0325000D03*
X0253333Y0325000D03*
X0263333Y0325000D03*
X0273333Y0325000D03*
X0283333Y0325000D03*
X0293333Y0325000D03*
X0303333Y0325000D03*
X0313333Y0325000D03*
X0293333Y0345000D03*
X0263333Y0345000D03*
X0263333Y0165000D03*
X0273333Y0165000D03*
X0283333Y0165000D03*
X0293333Y0165000D03*
X0303333Y0165000D03*
X0313333Y0165000D03*
X0283333Y0135000D03*
X0273333Y0135000D03*
X0263333Y0115000D03*
X0253333Y0115000D03*
X0243333Y0135000D03*
X0233333Y0135000D03*
X0223333Y0115000D03*
X0278333Y0090000D03*
X0280533Y0073900D03*
X0280533Y0056100D03*
X0306133Y0056100D03*
X0306133Y0073900D03*
X0308333Y0090000D03*
X0293333Y0115000D03*
X0343333Y0090000D03*
X0345533Y0073900D03*
X0345533Y0056100D03*
X0371133Y0056100D03*
X0371133Y0073900D03*
X0373333Y0090000D03*
X0253333Y0165000D03*
X0243333Y0165000D03*
D11*
X0325538Y0125000D03*
X0351129Y0125000D03*
D12*
X0067703Y0062126D03*
X0067703Y0077874D03*
X0238963Y0077874D03*
D13*
X0152002Y0098755D02*
X0151800Y0098056D01*
X0151466Y0097410D01*
X0151012Y0096842D01*
X0150456Y0096373D01*
X0149819Y0096022D01*
X0149126Y0095801D01*
X0148403Y0095720D01*
X0147744Y0095770D01*
X0147103Y0095934D01*
X0146500Y0096206D01*
X0145953Y0096579D01*
X0145480Y0097041D01*
X0145094Y0097579D01*
X0144807Y0098175D01*
X0144629Y0098812D01*
X0144563Y0099470D01*
X0144630Y0100128D01*
X0144811Y0100765D01*
X0145099Y0101360D01*
X0145487Y0101897D01*
X0145961Y0102358D01*
X0146509Y0102729D01*
X0147112Y0103000D01*
X0147754Y0103162D01*
X0148414Y0103210D01*
X0149133Y0103132D01*
X0149823Y0102914D01*
X0150457Y0102566D01*
X0151011Y0102101D01*
X0151464Y0101537D01*
X0151798Y0100895D01*
X0152001Y0100201D01*
X0152064Y0099480D01*
X0152002Y0098755D01*
X0151949Y0098571D02*
X0144696Y0098571D01*
X0144603Y0099070D02*
X0152029Y0099070D01*
X0152056Y0099568D02*
X0144573Y0099568D01*
X0144624Y0100067D02*
X0152012Y0100067D01*
X0151894Y0100565D02*
X0144754Y0100565D01*
X0144956Y0101064D02*
X0151711Y0101064D01*
X0151444Y0101562D02*
X0145245Y0101562D01*
X0145656Y0102061D02*
X0151044Y0102061D01*
X0150465Y0102559D02*
X0146258Y0102559D01*
X0147341Y0103058D02*
X0149367Y0103058D01*
X0149126Y0106822D02*
X0148403Y0106741D01*
X0147744Y0106790D01*
X0147103Y0106954D01*
X0146500Y0107226D01*
X0145953Y0107599D01*
X0145480Y0108061D01*
X0145094Y0108599D01*
X0144807Y0109195D01*
X0144629Y0109832D01*
X0144563Y0110490D01*
X0144630Y0111148D01*
X0144811Y0111785D01*
X0145099Y0112380D01*
X0145487Y0112917D01*
X0145961Y0113378D01*
X0146509Y0113749D01*
X0147112Y0114020D01*
X0147754Y0114182D01*
X0148414Y0114230D01*
X0149133Y0114152D01*
X0149823Y0113934D01*
X0150457Y0113586D01*
X0151011Y0113121D01*
X0151464Y0112557D01*
X0151798Y0111915D01*
X0152001Y0111221D01*
X0152064Y0110500D01*
X0152002Y0109775D01*
X0151800Y0109077D01*
X0151466Y0108431D01*
X0151012Y0107862D01*
X0150456Y0107393D01*
X0149819Y0107042D01*
X0149126Y0106822D01*
X0149827Y0107046D02*
X0146899Y0107046D01*
X0146034Y0107544D02*
X0150635Y0107544D01*
X0151156Y0108043D02*
X0145499Y0108043D01*
X0145135Y0108541D02*
X0151523Y0108541D01*
X0151781Y0109040D02*
X0144882Y0109040D01*
X0144711Y0109539D02*
X0151934Y0109539D01*
X0152024Y0110037D02*
X0144608Y0110037D01*
X0144568Y0110536D02*
X0152061Y0110536D01*
X0152017Y0111034D02*
X0144619Y0111034D01*
X0144739Y0111533D02*
X0151910Y0111533D01*
X0151738Y0112031D02*
X0144930Y0112031D01*
X0145207Y0112530D02*
X0151479Y0112530D01*
X0151086Y0113028D02*
X0145601Y0113028D01*
X0146180Y0113527D02*
X0150528Y0113527D01*
X0149535Y0114025D02*
X0147131Y0114025D01*
X0148353Y0127770D02*
X0148737Y0127817D01*
X0149100Y0127947D01*
X0149426Y0128156D01*
X0149697Y0128431D01*
X0149899Y0128760D01*
X0150024Y0129126D01*
X0150064Y0129510D01*
X0150030Y0129891D01*
X0149912Y0130256D01*
X0149716Y0130585D01*
X0149451Y0130862D01*
X0149132Y0131073D01*
X0148773Y0131208D01*
X0148394Y0131260D01*
X0147993Y0131225D01*
X0147610Y0131102D01*
X0147265Y0130896D01*
X0146973Y0130619D01*
X0146751Y0130284D01*
X0146609Y0129908D01*
X0146554Y0129510D01*
X0146605Y0129117D01*
X0146742Y0128745D01*
X0146959Y0128413D01*
X0147244Y0128138D01*
X0147583Y0127932D01*
X0147959Y0127808D01*
X0148353Y0127770D01*
X0149157Y0127983D02*
X0147498Y0127983D01*
X0146914Y0128482D02*
X0149728Y0128482D01*
X0149974Y0128980D02*
X0146655Y0128980D01*
X0146558Y0129479D02*
X0150060Y0129479D01*
X0150002Y0129977D02*
X0146635Y0129977D01*
X0146878Y0130476D02*
X0149780Y0130476D01*
X0149281Y0130974D02*
X0147396Y0130974D01*
X0147959Y0138828D02*
X0148353Y0138790D01*
X0148737Y0138837D01*
X0149100Y0138967D01*
X0149426Y0139176D01*
X0149697Y0139451D01*
X0149899Y0139780D01*
X0150024Y0140146D01*
X0150064Y0140530D01*
X0150030Y0140911D01*
X0149912Y0141276D01*
X0149716Y0141605D01*
X0149451Y0141882D01*
X0149132Y0142093D01*
X0148773Y0142228D01*
X0148394Y0142280D01*
X0147993Y0142245D01*
X0147610Y0142122D01*
X0147265Y0141916D01*
X0146973Y0141639D01*
X0146751Y0141304D01*
X0146609Y0140928D01*
X0146554Y0140530D01*
X0146605Y0140137D01*
X0146742Y0139765D01*
X0146959Y0139433D01*
X0147244Y0139158D01*
X0147583Y0138952D01*
X0147959Y0138828D01*
X0147588Y0138951D02*
X0149054Y0138951D01*
X0149695Y0139449D02*
X0146948Y0139449D01*
X0146675Y0139948D02*
X0149956Y0139948D01*
X0150055Y0140446D02*
X0146565Y0140446D01*
X0146615Y0140945D02*
X0150019Y0140945D01*
X0149812Y0141443D02*
X0146843Y0141443D01*
X0147307Y0141942D02*
X0149361Y0141942D01*
X0151805Y0098073D02*
X0144857Y0098073D01*
X0145097Y0097574D02*
X0151551Y0097574D01*
X0151199Y0097076D02*
X0145455Y0097076D01*
X0145956Y0096577D02*
X0150698Y0096577D01*
X0149922Y0096079D02*
X0146782Y0096079D01*
D14*
X0126333Y0103000D02*
X0120333Y0103000D01*
X0120333Y0113000D02*
X0126333Y0113000D01*
X0126333Y0123000D02*
X0120333Y0123000D01*
D15*
X0064333Y0113000D03*
D16*
X0183333Y0110000D03*
X0183333Y0130000D03*
D17*
X0161233Y0141300D03*
X0154033Y0160200D03*
X0157633Y0168300D03*
X0132433Y0168300D03*
X0128833Y0147600D03*
X0113533Y0132300D03*
X0114433Y0125100D03*
X0084733Y0134100D03*
X0175633Y0234900D03*
X0243133Y0261900D03*
M02*
