G75*
%MOIN*%
%OFA0B0*%
%FSLAX25Y25*%
%IPPOS*%
%LPD*%
%AMOC8*
5,1,8,0,0,1.08239X$1,22.5*
%
%ADD10C,0.08200*%
%ADD11C,0.07800*%
%ADD12C,0.09658*%
%ADD13C,0.00500*%
%ADD14C,0.06800*%
%ADD15C,0.13800*%
%ADD16OC8,0.13200*%
%ADD17C,0.04800*%
D10*
X0033333Y0145000D03*
X0033333Y0155000D03*
X0043333Y0155000D03*
X0043333Y0145000D03*
X0053333Y0145000D03*
X0053333Y0155000D03*
X0063333Y0155000D03*
X0063333Y0145000D03*
X0073333Y0145000D03*
X0073333Y0155000D03*
X0083333Y0155000D03*
X0083333Y0145000D03*
X0093333Y0145000D03*
X0093333Y0155000D03*
X0103333Y0155000D03*
X0103333Y0145000D03*
X0113333Y0145000D03*
X0113333Y0155000D03*
X0123333Y0155000D03*
X0123333Y0145000D03*
X0103333Y0195000D03*
X0103333Y0215000D03*
X0103333Y0235000D03*
X0103333Y0255000D03*
X0113333Y0255000D03*
X0103333Y0275000D03*
X0073333Y0275000D03*
X0073333Y0255000D03*
X0073333Y0235000D03*
X0073333Y0215000D03*
X0073333Y0195000D03*
X0143333Y0255000D03*
X0123333Y0315000D03*
X0113333Y0315000D03*
X0103333Y0315000D03*
X0093333Y0315000D03*
X0083333Y0315000D03*
X0073333Y0315000D03*
X0063333Y0315000D03*
X0053333Y0315000D03*
X0043333Y0315000D03*
X0033333Y0315000D03*
X0033333Y0325000D03*
X0043333Y0325000D03*
X0053333Y0325000D03*
X0063333Y0325000D03*
X0073333Y0325000D03*
X0083333Y0325000D03*
X0093333Y0325000D03*
X0103333Y0325000D03*
X0113333Y0325000D03*
X0123333Y0325000D03*
X0243333Y0315000D03*
X0253333Y0315000D03*
X0263333Y0315000D03*
X0273333Y0315000D03*
X0283333Y0315000D03*
X0293333Y0315000D03*
X0303333Y0315000D03*
X0313333Y0315000D03*
X0293333Y0335000D03*
X0263333Y0335000D03*
X0263333Y0155000D03*
X0273333Y0155000D03*
X0283333Y0155000D03*
X0293333Y0155000D03*
X0303333Y0155000D03*
X0313333Y0155000D03*
X0273333Y0125000D03*
X0263333Y0125000D03*
X0253333Y0105000D03*
X0243333Y0105000D03*
X0233333Y0125000D03*
X0223333Y0125000D03*
X0213333Y0105000D03*
X0243333Y0155000D03*
X0253333Y0155000D03*
X0283333Y0105000D03*
X0278333Y0090000D03*
X0280533Y0073900D03*
X0280533Y0056100D03*
X0306133Y0056100D03*
X0306133Y0073900D03*
X0308333Y0090000D03*
X0343333Y0090000D03*
X0345533Y0073900D03*
X0345533Y0056100D03*
X0371133Y0056100D03*
X0371133Y0073900D03*
X0373333Y0090000D03*
D11*
X0339129Y0116000D03*
X0313538Y0116000D03*
D12*
X0042703Y0077874D03*
X0213963Y0077874D03*
X0213963Y0062126D03*
D13*
X0115455Y0104277D02*
X0115250Y0103931D01*
X0114973Y0103640D01*
X0114638Y0103418D01*
X0114262Y0103275D01*
X0113863Y0103220D01*
X0113470Y0103272D01*
X0113098Y0103409D01*
X0112766Y0103625D01*
X0112491Y0103910D01*
X0112286Y0104249D01*
X0112161Y0104626D01*
X0112123Y0105020D01*
X0112170Y0105404D01*
X0112301Y0105767D01*
X0112509Y0106092D01*
X0112784Y0106363D01*
X0113113Y0106566D01*
X0113479Y0106690D01*
X0113863Y0106730D01*
X0114245Y0106696D01*
X0113536Y0106696D01*
X0114245Y0106696D02*
X0114609Y0106578D01*
X0114938Y0106382D01*
X0115215Y0106118D01*
X0115427Y0105798D01*
X0115562Y0105440D01*
X0115613Y0105060D01*
X0115578Y0104660D01*
X0115455Y0104277D01*
X0115411Y0104204D02*
X0112313Y0104204D01*
X0112154Y0104702D02*
X0115582Y0104702D01*
X0115594Y0105201D02*
X0112145Y0105201D01*
X0112276Y0105699D02*
X0115464Y0105699D01*
X0115131Y0106198D02*
X0112616Y0106198D01*
X0112689Y0103705D02*
X0115035Y0103705D01*
X0104558Y0104660D02*
X0104435Y0104277D01*
X0104230Y0103931D01*
X0103952Y0103640D01*
X0103617Y0103418D01*
X0103241Y0103275D01*
X0102843Y0103220D01*
X0102450Y0103272D01*
X0102078Y0103409D01*
X0101746Y0103625D01*
X0101471Y0103910D01*
X0101266Y0104249D01*
X0101141Y0104626D01*
X0101103Y0105020D01*
X0101150Y0105404D01*
X0101281Y0105767D01*
X0101489Y0106092D01*
X0101764Y0106363D01*
X0102093Y0106566D01*
X0102459Y0106690D01*
X0102843Y0106730D01*
X0103225Y0106696D01*
X0102516Y0106696D01*
X0103225Y0106696D02*
X0103589Y0106578D01*
X0103918Y0106382D01*
X0104195Y0106118D01*
X0104407Y0105798D01*
X0104541Y0105440D01*
X0104593Y0105060D01*
X0104558Y0104660D01*
X0104562Y0104702D02*
X0101134Y0104702D01*
X0101125Y0105201D02*
X0104574Y0105201D01*
X0104444Y0105699D02*
X0101256Y0105699D01*
X0101596Y0106198D02*
X0104111Y0106198D01*
X0104391Y0104204D02*
X0101293Y0104204D01*
X0101669Y0103705D02*
X0104014Y0103705D01*
X0055563Y0104980D02*
X0055517Y0104596D01*
X0055386Y0104233D01*
X0055178Y0103908D01*
X0054902Y0103637D01*
X0054573Y0103434D01*
X0054208Y0103310D01*
X0053823Y0103270D01*
X0053442Y0103304D01*
X0053078Y0103422D01*
X0052749Y0103618D01*
X0052471Y0103882D01*
X0052260Y0104202D01*
X0052125Y0104560D01*
X0052073Y0104940D01*
X0052109Y0105340D01*
X0052232Y0105723D01*
X0052437Y0106069D01*
X0052714Y0106360D01*
X0053049Y0106582D01*
X0053425Y0106725D01*
X0053823Y0106780D01*
X0054217Y0106728D01*
X0054588Y0106591D01*
X0054920Y0106375D01*
X0055196Y0106090D01*
X0055401Y0105751D01*
X0055526Y0105374D01*
X0055563Y0104980D01*
X0055542Y0105201D02*
X0052096Y0105201D01*
X0052106Y0104702D02*
X0055530Y0104702D01*
X0055367Y0104204D02*
X0052259Y0104204D01*
X0052657Y0103705D02*
X0054972Y0103705D01*
X0055418Y0105699D02*
X0052224Y0105699D01*
X0052560Y0106198D02*
X0055091Y0106198D01*
X0054304Y0106696D02*
X0053351Y0106696D01*
X0044505Y0105374D02*
X0044543Y0104980D01*
X0044497Y0104596D01*
X0044366Y0104233D01*
X0044158Y0103908D01*
X0043882Y0103637D01*
X0043553Y0103434D01*
X0043188Y0103310D01*
X0042803Y0103270D01*
X0042422Y0103304D01*
X0042057Y0103422D01*
X0041728Y0103618D01*
X0041451Y0103882D01*
X0041240Y0104202D01*
X0041105Y0104560D01*
X0041053Y0104940D01*
X0041088Y0105340D01*
X0041212Y0105723D01*
X0041417Y0106069D01*
X0041694Y0106360D01*
X0042029Y0106582D01*
X0042405Y0106725D01*
X0042803Y0106780D01*
X0043196Y0106728D01*
X0043568Y0106591D01*
X0043900Y0106375D01*
X0044176Y0106090D01*
X0044381Y0105751D01*
X0044505Y0105374D01*
X0044522Y0105201D02*
X0041076Y0105201D01*
X0041086Y0104702D02*
X0044510Y0104702D01*
X0044347Y0104204D02*
X0041239Y0104204D01*
X0041637Y0103705D02*
X0043952Y0103705D01*
X0044398Y0105699D02*
X0041204Y0105699D01*
X0041540Y0106198D02*
X0044071Y0106198D01*
X0043284Y0106696D02*
X0042330Y0106696D01*
D14*
X0197333Y0104500D02*
X0203333Y0104500D01*
X0203333Y0114500D02*
X0197333Y0114500D01*
X0197333Y0124500D02*
X0203333Y0124500D01*
D15*
X0141333Y0114500D03*
D16*
X0349333Y0342000D03*
X0369333Y0342000D03*
D17*
X0195933Y0202100D03*
X0157233Y0140900D03*
M02*
