G75*
%MOIN*%
%OFA0B0*%
%FSLAX25Y25*%
%IPPOS*%
%LPD*%
%AMOC8*
5,1,8,0,0,1.08239X$1,22.5*
%
%ADD10C,0.00500*%
%ADD11C,0.08200*%
%ADD12C,0.12800*%
%ADD13C,0.09800*%
%ADD14C,0.07800*%
%ADD15C,0.07200*%
%ADD16C,0.13800*%
%ADD17C,0.09658*%
D10*
X0156500Y0321206D02*
X0157103Y0320934D01*
X0157744Y0320770D01*
X0158403Y0320720D01*
X0159126Y0320801D01*
X0159819Y0321022D01*
X0160456Y0321373D01*
X0161012Y0321842D01*
X0161466Y0322410D01*
X0161800Y0323056D01*
X0162002Y0323755D01*
X0162064Y0324480D01*
X0162001Y0325201D01*
X0161798Y0325895D01*
X0161464Y0326537D01*
X0161011Y0327101D01*
X0160457Y0327566D01*
X0159823Y0327914D01*
X0159133Y0328132D01*
X0158414Y0328210D01*
X0157754Y0328162D01*
X0157112Y0328000D01*
X0156509Y0327729D01*
X0155961Y0327358D01*
X0155487Y0326897D01*
X0155099Y0326360D01*
X0154811Y0325765D01*
X0154630Y0325128D01*
X0154563Y0324470D01*
X0154629Y0323812D01*
X0154807Y0323175D01*
X0155094Y0322579D01*
X0155480Y0322041D01*
X0155953Y0321579D01*
X0156500Y0321206D01*
X0156634Y0321145D02*
X0160043Y0321145D01*
X0160777Y0321644D02*
X0155887Y0321644D01*
X0155407Y0322143D02*
X0161252Y0322143D01*
X0161585Y0322641D02*
X0155064Y0322641D01*
X0154824Y0323140D02*
X0161824Y0323140D01*
X0161968Y0323638D02*
X0154677Y0323638D01*
X0154596Y0324137D02*
X0162034Y0324137D01*
X0162050Y0324635D02*
X0154580Y0324635D01*
X0154632Y0325134D02*
X0162007Y0325134D01*
X0161875Y0325632D02*
X0154773Y0325632D01*
X0154988Y0326131D02*
X0161676Y0326131D01*
X0161390Y0326629D02*
X0155293Y0326629D01*
X0155724Y0327128D02*
X0160980Y0327128D01*
X0160348Y0327626D02*
X0156357Y0327626D01*
X0157605Y0328125D02*
X0159155Y0328125D01*
X0158403Y0331741D02*
X0157744Y0331790D01*
X0157103Y0331954D01*
X0156500Y0332226D01*
X0155953Y0332599D01*
X0155480Y0333061D01*
X0155094Y0333599D01*
X0154807Y0334195D01*
X0154629Y0334832D01*
X0154563Y0335490D01*
X0154630Y0336148D01*
X0154811Y0336785D01*
X0155099Y0337380D01*
X0155487Y0337917D01*
X0155961Y0338378D01*
X0156509Y0338749D01*
X0157112Y0339020D01*
X0157754Y0339182D01*
X0158414Y0339230D01*
X0159133Y0339152D01*
X0159823Y0338934D01*
X0160457Y0338586D01*
X0161011Y0338121D01*
X0161464Y0337557D01*
X0161798Y0336915D01*
X0162001Y0336221D01*
X0162064Y0335500D01*
X0162002Y0334775D01*
X0161800Y0334077D01*
X0161466Y0333431D01*
X0161012Y0332862D01*
X0160456Y0332393D01*
X0159819Y0332042D01*
X0159126Y0331822D01*
X0158403Y0331741D01*
X0159948Y0332113D02*
X0156751Y0332113D01*
X0155941Y0332611D02*
X0160715Y0332611D01*
X0161210Y0333110D02*
X0155445Y0333110D01*
X0155090Y0333608D02*
X0161558Y0333608D01*
X0161809Y0334107D02*
X0154850Y0334107D01*
X0154692Y0334605D02*
X0161953Y0334605D01*
X0162030Y0335104D02*
X0154602Y0335104D01*
X0154575Y0335602D02*
X0162055Y0335602D01*
X0162011Y0336101D02*
X0154626Y0336101D01*
X0154758Y0336599D02*
X0161890Y0336599D01*
X0161703Y0337098D02*
X0154962Y0337098D01*
X0155255Y0337596D02*
X0161433Y0337596D01*
X0161033Y0338095D02*
X0155670Y0338095D01*
X0156279Y0338593D02*
X0160444Y0338593D01*
X0159323Y0339092D02*
X0157396Y0339092D01*
X0158403Y0360720D02*
X0157744Y0360770D01*
X0157103Y0360934D01*
X0156500Y0361206D01*
X0155953Y0361579D01*
X0155480Y0362041D01*
X0155094Y0362579D01*
X0154807Y0363175D01*
X0154629Y0363812D01*
X0154563Y0364470D01*
X0154630Y0365128D01*
X0154811Y0365765D01*
X0155099Y0366360D01*
X0155487Y0366897D01*
X0155961Y0367358D01*
X0156509Y0367729D01*
X0157112Y0368000D01*
X0157754Y0368162D01*
X0158414Y0368210D01*
X0159133Y0368132D01*
X0159823Y0367914D01*
X0160457Y0367566D01*
X0161011Y0367101D01*
X0161464Y0366537D01*
X0161798Y0365895D01*
X0162001Y0365201D01*
X0162064Y0364480D01*
X0162002Y0363755D01*
X0161800Y0363056D01*
X0161466Y0362410D01*
X0161012Y0361842D01*
X0160456Y0361373D01*
X0159819Y0361022D01*
X0159126Y0360801D01*
X0158403Y0360720D01*
X0159828Y0361026D02*
X0156898Y0361026D01*
X0156033Y0361525D02*
X0160636Y0361525D01*
X0161157Y0362023D02*
X0155498Y0362023D01*
X0155135Y0362522D02*
X0161524Y0362522D01*
X0161782Y0363020D02*
X0154882Y0363020D01*
X0154711Y0363519D02*
X0161934Y0363519D01*
X0162024Y0364017D02*
X0154608Y0364017D01*
X0154568Y0364516D02*
X0162060Y0364516D01*
X0162017Y0365014D02*
X0154619Y0365014D01*
X0154740Y0365513D02*
X0161910Y0365513D01*
X0161738Y0366012D02*
X0154930Y0366012D01*
X0155207Y0366510D02*
X0161478Y0366510D01*
X0161086Y0367009D02*
X0155602Y0367009D01*
X0156181Y0367507D02*
X0160528Y0367507D01*
X0159533Y0368006D02*
X0157133Y0368006D01*
X0157744Y0371790D02*
X0157103Y0371954D01*
X0156500Y0372226D01*
X0155953Y0372599D01*
X0155480Y0373061D01*
X0155094Y0373599D01*
X0154807Y0374195D01*
X0154629Y0374832D01*
X0154563Y0375490D01*
X0154630Y0376148D01*
X0154811Y0376785D01*
X0155099Y0377380D01*
X0155487Y0377917D01*
X0155961Y0378378D01*
X0156509Y0378749D01*
X0157112Y0379020D01*
X0157754Y0379182D01*
X0158414Y0379230D01*
X0159133Y0379152D01*
X0159823Y0378934D01*
X0160457Y0378586D01*
X0161011Y0378121D01*
X0161464Y0377557D01*
X0161798Y0376915D01*
X0162001Y0376221D01*
X0162064Y0375500D01*
X0162002Y0374775D01*
X0161800Y0374077D01*
X0161466Y0373431D01*
X0161012Y0372862D01*
X0160456Y0372393D01*
X0159819Y0372042D01*
X0159126Y0371822D01*
X0158403Y0371741D01*
X0157744Y0371790D01*
X0157015Y0371994D02*
X0159668Y0371994D01*
X0160573Y0372492D02*
X0156110Y0372492D01*
X0155552Y0372991D02*
X0161115Y0372991D01*
X0161496Y0373489D02*
X0155173Y0373489D01*
X0154907Y0373988D02*
X0161754Y0373988D01*
X0161919Y0374486D02*
X0154726Y0374486D01*
X0154614Y0374985D02*
X0162020Y0374985D01*
X0162062Y0375483D02*
X0154564Y0375483D01*
X0154613Y0375982D02*
X0162022Y0375982D01*
X0161925Y0376480D02*
X0154725Y0376480D01*
X0154905Y0376979D02*
X0161765Y0376979D01*
X0161506Y0377477D02*
X0155169Y0377477D01*
X0155547Y0377976D02*
X0161128Y0377976D01*
X0160591Y0378474D02*
X0156103Y0378474D01*
X0157006Y0378973D02*
X0159701Y0378973D01*
D11*
X0203333Y0285000D03*
X0213333Y0285000D03*
X0213333Y0275000D03*
X0203333Y0275000D03*
X0203333Y0265000D03*
X0213333Y0265000D03*
X0213333Y0255000D03*
X0203333Y0255000D03*
X0203333Y0245000D03*
X0203333Y0235000D03*
X0213333Y0235000D03*
X0213333Y0245000D03*
X0213333Y0225000D03*
X0203333Y0225000D03*
X0203333Y0215000D03*
X0213333Y0215000D03*
X0213333Y0205000D03*
X0203333Y0205000D03*
X0203333Y0195000D03*
X0213333Y0195000D03*
X0258333Y0135000D03*
X0283333Y0120000D03*
X0293333Y0120000D03*
X0303333Y0095000D03*
X0301133Y0073900D03*
X0301133Y0056100D03*
X0275533Y0056100D03*
X0275533Y0073900D03*
X0273333Y0095000D03*
X0258333Y0105000D03*
X0283333Y0155000D03*
X0293333Y0155000D03*
X0303333Y0155000D03*
X0313333Y0155000D03*
X0323333Y0155000D03*
X0333333Y0155000D03*
X0343333Y0155000D03*
X0353333Y0155000D03*
X0328333Y0135000D03*
X0353333Y0120000D03*
X0363333Y0120000D03*
X0373333Y0095000D03*
X0371133Y0073900D03*
X0371133Y0056100D03*
X0345533Y0056100D03*
X0345533Y0073900D03*
X0343333Y0095000D03*
X0328333Y0105000D03*
X0333333Y0260000D03*
X0303333Y0260000D03*
X0303333Y0315000D03*
X0293333Y0315000D03*
X0283333Y0315000D03*
X0313333Y0315000D03*
X0323333Y0315000D03*
X0333333Y0315000D03*
X0343333Y0315000D03*
X0353333Y0315000D03*
X0113333Y0155000D03*
X0083333Y0155000D03*
X0068333Y0155000D03*
X0068333Y0135000D03*
X0068333Y0115000D03*
X0068333Y0095000D03*
X0038333Y0095000D03*
X0038333Y0115000D03*
X0038333Y0135000D03*
X0038333Y0155000D03*
X0038333Y0175000D03*
X0033333Y0195000D03*
X0033333Y0205000D03*
X0033333Y0215000D03*
X0033333Y0225000D03*
X0033333Y0235000D03*
X0033333Y0245000D03*
X0033333Y0255000D03*
X0033333Y0265000D03*
X0033333Y0275000D03*
X0033333Y0285000D03*
X0043333Y0285000D03*
X0043333Y0275000D03*
X0043333Y0265000D03*
X0043333Y0255000D03*
X0043333Y0245000D03*
X0043333Y0235000D03*
X0043333Y0225000D03*
X0043333Y0215000D03*
X0043333Y0205000D03*
X0043333Y0195000D03*
X0068333Y0175000D03*
D12*
X0029333Y0323000D03*
X0029333Y0374000D03*
D13*
X0078333Y0393000D03*
X0131333Y0305000D03*
X0184333Y0393000D03*
D14*
X0190538Y0115000D03*
X0216129Y0115000D03*
D15*
X0126533Y0340000D02*
X0120133Y0340000D01*
X0120133Y0350000D02*
X0126533Y0350000D01*
X0126533Y0360000D02*
X0120133Y0360000D01*
D16*
X0064333Y0350000D03*
D17*
X0027703Y0072874D03*
X0198963Y0072874D03*
X0198963Y0057126D03*
M02*
