%
M48
M72
T01C0.02000
T02C0.03200
T03C0.03543
T04C0.04000
T05C0.05906
T06C0.08000
T07C0.09000
T08C0.13000
%
T01
X48333Y172500
X48333Y177500
X58333Y177500
T02
X283333Y120000
X293333Y120000
X353333Y120000
X363333Y120000
T03
X373333Y95000
X343333Y95000
X328333Y105000
X303333Y95000
X273333Y95000
X258333Y105000
X258333Y135000
X216129Y115000
X190538Y115000
X113333Y155000
X83333Y155000
X68333Y155000
X68333Y135000
X68333Y115000
X68333Y95000
X38333Y95000
X38333Y115000
X38333Y135000
X38333Y155000
X38333Y175000
X68333Y175000
X303333Y260000
X333333Y260000
X328333Y135000
T04
X323333Y155000
X333333Y155000
X343333Y155000
X353333Y155000
X313333Y155000
X303333Y155000
X293333Y155000
X283333Y155000
X213333Y195000
X203333Y195000
X203333Y205000
X213333Y205000
X213333Y215000
X203333Y215000
X203333Y225000
X213333Y225000
X213333Y235000
X203333Y235000
X203333Y245000
X203333Y255000
X213333Y255000
X213333Y245000
X213333Y265000
X203333Y265000
X203333Y275000
X213333Y275000
X213333Y285000
X203333Y285000
X153333Y324500
X153333Y335500
X153333Y364500
X153333Y375500
X123333Y360000
X123333Y350000
X123333Y340000
X43333Y285000
X33333Y285000
X33333Y275000
X33333Y265000
X33333Y255000
X33333Y245000
X33333Y235000
X33333Y225000
X33333Y215000
X33333Y205000
X33333Y195000
X43333Y195000
X43333Y205000
X43333Y215000
X43333Y225000
X43333Y235000
X43333Y245000
X43333Y255000
X43333Y265000
X43333Y275000
X275533Y73900
X275533Y56100
X301133Y56100
X301133Y73900
X345533Y73900
X345533Y56100
X371133Y56100
X371133Y73900
X353333Y315000
X343333Y315000
X333333Y315000
X323333Y315000
X313333Y315000
X303333Y315000
X293333Y315000
X283333Y315000
T05
X27703Y72874
X198963Y72874
X198963Y57126
T06
X29333Y323000
X29333Y374000
T07
X78333Y393000
X131333Y305000
X184333Y393000
T08
X64333Y350000
M30
