G75*
%MOIN*%
%OFA0B0*%
%FSLAX25Y25*%
%IPPOS*%
%LPD*%
%AMOC8*
5,1,8,0,0,1.08239X$1,22.5*
%
%ADD10C,0.00600*%
%ADD11C,0.00400*%
%ADD12C,0.01000*%
%ADD13C,0.00800*%
%ADD14C,0.00100*%
%ADD15C,0.00200*%
%ADD16R,0.03500X0.05000*%
D10*
X0050833Y0092500D02*
X0058333Y0092500D01*
X0058333Y0096000D01*
X0064333Y0096000D01*
X0064333Y0092500D01*
X0113333Y0092500D01*
X0113333Y0133500D01*
X0064333Y0133500D01*
X0064333Y0130000D01*
X0058333Y0130000D01*
X0058333Y0133500D01*
X0050833Y0133500D01*
X0050833Y0092500D01*
X0057233Y0113000D02*
X0057235Y0113174D01*
X0057242Y0113348D01*
X0057252Y0113522D01*
X0057267Y0113696D01*
X0057286Y0113869D01*
X0057310Y0114042D01*
X0057338Y0114214D01*
X0057369Y0114385D01*
X0057406Y0114556D01*
X0057446Y0114725D01*
X0057490Y0114894D01*
X0057539Y0115061D01*
X0057591Y0115227D01*
X0057648Y0115392D01*
X0057709Y0115555D01*
X0057773Y0115717D01*
X0057842Y0115877D01*
X0057915Y0116036D01*
X0057991Y0116192D01*
X0058071Y0116347D01*
X0058155Y0116500D01*
X0058243Y0116650D01*
X0058335Y0116798D01*
X0058430Y0116945D01*
X0058528Y0117088D01*
X0058630Y0117229D01*
X0058736Y0117368D01*
X0058845Y0117504D01*
X0058957Y0117638D01*
X0059072Y0117768D01*
X0059191Y0117896D01*
X0059313Y0118020D01*
X0059437Y0118142D01*
X0059565Y0118261D01*
X0059695Y0118376D01*
X0059829Y0118488D01*
X0059965Y0118597D01*
X0060104Y0118703D01*
X0060245Y0118805D01*
X0060388Y0118903D01*
X0060535Y0118998D01*
X0060683Y0119090D01*
X0060833Y0119178D01*
X0060986Y0119262D01*
X0061141Y0119342D01*
X0061297Y0119418D01*
X0061456Y0119491D01*
X0061616Y0119560D01*
X0061778Y0119624D01*
X0061941Y0119685D01*
X0062106Y0119742D01*
X0062272Y0119794D01*
X0062439Y0119843D01*
X0062608Y0119887D01*
X0062777Y0119927D01*
X0062948Y0119964D01*
X0063119Y0119995D01*
X0063291Y0120023D01*
X0063464Y0120047D01*
X0063637Y0120066D01*
X0063811Y0120081D01*
X0063985Y0120091D01*
X0064159Y0120098D01*
X0064333Y0120100D01*
X0064507Y0120098D01*
X0064681Y0120091D01*
X0064855Y0120081D01*
X0065029Y0120066D01*
X0065202Y0120047D01*
X0065375Y0120023D01*
X0065547Y0119995D01*
X0065718Y0119964D01*
X0065889Y0119927D01*
X0066058Y0119887D01*
X0066227Y0119843D01*
X0066394Y0119794D01*
X0066560Y0119742D01*
X0066725Y0119685D01*
X0066888Y0119624D01*
X0067050Y0119560D01*
X0067210Y0119491D01*
X0067369Y0119418D01*
X0067525Y0119342D01*
X0067680Y0119262D01*
X0067833Y0119178D01*
X0067983Y0119090D01*
X0068131Y0118998D01*
X0068278Y0118903D01*
X0068421Y0118805D01*
X0068562Y0118703D01*
X0068701Y0118597D01*
X0068837Y0118488D01*
X0068971Y0118376D01*
X0069101Y0118261D01*
X0069229Y0118142D01*
X0069353Y0118020D01*
X0069475Y0117896D01*
X0069594Y0117768D01*
X0069709Y0117638D01*
X0069821Y0117504D01*
X0069930Y0117368D01*
X0070036Y0117229D01*
X0070138Y0117088D01*
X0070236Y0116945D01*
X0070331Y0116798D01*
X0070423Y0116650D01*
X0070511Y0116500D01*
X0070595Y0116347D01*
X0070675Y0116192D01*
X0070751Y0116036D01*
X0070824Y0115877D01*
X0070893Y0115717D01*
X0070957Y0115555D01*
X0071018Y0115392D01*
X0071075Y0115227D01*
X0071127Y0115061D01*
X0071176Y0114894D01*
X0071220Y0114725D01*
X0071260Y0114556D01*
X0071297Y0114385D01*
X0071328Y0114214D01*
X0071356Y0114042D01*
X0071380Y0113869D01*
X0071399Y0113696D01*
X0071414Y0113522D01*
X0071424Y0113348D01*
X0071431Y0113174D01*
X0071433Y0113000D01*
X0071431Y0112826D01*
X0071424Y0112652D01*
X0071414Y0112478D01*
X0071399Y0112304D01*
X0071380Y0112131D01*
X0071356Y0111958D01*
X0071328Y0111786D01*
X0071297Y0111615D01*
X0071260Y0111444D01*
X0071220Y0111275D01*
X0071176Y0111106D01*
X0071127Y0110939D01*
X0071075Y0110773D01*
X0071018Y0110608D01*
X0070957Y0110445D01*
X0070893Y0110283D01*
X0070824Y0110123D01*
X0070751Y0109964D01*
X0070675Y0109808D01*
X0070595Y0109653D01*
X0070511Y0109500D01*
X0070423Y0109350D01*
X0070331Y0109202D01*
X0070236Y0109055D01*
X0070138Y0108912D01*
X0070036Y0108771D01*
X0069930Y0108632D01*
X0069821Y0108496D01*
X0069709Y0108362D01*
X0069594Y0108232D01*
X0069475Y0108104D01*
X0069353Y0107980D01*
X0069229Y0107858D01*
X0069101Y0107739D01*
X0068971Y0107624D01*
X0068837Y0107512D01*
X0068701Y0107403D01*
X0068562Y0107297D01*
X0068421Y0107195D01*
X0068278Y0107097D01*
X0068131Y0107002D01*
X0067983Y0106910D01*
X0067833Y0106822D01*
X0067680Y0106738D01*
X0067525Y0106658D01*
X0067369Y0106582D01*
X0067210Y0106509D01*
X0067050Y0106440D01*
X0066888Y0106376D01*
X0066725Y0106315D01*
X0066560Y0106258D01*
X0066394Y0106206D01*
X0066227Y0106157D01*
X0066058Y0106113D01*
X0065889Y0106073D01*
X0065718Y0106036D01*
X0065547Y0106005D01*
X0065375Y0105977D01*
X0065202Y0105953D01*
X0065029Y0105934D01*
X0064855Y0105919D01*
X0064681Y0105909D01*
X0064507Y0105902D01*
X0064333Y0105900D01*
X0064159Y0105902D01*
X0063985Y0105909D01*
X0063811Y0105919D01*
X0063637Y0105934D01*
X0063464Y0105953D01*
X0063291Y0105977D01*
X0063119Y0106005D01*
X0062948Y0106036D01*
X0062777Y0106073D01*
X0062608Y0106113D01*
X0062439Y0106157D01*
X0062272Y0106206D01*
X0062106Y0106258D01*
X0061941Y0106315D01*
X0061778Y0106376D01*
X0061616Y0106440D01*
X0061456Y0106509D01*
X0061297Y0106582D01*
X0061141Y0106658D01*
X0060986Y0106738D01*
X0060833Y0106822D01*
X0060683Y0106910D01*
X0060535Y0107002D01*
X0060388Y0107097D01*
X0060245Y0107195D01*
X0060104Y0107297D01*
X0059965Y0107403D01*
X0059829Y0107512D01*
X0059695Y0107624D01*
X0059565Y0107739D01*
X0059437Y0107858D01*
X0059313Y0107980D01*
X0059191Y0108104D01*
X0059072Y0108232D01*
X0058957Y0108362D01*
X0058845Y0108496D01*
X0058736Y0108632D01*
X0058630Y0108771D01*
X0058528Y0108912D01*
X0058430Y0109055D01*
X0058335Y0109202D01*
X0058243Y0109350D01*
X0058155Y0109500D01*
X0058071Y0109653D01*
X0057991Y0109808D01*
X0057915Y0109964D01*
X0057842Y0110123D01*
X0057773Y0110283D01*
X0057709Y0110445D01*
X0057648Y0110608D01*
X0057591Y0110773D01*
X0057539Y0110939D01*
X0057490Y0111106D01*
X0057446Y0111275D01*
X0057406Y0111444D01*
X0057369Y0111615D01*
X0057338Y0111786D01*
X0057310Y0111958D01*
X0057286Y0112131D01*
X0057267Y0112304D01*
X0057252Y0112478D01*
X0057242Y0112652D01*
X0057235Y0112826D01*
X0057233Y0113000D01*
X0173333Y0103000D02*
X0176333Y0100000D01*
X0190333Y0100000D01*
X0193333Y0103000D01*
X0193333Y0137000D01*
X0190333Y0140000D01*
X0176333Y0140000D01*
X0173333Y0137000D01*
X0205633Y0012205D02*
X0208836Y0012205D01*
X0209904Y0011138D01*
X0209904Y0009003D01*
X0208836Y0007935D01*
X0205633Y0007935D01*
X0205633Y0005800D02*
X0205633Y0012205D01*
X0212079Y0012205D02*
X0212079Y0005800D01*
X0212079Y0009003D02*
X0213146Y0010070D01*
X0215282Y0010070D01*
X0216349Y0009003D01*
X0216349Y0005800D01*
X0218524Y0005800D02*
X0220659Y0005800D01*
X0219592Y0005800D02*
X0219592Y0010070D01*
X0218524Y0010070D01*
X0219592Y0012205D02*
X0219592Y0013273D01*
X0229267Y0012205D02*
X0229267Y0005800D01*
X0233537Y0005800D01*
X0235712Y0006868D02*
X0236780Y0005800D01*
X0239983Y0005800D01*
X0239983Y0010070D01*
X0242158Y0010070D02*
X0242158Y0006868D01*
X0243225Y0005800D01*
X0246428Y0005800D01*
X0246428Y0010070D01*
X0235712Y0010070D02*
X0235712Y0006868D01*
D11*
X0125633Y0136388D02*
X0121029Y0136388D01*
X0121029Y0138690D01*
X0121797Y0139457D01*
X0123331Y0139457D01*
X0124099Y0138690D01*
X0124099Y0136388D01*
X0123331Y0140992D02*
X0123331Y0144061D01*
X0122564Y0144061D02*
X0125633Y0144061D01*
X0125633Y0145596D02*
X0124866Y0145596D01*
X0121797Y0148665D01*
X0121029Y0148665D01*
X0121029Y0145596D01*
X0122564Y0144061D02*
X0121029Y0142527D01*
X0122564Y0140992D01*
X0125633Y0140992D01*
X0115633Y0140992D02*
X0112564Y0140992D01*
X0111029Y0142527D01*
X0112564Y0144061D01*
X0115633Y0144061D01*
X0114866Y0145596D02*
X0115633Y0146363D01*
X0115633Y0147898D01*
X0114866Y0148665D01*
X0114099Y0148665D01*
X0113331Y0147898D01*
X0113331Y0145596D01*
X0114866Y0145596D01*
X0113331Y0145596D02*
X0111797Y0147131D01*
X0111029Y0148665D01*
X0105633Y0147898D02*
X0105633Y0146363D01*
X0104866Y0145596D01*
X0103331Y0145596D02*
X0102564Y0147131D01*
X0102564Y0147898D01*
X0103331Y0148665D01*
X0104866Y0148665D01*
X0105633Y0147898D01*
X0103331Y0145596D02*
X0101029Y0145596D01*
X0101029Y0148665D01*
X0095633Y0147898D02*
X0091029Y0147898D01*
X0093331Y0145596D01*
X0093331Y0148665D01*
X0092564Y0144061D02*
X0093331Y0143294D01*
X0093331Y0140992D01*
X0093331Y0139457D02*
X0094099Y0138690D01*
X0094099Y0136388D01*
X0095633Y0136388D02*
X0091029Y0136388D01*
X0091029Y0138690D01*
X0091797Y0139457D01*
X0093331Y0139457D01*
X0091029Y0140992D02*
X0091029Y0143294D01*
X0091797Y0144061D01*
X0092564Y0144061D01*
X0093331Y0143294D02*
X0094099Y0144061D01*
X0094866Y0144061D01*
X0095633Y0143294D01*
X0095633Y0140992D01*
X0091029Y0140992D01*
X0085633Y0140992D02*
X0085633Y0144061D01*
X0084866Y0145596D02*
X0085633Y0146363D01*
X0085633Y0147898D01*
X0084866Y0148665D01*
X0083331Y0148665D01*
X0082564Y0147898D01*
X0082564Y0147131D01*
X0083331Y0145596D01*
X0081029Y0145596D01*
X0081029Y0148665D01*
X0075633Y0147898D02*
X0071029Y0147898D01*
X0073331Y0145596D01*
X0073331Y0148665D01*
X0071029Y0144061D02*
X0071029Y0140992D01*
X0075633Y0140992D01*
X0075633Y0144061D01*
X0073331Y0142527D02*
X0073331Y0140992D01*
X0073331Y0139457D02*
X0074099Y0138690D01*
X0074099Y0136388D01*
X0075633Y0136388D02*
X0071029Y0136388D01*
X0071029Y0138690D01*
X0071797Y0139457D01*
X0073331Y0139457D01*
X0081029Y0138690D02*
X0081029Y0136388D01*
X0085633Y0136388D01*
X0084099Y0136388D02*
X0084099Y0138690D01*
X0083331Y0139457D01*
X0081797Y0139457D01*
X0081029Y0138690D01*
X0081029Y0140992D02*
X0085633Y0140992D01*
X0083331Y0140992D02*
X0083331Y0142527D01*
X0081029Y0144061D02*
X0081029Y0140992D01*
X0065633Y0140992D02*
X0065633Y0143294D01*
X0064866Y0144061D01*
X0064099Y0144061D01*
X0063331Y0143294D01*
X0063331Y0140992D01*
X0063331Y0139457D02*
X0064099Y0138690D01*
X0064099Y0136388D01*
X0065633Y0136388D02*
X0061029Y0136388D01*
X0061029Y0138690D01*
X0061797Y0139457D01*
X0063331Y0139457D01*
X0061029Y0140992D02*
X0061029Y0143294D01*
X0061797Y0144061D01*
X0062564Y0144061D01*
X0063331Y0143294D01*
X0062564Y0145596D02*
X0061029Y0147131D01*
X0065633Y0147131D01*
X0065633Y0148665D02*
X0065633Y0145596D01*
X0065633Y0140992D02*
X0061029Y0140992D01*
X0055633Y0140992D02*
X0055633Y0143294D01*
X0054866Y0144061D01*
X0054099Y0144061D01*
X0053331Y0143294D01*
X0053331Y0140992D01*
X0053331Y0139457D02*
X0054099Y0138690D01*
X0054099Y0136388D01*
X0055633Y0136388D02*
X0051029Y0136388D01*
X0051029Y0138690D01*
X0051797Y0139457D01*
X0053331Y0139457D01*
X0055633Y0140992D02*
X0051029Y0140992D01*
X0051029Y0143294D01*
X0051797Y0144061D01*
X0052564Y0144061D01*
X0053331Y0143294D01*
X0051797Y0145596D02*
X0051029Y0146363D01*
X0051029Y0147898D01*
X0051797Y0148665D01*
X0054866Y0145596D01*
X0055633Y0146363D01*
X0055633Y0147898D01*
X0054866Y0148665D01*
X0051797Y0148665D01*
X0051797Y0145596D02*
X0054866Y0145596D01*
X0045633Y0146363D02*
X0044866Y0145596D01*
X0045633Y0146363D02*
X0045633Y0147898D01*
X0044866Y0148665D01*
X0043331Y0148665D01*
X0042564Y0147898D01*
X0042564Y0147131D01*
X0043331Y0145596D01*
X0041029Y0145596D01*
X0041029Y0148665D01*
X0035633Y0147131D02*
X0034099Y0148665D01*
X0031029Y0148665D01*
X0031029Y0145596D02*
X0034099Y0145596D01*
X0035633Y0147131D01*
X0034866Y0144061D02*
X0034099Y0144061D01*
X0033331Y0143294D01*
X0033331Y0142527D01*
X0033331Y0143294D02*
X0032564Y0144061D01*
X0031797Y0144061D01*
X0031029Y0143294D01*
X0031029Y0141759D01*
X0031797Y0140992D01*
X0034866Y0140992D02*
X0035633Y0141759D01*
X0035633Y0143294D01*
X0034866Y0144061D01*
X0034866Y0139457D02*
X0035633Y0139457D01*
X0035633Y0138690D01*
X0034866Y0138690D01*
X0034866Y0139457D01*
X0034866Y0137155D02*
X0034099Y0137155D01*
X0033331Y0136388D01*
X0033331Y0135621D01*
X0033331Y0136388D02*
X0032564Y0137155D01*
X0031797Y0137155D01*
X0031029Y0136388D01*
X0031029Y0134854D01*
X0031797Y0134086D01*
X0033331Y0132552D02*
X0033331Y0129482D01*
X0031797Y0131017D02*
X0034866Y0131017D01*
X0034866Y0134086D02*
X0035633Y0134854D01*
X0035633Y0136388D01*
X0034866Y0137155D01*
X0041029Y0136388D02*
X0041029Y0138690D01*
X0041797Y0139457D01*
X0043331Y0139457D01*
X0044099Y0138690D01*
X0044099Y0136388D01*
X0045633Y0136388D02*
X0041029Y0136388D01*
X0041029Y0140992D02*
X0041029Y0143294D01*
X0041797Y0144061D01*
X0042564Y0144061D01*
X0043331Y0143294D01*
X0043331Y0140992D01*
X0045633Y0140992D02*
X0041029Y0140992D01*
X0043331Y0143294D02*
X0044099Y0144061D01*
X0044866Y0144061D01*
X0045633Y0143294D01*
X0045633Y0140992D01*
X0044866Y0171200D02*
X0041797Y0171200D01*
X0041029Y0171967D01*
X0041029Y0173502D01*
X0041797Y0174269D01*
X0043331Y0174269D02*
X0043331Y0172735D01*
X0043331Y0174269D02*
X0044866Y0174269D01*
X0045633Y0173502D01*
X0045633Y0171967D01*
X0044866Y0171200D01*
X0045633Y0175804D02*
X0041029Y0175804D01*
X0045633Y0178873D01*
X0041029Y0178873D01*
X0041029Y0180408D02*
X0041029Y0182710D01*
X0041797Y0183477D01*
X0044866Y0183477D01*
X0045633Y0182710D01*
X0045633Y0180408D01*
X0041029Y0180408D01*
X0035633Y0181175D02*
X0035633Y0182710D01*
X0034866Y0183477D01*
X0031029Y0183477D01*
X0031797Y0185012D02*
X0032564Y0185012D01*
X0033331Y0185779D01*
X0033331Y0187314D01*
X0034099Y0188081D01*
X0034866Y0188081D01*
X0035633Y0187314D01*
X0035633Y0185779D01*
X0034866Y0185012D01*
X0031797Y0185012D02*
X0031029Y0185779D01*
X0031029Y0187314D01*
X0031797Y0188081D01*
X0035633Y0181175D02*
X0034866Y0180408D01*
X0031029Y0180408D01*
X0031797Y0178873D02*
X0032564Y0178873D01*
X0033331Y0178106D01*
X0033331Y0175804D01*
X0034099Y0174269D02*
X0031029Y0174269D01*
X0031029Y0175804D02*
X0031029Y0178106D01*
X0031797Y0178873D01*
X0033331Y0178106D02*
X0034099Y0178873D01*
X0034866Y0178873D01*
X0035633Y0178106D01*
X0035633Y0175804D01*
X0031029Y0175804D01*
X0034099Y0174269D02*
X0035633Y0172735D01*
X0034099Y0171200D01*
X0031029Y0171200D01*
X0051029Y0171200D02*
X0051029Y0173502D01*
X0051797Y0174269D01*
X0053331Y0174269D01*
X0054099Y0173502D01*
X0054099Y0171200D01*
X0055633Y0171200D02*
X0051029Y0171200D01*
X0051029Y0175804D02*
X0051029Y0178106D01*
X0051797Y0178873D01*
X0054866Y0178873D01*
X0055633Y0178106D01*
X0055633Y0175804D01*
X0051029Y0175804D01*
X0051797Y0180408D02*
X0051029Y0181175D01*
X0051029Y0182710D01*
X0051797Y0183477D01*
X0054866Y0180408D01*
X0055633Y0181175D01*
X0055633Y0182710D01*
X0054866Y0183477D01*
X0051797Y0183477D01*
X0051797Y0180408D02*
X0054866Y0180408D01*
X0061029Y0181942D02*
X0062564Y0180408D01*
X0061797Y0178873D02*
X0061029Y0178106D01*
X0061029Y0175804D01*
X0065633Y0175804D01*
X0065633Y0178106D01*
X0064866Y0178873D01*
X0061797Y0178873D01*
X0061029Y0181942D02*
X0065633Y0181942D01*
X0065633Y0180408D02*
X0065633Y0183477D01*
X0071029Y0182710D02*
X0071029Y0181175D01*
X0071797Y0180408D01*
X0071797Y0178873D02*
X0071029Y0178106D01*
X0071029Y0175804D01*
X0075633Y0175804D01*
X0075633Y0178106D01*
X0074866Y0178873D01*
X0071797Y0178873D01*
X0071029Y0182710D02*
X0071797Y0183477D01*
X0072564Y0183477D01*
X0075633Y0180408D01*
X0075633Y0183477D01*
X0081029Y0182710D02*
X0081797Y0183477D01*
X0082564Y0183477D01*
X0083331Y0182710D01*
X0084099Y0183477D01*
X0084866Y0183477D01*
X0085633Y0182710D01*
X0085633Y0181175D01*
X0084866Y0180408D01*
X0084866Y0178873D02*
X0081797Y0178873D01*
X0081029Y0178106D01*
X0081029Y0175804D01*
X0085633Y0175804D01*
X0085633Y0178106D01*
X0084866Y0178873D01*
X0081797Y0180408D02*
X0081029Y0181175D01*
X0081029Y0182710D01*
X0083331Y0182710D02*
X0083331Y0181942D01*
X0083331Y0174269D02*
X0084099Y0173502D01*
X0084099Y0171200D01*
X0085633Y0171200D02*
X0081029Y0171200D01*
X0081029Y0173502D01*
X0081797Y0174269D01*
X0083331Y0174269D01*
X0091029Y0173502D02*
X0091797Y0174269D01*
X0093331Y0174269D01*
X0094099Y0173502D01*
X0094099Y0171200D01*
X0095633Y0171200D02*
X0091029Y0171200D01*
X0091029Y0173502D01*
X0091029Y0175804D02*
X0095633Y0175804D01*
X0095633Y0178873D01*
X0095633Y0180408D02*
X0095633Y0183477D01*
X0095633Y0181942D02*
X0091029Y0181942D01*
X0092564Y0180408D01*
X0091029Y0178873D02*
X0091029Y0175804D01*
X0093331Y0175804D02*
X0093331Y0177339D01*
X0101029Y0178873D02*
X0101029Y0175804D01*
X0105633Y0175804D01*
X0105633Y0178873D01*
X0105633Y0180408D02*
X0102564Y0183477D01*
X0101797Y0183477D01*
X0101029Y0182710D01*
X0101029Y0181175D01*
X0101797Y0180408D01*
X0103331Y0177339D02*
X0103331Y0175804D01*
X0103331Y0174269D02*
X0104099Y0173502D01*
X0104099Y0171200D01*
X0105633Y0171200D02*
X0101029Y0171200D01*
X0101029Y0173502D01*
X0101797Y0174269D01*
X0103331Y0174269D01*
X0105633Y0180408D02*
X0105633Y0183477D01*
X0111029Y0182710D02*
X0111797Y0183477D01*
X0112564Y0183477D01*
X0113331Y0182710D01*
X0114099Y0183477D01*
X0114866Y0183477D01*
X0115633Y0182710D01*
X0115633Y0181175D01*
X0114866Y0180408D01*
X0115633Y0178873D02*
X0115633Y0175804D01*
X0111029Y0175804D01*
X0111029Y0178873D01*
X0111797Y0180408D02*
X0111029Y0181175D01*
X0111029Y0182710D01*
X0113331Y0182710D02*
X0113331Y0181942D01*
X0113331Y0177339D02*
X0113331Y0175804D01*
X0113331Y0174269D02*
X0114099Y0173502D01*
X0114099Y0171200D01*
X0115633Y0171200D02*
X0111029Y0171200D01*
X0111029Y0173502D01*
X0111797Y0174269D01*
X0113331Y0174269D01*
X0121029Y0173502D02*
X0121797Y0174269D01*
X0123331Y0174269D01*
X0124099Y0173502D01*
X0124099Y0171200D01*
X0125633Y0171200D02*
X0121029Y0171200D01*
X0121029Y0173502D01*
X0121029Y0175804D02*
X0121029Y0178873D01*
X0122564Y0180408D02*
X0121029Y0181942D01*
X0125633Y0181942D01*
X0125633Y0180408D02*
X0125633Y0183477D01*
X0123331Y0177339D02*
X0123331Y0175804D01*
X0125633Y0175804D02*
X0121029Y0175804D01*
X0113331Y0144061D02*
X0113331Y0140992D01*
X0113331Y0139457D02*
X0114099Y0138690D01*
X0114099Y0136388D01*
X0115633Y0136388D02*
X0111029Y0136388D01*
X0111029Y0138690D01*
X0111797Y0139457D01*
X0113331Y0139457D01*
X0105633Y0140992D02*
X0102564Y0140992D01*
X0101029Y0142527D01*
X0102564Y0144061D01*
X0105633Y0144061D01*
X0103331Y0144061D02*
X0103331Y0140992D01*
X0103331Y0139457D02*
X0104099Y0138690D01*
X0104099Y0136388D01*
X0105633Y0136388D02*
X0101029Y0136388D01*
X0101029Y0138690D01*
X0101797Y0139457D01*
X0103331Y0139457D01*
X0075633Y0171200D02*
X0071029Y0171200D01*
X0071029Y0173502D01*
X0071797Y0174269D01*
X0073331Y0174269D01*
X0074099Y0173502D01*
X0074099Y0171200D01*
X0065633Y0171200D02*
X0061029Y0171200D01*
X0061029Y0173502D01*
X0061797Y0174269D01*
X0063331Y0174269D01*
X0064099Y0173502D01*
X0064099Y0171200D01*
X0064099Y0306388D02*
X0064099Y0308690D01*
X0063331Y0309457D01*
X0061797Y0309457D01*
X0061029Y0308690D01*
X0061029Y0306388D01*
X0065633Y0306388D01*
X0064866Y0310992D02*
X0061797Y0310992D01*
X0061029Y0311759D01*
X0061029Y0313294D01*
X0061797Y0314061D01*
X0063331Y0315596D02*
X0063331Y0318665D01*
X0061029Y0317898D02*
X0063331Y0315596D01*
X0064866Y0314061D02*
X0065633Y0313294D01*
X0065633Y0311759D01*
X0064866Y0310992D01*
X0071029Y0311759D02*
X0071797Y0310992D01*
X0074866Y0310992D01*
X0075633Y0311759D01*
X0075633Y0313294D01*
X0074866Y0314061D01*
X0074866Y0315596D02*
X0075633Y0316363D01*
X0075633Y0317898D01*
X0074866Y0318665D01*
X0073331Y0318665D01*
X0072564Y0317898D01*
X0072564Y0317131D01*
X0073331Y0315596D01*
X0071029Y0315596D01*
X0071029Y0318665D01*
X0065633Y0317898D02*
X0061029Y0317898D01*
X0055633Y0317898D02*
X0055633Y0316363D01*
X0054866Y0315596D01*
X0054866Y0314061D02*
X0055633Y0313294D01*
X0055633Y0310992D01*
X0051029Y0310992D01*
X0051029Y0313294D01*
X0051797Y0314061D01*
X0052564Y0314061D01*
X0053331Y0313294D01*
X0053331Y0310992D01*
X0053331Y0309457D02*
X0054099Y0308690D01*
X0054099Y0306388D01*
X0055633Y0306388D02*
X0051029Y0306388D01*
X0051029Y0308690D01*
X0051797Y0309457D01*
X0053331Y0309457D01*
X0053331Y0313294D02*
X0054099Y0314061D01*
X0054866Y0314061D01*
X0051797Y0315596D02*
X0051029Y0316363D01*
X0051029Y0317898D01*
X0051797Y0318665D01*
X0052564Y0318665D01*
X0053331Y0317898D01*
X0054099Y0318665D01*
X0054866Y0318665D01*
X0055633Y0317898D01*
X0053331Y0317898D02*
X0053331Y0317131D01*
X0045633Y0317898D02*
X0045633Y0316363D01*
X0044866Y0315596D01*
X0043331Y0317131D02*
X0043331Y0317898D01*
X0044099Y0318665D01*
X0044866Y0318665D01*
X0045633Y0317898D01*
X0043331Y0317898D02*
X0042564Y0318665D01*
X0041797Y0318665D01*
X0041029Y0317898D01*
X0041029Y0316363D01*
X0041797Y0315596D01*
X0041029Y0314061D02*
X0041029Y0310992D01*
X0045633Y0310992D01*
X0043331Y0310992D02*
X0043331Y0312527D01*
X0043331Y0309457D02*
X0041797Y0309457D01*
X0041029Y0308690D01*
X0041029Y0306388D01*
X0045633Y0306388D01*
X0044099Y0306388D02*
X0044099Y0308690D01*
X0043331Y0309457D01*
X0035633Y0310992D02*
X0031029Y0310992D01*
X0031029Y0314061D01*
X0031797Y0315596D02*
X0031029Y0316363D01*
X0031029Y0317898D01*
X0031797Y0318665D01*
X0032564Y0318665D01*
X0035633Y0315596D01*
X0035633Y0318665D01*
X0033331Y0312527D02*
X0033331Y0310992D01*
X0033331Y0309457D02*
X0034099Y0308690D01*
X0034099Y0306388D01*
X0035633Y0306388D02*
X0031029Y0306388D01*
X0031029Y0308690D01*
X0031797Y0309457D01*
X0033331Y0309457D01*
X0031797Y0341200D02*
X0034866Y0341200D01*
X0035633Y0341967D01*
X0035633Y0343502D01*
X0034866Y0344269D01*
X0033331Y0344269D01*
X0033331Y0342735D01*
X0031797Y0344269D02*
X0031029Y0343502D01*
X0031029Y0341967D01*
X0031797Y0341200D01*
X0031029Y0345804D02*
X0035633Y0348873D01*
X0031029Y0348873D01*
X0031029Y0350408D02*
X0031029Y0352710D01*
X0031797Y0353477D01*
X0034866Y0353477D01*
X0035633Y0352710D01*
X0035633Y0350408D01*
X0031029Y0350408D01*
X0031029Y0345804D02*
X0035633Y0345804D01*
X0041029Y0345804D02*
X0041029Y0348106D01*
X0041797Y0348873D01*
X0042564Y0348873D01*
X0043331Y0348106D01*
X0043331Y0345804D01*
X0043331Y0344269D02*
X0044099Y0343502D01*
X0044099Y0341200D01*
X0045633Y0341200D02*
X0041029Y0341200D01*
X0041029Y0343502D01*
X0041797Y0344269D01*
X0043331Y0344269D01*
X0045633Y0345804D02*
X0041029Y0345804D01*
X0043331Y0348106D02*
X0044099Y0348873D01*
X0044866Y0348873D01*
X0045633Y0348106D01*
X0045633Y0345804D01*
X0045633Y0350408D02*
X0042564Y0353477D01*
X0041797Y0353477D01*
X0041029Y0352710D01*
X0041029Y0351175D01*
X0041797Y0350408D01*
X0045633Y0350408D02*
X0045633Y0353477D01*
X0051029Y0352710D02*
X0051797Y0353477D01*
X0054866Y0350408D01*
X0055633Y0351175D01*
X0055633Y0352710D01*
X0054866Y0353477D01*
X0051797Y0353477D01*
X0051029Y0352710D02*
X0051029Y0351175D01*
X0051797Y0350408D01*
X0054866Y0350408D01*
X0055633Y0348873D02*
X0055633Y0345804D01*
X0051029Y0345804D01*
X0051029Y0348873D01*
X0053331Y0347339D02*
X0053331Y0345804D01*
X0053331Y0344269D02*
X0054099Y0343502D01*
X0054099Y0341200D01*
X0055633Y0341200D02*
X0051029Y0341200D01*
X0051029Y0343502D01*
X0051797Y0344269D01*
X0053331Y0344269D01*
X0061029Y0343502D02*
X0061797Y0344269D01*
X0063331Y0344269D01*
X0064099Y0343502D01*
X0064099Y0341200D01*
X0065633Y0341200D02*
X0061029Y0341200D01*
X0061029Y0343502D01*
X0061029Y0345804D02*
X0061029Y0348873D01*
X0061797Y0350408D02*
X0061029Y0351175D01*
X0061029Y0352710D01*
X0061797Y0353477D01*
X0064866Y0350408D01*
X0065633Y0351175D01*
X0065633Y0352710D01*
X0064866Y0353477D01*
X0061797Y0353477D01*
X0061797Y0350408D02*
X0064866Y0350408D01*
X0063331Y0347339D02*
X0063331Y0345804D01*
X0065633Y0345804D02*
X0061029Y0345804D01*
X0071029Y0346571D02*
X0071797Y0345804D01*
X0072564Y0345804D01*
X0073331Y0346571D01*
X0073331Y0348106D01*
X0074099Y0348873D01*
X0074866Y0348873D01*
X0075633Y0348106D01*
X0075633Y0346571D01*
X0074866Y0345804D01*
X0075633Y0344269D02*
X0074099Y0342735D01*
X0074099Y0343502D02*
X0074099Y0341200D01*
X0075633Y0341200D02*
X0071029Y0341200D01*
X0071029Y0343502D01*
X0071797Y0344269D01*
X0073331Y0344269D01*
X0074099Y0343502D01*
X0071029Y0346571D02*
X0071029Y0348106D01*
X0071797Y0348873D01*
X0071029Y0350408D02*
X0071029Y0353477D01*
X0071029Y0351942D02*
X0075633Y0351942D01*
X0081029Y0350408D02*
X0081029Y0353477D01*
X0081797Y0353477D01*
X0084866Y0350408D01*
X0085633Y0350408D01*
X0084866Y0348873D02*
X0085633Y0348106D01*
X0085633Y0345804D01*
X0081029Y0345804D01*
X0081029Y0348106D01*
X0081797Y0348873D01*
X0082564Y0348873D01*
X0083331Y0348106D01*
X0083331Y0345804D01*
X0083331Y0344269D02*
X0084099Y0343502D01*
X0084099Y0341200D01*
X0085633Y0341200D02*
X0081029Y0341200D01*
X0081029Y0343502D01*
X0081797Y0344269D01*
X0083331Y0344269D01*
X0083331Y0348106D02*
X0084099Y0348873D01*
X0084866Y0348873D01*
X0091029Y0348106D02*
X0091029Y0345804D01*
X0095633Y0345804D01*
X0095633Y0348106D01*
X0094866Y0348873D01*
X0094099Y0348873D01*
X0093331Y0348106D01*
X0093331Y0345804D01*
X0093331Y0344269D02*
X0094099Y0343502D01*
X0094099Y0341200D01*
X0095633Y0341200D02*
X0091029Y0341200D01*
X0091029Y0343502D01*
X0091797Y0344269D01*
X0093331Y0344269D01*
X0093331Y0348106D02*
X0092564Y0348873D01*
X0091797Y0348873D01*
X0091029Y0348106D01*
X0093331Y0350408D02*
X0093331Y0352710D01*
X0094099Y0353477D01*
X0094866Y0353477D01*
X0095633Y0352710D01*
X0095633Y0351175D01*
X0094866Y0350408D01*
X0093331Y0350408D01*
X0091797Y0351942D01*
X0091029Y0353477D01*
X0101029Y0352710D02*
X0103331Y0350408D01*
X0103331Y0353477D01*
X0105633Y0352710D02*
X0101029Y0352710D01*
X0102564Y0348873D02*
X0105633Y0348873D01*
X0103331Y0348873D02*
X0103331Y0345804D01*
X0102564Y0345804D02*
X0105633Y0345804D01*
X0103331Y0344269D02*
X0104099Y0343502D01*
X0104099Y0341200D01*
X0105633Y0341200D02*
X0101029Y0341200D01*
X0101029Y0343502D01*
X0101797Y0344269D01*
X0103331Y0344269D01*
X0102564Y0345804D02*
X0101029Y0347339D01*
X0102564Y0348873D01*
X0111029Y0347339D02*
X0112564Y0348873D01*
X0115633Y0348873D01*
X0114866Y0350408D02*
X0115633Y0351175D01*
X0115633Y0352710D01*
X0114866Y0353477D01*
X0114099Y0353477D01*
X0113331Y0352710D01*
X0113331Y0351942D01*
X0113331Y0352710D02*
X0112564Y0353477D01*
X0111797Y0353477D01*
X0111029Y0352710D01*
X0111029Y0351175D01*
X0111797Y0350408D01*
X0113331Y0348873D02*
X0113331Y0345804D01*
X0112564Y0345804D02*
X0111029Y0347339D01*
X0112564Y0345804D02*
X0115633Y0345804D01*
X0113331Y0344269D02*
X0114099Y0343502D01*
X0114099Y0341200D01*
X0115633Y0341200D02*
X0111029Y0341200D01*
X0111029Y0343502D01*
X0111797Y0344269D01*
X0113331Y0344269D01*
X0121029Y0343502D02*
X0121797Y0344269D01*
X0123331Y0344269D01*
X0124099Y0343502D01*
X0124099Y0341200D01*
X0125633Y0341200D02*
X0121029Y0341200D01*
X0121029Y0343502D01*
X0122564Y0345804D02*
X0121029Y0347339D01*
X0122564Y0348873D01*
X0125633Y0348873D01*
X0125633Y0350408D02*
X0122564Y0353477D01*
X0121797Y0353477D01*
X0121029Y0352710D01*
X0121029Y0351175D01*
X0121797Y0350408D01*
X0123331Y0348873D02*
X0123331Y0345804D01*
X0122564Y0345804D02*
X0125633Y0345804D01*
X0125633Y0350408D02*
X0125633Y0353477D01*
X0123331Y0318665D02*
X0123331Y0315596D01*
X0121029Y0317898D01*
X0125633Y0317898D01*
X0123331Y0312527D02*
X0123331Y0310992D01*
X0123331Y0309457D02*
X0124099Y0308690D01*
X0124099Y0306388D01*
X0125633Y0306388D02*
X0121029Y0306388D01*
X0121029Y0308690D01*
X0121797Y0309457D01*
X0123331Y0309457D01*
X0121029Y0310992D02*
X0121029Y0314061D01*
X0121029Y0310992D02*
X0125633Y0310992D01*
X0115633Y0310992D02*
X0115633Y0313294D01*
X0114866Y0314061D01*
X0111797Y0314061D01*
X0111029Y0313294D01*
X0111029Y0310992D01*
X0115633Y0310992D01*
X0113331Y0309457D02*
X0114099Y0308690D01*
X0114099Y0306388D01*
X0115633Y0306388D02*
X0111029Y0306388D01*
X0111029Y0308690D01*
X0111797Y0309457D01*
X0113331Y0309457D01*
X0114866Y0315596D02*
X0115633Y0315596D01*
X0114866Y0315596D02*
X0111797Y0318665D01*
X0111029Y0318665D01*
X0111029Y0315596D01*
X0105633Y0316363D02*
X0105633Y0317898D01*
X0104866Y0318665D01*
X0104099Y0318665D01*
X0103331Y0317898D01*
X0103331Y0315596D01*
X0104866Y0315596D01*
X0105633Y0316363D01*
X0104866Y0314061D02*
X0101797Y0314061D01*
X0101029Y0313294D01*
X0101029Y0310992D01*
X0105633Y0310992D01*
X0105633Y0313294D01*
X0104866Y0314061D01*
X0103331Y0315596D02*
X0101797Y0317131D01*
X0101029Y0318665D01*
X0095633Y0315596D02*
X0094866Y0315596D01*
X0091797Y0318665D01*
X0091029Y0318665D01*
X0091029Y0315596D01*
X0091797Y0314061D02*
X0091029Y0313294D01*
X0091029Y0311759D01*
X0091797Y0310992D01*
X0094866Y0310992D01*
X0095633Y0311759D01*
X0095633Y0313294D01*
X0094866Y0314061D01*
X0093331Y0309457D02*
X0094099Y0308690D01*
X0094099Y0306388D01*
X0095633Y0306388D02*
X0091029Y0306388D01*
X0091029Y0308690D01*
X0091797Y0309457D01*
X0093331Y0309457D01*
X0101029Y0308690D02*
X0101029Y0306388D01*
X0105633Y0306388D01*
X0104099Y0306388D02*
X0104099Y0308690D01*
X0103331Y0309457D01*
X0101797Y0309457D01*
X0101029Y0308690D01*
X0085633Y0306388D02*
X0081029Y0306388D01*
X0081029Y0308690D01*
X0081797Y0309457D01*
X0083331Y0309457D01*
X0084099Y0308690D01*
X0084099Y0306388D01*
X0084866Y0310992D02*
X0085633Y0311759D01*
X0085633Y0313294D01*
X0084866Y0314061D01*
X0084866Y0315596D02*
X0085633Y0316363D01*
X0085633Y0317898D01*
X0084866Y0318665D01*
X0084099Y0318665D01*
X0083331Y0317898D01*
X0083331Y0315596D01*
X0084866Y0315596D01*
X0083331Y0315596D02*
X0081797Y0317131D01*
X0081029Y0318665D01*
X0081797Y0314061D02*
X0081029Y0313294D01*
X0081029Y0311759D01*
X0081797Y0310992D01*
X0084866Y0310992D01*
X0075633Y0306388D02*
X0071029Y0306388D01*
X0071029Y0308690D01*
X0071797Y0309457D01*
X0073331Y0309457D01*
X0074099Y0308690D01*
X0074099Y0306388D01*
X0071029Y0311759D02*
X0071029Y0313294D01*
X0071797Y0314061D01*
X0241029Y0313294D02*
X0241029Y0311759D01*
X0241797Y0310992D01*
X0244866Y0310992D01*
X0245633Y0311759D01*
X0245633Y0313294D01*
X0244866Y0314061D01*
X0244866Y0315596D02*
X0245633Y0316363D01*
X0245633Y0317898D01*
X0244866Y0318665D01*
X0244866Y0315596D02*
X0241797Y0315596D01*
X0241029Y0316363D01*
X0241029Y0317898D01*
X0241797Y0318665D01*
X0241797Y0314061D02*
X0241029Y0313294D01*
X0241029Y0309457D02*
X0244099Y0309457D01*
X0245633Y0307923D01*
X0244099Y0306388D01*
X0241029Y0306388D01*
X0251029Y0307156D02*
X0251797Y0306388D01*
X0254866Y0306388D01*
X0255633Y0307156D01*
X0255633Y0308690D01*
X0254866Y0309457D01*
X0253331Y0309457D01*
X0253331Y0307923D01*
X0251797Y0309457D02*
X0251029Y0308690D01*
X0251029Y0307156D01*
X0251029Y0310992D02*
X0255633Y0314061D01*
X0251029Y0314061D01*
X0251029Y0315596D02*
X0251029Y0317898D01*
X0251797Y0318665D01*
X0254866Y0318665D01*
X0255633Y0317898D01*
X0255633Y0315596D01*
X0251029Y0315596D01*
X0251029Y0310992D02*
X0255633Y0310992D01*
X0261029Y0311759D02*
X0261797Y0310992D01*
X0264866Y0310992D01*
X0265633Y0311759D01*
X0265633Y0313294D01*
X0264866Y0314061D01*
X0265633Y0315596D02*
X0261029Y0315596D01*
X0261029Y0318665D01*
X0263331Y0317131D02*
X0263331Y0315596D01*
X0261797Y0314061D02*
X0261029Y0313294D01*
X0261029Y0311759D01*
X0261797Y0309457D02*
X0261029Y0308690D01*
X0261029Y0307156D01*
X0261797Y0306388D01*
X0262564Y0306388D01*
X0263331Y0307156D01*
X0263331Y0308690D01*
X0264099Y0309457D01*
X0264866Y0309457D01*
X0265633Y0308690D01*
X0265633Y0307156D01*
X0264866Y0306388D01*
X0271029Y0306388D02*
X0271029Y0308690D01*
X0271797Y0309457D01*
X0273331Y0309457D01*
X0274099Y0308690D01*
X0274099Y0306388D01*
X0275633Y0306388D02*
X0271029Y0306388D01*
X0274099Y0307923D02*
X0275633Y0309457D01*
X0274866Y0310992D02*
X0275633Y0311759D01*
X0275633Y0313294D01*
X0274866Y0314061D01*
X0274099Y0314061D01*
X0273331Y0313294D01*
X0273331Y0311759D01*
X0272564Y0310992D01*
X0271797Y0310992D01*
X0271029Y0311759D01*
X0271029Y0313294D01*
X0271797Y0314061D01*
X0271029Y0315596D02*
X0271029Y0318665D01*
X0271029Y0317131D02*
X0275633Y0317131D01*
X0281029Y0317898D02*
X0281797Y0318665D01*
X0281029Y0317898D02*
X0281029Y0316363D01*
X0281797Y0315596D01*
X0284866Y0315596D01*
X0285633Y0316363D01*
X0285633Y0317898D01*
X0284866Y0318665D01*
X0291029Y0318665D02*
X0295633Y0318665D01*
X0291029Y0315596D01*
X0295633Y0315596D01*
X0294866Y0314061D02*
X0291797Y0314061D01*
X0291029Y0313294D01*
X0291029Y0310992D01*
X0295633Y0310992D01*
X0295633Y0313294D01*
X0294866Y0314061D01*
X0301029Y0315596D02*
X0305633Y0315596D01*
X0304099Y0315596D02*
X0301029Y0318665D01*
X0303331Y0316363D02*
X0305633Y0318665D01*
X0311029Y0317898D02*
X0311029Y0315596D01*
X0315633Y0315596D01*
X0315633Y0317898D01*
X0314866Y0318665D01*
X0311797Y0318665D01*
X0311029Y0317898D01*
X0311029Y0314061D02*
X0311029Y0310992D01*
X0315633Y0310992D01*
X0315633Y0314061D01*
X0313331Y0312527D02*
X0313331Y0310992D01*
X0315633Y0309457D02*
X0315633Y0306388D01*
X0311029Y0306388D01*
X0305633Y0307155D02*
X0305633Y0308690D01*
X0304866Y0309457D01*
X0305633Y0310992D02*
X0301029Y0310992D01*
X0301797Y0309457D02*
X0301029Y0308690D01*
X0301029Y0307155D01*
X0301797Y0306388D01*
X0304866Y0306388D01*
X0305633Y0307155D01*
X0304866Y0304854D02*
X0305633Y0304086D01*
X0305633Y0302552D01*
X0304866Y0301784D01*
X0303331Y0302552D02*
X0303331Y0304086D01*
X0304099Y0304854D01*
X0304866Y0304854D01*
X0303331Y0302552D02*
X0302564Y0301784D01*
X0301797Y0301784D01*
X0301029Y0302552D01*
X0301029Y0304086D01*
X0301797Y0304854D01*
X0305633Y0310992D02*
X0305633Y0314061D01*
X0285633Y0310992D02*
X0281029Y0314061D01*
X0281797Y0309457D02*
X0281029Y0308690D01*
X0281029Y0306388D01*
X0285633Y0306388D01*
X0285633Y0308690D01*
X0284866Y0309457D01*
X0281797Y0309457D01*
X0265633Y0315596D02*
X0265633Y0318665D01*
D12*
X0251998Y0294275D02*
X0244659Y0294275D01*
X0251998Y0286935D01*
X0253833Y0288770D01*
X0253833Y0292440D01*
X0251998Y0294275D01*
X0244659Y0294275D02*
X0242824Y0292440D01*
X0242824Y0288770D01*
X0244659Y0286935D01*
X0251998Y0286935D01*
X0253833Y0283226D02*
X0253833Y0275886D01*
X0253833Y0279556D02*
X0242824Y0279556D01*
X0246494Y0275886D01*
X0253833Y0272176D02*
X0253833Y0264836D01*
X0253833Y0268506D02*
X0242824Y0268506D01*
X0246494Y0264836D01*
X0248329Y0261127D02*
X0251998Y0261127D01*
X0253833Y0259292D01*
X0253833Y0255622D01*
X0251998Y0253787D01*
X0248329Y0253787D02*
X0246494Y0257457D01*
X0246494Y0259292D01*
X0248329Y0261127D01*
X0242824Y0261127D02*
X0242824Y0253787D01*
X0248329Y0253787D01*
X0248329Y0239028D02*
X0253833Y0239028D01*
X0253833Y0233523D01*
X0251998Y0231688D01*
X0250164Y0233523D01*
X0250164Y0239028D01*
X0248329Y0239028D02*
X0246494Y0237193D01*
X0246494Y0233523D01*
X0246494Y0226157D02*
X0253833Y0226157D01*
X0253833Y0224322D02*
X0253833Y0227992D01*
X0246494Y0226157D02*
X0246494Y0224322D01*
X0242824Y0226157D02*
X0240989Y0226157D01*
X0246494Y0220619D02*
X0250164Y0215114D01*
X0253833Y0220619D01*
X0253833Y0215114D02*
X0242824Y0215114D01*
X0248329Y0211404D02*
X0246494Y0209569D01*
X0246494Y0205899D01*
X0248329Y0204065D01*
X0251998Y0204065D01*
X0253833Y0205899D01*
X0253833Y0209569D01*
X0251998Y0211404D01*
X0248329Y0211404D01*
X0253833Y0200355D02*
X0242824Y0200355D01*
X0242824Y0193015D02*
X0253833Y0200355D01*
X0253833Y0193015D02*
X0242824Y0193015D01*
X0244533Y0140100D02*
X0244533Y0138100D01*
X0244533Y0131700D02*
X0244533Y0129900D01*
X0284533Y0129900D02*
X0284533Y0131700D01*
X0284533Y0138100D02*
X0284533Y0140100D01*
X0175833Y0130000D02*
X0170833Y0130000D01*
X0173333Y0127500D02*
X0173333Y0132500D01*
X0173333Y0112500D02*
X0173333Y0107500D01*
X0153333Y0115500D02*
X0153333Y0094500D01*
X0143333Y0094500D01*
X0143333Y0115500D01*
X0153333Y0115500D01*
X0150833Y0105000D02*
X0145833Y0105000D01*
X0043833Y0198923D02*
X0032824Y0198923D01*
X0032824Y0202592D02*
X0032824Y0195253D01*
X0032824Y0206302D02*
X0036494Y0209972D01*
X0032824Y0213642D01*
X0043833Y0213642D01*
X0038329Y0217352D02*
X0038329Y0224691D01*
X0041998Y0228401D02*
X0034659Y0228401D01*
X0032824Y0230236D01*
X0032824Y0233906D01*
X0034659Y0235741D01*
X0036494Y0239451D02*
X0032824Y0243120D01*
X0043833Y0243120D01*
X0043833Y0239451D02*
X0043833Y0246790D01*
X0043833Y0250500D02*
X0036494Y0257840D01*
X0034659Y0257840D01*
X0032824Y0256005D01*
X0032824Y0252335D01*
X0034659Y0250500D01*
X0043833Y0250500D02*
X0043833Y0257840D01*
X0041998Y0261549D02*
X0043833Y0263384D01*
X0043833Y0267054D01*
X0041998Y0268889D01*
X0040164Y0268889D01*
X0038329Y0267054D01*
X0038329Y0265219D01*
X0038329Y0267054D02*
X0036494Y0268889D01*
X0034659Y0268889D01*
X0032824Y0267054D01*
X0032824Y0263384D01*
X0034659Y0261549D01*
X0034659Y0272599D02*
X0032824Y0274434D01*
X0032824Y0278104D01*
X0034659Y0279938D01*
X0038329Y0279938D02*
X0038329Y0276269D01*
X0038329Y0279938D02*
X0041998Y0279938D01*
X0043833Y0278104D01*
X0043833Y0274434D01*
X0041998Y0272599D01*
X0034659Y0272599D01*
X0032824Y0283648D02*
X0043833Y0290988D01*
X0043833Y0294698D02*
X0043833Y0302037D01*
X0043833Y0294698D02*
X0032824Y0294698D01*
X0032824Y0290988D02*
X0043833Y0283648D01*
X0041998Y0235741D02*
X0043833Y0233906D01*
X0043833Y0230236D01*
X0041998Y0228401D01*
X0043833Y0222856D02*
X0032824Y0222856D01*
X0038329Y0217352D01*
X0043833Y0206302D02*
X0032824Y0206302D01*
D13*
X0030833Y0171500D02*
X0035833Y0171500D01*
X0078333Y0212000D02*
X0078333Y0215000D01*
X0077333Y0215000D01*
X0078333Y0215000D02*
X0078333Y0218000D01*
X0098333Y0218000D01*
X0098333Y0215000D01*
X0099333Y0215000D01*
X0098333Y0215000D02*
X0098333Y0212000D01*
X0078333Y0212000D01*
X0078333Y0227000D02*
X0078333Y0230000D01*
X0077333Y0230000D01*
X0078333Y0230000D02*
X0078333Y0233000D01*
X0098333Y0233000D01*
X0098333Y0230000D01*
X0099333Y0230000D01*
X0098333Y0230000D02*
X0098333Y0227000D01*
X0078333Y0227000D01*
X0078333Y0242000D02*
X0078333Y0245000D01*
X0077333Y0245000D01*
X0078333Y0245000D02*
X0078333Y0248000D01*
X0098333Y0248000D01*
X0098333Y0245000D01*
X0099333Y0245000D01*
X0098333Y0245000D02*
X0098333Y0242000D01*
X0078333Y0242000D01*
X0078333Y0257000D02*
X0078333Y0260000D01*
X0077333Y0260000D01*
X0078333Y0260000D02*
X0078333Y0263000D01*
X0098333Y0263000D01*
X0098333Y0260000D01*
X0099333Y0260000D01*
X0098333Y0260000D02*
X0098333Y0257000D01*
X0078333Y0257000D01*
X0078333Y0272000D02*
X0078333Y0275000D01*
X0077333Y0275000D01*
X0078333Y0275000D02*
X0078333Y0278000D01*
X0098333Y0278000D01*
X0098333Y0275000D01*
X0099333Y0275000D01*
X0098333Y0275000D02*
X0098333Y0272000D01*
X0078333Y0272000D01*
X0117333Y0260000D02*
X0118333Y0260000D01*
X0118333Y0263000D01*
X0138333Y0263000D01*
X0138333Y0260000D01*
X0139333Y0260000D01*
X0138333Y0260000D02*
X0138333Y0257000D01*
X0118333Y0257000D01*
X0118333Y0260000D01*
X0115833Y0320000D02*
X0110833Y0320000D01*
X0108333Y0322500D01*
X0108333Y0337500D01*
X0110833Y0340000D01*
X0115833Y0340000D01*
X0118333Y0337500D01*
X0120833Y0340000D01*
X0125833Y0340000D01*
X0128333Y0337500D01*
X0128333Y0322500D01*
X0125833Y0320000D01*
X0120833Y0320000D01*
X0118333Y0322500D01*
X0118333Y0337500D01*
X0108333Y0337500D02*
X0105833Y0340000D01*
X0100833Y0340000D01*
X0098333Y0337500D01*
X0098333Y0322500D01*
X0095833Y0320000D01*
X0090833Y0320000D01*
X0088333Y0322500D01*
X0088333Y0337500D01*
X0090833Y0340000D01*
X0095833Y0340000D01*
X0098333Y0337500D01*
X0088333Y0337500D02*
X0085833Y0340000D01*
X0080833Y0340000D01*
X0078333Y0337500D01*
X0078333Y0322500D01*
X0080833Y0320000D01*
X0085833Y0320000D01*
X0088333Y0322500D01*
X0078333Y0322500D02*
X0075833Y0320000D01*
X0070833Y0320000D01*
X0068333Y0322500D01*
X0068333Y0337500D01*
X0070833Y0340000D01*
X0075833Y0340000D01*
X0078333Y0337500D01*
X0068333Y0337500D02*
X0065833Y0340000D01*
X0060833Y0340000D01*
X0058333Y0337500D01*
X0058333Y0322500D01*
X0060833Y0320000D01*
X0065833Y0320000D01*
X0068333Y0322500D01*
X0058333Y0322500D02*
X0055833Y0320000D01*
X0050833Y0320000D01*
X0048333Y0322500D01*
X0048333Y0337500D01*
X0050833Y0340000D01*
X0055833Y0340000D01*
X0058333Y0337500D01*
X0048333Y0337500D02*
X0045833Y0340000D01*
X0040833Y0340000D01*
X0038333Y0337500D01*
X0038333Y0322500D01*
X0040833Y0320000D01*
X0045833Y0320000D01*
X0048333Y0322500D01*
X0038333Y0322500D02*
X0035833Y0320000D01*
X0030833Y0320000D01*
X0028333Y0322500D01*
X0028333Y0337500D01*
X0030833Y0340000D01*
X0035833Y0340000D01*
X0038333Y0337500D01*
X0035833Y0318500D02*
X0030833Y0318500D01*
X0098333Y0322500D02*
X0100833Y0320000D01*
X0105833Y0320000D01*
X0108333Y0322500D01*
X0115833Y0320000D02*
X0118333Y0322500D01*
X0238333Y0322500D02*
X0240833Y0320000D01*
X0245833Y0320000D01*
X0248333Y0322500D01*
X0250833Y0320000D01*
X0255833Y0320000D01*
X0258333Y0322500D01*
X0260833Y0320000D01*
X0265833Y0320000D01*
X0268333Y0322500D01*
X0270833Y0320000D01*
X0275833Y0320000D01*
X0278333Y0322500D01*
X0280833Y0320000D01*
X0285833Y0320000D01*
X0288333Y0322500D01*
X0290833Y0320000D01*
X0295833Y0320000D01*
X0298333Y0322500D01*
X0300833Y0320000D01*
X0305833Y0320000D01*
X0308333Y0322500D01*
X0310833Y0320000D01*
X0315833Y0320000D01*
X0318333Y0322500D01*
X0318333Y0327500D01*
X0315833Y0330000D01*
X0310833Y0330000D01*
X0308333Y0327500D01*
X0305833Y0330000D01*
X0300833Y0330000D01*
X0298333Y0327500D01*
X0295833Y0330000D01*
X0290833Y0330000D01*
X0288333Y0327500D01*
X0285833Y0330000D01*
X0280833Y0330000D01*
X0278333Y0327500D01*
X0275833Y0330000D01*
X0270833Y0330000D01*
X0268333Y0327500D01*
X0265833Y0330000D01*
X0260833Y0330000D01*
X0258333Y0327500D01*
X0255833Y0330000D01*
X0250833Y0330000D01*
X0248333Y0327500D01*
X0245833Y0330000D01*
X0240833Y0330000D01*
X0238333Y0327500D01*
X0238333Y0322500D01*
X0268333Y0342000D02*
X0268333Y0345000D01*
X0267333Y0345000D01*
X0268333Y0345000D02*
X0268333Y0348000D01*
X0288333Y0348000D01*
X0288333Y0345000D01*
X0289333Y0345000D01*
X0288333Y0345000D02*
X0288333Y0342000D01*
X0268333Y0342000D01*
X0322645Y0285828D02*
X0320475Y0283658D01*
X0321560Y0284743D02*
X0328071Y0278232D01*
X0326986Y0277147D02*
X0329156Y0279317D01*
X0331326Y0281487D02*
X0326986Y0285828D01*
X0330241Y0289084D01*
X0332411Y0289084D01*
X0335667Y0285828D01*
X0340007Y0290169D02*
X0333497Y0292339D01*
X0337837Y0296680D02*
X0340007Y0290169D01*
X0343263Y0295595D02*
X0343263Y0297765D01*
X0346518Y0301020D01*
X0345433Y0302105D02*
X0348689Y0298850D01*
X0345433Y0295595D01*
X0343263Y0295595D01*
X0341093Y0299935D02*
X0343263Y0302105D01*
X0345433Y0302105D01*
X0347604Y0304276D02*
X0347604Y0306446D01*
X0350859Y0309702D01*
X0348689Y0311872D02*
X0355200Y0305361D01*
X0351944Y0302105D01*
X0349774Y0302105D01*
X0347604Y0304276D01*
X0354114Y0310787D02*
X0354114Y0312957D01*
X0356285Y0315127D01*
X0358455Y0315127D01*
X0359540Y0314042D01*
X0355200Y0309702D01*
X0356285Y0308616D02*
X0354114Y0310787D01*
X0356285Y0308616D02*
X0358455Y0308616D01*
X0360625Y0310787D01*
X0363881Y0314042D02*
X0359540Y0318383D01*
X0361711Y0320553D02*
X0362796Y0321638D01*
X0361711Y0320553D02*
X0361711Y0316212D01*
X0369307Y0319468D02*
X0372562Y0322723D01*
X0372562Y0324894D01*
X0370392Y0324894D01*
X0368222Y0322723D01*
X0366051Y0322723D01*
X0366051Y0324894D01*
X0369307Y0328149D01*
X0365550Y0303733D02*
X0372061Y0297222D01*
X0376402Y0301563D01*
X0369891Y0295052D02*
X0367720Y0292882D01*
X0368806Y0293967D02*
X0364465Y0298307D01*
X0363380Y0297222D01*
X0362295Y0293967D02*
X0360124Y0293967D01*
X0357954Y0291796D01*
X0357954Y0289626D01*
X0355784Y0287456D02*
X0355784Y0285286D01*
X0352528Y0282030D01*
X0354699Y0279860D02*
X0348188Y0286371D01*
X0351443Y0289626D01*
X0353613Y0289626D01*
X0355784Y0287456D01*
X0361209Y0286371D02*
X0354699Y0292882D01*
X0362295Y0293967D02*
X0365550Y0290711D01*
X0362295Y0300478D02*
X0361209Y0301563D01*
X0341677Y0275519D02*
X0347102Y0270093D01*
X0347102Y0267923D01*
X0346017Y0266838D01*
X0342762Y0267923D02*
X0346017Y0271179D01*
X0342762Y0267923D02*
X0340591Y0267923D01*
X0337336Y0271179D01*
X0336251Y0267923D02*
X0334081Y0267923D01*
X0330825Y0264668D01*
X0328655Y0266838D02*
X0335166Y0260327D01*
X0338421Y0263582D01*
X0338421Y0265753D01*
X0336251Y0267923D01*
X0317219Y0267380D02*
X0315049Y0265210D01*
X0312879Y0265210D01*
X0310708Y0267380D01*
X0310708Y0269551D01*
X0312879Y0271721D01*
X0315049Y0271721D01*
X0316134Y0270636D01*
X0311793Y0266295D01*
X0307453Y0266295D02*
X0304197Y0263040D01*
X0304197Y0260870D01*
X0306368Y0258699D01*
X0308538Y0258699D01*
X0311793Y0261955D01*
X0305282Y0255444D02*
X0302027Y0252188D01*
X0299857Y0252188D01*
X0299857Y0254359D01*
X0303112Y0257614D01*
X0302027Y0258699D02*
X0305282Y0255444D01*
X0302027Y0258699D02*
X0299857Y0258699D01*
X0297686Y0256529D01*
X0295516Y0252188D02*
X0297686Y0250018D01*
X0297686Y0247848D01*
X0294431Y0244592D01*
X0296601Y0242422D02*
X0290090Y0248933D01*
X0293346Y0252188D01*
X0295516Y0252188D01*
X0290090Y0244592D02*
X0287920Y0244592D01*
X0285750Y0242422D01*
X0283579Y0242422D01*
X0282494Y0243507D01*
X0282494Y0245677D01*
X0284664Y0247848D01*
X0286835Y0247848D01*
X0290090Y0244592D02*
X0291175Y0243507D01*
X0291175Y0241337D01*
X0289005Y0239166D01*
X0286835Y0239166D01*
X0285833Y0170000D02*
X0280833Y0170000D01*
X0278333Y0167500D01*
X0275833Y0170000D01*
X0270833Y0170000D01*
X0268333Y0167500D01*
X0265833Y0170000D01*
X0260833Y0170000D01*
X0258333Y0167500D01*
X0255833Y0170000D01*
X0250833Y0170000D01*
X0248333Y0167500D01*
X0245833Y0170000D01*
X0240833Y0170000D01*
X0238333Y0167500D01*
X0238333Y0162500D01*
X0240833Y0160000D01*
X0245833Y0160000D01*
X0248333Y0162500D01*
X0250833Y0160000D01*
X0255833Y0160000D01*
X0258333Y0162500D01*
X0260833Y0160000D01*
X0265833Y0160000D01*
X0268333Y0162500D01*
X0270833Y0160000D01*
X0275833Y0160000D01*
X0278333Y0162500D01*
X0280833Y0160000D01*
X0285833Y0160000D01*
X0288333Y0162500D01*
X0290833Y0160000D01*
X0295833Y0160000D01*
X0298333Y0162500D01*
X0300833Y0160000D01*
X0305833Y0160000D01*
X0308333Y0162500D01*
X0310833Y0160000D01*
X0315833Y0160000D01*
X0318333Y0162500D01*
X0318333Y0167500D01*
X0315833Y0170000D01*
X0310833Y0170000D01*
X0308333Y0167500D01*
X0305833Y0170000D01*
X0300833Y0170000D01*
X0298333Y0167500D01*
X0295833Y0170000D01*
X0290833Y0170000D01*
X0288333Y0167500D01*
X0285833Y0170000D01*
X0288333Y0118000D02*
X0268333Y0118000D01*
X0268333Y0115000D01*
X0267333Y0115000D01*
X0268333Y0115000D02*
X0268333Y0112000D01*
X0288333Y0112000D01*
X0288333Y0115000D01*
X0289333Y0115000D01*
X0288333Y0115000D02*
X0288333Y0118000D01*
X0283333Y0093000D02*
X0303333Y0093000D01*
X0303333Y0090000D01*
X0304333Y0090000D01*
X0303333Y0090000D02*
X0303333Y0087000D01*
X0283333Y0087000D01*
X0283333Y0090000D01*
X0282333Y0090000D01*
X0283333Y0090000D02*
X0283333Y0093000D01*
X0284833Y0077000D02*
X0301833Y0077000D01*
X0305333Y0068929D02*
X0305333Y0061000D01*
X0301833Y0053000D02*
X0284833Y0053000D01*
X0281333Y0061000D02*
X0281333Y0069047D01*
X0286333Y0065000D02*
X0286335Y0065172D01*
X0286341Y0065343D01*
X0286352Y0065515D01*
X0286367Y0065686D01*
X0286386Y0065857D01*
X0286409Y0066027D01*
X0286436Y0066197D01*
X0286468Y0066366D01*
X0286503Y0066534D01*
X0286543Y0066701D01*
X0286587Y0066867D01*
X0286634Y0067032D01*
X0286686Y0067196D01*
X0286742Y0067358D01*
X0286802Y0067519D01*
X0286866Y0067679D01*
X0286934Y0067837D01*
X0287005Y0067993D01*
X0287080Y0068147D01*
X0287160Y0068300D01*
X0287242Y0068450D01*
X0287329Y0068599D01*
X0287419Y0068745D01*
X0287513Y0068889D01*
X0287610Y0069031D01*
X0287711Y0069170D01*
X0287815Y0069307D01*
X0287922Y0069441D01*
X0288033Y0069572D01*
X0288146Y0069701D01*
X0288263Y0069827D01*
X0288383Y0069950D01*
X0288506Y0070070D01*
X0288632Y0070187D01*
X0288761Y0070300D01*
X0288892Y0070411D01*
X0289026Y0070518D01*
X0289163Y0070622D01*
X0289302Y0070723D01*
X0289444Y0070820D01*
X0289588Y0070914D01*
X0289734Y0071004D01*
X0289883Y0071091D01*
X0290033Y0071173D01*
X0290186Y0071253D01*
X0290340Y0071328D01*
X0290496Y0071399D01*
X0290654Y0071467D01*
X0290814Y0071531D01*
X0290975Y0071591D01*
X0291137Y0071647D01*
X0291301Y0071699D01*
X0291466Y0071746D01*
X0291632Y0071790D01*
X0291799Y0071830D01*
X0291967Y0071865D01*
X0292136Y0071897D01*
X0292306Y0071924D01*
X0292476Y0071947D01*
X0292647Y0071966D01*
X0292818Y0071981D01*
X0292990Y0071992D01*
X0293161Y0071998D01*
X0293333Y0072000D01*
X0293505Y0071998D01*
X0293676Y0071992D01*
X0293848Y0071981D01*
X0294019Y0071966D01*
X0294190Y0071947D01*
X0294360Y0071924D01*
X0294530Y0071897D01*
X0294699Y0071865D01*
X0294867Y0071830D01*
X0295034Y0071790D01*
X0295200Y0071746D01*
X0295365Y0071699D01*
X0295529Y0071647D01*
X0295691Y0071591D01*
X0295852Y0071531D01*
X0296012Y0071467D01*
X0296170Y0071399D01*
X0296326Y0071328D01*
X0296480Y0071253D01*
X0296633Y0071173D01*
X0296783Y0071091D01*
X0296932Y0071004D01*
X0297078Y0070914D01*
X0297222Y0070820D01*
X0297364Y0070723D01*
X0297503Y0070622D01*
X0297640Y0070518D01*
X0297774Y0070411D01*
X0297905Y0070300D01*
X0298034Y0070187D01*
X0298160Y0070070D01*
X0298283Y0069950D01*
X0298403Y0069827D01*
X0298520Y0069701D01*
X0298633Y0069572D01*
X0298744Y0069441D01*
X0298851Y0069307D01*
X0298955Y0069170D01*
X0299056Y0069031D01*
X0299153Y0068889D01*
X0299247Y0068745D01*
X0299337Y0068599D01*
X0299424Y0068450D01*
X0299506Y0068300D01*
X0299586Y0068147D01*
X0299661Y0067993D01*
X0299732Y0067837D01*
X0299800Y0067679D01*
X0299864Y0067519D01*
X0299924Y0067358D01*
X0299980Y0067196D01*
X0300032Y0067032D01*
X0300079Y0066867D01*
X0300123Y0066701D01*
X0300163Y0066534D01*
X0300198Y0066366D01*
X0300230Y0066197D01*
X0300257Y0066027D01*
X0300280Y0065857D01*
X0300299Y0065686D01*
X0300314Y0065515D01*
X0300325Y0065343D01*
X0300331Y0065172D01*
X0300333Y0065000D01*
X0300331Y0064828D01*
X0300325Y0064657D01*
X0300314Y0064485D01*
X0300299Y0064314D01*
X0300280Y0064143D01*
X0300257Y0063973D01*
X0300230Y0063803D01*
X0300198Y0063634D01*
X0300163Y0063466D01*
X0300123Y0063299D01*
X0300079Y0063133D01*
X0300032Y0062968D01*
X0299980Y0062804D01*
X0299924Y0062642D01*
X0299864Y0062481D01*
X0299800Y0062321D01*
X0299732Y0062163D01*
X0299661Y0062007D01*
X0299586Y0061853D01*
X0299506Y0061700D01*
X0299424Y0061550D01*
X0299337Y0061401D01*
X0299247Y0061255D01*
X0299153Y0061111D01*
X0299056Y0060969D01*
X0298955Y0060830D01*
X0298851Y0060693D01*
X0298744Y0060559D01*
X0298633Y0060428D01*
X0298520Y0060299D01*
X0298403Y0060173D01*
X0298283Y0060050D01*
X0298160Y0059930D01*
X0298034Y0059813D01*
X0297905Y0059700D01*
X0297774Y0059589D01*
X0297640Y0059482D01*
X0297503Y0059378D01*
X0297364Y0059277D01*
X0297222Y0059180D01*
X0297078Y0059086D01*
X0296932Y0058996D01*
X0296783Y0058909D01*
X0296633Y0058827D01*
X0296480Y0058747D01*
X0296326Y0058672D01*
X0296170Y0058601D01*
X0296012Y0058533D01*
X0295852Y0058469D01*
X0295691Y0058409D01*
X0295529Y0058353D01*
X0295365Y0058301D01*
X0295200Y0058254D01*
X0295034Y0058210D01*
X0294867Y0058170D01*
X0294699Y0058135D01*
X0294530Y0058103D01*
X0294360Y0058076D01*
X0294190Y0058053D01*
X0294019Y0058034D01*
X0293848Y0058019D01*
X0293676Y0058008D01*
X0293505Y0058002D01*
X0293333Y0058000D01*
X0293161Y0058002D01*
X0292990Y0058008D01*
X0292818Y0058019D01*
X0292647Y0058034D01*
X0292476Y0058053D01*
X0292306Y0058076D01*
X0292136Y0058103D01*
X0291967Y0058135D01*
X0291799Y0058170D01*
X0291632Y0058210D01*
X0291466Y0058254D01*
X0291301Y0058301D01*
X0291137Y0058353D01*
X0290975Y0058409D01*
X0290814Y0058469D01*
X0290654Y0058533D01*
X0290496Y0058601D01*
X0290340Y0058672D01*
X0290186Y0058747D01*
X0290033Y0058827D01*
X0289883Y0058909D01*
X0289734Y0058996D01*
X0289588Y0059086D01*
X0289444Y0059180D01*
X0289302Y0059277D01*
X0289163Y0059378D01*
X0289026Y0059482D01*
X0288892Y0059589D01*
X0288761Y0059700D01*
X0288632Y0059813D01*
X0288506Y0059930D01*
X0288383Y0060050D01*
X0288263Y0060173D01*
X0288146Y0060299D01*
X0288033Y0060428D01*
X0287922Y0060559D01*
X0287815Y0060693D01*
X0287711Y0060830D01*
X0287610Y0060969D01*
X0287513Y0061111D01*
X0287419Y0061255D01*
X0287329Y0061401D01*
X0287242Y0061550D01*
X0287160Y0061700D01*
X0287080Y0061853D01*
X0287005Y0062007D01*
X0286934Y0062163D01*
X0286866Y0062321D01*
X0286802Y0062481D01*
X0286742Y0062642D01*
X0286686Y0062804D01*
X0286634Y0062968D01*
X0286587Y0063133D01*
X0286543Y0063299D01*
X0286503Y0063466D01*
X0286468Y0063634D01*
X0286436Y0063803D01*
X0286409Y0063973D01*
X0286386Y0064143D01*
X0286367Y0064314D01*
X0286352Y0064485D01*
X0286341Y0064657D01*
X0286335Y0064828D01*
X0286333Y0065000D01*
X0248333Y0112000D02*
X0228333Y0112000D01*
X0228333Y0115000D01*
X0227333Y0115000D01*
X0228333Y0115000D02*
X0228333Y0118000D01*
X0248333Y0118000D01*
X0248333Y0115000D01*
X0249333Y0115000D01*
X0248333Y0115000D02*
X0248333Y0112000D01*
X0175433Y0116601D02*
X0175433Y0118002D01*
X0174733Y0118702D01*
X0171930Y0118702D01*
X0171230Y0118002D01*
X0171230Y0116601D01*
X0171930Y0115900D01*
X0172631Y0115900D01*
X0173332Y0116601D01*
X0173332Y0118702D01*
X0174032Y0120504D02*
X0171230Y0120504D01*
X0174032Y0120504D02*
X0175433Y0121905D01*
X0174032Y0123306D01*
X0171230Y0123306D01*
X0175433Y0116601D02*
X0174733Y0115900D01*
X0347333Y0090000D02*
X0348333Y0090000D01*
X0348333Y0093000D01*
X0368333Y0093000D01*
X0368333Y0090000D01*
X0369333Y0090000D01*
X0368333Y0090000D02*
X0368333Y0087000D01*
X0348333Y0087000D01*
X0348333Y0090000D01*
X0349833Y0077000D02*
X0366833Y0077000D01*
X0370333Y0068929D02*
X0370333Y0061000D01*
X0366833Y0053000D02*
X0349833Y0053000D01*
X0346333Y0061000D02*
X0346333Y0069047D01*
X0351333Y0065000D02*
X0351335Y0065172D01*
X0351341Y0065343D01*
X0351352Y0065515D01*
X0351367Y0065686D01*
X0351386Y0065857D01*
X0351409Y0066027D01*
X0351436Y0066197D01*
X0351468Y0066366D01*
X0351503Y0066534D01*
X0351543Y0066701D01*
X0351587Y0066867D01*
X0351634Y0067032D01*
X0351686Y0067196D01*
X0351742Y0067358D01*
X0351802Y0067519D01*
X0351866Y0067679D01*
X0351934Y0067837D01*
X0352005Y0067993D01*
X0352080Y0068147D01*
X0352160Y0068300D01*
X0352242Y0068450D01*
X0352329Y0068599D01*
X0352419Y0068745D01*
X0352513Y0068889D01*
X0352610Y0069031D01*
X0352711Y0069170D01*
X0352815Y0069307D01*
X0352922Y0069441D01*
X0353033Y0069572D01*
X0353146Y0069701D01*
X0353263Y0069827D01*
X0353383Y0069950D01*
X0353506Y0070070D01*
X0353632Y0070187D01*
X0353761Y0070300D01*
X0353892Y0070411D01*
X0354026Y0070518D01*
X0354163Y0070622D01*
X0354302Y0070723D01*
X0354444Y0070820D01*
X0354588Y0070914D01*
X0354734Y0071004D01*
X0354883Y0071091D01*
X0355033Y0071173D01*
X0355186Y0071253D01*
X0355340Y0071328D01*
X0355496Y0071399D01*
X0355654Y0071467D01*
X0355814Y0071531D01*
X0355975Y0071591D01*
X0356137Y0071647D01*
X0356301Y0071699D01*
X0356466Y0071746D01*
X0356632Y0071790D01*
X0356799Y0071830D01*
X0356967Y0071865D01*
X0357136Y0071897D01*
X0357306Y0071924D01*
X0357476Y0071947D01*
X0357647Y0071966D01*
X0357818Y0071981D01*
X0357990Y0071992D01*
X0358161Y0071998D01*
X0358333Y0072000D01*
X0358505Y0071998D01*
X0358676Y0071992D01*
X0358848Y0071981D01*
X0359019Y0071966D01*
X0359190Y0071947D01*
X0359360Y0071924D01*
X0359530Y0071897D01*
X0359699Y0071865D01*
X0359867Y0071830D01*
X0360034Y0071790D01*
X0360200Y0071746D01*
X0360365Y0071699D01*
X0360529Y0071647D01*
X0360691Y0071591D01*
X0360852Y0071531D01*
X0361012Y0071467D01*
X0361170Y0071399D01*
X0361326Y0071328D01*
X0361480Y0071253D01*
X0361633Y0071173D01*
X0361783Y0071091D01*
X0361932Y0071004D01*
X0362078Y0070914D01*
X0362222Y0070820D01*
X0362364Y0070723D01*
X0362503Y0070622D01*
X0362640Y0070518D01*
X0362774Y0070411D01*
X0362905Y0070300D01*
X0363034Y0070187D01*
X0363160Y0070070D01*
X0363283Y0069950D01*
X0363403Y0069827D01*
X0363520Y0069701D01*
X0363633Y0069572D01*
X0363744Y0069441D01*
X0363851Y0069307D01*
X0363955Y0069170D01*
X0364056Y0069031D01*
X0364153Y0068889D01*
X0364247Y0068745D01*
X0364337Y0068599D01*
X0364424Y0068450D01*
X0364506Y0068300D01*
X0364586Y0068147D01*
X0364661Y0067993D01*
X0364732Y0067837D01*
X0364800Y0067679D01*
X0364864Y0067519D01*
X0364924Y0067358D01*
X0364980Y0067196D01*
X0365032Y0067032D01*
X0365079Y0066867D01*
X0365123Y0066701D01*
X0365163Y0066534D01*
X0365198Y0066366D01*
X0365230Y0066197D01*
X0365257Y0066027D01*
X0365280Y0065857D01*
X0365299Y0065686D01*
X0365314Y0065515D01*
X0365325Y0065343D01*
X0365331Y0065172D01*
X0365333Y0065000D01*
X0365331Y0064828D01*
X0365325Y0064657D01*
X0365314Y0064485D01*
X0365299Y0064314D01*
X0365280Y0064143D01*
X0365257Y0063973D01*
X0365230Y0063803D01*
X0365198Y0063634D01*
X0365163Y0063466D01*
X0365123Y0063299D01*
X0365079Y0063133D01*
X0365032Y0062968D01*
X0364980Y0062804D01*
X0364924Y0062642D01*
X0364864Y0062481D01*
X0364800Y0062321D01*
X0364732Y0062163D01*
X0364661Y0062007D01*
X0364586Y0061853D01*
X0364506Y0061700D01*
X0364424Y0061550D01*
X0364337Y0061401D01*
X0364247Y0061255D01*
X0364153Y0061111D01*
X0364056Y0060969D01*
X0363955Y0060830D01*
X0363851Y0060693D01*
X0363744Y0060559D01*
X0363633Y0060428D01*
X0363520Y0060299D01*
X0363403Y0060173D01*
X0363283Y0060050D01*
X0363160Y0059930D01*
X0363034Y0059813D01*
X0362905Y0059700D01*
X0362774Y0059589D01*
X0362640Y0059482D01*
X0362503Y0059378D01*
X0362364Y0059277D01*
X0362222Y0059180D01*
X0362078Y0059086D01*
X0361932Y0058996D01*
X0361783Y0058909D01*
X0361633Y0058827D01*
X0361480Y0058747D01*
X0361326Y0058672D01*
X0361170Y0058601D01*
X0361012Y0058533D01*
X0360852Y0058469D01*
X0360691Y0058409D01*
X0360529Y0058353D01*
X0360365Y0058301D01*
X0360200Y0058254D01*
X0360034Y0058210D01*
X0359867Y0058170D01*
X0359699Y0058135D01*
X0359530Y0058103D01*
X0359360Y0058076D01*
X0359190Y0058053D01*
X0359019Y0058034D01*
X0358848Y0058019D01*
X0358676Y0058008D01*
X0358505Y0058002D01*
X0358333Y0058000D01*
X0358161Y0058002D01*
X0357990Y0058008D01*
X0357818Y0058019D01*
X0357647Y0058034D01*
X0357476Y0058053D01*
X0357306Y0058076D01*
X0357136Y0058103D01*
X0356967Y0058135D01*
X0356799Y0058170D01*
X0356632Y0058210D01*
X0356466Y0058254D01*
X0356301Y0058301D01*
X0356137Y0058353D01*
X0355975Y0058409D01*
X0355814Y0058469D01*
X0355654Y0058533D01*
X0355496Y0058601D01*
X0355340Y0058672D01*
X0355186Y0058747D01*
X0355033Y0058827D01*
X0354883Y0058909D01*
X0354734Y0058996D01*
X0354588Y0059086D01*
X0354444Y0059180D01*
X0354302Y0059277D01*
X0354163Y0059378D01*
X0354026Y0059482D01*
X0353892Y0059589D01*
X0353761Y0059700D01*
X0353632Y0059813D01*
X0353506Y0059930D01*
X0353383Y0060050D01*
X0353263Y0060173D01*
X0353146Y0060299D01*
X0353033Y0060428D01*
X0352922Y0060559D01*
X0352815Y0060693D01*
X0352711Y0060830D01*
X0352610Y0060969D01*
X0352513Y0061111D01*
X0352419Y0061255D01*
X0352329Y0061401D01*
X0352242Y0061550D01*
X0352160Y0061700D01*
X0352080Y0061853D01*
X0352005Y0062007D01*
X0351934Y0062163D01*
X0351866Y0062321D01*
X0351802Y0062481D01*
X0351742Y0062642D01*
X0351686Y0062804D01*
X0351634Y0062968D01*
X0351587Y0063133D01*
X0351543Y0063299D01*
X0351503Y0063466D01*
X0351468Y0063634D01*
X0351436Y0063803D01*
X0351409Y0063973D01*
X0351386Y0064143D01*
X0351367Y0064314D01*
X0351352Y0064485D01*
X0351341Y0064657D01*
X0351335Y0064828D01*
X0351333Y0065000D01*
D14*
X0278284Y0143449D02*
X0278284Y0142549D01*
X0278284Y0142550D02*
X0278101Y0142546D01*
X0277918Y0142539D01*
X0277735Y0142526D01*
X0277552Y0142509D01*
X0277370Y0142488D01*
X0277189Y0142463D01*
X0277008Y0142433D01*
X0276828Y0142398D01*
X0276649Y0142360D01*
X0276471Y0142317D01*
X0276294Y0142269D01*
X0276119Y0142218D01*
X0275944Y0142162D01*
X0275771Y0142102D01*
X0275600Y0142037D01*
X0275430Y0141969D01*
X0275261Y0141897D01*
X0275095Y0141820D01*
X0274931Y0141739D01*
X0274768Y0141655D01*
X0274608Y0141566D01*
X0274449Y0141474D01*
X0274293Y0141378D01*
X0274140Y0141278D01*
X0273989Y0141174D01*
X0273840Y0141067D01*
X0273694Y0140956D01*
X0273551Y0140842D01*
X0273411Y0140724D01*
X0273274Y0140603D01*
X0273139Y0140479D01*
X0273008Y0140351D01*
X0272879Y0140220D01*
X0272754Y0140086D01*
X0272633Y0139950D01*
X0272514Y0139810D01*
X0272399Y0139667D01*
X0272288Y0139522D01*
X0272180Y0139374D01*
X0272076Y0139223D01*
X0271975Y0139070D01*
X0271878Y0138915D01*
X0271785Y0138757D01*
X0271696Y0138597D01*
X0270902Y0139020D01*
X0271002Y0139200D01*
X0271106Y0139377D01*
X0271214Y0139551D01*
X0271327Y0139723D01*
X0271444Y0139891D01*
X0271565Y0140057D01*
X0271689Y0140220D01*
X0271818Y0140380D01*
X0271951Y0140537D01*
X0272087Y0140690D01*
X0272227Y0140840D01*
X0272371Y0140987D01*
X0272518Y0141130D01*
X0272669Y0141270D01*
X0272823Y0141405D01*
X0272980Y0141537D01*
X0273140Y0141665D01*
X0273304Y0141790D01*
X0273470Y0141910D01*
X0273640Y0142026D01*
X0273812Y0142138D01*
X0273986Y0142246D01*
X0274164Y0142349D01*
X0274343Y0142448D01*
X0274526Y0142543D01*
X0274710Y0142633D01*
X0274896Y0142719D01*
X0275085Y0142800D01*
X0275275Y0142877D01*
X0275468Y0142949D01*
X0275662Y0143016D01*
X0275857Y0143079D01*
X0276054Y0143137D01*
X0276252Y0143190D01*
X0276452Y0143238D01*
X0276653Y0143281D01*
X0276854Y0143319D01*
X0277057Y0143353D01*
X0277260Y0143381D01*
X0277464Y0143405D01*
X0277669Y0143424D01*
X0277873Y0143437D01*
X0278078Y0143446D01*
X0278284Y0143450D01*
X0278284Y0143356D01*
X0278081Y0143352D01*
X0277878Y0143344D01*
X0277675Y0143330D01*
X0277473Y0143312D01*
X0277272Y0143288D01*
X0277071Y0143260D01*
X0276870Y0143227D01*
X0276671Y0143189D01*
X0276473Y0143146D01*
X0276275Y0143098D01*
X0276079Y0143046D01*
X0275884Y0142989D01*
X0275691Y0142927D01*
X0275499Y0142860D01*
X0275309Y0142789D01*
X0275121Y0142714D01*
X0274935Y0142633D01*
X0274750Y0142548D01*
X0274568Y0142459D01*
X0274388Y0142365D01*
X0274210Y0142267D01*
X0274035Y0142165D01*
X0273862Y0142059D01*
X0273692Y0141948D01*
X0273524Y0141833D01*
X0273360Y0141714D01*
X0273198Y0141591D01*
X0273040Y0141465D01*
X0272884Y0141334D01*
X0272732Y0141200D01*
X0272583Y0141062D01*
X0272437Y0140921D01*
X0272295Y0140776D01*
X0272157Y0140627D01*
X0272022Y0140476D01*
X0271891Y0140321D01*
X0271764Y0140163D01*
X0271640Y0140001D01*
X0271521Y0139837D01*
X0271405Y0139670D01*
X0271294Y0139501D01*
X0271186Y0139328D01*
X0271083Y0139153D01*
X0270985Y0138976D01*
X0271068Y0138932D01*
X0271165Y0139107D01*
X0271267Y0139280D01*
X0271373Y0139450D01*
X0271483Y0139618D01*
X0271597Y0139783D01*
X0271716Y0139945D01*
X0271838Y0140105D01*
X0271964Y0140261D01*
X0272093Y0140414D01*
X0272227Y0140564D01*
X0272363Y0140711D01*
X0272504Y0140854D01*
X0272648Y0140994D01*
X0272795Y0141130D01*
X0272946Y0141263D01*
X0273099Y0141392D01*
X0273256Y0141517D01*
X0273416Y0141639D01*
X0273579Y0141756D01*
X0273744Y0141870D01*
X0273912Y0141979D01*
X0274083Y0142085D01*
X0274256Y0142186D01*
X0274432Y0142283D01*
X0274610Y0142375D01*
X0274790Y0142463D01*
X0274973Y0142547D01*
X0275157Y0142627D01*
X0275343Y0142702D01*
X0275531Y0142772D01*
X0275721Y0142838D01*
X0275912Y0142899D01*
X0276104Y0142955D01*
X0276298Y0143007D01*
X0276493Y0143054D01*
X0276689Y0143097D01*
X0276887Y0143134D01*
X0277085Y0143167D01*
X0277283Y0143195D01*
X0277483Y0143218D01*
X0277682Y0143236D01*
X0277883Y0143250D01*
X0278083Y0143258D01*
X0278284Y0143262D01*
X0278284Y0143168D01*
X0278085Y0143164D01*
X0277887Y0143156D01*
X0277689Y0143143D01*
X0277492Y0143124D01*
X0277295Y0143102D01*
X0277098Y0143074D01*
X0276903Y0143042D01*
X0276708Y0143004D01*
X0276514Y0142963D01*
X0276321Y0142916D01*
X0276129Y0142865D01*
X0275939Y0142809D01*
X0275750Y0142749D01*
X0275563Y0142684D01*
X0275377Y0142614D01*
X0275193Y0142540D01*
X0275011Y0142461D01*
X0274831Y0142378D01*
X0274652Y0142291D01*
X0274476Y0142200D01*
X0274303Y0142104D01*
X0274131Y0142004D01*
X0273963Y0141900D01*
X0273796Y0141792D01*
X0273633Y0141679D01*
X0273472Y0141563D01*
X0273314Y0141443D01*
X0273159Y0141319D01*
X0273007Y0141192D01*
X0272858Y0141061D01*
X0272713Y0140926D01*
X0272570Y0140788D01*
X0272432Y0140646D01*
X0272296Y0140501D01*
X0272164Y0140353D01*
X0272036Y0140201D01*
X0271912Y0140047D01*
X0271791Y0139890D01*
X0271674Y0139729D01*
X0271561Y0139566D01*
X0271453Y0139400D01*
X0271348Y0139232D01*
X0271247Y0139061D01*
X0271151Y0138888D01*
X0271233Y0138843D01*
X0271329Y0139015D01*
X0271428Y0139184D01*
X0271532Y0139350D01*
X0271640Y0139514D01*
X0271751Y0139675D01*
X0271867Y0139834D01*
X0271986Y0139989D01*
X0272109Y0140142D01*
X0272236Y0140291D01*
X0272366Y0140438D01*
X0272500Y0140581D01*
X0272637Y0140721D01*
X0272778Y0140858D01*
X0272921Y0140991D01*
X0273068Y0141121D01*
X0273219Y0141247D01*
X0273372Y0141369D01*
X0273528Y0141488D01*
X0273687Y0141603D01*
X0273849Y0141713D01*
X0274013Y0141820D01*
X0274180Y0141923D01*
X0274349Y0142022D01*
X0274521Y0142117D01*
X0274695Y0142207D01*
X0274871Y0142294D01*
X0275049Y0142375D01*
X0275229Y0142453D01*
X0275411Y0142526D01*
X0275594Y0142595D01*
X0275780Y0142659D01*
X0275966Y0142719D01*
X0276154Y0142774D01*
X0276344Y0142825D01*
X0276534Y0142871D01*
X0276726Y0142912D01*
X0276919Y0142949D01*
X0277112Y0142981D01*
X0277306Y0143008D01*
X0277501Y0143031D01*
X0277696Y0143049D01*
X0277892Y0143062D01*
X0278088Y0143070D01*
X0278284Y0143074D01*
X0278284Y0142980D01*
X0278090Y0142976D01*
X0277896Y0142968D01*
X0277703Y0142955D01*
X0277510Y0142937D01*
X0277318Y0142915D01*
X0277126Y0142888D01*
X0276935Y0142856D01*
X0276744Y0142820D01*
X0276555Y0142779D01*
X0276367Y0142734D01*
X0276180Y0142684D01*
X0275994Y0142629D01*
X0275809Y0142570D01*
X0275626Y0142507D01*
X0275445Y0142439D01*
X0275265Y0142366D01*
X0275087Y0142290D01*
X0274911Y0142209D01*
X0274737Y0142123D01*
X0274565Y0142034D01*
X0274395Y0141940D01*
X0274228Y0141843D01*
X0274063Y0141741D01*
X0273901Y0141635D01*
X0273741Y0141526D01*
X0273584Y0141412D01*
X0273430Y0141295D01*
X0273278Y0141174D01*
X0273130Y0141050D01*
X0272985Y0140922D01*
X0272842Y0140790D01*
X0272703Y0140655D01*
X0272568Y0140517D01*
X0272436Y0140375D01*
X0272307Y0140230D01*
X0272182Y0140082D01*
X0272060Y0139931D01*
X0271942Y0139778D01*
X0271828Y0139621D01*
X0271718Y0139462D01*
X0271612Y0139300D01*
X0271509Y0139135D01*
X0271411Y0138968D01*
X0271316Y0138799D01*
X0271399Y0138755D01*
X0271493Y0138922D01*
X0271590Y0139087D01*
X0271691Y0139250D01*
X0271796Y0139410D01*
X0271905Y0139567D01*
X0272018Y0139722D01*
X0272134Y0139874D01*
X0272254Y0140023D01*
X0272378Y0140169D01*
X0272505Y0140312D01*
X0272636Y0140452D01*
X0272770Y0140588D01*
X0272907Y0140722D01*
X0273048Y0140852D01*
X0273191Y0140979D01*
X0273338Y0141102D01*
X0273488Y0141221D01*
X0273640Y0141337D01*
X0273795Y0141449D01*
X0273953Y0141557D01*
X0274114Y0141662D01*
X0274277Y0141762D01*
X0274442Y0141859D01*
X0274609Y0141951D01*
X0274779Y0142039D01*
X0274951Y0142124D01*
X0275125Y0142204D01*
X0275301Y0142279D01*
X0275479Y0142351D01*
X0275658Y0142418D01*
X0275839Y0142481D01*
X0276021Y0142539D01*
X0276205Y0142593D01*
X0276390Y0142643D01*
X0276576Y0142687D01*
X0276763Y0142728D01*
X0276951Y0142764D01*
X0277140Y0142795D01*
X0277329Y0142822D01*
X0277519Y0142844D01*
X0277710Y0142861D01*
X0277901Y0142874D01*
X0278092Y0142882D01*
X0278284Y0142886D01*
X0278284Y0142792D01*
X0278095Y0142788D01*
X0277906Y0142780D01*
X0277717Y0142768D01*
X0277529Y0142750D01*
X0277341Y0142728D01*
X0277154Y0142702D01*
X0276967Y0142671D01*
X0276781Y0142636D01*
X0276596Y0142596D01*
X0276412Y0142551D01*
X0276230Y0142502D01*
X0276048Y0142449D01*
X0275868Y0142392D01*
X0275690Y0142330D01*
X0275512Y0142263D01*
X0275337Y0142193D01*
X0275163Y0142118D01*
X0274991Y0142039D01*
X0274822Y0141955D01*
X0274654Y0141868D01*
X0274488Y0141777D01*
X0274325Y0141681D01*
X0274164Y0141582D01*
X0274005Y0141479D01*
X0273849Y0141372D01*
X0273696Y0141261D01*
X0273545Y0141147D01*
X0273398Y0141029D01*
X0273253Y0140907D01*
X0273111Y0140782D01*
X0272972Y0140654D01*
X0272837Y0140522D01*
X0272704Y0140387D01*
X0272575Y0140249D01*
X0272449Y0140107D01*
X0272327Y0139963D01*
X0272208Y0139816D01*
X0272093Y0139666D01*
X0271982Y0139513D01*
X0271874Y0139357D01*
X0271770Y0139199D01*
X0271670Y0139039D01*
X0271574Y0138876D01*
X0271482Y0138711D01*
X0271565Y0138666D01*
X0271656Y0138830D01*
X0271751Y0138991D01*
X0271850Y0139149D01*
X0271952Y0139305D01*
X0272059Y0139459D01*
X0272169Y0139610D01*
X0272283Y0139758D01*
X0272400Y0139904D01*
X0272521Y0140046D01*
X0272645Y0140186D01*
X0272772Y0140322D01*
X0272903Y0140456D01*
X0273037Y0140586D01*
X0273174Y0140713D01*
X0273314Y0140836D01*
X0273457Y0140956D01*
X0273603Y0141073D01*
X0273752Y0141186D01*
X0273904Y0141295D01*
X0274058Y0141401D01*
X0274214Y0141503D01*
X0274373Y0141601D01*
X0274535Y0141695D01*
X0274698Y0141785D01*
X0274864Y0141872D01*
X0275032Y0141954D01*
X0275201Y0142032D01*
X0275373Y0142106D01*
X0275546Y0142175D01*
X0275721Y0142241D01*
X0275898Y0142302D01*
X0276076Y0142359D01*
X0276255Y0142412D01*
X0276435Y0142460D01*
X0276617Y0142504D01*
X0276800Y0142544D01*
X0276983Y0142579D01*
X0277167Y0142609D01*
X0277352Y0142635D01*
X0277538Y0142657D01*
X0277724Y0142674D01*
X0277910Y0142686D01*
X0278097Y0142694D01*
X0278284Y0142698D01*
X0278284Y0142604D01*
X0278099Y0142600D01*
X0277915Y0142592D01*
X0277731Y0142580D01*
X0277547Y0142563D01*
X0277364Y0142542D01*
X0277181Y0142516D01*
X0276999Y0142486D01*
X0276818Y0142451D01*
X0276638Y0142412D01*
X0276458Y0142369D01*
X0276280Y0142321D01*
X0276103Y0142269D01*
X0275927Y0142213D01*
X0275753Y0142153D01*
X0275580Y0142088D01*
X0275409Y0142019D01*
X0275240Y0141946D01*
X0275072Y0141869D01*
X0274906Y0141788D01*
X0274743Y0141702D01*
X0274581Y0141613D01*
X0274422Y0141520D01*
X0274265Y0141423D01*
X0274110Y0141323D01*
X0273958Y0141218D01*
X0273808Y0141110D01*
X0273661Y0140999D01*
X0273517Y0140884D01*
X0273376Y0140765D01*
X0273237Y0140643D01*
X0273102Y0140518D01*
X0272970Y0140389D01*
X0272840Y0140257D01*
X0272714Y0140123D01*
X0272592Y0139985D01*
X0272473Y0139844D01*
X0272357Y0139700D01*
X0272244Y0139554D01*
X0272136Y0139405D01*
X0272031Y0139253D01*
X0271929Y0139099D01*
X0271832Y0138942D01*
X0271738Y0138783D01*
X0271648Y0138622D01*
X0271022Y0130765D02*
X0271803Y0131211D01*
X0271896Y0131054D01*
X0271993Y0130900D01*
X0272094Y0130748D01*
X0272199Y0130599D01*
X0272307Y0130452D01*
X0272418Y0130307D01*
X0272533Y0130166D01*
X0272652Y0130027D01*
X0272774Y0129892D01*
X0272899Y0129759D01*
X0273027Y0129629D01*
X0273158Y0129503D01*
X0273292Y0129379D01*
X0273429Y0129259D01*
X0273569Y0129142D01*
X0273712Y0129029D01*
X0273858Y0128919D01*
X0274006Y0128813D01*
X0274157Y0128710D01*
X0274310Y0128611D01*
X0274465Y0128516D01*
X0274623Y0128425D01*
X0274783Y0128337D01*
X0274945Y0128253D01*
X0275108Y0128173D01*
X0275274Y0128097D01*
X0275442Y0128026D01*
X0275611Y0127958D01*
X0275782Y0127894D01*
X0275954Y0127835D01*
X0276128Y0127779D01*
X0276303Y0127728D01*
X0276479Y0127681D01*
X0276656Y0127639D01*
X0276835Y0127600D01*
X0277014Y0127566D01*
X0277194Y0127536D01*
X0277374Y0127511D01*
X0277555Y0127490D01*
X0277737Y0127474D01*
X0277919Y0127461D01*
X0278101Y0127454D01*
X0278283Y0127450D01*
X0278284Y0126551D01*
X0278283Y0126550D01*
X0278079Y0126554D01*
X0277875Y0126562D01*
X0277671Y0126576D01*
X0277467Y0126594D01*
X0277264Y0126618D01*
X0277062Y0126646D01*
X0276860Y0126679D01*
X0276660Y0126717D01*
X0276460Y0126760D01*
X0276261Y0126808D01*
X0276064Y0126860D01*
X0275868Y0126918D01*
X0275673Y0126980D01*
X0275480Y0127046D01*
X0275288Y0127118D01*
X0275099Y0127194D01*
X0274911Y0127274D01*
X0274725Y0127359D01*
X0274541Y0127449D01*
X0274360Y0127542D01*
X0274181Y0127641D01*
X0274004Y0127743D01*
X0273830Y0127850D01*
X0273658Y0127961D01*
X0273489Y0128076D01*
X0273323Y0128195D01*
X0273160Y0128318D01*
X0273000Y0128445D01*
X0272843Y0128576D01*
X0272689Y0128711D01*
X0272539Y0128849D01*
X0272392Y0128991D01*
X0272248Y0129136D01*
X0272108Y0129285D01*
X0271972Y0129437D01*
X0271839Y0129593D01*
X0271711Y0129751D01*
X0271586Y0129913D01*
X0271465Y0130078D01*
X0271348Y0130245D01*
X0271235Y0130416D01*
X0271126Y0130589D01*
X0271021Y0130764D01*
X0271103Y0130811D01*
X0271206Y0130637D01*
X0271314Y0130466D01*
X0271426Y0130298D01*
X0271541Y0130132D01*
X0271661Y0129969D01*
X0271785Y0129810D01*
X0271912Y0129653D01*
X0272043Y0129499D01*
X0272178Y0129349D01*
X0272316Y0129201D01*
X0272458Y0129058D01*
X0272604Y0128917D01*
X0272752Y0128781D01*
X0272904Y0128648D01*
X0273060Y0128518D01*
X0273218Y0128393D01*
X0273379Y0128271D01*
X0273543Y0128153D01*
X0273710Y0128039D01*
X0273880Y0127930D01*
X0274052Y0127824D01*
X0274227Y0127723D01*
X0274404Y0127625D01*
X0274583Y0127533D01*
X0274765Y0127444D01*
X0274949Y0127360D01*
X0275134Y0127280D01*
X0275322Y0127205D01*
X0275511Y0127135D01*
X0275702Y0127069D01*
X0275895Y0127008D01*
X0276089Y0126951D01*
X0276284Y0126899D01*
X0276480Y0126852D01*
X0276678Y0126810D01*
X0276876Y0126772D01*
X0277076Y0126739D01*
X0277276Y0126711D01*
X0277477Y0126688D01*
X0277678Y0126670D01*
X0277879Y0126656D01*
X0278081Y0126648D01*
X0278283Y0126644D01*
X0278283Y0126738D01*
X0278084Y0126742D01*
X0277884Y0126750D01*
X0277685Y0126763D01*
X0277486Y0126782D01*
X0277287Y0126804D01*
X0277090Y0126832D01*
X0276892Y0126865D01*
X0276696Y0126902D01*
X0276501Y0126944D01*
X0276307Y0126990D01*
X0276114Y0127042D01*
X0275922Y0127098D01*
X0275732Y0127158D01*
X0275543Y0127223D01*
X0275356Y0127293D01*
X0275170Y0127367D01*
X0274987Y0127446D01*
X0274805Y0127529D01*
X0274625Y0127617D01*
X0274448Y0127708D01*
X0274273Y0127804D01*
X0274100Y0127905D01*
X0273930Y0128009D01*
X0273762Y0128118D01*
X0273597Y0128230D01*
X0273435Y0128346D01*
X0273276Y0128467D01*
X0273119Y0128591D01*
X0272966Y0128719D01*
X0272815Y0128850D01*
X0272668Y0128986D01*
X0272525Y0129124D01*
X0272384Y0129266D01*
X0272247Y0129412D01*
X0272114Y0129561D01*
X0271984Y0129713D01*
X0271858Y0129868D01*
X0271736Y0130026D01*
X0271618Y0130187D01*
X0271504Y0130350D01*
X0271393Y0130517D01*
X0271287Y0130686D01*
X0271185Y0130857D01*
X0271266Y0130904D01*
X0271367Y0130734D01*
X0271472Y0130567D01*
X0271582Y0130403D01*
X0271695Y0130241D01*
X0271812Y0130082D01*
X0271932Y0129926D01*
X0272057Y0129772D01*
X0272185Y0129622D01*
X0272317Y0129475D01*
X0272452Y0129331D01*
X0272591Y0129191D01*
X0272733Y0129054D01*
X0272878Y0128920D01*
X0273027Y0128790D01*
X0273179Y0128664D01*
X0273333Y0128541D01*
X0273491Y0128422D01*
X0273651Y0128307D01*
X0273814Y0128196D01*
X0273980Y0128089D01*
X0274148Y0127985D01*
X0274319Y0127886D01*
X0274492Y0127791D01*
X0274668Y0127701D01*
X0274845Y0127614D01*
X0275025Y0127532D01*
X0275206Y0127454D01*
X0275389Y0127381D01*
X0275574Y0127312D01*
X0275761Y0127248D01*
X0275949Y0127188D01*
X0276139Y0127132D01*
X0276329Y0127082D01*
X0276521Y0127035D01*
X0276714Y0126994D01*
X0276908Y0126957D01*
X0277103Y0126925D01*
X0277299Y0126898D01*
X0277495Y0126875D01*
X0277692Y0126857D01*
X0277889Y0126844D01*
X0278086Y0126836D01*
X0278283Y0126832D01*
X0278283Y0126926D01*
X0278088Y0126930D01*
X0277893Y0126938D01*
X0277698Y0126951D01*
X0277504Y0126969D01*
X0277310Y0126991D01*
X0277117Y0127018D01*
X0276924Y0127050D01*
X0276733Y0127086D01*
X0276542Y0127127D01*
X0276352Y0127173D01*
X0276164Y0127223D01*
X0275976Y0127278D01*
X0275790Y0127337D01*
X0275606Y0127400D01*
X0275423Y0127469D01*
X0275242Y0127541D01*
X0275063Y0127618D01*
X0274885Y0127699D01*
X0274710Y0127785D01*
X0274536Y0127874D01*
X0274365Y0127968D01*
X0274197Y0128066D01*
X0274030Y0128168D01*
X0273866Y0128274D01*
X0273705Y0128384D01*
X0273547Y0128498D01*
X0273391Y0128615D01*
X0273238Y0128737D01*
X0273088Y0128862D01*
X0272941Y0128990D01*
X0272798Y0129122D01*
X0272657Y0129258D01*
X0272520Y0129397D01*
X0272386Y0129539D01*
X0272256Y0129684D01*
X0272129Y0129832D01*
X0272006Y0129984D01*
X0271887Y0130138D01*
X0271771Y0130295D01*
X0271660Y0130455D01*
X0271552Y0130618D01*
X0271448Y0130783D01*
X0271348Y0130951D01*
X0271429Y0130997D01*
X0271528Y0130832D01*
X0271631Y0130668D01*
X0271738Y0130508D01*
X0271848Y0130350D01*
X0271962Y0130194D01*
X0272080Y0130042D01*
X0272202Y0129892D01*
X0272327Y0129746D01*
X0272456Y0129602D01*
X0272588Y0129462D01*
X0272723Y0129324D01*
X0272862Y0129190D01*
X0273004Y0129060D01*
X0273149Y0128933D01*
X0273297Y0128809D01*
X0273448Y0128690D01*
X0273602Y0128573D01*
X0273759Y0128461D01*
X0273918Y0128352D01*
X0274080Y0128248D01*
X0274245Y0128147D01*
X0274411Y0128050D01*
X0274581Y0127957D01*
X0274752Y0127869D01*
X0274925Y0127784D01*
X0275101Y0127704D01*
X0275278Y0127628D01*
X0275457Y0127556D01*
X0275638Y0127489D01*
X0275820Y0127426D01*
X0276004Y0127368D01*
X0276189Y0127314D01*
X0276375Y0127264D01*
X0276563Y0127219D01*
X0276751Y0127178D01*
X0276940Y0127142D01*
X0277131Y0127111D01*
X0277322Y0127084D01*
X0277513Y0127062D01*
X0277705Y0127045D01*
X0277898Y0127032D01*
X0278090Y0127024D01*
X0278283Y0127020D01*
X0278283Y0127114D01*
X0278093Y0127118D01*
X0277902Y0127126D01*
X0277712Y0127138D01*
X0277522Y0127156D01*
X0277333Y0127178D01*
X0277145Y0127204D01*
X0276957Y0127235D01*
X0276769Y0127271D01*
X0276583Y0127311D01*
X0276398Y0127355D01*
X0276214Y0127404D01*
X0276031Y0127458D01*
X0275849Y0127515D01*
X0275669Y0127578D01*
X0275491Y0127644D01*
X0275314Y0127715D01*
X0275139Y0127790D01*
X0274965Y0127869D01*
X0274794Y0127953D01*
X0274625Y0128040D01*
X0274458Y0128132D01*
X0274293Y0128228D01*
X0274130Y0128327D01*
X0273970Y0128431D01*
X0273813Y0128538D01*
X0273658Y0128649D01*
X0273506Y0128764D01*
X0273357Y0128882D01*
X0273211Y0129004D01*
X0273067Y0129130D01*
X0272927Y0129259D01*
X0272790Y0129391D01*
X0272656Y0129527D01*
X0272525Y0129665D01*
X0272398Y0129807D01*
X0272274Y0129952D01*
X0272154Y0130100D01*
X0272038Y0130251D01*
X0271925Y0130404D01*
X0271816Y0130560D01*
X0271710Y0130719D01*
X0271609Y0130880D01*
X0271511Y0131044D01*
X0271593Y0131091D01*
X0271689Y0130929D01*
X0271789Y0130770D01*
X0271893Y0130613D01*
X0272001Y0130458D01*
X0272113Y0130307D01*
X0272228Y0130158D01*
X0272347Y0130012D01*
X0272469Y0129869D01*
X0272595Y0129729D01*
X0272724Y0129592D01*
X0272856Y0129458D01*
X0272992Y0129327D01*
X0273130Y0129200D01*
X0273272Y0129076D01*
X0273416Y0128955D01*
X0273564Y0128838D01*
X0273714Y0128725D01*
X0273867Y0128615D01*
X0274023Y0128509D01*
X0274181Y0128407D01*
X0274341Y0128308D01*
X0274504Y0128214D01*
X0274669Y0128123D01*
X0274836Y0128037D01*
X0275005Y0127954D01*
X0275176Y0127876D01*
X0275349Y0127802D01*
X0275524Y0127732D01*
X0275701Y0127666D01*
X0275879Y0127605D01*
X0276058Y0127548D01*
X0276239Y0127495D01*
X0276421Y0127446D01*
X0276604Y0127402D01*
X0276788Y0127363D01*
X0276973Y0127328D01*
X0277158Y0127297D01*
X0277345Y0127271D01*
X0277532Y0127249D01*
X0277719Y0127232D01*
X0277907Y0127220D01*
X0278095Y0127212D01*
X0278283Y0127208D01*
X0278283Y0127302D01*
X0278097Y0127306D01*
X0277912Y0127314D01*
X0277726Y0127326D01*
X0277541Y0127343D01*
X0277356Y0127364D01*
X0277172Y0127390D01*
X0276989Y0127420D01*
X0276806Y0127455D01*
X0276624Y0127494D01*
X0276443Y0127538D01*
X0276264Y0127585D01*
X0276085Y0127638D01*
X0275908Y0127694D01*
X0275732Y0127755D01*
X0275558Y0127820D01*
X0275385Y0127889D01*
X0275214Y0127962D01*
X0275045Y0128039D01*
X0274878Y0128121D01*
X0274713Y0128206D01*
X0274550Y0128296D01*
X0274389Y0128389D01*
X0274231Y0128486D01*
X0274075Y0128587D01*
X0273921Y0128692D01*
X0273770Y0128800D01*
X0273621Y0128912D01*
X0273476Y0129028D01*
X0273333Y0129147D01*
X0273193Y0129269D01*
X0273056Y0129395D01*
X0272922Y0129524D01*
X0272792Y0129657D01*
X0272664Y0129792D01*
X0272540Y0129930D01*
X0272419Y0130072D01*
X0272302Y0130216D01*
X0272188Y0130363D01*
X0272078Y0130513D01*
X0271971Y0130665D01*
X0271869Y0130820D01*
X0271770Y0130978D01*
X0271674Y0131137D01*
X0271756Y0131184D01*
X0271850Y0131026D01*
X0271948Y0130871D01*
X0272049Y0130718D01*
X0272155Y0130567D01*
X0272264Y0130419D01*
X0272376Y0130274D01*
X0272492Y0130132D01*
X0272611Y0129992D01*
X0272734Y0129855D01*
X0272860Y0129722D01*
X0272989Y0129591D01*
X0273121Y0129463D01*
X0273256Y0129339D01*
X0273394Y0129218D01*
X0273535Y0129101D01*
X0273679Y0128987D01*
X0273826Y0128876D01*
X0273975Y0128769D01*
X0274127Y0128665D01*
X0274281Y0128566D01*
X0274437Y0128470D01*
X0274596Y0128378D01*
X0274757Y0128289D01*
X0274920Y0128205D01*
X0275085Y0128124D01*
X0275252Y0128048D01*
X0275421Y0127976D01*
X0275592Y0127907D01*
X0275764Y0127843D01*
X0275937Y0127783D01*
X0276112Y0127727D01*
X0276289Y0127676D01*
X0276466Y0127629D01*
X0276645Y0127586D01*
X0276824Y0127547D01*
X0277005Y0127513D01*
X0277186Y0127483D01*
X0277368Y0127458D01*
X0277550Y0127436D01*
X0277733Y0127420D01*
X0277916Y0127407D01*
X0278100Y0127400D01*
X0278283Y0127396D01*
X0278382Y0126551D02*
X0278382Y0127451D01*
X0278383Y0127450D02*
X0278567Y0127454D01*
X0278752Y0127462D01*
X0278936Y0127474D01*
X0279119Y0127491D01*
X0279303Y0127513D01*
X0279485Y0127538D01*
X0279667Y0127569D01*
X0279848Y0127604D01*
X0280029Y0127643D01*
X0280208Y0127687D01*
X0280386Y0127735D01*
X0280563Y0127787D01*
X0280739Y0127844D01*
X0280913Y0127904D01*
X0281085Y0127970D01*
X0281256Y0128039D01*
X0281426Y0128112D01*
X0281593Y0128190D01*
X0281758Y0128272D01*
X0281922Y0128357D01*
X0282083Y0128447D01*
X0282242Y0128541D01*
X0282399Y0128638D01*
X0282553Y0128739D01*
X0282705Y0128844D01*
X0282854Y0128953D01*
X0283000Y0129065D01*
X0283144Y0129181D01*
X0283284Y0129300D01*
X0283422Y0129423D01*
X0283557Y0129549D01*
X0283689Y0129678D01*
X0283817Y0129811D01*
X0283942Y0129946D01*
X0284064Y0130085D01*
X0284751Y0129504D01*
X0284615Y0129348D01*
X0284474Y0129196D01*
X0284330Y0129047D01*
X0284183Y0128902D01*
X0284032Y0128761D01*
X0283878Y0128624D01*
X0283720Y0128490D01*
X0283559Y0128360D01*
X0283395Y0128234D01*
X0283228Y0128112D01*
X0283058Y0127994D01*
X0282885Y0127881D01*
X0282709Y0127772D01*
X0282531Y0127667D01*
X0282350Y0127566D01*
X0282167Y0127470D01*
X0281982Y0127378D01*
X0281794Y0127291D01*
X0281604Y0127209D01*
X0281413Y0127131D01*
X0281219Y0127058D01*
X0281024Y0126990D01*
X0280827Y0126926D01*
X0280629Y0126868D01*
X0280429Y0126814D01*
X0280228Y0126765D01*
X0280026Y0126721D01*
X0279823Y0126682D01*
X0279619Y0126648D01*
X0279414Y0126619D01*
X0279209Y0126595D01*
X0279003Y0126577D01*
X0278796Y0126563D01*
X0278590Y0126554D01*
X0278383Y0126550D01*
X0278383Y0126644D01*
X0278587Y0126648D01*
X0278792Y0126657D01*
X0278996Y0126670D01*
X0279199Y0126689D01*
X0279402Y0126713D01*
X0279605Y0126741D01*
X0279807Y0126775D01*
X0280007Y0126813D01*
X0280207Y0126857D01*
X0280406Y0126905D01*
X0280603Y0126958D01*
X0280800Y0127016D01*
X0280994Y0127079D01*
X0281187Y0127147D01*
X0281379Y0127219D01*
X0281568Y0127296D01*
X0281756Y0127377D01*
X0281941Y0127463D01*
X0282124Y0127554D01*
X0282306Y0127649D01*
X0282484Y0127748D01*
X0282660Y0127852D01*
X0282834Y0127960D01*
X0283005Y0128072D01*
X0283173Y0128189D01*
X0283338Y0128309D01*
X0283501Y0128434D01*
X0283660Y0128562D01*
X0283816Y0128694D01*
X0283968Y0128830D01*
X0284118Y0128970D01*
X0284263Y0129113D01*
X0284406Y0129260D01*
X0284544Y0129411D01*
X0284679Y0129564D01*
X0284608Y0129625D01*
X0284474Y0129473D01*
X0284337Y0129324D01*
X0284196Y0129179D01*
X0284052Y0129038D01*
X0283905Y0128899D01*
X0283754Y0128765D01*
X0283600Y0128634D01*
X0283442Y0128507D01*
X0283282Y0128384D01*
X0283118Y0128265D01*
X0282952Y0128150D01*
X0282783Y0128039D01*
X0282612Y0127932D01*
X0282437Y0127830D01*
X0282261Y0127731D01*
X0282082Y0127637D01*
X0281900Y0127548D01*
X0281717Y0127463D01*
X0281532Y0127382D01*
X0281344Y0127306D01*
X0281155Y0127235D01*
X0280964Y0127168D01*
X0280772Y0127106D01*
X0280578Y0127049D01*
X0280383Y0126996D01*
X0280186Y0126949D01*
X0279989Y0126906D01*
X0279790Y0126868D01*
X0279591Y0126834D01*
X0279391Y0126806D01*
X0279190Y0126783D01*
X0278989Y0126764D01*
X0278787Y0126750D01*
X0278585Y0126742D01*
X0278383Y0126738D01*
X0278383Y0126832D01*
X0278583Y0126836D01*
X0278782Y0126844D01*
X0278982Y0126858D01*
X0279181Y0126876D01*
X0279379Y0126899D01*
X0279577Y0126927D01*
X0279774Y0126960D01*
X0279970Y0126998D01*
X0280166Y0127040D01*
X0280360Y0127087D01*
X0280553Y0127139D01*
X0280744Y0127196D01*
X0280935Y0127257D01*
X0281123Y0127323D01*
X0281310Y0127394D01*
X0281495Y0127469D01*
X0281679Y0127549D01*
X0281860Y0127633D01*
X0282039Y0127721D01*
X0282216Y0127814D01*
X0282391Y0127911D01*
X0282563Y0128013D01*
X0282732Y0128118D01*
X0282900Y0128228D01*
X0283064Y0128342D01*
X0283225Y0128459D01*
X0283384Y0128581D01*
X0283539Y0128706D01*
X0283692Y0128836D01*
X0283841Y0128969D01*
X0283987Y0129105D01*
X0284129Y0129245D01*
X0284268Y0129389D01*
X0284404Y0129536D01*
X0284536Y0129686D01*
X0284464Y0129746D01*
X0284334Y0129598D01*
X0284200Y0129453D01*
X0284062Y0129311D01*
X0283921Y0129173D01*
X0283777Y0129038D01*
X0283630Y0128906D01*
X0283479Y0128779D01*
X0283325Y0128655D01*
X0283169Y0128534D01*
X0283009Y0128418D01*
X0282847Y0128306D01*
X0282682Y0128197D01*
X0282514Y0128093D01*
X0282344Y0127993D01*
X0282171Y0127897D01*
X0281996Y0127805D01*
X0281819Y0127717D01*
X0281640Y0127634D01*
X0281459Y0127556D01*
X0281276Y0127481D01*
X0281091Y0127412D01*
X0280905Y0127347D01*
X0280717Y0127286D01*
X0280527Y0127230D01*
X0280337Y0127179D01*
X0280145Y0127132D01*
X0279952Y0127090D01*
X0279758Y0127053D01*
X0279563Y0127020D01*
X0279367Y0126993D01*
X0279171Y0126970D01*
X0278975Y0126952D01*
X0278778Y0126938D01*
X0278580Y0126930D01*
X0278383Y0126926D01*
X0278383Y0127020D01*
X0278578Y0127024D01*
X0278773Y0127032D01*
X0278968Y0127045D01*
X0279162Y0127063D01*
X0279356Y0127086D01*
X0279549Y0127113D01*
X0279742Y0127145D01*
X0279933Y0127182D01*
X0280124Y0127224D01*
X0280314Y0127270D01*
X0280502Y0127320D01*
X0280689Y0127376D01*
X0280875Y0127436D01*
X0281059Y0127500D01*
X0281242Y0127569D01*
X0281423Y0127642D01*
X0281602Y0127720D01*
X0281779Y0127802D01*
X0281954Y0127889D01*
X0282126Y0127979D01*
X0282297Y0128074D01*
X0282465Y0128173D01*
X0282631Y0128276D01*
X0282794Y0128383D01*
X0282955Y0128494D01*
X0283112Y0128609D01*
X0283267Y0128728D01*
X0283419Y0128851D01*
X0283568Y0128977D01*
X0283714Y0129107D01*
X0283856Y0129240D01*
X0283995Y0129377D01*
X0284131Y0129517D01*
X0284263Y0129661D01*
X0284392Y0129807D01*
X0284320Y0129868D01*
X0284193Y0129723D01*
X0284062Y0129581D01*
X0283928Y0129443D01*
X0283791Y0129308D01*
X0283650Y0129176D01*
X0283506Y0129048D01*
X0283359Y0128923D01*
X0283209Y0128802D01*
X0283056Y0128685D01*
X0282900Y0128571D01*
X0282741Y0128461D01*
X0282580Y0128355D01*
X0282416Y0128254D01*
X0282250Y0128156D01*
X0282082Y0128062D01*
X0281911Y0127972D01*
X0281738Y0127887D01*
X0281563Y0127806D01*
X0281386Y0127729D01*
X0281208Y0127657D01*
X0281027Y0127588D01*
X0280845Y0127525D01*
X0280662Y0127466D01*
X0280477Y0127411D01*
X0280291Y0127361D01*
X0280103Y0127315D01*
X0279915Y0127274D01*
X0279725Y0127238D01*
X0279535Y0127206D01*
X0279344Y0127179D01*
X0279153Y0127157D01*
X0278961Y0127139D01*
X0278768Y0127126D01*
X0278576Y0127118D01*
X0278383Y0127114D01*
X0278383Y0127208D01*
X0278573Y0127212D01*
X0278764Y0127220D01*
X0278954Y0127233D01*
X0279143Y0127250D01*
X0279333Y0127272D01*
X0279521Y0127299D01*
X0279709Y0127330D01*
X0279896Y0127366D01*
X0280082Y0127407D01*
X0280267Y0127452D01*
X0280451Y0127501D01*
X0280634Y0127556D01*
X0280815Y0127614D01*
X0280995Y0127677D01*
X0281173Y0127744D01*
X0281350Y0127816D01*
X0281525Y0127892D01*
X0281697Y0127972D01*
X0281868Y0128056D01*
X0282037Y0128145D01*
X0282203Y0128237D01*
X0282368Y0128334D01*
X0282529Y0128434D01*
X0282689Y0128539D01*
X0282845Y0128647D01*
X0282999Y0128760D01*
X0283150Y0128876D01*
X0283299Y0128995D01*
X0283444Y0129118D01*
X0283586Y0129245D01*
X0283725Y0129375D01*
X0283861Y0129509D01*
X0283994Y0129645D01*
X0284123Y0129785D01*
X0284249Y0129929D01*
X0284177Y0129989D01*
X0284053Y0129848D01*
X0283925Y0129710D01*
X0283794Y0129575D01*
X0283660Y0129443D01*
X0283523Y0129314D01*
X0283382Y0129189D01*
X0283238Y0129067D01*
X0283092Y0128949D01*
X0282943Y0128835D01*
X0282791Y0128724D01*
X0282636Y0128617D01*
X0282479Y0128514D01*
X0282319Y0128414D01*
X0282157Y0128319D01*
X0281992Y0128227D01*
X0281826Y0128140D01*
X0281657Y0128057D01*
X0281486Y0127977D01*
X0281314Y0127902D01*
X0281139Y0127832D01*
X0280963Y0127765D01*
X0280786Y0127703D01*
X0280606Y0127645D01*
X0280426Y0127592D01*
X0280244Y0127543D01*
X0280062Y0127499D01*
X0279878Y0127459D01*
X0279693Y0127423D01*
X0279507Y0127392D01*
X0279321Y0127366D01*
X0279134Y0127344D01*
X0278947Y0127327D01*
X0278759Y0127314D01*
X0278571Y0127306D01*
X0278383Y0127302D01*
X0278383Y0127396D01*
X0278569Y0127400D01*
X0278754Y0127408D01*
X0278940Y0127420D01*
X0279125Y0127437D01*
X0279309Y0127459D01*
X0279493Y0127485D01*
X0279677Y0127516D01*
X0279859Y0127551D01*
X0280041Y0127590D01*
X0280221Y0127634D01*
X0280401Y0127683D01*
X0280579Y0127735D01*
X0280756Y0127792D01*
X0280931Y0127854D01*
X0281105Y0127919D01*
X0281277Y0127989D01*
X0281448Y0128063D01*
X0281616Y0128141D01*
X0281783Y0128224D01*
X0281947Y0128310D01*
X0282110Y0128400D01*
X0282270Y0128495D01*
X0282428Y0128593D01*
X0282583Y0128695D01*
X0282736Y0128800D01*
X0282886Y0128910D01*
X0283034Y0129023D01*
X0283178Y0129140D01*
X0283320Y0129260D01*
X0283459Y0129383D01*
X0283595Y0129510D01*
X0283727Y0129640D01*
X0283856Y0129774D01*
X0283983Y0129910D01*
X0284105Y0130050D01*
X0284792Y0140448D02*
X0284100Y0139871D01*
X0284101Y0139872D02*
X0283982Y0140009D01*
X0283861Y0140143D01*
X0283736Y0140274D01*
X0283608Y0140402D01*
X0283477Y0140526D01*
X0283343Y0140648D01*
X0283206Y0140767D01*
X0283067Y0140882D01*
X0282924Y0140993D01*
X0282779Y0141102D01*
X0282632Y0141207D01*
X0282482Y0141308D01*
X0282330Y0141405D01*
X0282175Y0141499D01*
X0282018Y0141590D01*
X0281859Y0141676D01*
X0281698Y0141759D01*
X0281535Y0141837D01*
X0281370Y0141912D01*
X0281204Y0141983D01*
X0281036Y0142050D01*
X0280866Y0142112D01*
X0280695Y0142171D01*
X0280522Y0142226D01*
X0280349Y0142276D01*
X0280174Y0142322D01*
X0279998Y0142364D01*
X0279821Y0142402D01*
X0279643Y0142435D01*
X0279464Y0142465D01*
X0279285Y0142490D01*
X0279105Y0142510D01*
X0278925Y0142527D01*
X0278745Y0142539D01*
X0278564Y0142546D01*
X0278383Y0142550D01*
X0278382Y0143449D01*
X0278383Y0143450D01*
X0278586Y0143446D01*
X0278788Y0143438D01*
X0278991Y0143424D01*
X0279193Y0143406D01*
X0279394Y0143383D01*
X0279595Y0143355D01*
X0279795Y0143322D01*
X0279995Y0143285D01*
X0280193Y0143243D01*
X0280391Y0143196D01*
X0280587Y0143144D01*
X0280781Y0143087D01*
X0280975Y0143026D01*
X0281167Y0142961D01*
X0281357Y0142890D01*
X0281546Y0142815D01*
X0281732Y0142736D01*
X0281917Y0142652D01*
X0282100Y0142564D01*
X0282280Y0142471D01*
X0282458Y0142375D01*
X0282634Y0142273D01*
X0282807Y0142168D01*
X0282978Y0142059D01*
X0283146Y0141945D01*
X0283312Y0141828D01*
X0283474Y0141706D01*
X0283634Y0141581D01*
X0283790Y0141452D01*
X0283943Y0141319D01*
X0284093Y0141182D01*
X0284240Y0141042D01*
X0284383Y0140899D01*
X0284523Y0140752D01*
X0284660Y0140602D01*
X0284792Y0140448D01*
X0284720Y0140388D01*
X0284589Y0140540D01*
X0284454Y0140688D01*
X0284316Y0140833D01*
X0284174Y0140975D01*
X0284029Y0141114D01*
X0283881Y0141249D01*
X0283729Y0141380D01*
X0283574Y0141508D01*
X0283417Y0141632D01*
X0283256Y0141752D01*
X0283093Y0141868D01*
X0282926Y0141980D01*
X0282758Y0142088D01*
X0282586Y0142193D01*
X0282412Y0142293D01*
X0282236Y0142388D01*
X0282058Y0142480D01*
X0281877Y0142567D01*
X0281694Y0142650D01*
X0281510Y0142729D01*
X0281324Y0142803D01*
X0281135Y0142872D01*
X0280946Y0142937D01*
X0280754Y0142997D01*
X0280562Y0143053D01*
X0280368Y0143104D01*
X0280173Y0143151D01*
X0279977Y0143193D01*
X0279780Y0143230D01*
X0279582Y0143262D01*
X0279383Y0143290D01*
X0279184Y0143313D01*
X0278984Y0143331D01*
X0278784Y0143344D01*
X0278583Y0143352D01*
X0278383Y0143356D01*
X0278383Y0143262D01*
X0278581Y0143258D01*
X0278779Y0143250D01*
X0278977Y0143237D01*
X0279175Y0143219D01*
X0279372Y0143196D01*
X0279568Y0143169D01*
X0279764Y0143137D01*
X0279958Y0143101D01*
X0280152Y0143059D01*
X0280345Y0143013D01*
X0280537Y0142963D01*
X0280727Y0142907D01*
X0280916Y0142848D01*
X0281104Y0142783D01*
X0281290Y0142715D01*
X0281474Y0142642D01*
X0281657Y0142564D01*
X0281837Y0142482D01*
X0282016Y0142396D01*
X0282192Y0142305D01*
X0282366Y0142211D01*
X0282538Y0142112D01*
X0282708Y0142009D01*
X0282875Y0141902D01*
X0283039Y0141791D01*
X0283200Y0141676D01*
X0283359Y0141557D01*
X0283515Y0141435D01*
X0283668Y0141309D01*
X0283818Y0141179D01*
X0283965Y0141045D01*
X0284108Y0140908D01*
X0284248Y0140768D01*
X0284385Y0140625D01*
X0284518Y0140478D01*
X0284648Y0140328D01*
X0284576Y0140268D01*
X0284447Y0140416D01*
X0284316Y0140561D01*
X0284181Y0140703D01*
X0284042Y0140841D01*
X0283900Y0140977D01*
X0283755Y0141109D01*
X0283607Y0141237D01*
X0283456Y0141362D01*
X0283302Y0141483D01*
X0283145Y0141600D01*
X0282985Y0141714D01*
X0282823Y0141823D01*
X0282658Y0141929D01*
X0282490Y0142031D01*
X0282320Y0142129D01*
X0282148Y0142222D01*
X0281974Y0142312D01*
X0281797Y0142397D01*
X0281619Y0142478D01*
X0281439Y0142555D01*
X0281256Y0142627D01*
X0281073Y0142695D01*
X0280887Y0142758D01*
X0280700Y0142817D01*
X0280512Y0142872D01*
X0280323Y0142922D01*
X0280132Y0142967D01*
X0279940Y0143008D01*
X0279748Y0143045D01*
X0279554Y0143076D01*
X0279360Y0143103D01*
X0279165Y0143125D01*
X0278970Y0143143D01*
X0278775Y0143156D01*
X0278579Y0143164D01*
X0278383Y0143168D01*
X0278383Y0143074D01*
X0278577Y0143070D01*
X0278770Y0143062D01*
X0278963Y0143049D01*
X0279156Y0143032D01*
X0279349Y0143010D01*
X0279541Y0142983D01*
X0279732Y0142952D01*
X0279922Y0142916D01*
X0280112Y0142876D01*
X0280300Y0142831D01*
X0280487Y0142781D01*
X0280673Y0142727D01*
X0280858Y0142669D01*
X0281041Y0142606D01*
X0281223Y0142539D01*
X0281403Y0142468D01*
X0281581Y0142392D01*
X0281758Y0142312D01*
X0281932Y0142228D01*
X0282104Y0142139D01*
X0282274Y0142047D01*
X0282442Y0141950D01*
X0282608Y0141849D01*
X0282771Y0141745D01*
X0282931Y0141637D01*
X0283089Y0141524D01*
X0283244Y0141408D01*
X0283397Y0141289D01*
X0283546Y0141165D01*
X0283693Y0141039D01*
X0283836Y0140908D01*
X0283976Y0140775D01*
X0284113Y0140638D01*
X0284246Y0140497D01*
X0284377Y0140354D01*
X0284503Y0140207D01*
X0284431Y0140147D01*
X0284306Y0140292D01*
X0284177Y0140434D01*
X0284045Y0140572D01*
X0283910Y0140708D01*
X0283771Y0140840D01*
X0283630Y0140969D01*
X0283485Y0141094D01*
X0283338Y0141216D01*
X0283187Y0141334D01*
X0283034Y0141449D01*
X0282878Y0141559D01*
X0282719Y0141667D01*
X0282558Y0141770D01*
X0282394Y0141869D01*
X0282228Y0141965D01*
X0282060Y0142056D01*
X0281890Y0142143D01*
X0281718Y0142227D01*
X0281543Y0142306D01*
X0281367Y0142381D01*
X0281189Y0142451D01*
X0281010Y0142518D01*
X0280829Y0142580D01*
X0280646Y0142637D01*
X0280462Y0142691D01*
X0280277Y0142740D01*
X0280091Y0142784D01*
X0279904Y0142824D01*
X0279716Y0142859D01*
X0279527Y0142890D01*
X0279337Y0142917D01*
X0279147Y0142938D01*
X0278957Y0142956D01*
X0278766Y0142968D01*
X0278574Y0142976D01*
X0278383Y0142980D01*
X0278383Y0142886D01*
X0278572Y0142882D01*
X0278761Y0142874D01*
X0278950Y0142862D01*
X0279138Y0142845D01*
X0279326Y0142823D01*
X0279513Y0142797D01*
X0279700Y0142767D01*
X0279886Y0142732D01*
X0280071Y0142692D01*
X0280255Y0142648D01*
X0280437Y0142600D01*
X0280619Y0142547D01*
X0280799Y0142490D01*
X0280978Y0142429D01*
X0281156Y0142363D01*
X0281332Y0142294D01*
X0281506Y0142220D01*
X0281678Y0142142D01*
X0281848Y0142059D01*
X0282016Y0141973D01*
X0282182Y0141883D01*
X0282346Y0141788D01*
X0282508Y0141690D01*
X0282667Y0141588D01*
X0282824Y0141482D01*
X0282978Y0141373D01*
X0283130Y0141259D01*
X0283278Y0141143D01*
X0283424Y0141022D01*
X0283567Y0140899D01*
X0283707Y0140771D01*
X0283844Y0140641D01*
X0283978Y0140507D01*
X0284108Y0140370D01*
X0284235Y0140230D01*
X0284359Y0140087D01*
X0284287Y0140027D01*
X0284164Y0140168D01*
X0284039Y0140306D01*
X0283910Y0140442D01*
X0283778Y0140574D01*
X0283643Y0140703D01*
X0283504Y0140828D01*
X0283363Y0140951D01*
X0283219Y0141070D01*
X0283072Y0141185D01*
X0282923Y0141297D01*
X0282770Y0141405D01*
X0282615Y0141510D01*
X0282458Y0141610D01*
X0282298Y0141707D01*
X0282137Y0141801D01*
X0281972Y0141890D01*
X0281806Y0141975D01*
X0281638Y0142056D01*
X0281468Y0142134D01*
X0281296Y0142207D01*
X0281122Y0142276D01*
X0280947Y0142340D01*
X0280770Y0142401D01*
X0280592Y0142457D01*
X0280413Y0142509D01*
X0280232Y0142557D01*
X0280050Y0142600D01*
X0279868Y0142639D01*
X0279684Y0142674D01*
X0279500Y0142704D01*
X0279315Y0142730D01*
X0279129Y0142751D01*
X0278943Y0142768D01*
X0278756Y0142780D01*
X0278570Y0142788D01*
X0278383Y0142792D01*
X0278383Y0142698D01*
X0278567Y0142694D01*
X0278752Y0142687D01*
X0278936Y0142674D01*
X0279120Y0142658D01*
X0279303Y0142637D01*
X0279486Y0142611D01*
X0279668Y0142581D01*
X0279849Y0142547D01*
X0280030Y0142509D01*
X0280209Y0142466D01*
X0280388Y0142419D01*
X0280565Y0142367D01*
X0280741Y0142312D01*
X0280916Y0142252D01*
X0281089Y0142188D01*
X0281260Y0142120D01*
X0281430Y0142048D01*
X0281598Y0141971D01*
X0281764Y0141891D01*
X0281928Y0141807D01*
X0282091Y0141719D01*
X0282251Y0141627D01*
X0282408Y0141531D01*
X0282564Y0141431D01*
X0282717Y0141328D01*
X0282867Y0141221D01*
X0283015Y0141111D01*
X0283160Y0140997D01*
X0283302Y0140879D01*
X0283442Y0140758D01*
X0283578Y0140634D01*
X0283712Y0140507D01*
X0283842Y0140376D01*
X0283970Y0140243D01*
X0284094Y0140106D01*
X0284214Y0139967D01*
X0284142Y0139906D01*
X0284023Y0140044D01*
X0283900Y0140179D01*
X0283775Y0140311D01*
X0283646Y0140440D01*
X0283514Y0140566D01*
X0283379Y0140688D01*
X0283241Y0140808D01*
X0283101Y0140924D01*
X0282957Y0141036D01*
X0282811Y0141145D01*
X0282663Y0141251D01*
X0282512Y0141353D01*
X0282358Y0141451D01*
X0282203Y0141546D01*
X0282045Y0141637D01*
X0281884Y0141724D01*
X0281722Y0141807D01*
X0281558Y0141886D01*
X0281392Y0141961D01*
X0281224Y0142033D01*
X0281055Y0142100D01*
X0280884Y0142163D01*
X0280712Y0142222D01*
X0280538Y0142277D01*
X0280363Y0142328D01*
X0280187Y0142375D01*
X0280009Y0142417D01*
X0279831Y0142455D01*
X0279652Y0142489D01*
X0279472Y0142518D01*
X0279292Y0142543D01*
X0279111Y0142564D01*
X0278929Y0142581D01*
X0278747Y0142593D01*
X0278565Y0142600D01*
X0278383Y0142604D01*
X0238284Y0143449D02*
X0238284Y0142549D01*
X0238284Y0142550D02*
X0238101Y0142546D01*
X0237918Y0142539D01*
X0237735Y0142526D01*
X0237552Y0142509D01*
X0237370Y0142488D01*
X0237189Y0142463D01*
X0237008Y0142433D01*
X0236828Y0142398D01*
X0236649Y0142360D01*
X0236471Y0142317D01*
X0236294Y0142269D01*
X0236119Y0142218D01*
X0235944Y0142162D01*
X0235771Y0142102D01*
X0235600Y0142037D01*
X0235430Y0141969D01*
X0235261Y0141897D01*
X0235095Y0141820D01*
X0234931Y0141739D01*
X0234768Y0141655D01*
X0234608Y0141566D01*
X0234449Y0141474D01*
X0234293Y0141378D01*
X0234140Y0141278D01*
X0233989Y0141174D01*
X0233840Y0141067D01*
X0233694Y0140956D01*
X0233551Y0140842D01*
X0233411Y0140724D01*
X0233274Y0140603D01*
X0233139Y0140479D01*
X0233008Y0140351D01*
X0232879Y0140220D01*
X0232754Y0140086D01*
X0232633Y0139950D01*
X0232514Y0139810D01*
X0232399Y0139667D01*
X0232288Y0139522D01*
X0232180Y0139374D01*
X0232076Y0139223D01*
X0231975Y0139070D01*
X0231878Y0138915D01*
X0231785Y0138757D01*
X0231696Y0138597D01*
X0230902Y0139020D01*
X0231002Y0139200D01*
X0231106Y0139377D01*
X0231214Y0139551D01*
X0231327Y0139723D01*
X0231444Y0139891D01*
X0231565Y0140057D01*
X0231689Y0140220D01*
X0231818Y0140380D01*
X0231951Y0140537D01*
X0232087Y0140690D01*
X0232227Y0140840D01*
X0232371Y0140987D01*
X0232518Y0141130D01*
X0232669Y0141270D01*
X0232823Y0141405D01*
X0232980Y0141537D01*
X0233140Y0141665D01*
X0233304Y0141790D01*
X0233470Y0141910D01*
X0233640Y0142026D01*
X0233812Y0142138D01*
X0233986Y0142246D01*
X0234164Y0142349D01*
X0234343Y0142448D01*
X0234526Y0142543D01*
X0234710Y0142633D01*
X0234896Y0142719D01*
X0235085Y0142800D01*
X0235275Y0142877D01*
X0235468Y0142949D01*
X0235662Y0143016D01*
X0235857Y0143079D01*
X0236054Y0143137D01*
X0236252Y0143190D01*
X0236452Y0143238D01*
X0236653Y0143281D01*
X0236854Y0143319D01*
X0237057Y0143353D01*
X0237260Y0143381D01*
X0237464Y0143405D01*
X0237669Y0143424D01*
X0237873Y0143437D01*
X0238078Y0143446D01*
X0238284Y0143450D01*
X0238284Y0143356D01*
X0238081Y0143352D01*
X0237878Y0143344D01*
X0237675Y0143330D01*
X0237473Y0143312D01*
X0237272Y0143288D01*
X0237071Y0143260D01*
X0236870Y0143227D01*
X0236671Y0143189D01*
X0236473Y0143146D01*
X0236275Y0143098D01*
X0236079Y0143046D01*
X0235884Y0142989D01*
X0235691Y0142927D01*
X0235499Y0142860D01*
X0235309Y0142789D01*
X0235121Y0142714D01*
X0234935Y0142633D01*
X0234750Y0142548D01*
X0234568Y0142459D01*
X0234388Y0142365D01*
X0234210Y0142267D01*
X0234035Y0142165D01*
X0233862Y0142059D01*
X0233692Y0141948D01*
X0233524Y0141833D01*
X0233360Y0141714D01*
X0233198Y0141591D01*
X0233040Y0141465D01*
X0232884Y0141334D01*
X0232732Y0141200D01*
X0232583Y0141062D01*
X0232437Y0140921D01*
X0232295Y0140776D01*
X0232157Y0140627D01*
X0232022Y0140476D01*
X0231891Y0140321D01*
X0231764Y0140163D01*
X0231640Y0140001D01*
X0231521Y0139837D01*
X0231405Y0139670D01*
X0231294Y0139501D01*
X0231186Y0139328D01*
X0231083Y0139153D01*
X0230985Y0138976D01*
X0231068Y0138932D01*
X0231165Y0139107D01*
X0231267Y0139280D01*
X0231373Y0139450D01*
X0231483Y0139618D01*
X0231597Y0139783D01*
X0231716Y0139945D01*
X0231838Y0140105D01*
X0231964Y0140261D01*
X0232093Y0140414D01*
X0232227Y0140564D01*
X0232363Y0140711D01*
X0232504Y0140854D01*
X0232648Y0140994D01*
X0232795Y0141130D01*
X0232946Y0141263D01*
X0233099Y0141392D01*
X0233256Y0141517D01*
X0233416Y0141639D01*
X0233579Y0141756D01*
X0233744Y0141870D01*
X0233912Y0141979D01*
X0234083Y0142085D01*
X0234256Y0142186D01*
X0234432Y0142283D01*
X0234610Y0142375D01*
X0234790Y0142463D01*
X0234973Y0142547D01*
X0235157Y0142627D01*
X0235343Y0142702D01*
X0235531Y0142772D01*
X0235721Y0142838D01*
X0235912Y0142899D01*
X0236104Y0142955D01*
X0236298Y0143007D01*
X0236493Y0143054D01*
X0236689Y0143097D01*
X0236887Y0143134D01*
X0237085Y0143167D01*
X0237283Y0143195D01*
X0237483Y0143218D01*
X0237682Y0143236D01*
X0237883Y0143250D01*
X0238083Y0143258D01*
X0238284Y0143262D01*
X0238284Y0143168D01*
X0238085Y0143164D01*
X0237887Y0143156D01*
X0237689Y0143143D01*
X0237492Y0143124D01*
X0237295Y0143102D01*
X0237098Y0143074D01*
X0236903Y0143042D01*
X0236708Y0143004D01*
X0236514Y0142963D01*
X0236321Y0142916D01*
X0236129Y0142865D01*
X0235939Y0142809D01*
X0235750Y0142749D01*
X0235563Y0142684D01*
X0235377Y0142614D01*
X0235193Y0142540D01*
X0235011Y0142461D01*
X0234831Y0142378D01*
X0234652Y0142291D01*
X0234476Y0142200D01*
X0234303Y0142104D01*
X0234131Y0142004D01*
X0233963Y0141900D01*
X0233796Y0141792D01*
X0233633Y0141679D01*
X0233472Y0141563D01*
X0233314Y0141443D01*
X0233159Y0141319D01*
X0233007Y0141192D01*
X0232858Y0141061D01*
X0232713Y0140926D01*
X0232570Y0140788D01*
X0232432Y0140646D01*
X0232296Y0140501D01*
X0232164Y0140353D01*
X0232036Y0140201D01*
X0231912Y0140047D01*
X0231791Y0139890D01*
X0231674Y0139729D01*
X0231561Y0139566D01*
X0231453Y0139400D01*
X0231348Y0139232D01*
X0231247Y0139061D01*
X0231151Y0138888D01*
X0231233Y0138843D01*
X0231329Y0139015D01*
X0231428Y0139184D01*
X0231532Y0139350D01*
X0231640Y0139514D01*
X0231751Y0139675D01*
X0231867Y0139834D01*
X0231986Y0139989D01*
X0232109Y0140142D01*
X0232236Y0140291D01*
X0232366Y0140438D01*
X0232500Y0140581D01*
X0232637Y0140721D01*
X0232778Y0140858D01*
X0232921Y0140991D01*
X0233068Y0141121D01*
X0233219Y0141247D01*
X0233372Y0141369D01*
X0233528Y0141488D01*
X0233687Y0141603D01*
X0233849Y0141713D01*
X0234013Y0141820D01*
X0234180Y0141923D01*
X0234349Y0142022D01*
X0234521Y0142117D01*
X0234695Y0142207D01*
X0234871Y0142294D01*
X0235049Y0142375D01*
X0235229Y0142453D01*
X0235411Y0142526D01*
X0235594Y0142595D01*
X0235780Y0142659D01*
X0235966Y0142719D01*
X0236154Y0142774D01*
X0236344Y0142825D01*
X0236534Y0142871D01*
X0236726Y0142912D01*
X0236919Y0142949D01*
X0237112Y0142981D01*
X0237306Y0143008D01*
X0237501Y0143031D01*
X0237696Y0143049D01*
X0237892Y0143062D01*
X0238088Y0143070D01*
X0238284Y0143074D01*
X0238284Y0142980D01*
X0238090Y0142976D01*
X0237896Y0142968D01*
X0237703Y0142955D01*
X0237510Y0142937D01*
X0237318Y0142915D01*
X0237126Y0142888D01*
X0236935Y0142856D01*
X0236744Y0142820D01*
X0236555Y0142779D01*
X0236367Y0142734D01*
X0236180Y0142684D01*
X0235994Y0142629D01*
X0235809Y0142570D01*
X0235626Y0142507D01*
X0235445Y0142439D01*
X0235265Y0142366D01*
X0235087Y0142290D01*
X0234911Y0142209D01*
X0234737Y0142123D01*
X0234565Y0142034D01*
X0234395Y0141940D01*
X0234228Y0141843D01*
X0234063Y0141741D01*
X0233901Y0141635D01*
X0233741Y0141526D01*
X0233584Y0141412D01*
X0233430Y0141295D01*
X0233278Y0141174D01*
X0233130Y0141050D01*
X0232985Y0140922D01*
X0232842Y0140790D01*
X0232703Y0140655D01*
X0232568Y0140517D01*
X0232436Y0140375D01*
X0232307Y0140230D01*
X0232182Y0140082D01*
X0232060Y0139931D01*
X0231942Y0139778D01*
X0231828Y0139621D01*
X0231718Y0139462D01*
X0231612Y0139300D01*
X0231509Y0139135D01*
X0231411Y0138968D01*
X0231316Y0138799D01*
X0231399Y0138755D01*
X0231493Y0138922D01*
X0231590Y0139087D01*
X0231691Y0139250D01*
X0231796Y0139410D01*
X0231905Y0139567D01*
X0232018Y0139722D01*
X0232134Y0139874D01*
X0232254Y0140023D01*
X0232378Y0140169D01*
X0232505Y0140312D01*
X0232636Y0140452D01*
X0232770Y0140588D01*
X0232907Y0140722D01*
X0233048Y0140852D01*
X0233191Y0140979D01*
X0233338Y0141102D01*
X0233488Y0141221D01*
X0233640Y0141337D01*
X0233795Y0141449D01*
X0233953Y0141557D01*
X0234114Y0141662D01*
X0234277Y0141762D01*
X0234442Y0141859D01*
X0234609Y0141951D01*
X0234779Y0142039D01*
X0234951Y0142124D01*
X0235125Y0142204D01*
X0235301Y0142279D01*
X0235479Y0142351D01*
X0235658Y0142418D01*
X0235839Y0142481D01*
X0236021Y0142539D01*
X0236205Y0142593D01*
X0236390Y0142643D01*
X0236576Y0142687D01*
X0236763Y0142728D01*
X0236951Y0142764D01*
X0237140Y0142795D01*
X0237329Y0142822D01*
X0237519Y0142844D01*
X0237710Y0142861D01*
X0237901Y0142874D01*
X0238092Y0142882D01*
X0238284Y0142886D01*
X0238284Y0142792D01*
X0238095Y0142788D01*
X0237906Y0142780D01*
X0237717Y0142768D01*
X0237529Y0142750D01*
X0237341Y0142728D01*
X0237154Y0142702D01*
X0236967Y0142671D01*
X0236781Y0142636D01*
X0236596Y0142596D01*
X0236412Y0142551D01*
X0236230Y0142502D01*
X0236048Y0142449D01*
X0235868Y0142392D01*
X0235690Y0142330D01*
X0235512Y0142263D01*
X0235337Y0142193D01*
X0235163Y0142118D01*
X0234991Y0142039D01*
X0234822Y0141955D01*
X0234654Y0141868D01*
X0234488Y0141777D01*
X0234325Y0141681D01*
X0234164Y0141582D01*
X0234005Y0141479D01*
X0233849Y0141372D01*
X0233696Y0141261D01*
X0233545Y0141147D01*
X0233398Y0141029D01*
X0233253Y0140907D01*
X0233111Y0140782D01*
X0232972Y0140654D01*
X0232837Y0140522D01*
X0232704Y0140387D01*
X0232575Y0140249D01*
X0232449Y0140107D01*
X0232327Y0139963D01*
X0232208Y0139816D01*
X0232093Y0139666D01*
X0231982Y0139513D01*
X0231874Y0139357D01*
X0231770Y0139199D01*
X0231670Y0139039D01*
X0231574Y0138876D01*
X0231482Y0138711D01*
X0231565Y0138666D01*
X0231656Y0138830D01*
X0231751Y0138991D01*
X0231850Y0139149D01*
X0231952Y0139305D01*
X0232059Y0139459D01*
X0232169Y0139610D01*
X0232283Y0139758D01*
X0232400Y0139904D01*
X0232521Y0140046D01*
X0232645Y0140186D01*
X0232772Y0140322D01*
X0232903Y0140456D01*
X0233037Y0140586D01*
X0233174Y0140713D01*
X0233314Y0140836D01*
X0233457Y0140956D01*
X0233603Y0141073D01*
X0233752Y0141186D01*
X0233904Y0141295D01*
X0234058Y0141401D01*
X0234214Y0141503D01*
X0234373Y0141601D01*
X0234535Y0141695D01*
X0234698Y0141785D01*
X0234864Y0141872D01*
X0235032Y0141954D01*
X0235201Y0142032D01*
X0235373Y0142106D01*
X0235546Y0142175D01*
X0235721Y0142241D01*
X0235898Y0142302D01*
X0236076Y0142359D01*
X0236255Y0142412D01*
X0236435Y0142460D01*
X0236617Y0142504D01*
X0236800Y0142544D01*
X0236983Y0142579D01*
X0237167Y0142609D01*
X0237352Y0142635D01*
X0237538Y0142657D01*
X0237724Y0142674D01*
X0237910Y0142686D01*
X0238097Y0142694D01*
X0238284Y0142698D01*
X0238284Y0142604D01*
X0238099Y0142600D01*
X0237915Y0142592D01*
X0237731Y0142580D01*
X0237547Y0142563D01*
X0237364Y0142542D01*
X0237181Y0142516D01*
X0236999Y0142486D01*
X0236818Y0142451D01*
X0236638Y0142412D01*
X0236458Y0142369D01*
X0236280Y0142321D01*
X0236103Y0142269D01*
X0235927Y0142213D01*
X0235753Y0142153D01*
X0235580Y0142088D01*
X0235409Y0142019D01*
X0235240Y0141946D01*
X0235072Y0141869D01*
X0234906Y0141788D01*
X0234743Y0141702D01*
X0234581Y0141613D01*
X0234422Y0141520D01*
X0234265Y0141423D01*
X0234110Y0141323D01*
X0233958Y0141218D01*
X0233808Y0141110D01*
X0233661Y0140999D01*
X0233517Y0140884D01*
X0233376Y0140765D01*
X0233237Y0140643D01*
X0233102Y0140518D01*
X0232970Y0140389D01*
X0232840Y0140257D01*
X0232714Y0140123D01*
X0232592Y0139985D01*
X0232473Y0139844D01*
X0232357Y0139700D01*
X0232244Y0139554D01*
X0232136Y0139405D01*
X0232031Y0139253D01*
X0231929Y0139099D01*
X0231832Y0138942D01*
X0231738Y0138783D01*
X0231648Y0138622D01*
X0231022Y0130765D02*
X0231803Y0131211D01*
X0231896Y0131054D01*
X0231993Y0130900D01*
X0232094Y0130748D01*
X0232199Y0130599D01*
X0232307Y0130452D01*
X0232418Y0130307D01*
X0232533Y0130166D01*
X0232652Y0130027D01*
X0232774Y0129892D01*
X0232899Y0129759D01*
X0233027Y0129629D01*
X0233158Y0129503D01*
X0233292Y0129379D01*
X0233429Y0129259D01*
X0233569Y0129142D01*
X0233712Y0129029D01*
X0233858Y0128919D01*
X0234006Y0128813D01*
X0234157Y0128710D01*
X0234310Y0128611D01*
X0234465Y0128516D01*
X0234623Y0128425D01*
X0234783Y0128337D01*
X0234945Y0128253D01*
X0235108Y0128173D01*
X0235274Y0128097D01*
X0235442Y0128026D01*
X0235611Y0127958D01*
X0235782Y0127894D01*
X0235954Y0127835D01*
X0236128Y0127779D01*
X0236303Y0127728D01*
X0236479Y0127681D01*
X0236656Y0127639D01*
X0236835Y0127600D01*
X0237014Y0127566D01*
X0237194Y0127536D01*
X0237374Y0127511D01*
X0237555Y0127490D01*
X0237737Y0127474D01*
X0237919Y0127461D01*
X0238101Y0127454D01*
X0238283Y0127450D01*
X0238284Y0126551D01*
X0238283Y0126550D01*
X0238079Y0126554D01*
X0237875Y0126562D01*
X0237671Y0126576D01*
X0237467Y0126594D01*
X0237264Y0126618D01*
X0237062Y0126646D01*
X0236860Y0126679D01*
X0236660Y0126717D01*
X0236460Y0126760D01*
X0236261Y0126808D01*
X0236064Y0126860D01*
X0235868Y0126918D01*
X0235673Y0126980D01*
X0235480Y0127046D01*
X0235288Y0127118D01*
X0235099Y0127194D01*
X0234911Y0127274D01*
X0234725Y0127359D01*
X0234541Y0127449D01*
X0234360Y0127542D01*
X0234181Y0127641D01*
X0234004Y0127743D01*
X0233830Y0127850D01*
X0233658Y0127961D01*
X0233489Y0128076D01*
X0233323Y0128195D01*
X0233160Y0128318D01*
X0233000Y0128445D01*
X0232843Y0128576D01*
X0232689Y0128711D01*
X0232539Y0128849D01*
X0232392Y0128991D01*
X0232248Y0129136D01*
X0232108Y0129285D01*
X0231972Y0129437D01*
X0231839Y0129593D01*
X0231711Y0129751D01*
X0231586Y0129913D01*
X0231465Y0130078D01*
X0231348Y0130245D01*
X0231235Y0130416D01*
X0231126Y0130589D01*
X0231021Y0130764D01*
X0231103Y0130811D01*
X0231206Y0130637D01*
X0231314Y0130466D01*
X0231426Y0130298D01*
X0231541Y0130132D01*
X0231661Y0129969D01*
X0231785Y0129810D01*
X0231912Y0129653D01*
X0232043Y0129499D01*
X0232178Y0129349D01*
X0232316Y0129201D01*
X0232458Y0129058D01*
X0232604Y0128917D01*
X0232752Y0128781D01*
X0232904Y0128648D01*
X0233060Y0128518D01*
X0233218Y0128393D01*
X0233379Y0128271D01*
X0233543Y0128153D01*
X0233710Y0128039D01*
X0233880Y0127930D01*
X0234052Y0127824D01*
X0234227Y0127723D01*
X0234404Y0127625D01*
X0234583Y0127533D01*
X0234765Y0127444D01*
X0234949Y0127360D01*
X0235134Y0127280D01*
X0235322Y0127205D01*
X0235511Y0127135D01*
X0235702Y0127069D01*
X0235895Y0127008D01*
X0236089Y0126951D01*
X0236284Y0126899D01*
X0236480Y0126852D01*
X0236678Y0126810D01*
X0236876Y0126772D01*
X0237076Y0126739D01*
X0237276Y0126711D01*
X0237477Y0126688D01*
X0237678Y0126670D01*
X0237879Y0126656D01*
X0238081Y0126648D01*
X0238283Y0126644D01*
X0238283Y0126738D01*
X0238084Y0126742D01*
X0237884Y0126750D01*
X0237685Y0126763D01*
X0237486Y0126782D01*
X0237287Y0126804D01*
X0237090Y0126832D01*
X0236892Y0126865D01*
X0236696Y0126902D01*
X0236501Y0126944D01*
X0236307Y0126990D01*
X0236114Y0127042D01*
X0235922Y0127098D01*
X0235732Y0127158D01*
X0235543Y0127223D01*
X0235356Y0127293D01*
X0235170Y0127367D01*
X0234987Y0127446D01*
X0234805Y0127529D01*
X0234625Y0127617D01*
X0234448Y0127708D01*
X0234273Y0127804D01*
X0234100Y0127905D01*
X0233930Y0128009D01*
X0233762Y0128118D01*
X0233597Y0128230D01*
X0233435Y0128346D01*
X0233276Y0128467D01*
X0233119Y0128591D01*
X0232966Y0128719D01*
X0232815Y0128850D01*
X0232668Y0128986D01*
X0232525Y0129124D01*
X0232384Y0129266D01*
X0232247Y0129412D01*
X0232114Y0129561D01*
X0231984Y0129713D01*
X0231858Y0129868D01*
X0231736Y0130026D01*
X0231618Y0130187D01*
X0231504Y0130350D01*
X0231393Y0130517D01*
X0231287Y0130686D01*
X0231185Y0130857D01*
X0231266Y0130904D01*
X0231367Y0130734D01*
X0231472Y0130567D01*
X0231582Y0130403D01*
X0231695Y0130241D01*
X0231812Y0130082D01*
X0231932Y0129926D01*
X0232057Y0129772D01*
X0232185Y0129622D01*
X0232317Y0129475D01*
X0232452Y0129331D01*
X0232591Y0129191D01*
X0232733Y0129054D01*
X0232878Y0128920D01*
X0233027Y0128790D01*
X0233179Y0128664D01*
X0233333Y0128541D01*
X0233491Y0128422D01*
X0233651Y0128307D01*
X0233814Y0128196D01*
X0233980Y0128089D01*
X0234148Y0127985D01*
X0234319Y0127886D01*
X0234492Y0127791D01*
X0234668Y0127701D01*
X0234845Y0127614D01*
X0235025Y0127532D01*
X0235206Y0127454D01*
X0235389Y0127381D01*
X0235574Y0127312D01*
X0235761Y0127248D01*
X0235949Y0127188D01*
X0236139Y0127132D01*
X0236329Y0127082D01*
X0236521Y0127035D01*
X0236714Y0126994D01*
X0236908Y0126957D01*
X0237103Y0126925D01*
X0237299Y0126898D01*
X0237495Y0126875D01*
X0237692Y0126857D01*
X0237889Y0126844D01*
X0238086Y0126836D01*
X0238283Y0126832D01*
X0238283Y0126926D01*
X0238088Y0126930D01*
X0237893Y0126938D01*
X0237698Y0126951D01*
X0237504Y0126969D01*
X0237310Y0126991D01*
X0237117Y0127018D01*
X0236924Y0127050D01*
X0236733Y0127086D01*
X0236542Y0127127D01*
X0236352Y0127173D01*
X0236164Y0127223D01*
X0235976Y0127278D01*
X0235790Y0127337D01*
X0235606Y0127400D01*
X0235423Y0127469D01*
X0235242Y0127541D01*
X0235063Y0127618D01*
X0234885Y0127699D01*
X0234710Y0127785D01*
X0234536Y0127874D01*
X0234365Y0127968D01*
X0234197Y0128066D01*
X0234030Y0128168D01*
X0233866Y0128274D01*
X0233705Y0128384D01*
X0233547Y0128498D01*
X0233391Y0128615D01*
X0233238Y0128737D01*
X0233088Y0128862D01*
X0232941Y0128990D01*
X0232798Y0129122D01*
X0232657Y0129258D01*
X0232520Y0129397D01*
X0232386Y0129539D01*
X0232256Y0129684D01*
X0232129Y0129832D01*
X0232006Y0129984D01*
X0231887Y0130138D01*
X0231771Y0130295D01*
X0231660Y0130455D01*
X0231552Y0130618D01*
X0231448Y0130783D01*
X0231348Y0130951D01*
X0231429Y0130997D01*
X0231528Y0130832D01*
X0231631Y0130668D01*
X0231738Y0130508D01*
X0231848Y0130350D01*
X0231962Y0130194D01*
X0232080Y0130042D01*
X0232202Y0129892D01*
X0232327Y0129746D01*
X0232456Y0129602D01*
X0232588Y0129462D01*
X0232723Y0129324D01*
X0232862Y0129190D01*
X0233004Y0129060D01*
X0233149Y0128933D01*
X0233297Y0128809D01*
X0233448Y0128690D01*
X0233602Y0128573D01*
X0233759Y0128461D01*
X0233918Y0128352D01*
X0234080Y0128248D01*
X0234245Y0128147D01*
X0234411Y0128050D01*
X0234581Y0127957D01*
X0234752Y0127869D01*
X0234925Y0127784D01*
X0235101Y0127704D01*
X0235278Y0127628D01*
X0235457Y0127556D01*
X0235638Y0127489D01*
X0235820Y0127426D01*
X0236004Y0127368D01*
X0236189Y0127314D01*
X0236375Y0127264D01*
X0236563Y0127219D01*
X0236751Y0127178D01*
X0236940Y0127142D01*
X0237131Y0127111D01*
X0237322Y0127084D01*
X0237513Y0127062D01*
X0237705Y0127045D01*
X0237898Y0127032D01*
X0238090Y0127024D01*
X0238283Y0127020D01*
X0238283Y0127114D01*
X0238093Y0127118D01*
X0237902Y0127126D01*
X0237712Y0127138D01*
X0237522Y0127156D01*
X0237333Y0127178D01*
X0237145Y0127204D01*
X0236957Y0127235D01*
X0236769Y0127271D01*
X0236583Y0127311D01*
X0236398Y0127355D01*
X0236214Y0127404D01*
X0236031Y0127458D01*
X0235849Y0127515D01*
X0235669Y0127578D01*
X0235491Y0127644D01*
X0235314Y0127715D01*
X0235139Y0127790D01*
X0234965Y0127869D01*
X0234794Y0127953D01*
X0234625Y0128040D01*
X0234458Y0128132D01*
X0234293Y0128228D01*
X0234130Y0128327D01*
X0233970Y0128431D01*
X0233813Y0128538D01*
X0233658Y0128649D01*
X0233506Y0128764D01*
X0233357Y0128882D01*
X0233211Y0129004D01*
X0233067Y0129130D01*
X0232927Y0129259D01*
X0232790Y0129391D01*
X0232656Y0129527D01*
X0232525Y0129665D01*
X0232398Y0129807D01*
X0232274Y0129952D01*
X0232154Y0130100D01*
X0232038Y0130251D01*
X0231925Y0130404D01*
X0231816Y0130560D01*
X0231710Y0130719D01*
X0231609Y0130880D01*
X0231511Y0131044D01*
X0231593Y0131091D01*
X0231689Y0130929D01*
X0231789Y0130770D01*
X0231893Y0130613D01*
X0232001Y0130458D01*
X0232113Y0130307D01*
X0232228Y0130158D01*
X0232347Y0130012D01*
X0232469Y0129869D01*
X0232595Y0129729D01*
X0232724Y0129592D01*
X0232856Y0129458D01*
X0232992Y0129327D01*
X0233130Y0129200D01*
X0233272Y0129076D01*
X0233416Y0128955D01*
X0233564Y0128838D01*
X0233714Y0128725D01*
X0233867Y0128615D01*
X0234023Y0128509D01*
X0234181Y0128407D01*
X0234341Y0128308D01*
X0234504Y0128214D01*
X0234669Y0128123D01*
X0234836Y0128037D01*
X0235005Y0127954D01*
X0235176Y0127876D01*
X0235349Y0127802D01*
X0235524Y0127732D01*
X0235701Y0127666D01*
X0235879Y0127605D01*
X0236058Y0127548D01*
X0236239Y0127495D01*
X0236421Y0127446D01*
X0236604Y0127402D01*
X0236788Y0127363D01*
X0236973Y0127328D01*
X0237158Y0127297D01*
X0237345Y0127271D01*
X0237532Y0127249D01*
X0237719Y0127232D01*
X0237907Y0127220D01*
X0238095Y0127212D01*
X0238283Y0127208D01*
X0238283Y0127302D01*
X0238097Y0127306D01*
X0237912Y0127314D01*
X0237726Y0127326D01*
X0237541Y0127343D01*
X0237356Y0127364D01*
X0237172Y0127390D01*
X0236989Y0127420D01*
X0236806Y0127455D01*
X0236624Y0127494D01*
X0236443Y0127538D01*
X0236264Y0127585D01*
X0236085Y0127638D01*
X0235908Y0127694D01*
X0235732Y0127755D01*
X0235558Y0127820D01*
X0235385Y0127889D01*
X0235214Y0127962D01*
X0235045Y0128039D01*
X0234878Y0128121D01*
X0234713Y0128206D01*
X0234550Y0128296D01*
X0234389Y0128389D01*
X0234231Y0128486D01*
X0234075Y0128587D01*
X0233921Y0128692D01*
X0233770Y0128800D01*
X0233621Y0128912D01*
X0233476Y0129028D01*
X0233333Y0129147D01*
X0233193Y0129269D01*
X0233056Y0129395D01*
X0232922Y0129524D01*
X0232792Y0129657D01*
X0232664Y0129792D01*
X0232540Y0129930D01*
X0232419Y0130072D01*
X0232302Y0130216D01*
X0232188Y0130363D01*
X0232078Y0130513D01*
X0231971Y0130665D01*
X0231869Y0130820D01*
X0231770Y0130978D01*
X0231674Y0131137D01*
X0231756Y0131184D01*
X0231850Y0131026D01*
X0231948Y0130871D01*
X0232049Y0130718D01*
X0232155Y0130567D01*
X0232264Y0130419D01*
X0232376Y0130274D01*
X0232492Y0130132D01*
X0232611Y0129992D01*
X0232734Y0129855D01*
X0232860Y0129722D01*
X0232989Y0129591D01*
X0233121Y0129463D01*
X0233256Y0129339D01*
X0233394Y0129218D01*
X0233535Y0129101D01*
X0233679Y0128987D01*
X0233826Y0128876D01*
X0233975Y0128769D01*
X0234127Y0128665D01*
X0234281Y0128566D01*
X0234437Y0128470D01*
X0234596Y0128378D01*
X0234757Y0128289D01*
X0234920Y0128205D01*
X0235085Y0128124D01*
X0235252Y0128048D01*
X0235421Y0127976D01*
X0235592Y0127907D01*
X0235764Y0127843D01*
X0235937Y0127783D01*
X0236112Y0127727D01*
X0236289Y0127676D01*
X0236466Y0127629D01*
X0236645Y0127586D01*
X0236824Y0127547D01*
X0237005Y0127513D01*
X0237186Y0127483D01*
X0237368Y0127458D01*
X0237550Y0127436D01*
X0237733Y0127420D01*
X0237916Y0127407D01*
X0238100Y0127400D01*
X0238283Y0127396D01*
X0238382Y0126551D02*
X0238382Y0127451D01*
X0238383Y0127450D02*
X0238567Y0127454D01*
X0238752Y0127462D01*
X0238936Y0127474D01*
X0239119Y0127491D01*
X0239303Y0127513D01*
X0239485Y0127538D01*
X0239667Y0127569D01*
X0239848Y0127604D01*
X0240029Y0127643D01*
X0240208Y0127687D01*
X0240386Y0127735D01*
X0240563Y0127787D01*
X0240739Y0127844D01*
X0240913Y0127904D01*
X0241085Y0127970D01*
X0241256Y0128039D01*
X0241426Y0128112D01*
X0241593Y0128190D01*
X0241758Y0128272D01*
X0241922Y0128357D01*
X0242083Y0128447D01*
X0242242Y0128541D01*
X0242399Y0128638D01*
X0242553Y0128739D01*
X0242705Y0128844D01*
X0242854Y0128953D01*
X0243000Y0129065D01*
X0243144Y0129181D01*
X0243284Y0129300D01*
X0243422Y0129423D01*
X0243557Y0129549D01*
X0243689Y0129678D01*
X0243817Y0129811D01*
X0243942Y0129946D01*
X0244064Y0130085D01*
X0244751Y0129504D01*
X0244615Y0129348D01*
X0244474Y0129196D01*
X0244330Y0129047D01*
X0244183Y0128902D01*
X0244032Y0128761D01*
X0243878Y0128624D01*
X0243720Y0128490D01*
X0243559Y0128360D01*
X0243395Y0128234D01*
X0243228Y0128112D01*
X0243058Y0127994D01*
X0242885Y0127881D01*
X0242709Y0127772D01*
X0242531Y0127667D01*
X0242350Y0127566D01*
X0242167Y0127470D01*
X0241982Y0127378D01*
X0241794Y0127291D01*
X0241604Y0127209D01*
X0241413Y0127131D01*
X0241219Y0127058D01*
X0241024Y0126990D01*
X0240827Y0126926D01*
X0240629Y0126868D01*
X0240429Y0126814D01*
X0240228Y0126765D01*
X0240026Y0126721D01*
X0239823Y0126682D01*
X0239619Y0126648D01*
X0239414Y0126619D01*
X0239209Y0126595D01*
X0239003Y0126577D01*
X0238796Y0126563D01*
X0238590Y0126554D01*
X0238383Y0126550D01*
X0238383Y0126644D01*
X0238587Y0126648D01*
X0238792Y0126657D01*
X0238996Y0126670D01*
X0239199Y0126689D01*
X0239402Y0126713D01*
X0239605Y0126741D01*
X0239807Y0126775D01*
X0240007Y0126813D01*
X0240207Y0126857D01*
X0240406Y0126905D01*
X0240603Y0126958D01*
X0240800Y0127016D01*
X0240994Y0127079D01*
X0241187Y0127147D01*
X0241379Y0127219D01*
X0241568Y0127296D01*
X0241756Y0127377D01*
X0241941Y0127463D01*
X0242124Y0127554D01*
X0242306Y0127649D01*
X0242484Y0127748D01*
X0242660Y0127852D01*
X0242834Y0127960D01*
X0243005Y0128072D01*
X0243173Y0128189D01*
X0243338Y0128309D01*
X0243501Y0128434D01*
X0243660Y0128562D01*
X0243816Y0128694D01*
X0243968Y0128830D01*
X0244118Y0128970D01*
X0244263Y0129113D01*
X0244406Y0129260D01*
X0244544Y0129411D01*
X0244679Y0129564D01*
X0244608Y0129625D01*
X0244474Y0129473D01*
X0244337Y0129324D01*
X0244196Y0129179D01*
X0244052Y0129038D01*
X0243905Y0128899D01*
X0243754Y0128765D01*
X0243600Y0128634D01*
X0243442Y0128507D01*
X0243282Y0128384D01*
X0243118Y0128265D01*
X0242952Y0128150D01*
X0242783Y0128039D01*
X0242612Y0127932D01*
X0242437Y0127830D01*
X0242261Y0127731D01*
X0242082Y0127637D01*
X0241900Y0127548D01*
X0241717Y0127463D01*
X0241532Y0127382D01*
X0241344Y0127306D01*
X0241155Y0127235D01*
X0240964Y0127168D01*
X0240772Y0127106D01*
X0240578Y0127049D01*
X0240383Y0126996D01*
X0240186Y0126949D01*
X0239989Y0126906D01*
X0239790Y0126868D01*
X0239591Y0126834D01*
X0239391Y0126806D01*
X0239190Y0126783D01*
X0238989Y0126764D01*
X0238787Y0126750D01*
X0238585Y0126742D01*
X0238383Y0126738D01*
X0238383Y0126832D01*
X0238583Y0126836D01*
X0238782Y0126844D01*
X0238982Y0126858D01*
X0239181Y0126876D01*
X0239379Y0126899D01*
X0239577Y0126927D01*
X0239774Y0126960D01*
X0239970Y0126998D01*
X0240166Y0127040D01*
X0240360Y0127087D01*
X0240553Y0127139D01*
X0240744Y0127196D01*
X0240935Y0127257D01*
X0241123Y0127323D01*
X0241310Y0127394D01*
X0241495Y0127469D01*
X0241679Y0127549D01*
X0241860Y0127633D01*
X0242039Y0127721D01*
X0242216Y0127814D01*
X0242391Y0127911D01*
X0242563Y0128013D01*
X0242732Y0128118D01*
X0242900Y0128228D01*
X0243064Y0128342D01*
X0243225Y0128459D01*
X0243384Y0128581D01*
X0243539Y0128706D01*
X0243692Y0128836D01*
X0243841Y0128969D01*
X0243987Y0129105D01*
X0244129Y0129245D01*
X0244268Y0129389D01*
X0244404Y0129536D01*
X0244536Y0129686D01*
X0244464Y0129746D01*
X0244334Y0129598D01*
X0244200Y0129453D01*
X0244062Y0129311D01*
X0243921Y0129173D01*
X0243777Y0129038D01*
X0243630Y0128906D01*
X0243479Y0128779D01*
X0243325Y0128655D01*
X0243169Y0128534D01*
X0243009Y0128418D01*
X0242847Y0128306D01*
X0242682Y0128197D01*
X0242514Y0128093D01*
X0242344Y0127993D01*
X0242171Y0127897D01*
X0241996Y0127805D01*
X0241819Y0127717D01*
X0241640Y0127634D01*
X0241459Y0127556D01*
X0241276Y0127481D01*
X0241091Y0127412D01*
X0240905Y0127347D01*
X0240717Y0127286D01*
X0240527Y0127230D01*
X0240337Y0127179D01*
X0240145Y0127132D01*
X0239952Y0127090D01*
X0239758Y0127053D01*
X0239563Y0127020D01*
X0239367Y0126993D01*
X0239171Y0126970D01*
X0238975Y0126952D01*
X0238778Y0126938D01*
X0238580Y0126930D01*
X0238383Y0126926D01*
X0238383Y0127020D01*
X0238578Y0127024D01*
X0238773Y0127032D01*
X0238968Y0127045D01*
X0239162Y0127063D01*
X0239356Y0127086D01*
X0239549Y0127113D01*
X0239742Y0127145D01*
X0239933Y0127182D01*
X0240124Y0127224D01*
X0240314Y0127270D01*
X0240502Y0127320D01*
X0240689Y0127376D01*
X0240875Y0127436D01*
X0241059Y0127500D01*
X0241242Y0127569D01*
X0241423Y0127642D01*
X0241602Y0127720D01*
X0241779Y0127802D01*
X0241954Y0127889D01*
X0242126Y0127979D01*
X0242297Y0128074D01*
X0242465Y0128173D01*
X0242631Y0128276D01*
X0242794Y0128383D01*
X0242955Y0128494D01*
X0243112Y0128609D01*
X0243267Y0128728D01*
X0243419Y0128851D01*
X0243568Y0128977D01*
X0243714Y0129107D01*
X0243856Y0129240D01*
X0243995Y0129377D01*
X0244131Y0129517D01*
X0244263Y0129661D01*
X0244392Y0129807D01*
X0244320Y0129868D01*
X0244193Y0129723D01*
X0244062Y0129581D01*
X0243928Y0129443D01*
X0243791Y0129308D01*
X0243650Y0129176D01*
X0243506Y0129048D01*
X0243359Y0128923D01*
X0243209Y0128802D01*
X0243056Y0128685D01*
X0242900Y0128571D01*
X0242741Y0128461D01*
X0242580Y0128355D01*
X0242416Y0128254D01*
X0242250Y0128156D01*
X0242082Y0128062D01*
X0241911Y0127972D01*
X0241738Y0127887D01*
X0241563Y0127806D01*
X0241386Y0127729D01*
X0241208Y0127657D01*
X0241027Y0127588D01*
X0240845Y0127525D01*
X0240662Y0127466D01*
X0240477Y0127411D01*
X0240291Y0127361D01*
X0240103Y0127315D01*
X0239915Y0127274D01*
X0239725Y0127238D01*
X0239535Y0127206D01*
X0239344Y0127179D01*
X0239153Y0127157D01*
X0238961Y0127139D01*
X0238768Y0127126D01*
X0238576Y0127118D01*
X0238383Y0127114D01*
X0238383Y0127208D01*
X0238573Y0127212D01*
X0238764Y0127220D01*
X0238954Y0127233D01*
X0239143Y0127250D01*
X0239333Y0127272D01*
X0239521Y0127299D01*
X0239709Y0127330D01*
X0239896Y0127366D01*
X0240082Y0127407D01*
X0240267Y0127452D01*
X0240451Y0127501D01*
X0240634Y0127556D01*
X0240815Y0127614D01*
X0240995Y0127677D01*
X0241173Y0127744D01*
X0241350Y0127816D01*
X0241525Y0127892D01*
X0241697Y0127972D01*
X0241868Y0128056D01*
X0242037Y0128145D01*
X0242203Y0128237D01*
X0242368Y0128334D01*
X0242529Y0128434D01*
X0242689Y0128539D01*
X0242845Y0128647D01*
X0242999Y0128760D01*
X0243150Y0128876D01*
X0243299Y0128995D01*
X0243444Y0129118D01*
X0243586Y0129245D01*
X0243725Y0129375D01*
X0243861Y0129509D01*
X0243994Y0129645D01*
X0244123Y0129785D01*
X0244249Y0129929D01*
X0244177Y0129989D01*
X0244053Y0129848D01*
X0243925Y0129710D01*
X0243794Y0129575D01*
X0243660Y0129443D01*
X0243523Y0129314D01*
X0243382Y0129189D01*
X0243238Y0129067D01*
X0243092Y0128949D01*
X0242943Y0128835D01*
X0242791Y0128724D01*
X0242636Y0128617D01*
X0242479Y0128514D01*
X0242319Y0128414D01*
X0242157Y0128319D01*
X0241992Y0128227D01*
X0241826Y0128140D01*
X0241657Y0128057D01*
X0241486Y0127977D01*
X0241314Y0127902D01*
X0241139Y0127832D01*
X0240963Y0127765D01*
X0240786Y0127703D01*
X0240606Y0127645D01*
X0240426Y0127592D01*
X0240244Y0127543D01*
X0240062Y0127499D01*
X0239878Y0127459D01*
X0239693Y0127423D01*
X0239507Y0127392D01*
X0239321Y0127366D01*
X0239134Y0127344D01*
X0238947Y0127327D01*
X0238759Y0127314D01*
X0238571Y0127306D01*
X0238383Y0127302D01*
X0238383Y0127396D01*
X0238569Y0127400D01*
X0238754Y0127408D01*
X0238940Y0127420D01*
X0239125Y0127437D01*
X0239309Y0127459D01*
X0239493Y0127485D01*
X0239677Y0127516D01*
X0239859Y0127551D01*
X0240041Y0127590D01*
X0240221Y0127634D01*
X0240401Y0127683D01*
X0240579Y0127735D01*
X0240756Y0127792D01*
X0240931Y0127854D01*
X0241105Y0127919D01*
X0241277Y0127989D01*
X0241448Y0128063D01*
X0241616Y0128141D01*
X0241783Y0128224D01*
X0241947Y0128310D01*
X0242110Y0128400D01*
X0242270Y0128495D01*
X0242428Y0128593D01*
X0242583Y0128695D01*
X0242736Y0128800D01*
X0242886Y0128910D01*
X0243034Y0129023D01*
X0243178Y0129140D01*
X0243320Y0129260D01*
X0243459Y0129383D01*
X0243595Y0129510D01*
X0243727Y0129640D01*
X0243856Y0129774D01*
X0243983Y0129910D01*
X0244105Y0130050D01*
X0244792Y0140448D02*
X0244100Y0139871D01*
X0244101Y0139872D02*
X0243982Y0140009D01*
X0243861Y0140143D01*
X0243736Y0140274D01*
X0243608Y0140402D01*
X0243477Y0140526D01*
X0243343Y0140648D01*
X0243206Y0140767D01*
X0243067Y0140882D01*
X0242924Y0140993D01*
X0242779Y0141102D01*
X0242632Y0141207D01*
X0242482Y0141308D01*
X0242330Y0141405D01*
X0242175Y0141499D01*
X0242018Y0141590D01*
X0241859Y0141676D01*
X0241698Y0141759D01*
X0241535Y0141837D01*
X0241370Y0141912D01*
X0241204Y0141983D01*
X0241036Y0142050D01*
X0240866Y0142112D01*
X0240695Y0142171D01*
X0240522Y0142226D01*
X0240349Y0142276D01*
X0240174Y0142322D01*
X0239998Y0142364D01*
X0239821Y0142402D01*
X0239643Y0142435D01*
X0239464Y0142465D01*
X0239285Y0142490D01*
X0239105Y0142510D01*
X0238925Y0142527D01*
X0238745Y0142539D01*
X0238564Y0142546D01*
X0238383Y0142550D01*
X0238382Y0143449D01*
X0238383Y0143450D01*
X0238586Y0143446D01*
X0238788Y0143438D01*
X0238991Y0143424D01*
X0239193Y0143406D01*
X0239394Y0143383D01*
X0239595Y0143355D01*
X0239795Y0143322D01*
X0239995Y0143285D01*
X0240193Y0143243D01*
X0240391Y0143196D01*
X0240587Y0143144D01*
X0240781Y0143087D01*
X0240975Y0143026D01*
X0241167Y0142961D01*
X0241357Y0142890D01*
X0241546Y0142815D01*
X0241732Y0142736D01*
X0241917Y0142652D01*
X0242100Y0142564D01*
X0242280Y0142471D01*
X0242458Y0142375D01*
X0242634Y0142273D01*
X0242807Y0142168D01*
X0242978Y0142059D01*
X0243146Y0141945D01*
X0243312Y0141828D01*
X0243474Y0141706D01*
X0243634Y0141581D01*
X0243790Y0141452D01*
X0243943Y0141319D01*
X0244093Y0141182D01*
X0244240Y0141042D01*
X0244383Y0140899D01*
X0244523Y0140752D01*
X0244660Y0140602D01*
X0244792Y0140448D01*
X0244720Y0140388D01*
X0244589Y0140540D01*
X0244454Y0140688D01*
X0244316Y0140833D01*
X0244174Y0140975D01*
X0244029Y0141114D01*
X0243881Y0141249D01*
X0243729Y0141380D01*
X0243574Y0141508D01*
X0243417Y0141632D01*
X0243256Y0141752D01*
X0243093Y0141868D01*
X0242926Y0141980D01*
X0242758Y0142088D01*
X0242586Y0142193D01*
X0242412Y0142293D01*
X0242236Y0142388D01*
X0242058Y0142480D01*
X0241877Y0142567D01*
X0241694Y0142650D01*
X0241510Y0142729D01*
X0241324Y0142803D01*
X0241135Y0142872D01*
X0240946Y0142937D01*
X0240754Y0142997D01*
X0240562Y0143053D01*
X0240368Y0143104D01*
X0240173Y0143151D01*
X0239977Y0143193D01*
X0239780Y0143230D01*
X0239582Y0143262D01*
X0239383Y0143290D01*
X0239184Y0143313D01*
X0238984Y0143331D01*
X0238784Y0143344D01*
X0238583Y0143352D01*
X0238383Y0143356D01*
X0238383Y0143262D01*
X0238581Y0143258D01*
X0238779Y0143250D01*
X0238977Y0143237D01*
X0239175Y0143219D01*
X0239372Y0143196D01*
X0239568Y0143169D01*
X0239764Y0143137D01*
X0239958Y0143101D01*
X0240152Y0143059D01*
X0240345Y0143013D01*
X0240537Y0142963D01*
X0240727Y0142907D01*
X0240916Y0142848D01*
X0241104Y0142783D01*
X0241290Y0142715D01*
X0241474Y0142642D01*
X0241657Y0142564D01*
X0241837Y0142482D01*
X0242016Y0142396D01*
X0242192Y0142305D01*
X0242366Y0142211D01*
X0242538Y0142112D01*
X0242708Y0142009D01*
X0242875Y0141902D01*
X0243039Y0141791D01*
X0243200Y0141676D01*
X0243359Y0141557D01*
X0243515Y0141435D01*
X0243668Y0141309D01*
X0243818Y0141179D01*
X0243965Y0141045D01*
X0244108Y0140908D01*
X0244248Y0140768D01*
X0244385Y0140625D01*
X0244518Y0140478D01*
X0244648Y0140328D01*
X0244576Y0140268D01*
X0244447Y0140416D01*
X0244316Y0140561D01*
X0244181Y0140703D01*
X0244042Y0140841D01*
X0243900Y0140977D01*
X0243755Y0141109D01*
X0243607Y0141237D01*
X0243456Y0141362D01*
X0243302Y0141483D01*
X0243145Y0141600D01*
X0242985Y0141714D01*
X0242823Y0141823D01*
X0242658Y0141929D01*
X0242490Y0142031D01*
X0242320Y0142129D01*
X0242148Y0142222D01*
X0241974Y0142312D01*
X0241797Y0142397D01*
X0241619Y0142478D01*
X0241439Y0142555D01*
X0241256Y0142627D01*
X0241073Y0142695D01*
X0240887Y0142758D01*
X0240700Y0142817D01*
X0240512Y0142872D01*
X0240323Y0142922D01*
X0240132Y0142967D01*
X0239940Y0143008D01*
X0239748Y0143045D01*
X0239554Y0143076D01*
X0239360Y0143103D01*
X0239165Y0143125D01*
X0238970Y0143143D01*
X0238775Y0143156D01*
X0238579Y0143164D01*
X0238383Y0143168D01*
X0238383Y0143074D01*
X0238577Y0143070D01*
X0238770Y0143062D01*
X0238963Y0143049D01*
X0239156Y0143032D01*
X0239349Y0143010D01*
X0239541Y0142983D01*
X0239732Y0142952D01*
X0239922Y0142916D01*
X0240112Y0142876D01*
X0240300Y0142831D01*
X0240487Y0142781D01*
X0240673Y0142727D01*
X0240858Y0142669D01*
X0241041Y0142606D01*
X0241223Y0142539D01*
X0241403Y0142468D01*
X0241581Y0142392D01*
X0241758Y0142312D01*
X0241932Y0142228D01*
X0242104Y0142139D01*
X0242274Y0142047D01*
X0242442Y0141950D01*
X0242608Y0141849D01*
X0242771Y0141745D01*
X0242931Y0141637D01*
X0243089Y0141524D01*
X0243244Y0141408D01*
X0243397Y0141289D01*
X0243546Y0141165D01*
X0243693Y0141039D01*
X0243836Y0140908D01*
X0243976Y0140775D01*
X0244113Y0140638D01*
X0244246Y0140497D01*
X0244377Y0140354D01*
X0244503Y0140207D01*
X0244431Y0140147D01*
X0244306Y0140292D01*
X0244177Y0140434D01*
X0244045Y0140572D01*
X0243910Y0140708D01*
X0243771Y0140840D01*
X0243630Y0140969D01*
X0243485Y0141094D01*
X0243338Y0141216D01*
X0243187Y0141334D01*
X0243034Y0141449D01*
X0242878Y0141559D01*
X0242719Y0141667D01*
X0242558Y0141770D01*
X0242394Y0141869D01*
X0242228Y0141965D01*
X0242060Y0142056D01*
X0241890Y0142143D01*
X0241718Y0142227D01*
X0241543Y0142306D01*
X0241367Y0142381D01*
X0241189Y0142451D01*
X0241010Y0142518D01*
X0240829Y0142580D01*
X0240646Y0142637D01*
X0240462Y0142691D01*
X0240277Y0142740D01*
X0240091Y0142784D01*
X0239904Y0142824D01*
X0239716Y0142859D01*
X0239527Y0142890D01*
X0239337Y0142917D01*
X0239147Y0142938D01*
X0238957Y0142956D01*
X0238766Y0142968D01*
X0238574Y0142976D01*
X0238383Y0142980D01*
X0238383Y0142886D01*
X0238572Y0142882D01*
X0238761Y0142874D01*
X0238950Y0142862D01*
X0239138Y0142845D01*
X0239326Y0142823D01*
X0239513Y0142797D01*
X0239700Y0142767D01*
X0239886Y0142732D01*
X0240071Y0142692D01*
X0240255Y0142648D01*
X0240437Y0142600D01*
X0240619Y0142547D01*
X0240799Y0142490D01*
X0240978Y0142429D01*
X0241156Y0142363D01*
X0241332Y0142294D01*
X0241506Y0142220D01*
X0241678Y0142142D01*
X0241848Y0142059D01*
X0242016Y0141973D01*
X0242182Y0141883D01*
X0242346Y0141788D01*
X0242508Y0141690D01*
X0242667Y0141588D01*
X0242824Y0141482D01*
X0242978Y0141373D01*
X0243130Y0141259D01*
X0243278Y0141143D01*
X0243424Y0141022D01*
X0243567Y0140899D01*
X0243707Y0140771D01*
X0243844Y0140641D01*
X0243978Y0140507D01*
X0244108Y0140370D01*
X0244235Y0140230D01*
X0244359Y0140087D01*
X0244287Y0140027D01*
X0244164Y0140168D01*
X0244039Y0140306D01*
X0243910Y0140442D01*
X0243778Y0140574D01*
X0243643Y0140703D01*
X0243504Y0140828D01*
X0243363Y0140951D01*
X0243219Y0141070D01*
X0243072Y0141185D01*
X0242923Y0141297D01*
X0242770Y0141405D01*
X0242615Y0141510D01*
X0242458Y0141610D01*
X0242298Y0141707D01*
X0242137Y0141801D01*
X0241972Y0141890D01*
X0241806Y0141975D01*
X0241638Y0142056D01*
X0241468Y0142134D01*
X0241296Y0142207D01*
X0241122Y0142276D01*
X0240947Y0142340D01*
X0240770Y0142401D01*
X0240592Y0142457D01*
X0240413Y0142509D01*
X0240232Y0142557D01*
X0240050Y0142600D01*
X0239868Y0142639D01*
X0239684Y0142674D01*
X0239500Y0142704D01*
X0239315Y0142730D01*
X0239129Y0142751D01*
X0238943Y0142768D01*
X0238756Y0142780D01*
X0238570Y0142788D01*
X0238383Y0142792D01*
X0238383Y0142698D01*
X0238567Y0142694D01*
X0238752Y0142687D01*
X0238936Y0142674D01*
X0239120Y0142658D01*
X0239303Y0142637D01*
X0239486Y0142611D01*
X0239668Y0142581D01*
X0239849Y0142547D01*
X0240030Y0142509D01*
X0240209Y0142466D01*
X0240388Y0142419D01*
X0240565Y0142367D01*
X0240741Y0142312D01*
X0240916Y0142252D01*
X0241089Y0142188D01*
X0241260Y0142120D01*
X0241430Y0142048D01*
X0241598Y0141971D01*
X0241764Y0141891D01*
X0241928Y0141807D01*
X0242091Y0141719D01*
X0242251Y0141627D01*
X0242408Y0141531D01*
X0242564Y0141431D01*
X0242717Y0141328D01*
X0242867Y0141221D01*
X0243015Y0141111D01*
X0243160Y0140997D01*
X0243302Y0140879D01*
X0243442Y0140758D01*
X0243578Y0140634D01*
X0243712Y0140507D01*
X0243842Y0140376D01*
X0243970Y0140243D01*
X0244094Y0140106D01*
X0244214Y0139967D01*
X0244142Y0139906D01*
X0244023Y0140044D01*
X0243900Y0140179D01*
X0243775Y0140311D01*
X0243646Y0140440D01*
X0243514Y0140566D01*
X0243379Y0140688D01*
X0243241Y0140808D01*
X0243101Y0140924D01*
X0242957Y0141036D01*
X0242811Y0141145D01*
X0242663Y0141251D01*
X0242512Y0141353D01*
X0242358Y0141451D01*
X0242203Y0141546D01*
X0242045Y0141637D01*
X0241884Y0141724D01*
X0241722Y0141807D01*
X0241558Y0141886D01*
X0241392Y0141961D01*
X0241224Y0142033D01*
X0241055Y0142100D01*
X0240884Y0142163D01*
X0240712Y0142222D01*
X0240538Y0142277D01*
X0240363Y0142328D01*
X0240187Y0142375D01*
X0240009Y0142417D01*
X0239831Y0142455D01*
X0239652Y0142489D01*
X0239472Y0142518D01*
X0239292Y0142543D01*
X0239111Y0142564D01*
X0238929Y0142581D01*
X0238747Y0142593D01*
X0238565Y0142600D01*
X0238383Y0142604D01*
D15*
X0110833Y0131000D02*
X0110833Y0095000D01*
X0078333Y0095000D01*
X0078333Y0131000D01*
X0110833Y0131000D01*
D16*
X0115083Y0123000D03*
X0115083Y0113000D03*
X0115083Y0103000D03*
M02*
