G75*
%MOIN*%
%OFA0B0*%
%FSLAX25Y25*%
%IPPOS*%
%LPD*%
%AMOC8*
5,1,8,0,0,1.08239X$1,22.5*
%
%ADD10C,0.08200*%
%ADD11C,0.07800*%
%ADD12C,0.09658*%
%ADD13C,0.00500*%
%ADD14C,0.06800*%
%ADD15C,0.13800*%
%ADD16OC8,0.13200*%
%ADD17C,0.04800*%
D10*
X0033333Y0145000D03*
X0033333Y0155000D03*
X0043333Y0155000D03*
X0043333Y0145000D03*
X0053333Y0145000D03*
X0053333Y0155000D03*
X0063333Y0155000D03*
X0063333Y0145000D03*
X0073333Y0145000D03*
X0073333Y0155000D03*
X0083333Y0155000D03*
X0083333Y0145000D03*
X0093333Y0145000D03*
X0093333Y0155000D03*
X0103333Y0155000D03*
X0103333Y0145000D03*
X0113333Y0145000D03*
X0113333Y0155000D03*
X0123333Y0155000D03*
X0123333Y0145000D03*
X0103333Y0205000D03*
X0103333Y0220000D03*
X0103333Y0235000D03*
X0103333Y0250000D03*
X0113333Y0250000D03*
X0103333Y0265000D03*
X0073333Y0265000D03*
X0073333Y0250000D03*
X0073333Y0235000D03*
X0073333Y0220000D03*
X0073333Y0205000D03*
X0143333Y0250000D03*
X0123333Y0315000D03*
X0113333Y0315000D03*
X0103333Y0315000D03*
X0093333Y0315000D03*
X0083333Y0315000D03*
X0073333Y0315000D03*
X0063333Y0315000D03*
X0053333Y0315000D03*
X0043333Y0315000D03*
X0033333Y0315000D03*
X0033333Y0325000D03*
X0043333Y0325000D03*
X0053333Y0325000D03*
X0063333Y0325000D03*
X0073333Y0325000D03*
X0083333Y0325000D03*
X0093333Y0325000D03*
X0103333Y0325000D03*
X0113333Y0325000D03*
X0123333Y0325000D03*
X0243333Y0315000D03*
X0253333Y0315000D03*
X0263333Y0315000D03*
X0273333Y0315000D03*
X0283333Y0315000D03*
X0293333Y0315000D03*
X0303333Y0315000D03*
X0313333Y0315000D03*
X0293333Y0335000D03*
X0263333Y0335000D03*
X0263333Y0155000D03*
X0273333Y0155000D03*
X0283333Y0155000D03*
X0293333Y0155000D03*
X0303333Y0155000D03*
X0313333Y0155000D03*
X0278333Y0125000D03*
X0268333Y0125000D03*
X0258333Y0105000D03*
X0248333Y0105000D03*
X0238333Y0125000D03*
X0228333Y0125000D03*
X0218333Y0105000D03*
X0243333Y0155000D03*
X0253333Y0155000D03*
X0288333Y0105000D03*
X0278333Y0090000D03*
X0280533Y0073900D03*
X0280533Y0056100D03*
X0306133Y0056100D03*
X0306133Y0073900D03*
X0308333Y0090000D03*
X0343333Y0090000D03*
X0345533Y0073900D03*
X0345533Y0056100D03*
X0371133Y0056100D03*
X0371133Y0073900D03*
X0373333Y0090000D03*
D11*
X0339129Y0116000D03*
X0313538Y0116000D03*
D12*
X0042703Y0077874D03*
X0213963Y0077874D03*
X0213963Y0062126D03*
D13*
X0117400Y0103769D02*
X0117127Y0103166D01*
X0116754Y0102620D01*
X0116292Y0102147D01*
X0115755Y0101761D01*
X0115159Y0101474D01*
X0114522Y0101295D01*
X0113863Y0101230D01*
X0113205Y0101297D01*
X0112569Y0101478D01*
X0111973Y0101766D01*
X0111437Y0102153D01*
X0110976Y0102628D01*
X0110604Y0103175D01*
X0110333Y0103779D01*
X0110171Y0104420D01*
X0110123Y0105080D01*
X0110202Y0105800D01*
X0110419Y0106490D01*
X0110767Y0107124D01*
X0111232Y0107678D01*
X0111796Y0108131D01*
X0112438Y0108465D01*
X0113133Y0108667D01*
X0113853Y0108730D01*
X0114578Y0108669D01*
X0115277Y0108467D01*
X0115923Y0108133D01*
X0116491Y0107679D01*
X0116960Y0107123D01*
X0117311Y0106486D01*
X0117532Y0105793D01*
X0117613Y0105070D01*
X0117563Y0104410D01*
X0117400Y0103769D01*
X0117371Y0103705D02*
X0110366Y0103705D01*
X0110226Y0104204D02*
X0117510Y0104204D01*
X0117585Y0104702D02*
X0110151Y0104702D01*
X0110136Y0105201D02*
X0117598Y0105201D01*
X0117542Y0105699D02*
X0110191Y0105699D01*
X0110327Y0106198D02*
X0117403Y0106198D01*
X0117195Y0106696D02*
X0110533Y0106696D01*
X0110827Y0107195D02*
X0116899Y0107195D01*
X0116473Y0107693D02*
X0111251Y0107693D01*
X0111913Y0108192D02*
X0115808Y0108192D01*
X0114324Y0108690D02*
X0113396Y0108690D01*
X0110590Y0103207D02*
X0117145Y0103207D01*
X0116814Y0102708D02*
X0110921Y0102708D01*
X0111382Y0102210D02*
X0116354Y0102210D01*
X0115651Y0101711D02*
X0112086Y0101711D01*
X0106380Y0103769D02*
X0106107Y0103166D01*
X0105734Y0102620D01*
X0105272Y0102147D01*
X0104735Y0101761D01*
X0104138Y0101474D01*
X0103501Y0101295D01*
X0102843Y0101230D01*
X0102185Y0101297D01*
X0101548Y0101478D01*
X0100953Y0101766D01*
X0100417Y0102153D01*
X0099956Y0102628D01*
X0099584Y0103175D01*
X0099313Y0103779D01*
X0099151Y0104420D01*
X0099103Y0105080D01*
X0099182Y0105800D01*
X0099399Y0106490D01*
X0099747Y0107124D01*
X0100212Y0107678D01*
X0100776Y0108131D01*
X0101418Y0108465D01*
X0102113Y0108667D01*
X0102833Y0108730D01*
X0103558Y0108669D01*
X0104257Y0108467D01*
X0104903Y0108133D01*
X0105471Y0107679D01*
X0105940Y0107123D01*
X0106291Y0106486D01*
X0106512Y0105793D01*
X0106593Y0105070D01*
X0106543Y0104410D01*
X0106380Y0103769D01*
X0106351Y0103705D02*
X0099346Y0103705D01*
X0099206Y0104204D02*
X0106490Y0104204D01*
X0106565Y0104702D02*
X0099131Y0104702D01*
X0099116Y0105201D02*
X0106578Y0105201D01*
X0106522Y0105699D02*
X0099171Y0105699D01*
X0099307Y0106198D02*
X0106383Y0106198D01*
X0106175Y0106696D02*
X0099512Y0106696D01*
X0099806Y0107195D02*
X0105879Y0107195D01*
X0105453Y0107693D02*
X0100231Y0107693D01*
X0100893Y0108192D02*
X0104788Y0108192D01*
X0103303Y0108690D02*
X0102376Y0108690D01*
X0099570Y0103207D02*
X0106125Y0103207D01*
X0105794Y0102708D02*
X0099901Y0102708D01*
X0100362Y0102210D02*
X0105333Y0102210D01*
X0104631Y0101711D02*
X0101066Y0101711D01*
X0057564Y0104920D02*
X0057485Y0104200D01*
X0057268Y0103510D01*
X0056920Y0102876D01*
X0056455Y0102322D01*
X0055890Y0101869D01*
X0055249Y0101535D01*
X0054554Y0101333D01*
X0053833Y0101270D01*
X0053109Y0101331D01*
X0052410Y0101533D01*
X0051764Y0101867D01*
X0051196Y0102321D01*
X0050727Y0102877D01*
X0050375Y0103514D01*
X0050155Y0104207D01*
X0050074Y0104930D01*
X0050124Y0105590D01*
X0050287Y0106231D01*
X0050560Y0106834D01*
X0050932Y0107380D01*
X0051395Y0107853D01*
X0051932Y0108239D01*
X0052528Y0108526D01*
X0053165Y0108705D01*
X0053823Y0108770D01*
X0054482Y0108703D01*
X0055118Y0108522D01*
X0055714Y0108234D01*
X0056250Y0107847D01*
X0056711Y0107372D01*
X0057083Y0106825D01*
X0057354Y0106221D01*
X0057516Y0105580D01*
X0057564Y0104920D01*
X0057540Y0104702D02*
X0050099Y0104702D01*
X0050094Y0105201D02*
X0057543Y0105201D01*
X0057485Y0105699D02*
X0050152Y0105699D01*
X0050279Y0106198D02*
X0057359Y0106198D01*
X0057140Y0106696D02*
X0050498Y0106696D01*
X0050806Y0107195D02*
X0056831Y0107195D01*
X0056399Y0107693D02*
X0051239Y0107693D01*
X0051866Y0108192D02*
X0055772Y0108192D01*
X0054526Y0108690D02*
X0053114Y0108690D01*
X0050156Y0104204D02*
X0057485Y0104204D01*
X0057329Y0103705D02*
X0050314Y0103705D01*
X0050545Y0103207D02*
X0057101Y0103207D01*
X0056779Y0102708D02*
X0050869Y0102708D01*
X0051335Y0102210D02*
X0056315Y0102210D01*
X0055587Y0101711D02*
X0052066Y0101711D01*
X0046248Y0103510D02*
X0045900Y0102876D01*
X0045435Y0102322D01*
X0044870Y0101869D01*
X0044229Y0101535D01*
X0043534Y0101333D01*
X0042813Y0101270D01*
X0042089Y0101331D01*
X0041390Y0101533D01*
X0040744Y0101867D01*
X0040175Y0102321D01*
X0039707Y0102877D01*
X0039355Y0103514D01*
X0039135Y0104207D01*
X0039054Y0104930D01*
X0039104Y0105590D01*
X0039267Y0106231D01*
X0039539Y0106834D01*
X0039912Y0107380D01*
X0040375Y0107853D01*
X0040912Y0108239D01*
X0041508Y0108526D01*
X0042145Y0108705D01*
X0042803Y0108770D01*
X0043462Y0108703D01*
X0044098Y0108522D01*
X0044694Y0108234D01*
X0045230Y0107847D01*
X0045691Y0107372D01*
X0046063Y0106825D01*
X0046334Y0106221D01*
X0046495Y0105580D01*
X0046544Y0104920D01*
X0046465Y0104200D01*
X0046248Y0103510D01*
X0046309Y0103705D02*
X0039294Y0103705D01*
X0039136Y0104204D02*
X0046465Y0104204D01*
X0046520Y0104702D02*
X0039079Y0104702D01*
X0039074Y0105201D02*
X0046523Y0105201D01*
X0046465Y0105699D02*
X0039132Y0105699D01*
X0039259Y0106198D02*
X0046339Y0106198D01*
X0046120Y0106696D02*
X0039477Y0106696D01*
X0039786Y0107195D02*
X0045811Y0107195D01*
X0045379Y0107693D02*
X0040218Y0107693D01*
X0040846Y0108192D02*
X0044752Y0108192D01*
X0043506Y0108690D02*
X0042094Y0108690D01*
X0039525Y0103207D02*
X0046081Y0103207D01*
X0045759Y0102708D02*
X0039849Y0102708D01*
X0040315Y0102210D02*
X0045295Y0102210D01*
X0044567Y0101711D02*
X0041046Y0101711D01*
D14*
X0202333Y0104500D02*
X0208333Y0104500D01*
X0208333Y0114500D02*
X0202333Y0114500D01*
X0202333Y0124500D02*
X0208333Y0124500D01*
D15*
X0146333Y0114500D03*
D16*
X0349333Y0342000D03*
X0369333Y0342000D03*
D17*
X0242733Y0251600D03*
X0144633Y0140900D03*
M02*
