G75*
%MOIN*%
%OFA0B0*%
%FSLAX25Y25*%
%IPPOS*%
%LPD*%
%AMOC8*
5,1,8,0,0,1.08239X$1,22.5*
%
%ADD10C,0.07400*%
%ADD11C,0.07000*%
%ADD12C,0.08858*%
%ADD13C,0.08000*%
%ADD14C,0.06400*%
%ADD15C,0.12000*%
%ADD16C,0.01000*%
%ADD17C,0.04000*%
%ADD18C,0.01200*%
D10*
X0266400Y0115000D03*
X0266400Y0135000D03*
X0266400Y0155000D03*
X0266400Y0175000D03*
X0266400Y0195000D03*
X0296400Y0195000D03*
X0296400Y0175000D03*
X0311400Y0175000D03*
X0296400Y0155000D03*
X0296400Y0135000D03*
X0296400Y0115000D03*
X0341400Y0175000D03*
X0336400Y0225000D03*
X0346400Y0225000D03*
X0356400Y0225000D03*
X0366400Y0225000D03*
X0376400Y0225000D03*
X0386400Y0225000D03*
X0396400Y0225000D03*
X0406400Y0225000D03*
X0441400Y0175000D03*
X0451400Y0175000D03*
X0461400Y0145000D03*
X0431400Y0145000D03*
X0431400Y0115000D03*
X0461400Y0115000D03*
X0459200Y0088900D03*
X0459200Y0071100D03*
X0433600Y0071100D03*
X0433600Y0088900D03*
X0503600Y0088900D03*
X0503600Y0071100D03*
X0529200Y0071100D03*
X0529200Y0088900D03*
X0531400Y0115000D03*
X0501400Y0115000D03*
X0501400Y0145000D03*
X0531400Y0145000D03*
X0521400Y0175000D03*
X0511400Y0175000D03*
X0216400Y0215000D03*
X0206400Y0215000D03*
X0206400Y0225000D03*
X0216400Y0225000D03*
X0196400Y0225000D03*
X0186400Y0225000D03*
X0186400Y0215000D03*
X0196400Y0215000D03*
X0176400Y0215000D03*
X0166400Y0215000D03*
X0166400Y0225000D03*
X0176400Y0225000D03*
X0156400Y0225000D03*
X0156400Y0215000D03*
X0146400Y0215000D03*
X0136400Y0215000D03*
X0136400Y0225000D03*
X0146400Y0225000D03*
X0126400Y0225000D03*
X0126400Y0215000D03*
X0126400Y0385000D03*
X0126400Y0395000D03*
X0136400Y0395000D03*
X0146400Y0395000D03*
X0146400Y0385000D03*
X0136400Y0385000D03*
X0156400Y0385000D03*
X0156400Y0395000D03*
X0166400Y0395000D03*
X0176400Y0395000D03*
X0176400Y0385000D03*
X0166400Y0385000D03*
X0186400Y0385000D03*
X0196400Y0385000D03*
X0196400Y0395000D03*
X0186400Y0395000D03*
X0206400Y0395000D03*
X0216400Y0395000D03*
X0216400Y0385000D03*
X0206400Y0385000D03*
X0336400Y0385000D03*
X0346400Y0385000D03*
X0356400Y0385000D03*
X0366400Y0385000D03*
X0376400Y0385000D03*
X0386400Y0385000D03*
X0396400Y0385000D03*
X0406400Y0385000D03*
X0388400Y0415000D03*
X0358400Y0415000D03*
D11*
X0361605Y0151000D03*
X0387195Y0151000D03*
D12*
X0352030Y0087874D03*
X0352030Y0072126D03*
X0180770Y0087874D03*
D13*
X0500900Y0275000D03*
X0511900Y0275000D03*
X0550900Y0275000D03*
X0561900Y0275000D03*
D14*
X0540900Y0304800D02*
X0540900Y0311200D01*
X0530900Y0311200D02*
X0530900Y0304800D01*
X0520900Y0304800D02*
X0520900Y0311200D01*
D15*
X0504400Y0414000D03*
X0555400Y0414000D03*
D16*
X0504400Y0414000D02*
X0500150Y0409750D01*
X0500400Y0409500D01*
X0500400Y0379500D01*
X0530400Y0349500D01*
X0530400Y0308000D01*
X0530900Y0308000D01*
X0500900Y0278000D01*
X0500900Y0275000D01*
X0500900Y0195500D01*
X0521400Y0175000D01*
X0514400Y0169500D02*
X0469400Y0169500D01*
X0241900Y0397000D01*
X0228900Y0395000D02*
X0216400Y0395000D01*
X0228900Y0395000D02*
X0396400Y0227500D01*
X0396400Y0225000D01*
X0356400Y0225000D02*
X0308400Y0273000D01*
X0308400Y0310500D01*
X0346400Y0385000D02*
X0330900Y0400500D01*
X0134400Y0400500D01*
X0128900Y0395000D01*
X0126400Y0395000D01*
X0146400Y0385000D02*
X0146400Y0315000D01*
X0266400Y0195000D01*
X0290900Y0158000D02*
X0218400Y0230500D01*
X0204400Y0230500D01*
X0198900Y0225000D01*
X0196400Y0225000D01*
X0186400Y0225000D02*
X0180900Y0230500D01*
X0124400Y0230500D01*
X0120900Y0227000D01*
X0120900Y0213000D01*
X0124400Y0209500D01*
X0132900Y0209500D01*
X0212900Y0129500D01*
X0318900Y0129500D01*
X0376900Y0071500D01*
X0433400Y0071500D01*
X0433600Y0071100D01*
X0503600Y0071100D02*
X0503900Y0071500D01*
X0519400Y0071500D01*
X0536900Y0089000D01*
X0536900Y0147000D01*
X0514400Y0169500D01*
X0508900Y0145000D02*
X0503400Y0139500D01*
X0299400Y0139500D01*
X0294900Y0144000D01*
X0212400Y0144000D01*
X0186400Y0170000D01*
X0186400Y0215000D01*
X0156400Y0215000D02*
X0156400Y0197000D01*
X0218400Y0135000D01*
X0266400Y0135000D01*
X0290900Y0153000D02*
X0294400Y0149500D01*
X0300400Y0149500D01*
X0290900Y0153000D02*
X0290900Y0158000D01*
X0346400Y0191500D02*
X0386900Y0151000D01*
X0387195Y0151000D01*
X0389400Y0146000D02*
X0215400Y0146000D01*
X0189900Y0171500D01*
X0346400Y0191500D02*
X0346400Y0225000D01*
X0393900Y0150500D02*
X0389400Y0146000D01*
X0393900Y0150500D02*
X0433400Y0150500D01*
X0438900Y0145000D01*
X0461400Y0145000D01*
X0508900Y0145000D02*
X0531400Y0145000D01*
X0348900Y0385000D02*
X0373400Y0409500D01*
X0499900Y0409500D01*
X0500150Y0409750D01*
X0348900Y0385000D02*
X0346400Y0385000D01*
D17*
X0308400Y0310500D03*
X0336400Y0307500D03*
X0241900Y0397000D03*
X0189900Y0171500D03*
X0173900Y0163500D03*
X0300400Y0149500D03*
D18*
X0180400Y0088000D02*
X0173900Y0094500D01*
X0173900Y0163500D01*
X0180400Y0088000D02*
X0180770Y0087874D01*
X0459200Y0088900D02*
X0459400Y0088500D01*
X0496400Y0088500D01*
X0501400Y0083500D01*
X0523900Y0083500D01*
X0528900Y0088500D01*
X0529200Y0088900D01*
X0336400Y0307500D02*
X0336400Y0385000D01*
M02*
