G75*
%MOIN*%
%OFA0B0*%
%FSLAX25Y25*%
%IPPOS*%
%LPD*%
%AMOC8*
5,1,8,0,0,1.08239X$1,22.5*
%
%ADD10C,0.00500*%
%ADD11C,0.08200*%
%ADD12C,0.12800*%
%ADD13C,0.09800*%
%ADD14C,0.07800*%
%ADD15C,0.07200*%
%ADD16C,0.13800*%
%ADD17C,0.09658*%
D10*
X0151500Y0321206D02*
X0152103Y0320934D01*
X0152744Y0320770D01*
X0153403Y0320720D01*
X0154126Y0320801D01*
X0154819Y0321022D01*
X0155456Y0321373D01*
X0156012Y0321842D01*
X0156466Y0322410D01*
X0156800Y0323056D01*
X0157002Y0323755D01*
X0157064Y0324480D01*
X0157001Y0325201D01*
X0156798Y0325895D01*
X0156464Y0326537D01*
X0156011Y0327101D01*
X0155457Y0327566D01*
X0154823Y0327914D01*
X0154133Y0328132D01*
X0153414Y0328210D01*
X0152754Y0328162D01*
X0152112Y0328000D01*
X0151509Y0327729D01*
X0150961Y0327358D01*
X0150487Y0326897D01*
X0150099Y0326360D01*
X0149811Y0325765D01*
X0149630Y0325128D01*
X0149563Y0324470D01*
X0149629Y0323812D01*
X0149807Y0323175D01*
X0150094Y0322579D01*
X0150480Y0322041D01*
X0150953Y0321579D01*
X0151500Y0321206D01*
X0151634Y0321145D02*
X0155043Y0321145D01*
X0155777Y0321644D02*
X0150887Y0321644D01*
X0150407Y0322143D02*
X0156252Y0322143D01*
X0156585Y0322641D02*
X0150064Y0322641D01*
X0149824Y0323140D02*
X0156824Y0323140D01*
X0156968Y0323638D02*
X0149677Y0323638D01*
X0149596Y0324137D02*
X0157034Y0324137D01*
X0157050Y0324635D02*
X0149580Y0324635D01*
X0149632Y0325134D02*
X0157007Y0325134D01*
X0156875Y0325632D02*
X0149773Y0325632D01*
X0149988Y0326131D02*
X0156676Y0326131D01*
X0156390Y0326629D02*
X0150293Y0326629D01*
X0150724Y0327128D02*
X0155980Y0327128D01*
X0155348Y0327626D02*
X0151357Y0327626D01*
X0152605Y0328125D02*
X0154155Y0328125D01*
X0153403Y0331741D02*
X0152744Y0331790D01*
X0152103Y0331954D01*
X0151500Y0332226D01*
X0150953Y0332599D01*
X0150480Y0333061D01*
X0150094Y0333599D01*
X0149807Y0334195D01*
X0149629Y0334832D01*
X0149563Y0335490D01*
X0149630Y0336148D01*
X0149811Y0336785D01*
X0150099Y0337380D01*
X0150487Y0337917D01*
X0150961Y0338378D01*
X0151509Y0338749D01*
X0152112Y0339020D01*
X0152754Y0339182D01*
X0153414Y0339230D01*
X0154133Y0339152D01*
X0154823Y0338934D01*
X0155457Y0338586D01*
X0156011Y0338121D01*
X0156464Y0337557D01*
X0156798Y0336915D01*
X0157001Y0336221D01*
X0157064Y0335500D01*
X0157002Y0334775D01*
X0156800Y0334077D01*
X0156466Y0333431D01*
X0156012Y0332862D01*
X0155456Y0332393D01*
X0154819Y0332042D01*
X0154126Y0331822D01*
X0153403Y0331741D01*
X0154948Y0332113D02*
X0151751Y0332113D01*
X0150941Y0332611D02*
X0155715Y0332611D01*
X0156210Y0333110D02*
X0150445Y0333110D01*
X0150090Y0333608D02*
X0156558Y0333608D01*
X0156809Y0334107D02*
X0149850Y0334107D01*
X0149692Y0334605D02*
X0156953Y0334605D01*
X0157030Y0335104D02*
X0149602Y0335104D01*
X0149575Y0335602D02*
X0157055Y0335602D01*
X0157011Y0336101D02*
X0149626Y0336101D01*
X0149758Y0336599D02*
X0156890Y0336599D01*
X0156703Y0337098D02*
X0149962Y0337098D01*
X0150255Y0337596D02*
X0156433Y0337596D01*
X0156033Y0338095D02*
X0150670Y0338095D01*
X0151279Y0338593D02*
X0155444Y0338593D01*
X0154323Y0339092D02*
X0152396Y0339092D01*
X0153403Y0360720D02*
X0152744Y0360770D01*
X0152103Y0360934D01*
X0151500Y0361206D01*
X0150953Y0361579D01*
X0150480Y0362041D01*
X0150094Y0362579D01*
X0149807Y0363175D01*
X0149629Y0363812D01*
X0149563Y0364470D01*
X0149630Y0365128D01*
X0149811Y0365765D01*
X0150099Y0366360D01*
X0150487Y0366897D01*
X0150961Y0367358D01*
X0151509Y0367729D01*
X0152112Y0368000D01*
X0152754Y0368162D01*
X0153414Y0368210D01*
X0154133Y0368132D01*
X0154823Y0367914D01*
X0155457Y0367566D01*
X0156011Y0367101D01*
X0156464Y0366537D01*
X0156798Y0365895D01*
X0157001Y0365201D01*
X0157064Y0364480D01*
X0157002Y0363755D01*
X0156800Y0363056D01*
X0156466Y0362410D01*
X0156012Y0361842D01*
X0155456Y0361373D01*
X0154819Y0361022D01*
X0154126Y0360801D01*
X0153403Y0360720D01*
X0154828Y0361026D02*
X0151898Y0361026D01*
X0151033Y0361525D02*
X0155636Y0361525D01*
X0156157Y0362023D02*
X0150498Y0362023D01*
X0150135Y0362522D02*
X0156524Y0362522D01*
X0156782Y0363020D02*
X0149882Y0363020D01*
X0149711Y0363519D02*
X0156934Y0363519D01*
X0157024Y0364017D02*
X0149608Y0364017D01*
X0149568Y0364516D02*
X0157060Y0364516D01*
X0157017Y0365014D02*
X0149619Y0365014D01*
X0149740Y0365513D02*
X0156910Y0365513D01*
X0156738Y0366012D02*
X0149930Y0366012D01*
X0150207Y0366510D02*
X0156478Y0366510D01*
X0156086Y0367009D02*
X0150602Y0367009D01*
X0151181Y0367507D02*
X0155528Y0367507D01*
X0154533Y0368006D02*
X0152133Y0368006D01*
X0152744Y0371790D02*
X0152103Y0371954D01*
X0151500Y0372226D01*
X0150953Y0372599D01*
X0150480Y0373061D01*
X0150094Y0373599D01*
X0149807Y0374195D01*
X0149629Y0374832D01*
X0149563Y0375490D01*
X0149630Y0376148D01*
X0149811Y0376785D01*
X0150099Y0377380D01*
X0150487Y0377917D01*
X0150961Y0378378D01*
X0151509Y0378749D01*
X0152112Y0379020D01*
X0152754Y0379182D01*
X0153414Y0379230D01*
X0154133Y0379152D01*
X0154823Y0378934D01*
X0155457Y0378586D01*
X0156011Y0378121D01*
X0156464Y0377557D01*
X0156798Y0376915D01*
X0157001Y0376221D01*
X0157064Y0375500D01*
X0157002Y0374775D01*
X0156800Y0374077D01*
X0156466Y0373431D01*
X0156012Y0372862D01*
X0155456Y0372393D01*
X0154819Y0372042D01*
X0154126Y0371822D01*
X0153403Y0371741D01*
X0152744Y0371790D01*
X0152015Y0371994D02*
X0154668Y0371994D01*
X0155573Y0372492D02*
X0151110Y0372492D01*
X0150552Y0372991D02*
X0156115Y0372991D01*
X0156496Y0373489D02*
X0150173Y0373489D01*
X0149907Y0373988D02*
X0156754Y0373988D01*
X0156919Y0374486D02*
X0149726Y0374486D01*
X0149614Y0374985D02*
X0157020Y0374985D01*
X0157062Y0375483D02*
X0149564Y0375483D01*
X0149613Y0375982D02*
X0157022Y0375982D01*
X0156925Y0376480D02*
X0149725Y0376480D01*
X0149905Y0376979D02*
X0156765Y0376979D01*
X0156506Y0377477D02*
X0150169Y0377477D01*
X0150547Y0377976D02*
X0156128Y0377976D01*
X0155591Y0378474D02*
X0151103Y0378474D01*
X0152006Y0378973D02*
X0154701Y0378973D01*
D11*
X0203333Y0285000D03*
X0213333Y0285000D03*
X0213333Y0275000D03*
X0203333Y0275000D03*
X0203333Y0265000D03*
X0213333Y0265000D03*
X0213333Y0255000D03*
X0203333Y0255000D03*
X0203333Y0245000D03*
X0203333Y0235000D03*
X0213333Y0235000D03*
X0213333Y0245000D03*
X0213333Y0225000D03*
X0203333Y0225000D03*
X0203333Y0215000D03*
X0213333Y0215000D03*
X0213333Y0205000D03*
X0203333Y0205000D03*
X0203333Y0195000D03*
X0213333Y0195000D03*
X0258333Y0135000D03*
X0283333Y0120000D03*
X0293333Y0120000D03*
X0303333Y0095000D03*
X0301133Y0073900D03*
X0301133Y0056100D03*
X0275533Y0056100D03*
X0275533Y0073900D03*
X0273333Y0095000D03*
X0258333Y0105000D03*
X0283333Y0155000D03*
X0293333Y0155000D03*
X0303333Y0155000D03*
X0313333Y0155000D03*
X0323333Y0155000D03*
X0333333Y0155000D03*
X0343333Y0155000D03*
X0353333Y0155000D03*
X0328333Y0135000D03*
X0353333Y0120000D03*
X0363333Y0120000D03*
X0373333Y0095000D03*
X0371133Y0073900D03*
X0371133Y0056100D03*
X0345533Y0056100D03*
X0345533Y0073900D03*
X0343333Y0095000D03*
X0328333Y0105000D03*
X0333333Y0260000D03*
X0303333Y0260000D03*
X0303333Y0315000D03*
X0293333Y0315000D03*
X0283333Y0315000D03*
X0313333Y0315000D03*
X0323333Y0315000D03*
X0333333Y0315000D03*
X0343333Y0315000D03*
X0353333Y0315000D03*
X0113333Y0155000D03*
X0083333Y0155000D03*
X0068333Y0155000D03*
X0068333Y0135000D03*
X0068333Y0115000D03*
X0068333Y0095000D03*
X0038333Y0095000D03*
X0038333Y0115000D03*
X0038333Y0135000D03*
X0038333Y0155000D03*
X0038333Y0175000D03*
X0033333Y0195000D03*
X0033333Y0205000D03*
X0033333Y0215000D03*
X0033333Y0225000D03*
X0033333Y0235000D03*
X0033333Y0245000D03*
X0033333Y0255000D03*
X0033333Y0265000D03*
X0033333Y0275000D03*
X0033333Y0285000D03*
X0043333Y0285000D03*
X0043333Y0275000D03*
X0043333Y0265000D03*
X0043333Y0255000D03*
X0043333Y0245000D03*
X0043333Y0235000D03*
X0043333Y0225000D03*
X0043333Y0215000D03*
X0043333Y0205000D03*
X0043333Y0195000D03*
X0068333Y0175000D03*
D12*
X0029333Y0323000D03*
X0029333Y0374000D03*
D13*
X0078333Y0393000D03*
X0131333Y0305000D03*
X0184333Y0393000D03*
D14*
X0190538Y0115000D03*
X0216129Y0115000D03*
D15*
X0126533Y0340000D02*
X0120133Y0340000D01*
X0120133Y0350000D02*
X0126533Y0350000D01*
X0126533Y0360000D02*
X0120133Y0360000D01*
D16*
X0064333Y0350000D03*
D17*
X0027703Y0072874D03*
X0198963Y0072874D03*
X0198963Y0057126D03*
M02*
