%
M48
M72
T01C0.02400
T02C0.03200
T03C0.03543
T04C0.04000
T05C0.04400
T06C0.05906
T07C0.13000
%
T01
X144633Y140900
X242733Y251600
T02
X238333Y125000
X228333Y125000
X268333Y125000
X278333Y125000
T03
X288333Y105000
X278333Y90000
X258333Y105000
X248333Y105000
X218333Y105000
X308333Y90000
X313538Y116000
X339129Y116000
X343333Y90000
X373333Y90000
X143333Y250000
X113333Y250000
X103333Y250000
X103333Y235000
X103333Y220000
X103333Y205000
X73333Y205000
X73333Y220000
X73333Y235000
X73333Y250000
X73333Y265000
X103333Y265000
X263333Y335000
X293333Y335000
T04
X293333Y315000
X303333Y315000
X313333Y315000
X283333Y315000
X273333Y315000
X263333Y315000
X253333Y315000
X243333Y315000
X123333Y315000
X113333Y315000
X103333Y315000
X93333Y315000
X83333Y315000
X73333Y315000
X63333Y315000
X53333Y315000
X43333Y315000
X33333Y315000
X33333Y325000
X43333Y325000
X53333Y325000
X63333Y325000
X73333Y325000
X83333Y325000
X93333Y325000
X103333Y325000
X113333Y325000
X123333Y325000
X123333Y155000
X113333Y155000
X103333Y155000
X103333Y145000
X113333Y145000
X123333Y145000
X93333Y145000
X83333Y145000
X73333Y145000
X73333Y155000
X83333Y155000
X93333Y155000
X63333Y155000
X53333Y155000
X43333Y155000
X43333Y145000
X53333Y145000
X63333Y145000
X33333Y145000
X33333Y155000
X42833Y105000
X53833Y105000
X102833Y105000
X113833Y105000
X205333Y104500
X205333Y114500
X205333Y124500
X243333Y155000
X253333Y155000
X263333Y155000
X273333Y155000
X283333Y155000
X293333Y155000
X303333Y155000
X313333Y155000
X306133Y73900
X306133Y56100
X280533Y56100
X280533Y73900
X345533Y73900
X345533Y56100
X371133Y56100
X371133Y73900
T05
X369333Y342000
X349333Y342000
T06
X42703Y77874
X213963Y77874
X213963Y62126
T07
X146333Y114500
M30
