G75*
%MOIN*%
%OFA0B0*%
%FSLAX25Y25*%
%IPPOS*%
%LPD*%
%AMOC8*
5,1,8,0,0,1.08239X$1,22.5*
%
%ADD10C,0.08200*%
%ADD11C,0.07800*%
%ADD12C,0.09658*%
%ADD13C,0.00500*%
%ADD14C,0.07200*%
%ADD15C,0.13800*%
%ADD16C,0.12800*%
%ADD17C,0.09800*%
D10*
X0266400Y0115000D03*
X0266400Y0135000D03*
X0266400Y0155000D03*
X0266400Y0175000D03*
X0266400Y0195000D03*
X0296400Y0195000D03*
X0296400Y0175000D03*
X0311400Y0175000D03*
X0296400Y0155000D03*
X0296400Y0135000D03*
X0296400Y0115000D03*
X0341400Y0175000D03*
X0336400Y0225000D03*
X0346400Y0225000D03*
X0356400Y0225000D03*
X0366400Y0225000D03*
X0376400Y0225000D03*
X0386400Y0225000D03*
X0396400Y0225000D03*
X0406400Y0225000D03*
X0441400Y0175000D03*
X0451400Y0175000D03*
X0461400Y0145000D03*
X0431400Y0145000D03*
X0431400Y0115000D03*
X0461400Y0115000D03*
X0459200Y0088900D03*
X0459200Y0071100D03*
X0433600Y0071100D03*
X0433600Y0088900D03*
X0503600Y0088900D03*
X0503600Y0071100D03*
X0529200Y0071100D03*
X0529200Y0088900D03*
X0531400Y0115000D03*
X0501400Y0115000D03*
X0501400Y0145000D03*
X0531400Y0145000D03*
X0521400Y0175000D03*
X0511400Y0175000D03*
X0216400Y0215000D03*
X0206400Y0215000D03*
X0206400Y0225000D03*
X0216400Y0225000D03*
X0196400Y0225000D03*
X0186400Y0225000D03*
X0186400Y0215000D03*
X0196400Y0215000D03*
X0176400Y0215000D03*
X0166400Y0215000D03*
X0166400Y0225000D03*
X0176400Y0225000D03*
X0156400Y0225000D03*
X0156400Y0215000D03*
X0146400Y0215000D03*
X0136400Y0215000D03*
X0136400Y0225000D03*
X0146400Y0225000D03*
X0126400Y0225000D03*
X0126400Y0215000D03*
X0126400Y0385000D03*
X0126400Y0395000D03*
X0136400Y0395000D03*
X0146400Y0395000D03*
X0146400Y0385000D03*
X0136400Y0385000D03*
X0156400Y0385000D03*
X0156400Y0395000D03*
X0166400Y0395000D03*
X0176400Y0395000D03*
X0176400Y0385000D03*
X0166400Y0385000D03*
X0186400Y0385000D03*
X0196400Y0385000D03*
X0196400Y0395000D03*
X0186400Y0395000D03*
X0206400Y0395000D03*
X0216400Y0395000D03*
X0216400Y0385000D03*
X0206400Y0385000D03*
X0336400Y0385000D03*
X0346400Y0385000D03*
X0356400Y0385000D03*
X0366400Y0385000D03*
X0376400Y0385000D03*
X0386400Y0385000D03*
X0396400Y0385000D03*
X0406400Y0385000D03*
X0388400Y0415000D03*
X0358400Y0415000D03*
D11*
X0361605Y0151000D03*
X0387195Y0151000D03*
D12*
X0180770Y0087874D03*
X0352030Y0087874D03*
X0352030Y0072126D03*
D13*
X0499813Y0273625D02*
X0499538Y0273910D01*
X0499332Y0274249D01*
X0499208Y0274626D01*
X0499170Y0275020D01*
X0499217Y0275404D01*
X0499347Y0275767D01*
X0499556Y0276092D01*
X0499831Y0276363D01*
X0500160Y0276566D01*
X0500526Y0276690D01*
X0500910Y0276730D01*
X0501291Y0276696D01*
X0501656Y0276578D01*
X0501985Y0276382D01*
X0502262Y0276118D01*
X0502473Y0275798D01*
X0502608Y0275440D01*
X0502660Y0275060D01*
X0502625Y0274660D01*
X0502502Y0274277D01*
X0502296Y0273931D01*
X0502019Y0273640D01*
X0501684Y0273418D01*
X0501308Y0273275D01*
X0500910Y0273220D01*
X0500517Y0273272D01*
X0500145Y0273409D01*
X0499813Y0273625D01*
X0499642Y0273802D02*
X0502173Y0273802D01*
X0502509Y0274300D02*
X0499315Y0274300D01*
X0499191Y0274799D02*
X0502637Y0274799D01*
X0502628Y0275297D02*
X0499204Y0275297D01*
X0499366Y0275796D02*
X0502474Y0275796D01*
X0502077Y0276294D02*
X0499761Y0276294D01*
X0500431Y0273303D02*
X0501382Y0273303D01*
X0510228Y0274626D02*
X0510190Y0275020D01*
X0510237Y0275404D01*
X0510367Y0275767D01*
X0510576Y0276092D01*
X0510851Y0276363D01*
X0511180Y0276566D01*
X0511546Y0276690D01*
X0511930Y0276730D01*
X0512311Y0276696D01*
X0512676Y0276578D01*
X0513005Y0276382D01*
X0513282Y0276118D01*
X0513493Y0275798D01*
X0513628Y0275440D01*
X0513680Y0275060D01*
X0513645Y0274660D01*
X0513522Y0274277D01*
X0513316Y0273931D01*
X0513039Y0273640D01*
X0512704Y0273418D01*
X0512328Y0273275D01*
X0511930Y0273220D01*
X0511537Y0273272D01*
X0511165Y0273409D01*
X0510833Y0273625D01*
X0510558Y0273910D01*
X0510352Y0274249D01*
X0510228Y0274626D01*
X0510211Y0274799D02*
X0513657Y0274799D01*
X0513648Y0275297D02*
X0510224Y0275297D01*
X0510386Y0275796D02*
X0513494Y0275796D01*
X0513097Y0276294D02*
X0510781Y0276294D01*
X0510336Y0274300D02*
X0513529Y0274300D01*
X0513193Y0273802D02*
X0510662Y0273802D01*
X0511451Y0273303D02*
X0512402Y0273303D01*
X0549120Y0274940D02*
X0549155Y0275340D01*
X0549278Y0275723D01*
X0549484Y0276069D01*
X0549761Y0276360D01*
X0550096Y0276582D01*
X0550472Y0276725D01*
X0550870Y0276780D01*
X0551263Y0276728D01*
X0551635Y0276591D01*
X0551967Y0276375D01*
X0552242Y0276090D01*
X0552448Y0275751D01*
X0552572Y0275374D01*
X0552610Y0274980D01*
X0552563Y0274596D01*
X0552433Y0274233D01*
X0552224Y0273908D01*
X0551949Y0273637D01*
X0551620Y0273434D01*
X0551254Y0273310D01*
X0550870Y0273270D01*
X0550489Y0273304D01*
X0550124Y0273422D01*
X0549795Y0273618D01*
X0549518Y0273882D01*
X0549307Y0274202D01*
X0549172Y0274560D01*
X0549120Y0274940D01*
X0549139Y0274799D02*
X0552588Y0274799D01*
X0552580Y0275297D02*
X0549151Y0275297D01*
X0549322Y0275796D02*
X0552420Y0275796D01*
X0552045Y0276294D02*
X0549698Y0276294D01*
X0549270Y0274300D02*
X0552457Y0274300D01*
X0552117Y0273802D02*
X0549602Y0273802D01*
X0550492Y0273303D02*
X0551194Y0273303D01*
X0560192Y0274560D02*
X0560140Y0274940D01*
X0560175Y0275340D01*
X0560298Y0275723D01*
X0560504Y0276069D01*
X0560781Y0276360D01*
X0561116Y0276582D01*
X0561492Y0276725D01*
X0561890Y0276780D01*
X0562283Y0276728D01*
X0562655Y0276591D01*
X0562987Y0276375D01*
X0563262Y0276090D01*
X0563468Y0275751D01*
X0563592Y0275374D01*
X0563630Y0274980D01*
X0563583Y0274596D01*
X0563453Y0274233D01*
X0563244Y0273908D01*
X0562969Y0273637D01*
X0562640Y0273434D01*
X0562274Y0273310D01*
X0561890Y0273270D01*
X0561509Y0273304D01*
X0561144Y0273422D01*
X0560815Y0273618D01*
X0560538Y0273882D01*
X0560327Y0274202D01*
X0560192Y0274560D01*
X0560159Y0274799D02*
X0563608Y0274799D01*
X0563600Y0275297D02*
X0560171Y0275297D01*
X0560342Y0275796D02*
X0563440Y0275796D01*
X0563065Y0276294D02*
X0560718Y0276294D01*
X0560290Y0274300D02*
X0563477Y0274300D01*
X0563137Y0273802D02*
X0560622Y0273802D01*
X0561512Y0273303D02*
X0562214Y0273303D01*
D14*
X0540900Y0304800D02*
X0540900Y0311200D01*
X0530900Y0311200D02*
X0530900Y0304800D01*
X0520900Y0304800D02*
X0520900Y0311200D01*
D15*
X0530900Y0367000D03*
D16*
X0555400Y0414000D03*
X0504400Y0414000D03*
D17*
X0574400Y0365000D03*
X0486400Y0312000D03*
X0574400Y0259000D03*
M02*
