G75*
%MOIN*%
%OFA0B0*%
%FSLAX25Y25*%
%IPPOS*%
%LPD*%
%AMOC8*
5,1,8,0,0,1.08239X$1,22.5*
%
%ADD10C,0.00500*%
%ADD11R,0.05000X0.05000*%
%ADD12C,0.01500*%
%ADD13C,0.00600*%
%ADD14C,0.01200*%
%ADD15C,0.01000*%
%ADD16C,0.00800*%
%ADD17C,0.00100*%
%ADD18C,0.00200*%
%ADD19R,0.03500X0.05000*%
%ADD20C,0.01969*%
D10*
X0040085Y0070250D02*
X0038583Y0071751D01*
X0038583Y0074754D01*
X0041586Y0074754D02*
X0041586Y0071751D01*
X0040085Y0070250D01*
X0043187Y0071001D02*
X0043938Y0070250D01*
X0045439Y0070250D01*
X0046190Y0071001D01*
X0047791Y0071001D02*
X0048542Y0070250D01*
X0050043Y0070250D01*
X0050794Y0071001D01*
X0050794Y0074003D02*
X0050043Y0074754D01*
X0048542Y0074754D01*
X0047791Y0074003D01*
X0047791Y0071001D01*
X0046190Y0074003D02*
X0045439Y0074754D01*
X0043938Y0074754D01*
X0043187Y0074003D01*
X0043187Y0071001D01*
X0047061Y0092750D02*
X0050064Y0092750D01*
X0048562Y0092750D02*
X0048562Y0097254D01*
X0047061Y0095753D01*
X0051665Y0096503D02*
X0052416Y0097254D01*
X0053917Y0097254D01*
X0054668Y0096503D01*
X0054668Y0095753D01*
X0051665Y0092750D01*
X0054668Y0092750D01*
X0056269Y0092750D02*
X0056269Y0097254D01*
X0058521Y0095753D02*
X0056269Y0094251D01*
X0058521Y0092750D01*
X0058521Y0112750D02*
X0056269Y0114251D01*
X0058521Y0115753D01*
X0056269Y0117254D02*
X0056269Y0112750D01*
X0054668Y0112750D02*
X0051665Y0112750D01*
X0054668Y0115753D01*
X0054668Y0116503D01*
X0053917Y0117254D01*
X0052416Y0117254D01*
X0051665Y0116503D01*
X0048562Y0117254D02*
X0048562Y0112750D01*
X0047061Y0112750D02*
X0050064Y0112750D01*
X0047061Y0115753D02*
X0048562Y0117254D01*
X0048562Y0132750D02*
X0048562Y0137254D01*
X0047061Y0135753D01*
X0047061Y0132750D02*
X0050064Y0132750D01*
X0051665Y0132750D02*
X0054668Y0135753D01*
X0054668Y0136503D01*
X0053917Y0137254D01*
X0052416Y0137254D01*
X0051665Y0136503D01*
X0051665Y0132750D02*
X0054668Y0132750D01*
X0056269Y0132750D02*
X0056269Y0137254D01*
X0058521Y0135753D02*
X0056269Y0134251D01*
X0058521Y0132750D01*
X0057420Y0152750D02*
X0057420Y0157254D01*
X0055819Y0157254D02*
X0052816Y0157254D01*
X0052816Y0155002D01*
X0054317Y0155753D01*
X0055068Y0155753D01*
X0055819Y0155002D01*
X0055819Y0153501D01*
X0055068Y0152750D01*
X0053567Y0152750D01*
X0052816Y0153501D01*
X0051265Y0153501D02*
X0051265Y0152750D01*
X0050514Y0152750D01*
X0050514Y0153501D01*
X0051265Y0153501D01*
X0048913Y0152750D02*
X0045910Y0152750D01*
X0047411Y0152750D02*
X0047411Y0157254D01*
X0045910Y0155753D01*
X0057420Y0154251D02*
X0059672Y0155753D01*
X0057420Y0154251D02*
X0059672Y0152750D01*
X0059672Y0172750D02*
X0057420Y0174251D01*
X0059672Y0175753D01*
X0057420Y0177254D02*
X0057420Y0172750D01*
X0055819Y0173501D02*
X0055068Y0172750D01*
X0053567Y0172750D01*
X0052816Y0173501D01*
X0052816Y0175002D02*
X0054317Y0175753D01*
X0055068Y0175753D01*
X0055819Y0175002D01*
X0055819Y0173501D01*
X0052816Y0175002D02*
X0052816Y0177254D01*
X0055819Y0177254D01*
X0051265Y0173501D02*
X0051265Y0172750D01*
X0050514Y0172750D01*
X0050514Y0173501D01*
X0051265Y0173501D01*
X0048913Y0172750D02*
X0045910Y0172750D01*
X0047411Y0172750D02*
X0047411Y0177254D01*
X0045910Y0175753D01*
X0023333Y0145000D02*
X0223333Y0145000D01*
X0223333Y0405000D01*
X0023333Y0405000D01*
X0023333Y0145000D01*
X0090910Y0152750D02*
X0093913Y0152750D01*
X0092411Y0152750D02*
X0092411Y0157254D01*
X0090910Y0155753D01*
X0095514Y0153501D02*
X0096265Y0153501D01*
X0096265Y0152750D01*
X0095514Y0152750D01*
X0095514Y0153501D01*
X0097816Y0153501D02*
X0098567Y0152750D01*
X0100068Y0152750D01*
X0100819Y0153501D01*
X0100819Y0155002D01*
X0100068Y0155753D01*
X0099317Y0155753D01*
X0097816Y0155002D01*
X0097816Y0157254D01*
X0100819Y0157254D01*
X0102420Y0157254D02*
X0102420Y0152750D01*
X0102420Y0154251D02*
X0104672Y0155753D01*
X0102420Y0154251D02*
X0104672Y0152750D01*
X0188583Y0107502D02*
X0191586Y0107502D01*
X0190085Y0109003D02*
X0190085Y0106001D01*
X0213583Y0107502D02*
X0216586Y0107502D01*
X0186231Y0074754D02*
X0183979Y0074754D01*
X0183979Y0070250D01*
X0186231Y0070250D01*
X0186982Y0071001D01*
X0186982Y0074003D01*
X0186231Y0074754D01*
X0182378Y0074754D02*
X0182378Y0070250D01*
X0179375Y0074754D01*
X0179375Y0070250D01*
X0177774Y0071001D02*
X0177774Y0072502D01*
X0176273Y0072502D01*
X0177774Y0074003D02*
X0177023Y0074754D01*
X0175522Y0074754D01*
X0174772Y0074003D01*
X0174772Y0071001D01*
X0175522Y0070250D01*
X0177023Y0070250D01*
X0177774Y0071001D01*
X0177023Y0059754D02*
X0174772Y0059754D01*
X0174772Y0055250D01*
X0174772Y0056751D02*
X0177023Y0056751D01*
X0177774Y0057502D01*
X0177774Y0059003D01*
X0177023Y0059754D01*
X0179375Y0059754D02*
X0179375Y0055250D01*
X0182378Y0055250D01*
X0183979Y0055250D02*
X0183979Y0059754D01*
X0186231Y0059754D01*
X0186982Y0059003D01*
X0186982Y0057502D01*
X0186231Y0056751D01*
X0183979Y0056751D01*
X0185481Y0056751D02*
X0186982Y0055250D01*
X0182378Y0059754D02*
X0179375Y0059754D01*
X0179375Y0057502D02*
X0180877Y0057502D01*
X0173204Y0059754D02*
X0171702Y0059754D01*
X0172453Y0059754D02*
X0172453Y0055250D01*
X0171702Y0055250D02*
X0173204Y0055250D01*
X0170101Y0055250D02*
X0170101Y0059754D01*
X0167098Y0059754D02*
X0167098Y0055250D01*
X0168600Y0056751D01*
X0170101Y0055250D01*
X0118888Y0062750D02*
X0116636Y0065002D01*
X0115885Y0064251D02*
X0118888Y0067254D01*
X0115885Y0067254D02*
X0115885Y0062750D01*
X0114284Y0063501D02*
X0113533Y0062750D01*
X0112032Y0062750D01*
X0111281Y0063501D01*
X0114284Y0066503D01*
X0114284Y0063501D01*
X0114284Y0066503D02*
X0113533Y0067254D01*
X0112032Y0067254D01*
X0111281Y0066503D01*
X0111281Y0063501D01*
X0109680Y0062750D02*
X0106677Y0062750D01*
X0108179Y0062750D02*
X0108179Y0067254D01*
X0106677Y0065753D01*
X0228333Y0145000D02*
X0228333Y0325000D01*
X0408333Y0325000D01*
X0408333Y0145000D01*
X0228333Y0145000D01*
X0256079Y0124804D02*
X0256079Y0123303D01*
X0256830Y0122552D01*
X0259833Y0122552D01*
X0256830Y0125555D01*
X0259833Y0125555D01*
X0260583Y0124804D01*
X0260583Y0123303D01*
X0259833Y0122552D01*
X0260583Y0120951D02*
X0260583Y0117948D01*
X0257581Y0120951D01*
X0256830Y0120951D01*
X0256079Y0120200D01*
X0256079Y0118699D01*
X0256830Y0117948D01*
X0256830Y0116347D02*
X0256079Y0115596D01*
X0256079Y0114095D01*
X0256830Y0113344D01*
X0256830Y0116347D02*
X0257581Y0116347D01*
X0260583Y0113344D01*
X0260583Y0116347D01*
X0256079Y0124804D02*
X0256830Y0125555D01*
X0283562Y0097254D02*
X0283562Y0092750D01*
X0282061Y0092750D02*
X0285064Y0092750D01*
X0286665Y0093501D02*
X0289668Y0096503D01*
X0289668Y0093501D01*
X0288917Y0092750D01*
X0287416Y0092750D01*
X0286665Y0093501D01*
X0286665Y0096503D01*
X0287416Y0097254D01*
X0288917Y0097254D01*
X0289668Y0096503D01*
X0291269Y0097254D02*
X0291269Y0092750D01*
X0291269Y0094251D02*
X0293521Y0095753D01*
X0291269Y0094251D02*
X0293521Y0092750D01*
X0283562Y0097254D02*
X0282061Y0095753D01*
X0326079Y0114095D02*
X0326830Y0113344D01*
X0326079Y0114095D02*
X0326079Y0115596D01*
X0326830Y0116347D01*
X0327581Y0116347D01*
X0330583Y0113344D01*
X0330583Y0116347D01*
X0330583Y0117948D02*
X0327581Y0120951D01*
X0326830Y0120951D01*
X0326079Y0120200D01*
X0326079Y0118699D01*
X0326830Y0117948D01*
X0330583Y0117948D02*
X0330583Y0120951D01*
X0329833Y0122552D02*
X0326830Y0125555D01*
X0329833Y0125555D01*
X0330583Y0124804D01*
X0330583Y0123303D01*
X0329833Y0122552D01*
X0326830Y0122552D01*
X0326079Y0123303D01*
X0326079Y0124804D01*
X0326830Y0125555D01*
X0353562Y0097254D02*
X0352061Y0095753D01*
X0353562Y0097254D02*
X0353562Y0092750D01*
X0352061Y0092750D02*
X0355064Y0092750D01*
X0356665Y0093501D02*
X0359668Y0096503D01*
X0359668Y0093501D01*
X0358917Y0092750D01*
X0357416Y0092750D01*
X0356665Y0093501D01*
X0356665Y0096503D01*
X0357416Y0097254D01*
X0358917Y0097254D01*
X0359668Y0096503D01*
X0361269Y0097254D02*
X0361269Y0092750D01*
X0361269Y0094251D02*
X0363521Y0095753D01*
X0361269Y0094251D02*
X0363521Y0092750D01*
X0323137Y0257750D02*
X0321636Y0257750D01*
X0320885Y0258501D01*
X0323888Y0261503D01*
X0323888Y0258501D01*
X0323137Y0257750D01*
X0320885Y0258501D02*
X0320885Y0261503D01*
X0321636Y0262254D01*
X0323137Y0262254D01*
X0323888Y0261503D01*
X0319284Y0261503D02*
X0318533Y0262254D01*
X0317032Y0262254D01*
X0316281Y0261503D01*
X0314680Y0261503D02*
X0313929Y0262254D01*
X0312428Y0262254D01*
X0311677Y0261503D01*
X0314680Y0261503D02*
X0314680Y0260753D01*
X0311677Y0257750D01*
X0314680Y0257750D01*
X0316281Y0257750D02*
X0319284Y0260753D01*
X0319284Y0261503D01*
X0319284Y0257750D02*
X0316281Y0257750D01*
X0151583Y0320642D02*
X0150833Y0319891D01*
X0147830Y0322894D01*
X0150833Y0322894D01*
X0151583Y0322143D01*
X0151583Y0320642D01*
X0150833Y0319891D02*
X0147830Y0319891D01*
X0147079Y0320642D01*
X0147079Y0322143D01*
X0147830Y0322894D01*
X0150833Y0324495D02*
X0150833Y0325246D01*
X0151583Y0325246D01*
X0151583Y0324495D01*
X0150833Y0324495D01*
X0151583Y0326797D02*
X0151583Y0329800D01*
X0151583Y0328298D02*
X0147079Y0328298D01*
X0148581Y0326797D01*
X0148581Y0331401D02*
X0150833Y0331401D01*
X0151583Y0332152D01*
X0151583Y0334404D01*
X0148581Y0334404D01*
X0149331Y0336005D02*
X0149331Y0337506D01*
X0147079Y0336005D02*
X0147079Y0339007D01*
X0147079Y0336005D02*
X0151583Y0336005D01*
X0150833Y0357589D02*
X0147830Y0357589D01*
X0147079Y0358340D01*
X0147079Y0359841D01*
X0147830Y0360592D01*
X0150833Y0357589D01*
X0151583Y0358340D01*
X0151583Y0359841D01*
X0150833Y0360592D01*
X0147830Y0360592D01*
X0150833Y0362193D02*
X0150833Y0362944D01*
X0151583Y0362944D01*
X0151583Y0362193D01*
X0150833Y0362193D01*
X0150833Y0364495D02*
X0151583Y0365246D01*
X0151583Y0366747D01*
X0150833Y0367498D01*
X0150082Y0367498D01*
X0149331Y0366747D01*
X0149331Y0365996D01*
X0149331Y0366747D02*
X0148581Y0367498D01*
X0147830Y0367498D01*
X0147079Y0366747D01*
X0147079Y0365246D01*
X0147830Y0364495D01*
X0147830Y0369099D02*
X0147079Y0369850D01*
X0147079Y0371351D01*
X0147830Y0372102D01*
X0148581Y0372102D01*
X0149331Y0371351D01*
X0150082Y0372102D01*
X0150833Y0372102D01*
X0151583Y0371351D01*
X0151583Y0369850D01*
X0150833Y0369099D01*
X0149331Y0370600D02*
X0149331Y0371351D01*
X0148581Y0373703D02*
X0150833Y0373703D01*
X0151583Y0374454D01*
X0151583Y0376705D01*
X0148581Y0376705D01*
X0149331Y0378307D02*
X0149331Y0379808D01*
X0147079Y0378307D02*
X0147079Y0381309D01*
X0147079Y0378307D02*
X0151583Y0378307D01*
X0101583Y0366063D02*
X0097079Y0366063D01*
X0097079Y0364562D02*
X0097079Y0367564D01*
X0097830Y0362960D02*
X0097079Y0362210D01*
X0097079Y0360708D01*
X0097830Y0359958D01*
X0100833Y0359958D01*
X0101583Y0360708D01*
X0101583Y0362210D01*
X0100833Y0362960D01*
X0100833Y0358356D02*
X0101583Y0357606D01*
X0101583Y0356105D01*
X0100833Y0355354D01*
X0099331Y0355354D02*
X0098581Y0356855D01*
X0098581Y0357606D01*
X0099331Y0358356D01*
X0100833Y0358356D01*
X0099331Y0355354D02*
X0097079Y0355354D01*
X0097079Y0358356D01*
X0097830Y0353753D02*
X0100833Y0350750D01*
X0101583Y0351501D01*
X0101583Y0353002D01*
X0100833Y0353753D01*
X0097830Y0353753D01*
X0097079Y0353002D01*
X0097079Y0351501D01*
X0097830Y0350750D01*
X0100833Y0350750D01*
X0100833Y0349149D02*
X0101583Y0348398D01*
X0101583Y0346897D01*
X0100833Y0346146D01*
X0100082Y0346146D01*
X0099331Y0346897D01*
X0099331Y0348398D01*
X0100082Y0349149D01*
X0100833Y0349149D01*
X0099331Y0348398D02*
X0098581Y0349149D01*
X0097830Y0349149D01*
X0097079Y0348398D01*
X0097079Y0346897D01*
X0097830Y0346146D01*
X0098581Y0346146D01*
X0099331Y0346897D01*
X0097830Y0344545D02*
X0100833Y0341542D01*
X0101583Y0341542D01*
X0101583Y0339941D02*
X0097079Y0339941D01*
X0098581Y0338439D01*
X0097079Y0336938D01*
X0101583Y0336938D01*
X0101583Y0335337D02*
X0101583Y0332334D01*
X0097079Y0332334D01*
X0097079Y0341542D02*
X0097079Y0344545D01*
X0097830Y0344545D01*
D11*
X0223333Y0082500D03*
X0228333Y0077500D03*
X0228333Y0072500D03*
X0233333Y0072500D03*
X0233333Y0067500D03*
X0233333Y0062500D03*
X0228333Y0062500D03*
X0223333Y0062500D03*
X0218333Y0062500D03*
X0213333Y0062500D03*
X0218333Y0067500D03*
X0223333Y0067500D03*
X0223333Y0072500D03*
X0223333Y0057500D03*
X0223333Y0052500D03*
X0228333Y0047500D03*
X0233333Y0047500D03*
X0233333Y0057500D03*
X0228333Y0057500D03*
X0238333Y0057500D03*
X0243333Y0057500D03*
X0248333Y0057500D03*
X0253333Y0057500D03*
X0253333Y0052500D03*
X0248333Y0047500D03*
X0243333Y0047500D03*
X0243333Y0062500D03*
X0238333Y0062500D03*
X0238333Y0067500D03*
X0238333Y0072500D03*
X0243333Y0072500D03*
X0243333Y0067500D03*
X0248333Y0062500D03*
X0253333Y0062500D03*
X0253333Y0067500D03*
X0253333Y0072500D03*
X0248333Y0072500D03*
X0248333Y0077500D03*
X0253333Y0082500D03*
X0258333Y0067500D03*
X0258333Y0062500D03*
X0263333Y0062500D03*
X0263333Y0057500D03*
X0263333Y0052500D03*
X0213333Y0052500D03*
X0213333Y0057500D03*
D12*
X0158333Y0126061D02*
X0161341Y0129068D01*
X0161341Y0131074D01*
X0159336Y0133079D01*
X0157331Y0133079D01*
X0154323Y0130071D01*
X0152318Y0132076D02*
X0158333Y0126061D01*
X0163842Y0133574D02*
X0165847Y0133574D01*
X0168855Y0136582D01*
X0169857Y0135579D02*
X0164844Y0140592D01*
X0160834Y0136582D02*
X0163842Y0133574D01*
X0168855Y0132572D02*
X0169857Y0133574D01*
X0169857Y0135579D01*
X0177866Y0145593D02*
X0171851Y0151609D01*
X0174858Y0154617D01*
X0176864Y0154617D01*
X0178869Y0152612D01*
X0178869Y0150606D01*
X0175861Y0147599D01*
X0181369Y0155112D02*
X0181369Y0157117D01*
X0183374Y0159123D01*
X0185380Y0159123D01*
X0188387Y0156115D01*
X0190888Y0158615D02*
X0192893Y0160621D01*
X0191891Y0159618D02*
X0187880Y0163628D01*
X0186878Y0162626D01*
X0185875Y0165633D02*
X0184872Y0166636D01*
X0189213Y0168971D02*
X0195229Y0162956D01*
X0199239Y0166966D01*
X0184377Y0152104D02*
X0178362Y0158120D01*
X0168786Y0166513D02*
X0166781Y0166513D01*
X0164776Y0168518D01*
X0164776Y0170524D01*
X0166781Y0172529D01*
X0168786Y0172529D01*
X0169788Y0171526D01*
X0165778Y0167516D01*
X0168786Y0166513D02*
X0170791Y0168518D01*
X0174294Y0172022D02*
X0170284Y0176032D01*
X0172289Y0178037D02*
X0173292Y0179040D01*
X0172289Y0178037D02*
X0172289Y0174027D01*
X0176712Y0180455D02*
X0176712Y0182460D01*
X0179720Y0185468D01*
X0180723Y0182460D02*
X0178717Y0180455D01*
X0176712Y0180455D01*
X0179720Y0177447D02*
X0182728Y0180455D01*
X0182728Y0182460D01*
X0180723Y0182460D01*
X0165283Y0163010D02*
X0162275Y0160002D01*
X0160270Y0160002D01*
X0158265Y0162007D01*
X0158265Y0164013D01*
X0161272Y0167020D01*
X0159267Y0169026D02*
X0165283Y0163010D01*
X0158772Y0156499D02*
X0155764Y0153491D01*
X0153759Y0153491D01*
X0153759Y0155497D01*
X0156767Y0158504D01*
X0155764Y0159507D02*
X0158772Y0156499D01*
X0155764Y0159507D02*
X0153759Y0159507D01*
X0151754Y0157502D01*
X0148251Y0153999D02*
X0150256Y0147983D01*
X0144240Y0149988D01*
X0142742Y0146485D02*
X0140737Y0146485D01*
X0137729Y0143477D01*
X0141740Y0139467D01*
X0139404Y0137131D02*
X0137399Y0135126D01*
X0138402Y0136129D02*
X0132386Y0142144D01*
X0131383Y0141142D02*
X0133389Y0143147D01*
X0142742Y0146485D02*
X0145750Y0143477D01*
X0126382Y0128120D02*
X0122372Y0124110D01*
X0121369Y0125112D02*
X0121369Y0127117D01*
X0123374Y0129123D01*
X0125380Y0129123D01*
X0126382Y0128120D01*
X0127385Y0125112D02*
X0125380Y0123107D01*
X0123374Y0123107D01*
X0121369Y0125112D01*
X0117866Y0123614D02*
X0114858Y0120606D01*
X0114858Y0118601D01*
X0116864Y0116596D01*
X0118869Y0116596D01*
X0121877Y0119604D01*
X0115366Y0113093D02*
X0112358Y0110085D01*
X0110353Y0110085D01*
X0110353Y0112090D01*
X0113360Y0115098D01*
X0112358Y0116101D02*
X0115366Y0113093D01*
X0112358Y0116101D02*
X0110353Y0116101D01*
X0108347Y0114095D01*
X0105847Y0109590D02*
X0107852Y0107585D01*
X0107852Y0105579D01*
X0104844Y0102572D01*
X0106849Y0100566D02*
X0100834Y0106582D01*
X0103842Y0109590D01*
X0105847Y0109590D01*
X0100339Y0102076D02*
X0098333Y0102076D01*
X0096328Y0100071D01*
X0094323Y0100071D01*
X0093320Y0101074D01*
X0093320Y0103079D01*
X0095326Y0105084D01*
X0097331Y0105084D01*
X0100339Y0102076D02*
X0101341Y0101074D01*
X0101341Y0099068D01*
X0099336Y0097063D01*
X0097331Y0097063D01*
X0119076Y0194711D02*
X0119076Y0200382D01*
X0119076Y0197546D02*
X0127583Y0197546D01*
X0127583Y0203919D02*
X0119076Y0203919D01*
X0121912Y0206754D01*
X0119076Y0209590D01*
X0127583Y0209590D01*
X0123330Y0213126D02*
X0123330Y0218798D01*
X0127583Y0217380D02*
X0119076Y0217380D01*
X0123330Y0213126D01*
X0120494Y0222334D02*
X0126165Y0222334D01*
X0127583Y0223752D01*
X0127583Y0226588D01*
X0126165Y0228006D01*
X0127583Y0231542D02*
X0127583Y0237214D01*
X0127583Y0234378D02*
X0119076Y0234378D01*
X0121912Y0231542D01*
X0120494Y0228006D02*
X0119076Y0226588D01*
X0119076Y0223752D01*
X0120494Y0222334D01*
X0120494Y0240750D02*
X0119076Y0242168D01*
X0119076Y0245004D01*
X0120494Y0246421D01*
X0121912Y0246421D01*
X0127583Y0240750D01*
X0127583Y0246421D01*
X0126165Y0249958D02*
X0127583Y0251376D01*
X0127583Y0254211D01*
X0126165Y0255629D01*
X0124748Y0255629D01*
X0123330Y0254211D01*
X0123330Y0252794D01*
X0123330Y0254211D02*
X0121912Y0255629D01*
X0120494Y0255629D01*
X0119076Y0254211D01*
X0119076Y0251376D01*
X0120494Y0249958D01*
X0120494Y0259166D02*
X0126165Y0259166D01*
X0127583Y0260584D01*
X0127583Y0263419D01*
X0126165Y0264837D01*
X0123330Y0264837D01*
X0123330Y0262001D01*
X0120494Y0259166D02*
X0119076Y0260584D01*
X0119076Y0263419D01*
X0120494Y0264837D01*
X0119076Y0268374D02*
X0127583Y0274045D01*
X0127583Y0277581D02*
X0127583Y0283253D01*
X0127583Y0277581D02*
X0119076Y0277581D01*
X0119076Y0274045D02*
X0127583Y0268374D01*
X0274579Y0239257D02*
X0274579Y0230750D01*
X0280250Y0230750D02*
X0274579Y0239257D01*
X0280250Y0239257D02*
X0280250Y0230750D01*
X0283786Y0232168D02*
X0283786Y0237839D01*
X0285204Y0239257D01*
X0288040Y0239257D01*
X0289458Y0237839D01*
X0289458Y0232168D01*
X0288040Y0230750D01*
X0285204Y0230750D01*
X0283786Y0232168D01*
X0292994Y0233586D02*
X0298666Y0239257D01*
X0302202Y0239257D02*
X0305038Y0239257D01*
X0303620Y0239257D02*
X0303620Y0230750D01*
X0302202Y0230750D02*
X0305038Y0230750D01*
X0308341Y0230750D02*
X0308341Y0236422D01*
X0311177Y0239257D01*
X0314012Y0236422D01*
X0314012Y0230750D01*
X0314012Y0235004D02*
X0308341Y0235004D01*
X0298666Y0230750D02*
X0294412Y0235004D01*
X0292994Y0239257D02*
X0292994Y0230750D01*
X0326757Y0232168D02*
X0328174Y0230750D01*
X0331010Y0230750D01*
X0332428Y0232168D01*
X0332428Y0235004D01*
X0331010Y0236422D01*
X0329592Y0236422D01*
X0326757Y0235004D01*
X0326757Y0239257D01*
X0332428Y0239257D01*
X0335964Y0236422D02*
X0338800Y0239257D01*
X0338800Y0230750D01*
X0335964Y0230750D02*
X0341636Y0230750D01*
X0345172Y0230750D02*
X0350844Y0230750D01*
X0348008Y0230750D02*
X0348008Y0239257D01*
X0345172Y0236422D01*
X0354380Y0237839D02*
X0354380Y0232168D01*
X0360052Y0237839D01*
X0360052Y0232168D01*
X0358634Y0230750D01*
X0355798Y0230750D01*
X0354380Y0232168D01*
X0354380Y0237839D02*
X0355798Y0239257D01*
X0358634Y0239257D01*
X0360052Y0237839D01*
D13*
X0335533Y0270003D02*
X0331130Y0270003D01*
X0331130Y0272205D01*
X0331864Y0272939D01*
X0334799Y0272939D01*
X0335533Y0272205D01*
X0335533Y0270003D01*
X0335533Y0274607D02*
X0331130Y0274607D01*
X0335533Y0277543D01*
X0331130Y0277543D01*
X0333331Y0279211D02*
X0335533Y0282147D01*
X0335533Y0283815D02*
X0331130Y0283815D01*
X0332597Y0285283D01*
X0331130Y0286751D01*
X0335533Y0286751D01*
X0334799Y0288419D02*
X0335533Y0289153D01*
X0335533Y0290621D01*
X0334799Y0291355D01*
X0331864Y0291355D01*
X0331130Y0290621D01*
X0331130Y0289153D01*
X0331864Y0288419D01*
X0334799Y0288419D01*
X0334799Y0293023D02*
X0335533Y0293757D01*
X0335533Y0295225D01*
X0334799Y0295959D01*
X0334065Y0295959D01*
X0333331Y0295225D01*
X0333331Y0293757D01*
X0332597Y0293023D01*
X0331864Y0293023D01*
X0331130Y0293757D01*
X0331130Y0295225D01*
X0331864Y0295959D01*
X0331130Y0297627D02*
X0331130Y0299095D01*
X0331130Y0298361D02*
X0335533Y0298361D01*
X0335533Y0297627D02*
X0335533Y0299095D01*
X0335533Y0300696D02*
X0333331Y0303632D01*
X0331130Y0300696D01*
X0325533Y0301430D02*
X0325533Y0302898D01*
X0324799Y0303632D01*
X0325533Y0301430D02*
X0324799Y0300696D01*
X0321864Y0300696D01*
X0321130Y0301430D01*
X0321130Y0302898D01*
X0321864Y0303632D01*
X0321130Y0299028D02*
X0325533Y0296092D01*
X0324799Y0294424D02*
X0321864Y0294424D01*
X0321130Y0293690D01*
X0321130Y0291488D01*
X0325533Y0291488D01*
X0325533Y0293690D01*
X0324799Y0294424D01*
X0315533Y0294424D02*
X0314065Y0292956D01*
X0314065Y0293690D02*
X0314065Y0291488D01*
X0315533Y0291488D02*
X0311130Y0291488D01*
X0311130Y0293690D01*
X0311864Y0294424D01*
X0313331Y0294424D01*
X0314065Y0293690D01*
X0314799Y0296092D02*
X0315533Y0296826D01*
X0315533Y0298294D01*
X0314799Y0299028D01*
X0314065Y0299028D01*
X0313331Y0298294D01*
X0313331Y0296826D01*
X0312597Y0296092D01*
X0311864Y0296092D01*
X0311130Y0296826D01*
X0311130Y0298294D01*
X0311864Y0299028D01*
X0311130Y0300696D02*
X0311130Y0303632D01*
X0311130Y0302164D02*
X0315533Y0302164D01*
X0305533Y0300696D02*
X0305533Y0303632D01*
X0303331Y0302164D02*
X0303331Y0300696D01*
X0301130Y0300696D02*
X0305533Y0300696D01*
X0304799Y0299028D02*
X0305533Y0298294D01*
X0305533Y0296826D01*
X0304799Y0296092D01*
X0301864Y0296092D01*
X0301130Y0296826D01*
X0301130Y0298294D01*
X0301864Y0299028D01*
X0301130Y0300696D02*
X0301130Y0303632D01*
X0295533Y0302898D02*
X0294799Y0303632D01*
X0291864Y0303632D01*
X0291130Y0302898D01*
X0291130Y0300696D01*
X0295533Y0300696D01*
X0295533Y0302898D01*
X0295533Y0299028D02*
X0291130Y0299028D01*
X0291130Y0296092D02*
X0295533Y0299028D01*
X0295533Y0296092D02*
X0291130Y0296092D01*
X0291864Y0294424D02*
X0291130Y0293690D01*
X0291130Y0292222D01*
X0291864Y0291488D01*
X0294799Y0291488D01*
X0295533Y0292222D01*
X0295533Y0293690D01*
X0294799Y0294424D01*
X0293331Y0294424D01*
X0293331Y0292956D01*
X0285533Y0292956D02*
X0284065Y0291488D01*
X0281130Y0291488D01*
X0281130Y0294424D02*
X0284065Y0294424D01*
X0285533Y0292956D01*
X0284799Y0296092D02*
X0285533Y0296826D01*
X0285533Y0298294D01*
X0284799Y0299028D01*
X0284799Y0300696D02*
X0281864Y0300696D01*
X0281130Y0301430D01*
X0281130Y0302898D01*
X0281864Y0303632D01*
X0284799Y0303632D02*
X0285533Y0302898D01*
X0285533Y0301430D01*
X0284799Y0300696D01*
X0281864Y0299028D02*
X0281130Y0298294D01*
X0281130Y0296826D01*
X0281864Y0296092D01*
X0284799Y0296092D01*
X0301130Y0293690D02*
X0301130Y0292222D01*
X0301864Y0291488D01*
X0302597Y0291488D01*
X0303331Y0292222D01*
X0303331Y0293690D01*
X0304065Y0294424D01*
X0304799Y0294424D01*
X0305533Y0293690D01*
X0305533Y0292222D01*
X0304799Y0291488D01*
X0301864Y0294424D02*
X0301130Y0293690D01*
X0275533Y0311430D02*
X0275533Y0312164D01*
X0274799Y0312898D01*
X0271130Y0312898D01*
X0271130Y0312164D02*
X0271130Y0313632D01*
X0271130Y0315300D02*
X0273331Y0315300D01*
X0272597Y0316768D01*
X0272597Y0317502D01*
X0273331Y0318236D01*
X0274799Y0318236D01*
X0275533Y0317502D01*
X0275533Y0316034D01*
X0274799Y0315300D01*
X0271130Y0315300D02*
X0271130Y0318236D01*
X0275533Y0311430D02*
X0274799Y0310696D01*
X0216569Y0296470D02*
X0216569Y0295736D01*
X0213633Y0292800D01*
X0216569Y0292800D01*
X0216569Y0296470D02*
X0215835Y0297204D01*
X0214367Y0297204D01*
X0213633Y0296470D01*
X0211965Y0297204D02*
X0210497Y0297204D01*
X0211231Y0297204D02*
X0211231Y0293534D01*
X0210497Y0292800D01*
X0209763Y0292800D01*
X0209029Y0293534D01*
X0206569Y0295002D02*
X0203633Y0295002D01*
X0205835Y0297204D01*
X0205835Y0292800D01*
X0201231Y0293534D02*
X0201231Y0297204D01*
X0200497Y0297204D02*
X0201965Y0297204D01*
X0201231Y0293534D02*
X0200497Y0292800D01*
X0199763Y0292800D01*
X0199029Y0293534D01*
X0191965Y0286470D02*
X0191231Y0287204D01*
X0189029Y0287204D01*
X0189029Y0282800D01*
X0191231Y0282800D01*
X0191965Y0283534D01*
X0191965Y0286470D01*
X0187361Y0287204D02*
X0187361Y0282800D01*
X0184425Y0287204D01*
X0184425Y0282800D01*
X0182757Y0283534D02*
X0182757Y0285002D01*
X0181289Y0285002D01*
X0179822Y0286470D02*
X0179822Y0283534D01*
X0180555Y0282800D01*
X0182023Y0282800D01*
X0182757Y0283534D01*
X0182757Y0286470D02*
X0182023Y0287204D01*
X0180555Y0287204D01*
X0179822Y0286470D01*
X0171965Y0286470D02*
X0171231Y0287204D01*
X0169763Y0287204D01*
X0169029Y0286470D01*
X0167361Y0287204D02*
X0164425Y0287204D01*
X0164425Y0282800D01*
X0164425Y0285002D02*
X0165893Y0285002D01*
X0162757Y0285002D02*
X0162023Y0284268D01*
X0159822Y0284268D01*
X0159822Y0282800D02*
X0159822Y0287204D01*
X0162023Y0287204D01*
X0162757Y0286470D01*
X0162757Y0285002D01*
X0169029Y0282800D02*
X0171965Y0285736D01*
X0171965Y0286470D01*
X0171965Y0282800D02*
X0169029Y0282800D01*
X0169763Y0277204D02*
X0171231Y0277204D01*
X0171965Y0276470D01*
X0171965Y0275736D01*
X0171231Y0275002D01*
X0171965Y0274268D01*
X0171965Y0273534D01*
X0171231Y0272800D01*
X0169763Y0272800D01*
X0169029Y0273534D01*
X0170497Y0275002D02*
X0171231Y0275002D01*
X0169029Y0276470D02*
X0169763Y0277204D01*
X0167361Y0277204D02*
X0164425Y0277204D01*
X0164425Y0272800D01*
X0164425Y0275002D02*
X0165893Y0275002D01*
X0162757Y0275002D02*
X0162757Y0276470D01*
X0162023Y0277204D01*
X0159822Y0277204D01*
X0159822Y0272800D01*
X0159822Y0274268D02*
X0162023Y0274268D01*
X0162757Y0275002D01*
X0162023Y0267204D02*
X0162757Y0266470D01*
X0162757Y0265002D01*
X0162023Y0264268D01*
X0159822Y0264268D01*
X0159822Y0262800D02*
X0159822Y0267204D01*
X0162023Y0267204D01*
X0164425Y0267204D02*
X0164425Y0262800D01*
X0166627Y0262800D01*
X0167361Y0263534D01*
X0167361Y0264268D01*
X0166627Y0265002D01*
X0164425Y0265002D01*
X0164425Y0267204D02*
X0166627Y0267204D01*
X0167361Y0266470D01*
X0167361Y0265736D01*
X0166627Y0265002D01*
X0169029Y0266470D02*
X0169763Y0267204D01*
X0171231Y0267204D01*
X0171965Y0266470D01*
X0171965Y0265736D01*
X0171231Y0265002D01*
X0171965Y0264268D01*
X0171965Y0263534D01*
X0171231Y0262800D01*
X0169763Y0262800D01*
X0169029Y0263534D01*
X0170497Y0265002D02*
X0171231Y0265002D01*
X0171231Y0257204D02*
X0169029Y0255002D01*
X0171965Y0255002D01*
X0171231Y0252800D02*
X0171231Y0257204D01*
X0167361Y0256470D02*
X0166627Y0257204D01*
X0165159Y0257204D01*
X0164425Y0256470D01*
X0164425Y0253534D01*
X0165159Y0252800D01*
X0166627Y0252800D01*
X0167361Y0253534D01*
X0162757Y0255002D02*
X0162757Y0256470D01*
X0162023Y0257204D01*
X0159822Y0257204D01*
X0159822Y0252800D01*
X0159822Y0254268D02*
X0162023Y0254268D01*
X0162757Y0255002D01*
X0162023Y0247204D02*
X0162757Y0246470D01*
X0162757Y0245002D01*
X0162023Y0244268D01*
X0159822Y0244268D01*
X0159822Y0242800D02*
X0159822Y0247204D01*
X0162023Y0247204D01*
X0164425Y0246470D02*
X0164425Y0243534D01*
X0165159Y0242800D01*
X0166627Y0242800D01*
X0167361Y0243534D01*
X0169029Y0243534D02*
X0169763Y0242800D01*
X0171231Y0242800D01*
X0171965Y0243534D01*
X0171965Y0245002D01*
X0171231Y0245736D01*
X0170497Y0245736D01*
X0169029Y0245002D01*
X0169029Y0247204D01*
X0171965Y0247204D01*
X0167361Y0246470D02*
X0166627Y0247204D01*
X0165159Y0247204D01*
X0164425Y0246470D01*
X0165159Y0237204D02*
X0164425Y0236470D01*
X0164425Y0233534D01*
X0165159Y0232800D01*
X0166627Y0232800D01*
X0167361Y0233534D01*
X0169029Y0233534D02*
X0169029Y0235002D01*
X0171231Y0235002D01*
X0171965Y0234268D01*
X0171965Y0233534D01*
X0171231Y0232800D01*
X0169763Y0232800D01*
X0169029Y0233534D01*
X0169029Y0235002D02*
X0170497Y0236470D01*
X0171965Y0237204D01*
X0167361Y0236470D02*
X0166627Y0237204D01*
X0165159Y0237204D01*
X0162757Y0236470D02*
X0162757Y0235002D01*
X0162023Y0234268D01*
X0159822Y0234268D01*
X0159822Y0232800D02*
X0159822Y0237204D01*
X0162023Y0237204D01*
X0162757Y0236470D01*
X0162023Y0227204D02*
X0162757Y0226470D01*
X0162757Y0225002D01*
X0162023Y0224268D01*
X0159822Y0224268D01*
X0159822Y0222800D02*
X0159822Y0227204D01*
X0162023Y0227204D01*
X0164425Y0226470D02*
X0164425Y0223534D01*
X0165159Y0222800D01*
X0166627Y0222800D01*
X0167361Y0223534D01*
X0169029Y0223534D02*
X0171965Y0226470D01*
X0171965Y0227204D01*
X0169029Y0227204D01*
X0167361Y0226470D02*
X0166627Y0227204D01*
X0165159Y0227204D01*
X0164425Y0226470D01*
X0169029Y0223534D02*
X0169029Y0222800D01*
X0166627Y0217204D02*
X0164425Y0217204D01*
X0164425Y0212800D01*
X0166627Y0212800D01*
X0167361Y0213534D01*
X0167361Y0216470D01*
X0166627Y0217204D01*
X0169029Y0215002D02*
X0169029Y0213534D01*
X0169763Y0212800D01*
X0171231Y0212800D01*
X0171965Y0213534D01*
X0171965Y0214268D01*
X0171231Y0215002D01*
X0169029Y0215002D01*
X0170497Y0216470D01*
X0171965Y0217204D01*
X0179822Y0217204D02*
X0179822Y0212800D01*
X0179822Y0214268D02*
X0182023Y0214268D01*
X0182757Y0215002D01*
X0182757Y0216470D01*
X0182023Y0217204D01*
X0179822Y0217204D01*
X0184425Y0215736D02*
X0184425Y0212800D01*
X0184425Y0215002D02*
X0187361Y0215002D01*
X0187361Y0215736D02*
X0187361Y0212800D01*
X0189029Y0215002D02*
X0191965Y0215002D01*
X0191231Y0217204D02*
X0189029Y0215002D01*
X0187361Y0215736D02*
X0185893Y0217204D01*
X0184425Y0215736D01*
X0191231Y0217204D02*
X0191231Y0212800D01*
X0191231Y0207204D02*
X0191965Y0206470D01*
X0191965Y0205736D01*
X0191231Y0205002D01*
X0191965Y0204268D01*
X0191965Y0203534D01*
X0191231Y0202800D01*
X0189763Y0202800D01*
X0189029Y0203534D01*
X0187361Y0202800D02*
X0187361Y0205736D01*
X0185893Y0207204D01*
X0184425Y0205736D01*
X0184425Y0202800D01*
X0184425Y0205002D02*
X0187361Y0205002D01*
X0189029Y0206470D02*
X0189763Y0207204D01*
X0191231Y0207204D01*
X0191231Y0205002D02*
X0190497Y0205002D01*
X0182757Y0205002D02*
X0182023Y0204268D01*
X0179822Y0204268D01*
X0179822Y0202800D02*
X0179822Y0207204D01*
X0182023Y0207204D01*
X0182757Y0206470D01*
X0182757Y0205002D01*
X0182023Y0197204D02*
X0179822Y0197204D01*
X0179822Y0192800D01*
X0179822Y0194268D02*
X0182023Y0194268D01*
X0182757Y0195002D01*
X0182757Y0196470D01*
X0182023Y0197204D01*
X0184425Y0195736D02*
X0185893Y0197204D01*
X0187361Y0195736D01*
X0187361Y0192800D01*
X0189029Y0192800D02*
X0191965Y0195736D01*
X0191965Y0196470D01*
X0191231Y0197204D01*
X0189763Y0197204D01*
X0189029Y0196470D01*
X0187361Y0195002D02*
X0184425Y0195002D01*
X0184425Y0195736D02*
X0184425Y0192800D01*
X0189029Y0192800D02*
X0191965Y0192800D01*
X0171965Y0195002D02*
X0169029Y0195002D01*
X0171231Y0197204D01*
X0171231Y0192800D01*
X0165893Y0195002D02*
X0164425Y0195002D01*
X0162757Y0195002D02*
X0162023Y0194268D01*
X0159822Y0194268D01*
X0159822Y0192800D02*
X0159822Y0197204D01*
X0162023Y0197204D01*
X0162757Y0196470D01*
X0162757Y0195002D01*
X0164425Y0192800D02*
X0164425Y0197204D01*
X0167361Y0197204D01*
X0166627Y0202800D02*
X0167361Y0203534D01*
X0167361Y0206470D01*
X0166627Y0207204D01*
X0164425Y0207204D01*
X0164425Y0202800D01*
X0166627Y0202800D01*
X0169029Y0202800D02*
X0169029Y0203534D01*
X0171965Y0206470D01*
X0171965Y0207204D01*
X0169029Y0207204D01*
X0162757Y0206470D02*
X0162757Y0205002D01*
X0162023Y0204268D01*
X0159822Y0204268D01*
X0159822Y0202800D02*
X0159822Y0207204D01*
X0162023Y0207204D01*
X0162757Y0206470D01*
X0159822Y0212800D02*
X0159822Y0217204D01*
X0162023Y0217204D01*
X0162757Y0216470D01*
X0162757Y0215002D01*
X0162023Y0214268D01*
X0159822Y0214268D01*
X0179822Y0222800D02*
X0179822Y0227204D01*
X0182023Y0227204D01*
X0182757Y0226470D01*
X0182757Y0225002D01*
X0182023Y0224268D01*
X0179822Y0224268D01*
X0184425Y0225002D02*
X0186627Y0225002D01*
X0187361Y0224268D01*
X0187361Y0223534D01*
X0186627Y0222800D01*
X0184425Y0222800D01*
X0184425Y0227204D01*
X0186627Y0227204D01*
X0187361Y0226470D01*
X0187361Y0225736D01*
X0186627Y0225002D01*
X0189029Y0225002D02*
X0191231Y0225002D01*
X0191965Y0224268D01*
X0191965Y0223534D01*
X0191231Y0222800D01*
X0189763Y0222800D01*
X0189029Y0223534D01*
X0189029Y0225002D01*
X0190497Y0226470D01*
X0191965Y0227204D01*
X0189029Y0232800D02*
X0189029Y0233534D01*
X0191965Y0236470D01*
X0191965Y0237204D01*
X0189029Y0237204D01*
X0187361Y0236470D02*
X0187361Y0235736D01*
X0186627Y0235002D01*
X0184425Y0235002D01*
X0182757Y0235002D02*
X0182023Y0234268D01*
X0179822Y0234268D01*
X0179822Y0232800D02*
X0179822Y0237204D01*
X0182023Y0237204D01*
X0182757Y0236470D01*
X0182757Y0235002D01*
X0184425Y0237204D02*
X0186627Y0237204D01*
X0187361Y0236470D01*
X0186627Y0235002D02*
X0187361Y0234268D01*
X0187361Y0233534D01*
X0186627Y0232800D01*
X0184425Y0232800D01*
X0184425Y0237204D01*
X0185159Y0242800D02*
X0184425Y0243534D01*
X0185159Y0242800D02*
X0186627Y0242800D01*
X0187361Y0243534D01*
X0187361Y0244268D01*
X0186627Y0245002D01*
X0185159Y0245002D01*
X0184425Y0245736D01*
X0184425Y0246470D01*
X0185159Y0247204D01*
X0186627Y0247204D01*
X0187361Y0246470D01*
X0189029Y0247204D02*
X0191965Y0247204D01*
X0190497Y0247204D02*
X0190497Y0242800D01*
X0182757Y0242800D02*
X0181289Y0244268D01*
X0182023Y0244268D02*
X0179822Y0244268D01*
X0179822Y0242800D02*
X0179822Y0247204D01*
X0182023Y0247204D01*
X0182757Y0246470D01*
X0182757Y0245002D01*
X0182023Y0244268D01*
X0179822Y0252800D02*
X0179822Y0257204D01*
X0182023Y0257204D01*
X0182757Y0256470D01*
X0182757Y0255002D01*
X0182023Y0254268D01*
X0179822Y0254268D01*
X0184425Y0255002D02*
X0185893Y0255002D01*
X0184425Y0257204D02*
X0187361Y0257204D01*
X0189029Y0256470D02*
X0189763Y0257204D01*
X0191231Y0257204D01*
X0191965Y0256470D01*
X0189029Y0253534D01*
X0189763Y0252800D01*
X0191231Y0252800D01*
X0191965Y0253534D01*
X0191965Y0256470D01*
X0189029Y0256470D02*
X0189029Y0253534D01*
X0184425Y0252800D02*
X0184425Y0257204D01*
X0184425Y0262800D02*
X0187361Y0262800D01*
X0189029Y0263534D02*
X0191965Y0266470D01*
X0191965Y0263534D01*
X0191231Y0262800D01*
X0189763Y0262800D01*
X0189029Y0263534D01*
X0189029Y0266470D01*
X0189763Y0267204D01*
X0191231Y0267204D01*
X0191965Y0266470D01*
X0187361Y0267204D02*
X0184425Y0267204D01*
X0184425Y0262800D01*
X0184425Y0265002D02*
X0185893Y0265002D01*
X0182757Y0265002D02*
X0182023Y0264268D01*
X0179822Y0264268D01*
X0179822Y0262800D02*
X0179822Y0267204D01*
X0182023Y0267204D01*
X0182757Y0266470D01*
X0182757Y0265002D01*
X0183925Y0272800D02*
X0186127Y0272800D01*
X0186861Y0273534D01*
X0186861Y0274268D01*
X0186127Y0275002D01*
X0183925Y0275002D01*
X0182257Y0275002D02*
X0181523Y0274268D01*
X0179322Y0274268D01*
X0179322Y0272800D02*
X0179322Y0277204D01*
X0181523Y0277204D01*
X0182257Y0276470D01*
X0182257Y0275002D01*
X0183925Y0272800D02*
X0183925Y0277204D01*
X0186127Y0277204D01*
X0186861Y0276470D01*
X0186861Y0275736D01*
X0186127Y0275002D01*
X0188529Y0276470D02*
X0189263Y0277204D01*
X0190731Y0277204D01*
X0191465Y0276470D01*
X0191465Y0275736D01*
X0188529Y0272800D01*
X0191465Y0272800D01*
X0113333Y0329500D02*
X0064333Y0329500D01*
X0064333Y0333000D01*
X0058333Y0333000D01*
X0058333Y0329500D01*
X0050833Y0329500D01*
X0050833Y0370500D01*
X0058333Y0370500D01*
X0058333Y0367000D01*
X0064333Y0367000D01*
X0064333Y0370500D01*
X0113333Y0370500D01*
X0113333Y0329500D01*
X0108333Y0339268D02*
X0108333Y0340936D01*
X0108333Y0340102D02*
X0103329Y0340102D01*
X0103329Y0339268D02*
X0103329Y0340936D01*
X0105831Y0347862D02*
X0105831Y0351199D01*
X0104163Y0358175D02*
X0107499Y0358175D01*
X0108333Y0359009D01*
X0108333Y0360677D01*
X0107499Y0361511D01*
X0104163Y0361511D01*
X0103329Y0360677D01*
X0103329Y0359009D01*
X0104163Y0358175D01*
X0057233Y0350000D02*
X0057235Y0350174D01*
X0057242Y0350348D01*
X0057252Y0350522D01*
X0057267Y0350696D01*
X0057286Y0350869D01*
X0057310Y0351042D01*
X0057338Y0351214D01*
X0057369Y0351385D01*
X0057406Y0351556D01*
X0057446Y0351725D01*
X0057490Y0351894D01*
X0057539Y0352061D01*
X0057591Y0352227D01*
X0057648Y0352392D01*
X0057709Y0352555D01*
X0057773Y0352717D01*
X0057842Y0352877D01*
X0057915Y0353036D01*
X0057991Y0353192D01*
X0058071Y0353347D01*
X0058155Y0353500D01*
X0058243Y0353650D01*
X0058335Y0353798D01*
X0058430Y0353945D01*
X0058528Y0354088D01*
X0058630Y0354229D01*
X0058736Y0354368D01*
X0058845Y0354504D01*
X0058957Y0354638D01*
X0059072Y0354768D01*
X0059191Y0354896D01*
X0059313Y0355020D01*
X0059437Y0355142D01*
X0059565Y0355261D01*
X0059695Y0355376D01*
X0059829Y0355488D01*
X0059965Y0355597D01*
X0060104Y0355703D01*
X0060245Y0355805D01*
X0060388Y0355903D01*
X0060535Y0355998D01*
X0060683Y0356090D01*
X0060833Y0356178D01*
X0060986Y0356262D01*
X0061141Y0356342D01*
X0061297Y0356418D01*
X0061456Y0356491D01*
X0061616Y0356560D01*
X0061778Y0356624D01*
X0061941Y0356685D01*
X0062106Y0356742D01*
X0062272Y0356794D01*
X0062439Y0356843D01*
X0062608Y0356887D01*
X0062777Y0356927D01*
X0062948Y0356964D01*
X0063119Y0356995D01*
X0063291Y0357023D01*
X0063464Y0357047D01*
X0063637Y0357066D01*
X0063811Y0357081D01*
X0063985Y0357091D01*
X0064159Y0357098D01*
X0064333Y0357100D01*
X0064507Y0357098D01*
X0064681Y0357091D01*
X0064855Y0357081D01*
X0065029Y0357066D01*
X0065202Y0357047D01*
X0065375Y0357023D01*
X0065547Y0356995D01*
X0065718Y0356964D01*
X0065889Y0356927D01*
X0066058Y0356887D01*
X0066227Y0356843D01*
X0066394Y0356794D01*
X0066560Y0356742D01*
X0066725Y0356685D01*
X0066888Y0356624D01*
X0067050Y0356560D01*
X0067210Y0356491D01*
X0067369Y0356418D01*
X0067525Y0356342D01*
X0067680Y0356262D01*
X0067833Y0356178D01*
X0067983Y0356090D01*
X0068131Y0355998D01*
X0068278Y0355903D01*
X0068421Y0355805D01*
X0068562Y0355703D01*
X0068701Y0355597D01*
X0068837Y0355488D01*
X0068971Y0355376D01*
X0069101Y0355261D01*
X0069229Y0355142D01*
X0069353Y0355020D01*
X0069475Y0354896D01*
X0069594Y0354768D01*
X0069709Y0354638D01*
X0069821Y0354504D01*
X0069930Y0354368D01*
X0070036Y0354229D01*
X0070138Y0354088D01*
X0070236Y0353945D01*
X0070331Y0353798D01*
X0070423Y0353650D01*
X0070511Y0353500D01*
X0070595Y0353347D01*
X0070675Y0353192D01*
X0070751Y0353036D01*
X0070824Y0352877D01*
X0070893Y0352717D01*
X0070957Y0352555D01*
X0071018Y0352392D01*
X0071075Y0352227D01*
X0071127Y0352061D01*
X0071176Y0351894D01*
X0071220Y0351725D01*
X0071260Y0351556D01*
X0071297Y0351385D01*
X0071328Y0351214D01*
X0071356Y0351042D01*
X0071380Y0350869D01*
X0071399Y0350696D01*
X0071414Y0350522D01*
X0071424Y0350348D01*
X0071431Y0350174D01*
X0071433Y0350000D01*
X0071431Y0349826D01*
X0071424Y0349652D01*
X0071414Y0349478D01*
X0071399Y0349304D01*
X0071380Y0349131D01*
X0071356Y0348958D01*
X0071328Y0348786D01*
X0071297Y0348615D01*
X0071260Y0348444D01*
X0071220Y0348275D01*
X0071176Y0348106D01*
X0071127Y0347939D01*
X0071075Y0347773D01*
X0071018Y0347608D01*
X0070957Y0347445D01*
X0070893Y0347283D01*
X0070824Y0347123D01*
X0070751Y0346964D01*
X0070675Y0346808D01*
X0070595Y0346653D01*
X0070511Y0346500D01*
X0070423Y0346350D01*
X0070331Y0346202D01*
X0070236Y0346055D01*
X0070138Y0345912D01*
X0070036Y0345771D01*
X0069930Y0345632D01*
X0069821Y0345496D01*
X0069709Y0345362D01*
X0069594Y0345232D01*
X0069475Y0345104D01*
X0069353Y0344980D01*
X0069229Y0344858D01*
X0069101Y0344739D01*
X0068971Y0344624D01*
X0068837Y0344512D01*
X0068701Y0344403D01*
X0068562Y0344297D01*
X0068421Y0344195D01*
X0068278Y0344097D01*
X0068131Y0344002D01*
X0067983Y0343910D01*
X0067833Y0343822D01*
X0067680Y0343738D01*
X0067525Y0343658D01*
X0067369Y0343582D01*
X0067210Y0343509D01*
X0067050Y0343440D01*
X0066888Y0343376D01*
X0066725Y0343315D01*
X0066560Y0343258D01*
X0066394Y0343206D01*
X0066227Y0343157D01*
X0066058Y0343113D01*
X0065889Y0343073D01*
X0065718Y0343036D01*
X0065547Y0343005D01*
X0065375Y0342977D01*
X0065202Y0342953D01*
X0065029Y0342934D01*
X0064855Y0342919D01*
X0064681Y0342909D01*
X0064507Y0342902D01*
X0064333Y0342900D01*
X0064159Y0342902D01*
X0063985Y0342909D01*
X0063811Y0342919D01*
X0063637Y0342934D01*
X0063464Y0342953D01*
X0063291Y0342977D01*
X0063119Y0343005D01*
X0062948Y0343036D01*
X0062777Y0343073D01*
X0062608Y0343113D01*
X0062439Y0343157D01*
X0062272Y0343206D01*
X0062106Y0343258D01*
X0061941Y0343315D01*
X0061778Y0343376D01*
X0061616Y0343440D01*
X0061456Y0343509D01*
X0061297Y0343582D01*
X0061141Y0343658D01*
X0060986Y0343738D01*
X0060833Y0343822D01*
X0060683Y0343910D01*
X0060535Y0344002D01*
X0060388Y0344097D01*
X0060245Y0344195D01*
X0060104Y0344297D01*
X0059965Y0344403D01*
X0059829Y0344512D01*
X0059695Y0344624D01*
X0059565Y0344739D01*
X0059437Y0344858D01*
X0059313Y0344980D01*
X0059191Y0345104D01*
X0059072Y0345232D01*
X0058957Y0345362D01*
X0058845Y0345496D01*
X0058736Y0345632D01*
X0058630Y0345771D01*
X0058528Y0345912D01*
X0058430Y0346055D01*
X0058335Y0346202D01*
X0058243Y0346350D01*
X0058155Y0346500D01*
X0058071Y0346653D01*
X0057991Y0346808D01*
X0057915Y0346964D01*
X0057842Y0347123D01*
X0057773Y0347283D01*
X0057709Y0347445D01*
X0057648Y0347608D01*
X0057591Y0347773D01*
X0057539Y0347939D01*
X0057490Y0348106D01*
X0057446Y0348275D01*
X0057406Y0348444D01*
X0057369Y0348615D01*
X0057338Y0348786D01*
X0057310Y0348958D01*
X0057286Y0349131D01*
X0057267Y0349304D01*
X0057252Y0349478D01*
X0057242Y0349652D01*
X0057235Y0349826D01*
X0057233Y0350000D01*
X0045835Y0297204D02*
X0046569Y0296470D01*
X0046569Y0295736D01*
X0045835Y0295002D01*
X0046569Y0294268D01*
X0046569Y0293534D01*
X0045835Y0292800D01*
X0044367Y0292800D01*
X0043633Y0293534D01*
X0045101Y0295002D02*
X0045835Y0295002D01*
X0045835Y0297204D02*
X0044367Y0297204D01*
X0043633Y0296470D01*
X0041965Y0297204D02*
X0040497Y0297204D01*
X0041231Y0297204D02*
X0041231Y0293534D01*
X0040497Y0292800D01*
X0039763Y0292800D01*
X0039029Y0293534D01*
X0036569Y0292800D02*
X0033633Y0292800D01*
X0035101Y0292800D02*
X0035101Y0297204D01*
X0033633Y0295736D01*
X0031965Y0297204D02*
X0030497Y0297204D01*
X0031231Y0297204D02*
X0031231Y0293534D01*
X0030497Y0292800D01*
X0029763Y0292800D01*
X0029029Y0293534D01*
X0053633Y0286470D02*
X0054367Y0287204D01*
X0055835Y0287204D01*
X0056569Y0286470D01*
X0056569Y0285736D01*
X0055835Y0285002D01*
X0056569Y0284268D01*
X0056569Y0283534D01*
X0055835Y0282800D01*
X0054367Y0282800D01*
X0053633Y0283534D01*
X0055101Y0285002D02*
X0055835Y0285002D01*
X0058237Y0283534D02*
X0058971Y0283534D01*
X0058971Y0282800D01*
X0058237Y0282800D01*
X0058237Y0283534D01*
X0060539Y0283534D02*
X0061273Y0282800D01*
X0062741Y0282800D01*
X0063475Y0283534D01*
X0063475Y0284268D01*
X0062741Y0285002D01*
X0062007Y0285002D01*
X0062741Y0285002D02*
X0063475Y0285736D01*
X0063475Y0286470D01*
X0062741Y0287204D01*
X0061273Y0287204D01*
X0060539Y0286470D01*
X0065143Y0287204D02*
X0065143Y0284268D01*
X0066611Y0282800D01*
X0068079Y0284268D01*
X0068079Y0287204D01*
X0074133Y0287204D02*
X0074133Y0284268D01*
X0075601Y0282800D01*
X0077069Y0284268D01*
X0077069Y0287204D01*
X0078737Y0287204D02*
X0078737Y0282800D01*
X0080939Y0282800D01*
X0081673Y0283534D01*
X0081673Y0284268D01*
X0080939Y0285002D01*
X0078737Y0285002D01*
X0078737Y0287204D02*
X0080939Y0287204D01*
X0081673Y0286470D01*
X0081673Y0285736D01*
X0080939Y0285002D01*
X0083341Y0283534D02*
X0084075Y0282800D01*
X0085543Y0282800D01*
X0086277Y0283534D01*
X0086277Y0287204D01*
X0087945Y0286470D02*
X0087945Y0285736D01*
X0088679Y0285002D01*
X0090147Y0285002D01*
X0090881Y0284268D01*
X0090881Y0283534D01*
X0090147Y0282800D01*
X0088679Y0282800D01*
X0087945Y0283534D01*
X0087945Y0286470D02*
X0088679Y0287204D01*
X0090147Y0287204D01*
X0090881Y0286470D01*
X0083341Y0287204D02*
X0083341Y0283534D01*
X0082841Y0277204D02*
X0085043Y0277204D01*
X0085777Y0276470D01*
X0085777Y0273534D01*
X0085043Y0272800D01*
X0082841Y0272800D01*
X0082841Y0277204D01*
X0081173Y0277204D02*
X0081173Y0272800D01*
X0078237Y0277204D01*
X0078237Y0272800D01*
X0076569Y0273534D02*
X0076569Y0275002D01*
X0075101Y0275002D01*
X0073633Y0276470D02*
X0073633Y0273534D01*
X0074367Y0272800D01*
X0075835Y0272800D01*
X0076569Y0273534D01*
X0076569Y0276470D02*
X0075835Y0277204D01*
X0074367Y0277204D01*
X0073633Y0276470D01*
X0065777Y0277204D02*
X0062841Y0277204D01*
X0062841Y0275002D01*
X0064309Y0275736D01*
X0065043Y0275736D01*
X0065777Y0275002D01*
X0065777Y0273534D01*
X0065043Y0272800D01*
X0063575Y0272800D01*
X0062841Y0273534D01*
X0061173Y0273534D02*
X0060439Y0272800D01*
X0058237Y0272800D01*
X0058237Y0277204D01*
X0060439Y0277204D01*
X0061173Y0276470D01*
X0061173Y0275736D01*
X0060439Y0275002D01*
X0058237Y0275002D01*
X0056569Y0275002D02*
X0055835Y0274268D01*
X0053633Y0274268D01*
X0053633Y0272800D02*
X0053633Y0277204D01*
X0055835Y0277204D01*
X0056569Y0276470D01*
X0056569Y0275002D01*
X0060439Y0275002D02*
X0061173Y0274268D01*
X0061173Y0273534D01*
X0060439Y0267204D02*
X0058237Y0267204D01*
X0058237Y0262800D01*
X0060439Y0262800D01*
X0061173Y0263534D01*
X0061173Y0264268D01*
X0060439Y0265002D01*
X0058237Y0265002D01*
X0056569Y0265002D02*
X0055835Y0264268D01*
X0053633Y0264268D01*
X0053633Y0262800D02*
X0053633Y0267204D01*
X0055835Y0267204D01*
X0056569Y0266470D01*
X0056569Y0265002D01*
X0060439Y0265002D02*
X0061173Y0265736D01*
X0061173Y0266470D01*
X0060439Y0267204D01*
X0062841Y0266470D02*
X0063575Y0267204D01*
X0065043Y0267204D01*
X0065777Y0266470D01*
X0062841Y0263534D01*
X0063575Y0262800D01*
X0065043Y0262800D01*
X0065777Y0263534D01*
X0065777Y0266470D01*
X0062841Y0266470D02*
X0062841Y0263534D01*
X0064309Y0257204D02*
X0064309Y0252800D01*
X0062841Y0252800D02*
X0065777Y0252800D01*
X0062841Y0255736D02*
X0064309Y0257204D01*
X0061173Y0256470D02*
X0061173Y0255736D01*
X0060439Y0255002D01*
X0058237Y0255002D01*
X0056569Y0255002D02*
X0055835Y0254268D01*
X0053633Y0254268D01*
X0053633Y0252800D02*
X0053633Y0257204D01*
X0055835Y0257204D01*
X0056569Y0256470D01*
X0056569Y0255002D01*
X0058237Y0252800D02*
X0058237Y0257204D01*
X0060439Y0257204D01*
X0061173Y0256470D01*
X0060439Y0255002D02*
X0061173Y0254268D01*
X0061173Y0253534D01*
X0060439Y0252800D01*
X0058237Y0252800D01*
X0058237Y0247204D02*
X0058237Y0242800D01*
X0061173Y0242800D01*
X0059705Y0245002D02*
X0058237Y0245002D01*
X0056569Y0245002D02*
X0055835Y0244268D01*
X0053633Y0244268D01*
X0053633Y0242800D02*
X0053633Y0247204D01*
X0055835Y0247204D01*
X0056569Y0246470D01*
X0056569Y0245002D01*
X0058237Y0247204D02*
X0061173Y0247204D01*
X0062841Y0245002D02*
X0065777Y0245002D01*
X0065043Y0242800D02*
X0065043Y0247204D01*
X0062841Y0245002D01*
X0062841Y0237204D02*
X0062841Y0235002D01*
X0064309Y0235736D01*
X0065043Y0235736D01*
X0065777Y0235002D01*
X0065777Y0233534D01*
X0065043Y0232800D01*
X0063575Y0232800D01*
X0062841Y0233534D01*
X0061173Y0232800D02*
X0058237Y0232800D01*
X0058237Y0237204D01*
X0061173Y0237204D01*
X0062841Y0237204D02*
X0065777Y0237204D01*
X0059705Y0235002D02*
X0058237Y0235002D01*
X0056569Y0235002D02*
X0055835Y0234268D01*
X0053633Y0234268D01*
X0053633Y0232800D02*
X0053633Y0237204D01*
X0055835Y0237204D01*
X0056569Y0236470D01*
X0056569Y0235002D01*
X0055835Y0227204D02*
X0056569Y0226470D01*
X0056569Y0225002D01*
X0055835Y0224268D01*
X0053633Y0224268D01*
X0053633Y0222800D02*
X0053633Y0227204D01*
X0055835Y0227204D01*
X0058237Y0227204D02*
X0058237Y0222800D01*
X0060439Y0222800D01*
X0061173Y0223534D01*
X0061173Y0224268D01*
X0060439Y0225002D01*
X0058237Y0225002D01*
X0058237Y0227204D02*
X0060439Y0227204D01*
X0061173Y0226470D01*
X0061173Y0225736D01*
X0060439Y0225002D01*
X0062841Y0225002D02*
X0065777Y0225002D01*
X0065043Y0222800D02*
X0065043Y0227204D01*
X0062841Y0225002D01*
X0062841Y0217204D02*
X0062841Y0215002D01*
X0064309Y0215736D01*
X0065043Y0215736D01*
X0065777Y0215002D01*
X0065777Y0213534D01*
X0065043Y0212800D01*
X0063575Y0212800D01*
X0062841Y0213534D01*
X0061173Y0212800D02*
X0061173Y0215736D01*
X0059705Y0217204D01*
X0058237Y0215736D01*
X0058237Y0212800D01*
X0058237Y0215002D02*
X0061173Y0215002D01*
X0062841Y0217204D02*
X0065777Y0217204D01*
X0073633Y0217204D02*
X0073633Y0212800D01*
X0073633Y0214268D02*
X0075835Y0214268D01*
X0076569Y0215002D01*
X0076569Y0216470D01*
X0075835Y0217204D01*
X0073633Y0217204D01*
X0078237Y0217204D02*
X0078237Y0212800D01*
X0081173Y0212800D01*
X0082841Y0212800D02*
X0085777Y0215736D01*
X0085777Y0216470D01*
X0085043Y0217204D01*
X0083575Y0217204D01*
X0082841Y0216470D01*
X0081173Y0217204D02*
X0078237Y0217204D01*
X0078237Y0215002D02*
X0079705Y0215002D01*
X0082841Y0212800D02*
X0085777Y0212800D01*
X0085043Y0207204D02*
X0085777Y0206470D01*
X0085777Y0205736D01*
X0085043Y0205002D01*
X0085777Y0204268D01*
X0085777Y0203534D01*
X0085043Y0202800D01*
X0083575Y0202800D01*
X0082841Y0203534D01*
X0081173Y0202800D02*
X0078237Y0202800D01*
X0078237Y0207204D01*
X0081173Y0207204D01*
X0082841Y0206470D02*
X0083575Y0207204D01*
X0085043Y0207204D01*
X0085043Y0205002D02*
X0084309Y0205002D01*
X0079705Y0205002D02*
X0078237Y0205002D01*
X0076569Y0205002D02*
X0076569Y0206470D01*
X0075835Y0207204D01*
X0073633Y0207204D01*
X0073633Y0202800D01*
X0073633Y0204268D02*
X0075835Y0204268D01*
X0076569Y0205002D01*
X0075835Y0197204D02*
X0076569Y0196470D01*
X0076569Y0195002D01*
X0075835Y0194268D01*
X0073633Y0194268D01*
X0073633Y0192800D02*
X0073633Y0197204D01*
X0075835Y0197204D01*
X0078237Y0197204D02*
X0078237Y0192800D01*
X0078237Y0195002D02*
X0079705Y0195002D01*
X0078237Y0197204D02*
X0081173Y0197204D01*
X0082841Y0195736D02*
X0084309Y0197204D01*
X0084309Y0192800D01*
X0082841Y0192800D02*
X0085777Y0192800D01*
X0065777Y0196470D02*
X0062841Y0193534D01*
X0062841Y0192800D01*
X0061173Y0192800D02*
X0061173Y0195736D01*
X0059705Y0197204D01*
X0058237Y0195736D01*
X0058237Y0192800D01*
X0058237Y0195002D02*
X0061173Y0195002D01*
X0062841Y0197204D02*
X0065777Y0197204D01*
X0065777Y0196470D01*
X0065043Y0202800D02*
X0063575Y0202800D01*
X0062841Y0203534D01*
X0062841Y0205002D01*
X0065043Y0205002D01*
X0065777Y0204268D01*
X0065777Y0203534D01*
X0065043Y0202800D01*
X0062841Y0205002D02*
X0064309Y0206470D01*
X0065777Y0207204D01*
X0061173Y0205736D02*
X0061173Y0202800D01*
X0061173Y0205002D02*
X0058237Y0205002D01*
X0058237Y0205736D02*
X0059705Y0207204D01*
X0061173Y0205736D01*
X0058237Y0205736D02*
X0058237Y0202800D01*
X0056569Y0205002D02*
X0055835Y0204268D01*
X0053633Y0204268D01*
X0053633Y0202800D02*
X0053633Y0207204D01*
X0055835Y0207204D01*
X0056569Y0206470D01*
X0056569Y0205002D01*
X0055835Y0197204D02*
X0056569Y0196470D01*
X0056569Y0195002D01*
X0055835Y0194268D01*
X0053633Y0194268D01*
X0053633Y0192800D02*
X0053633Y0197204D01*
X0055835Y0197204D01*
X0053633Y0212800D02*
X0053633Y0217204D01*
X0055835Y0217204D01*
X0056569Y0216470D01*
X0056569Y0215002D01*
X0055835Y0214268D01*
X0053633Y0214268D01*
X0073633Y0222800D02*
X0073633Y0227204D01*
X0075835Y0227204D01*
X0076569Y0226470D01*
X0076569Y0225002D01*
X0075835Y0224268D01*
X0073633Y0224268D01*
X0078237Y0225002D02*
X0079705Y0225002D01*
X0078237Y0227204D02*
X0078237Y0222800D01*
X0081173Y0222800D01*
X0082841Y0222800D02*
X0085777Y0222800D01*
X0084309Y0222800D02*
X0084309Y0227204D01*
X0082841Y0225736D01*
X0081173Y0227204D02*
X0078237Y0227204D01*
X0078237Y0232800D02*
X0080439Y0232800D01*
X0081173Y0233534D01*
X0081173Y0236470D01*
X0080439Y0237204D01*
X0078237Y0237204D01*
X0078237Y0232800D01*
X0076569Y0235002D02*
X0075835Y0234268D01*
X0073633Y0234268D01*
X0073633Y0232800D02*
X0073633Y0237204D01*
X0075835Y0237204D01*
X0076569Y0236470D01*
X0076569Y0235002D01*
X0082841Y0236470D02*
X0083575Y0237204D01*
X0085043Y0237204D01*
X0085777Y0236470D01*
X0085777Y0235736D01*
X0085043Y0235002D01*
X0085777Y0234268D01*
X0085777Y0233534D01*
X0085043Y0232800D01*
X0083575Y0232800D01*
X0082841Y0233534D01*
X0084309Y0235002D02*
X0085043Y0235002D01*
X0085777Y0242800D02*
X0082841Y0242800D01*
X0085777Y0245736D01*
X0085777Y0246470D01*
X0085043Y0247204D01*
X0083575Y0247204D01*
X0082841Y0246470D01*
X0081173Y0246470D02*
X0080439Y0247204D01*
X0078237Y0247204D01*
X0078237Y0242800D01*
X0080439Y0242800D01*
X0081173Y0243534D01*
X0081173Y0246470D01*
X0076569Y0246470D02*
X0075835Y0247204D01*
X0073633Y0247204D01*
X0073633Y0242800D01*
X0073633Y0244268D02*
X0075835Y0244268D01*
X0076569Y0245002D01*
X0076569Y0246470D01*
X0078237Y0252800D02*
X0080439Y0252800D01*
X0081173Y0253534D01*
X0081173Y0256470D01*
X0080439Y0257204D01*
X0078237Y0257204D01*
X0078237Y0252800D01*
X0076569Y0255002D02*
X0076569Y0256470D01*
X0075835Y0257204D01*
X0073633Y0257204D01*
X0073633Y0252800D01*
X0073633Y0254268D02*
X0075835Y0254268D01*
X0076569Y0255002D01*
X0082841Y0255736D02*
X0084309Y0257204D01*
X0084309Y0252800D01*
X0082841Y0252800D02*
X0085777Y0252800D01*
X0085043Y0262800D02*
X0083575Y0262800D01*
X0082841Y0263534D01*
X0085777Y0266470D01*
X0085777Y0263534D01*
X0085043Y0262800D01*
X0082841Y0263534D02*
X0082841Y0266470D01*
X0083575Y0267204D01*
X0085043Y0267204D01*
X0085777Y0266470D01*
X0081173Y0266470D02*
X0080439Y0267204D01*
X0078237Y0267204D01*
X0078237Y0262800D01*
X0080439Y0262800D01*
X0081173Y0263534D01*
X0081173Y0266470D01*
X0076569Y0266470D02*
X0076569Y0265002D01*
X0075835Y0264268D01*
X0073633Y0264268D01*
X0073633Y0262800D02*
X0073633Y0267204D01*
X0075835Y0267204D01*
X0076569Y0266470D01*
X0271130Y0158236D02*
X0271864Y0156768D01*
X0273331Y0155300D01*
X0273331Y0157502D01*
X0274065Y0158236D01*
X0274799Y0158236D01*
X0275533Y0157502D01*
X0275533Y0156034D01*
X0274799Y0155300D01*
X0273331Y0155300D01*
X0271130Y0153632D02*
X0271130Y0152164D01*
X0271130Y0152898D02*
X0274799Y0152898D01*
X0275533Y0152164D01*
X0275533Y0151430D01*
X0274799Y0150696D01*
X0281130Y0165300D02*
X0284065Y0165300D01*
X0285533Y0166768D01*
X0284065Y0168236D01*
X0281130Y0168236D01*
X0281864Y0169904D02*
X0284799Y0169904D01*
X0285533Y0170638D01*
X0285533Y0172106D01*
X0284799Y0172840D01*
X0284799Y0174508D02*
X0285533Y0175242D01*
X0285533Y0176710D01*
X0284799Y0177444D01*
X0281864Y0177444D02*
X0281130Y0176710D01*
X0281130Y0175242D01*
X0281864Y0174508D01*
X0284799Y0174508D01*
X0281864Y0172840D02*
X0281130Y0172106D01*
X0281130Y0170638D01*
X0281864Y0169904D01*
X0291130Y0169904D02*
X0295533Y0172840D01*
X0291130Y0172840D01*
X0291130Y0174508D02*
X0291130Y0176710D01*
X0291864Y0177444D01*
X0294799Y0177444D01*
X0295533Y0176710D01*
X0295533Y0174508D01*
X0291130Y0174508D01*
X0291130Y0169904D02*
X0295533Y0169904D01*
X0294799Y0168236D02*
X0293331Y0168236D01*
X0293331Y0166768D01*
X0291864Y0168236D02*
X0291130Y0167502D01*
X0291130Y0166034D01*
X0291864Y0165300D01*
X0294799Y0165300D01*
X0295533Y0166034D01*
X0295533Y0167502D01*
X0294799Y0168236D01*
X0301130Y0167502D02*
X0301130Y0166034D01*
X0301864Y0165300D01*
X0302597Y0165300D01*
X0303331Y0166034D01*
X0303331Y0167502D01*
X0304065Y0168236D01*
X0304799Y0168236D01*
X0305533Y0167502D01*
X0305533Y0166034D01*
X0304799Y0165300D01*
X0301864Y0168236D02*
X0301130Y0167502D01*
X0301864Y0169904D02*
X0304799Y0169904D01*
X0305533Y0170638D01*
X0305533Y0172106D01*
X0304799Y0172840D01*
X0305533Y0174508D02*
X0301130Y0174508D01*
X0301130Y0177444D01*
X0303331Y0175976D02*
X0303331Y0174508D01*
X0305533Y0174508D02*
X0305533Y0177444D01*
X0311130Y0177444D02*
X0311130Y0174508D01*
X0311130Y0175976D02*
X0315533Y0175976D01*
X0314799Y0172840D02*
X0315533Y0172106D01*
X0315533Y0170638D01*
X0314799Y0169904D01*
X0313331Y0170638D02*
X0313331Y0172106D01*
X0314065Y0172840D01*
X0314799Y0172840D01*
X0313331Y0170638D02*
X0312597Y0169904D01*
X0311864Y0169904D01*
X0311130Y0170638D01*
X0311130Y0172106D01*
X0311864Y0172840D01*
X0311864Y0168236D02*
X0313331Y0168236D01*
X0314065Y0167502D01*
X0314065Y0165300D01*
X0314065Y0166768D02*
X0315533Y0168236D01*
X0315533Y0165300D02*
X0311130Y0165300D01*
X0311130Y0167502D01*
X0311864Y0168236D01*
X0321130Y0167502D02*
X0321130Y0165300D01*
X0325533Y0165300D01*
X0325533Y0167502D01*
X0324799Y0168236D01*
X0321864Y0168236D01*
X0321130Y0167502D01*
X0325533Y0169904D02*
X0321130Y0172840D01*
X0321864Y0174508D02*
X0324799Y0174508D01*
X0325533Y0175242D01*
X0325533Y0176710D01*
X0324799Y0177444D01*
X0321864Y0177444D02*
X0321130Y0176710D01*
X0321130Y0175242D01*
X0321864Y0174508D01*
X0331130Y0172840D02*
X0335533Y0172840D01*
X0331130Y0169904D01*
X0335533Y0169904D01*
X0334799Y0168236D02*
X0331864Y0168236D01*
X0331130Y0167502D01*
X0331130Y0165300D01*
X0335533Y0165300D01*
X0335533Y0167502D01*
X0334799Y0168236D01*
X0341130Y0167502D02*
X0341130Y0166034D01*
X0341864Y0165300D01*
X0342597Y0165300D01*
X0343331Y0166034D01*
X0343331Y0167502D01*
X0344065Y0168236D01*
X0344799Y0168236D01*
X0345533Y0167502D01*
X0345533Y0166034D01*
X0344799Y0165300D01*
X0341864Y0168236D02*
X0341130Y0167502D01*
X0341864Y0169904D02*
X0344799Y0169904D01*
X0345533Y0170638D01*
X0345533Y0172106D01*
X0344799Y0172840D01*
X0345533Y0174508D02*
X0345533Y0177444D01*
X0345533Y0179112D02*
X0341130Y0179112D01*
X0343331Y0179846D02*
X0345533Y0182048D01*
X0344065Y0179112D02*
X0341130Y0182048D01*
X0335533Y0182048D02*
X0331130Y0182048D01*
X0332597Y0180580D01*
X0331130Y0179112D01*
X0335533Y0179112D01*
X0335533Y0177444D02*
X0333331Y0174508D01*
X0331130Y0177444D01*
X0331864Y0183716D02*
X0334799Y0183716D01*
X0335533Y0184450D01*
X0335533Y0185918D01*
X0334799Y0186652D01*
X0331864Y0186652D01*
X0331130Y0185918D01*
X0331130Y0184450D01*
X0331864Y0183716D01*
X0331864Y0188320D02*
X0332597Y0188320D01*
X0333331Y0189054D01*
X0333331Y0190521D01*
X0334065Y0191255D01*
X0334799Y0191255D01*
X0335533Y0190521D01*
X0335533Y0189054D01*
X0334799Y0188320D01*
X0331864Y0188320D02*
X0331130Y0189054D01*
X0331130Y0190521D01*
X0331864Y0191255D01*
X0331130Y0192924D02*
X0331130Y0194391D01*
X0331130Y0193658D02*
X0335533Y0193658D01*
X0335533Y0194391D02*
X0335533Y0192924D01*
X0335533Y0195993D02*
X0333331Y0198929D01*
X0331130Y0195993D01*
X0351130Y0176710D02*
X0351864Y0177444D01*
X0354799Y0177444D01*
X0355533Y0176710D01*
X0355533Y0174508D01*
X0351130Y0174508D01*
X0351130Y0176710D01*
X0351130Y0172840D02*
X0351130Y0169904D01*
X0355533Y0169904D01*
X0355533Y0172840D01*
X0353331Y0171372D02*
X0353331Y0169904D01*
X0355533Y0168236D02*
X0355533Y0165300D01*
X0351130Y0165300D01*
X0341864Y0169904D02*
X0341130Y0170638D01*
X0341130Y0172106D01*
X0341864Y0172840D01*
X0341130Y0174508D02*
X0345533Y0174508D01*
X0301864Y0172840D02*
X0301130Y0172106D01*
X0301130Y0170638D01*
X0301864Y0169904D01*
X0278333Y0120000D02*
X0278336Y0120245D01*
X0278345Y0120491D01*
X0278360Y0120736D01*
X0278381Y0120980D01*
X0278408Y0121224D01*
X0278441Y0121467D01*
X0278480Y0121710D01*
X0278525Y0121951D01*
X0278576Y0122191D01*
X0278633Y0122430D01*
X0278695Y0122667D01*
X0278764Y0122903D01*
X0278838Y0123137D01*
X0278918Y0123369D01*
X0279003Y0123599D01*
X0279094Y0123827D01*
X0279191Y0124052D01*
X0279293Y0124276D01*
X0279401Y0124496D01*
X0279514Y0124714D01*
X0279632Y0124929D01*
X0279756Y0125141D01*
X0279884Y0125350D01*
X0280018Y0125556D01*
X0280157Y0125758D01*
X0280301Y0125957D01*
X0280450Y0126152D01*
X0280603Y0126344D01*
X0280761Y0126532D01*
X0280923Y0126716D01*
X0281091Y0126895D01*
X0281262Y0127071D01*
X0281438Y0127242D01*
X0281617Y0127410D01*
X0281801Y0127572D01*
X0281989Y0127730D01*
X0282181Y0127883D01*
X0282376Y0128032D01*
X0282575Y0128176D01*
X0282777Y0128315D01*
X0282983Y0128449D01*
X0283192Y0128577D01*
X0283404Y0128701D01*
X0283619Y0128819D01*
X0283837Y0128932D01*
X0284057Y0129040D01*
X0284281Y0129142D01*
X0284506Y0129239D01*
X0284734Y0129330D01*
X0284964Y0129415D01*
X0285196Y0129495D01*
X0285430Y0129569D01*
X0285666Y0129638D01*
X0285903Y0129700D01*
X0286142Y0129757D01*
X0286382Y0129808D01*
X0286623Y0129853D01*
X0286866Y0129892D01*
X0287109Y0129925D01*
X0287353Y0129952D01*
X0287597Y0129973D01*
X0287842Y0129988D01*
X0288088Y0129997D01*
X0288333Y0130000D01*
X0288578Y0129997D01*
X0288824Y0129988D01*
X0289069Y0129973D01*
X0289313Y0129952D01*
X0289557Y0129925D01*
X0289800Y0129892D01*
X0290043Y0129853D01*
X0290284Y0129808D01*
X0290524Y0129757D01*
X0290763Y0129700D01*
X0291000Y0129638D01*
X0291236Y0129569D01*
X0291470Y0129495D01*
X0291702Y0129415D01*
X0291932Y0129330D01*
X0292160Y0129239D01*
X0292385Y0129142D01*
X0292609Y0129040D01*
X0292829Y0128932D01*
X0293047Y0128819D01*
X0293262Y0128701D01*
X0293474Y0128577D01*
X0293683Y0128449D01*
X0293889Y0128315D01*
X0294091Y0128176D01*
X0294290Y0128032D01*
X0294485Y0127883D01*
X0294677Y0127730D01*
X0294865Y0127572D01*
X0295049Y0127410D01*
X0295228Y0127242D01*
X0295404Y0127071D01*
X0295575Y0126895D01*
X0295743Y0126716D01*
X0295905Y0126532D01*
X0296063Y0126344D01*
X0296216Y0126152D01*
X0296365Y0125957D01*
X0296509Y0125758D01*
X0296648Y0125556D01*
X0296782Y0125350D01*
X0296910Y0125141D01*
X0297034Y0124929D01*
X0297152Y0124714D01*
X0297265Y0124496D01*
X0297373Y0124276D01*
X0297475Y0124052D01*
X0297572Y0123827D01*
X0297663Y0123599D01*
X0297748Y0123369D01*
X0297828Y0123137D01*
X0297902Y0122903D01*
X0297971Y0122667D01*
X0298033Y0122430D01*
X0298090Y0122191D01*
X0298141Y0121951D01*
X0298186Y0121710D01*
X0298225Y0121467D01*
X0298258Y0121224D01*
X0298285Y0120980D01*
X0298306Y0120736D01*
X0298321Y0120491D01*
X0298330Y0120245D01*
X0298333Y0120000D01*
X0298330Y0119755D01*
X0298321Y0119509D01*
X0298306Y0119264D01*
X0298285Y0119020D01*
X0298258Y0118776D01*
X0298225Y0118533D01*
X0298186Y0118290D01*
X0298141Y0118049D01*
X0298090Y0117809D01*
X0298033Y0117570D01*
X0297971Y0117333D01*
X0297902Y0117097D01*
X0297828Y0116863D01*
X0297748Y0116631D01*
X0297663Y0116401D01*
X0297572Y0116173D01*
X0297475Y0115948D01*
X0297373Y0115724D01*
X0297265Y0115504D01*
X0297152Y0115286D01*
X0297034Y0115071D01*
X0296910Y0114859D01*
X0296782Y0114650D01*
X0296648Y0114444D01*
X0296509Y0114242D01*
X0296365Y0114043D01*
X0296216Y0113848D01*
X0296063Y0113656D01*
X0295905Y0113468D01*
X0295743Y0113284D01*
X0295575Y0113105D01*
X0295404Y0112929D01*
X0295228Y0112758D01*
X0295049Y0112590D01*
X0294865Y0112428D01*
X0294677Y0112270D01*
X0294485Y0112117D01*
X0294290Y0111968D01*
X0294091Y0111824D01*
X0293889Y0111685D01*
X0293683Y0111551D01*
X0293474Y0111423D01*
X0293262Y0111299D01*
X0293047Y0111181D01*
X0292829Y0111068D01*
X0292609Y0110960D01*
X0292385Y0110858D01*
X0292160Y0110761D01*
X0291932Y0110670D01*
X0291702Y0110585D01*
X0291470Y0110505D01*
X0291236Y0110431D01*
X0291000Y0110362D01*
X0290763Y0110300D01*
X0290524Y0110243D01*
X0290284Y0110192D01*
X0290043Y0110147D01*
X0289800Y0110108D01*
X0289557Y0110075D01*
X0289313Y0110048D01*
X0289069Y0110027D01*
X0288824Y0110012D01*
X0288578Y0110003D01*
X0288333Y0110000D01*
X0288088Y0110003D01*
X0287842Y0110012D01*
X0287597Y0110027D01*
X0287353Y0110048D01*
X0287109Y0110075D01*
X0286866Y0110108D01*
X0286623Y0110147D01*
X0286382Y0110192D01*
X0286142Y0110243D01*
X0285903Y0110300D01*
X0285666Y0110362D01*
X0285430Y0110431D01*
X0285196Y0110505D01*
X0284964Y0110585D01*
X0284734Y0110670D01*
X0284506Y0110761D01*
X0284281Y0110858D01*
X0284057Y0110960D01*
X0283837Y0111068D01*
X0283619Y0111181D01*
X0283404Y0111299D01*
X0283192Y0111423D01*
X0282983Y0111551D01*
X0282777Y0111685D01*
X0282575Y0111824D01*
X0282376Y0111968D01*
X0282181Y0112117D01*
X0281989Y0112270D01*
X0281801Y0112428D01*
X0281617Y0112590D01*
X0281438Y0112758D01*
X0281262Y0112929D01*
X0281091Y0113105D01*
X0280923Y0113284D01*
X0280761Y0113468D01*
X0280603Y0113656D01*
X0280450Y0113848D01*
X0280301Y0114043D01*
X0280157Y0114242D01*
X0280018Y0114444D01*
X0279884Y0114650D01*
X0279756Y0114859D01*
X0279632Y0115071D01*
X0279514Y0115286D01*
X0279401Y0115504D01*
X0279293Y0115724D01*
X0279191Y0115948D01*
X0279094Y0116173D01*
X0279003Y0116401D01*
X0278918Y0116631D01*
X0278838Y0116863D01*
X0278764Y0117097D01*
X0278695Y0117333D01*
X0278633Y0117570D01*
X0278576Y0117809D01*
X0278525Y0118049D01*
X0278480Y0118290D01*
X0278441Y0118533D01*
X0278408Y0118776D01*
X0278381Y0119020D01*
X0278360Y0119264D01*
X0278345Y0119509D01*
X0278336Y0119755D01*
X0278333Y0120000D01*
X0348333Y0120000D02*
X0348336Y0120245D01*
X0348345Y0120491D01*
X0348360Y0120736D01*
X0348381Y0120980D01*
X0348408Y0121224D01*
X0348441Y0121467D01*
X0348480Y0121710D01*
X0348525Y0121951D01*
X0348576Y0122191D01*
X0348633Y0122430D01*
X0348695Y0122667D01*
X0348764Y0122903D01*
X0348838Y0123137D01*
X0348918Y0123369D01*
X0349003Y0123599D01*
X0349094Y0123827D01*
X0349191Y0124052D01*
X0349293Y0124276D01*
X0349401Y0124496D01*
X0349514Y0124714D01*
X0349632Y0124929D01*
X0349756Y0125141D01*
X0349884Y0125350D01*
X0350018Y0125556D01*
X0350157Y0125758D01*
X0350301Y0125957D01*
X0350450Y0126152D01*
X0350603Y0126344D01*
X0350761Y0126532D01*
X0350923Y0126716D01*
X0351091Y0126895D01*
X0351262Y0127071D01*
X0351438Y0127242D01*
X0351617Y0127410D01*
X0351801Y0127572D01*
X0351989Y0127730D01*
X0352181Y0127883D01*
X0352376Y0128032D01*
X0352575Y0128176D01*
X0352777Y0128315D01*
X0352983Y0128449D01*
X0353192Y0128577D01*
X0353404Y0128701D01*
X0353619Y0128819D01*
X0353837Y0128932D01*
X0354057Y0129040D01*
X0354281Y0129142D01*
X0354506Y0129239D01*
X0354734Y0129330D01*
X0354964Y0129415D01*
X0355196Y0129495D01*
X0355430Y0129569D01*
X0355666Y0129638D01*
X0355903Y0129700D01*
X0356142Y0129757D01*
X0356382Y0129808D01*
X0356623Y0129853D01*
X0356866Y0129892D01*
X0357109Y0129925D01*
X0357353Y0129952D01*
X0357597Y0129973D01*
X0357842Y0129988D01*
X0358088Y0129997D01*
X0358333Y0130000D01*
X0358578Y0129997D01*
X0358824Y0129988D01*
X0359069Y0129973D01*
X0359313Y0129952D01*
X0359557Y0129925D01*
X0359800Y0129892D01*
X0360043Y0129853D01*
X0360284Y0129808D01*
X0360524Y0129757D01*
X0360763Y0129700D01*
X0361000Y0129638D01*
X0361236Y0129569D01*
X0361470Y0129495D01*
X0361702Y0129415D01*
X0361932Y0129330D01*
X0362160Y0129239D01*
X0362385Y0129142D01*
X0362609Y0129040D01*
X0362829Y0128932D01*
X0363047Y0128819D01*
X0363262Y0128701D01*
X0363474Y0128577D01*
X0363683Y0128449D01*
X0363889Y0128315D01*
X0364091Y0128176D01*
X0364290Y0128032D01*
X0364485Y0127883D01*
X0364677Y0127730D01*
X0364865Y0127572D01*
X0365049Y0127410D01*
X0365228Y0127242D01*
X0365404Y0127071D01*
X0365575Y0126895D01*
X0365743Y0126716D01*
X0365905Y0126532D01*
X0366063Y0126344D01*
X0366216Y0126152D01*
X0366365Y0125957D01*
X0366509Y0125758D01*
X0366648Y0125556D01*
X0366782Y0125350D01*
X0366910Y0125141D01*
X0367034Y0124929D01*
X0367152Y0124714D01*
X0367265Y0124496D01*
X0367373Y0124276D01*
X0367475Y0124052D01*
X0367572Y0123827D01*
X0367663Y0123599D01*
X0367748Y0123369D01*
X0367828Y0123137D01*
X0367902Y0122903D01*
X0367971Y0122667D01*
X0368033Y0122430D01*
X0368090Y0122191D01*
X0368141Y0121951D01*
X0368186Y0121710D01*
X0368225Y0121467D01*
X0368258Y0121224D01*
X0368285Y0120980D01*
X0368306Y0120736D01*
X0368321Y0120491D01*
X0368330Y0120245D01*
X0368333Y0120000D01*
X0368330Y0119755D01*
X0368321Y0119509D01*
X0368306Y0119264D01*
X0368285Y0119020D01*
X0368258Y0118776D01*
X0368225Y0118533D01*
X0368186Y0118290D01*
X0368141Y0118049D01*
X0368090Y0117809D01*
X0368033Y0117570D01*
X0367971Y0117333D01*
X0367902Y0117097D01*
X0367828Y0116863D01*
X0367748Y0116631D01*
X0367663Y0116401D01*
X0367572Y0116173D01*
X0367475Y0115948D01*
X0367373Y0115724D01*
X0367265Y0115504D01*
X0367152Y0115286D01*
X0367034Y0115071D01*
X0366910Y0114859D01*
X0366782Y0114650D01*
X0366648Y0114444D01*
X0366509Y0114242D01*
X0366365Y0114043D01*
X0366216Y0113848D01*
X0366063Y0113656D01*
X0365905Y0113468D01*
X0365743Y0113284D01*
X0365575Y0113105D01*
X0365404Y0112929D01*
X0365228Y0112758D01*
X0365049Y0112590D01*
X0364865Y0112428D01*
X0364677Y0112270D01*
X0364485Y0112117D01*
X0364290Y0111968D01*
X0364091Y0111824D01*
X0363889Y0111685D01*
X0363683Y0111551D01*
X0363474Y0111423D01*
X0363262Y0111299D01*
X0363047Y0111181D01*
X0362829Y0111068D01*
X0362609Y0110960D01*
X0362385Y0110858D01*
X0362160Y0110761D01*
X0361932Y0110670D01*
X0361702Y0110585D01*
X0361470Y0110505D01*
X0361236Y0110431D01*
X0361000Y0110362D01*
X0360763Y0110300D01*
X0360524Y0110243D01*
X0360284Y0110192D01*
X0360043Y0110147D01*
X0359800Y0110108D01*
X0359557Y0110075D01*
X0359313Y0110048D01*
X0359069Y0110027D01*
X0358824Y0110012D01*
X0358578Y0110003D01*
X0358333Y0110000D01*
X0358088Y0110003D01*
X0357842Y0110012D01*
X0357597Y0110027D01*
X0357353Y0110048D01*
X0357109Y0110075D01*
X0356866Y0110108D01*
X0356623Y0110147D01*
X0356382Y0110192D01*
X0356142Y0110243D01*
X0355903Y0110300D01*
X0355666Y0110362D01*
X0355430Y0110431D01*
X0355196Y0110505D01*
X0354964Y0110585D01*
X0354734Y0110670D01*
X0354506Y0110761D01*
X0354281Y0110858D01*
X0354057Y0110960D01*
X0353837Y0111068D01*
X0353619Y0111181D01*
X0353404Y0111299D01*
X0353192Y0111423D01*
X0352983Y0111551D01*
X0352777Y0111685D01*
X0352575Y0111824D01*
X0352376Y0111968D01*
X0352181Y0112117D01*
X0351989Y0112270D01*
X0351801Y0112428D01*
X0351617Y0112590D01*
X0351438Y0112758D01*
X0351262Y0112929D01*
X0351091Y0113105D01*
X0350923Y0113284D01*
X0350761Y0113468D01*
X0350603Y0113656D01*
X0350450Y0113848D01*
X0350301Y0114043D01*
X0350157Y0114242D01*
X0350018Y0114444D01*
X0349884Y0114650D01*
X0349756Y0114859D01*
X0349632Y0115071D01*
X0349514Y0115286D01*
X0349401Y0115504D01*
X0349293Y0115724D01*
X0349191Y0115948D01*
X0349094Y0116173D01*
X0349003Y0116401D01*
X0348918Y0116631D01*
X0348838Y0116863D01*
X0348764Y0117097D01*
X0348695Y0117333D01*
X0348633Y0117570D01*
X0348576Y0117809D01*
X0348525Y0118049D01*
X0348480Y0118290D01*
X0348441Y0118533D01*
X0348408Y0118776D01*
X0348381Y0119020D01*
X0348360Y0119264D01*
X0348345Y0119509D01*
X0348336Y0119755D01*
X0348333Y0120000D01*
X0333331Y0279211D02*
X0331130Y0282147D01*
X0341130Y0287618D02*
X0341130Y0289086D01*
X0341864Y0289820D01*
X0343331Y0289086D02*
X0344065Y0289820D01*
X0344799Y0289820D01*
X0345533Y0289086D01*
X0345533Y0287618D01*
X0344799Y0286884D01*
X0343331Y0287618D02*
X0343331Y0289086D01*
X0343331Y0287618D02*
X0342597Y0286884D01*
X0341864Y0286884D01*
X0341130Y0287618D01*
X0341864Y0291488D02*
X0344799Y0291488D01*
X0345533Y0292222D01*
X0345533Y0293690D01*
X0344799Y0294424D01*
X0345533Y0296092D02*
X0345533Y0299028D01*
X0345533Y0300696D02*
X0341130Y0300696D01*
X0343331Y0301430D02*
X0345533Y0303632D01*
X0344065Y0300696D02*
X0341130Y0303632D01*
X0341130Y0296092D02*
X0345533Y0296092D01*
X0341864Y0294424D02*
X0341130Y0293690D01*
X0341130Y0292222D01*
X0341864Y0291488D01*
X0351130Y0291488D02*
X0355533Y0291488D01*
X0355533Y0294424D01*
X0355533Y0296092D02*
X0355533Y0299028D01*
X0355533Y0300696D02*
X0351130Y0300696D01*
X0351130Y0302898D01*
X0351864Y0303632D01*
X0354799Y0303632D01*
X0355533Y0302898D01*
X0355533Y0300696D01*
X0353331Y0297560D02*
X0353331Y0296092D01*
X0351130Y0296092D02*
X0355533Y0296092D01*
X0351130Y0296092D02*
X0351130Y0299028D01*
D14*
X0348333Y0070000D02*
X0348333Y0067000D01*
X0349833Y0063500D01*
X0348333Y0063000D02*
X0348333Y0060000D01*
X0279833Y0063500D02*
X0278333Y0067000D01*
X0278333Y0070000D01*
X0278333Y0063000D02*
X0278333Y0060000D01*
D15*
X0163333Y0319500D02*
X0153333Y0319500D01*
X0153333Y0340500D01*
X0163333Y0340500D01*
X0163333Y0319500D01*
X0160833Y0330000D02*
X0155833Y0330000D01*
X0153333Y0359500D02*
X0163333Y0359500D01*
X0163333Y0380500D01*
X0153333Y0380500D01*
X0153333Y0359500D01*
X0155833Y0370000D02*
X0160833Y0370000D01*
D16*
X0201916Y0046299D02*
X0024751Y0046299D01*
X0024751Y0083701D01*
X0201916Y0083701D01*
X0201916Y0046299D01*
X0255333Y0110000D02*
X0255333Y0130000D01*
X0258333Y0130000D01*
X0258333Y0131000D01*
X0258333Y0130000D02*
X0261333Y0130000D01*
X0261333Y0110000D01*
X0258333Y0110000D01*
X0258333Y0109000D01*
X0258333Y0110000D02*
X0255333Y0110000D01*
X0278333Y0098000D02*
X0298333Y0098000D01*
X0298333Y0095000D01*
X0299333Y0095000D01*
X0298333Y0095000D02*
X0298333Y0092000D01*
X0278333Y0092000D01*
X0278333Y0095000D01*
X0277333Y0095000D01*
X0278333Y0095000D02*
X0278333Y0098000D01*
X0279833Y0077000D02*
X0296833Y0077000D01*
X0300333Y0068929D02*
X0300333Y0061000D01*
X0296833Y0053000D02*
X0279833Y0053000D01*
X0276333Y0061000D02*
X0276333Y0069047D01*
X0281333Y0065000D02*
X0281335Y0065172D01*
X0281341Y0065343D01*
X0281352Y0065515D01*
X0281367Y0065686D01*
X0281386Y0065857D01*
X0281409Y0066027D01*
X0281436Y0066197D01*
X0281468Y0066366D01*
X0281503Y0066534D01*
X0281543Y0066701D01*
X0281587Y0066867D01*
X0281634Y0067032D01*
X0281686Y0067196D01*
X0281742Y0067358D01*
X0281802Y0067519D01*
X0281866Y0067679D01*
X0281934Y0067837D01*
X0282005Y0067993D01*
X0282080Y0068147D01*
X0282160Y0068300D01*
X0282242Y0068450D01*
X0282329Y0068599D01*
X0282419Y0068745D01*
X0282513Y0068889D01*
X0282610Y0069031D01*
X0282711Y0069170D01*
X0282815Y0069307D01*
X0282922Y0069441D01*
X0283033Y0069572D01*
X0283146Y0069701D01*
X0283263Y0069827D01*
X0283383Y0069950D01*
X0283506Y0070070D01*
X0283632Y0070187D01*
X0283761Y0070300D01*
X0283892Y0070411D01*
X0284026Y0070518D01*
X0284163Y0070622D01*
X0284302Y0070723D01*
X0284444Y0070820D01*
X0284588Y0070914D01*
X0284734Y0071004D01*
X0284883Y0071091D01*
X0285033Y0071173D01*
X0285186Y0071253D01*
X0285340Y0071328D01*
X0285496Y0071399D01*
X0285654Y0071467D01*
X0285814Y0071531D01*
X0285975Y0071591D01*
X0286137Y0071647D01*
X0286301Y0071699D01*
X0286466Y0071746D01*
X0286632Y0071790D01*
X0286799Y0071830D01*
X0286967Y0071865D01*
X0287136Y0071897D01*
X0287306Y0071924D01*
X0287476Y0071947D01*
X0287647Y0071966D01*
X0287818Y0071981D01*
X0287990Y0071992D01*
X0288161Y0071998D01*
X0288333Y0072000D01*
X0288505Y0071998D01*
X0288676Y0071992D01*
X0288848Y0071981D01*
X0289019Y0071966D01*
X0289190Y0071947D01*
X0289360Y0071924D01*
X0289530Y0071897D01*
X0289699Y0071865D01*
X0289867Y0071830D01*
X0290034Y0071790D01*
X0290200Y0071746D01*
X0290365Y0071699D01*
X0290529Y0071647D01*
X0290691Y0071591D01*
X0290852Y0071531D01*
X0291012Y0071467D01*
X0291170Y0071399D01*
X0291326Y0071328D01*
X0291480Y0071253D01*
X0291633Y0071173D01*
X0291783Y0071091D01*
X0291932Y0071004D01*
X0292078Y0070914D01*
X0292222Y0070820D01*
X0292364Y0070723D01*
X0292503Y0070622D01*
X0292640Y0070518D01*
X0292774Y0070411D01*
X0292905Y0070300D01*
X0293034Y0070187D01*
X0293160Y0070070D01*
X0293283Y0069950D01*
X0293403Y0069827D01*
X0293520Y0069701D01*
X0293633Y0069572D01*
X0293744Y0069441D01*
X0293851Y0069307D01*
X0293955Y0069170D01*
X0294056Y0069031D01*
X0294153Y0068889D01*
X0294247Y0068745D01*
X0294337Y0068599D01*
X0294424Y0068450D01*
X0294506Y0068300D01*
X0294586Y0068147D01*
X0294661Y0067993D01*
X0294732Y0067837D01*
X0294800Y0067679D01*
X0294864Y0067519D01*
X0294924Y0067358D01*
X0294980Y0067196D01*
X0295032Y0067032D01*
X0295079Y0066867D01*
X0295123Y0066701D01*
X0295163Y0066534D01*
X0295198Y0066366D01*
X0295230Y0066197D01*
X0295257Y0066027D01*
X0295280Y0065857D01*
X0295299Y0065686D01*
X0295314Y0065515D01*
X0295325Y0065343D01*
X0295331Y0065172D01*
X0295333Y0065000D01*
X0295331Y0064828D01*
X0295325Y0064657D01*
X0295314Y0064485D01*
X0295299Y0064314D01*
X0295280Y0064143D01*
X0295257Y0063973D01*
X0295230Y0063803D01*
X0295198Y0063634D01*
X0295163Y0063466D01*
X0295123Y0063299D01*
X0295079Y0063133D01*
X0295032Y0062968D01*
X0294980Y0062804D01*
X0294924Y0062642D01*
X0294864Y0062481D01*
X0294800Y0062321D01*
X0294732Y0062163D01*
X0294661Y0062007D01*
X0294586Y0061853D01*
X0294506Y0061700D01*
X0294424Y0061550D01*
X0294337Y0061401D01*
X0294247Y0061255D01*
X0294153Y0061111D01*
X0294056Y0060969D01*
X0293955Y0060830D01*
X0293851Y0060693D01*
X0293744Y0060559D01*
X0293633Y0060428D01*
X0293520Y0060299D01*
X0293403Y0060173D01*
X0293283Y0060050D01*
X0293160Y0059930D01*
X0293034Y0059813D01*
X0292905Y0059700D01*
X0292774Y0059589D01*
X0292640Y0059482D01*
X0292503Y0059378D01*
X0292364Y0059277D01*
X0292222Y0059180D01*
X0292078Y0059086D01*
X0291932Y0058996D01*
X0291783Y0058909D01*
X0291633Y0058827D01*
X0291480Y0058747D01*
X0291326Y0058672D01*
X0291170Y0058601D01*
X0291012Y0058533D01*
X0290852Y0058469D01*
X0290691Y0058409D01*
X0290529Y0058353D01*
X0290365Y0058301D01*
X0290200Y0058254D01*
X0290034Y0058210D01*
X0289867Y0058170D01*
X0289699Y0058135D01*
X0289530Y0058103D01*
X0289360Y0058076D01*
X0289190Y0058053D01*
X0289019Y0058034D01*
X0288848Y0058019D01*
X0288676Y0058008D01*
X0288505Y0058002D01*
X0288333Y0058000D01*
X0288161Y0058002D01*
X0287990Y0058008D01*
X0287818Y0058019D01*
X0287647Y0058034D01*
X0287476Y0058053D01*
X0287306Y0058076D01*
X0287136Y0058103D01*
X0286967Y0058135D01*
X0286799Y0058170D01*
X0286632Y0058210D01*
X0286466Y0058254D01*
X0286301Y0058301D01*
X0286137Y0058353D01*
X0285975Y0058409D01*
X0285814Y0058469D01*
X0285654Y0058533D01*
X0285496Y0058601D01*
X0285340Y0058672D01*
X0285186Y0058747D01*
X0285033Y0058827D01*
X0284883Y0058909D01*
X0284734Y0058996D01*
X0284588Y0059086D01*
X0284444Y0059180D01*
X0284302Y0059277D01*
X0284163Y0059378D01*
X0284026Y0059482D01*
X0283892Y0059589D01*
X0283761Y0059700D01*
X0283632Y0059813D01*
X0283506Y0059930D01*
X0283383Y0060050D01*
X0283263Y0060173D01*
X0283146Y0060299D01*
X0283033Y0060428D01*
X0282922Y0060559D01*
X0282815Y0060693D01*
X0282711Y0060830D01*
X0282610Y0060969D01*
X0282513Y0061111D01*
X0282419Y0061255D01*
X0282329Y0061401D01*
X0282242Y0061550D01*
X0282160Y0061700D01*
X0282080Y0061853D01*
X0282005Y0062007D01*
X0281934Y0062163D01*
X0281866Y0062321D01*
X0281802Y0062481D01*
X0281742Y0062642D01*
X0281686Y0062804D01*
X0281634Y0062968D01*
X0281587Y0063133D01*
X0281543Y0063299D01*
X0281503Y0063466D01*
X0281468Y0063634D01*
X0281436Y0063803D01*
X0281409Y0063973D01*
X0281386Y0064143D01*
X0281367Y0064314D01*
X0281352Y0064485D01*
X0281341Y0064657D01*
X0281335Y0064828D01*
X0281333Y0065000D01*
X0325333Y0110000D02*
X0328333Y0110000D01*
X0328333Y0109000D01*
X0328333Y0110000D02*
X0331333Y0110000D01*
X0331333Y0130000D01*
X0328333Y0130000D01*
X0328333Y0131000D01*
X0328333Y0130000D02*
X0325333Y0130000D01*
X0325333Y0110000D01*
X0347333Y0095000D02*
X0348333Y0095000D01*
X0348333Y0098000D01*
X0368333Y0098000D01*
X0368333Y0095000D01*
X0369333Y0095000D01*
X0368333Y0095000D02*
X0368333Y0092000D01*
X0348333Y0092000D01*
X0348333Y0095000D01*
X0368333Y0112500D02*
X0368333Y0127500D01*
X0355833Y0150000D02*
X0350833Y0150000D01*
X0348333Y0152500D01*
X0345833Y0150000D01*
X0340833Y0150000D01*
X0338333Y0152500D01*
X0335833Y0150000D01*
X0330833Y0150000D01*
X0328333Y0152500D01*
X0325833Y0150000D01*
X0320833Y0150000D01*
X0318333Y0152500D01*
X0315833Y0150000D01*
X0310833Y0150000D01*
X0308333Y0152500D01*
X0305833Y0150000D01*
X0300833Y0150000D01*
X0298333Y0152500D01*
X0295833Y0150000D01*
X0290833Y0150000D01*
X0288333Y0152500D01*
X0285833Y0150000D01*
X0280833Y0150000D01*
X0278333Y0152500D01*
X0278333Y0157500D01*
X0280833Y0160000D01*
X0285833Y0160000D01*
X0288333Y0157500D01*
X0290833Y0160000D01*
X0295833Y0160000D01*
X0298333Y0157500D01*
X0300833Y0160000D01*
X0305833Y0160000D01*
X0308333Y0157500D01*
X0310833Y0160000D01*
X0315833Y0160000D01*
X0318333Y0157500D01*
X0320833Y0160000D01*
X0325833Y0160000D01*
X0328333Y0157500D01*
X0330833Y0160000D01*
X0335833Y0160000D01*
X0338333Y0157500D01*
X0340833Y0160000D01*
X0345833Y0160000D01*
X0348333Y0157500D01*
X0350833Y0160000D01*
X0355833Y0160000D01*
X0358333Y0157500D01*
X0358333Y0152500D01*
X0355833Y0150000D01*
X0298333Y0127500D02*
X0298333Y0112500D01*
X0346333Y0069047D02*
X0346333Y0061000D01*
X0349833Y0053000D02*
X0366833Y0053000D01*
X0370333Y0061000D02*
X0370333Y0068929D01*
X0366833Y0077000D02*
X0349833Y0077000D01*
X0351333Y0065000D02*
X0351335Y0065172D01*
X0351341Y0065343D01*
X0351352Y0065515D01*
X0351367Y0065686D01*
X0351386Y0065857D01*
X0351409Y0066027D01*
X0351436Y0066197D01*
X0351468Y0066366D01*
X0351503Y0066534D01*
X0351543Y0066701D01*
X0351587Y0066867D01*
X0351634Y0067032D01*
X0351686Y0067196D01*
X0351742Y0067358D01*
X0351802Y0067519D01*
X0351866Y0067679D01*
X0351934Y0067837D01*
X0352005Y0067993D01*
X0352080Y0068147D01*
X0352160Y0068300D01*
X0352242Y0068450D01*
X0352329Y0068599D01*
X0352419Y0068745D01*
X0352513Y0068889D01*
X0352610Y0069031D01*
X0352711Y0069170D01*
X0352815Y0069307D01*
X0352922Y0069441D01*
X0353033Y0069572D01*
X0353146Y0069701D01*
X0353263Y0069827D01*
X0353383Y0069950D01*
X0353506Y0070070D01*
X0353632Y0070187D01*
X0353761Y0070300D01*
X0353892Y0070411D01*
X0354026Y0070518D01*
X0354163Y0070622D01*
X0354302Y0070723D01*
X0354444Y0070820D01*
X0354588Y0070914D01*
X0354734Y0071004D01*
X0354883Y0071091D01*
X0355033Y0071173D01*
X0355186Y0071253D01*
X0355340Y0071328D01*
X0355496Y0071399D01*
X0355654Y0071467D01*
X0355814Y0071531D01*
X0355975Y0071591D01*
X0356137Y0071647D01*
X0356301Y0071699D01*
X0356466Y0071746D01*
X0356632Y0071790D01*
X0356799Y0071830D01*
X0356967Y0071865D01*
X0357136Y0071897D01*
X0357306Y0071924D01*
X0357476Y0071947D01*
X0357647Y0071966D01*
X0357818Y0071981D01*
X0357990Y0071992D01*
X0358161Y0071998D01*
X0358333Y0072000D01*
X0358505Y0071998D01*
X0358676Y0071992D01*
X0358848Y0071981D01*
X0359019Y0071966D01*
X0359190Y0071947D01*
X0359360Y0071924D01*
X0359530Y0071897D01*
X0359699Y0071865D01*
X0359867Y0071830D01*
X0360034Y0071790D01*
X0360200Y0071746D01*
X0360365Y0071699D01*
X0360529Y0071647D01*
X0360691Y0071591D01*
X0360852Y0071531D01*
X0361012Y0071467D01*
X0361170Y0071399D01*
X0361326Y0071328D01*
X0361480Y0071253D01*
X0361633Y0071173D01*
X0361783Y0071091D01*
X0361932Y0071004D01*
X0362078Y0070914D01*
X0362222Y0070820D01*
X0362364Y0070723D01*
X0362503Y0070622D01*
X0362640Y0070518D01*
X0362774Y0070411D01*
X0362905Y0070300D01*
X0363034Y0070187D01*
X0363160Y0070070D01*
X0363283Y0069950D01*
X0363403Y0069827D01*
X0363520Y0069701D01*
X0363633Y0069572D01*
X0363744Y0069441D01*
X0363851Y0069307D01*
X0363955Y0069170D01*
X0364056Y0069031D01*
X0364153Y0068889D01*
X0364247Y0068745D01*
X0364337Y0068599D01*
X0364424Y0068450D01*
X0364506Y0068300D01*
X0364586Y0068147D01*
X0364661Y0067993D01*
X0364732Y0067837D01*
X0364800Y0067679D01*
X0364864Y0067519D01*
X0364924Y0067358D01*
X0364980Y0067196D01*
X0365032Y0067032D01*
X0365079Y0066867D01*
X0365123Y0066701D01*
X0365163Y0066534D01*
X0365198Y0066366D01*
X0365230Y0066197D01*
X0365257Y0066027D01*
X0365280Y0065857D01*
X0365299Y0065686D01*
X0365314Y0065515D01*
X0365325Y0065343D01*
X0365331Y0065172D01*
X0365333Y0065000D01*
X0365331Y0064828D01*
X0365325Y0064657D01*
X0365314Y0064485D01*
X0365299Y0064314D01*
X0365280Y0064143D01*
X0365257Y0063973D01*
X0365230Y0063803D01*
X0365198Y0063634D01*
X0365163Y0063466D01*
X0365123Y0063299D01*
X0365079Y0063133D01*
X0365032Y0062968D01*
X0364980Y0062804D01*
X0364924Y0062642D01*
X0364864Y0062481D01*
X0364800Y0062321D01*
X0364732Y0062163D01*
X0364661Y0062007D01*
X0364586Y0061853D01*
X0364506Y0061700D01*
X0364424Y0061550D01*
X0364337Y0061401D01*
X0364247Y0061255D01*
X0364153Y0061111D01*
X0364056Y0060969D01*
X0363955Y0060830D01*
X0363851Y0060693D01*
X0363744Y0060559D01*
X0363633Y0060428D01*
X0363520Y0060299D01*
X0363403Y0060173D01*
X0363283Y0060050D01*
X0363160Y0059930D01*
X0363034Y0059813D01*
X0362905Y0059700D01*
X0362774Y0059589D01*
X0362640Y0059482D01*
X0362503Y0059378D01*
X0362364Y0059277D01*
X0362222Y0059180D01*
X0362078Y0059086D01*
X0361932Y0058996D01*
X0361783Y0058909D01*
X0361633Y0058827D01*
X0361480Y0058747D01*
X0361326Y0058672D01*
X0361170Y0058601D01*
X0361012Y0058533D01*
X0360852Y0058469D01*
X0360691Y0058409D01*
X0360529Y0058353D01*
X0360365Y0058301D01*
X0360200Y0058254D01*
X0360034Y0058210D01*
X0359867Y0058170D01*
X0359699Y0058135D01*
X0359530Y0058103D01*
X0359360Y0058076D01*
X0359190Y0058053D01*
X0359019Y0058034D01*
X0358848Y0058019D01*
X0358676Y0058008D01*
X0358505Y0058002D01*
X0358333Y0058000D01*
X0358161Y0058002D01*
X0357990Y0058008D01*
X0357818Y0058019D01*
X0357647Y0058034D01*
X0357476Y0058053D01*
X0357306Y0058076D01*
X0357136Y0058103D01*
X0356967Y0058135D01*
X0356799Y0058170D01*
X0356632Y0058210D01*
X0356466Y0058254D01*
X0356301Y0058301D01*
X0356137Y0058353D01*
X0355975Y0058409D01*
X0355814Y0058469D01*
X0355654Y0058533D01*
X0355496Y0058601D01*
X0355340Y0058672D01*
X0355186Y0058747D01*
X0355033Y0058827D01*
X0354883Y0058909D01*
X0354734Y0058996D01*
X0354588Y0059086D01*
X0354444Y0059180D01*
X0354302Y0059277D01*
X0354163Y0059378D01*
X0354026Y0059482D01*
X0353892Y0059589D01*
X0353761Y0059700D01*
X0353632Y0059813D01*
X0353506Y0059930D01*
X0353383Y0060050D01*
X0353263Y0060173D01*
X0353146Y0060299D01*
X0353033Y0060428D01*
X0352922Y0060559D01*
X0352815Y0060693D01*
X0352711Y0060830D01*
X0352610Y0060969D01*
X0352513Y0061111D01*
X0352419Y0061255D01*
X0352329Y0061401D01*
X0352242Y0061550D01*
X0352160Y0061700D01*
X0352080Y0061853D01*
X0352005Y0062007D01*
X0351934Y0062163D01*
X0351866Y0062321D01*
X0351802Y0062481D01*
X0351742Y0062642D01*
X0351686Y0062804D01*
X0351634Y0062968D01*
X0351587Y0063133D01*
X0351543Y0063299D01*
X0351503Y0063466D01*
X0351468Y0063634D01*
X0351436Y0063803D01*
X0351409Y0063973D01*
X0351386Y0064143D01*
X0351367Y0064314D01*
X0351352Y0064485D01*
X0351341Y0064657D01*
X0351335Y0064828D01*
X0351333Y0065000D01*
X0218333Y0192500D02*
X0215833Y0190000D01*
X0200833Y0190000D01*
X0198333Y0192500D01*
X0198333Y0197500D01*
X0200833Y0200000D01*
X0215833Y0200000D01*
X0218333Y0197500D01*
X0218333Y0192500D01*
X0215833Y0200000D02*
X0218333Y0202500D01*
X0218333Y0207500D01*
X0215833Y0210000D01*
X0200833Y0210000D01*
X0198333Y0212500D01*
X0198333Y0217500D01*
X0200833Y0220000D01*
X0215833Y0220000D01*
X0218333Y0217500D01*
X0218333Y0212500D01*
X0215833Y0210000D01*
X0215833Y0220000D02*
X0218333Y0222500D01*
X0218333Y0227500D01*
X0215833Y0230000D01*
X0200833Y0230000D01*
X0198333Y0227500D01*
X0198333Y0222500D01*
X0200833Y0220000D01*
X0200833Y0210000D02*
X0198333Y0207500D01*
X0198333Y0202500D01*
X0200833Y0200000D01*
X0200833Y0230000D02*
X0198333Y0232500D01*
X0198333Y0237500D01*
X0200833Y0240000D01*
X0215833Y0240000D01*
X0218333Y0237500D01*
X0218333Y0232500D01*
X0215833Y0230000D01*
X0215833Y0240000D02*
X0218333Y0242500D01*
X0218333Y0247500D01*
X0215833Y0250000D01*
X0200833Y0250000D01*
X0198333Y0247500D01*
X0198333Y0242500D01*
X0200833Y0240000D01*
X0200833Y0250000D02*
X0198333Y0252500D01*
X0198333Y0257500D01*
X0200833Y0260000D01*
X0215833Y0260000D01*
X0218333Y0257500D01*
X0218333Y0252500D01*
X0215833Y0250000D01*
X0215833Y0260000D02*
X0218333Y0262500D01*
X0218333Y0267500D01*
X0215833Y0270000D01*
X0200833Y0270000D01*
X0198333Y0267500D01*
X0198333Y0262500D01*
X0200833Y0260000D01*
X0200833Y0270000D02*
X0198333Y0272500D01*
X0198333Y0277500D01*
X0200833Y0280000D01*
X0215833Y0280000D01*
X0218333Y0277500D01*
X0218333Y0272500D01*
X0215833Y0270000D01*
X0215833Y0280000D02*
X0218333Y0282500D01*
X0218333Y0287500D01*
X0215833Y0290000D01*
X0200833Y0290000D01*
X0198333Y0287500D01*
X0198333Y0282500D01*
X0200833Y0280000D01*
X0196833Y0282500D02*
X0196833Y0287500D01*
X0278333Y0312500D02*
X0280833Y0310000D01*
X0285833Y0310000D01*
X0288333Y0312500D01*
X0290833Y0310000D01*
X0295833Y0310000D01*
X0298333Y0312500D01*
X0300833Y0310000D01*
X0305833Y0310000D01*
X0308333Y0312500D01*
X0310833Y0310000D01*
X0315833Y0310000D01*
X0318333Y0312500D01*
X0320833Y0310000D01*
X0325833Y0310000D01*
X0328333Y0312500D01*
X0330833Y0310000D01*
X0335833Y0310000D01*
X0338333Y0312500D01*
X0340833Y0310000D01*
X0345833Y0310000D01*
X0348333Y0312500D01*
X0350833Y0310000D01*
X0355833Y0310000D01*
X0358333Y0312500D01*
X0358333Y0317500D01*
X0355833Y0320000D01*
X0350833Y0320000D01*
X0348333Y0317500D01*
X0345833Y0320000D01*
X0340833Y0320000D01*
X0338333Y0317500D01*
X0335833Y0320000D01*
X0330833Y0320000D01*
X0328333Y0317500D01*
X0325833Y0320000D01*
X0320833Y0320000D01*
X0318333Y0317500D01*
X0315833Y0320000D01*
X0310833Y0320000D01*
X0308333Y0317500D01*
X0305833Y0320000D01*
X0300833Y0320000D01*
X0298333Y0317500D01*
X0295833Y0320000D01*
X0290833Y0320000D01*
X0288333Y0317500D01*
X0285833Y0320000D01*
X0280833Y0320000D01*
X0278333Y0317500D01*
X0278333Y0312500D01*
X0308333Y0263000D02*
X0328333Y0263000D01*
X0328333Y0260000D01*
X0329333Y0260000D01*
X0328333Y0260000D02*
X0328333Y0257000D01*
X0308333Y0257000D01*
X0308333Y0260000D01*
X0307333Y0260000D01*
X0308333Y0260000D02*
X0308333Y0263000D01*
X0180105Y0115000D02*
X0180112Y0115570D01*
X0180133Y0116140D01*
X0180168Y0116709D01*
X0180217Y0117277D01*
X0180280Y0117843D01*
X0180356Y0118408D01*
X0180447Y0118971D01*
X0180551Y0119532D01*
X0180669Y0120089D01*
X0180801Y0120644D01*
X0180946Y0121195D01*
X0181105Y0121743D01*
X0181277Y0122286D01*
X0181463Y0122825D01*
X0181661Y0123360D01*
X0181873Y0123889D01*
X0182098Y0124413D01*
X0182335Y0124931D01*
X0182585Y0125444D01*
X0182848Y0125950D01*
X0183123Y0126449D01*
X0183410Y0126942D01*
X0183709Y0127427D01*
X0184020Y0127905D01*
X0184342Y0128375D01*
X0184676Y0128837D01*
X0185021Y0129291D01*
X0185378Y0129736D01*
X0185745Y0130172D01*
X0186122Y0130599D01*
X0186510Y0131017D01*
X0186908Y0131425D01*
X0187316Y0131823D01*
X0187734Y0132211D01*
X0188161Y0132588D01*
X0188597Y0132955D01*
X0189042Y0133312D01*
X0189496Y0133657D01*
X0189958Y0133991D01*
X0190428Y0134313D01*
X0190906Y0134624D01*
X0191391Y0134923D01*
X0191884Y0135210D01*
X0192383Y0135485D01*
X0192889Y0135748D01*
X0193402Y0135998D01*
X0193920Y0136235D01*
X0194444Y0136460D01*
X0194973Y0136672D01*
X0195508Y0136870D01*
X0196047Y0137056D01*
X0196590Y0137228D01*
X0197138Y0137387D01*
X0197689Y0137532D01*
X0198244Y0137664D01*
X0198801Y0137782D01*
X0199362Y0137886D01*
X0199925Y0137977D01*
X0200490Y0138053D01*
X0201056Y0138116D01*
X0201624Y0138165D01*
X0202193Y0138200D01*
X0202763Y0138221D01*
X0203333Y0138228D01*
X0203903Y0138221D01*
X0204473Y0138200D01*
X0205042Y0138165D01*
X0205610Y0138116D01*
X0206176Y0138053D01*
X0206741Y0137977D01*
X0207304Y0137886D01*
X0207865Y0137782D01*
X0208422Y0137664D01*
X0208977Y0137532D01*
X0209528Y0137387D01*
X0210076Y0137228D01*
X0210619Y0137056D01*
X0211158Y0136870D01*
X0211693Y0136672D01*
X0212222Y0136460D01*
X0212746Y0136235D01*
X0213264Y0135998D01*
X0213777Y0135748D01*
X0214283Y0135485D01*
X0214782Y0135210D01*
X0215275Y0134923D01*
X0215760Y0134624D01*
X0216238Y0134313D01*
X0216708Y0133991D01*
X0217170Y0133657D01*
X0217624Y0133312D01*
X0218069Y0132955D01*
X0218505Y0132588D01*
X0218932Y0132211D01*
X0219350Y0131823D01*
X0219758Y0131425D01*
X0220156Y0131017D01*
X0220544Y0130599D01*
X0220921Y0130172D01*
X0221288Y0129736D01*
X0221645Y0129291D01*
X0221990Y0128837D01*
X0222324Y0128375D01*
X0222646Y0127905D01*
X0222957Y0127427D01*
X0223256Y0126942D01*
X0223543Y0126449D01*
X0223818Y0125950D01*
X0224081Y0125444D01*
X0224331Y0124931D01*
X0224568Y0124413D01*
X0224793Y0123889D01*
X0225005Y0123360D01*
X0225203Y0122825D01*
X0225389Y0122286D01*
X0225561Y0121743D01*
X0225720Y0121195D01*
X0225865Y0120644D01*
X0225997Y0120089D01*
X0226115Y0119532D01*
X0226219Y0118971D01*
X0226310Y0118408D01*
X0226386Y0117843D01*
X0226449Y0117277D01*
X0226498Y0116709D01*
X0226533Y0116140D01*
X0226554Y0115570D01*
X0226561Y0115000D01*
X0226554Y0114430D01*
X0226533Y0113860D01*
X0226498Y0113291D01*
X0226449Y0112723D01*
X0226386Y0112157D01*
X0226310Y0111592D01*
X0226219Y0111029D01*
X0226115Y0110468D01*
X0225997Y0109911D01*
X0225865Y0109356D01*
X0225720Y0108805D01*
X0225561Y0108257D01*
X0225389Y0107714D01*
X0225203Y0107175D01*
X0225005Y0106640D01*
X0224793Y0106111D01*
X0224568Y0105587D01*
X0224331Y0105069D01*
X0224081Y0104556D01*
X0223818Y0104050D01*
X0223543Y0103551D01*
X0223256Y0103058D01*
X0222957Y0102573D01*
X0222646Y0102095D01*
X0222324Y0101625D01*
X0221990Y0101163D01*
X0221645Y0100709D01*
X0221288Y0100264D01*
X0220921Y0099828D01*
X0220544Y0099401D01*
X0220156Y0098983D01*
X0219758Y0098575D01*
X0219350Y0098177D01*
X0218932Y0097789D01*
X0218505Y0097412D01*
X0218069Y0097045D01*
X0217624Y0096688D01*
X0217170Y0096343D01*
X0216708Y0096009D01*
X0216238Y0095687D01*
X0215760Y0095376D01*
X0215275Y0095077D01*
X0214782Y0094790D01*
X0214283Y0094515D01*
X0213777Y0094252D01*
X0213264Y0094002D01*
X0212746Y0093765D01*
X0212222Y0093540D01*
X0211693Y0093328D01*
X0211158Y0093130D01*
X0210619Y0092944D01*
X0210076Y0092772D01*
X0209528Y0092613D01*
X0208977Y0092468D01*
X0208422Y0092336D01*
X0207865Y0092218D01*
X0207304Y0092114D01*
X0206741Y0092023D01*
X0206176Y0091947D01*
X0205610Y0091884D01*
X0205042Y0091835D01*
X0204473Y0091800D01*
X0203903Y0091779D01*
X0203333Y0091772D01*
X0202763Y0091779D01*
X0202193Y0091800D01*
X0201624Y0091835D01*
X0201056Y0091884D01*
X0200490Y0091947D01*
X0199925Y0092023D01*
X0199362Y0092114D01*
X0198801Y0092218D01*
X0198244Y0092336D01*
X0197689Y0092468D01*
X0197138Y0092613D01*
X0196590Y0092772D01*
X0196047Y0092944D01*
X0195508Y0093130D01*
X0194973Y0093328D01*
X0194444Y0093540D01*
X0193920Y0093765D01*
X0193402Y0094002D01*
X0192889Y0094252D01*
X0192383Y0094515D01*
X0191884Y0094790D01*
X0191391Y0095077D01*
X0190906Y0095376D01*
X0190428Y0095687D01*
X0189958Y0096009D01*
X0189496Y0096343D01*
X0189042Y0096688D01*
X0188597Y0097045D01*
X0188161Y0097412D01*
X0187734Y0097789D01*
X0187316Y0098177D01*
X0186908Y0098575D01*
X0186510Y0098983D01*
X0186122Y0099401D01*
X0185745Y0099828D01*
X0185378Y0100264D01*
X0185021Y0100709D01*
X0184676Y0101163D01*
X0184342Y0101625D01*
X0184020Y0102095D01*
X0183709Y0102573D01*
X0183410Y0103058D01*
X0183123Y0103551D01*
X0182848Y0104050D01*
X0182585Y0104556D01*
X0182335Y0105069D01*
X0182098Y0105587D01*
X0181873Y0106111D01*
X0181661Y0106640D01*
X0181463Y0107175D01*
X0181277Y0107714D01*
X0181105Y0108257D01*
X0180946Y0108805D01*
X0180801Y0109356D01*
X0180669Y0109911D01*
X0180551Y0110468D01*
X0180447Y0111029D01*
X0180356Y0111592D01*
X0180280Y0112157D01*
X0180217Y0112723D01*
X0180168Y0113291D01*
X0180133Y0113860D01*
X0180112Y0114430D01*
X0180105Y0115000D01*
X0108333Y0152000D02*
X0088333Y0152000D01*
X0088333Y0155000D01*
X0087333Y0155000D01*
X0088333Y0155000D02*
X0088333Y0158000D01*
X0108333Y0158000D01*
X0108333Y0155000D01*
X0109333Y0155000D01*
X0108333Y0155000D02*
X0108333Y0152000D01*
X0064333Y0155000D02*
X0063333Y0155000D01*
X0063333Y0152000D01*
X0043333Y0152000D01*
X0043333Y0155000D01*
X0042333Y0155000D01*
X0043333Y0155000D02*
X0043333Y0158000D01*
X0063333Y0158000D01*
X0063333Y0155000D01*
X0063333Y0138000D02*
X0043333Y0138000D01*
X0043333Y0135000D01*
X0042333Y0135000D01*
X0043333Y0135000D02*
X0043333Y0132000D01*
X0063333Y0132000D01*
X0063333Y0135000D01*
X0064333Y0135000D01*
X0063333Y0135000D02*
X0063333Y0138000D01*
X0063333Y0118000D02*
X0043333Y0118000D01*
X0043333Y0115000D01*
X0042333Y0115000D01*
X0043333Y0115000D02*
X0043333Y0112000D01*
X0063333Y0112000D01*
X0063333Y0115000D01*
X0064333Y0115000D01*
X0063333Y0115000D02*
X0063333Y0118000D01*
X0063333Y0098000D02*
X0043333Y0098000D01*
X0043333Y0095000D01*
X0042333Y0095000D01*
X0043333Y0095000D02*
X0043333Y0092000D01*
X0063333Y0092000D01*
X0063333Y0095000D01*
X0064333Y0095000D01*
X0063333Y0095000D02*
X0063333Y0098000D01*
X0063333Y0172000D02*
X0043333Y0172000D01*
X0043333Y0175000D01*
X0042333Y0175000D01*
X0043333Y0175000D02*
X0043333Y0178000D01*
X0063333Y0178000D01*
X0063333Y0175000D01*
X0064333Y0175000D01*
X0063333Y0175000D02*
X0063333Y0172000D01*
X0049833Y0192500D02*
X0049833Y0197500D01*
X0048333Y0197500D02*
X0048333Y0192500D01*
X0045833Y0190000D01*
X0030833Y0190000D01*
X0028333Y0192500D01*
X0028333Y0197500D01*
X0030833Y0200000D01*
X0045833Y0200000D01*
X0048333Y0202500D01*
X0048333Y0207500D01*
X0045833Y0210000D01*
X0030833Y0210000D01*
X0028333Y0212500D01*
X0028333Y0217500D01*
X0030833Y0220000D01*
X0045833Y0220000D01*
X0048333Y0222500D01*
X0048333Y0227500D01*
X0045833Y0230000D01*
X0030833Y0230000D01*
X0028333Y0232500D01*
X0028333Y0237500D01*
X0030833Y0240000D01*
X0045833Y0240000D01*
X0048333Y0242500D01*
X0048333Y0247500D01*
X0045833Y0250000D01*
X0030833Y0250000D01*
X0028333Y0252500D01*
X0028333Y0257500D01*
X0030833Y0260000D01*
X0045833Y0260000D01*
X0048333Y0257500D01*
X0048333Y0252500D01*
X0045833Y0250000D01*
X0045833Y0240000D02*
X0048333Y0237500D01*
X0048333Y0232500D01*
X0045833Y0230000D01*
X0045833Y0220000D02*
X0048333Y0217500D01*
X0048333Y0212500D01*
X0045833Y0210000D01*
X0045833Y0200000D02*
X0048333Y0197500D01*
X0030833Y0200000D02*
X0028333Y0202500D01*
X0028333Y0207500D01*
X0030833Y0210000D01*
X0030833Y0220000D02*
X0028333Y0222500D01*
X0028333Y0227500D01*
X0030833Y0230000D01*
X0030833Y0240000D02*
X0028333Y0242500D01*
X0028333Y0247500D01*
X0030833Y0250000D01*
X0030833Y0260000D02*
X0028333Y0262500D01*
X0028333Y0267500D01*
X0030833Y0270000D01*
X0045833Y0270000D01*
X0048333Y0267500D01*
X0048333Y0262500D01*
X0045833Y0260000D01*
X0045833Y0270000D02*
X0048333Y0272500D01*
X0048333Y0277500D01*
X0045833Y0280000D01*
X0048333Y0282500D01*
X0048333Y0287500D01*
X0045833Y0290000D01*
X0030833Y0290000D01*
X0028333Y0287500D01*
X0028333Y0282500D01*
X0030833Y0280000D01*
X0045833Y0280000D01*
X0030833Y0280000D02*
X0028333Y0277500D01*
X0028333Y0272500D01*
X0030833Y0270000D01*
D17*
X0298662Y0127809D02*
X0297942Y0127269D01*
X0297943Y0127270D02*
X0297762Y0127503D01*
X0297576Y0127731D01*
X0297384Y0127955D01*
X0297187Y0128174D01*
X0296985Y0128388D01*
X0296777Y0128597D01*
X0296564Y0128800D01*
X0296347Y0128999D01*
X0296124Y0129192D01*
X0295897Y0129380D01*
X0295666Y0129562D01*
X0295430Y0129739D01*
X0295189Y0129909D01*
X0294945Y0130074D01*
X0294697Y0130232D01*
X0294445Y0130385D01*
X0294189Y0130531D01*
X0293930Y0130671D01*
X0293667Y0130805D01*
X0293402Y0130932D01*
X0293133Y0131053D01*
X0292861Y0131167D01*
X0292587Y0131274D01*
X0292310Y0131375D01*
X0292031Y0131469D01*
X0291749Y0131556D01*
X0291466Y0131636D01*
X0291180Y0131709D01*
X0290893Y0131775D01*
X0290604Y0131834D01*
X0290314Y0131886D01*
X0290023Y0131931D01*
X0289731Y0131969D01*
X0289438Y0131999D01*
X0289144Y0132023D01*
X0288850Y0132039D01*
X0288556Y0132048D01*
X0288261Y0132050D01*
X0287966Y0132044D01*
X0287672Y0132032D01*
X0287378Y0132012D01*
X0287085Y0131985D01*
X0286792Y0131951D01*
X0286500Y0131910D01*
X0286210Y0131861D01*
X0285920Y0131806D01*
X0285633Y0131744D01*
X0285346Y0131674D01*
X0285062Y0131597D01*
X0284779Y0131514D01*
X0284499Y0131424D01*
X0284221Y0131327D01*
X0283945Y0131223D01*
X0283672Y0131112D01*
X0283402Y0130995D01*
X0283134Y0130871D01*
X0282870Y0130741D01*
X0282609Y0130604D01*
X0282352Y0130461D01*
X0282098Y0130311D01*
X0281847Y0130156D01*
X0281601Y0129994D01*
X0281359Y0129827D01*
X0281121Y0129653D01*
X0280887Y0129474D01*
X0280657Y0129289D01*
X0280433Y0129099D01*
X0280212Y0128903D01*
X0279997Y0128702D01*
X0279787Y0128495D01*
X0279582Y0128284D01*
X0279382Y0128067D01*
X0279187Y0127846D01*
X0278998Y0127620D01*
X0278815Y0127390D01*
X0278637Y0127155D01*
X0278465Y0126915D01*
X0278299Y0126672D01*
X0278139Y0126425D01*
X0277985Y0126174D01*
X0277837Y0125919D01*
X0277695Y0125660D01*
X0277560Y0125399D01*
X0277431Y0125134D01*
X0277309Y0124866D01*
X0277193Y0124595D01*
X0277084Y0124321D01*
X0276982Y0124045D01*
X0276887Y0123766D01*
X0276798Y0123485D01*
X0276716Y0123202D01*
X0276641Y0122917D01*
X0276574Y0122630D01*
X0276513Y0122342D01*
X0276459Y0122052D01*
X0276412Y0121761D01*
X0276373Y0121469D01*
X0276341Y0121177D01*
X0276315Y0120883D01*
X0276297Y0120589D01*
X0276287Y0120295D01*
X0276283Y0120000D01*
X0276287Y0119705D01*
X0276297Y0119411D01*
X0276315Y0119117D01*
X0276341Y0118823D01*
X0276373Y0118531D01*
X0276412Y0118239D01*
X0276459Y0117948D01*
X0276513Y0117658D01*
X0276574Y0117370D01*
X0276641Y0117083D01*
X0276716Y0116798D01*
X0276798Y0116515D01*
X0276887Y0116234D01*
X0276982Y0115955D01*
X0277084Y0115679D01*
X0277193Y0115405D01*
X0277309Y0115134D01*
X0277431Y0114866D01*
X0277560Y0114601D01*
X0277695Y0114340D01*
X0277837Y0114081D01*
X0277985Y0113826D01*
X0278139Y0113575D01*
X0278299Y0113328D01*
X0278465Y0113085D01*
X0278637Y0112845D01*
X0278815Y0112610D01*
X0278998Y0112380D01*
X0279187Y0112154D01*
X0279382Y0111933D01*
X0279582Y0111716D01*
X0279787Y0111505D01*
X0279997Y0111298D01*
X0280212Y0111097D01*
X0280433Y0110901D01*
X0280657Y0110711D01*
X0280887Y0110526D01*
X0281121Y0110347D01*
X0281359Y0110173D01*
X0281601Y0110006D01*
X0281847Y0109844D01*
X0282098Y0109689D01*
X0282352Y0109539D01*
X0282609Y0109396D01*
X0282870Y0109259D01*
X0283134Y0109129D01*
X0283402Y0109005D01*
X0283672Y0108888D01*
X0283945Y0108777D01*
X0284221Y0108673D01*
X0284499Y0108576D01*
X0284779Y0108486D01*
X0285062Y0108403D01*
X0285346Y0108326D01*
X0285633Y0108256D01*
X0285920Y0108194D01*
X0286210Y0108139D01*
X0286500Y0108090D01*
X0286792Y0108049D01*
X0287085Y0108015D01*
X0287378Y0107988D01*
X0287672Y0107968D01*
X0287966Y0107956D01*
X0288261Y0107950D01*
X0288556Y0107952D01*
X0288850Y0107961D01*
X0289144Y0107977D01*
X0289438Y0108001D01*
X0289731Y0108031D01*
X0290023Y0108069D01*
X0290314Y0108114D01*
X0290604Y0108166D01*
X0290893Y0108225D01*
X0291180Y0108291D01*
X0291466Y0108364D01*
X0291749Y0108444D01*
X0292031Y0108531D01*
X0292310Y0108625D01*
X0292587Y0108726D01*
X0292861Y0108833D01*
X0293133Y0108947D01*
X0293402Y0109068D01*
X0293667Y0109195D01*
X0293930Y0109329D01*
X0294189Y0109469D01*
X0294445Y0109615D01*
X0294697Y0109768D01*
X0294945Y0109926D01*
X0295189Y0110091D01*
X0295430Y0110261D01*
X0295666Y0110438D01*
X0295897Y0110620D01*
X0296124Y0110808D01*
X0296347Y0111001D01*
X0296564Y0111200D01*
X0296777Y0111403D01*
X0296985Y0111612D01*
X0297187Y0111826D01*
X0297384Y0112045D01*
X0297576Y0112269D01*
X0297762Y0112497D01*
X0297943Y0112730D01*
X0298662Y0112191D01*
X0298663Y0112190D01*
X0298469Y0111940D01*
X0298269Y0111694D01*
X0298063Y0111454D01*
X0297851Y0111219D01*
X0297633Y0110989D01*
X0297410Y0110764D01*
X0297182Y0110545D01*
X0296948Y0110331D01*
X0296709Y0110123D01*
X0296465Y0109921D01*
X0296216Y0109726D01*
X0295962Y0109536D01*
X0295704Y0109353D01*
X0295442Y0109176D01*
X0295175Y0109005D01*
X0294904Y0108841D01*
X0294629Y0108684D01*
X0294351Y0108533D01*
X0294068Y0108389D01*
X0293783Y0108253D01*
X0293494Y0108123D01*
X0293202Y0108000D01*
X0292907Y0107885D01*
X0292610Y0107777D01*
X0292309Y0107676D01*
X0292007Y0107582D01*
X0291702Y0107496D01*
X0291395Y0107417D01*
X0291087Y0107346D01*
X0290777Y0107283D01*
X0290465Y0107227D01*
X0290152Y0107178D01*
X0289838Y0107138D01*
X0289523Y0107105D01*
X0289207Y0107080D01*
X0288891Y0107062D01*
X0288575Y0107052D01*
X0288258Y0107050D01*
X0287941Y0107056D01*
X0287625Y0107069D01*
X0287309Y0107091D01*
X0286994Y0107119D01*
X0286679Y0107156D01*
X0286366Y0107200D01*
X0286053Y0107252D01*
X0285742Y0107312D01*
X0285433Y0107379D01*
X0285125Y0107454D01*
X0284819Y0107536D01*
X0284516Y0107625D01*
X0284214Y0107722D01*
X0283915Y0107827D01*
X0283619Y0107939D01*
X0283325Y0108057D01*
X0283035Y0108183D01*
X0282748Y0108316D01*
X0282463Y0108457D01*
X0282183Y0108604D01*
X0281906Y0108757D01*
X0281633Y0108918D01*
X0281364Y0109085D01*
X0281099Y0109259D01*
X0280839Y0109439D01*
X0280583Y0109625D01*
X0280332Y0109818D01*
X0280085Y0110016D01*
X0279843Y0110221D01*
X0279607Y0110431D01*
X0279375Y0110648D01*
X0279150Y0110870D01*
X0278929Y0111097D01*
X0278714Y0111329D01*
X0278505Y0111567D01*
X0278302Y0111810D01*
X0278104Y0112058D01*
X0277913Y0112310D01*
X0277728Y0112567D01*
X0277550Y0112829D01*
X0277378Y0113095D01*
X0277212Y0113364D01*
X0277053Y0113638D01*
X0276901Y0113916D01*
X0276756Y0114197D01*
X0276617Y0114482D01*
X0276486Y0114770D01*
X0276362Y0115062D01*
X0276244Y0115356D01*
X0276134Y0115653D01*
X0276032Y0115952D01*
X0275937Y0116254D01*
X0275849Y0116558D01*
X0275768Y0116865D01*
X0275695Y0117173D01*
X0275630Y0117483D01*
X0275572Y0117794D01*
X0275522Y0118107D01*
X0275480Y0118421D01*
X0275445Y0118735D01*
X0275418Y0119051D01*
X0275398Y0119367D01*
X0275387Y0119683D01*
X0275383Y0120000D01*
X0275387Y0120317D01*
X0275398Y0120633D01*
X0275418Y0120949D01*
X0275445Y0121265D01*
X0275480Y0121579D01*
X0275522Y0121893D01*
X0275572Y0122206D01*
X0275630Y0122517D01*
X0275695Y0122827D01*
X0275768Y0123135D01*
X0275849Y0123442D01*
X0275937Y0123746D01*
X0276032Y0124048D01*
X0276134Y0124347D01*
X0276244Y0124644D01*
X0276362Y0124938D01*
X0276486Y0125230D01*
X0276617Y0125518D01*
X0276756Y0125803D01*
X0276901Y0126084D01*
X0277053Y0126362D01*
X0277212Y0126636D01*
X0277378Y0126905D01*
X0277550Y0127171D01*
X0277728Y0127433D01*
X0277913Y0127690D01*
X0278104Y0127942D01*
X0278302Y0128190D01*
X0278505Y0128433D01*
X0278714Y0128671D01*
X0278929Y0128903D01*
X0279150Y0129130D01*
X0279375Y0129352D01*
X0279607Y0129569D01*
X0279843Y0129779D01*
X0280085Y0129984D01*
X0280332Y0130182D01*
X0280583Y0130375D01*
X0280839Y0130561D01*
X0281099Y0130741D01*
X0281364Y0130915D01*
X0281633Y0131082D01*
X0281906Y0131243D01*
X0282183Y0131396D01*
X0282463Y0131543D01*
X0282748Y0131684D01*
X0283035Y0131817D01*
X0283325Y0131943D01*
X0283619Y0132061D01*
X0283915Y0132173D01*
X0284214Y0132278D01*
X0284516Y0132375D01*
X0284819Y0132464D01*
X0285125Y0132546D01*
X0285433Y0132621D01*
X0285742Y0132688D01*
X0286053Y0132748D01*
X0286366Y0132800D01*
X0286679Y0132844D01*
X0286994Y0132881D01*
X0287309Y0132909D01*
X0287625Y0132931D01*
X0287941Y0132944D01*
X0288258Y0132950D01*
X0288575Y0132948D01*
X0288891Y0132938D01*
X0289207Y0132920D01*
X0289523Y0132895D01*
X0289838Y0132862D01*
X0290152Y0132822D01*
X0290465Y0132773D01*
X0290777Y0132717D01*
X0291087Y0132654D01*
X0291395Y0132583D01*
X0291702Y0132504D01*
X0292007Y0132418D01*
X0292309Y0132324D01*
X0292610Y0132223D01*
X0292907Y0132115D01*
X0293202Y0132000D01*
X0293494Y0131877D01*
X0293783Y0131747D01*
X0294068Y0131611D01*
X0294351Y0131467D01*
X0294629Y0131316D01*
X0294904Y0131159D01*
X0295175Y0130995D01*
X0295442Y0130824D01*
X0295704Y0130647D01*
X0295962Y0130464D01*
X0296216Y0130274D01*
X0296465Y0130079D01*
X0296709Y0129877D01*
X0296948Y0129669D01*
X0297182Y0129455D01*
X0297410Y0129236D01*
X0297633Y0129011D01*
X0297851Y0128781D01*
X0298063Y0128546D01*
X0298269Y0128306D01*
X0298469Y0128060D01*
X0298663Y0127810D01*
X0298588Y0127754D01*
X0298395Y0128002D01*
X0298196Y0128246D01*
X0297992Y0128484D01*
X0297782Y0128718D01*
X0297566Y0128946D01*
X0297344Y0129169D01*
X0297117Y0129387D01*
X0296885Y0129599D01*
X0296648Y0129805D01*
X0296406Y0130006D01*
X0296158Y0130200D01*
X0295907Y0130388D01*
X0295650Y0130570D01*
X0295390Y0130746D01*
X0295125Y0130915D01*
X0294856Y0131078D01*
X0294583Y0131234D01*
X0294307Y0131384D01*
X0294027Y0131526D01*
X0293743Y0131662D01*
X0293456Y0131791D01*
X0293166Y0131913D01*
X0292874Y0132027D01*
X0292578Y0132135D01*
X0292280Y0132235D01*
X0291980Y0132328D01*
X0291677Y0132413D01*
X0291373Y0132491D01*
X0291067Y0132562D01*
X0290759Y0132625D01*
X0290449Y0132681D01*
X0290139Y0132729D01*
X0289827Y0132769D01*
X0289514Y0132802D01*
X0289201Y0132827D01*
X0288887Y0132844D01*
X0288573Y0132854D01*
X0288258Y0132856D01*
X0287944Y0132850D01*
X0287630Y0132837D01*
X0287316Y0132816D01*
X0287003Y0132787D01*
X0286691Y0132751D01*
X0286380Y0132707D01*
X0286070Y0132655D01*
X0285761Y0132596D01*
X0285454Y0132529D01*
X0285148Y0132455D01*
X0284845Y0132374D01*
X0284543Y0132285D01*
X0284244Y0132188D01*
X0283947Y0132085D01*
X0283653Y0131974D01*
X0283362Y0131856D01*
X0283073Y0131731D01*
X0282788Y0131599D01*
X0282506Y0131460D01*
X0282228Y0131314D01*
X0281953Y0131161D01*
X0281682Y0131002D01*
X0281415Y0130836D01*
X0281152Y0130663D01*
X0280893Y0130485D01*
X0280639Y0130300D01*
X0280390Y0130108D01*
X0280145Y0129911D01*
X0279905Y0129708D01*
X0279670Y0129499D01*
X0279440Y0129284D01*
X0279216Y0129064D01*
X0278997Y0128839D01*
X0278784Y0128608D01*
X0278576Y0128372D01*
X0278374Y0128130D01*
X0278179Y0127885D01*
X0277989Y0127634D01*
X0277805Y0127379D01*
X0277628Y0127119D01*
X0277457Y0126855D01*
X0277293Y0126587D01*
X0277135Y0126315D01*
X0276984Y0126040D01*
X0276840Y0125760D01*
X0276702Y0125478D01*
X0276572Y0125192D01*
X0276448Y0124903D01*
X0276332Y0124610D01*
X0276223Y0124316D01*
X0276121Y0124018D01*
X0276027Y0123719D01*
X0275939Y0123416D01*
X0275859Y0123112D01*
X0275787Y0122807D01*
X0275722Y0122499D01*
X0275665Y0122190D01*
X0275615Y0121879D01*
X0275573Y0121568D01*
X0275538Y0121255D01*
X0275512Y0120942D01*
X0275492Y0120628D01*
X0275481Y0120314D01*
X0275477Y0120000D01*
X0275481Y0119686D01*
X0275492Y0119372D01*
X0275512Y0119058D01*
X0275538Y0118745D01*
X0275573Y0118432D01*
X0275615Y0118121D01*
X0275665Y0117810D01*
X0275722Y0117501D01*
X0275787Y0117193D01*
X0275859Y0116888D01*
X0275939Y0116584D01*
X0276027Y0116281D01*
X0276121Y0115982D01*
X0276223Y0115684D01*
X0276332Y0115390D01*
X0276448Y0115097D01*
X0276572Y0114808D01*
X0276702Y0114522D01*
X0276840Y0114240D01*
X0276984Y0113960D01*
X0277135Y0113685D01*
X0277293Y0113413D01*
X0277457Y0113145D01*
X0277628Y0112881D01*
X0277805Y0112621D01*
X0277989Y0112366D01*
X0278179Y0112115D01*
X0278374Y0111870D01*
X0278576Y0111628D01*
X0278784Y0111392D01*
X0278997Y0111161D01*
X0279216Y0110936D01*
X0279440Y0110716D01*
X0279670Y0110501D01*
X0279905Y0110292D01*
X0280145Y0110089D01*
X0280390Y0109892D01*
X0280639Y0109700D01*
X0280893Y0109515D01*
X0281152Y0109337D01*
X0281415Y0109164D01*
X0281682Y0108998D01*
X0281953Y0108839D01*
X0282228Y0108686D01*
X0282506Y0108540D01*
X0282788Y0108401D01*
X0283073Y0108269D01*
X0283362Y0108144D01*
X0283653Y0108026D01*
X0283947Y0107915D01*
X0284244Y0107812D01*
X0284543Y0107715D01*
X0284845Y0107626D01*
X0285148Y0107545D01*
X0285454Y0107471D01*
X0285761Y0107404D01*
X0286070Y0107345D01*
X0286380Y0107293D01*
X0286691Y0107249D01*
X0287003Y0107213D01*
X0287316Y0107184D01*
X0287630Y0107163D01*
X0287944Y0107150D01*
X0288258Y0107144D01*
X0288573Y0107146D01*
X0288887Y0107156D01*
X0289201Y0107173D01*
X0289514Y0107198D01*
X0289827Y0107231D01*
X0290139Y0107271D01*
X0290449Y0107319D01*
X0290759Y0107375D01*
X0291067Y0107438D01*
X0291373Y0107509D01*
X0291677Y0107587D01*
X0291980Y0107672D01*
X0292280Y0107765D01*
X0292578Y0107865D01*
X0292874Y0107973D01*
X0293166Y0108087D01*
X0293456Y0108209D01*
X0293743Y0108338D01*
X0294027Y0108474D01*
X0294307Y0108616D01*
X0294583Y0108766D01*
X0294856Y0108922D01*
X0295125Y0109085D01*
X0295390Y0109254D01*
X0295650Y0109430D01*
X0295907Y0109612D01*
X0296158Y0109800D01*
X0296406Y0109994D01*
X0296648Y0110195D01*
X0296885Y0110401D01*
X0297117Y0110613D01*
X0297344Y0110831D01*
X0297566Y0111054D01*
X0297782Y0111282D01*
X0297992Y0111516D01*
X0298196Y0111754D01*
X0298395Y0111998D01*
X0298588Y0112246D01*
X0298513Y0112303D01*
X0298321Y0112056D01*
X0298124Y0111814D01*
X0297921Y0111577D01*
X0297712Y0111346D01*
X0297498Y0111119D01*
X0297278Y0110897D01*
X0297053Y0110681D01*
X0296822Y0110471D01*
X0296587Y0110266D01*
X0296346Y0110067D01*
X0296101Y0109874D01*
X0295851Y0109688D01*
X0295597Y0109507D01*
X0295338Y0109332D01*
X0295075Y0109164D01*
X0294808Y0109003D01*
X0294537Y0108848D01*
X0294263Y0108699D01*
X0293985Y0108558D01*
X0293703Y0108423D01*
X0293419Y0108295D01*
X0293131Y0108174D01*
X0292840Y0108060D01*
X0292547Y0107954D01*
X0292251Y0107854D01*
X0291953Y0107762D01*
X0291653Y0107677D01*
X0291350Y0107600D01*
X0291046Y0107530D01*
X0290741Y0107467D01*
X0290434Y0107412D01*
X0290125Y0107364D01*
X0289816Y0107324D01*
X0289505Y0107292D01*
X0289194Y0107267D01*
X0288883Y0107250D01*
X0288571Y0107240D01*
X0288259Y0107238D01*
X0287947Y0107244D01*
X0287635Y0107257D01*
X0287324Y0107278D01*
X0287013Y0107306D01*
X0286703Y0107343D01*
X0286394Y0107386D01*
X0286086Y0107437D01*
X0285779Y0107496D01*
X0285475Y0107562D01*
X0285171Y0107636D01*
X0284870Y0107717D01*
X0284571Y0107805D01*
X0284274Y0107901D01*
X0283979Y0108004D01*
X0283687Y0108114D01*
X0283398Y0108231D01*
X0283111Y0108355D01*
X0282828Y0108486D01*
X0282548Y0108624D01*
X0282272Y0108769D01*
X0281999Y0108921D01*
X0281730Y0109079D01*
X0281465Y0109244D01*
X0281204Y0109415D01*
X0280948Y0109592D01*
X0280695Y0109776D01*
X0280448Y0109966D01*
X0280205Y0110161D01*
X0279966Y0110363D01*
X0279733Y0110571D01*
X0279505Y0110784D01*
X0279283Y0111002D01*
X0279065Y0111226D01*
X0278854Y0111455D01*
X0278648Y0111690D01*
X0278447Y0111929D01*
X0278253Y0112173D01*
X0278065Y0112422D01*
X0277882Y0112675D01*
X0277706Y0112933D01*
X0277537Y0113195D01*
X0277374Y0113461D01*
X0277217Y0113731D01*
X0277067Y0114005D01*
X0276924Y0114282D01*
X0276787Y0114562D01*
X0276658Y0114846D01*
X0276535Y0115133D01*
X0276420Y0115423D01*
X0276312Y0115716D01*
X0276210Y0116011D01*
X0276116Y0116309D01*
X0276030Y0116609D01*
X0275951Y0116910D01*
X0275879Y0117214D01*
X0275814Y0117519D01*
X0275757Y0117826D01*
X0275708Y0118134D01*
X0275666Y0118444D01*
X0275632Y0118754D01*
X0275605Y0119065D01*
X0275586Y0119376D01*
X0275575Y0119688D01*
X0275571Y0120000D01*
X0275575Y0120312D01*
X0275586Y0120624D01*
X0275605Y0120935D01*
X0275632Y0121246D01*
X0275666Y0121556D01*
X0275708Y0121866D01*
X0275757Y0122174D01*
X0275814Y0122481D01*
X0275879Y0122786D01*
X0275951Y0123090D01*
X0276030Y0123391D01*
X0276116Y0123691D01*
X0276210Y0123989D01*
X0276312Y0124284D01*
X0276420Y0124577D01*
X0276535Y0124867D01*
X0276658Y0125154D01*
X0276787Y0125438D01*
X0276924Y0125718D01*
X0277067Y0125995D01*
X0277217Y0126269D01*
X0277374Y0126539D01*
X0277537Y0126805D01*
X0277706Y0127067D01*
X0277882Y0127325D01*
X0278065Y0127578D01*
X0278253Y0127827D01*
X0278447Y0128071D01*
X0278648Y0128310D01*
X0278854Y0128545D01*
X0279065Y0128774D01*
X0279283Y0128998D01*
X0279505Y0129216D01*
X0279733Y0129429D01*
X0279966Y0129637D01*
X0280205Y0129839D01*
X0280448Y0130034D01*
X0280695Y0130224D01*
X0280948Y0130408D01*
X0281204Y0130585D01*
X0281465Y0130756D01*
X0281730Y0130921D01*
X0281999Y0131079D01*
X0282272Y0131231D01*
X0282548Y0131376D01*
X0282828Y0131514D01*
X0283111Y0131645D01*
X0283398Y0131769D01*
X0283687Y0131886D01*
X0283979Y0131996D01*
X0284274Y0132099D01*
X0284571Y0132195D01*
X0284870Y0132283D01*
X0285171Y0132364D01*
X0285475Y0132438D01*
X0285779Y0132504D01*
X0286086Y0132563D01*
X0286394Y0132614D01*
X0286703Y0132657D01*
X0287013Y0132694D01*
X0287324Y0132722D01*
X0287635Y0132743D01*
X0287947Y0132756D01*
X0288259Y0132762D01*
X0288571Y0132760D01*
X0288883Y0132750D01*
X0289194Y0132733D01*
X0289505Y0132708D01*
X0289816Y0132676D01*
X0290125Y0132636D01*
X0290434Y0132588D01*
X0290741Y0132533D01*
X0291046Y0132470D01*
X0291350Y0132400D01*
X0291653Y0132323D01*
X0291953Y0132238D01*
X0292251Y0132146D01*
X0292547Y0132046D01*
X0292840Y0131940D01*
X0293131Y0131826D01*
X0293419Y0131705D01*
X0293703Y0131577D01*
X0293985Y0131442D01*
X0294263Y0131301D01*
X0294537Y0131152D01*
X0294808Y0130997D01*
X0295075Y0130836D01*
X0295338Y0130668D01*
X0295597Y0130493D01*
X0295851Y0130312D01*
X0296101Y0130126D01*
X0296346Y0129933D01*
X0296587Y0129734D01*
X0296822Y0129529D01*
X0297053Y0129319D01*
X0297278Y0129103D01*
X0297498Y0128881D01*
X0297712Y0128654D01*
X0297921Y0128423D01*
X0298124Y0128186D01*
X0298321Y0127944D01*
X0298513Y0127697D01*
X0298437Y0127641D01*
X0298247Y0127886D01*
X0298052Y0128126D01*
X0297850Y0128361D01*
X0297643Y0128591D01*
X0297430Y0128816D01*
X0297212Y0129036D01*
X0296988Y0129250D01*
X0296759Y0129459D01*
X0296526Y0129662D01*
X0296287Y0129860D01*
X0296044Y0130051D01*
X0295795Y0130237D01*
X0295543Y0130416D01*
X0295286Y0130589D01*
X0295025Y0130756D01*
X0294760Y0130917D01*
X0294491Y0131070D01*
X0294219Y0131218D01*
X0293943Y0131358D01*
X0293663Y0131492D01*
X0293381Y0131619D01*
X0293095Y0131739D01*
X0292807Y0131852D01*
X0292516Y0131958D01*
X0292222Y0132056D01*
X0291926Y0132148D01*
X0291628Y0132232D01*
X0291328Y0132309D01*
X0291026Y0132378D01*
X0290723Y0132441D01*
X0290418Y0132495D01*
X0290112Y0132543D01*
X0289804Y0132582D01*
X0289496Y0132614D01*
X0289188Y0132639D01*
X0288878Y0132656D01*
X0288569Y0132666D01*
X0288259Y0132668D01*
X0287949Y0132662D01*
X0287640Y0132649D01*
X0287331Y0132628D01*
X0287022Y0132600D01*
X0286715Y0132564D01*
X0286408Y0132521D01*
X0286102Y0132470D01*
X0285798Y0132412D01*
X0285495Y0132346D01*
X0285194Y0132273D01*
X0284895Y0132193D01*
X0284598Y0132105D01*
X0284303Y0132010D01*
X0284011Y0131908D01*
X0283721Y0131799D01*
X0283434Y0131682D01*
X0283150Y0131559D01*
X0282869Y0131429D01*
X0282591Y0131292D01*
X0282317Y0131148D01*
X0282046Y0130998D01*
X0281779Y0130841D01*
X0281516Y0130677D01*
X0281257Y0130507D01*
X0281002Y0130331D01*
X0280751Y0130149D01*
X0280506Y0129960D01*
X0280264Y0129766D01*
X0280028Y0129566D01*
X0279797Y0129360D01*
X0279570Y0129148D01*
X0279349Y0128931D01*
X0279134Y0128709D01*
X0278923Y0128482D01*
X0278719Y0128249D01*
X0278520Y0128011D01*
X0278327Y0127769D01*
X0278140Y0127522D01*
X0277959Y0127271D01*
X0277785Y0127015D01*
X0277616Y0126755D01*
X0277454Y0126491D01*
X0277299Y0126223D01*
X0277150Y0125951D01*
X0277008Y0125676D01*
X0276872Y0125397D01*
X0276744Y0125116D01*
X0276622Y0124831D01*
X0276508Y0124543D01*
X0276400Y0124252D01*
X0276300Y0123959D01*
X0276206Y0123664D01*
X0276120Y0123366D01*
X0276042Y0123067D01*
X0275971Y0122765D01*
X0275907Y0122462D01*
X0275850Y0122158D01*
X0275801Y0121852D01*
X0275760Y0121545D01*
X0275726Y0121237D01*
X0275699Y0120928D01*
X0275680Y0120619D01*
X0275669Y0120310D01*
X0275665Y0120000D01*
X0275669Y0119690D01*
X0275680Y0119381D01*
X0275699Y0119072D01*
X0275726Y0118763D01*
X0275760Y0118455D01*
X0275801Y0118148D01*
X0275850Y0117842D01*
X0275907Y0117538D01*
X0275971Y0117235D01*
X0276042Y0116933D01*
X0276120Y0116634D01*
X0276206Y0116336D01*
X0276300Y0116041D01*
X0276400Y0115748D01*
X0276508Y0115457D01*
X0276622Y0115169D01*
X0276744Y0114884D01*
X0276872Y0114603D01*
X0277008Y0114324D01*
X0277150Y0114049D01*
X0277299Y0113777D01*
X0277454Y0113509D01*
X0277616Y0113245D01*
X0277785Y0112985D01*
X0277959Y0112729D01*
X0278140Y0112478D01*
X0278327Y0112231D01*
X0278520Y0111989D01*
X0278719Y0111751D01*
X0278923Y0111518D01*
X0279134Y0111291D01*
X0279349Y0111069D01*
X0279570Y0110852D01*
X0279797Y0110640D01*
X0280028Y0110434D01*
X0280264Y0110234D01*
X0280506Y0110040D01*
X0280751Y0109851D01*
X0281002Y0109669D01*
X0281257Y0109493D01*
X0281516Y0109323D01*
X0281779Y0109159D01*
X0282046Y0109002D01*
X0282317Y0108852D01*
X0282591Y0108708D01*
X0282869Y0108571D01*
X0283150Y0108441D01*
X0283434Y0108318D01*
X0283721Y0108201D01*
X0284011Y0108092D01*
X0284303Y0107990D01*
X0284598Y0107895D01*
X0284895Y0107807D01*
X0285194Y0107727D01*
X0285495Y0107654D01*
X0285798Y0107588D01*
X0286102Y0107530D01*
X0286408Y0107479D01*
X0286715Y0107436D01*
X0287022Y0107400D01*
X0287331Y0107372D01*
X0287640Y0107351D01*
X0287949Y0107338D01*
X0288259Y0107332D01*
X0288569Y0107334D01*
X0288878Y0107344D01*
X0289188Y0107361D01*
X0289496Y0107386D01*
X0289804Y0107418D01*
X0290112Y0107457D01*
X0290418Y0107505D01*
X0290723Y0107559D01*
X0291026Y0107622D01*
X0291328Y0107691D01*
X0291628Y0107768D01*
X0291926Y0107852D01*
X0292222Y0107944D01*
X0292516Y0108042D01*
X0292807Y0108148D01*
X0293095Y0108261D01*
X0293381Y0108381D01*
X0293663Y0108508D01*
X0293943Y0108642D01*
X0294219Y0108782D01*
X0294491Y0108930D01*
X0294760Y0109083D01*
X0295025Y0109244D01*
X0295286Y0109411D01*
X0295543Y0109584D01*
X0295795Y0109763D01*
X0296044Y0109949D01*
X0296287Y0110140D01*
X0296526Y0110338D01*
X0296759Y0110541D01*
X0296988Y0110750D01*
X0297212Y0110964D01*
X0297430Y0111184D01*
X0297643Y0111409D01*
X0297850Y0111639D01*
X0298052Y0111874D01*
X0298247Y0112114D01*
X0298437Y0112359D01*
X0298362Y0112416D01*
X0298174Y0112173D01*
X0297979Y0111934D01*
X0297779Y0111701D01*
X0297574Y0111473D01*
X0297362Y0111249D01*
X0297146Y0111031D01*
X0296924Y0110818D01*
X0296697Y0110611D01*
X0296465Y0110409D01*
X0296228Y0110213D01*
X0295986Y0110023D01*
X0295740Y0109839D01*
X0295489Y0109661D01*
X0295234Y0109489D01*
X0294975Y0109324D01*
X0294712Y0109164D01*
X0294445Y0109012D01*
X0294175Y0108865D01*
X0293901Y0108726D01*
X0293624Y0108593D01*
X0293343Y0108467D01*
X0293060Y0108348D01*
X0292773Y0108236D01*
X0292484Y0108131D01*
X0292193Y0108033D01*
X0291899Y0107942D01*
X0291603Y0107859D01*
X0291306Y0107782D01*
X0291006Y0107713D01*
X0290705Y0107652D01*
X0290402Y0107597D01*
X0290098Y0107551D01*
X0289793Y0107511D01*
X0289488Y0107479D01*
X0289181Y0107455D01*
X0288874Y0107438D01*
X0288567Y0107428D01*
X0288259Y0107426D01*
X0287952Y0107432D01*
X0287645Y0107445D01*
X0287338Y0107465D01*
X0287032Y0107494D01*
X0286726Y0107529D01*
X0286422Y0107572D01*
X0286119Y0107623D01*
X0285817Y0107680D01*
X0285516Y0107746D01*
X0285217Y0107818D01*
X0284921Y0107898D01*
X0284626Y0107985D01*
X0284333Y0108079D01*
X0284043Y0108181D01*
X0283755Y0108289D01*
X0283470Y0108404D01*
X0283188Y0108527D01*
X0282909Y0108656D01*
X0282633Y0108792D01*
X0282361Y0108935D01*
X0282092Y0109084D01*
X0281827Y0109240D01*
X0281566Y0109402D01*
X0281309Y0109571D01*
X0281056Y0109746D01*
X0280808Y0109927D01*
X0280564Y0110114D01*
X0280324Y0110307D01*
X0280090Y0110505D01*
X0279860Y0110710D01*
X0279635Y0110920D01*
X0279416Y0111135D01*
X0279202Y0111356D01*
X0278993Y0111581D01*
X0278790Y0111812D01*
X0278593Y0112048D01*
X0278401Y0112289D01*
X0278216Y0112534D01*
X0278036Y0112783D01*
X0277863Y0113037D01*
X0277696Y0113295D01*
X0277535Y0113557D01*
X0277381Y0113823D01*
X0277233Y0114093D01*
X0277092Y0114366D01*
X0276957Y0114643D01*
X0276830Y0114922D01*
X0276709Y0115205D01*
X0276595Y0115491D01*
X0276489Y0115779D01*
X0276389Y0116070D01*
X0276296Y0116363D01*
X0276211Y0116659D01*
X0276133Y0116956D01*
X0276062Y0117255D01*
X0275999Y0117556D01*
X0275943Y0117858D01*
X0275894Y0118162D01*
X0275853Y0118467D01*
X0275819Y0118772D01*
X0275793Y0119078D01*
X0275774Y0119385D01*
X0275763Y0119693D01*
X0275759Y0120000D01*
X0275763Y0120307D01*
X0275774Y0120615D01*
X0275793Y0120922D01*
X0275819Y0121228D01*
X0275853Y0121533D01*
X0275894Y0121838D01*
X0275943Y0122142D01*
X0275999Y0122444D01*
X0276062Y0122745D01*
X0276133Y0123044D01*
X0276211Y0123341D01*
X0276296Y0123637D01*
X0276389Y0123930D01*
X0276489Y0124221D01*
X0276595Y0124509D01*
X0276709Y0124795D01*
X0276830Y0125078D01*
X0276957Y0125357D01*
X0277092Y0125634D01*
X0277233Y0125907D01*
X0277381Y0126177D01*
X0277535Y0126443D01*
X0277696Y0126705D01*
X0277863Y0126963D01*
X0278036Y0127217D01*
X0278216Y0127466D01*
X0278401Y0127711D01*
X0278593Y0127952D01*
X0278790Y0128188D01*
X0278993Y0128419D01*
X0279202Y0128644D01*
X0279416Y0128865D01*
X0279635Y0129080D01*
X0279860Y0129290D01*
X0280090Y0129495D01*
X0280324Y0129693D01*
X0280564Y0129886D01*
X0280808Y0130073D01*
X0281056Y0130254D01*
X0281309Y0130429D01*
X0281566Y0130598D01*
X0281827Y0130760D01*
X0282092Y0130916D01*
X0282361Y0131065D01*
X0282633Y0131208D01*
X0282909Y0131344D01*
X0283188Y0131473D01*
X0283470Y0131596D01*
X0283755Y0131711D01*
X0284043Y0131819D01*
X0284333Y0131921D01*
X0284626Y0132015D01*
X0284921Y0132102D01*
X0285217Y0132182D01*
X0285516Y0132254D01*
X0285817Y0132320D01*
X0286119Y0132377D01*
X0286422Y0132428D01*
X0286726Y0132471D01*
X0287032Y0132506D01*
X0287338Y0132535D01*
X0287645Y0132555D01*
X0287952Y0132568D01*
X0288259Y0132574D01*
X0288567Y0132572D01*
X0288874Y0132562D01*
X0289181Y0132545D01*
X0289488Y0132521D01*
X0289793Y0132489D01*
X0290098Y0132449D01*
X0290402Y0132403D01*
X0290705Y0132348D01*
X0291006Y0132287D01*
X0291306Y0132218D01*
X0291603Y0132141D01*
X0291899Y0132058D01*
X0292193Y0131967D01*
X0292484Y0131869D01*
X0292773Y0131764D01*
X0293060Y0131652D01*
X0293343Y0131533D01*
X0293624Y0131407D01*
X0293901Y0131274D01*
X0294175Y0131135D01*
X0294445Y0130988D01*
X0294712Y0130836D01*
X0294975Y0130676D01*
X0295234Y0130511D01*
X0295489Y0130339D01*
X0295740Y0130161D01*
X0295986Y0129977D01*
X0296228Y0129787D01*
X0296465Y0129591D01*
X0296697Y0129389D01*
X0296924Y0129182D01*
X0297146Y0128969D01*
X0297362Y0128751D01*
X0297574Y0128527D01*
X0297779Y0128299D01*
X0297979Y0128066D01*
X0298174Y0127827D01*
X0298362Y0127584D01*
X0298287Y0127528D01*
X0298100Y0127769D01*
X0297907Y0128006D01*
X0297708Y0128237D01*
X0297504Y0128464D01*
X0297295Y0128686D01*
X0297080Y0128902D01*
X0296859Y0129113D01*
X0296634Y0129319D01*
X0296404Y0129519D01*
X0296168Y0129714D01*
X0295929Y0129902D01*
X0295684Y0130085D01*
X0295435Y0130262D01*
X0295182Y0130432D01*
X0294925Y0130597D01*
X0294664Y0130755D01*
X0294399Y0130906D01*
X0294131Y0131051D01*
X0293859Y0131190D01*
X0293584Y0131322D01*
X0293305Y0131447D01*
X0293024Y0131565D01*
X0292740Y0131676D01*
X0292453Y0131780D01*
X0292164Y0131878D01*
X0291872Y0131968D01*
X0291579Y0132051D01*
X0291283Y0132126D01*
X0290986Y0132195D01*
X0290687Y0132256D01*
X0290386Y0132310D01*
X0290085Y0132356D01*
X0289782Y0132396D01*
X0289479Y0132427D01*
X0289174Y0132452D01*
X0288870Y0132468D01*
X0288565Y0132478D01*
X0288260Y0132480D01*
X0287955Y0132474D01*
X0287650Y0132461D01*
X0287345Y0132441D01*
X0287041Y0132413D01*
X0286738Y0132378D01*
X0286436Y0132335D01*
X0286135Y0132285D01*
X0285835Y0132228D01*
X0285537Y0132163D01*
X0285241Y0132091D01*
X0284946Y0132012D01*
X0284653Y0131925D01*
X0284363Y0131832D01*
X0284075Y0131731D01*
X0283789Y0131623D01*
X0283506Y0131509D01*
X0283226Y0131387D01*
X0282949Y0131259D01*
X0282676Y0131124D01*
X0282406Y0130983D01*
X0282139Y0130834D01*
X0281876Y0130680D01*
X0281617Y0130519D01*
X0281361Y0130351D01*
X0281110Y0130178D01*
X0280864Y0129998D01*
X0280622Y0129812D01*
X0280384Y0129621D01*
X0280151Y0129424D01*
X0279923Y0129221D01*
X0279700Y0129012D01*
X0279482Y0128799D01*
X0279270Y0128580D01*
X0279063Y0128356D01*
X0278861Y0128126D01*
X0278665Y0127892D01*
X0278475Y0127654D01*
X0278291Y0127410D01*
X0278113Y0127163D01*
X0277941Y0126911D01*
X0277775Y0126654D01*
X0277616Y0126394D01*
X0277462Y0126130D01*
X0277316Y0125863D01*
X0277176Y0125592D01*
X0277042Y0125317D01*
X0276916Y0125040D01*
X0276796Y0124759D01*
X0276683Y0124475D01*
X0276577Y0124189D01*
X0276478Y0123901D01*
X0276386Y0123610D01*
X0276302Y0123316D01*
X0276224Y0123021D01*
X0276154Y0122724D01*
X0276091Y0122426D01*
X0276035Y0122126D01*
X0275987Y0121824D01*
X0275946Y0121522D01*
X0275913Y0121219D01*
X0275887Y0120915D01*
X0275868Y0120610D01*
X0275857Y0120305D01*
X0275853Y0120000D01*
X0275857Y0119695D01*
X0275868Y0119390D01*
X0275887Y0119085D01*
X0275913Y0118781D01*
X0275946Y0118478D01*
X0275987Y0118176D01*
X0276035Y0117874D01*
X0276091Y0117574D01*
X0276154Y0117276D01*
X0276224Y0116979D01*
X0276302Y0116684D01*
X0276386Y0116390D01*
X0276478Y0116099D01*
X0276577Y0115811D01*
X0276683Y0115525D01*
X0276796Y0115241D01*
X0276916Y0114960D01*
X0277042Y0114683D01*
X0277176Y0114408D01*
X0277316Y0114137D01*
X0277462Y0113870D01*
X0277616Y0113606D01*
X0277775Y0113346D01*
X0277941Y0113089D01*
X0278113Y0112837D01*
X0278291Y0112590D01*
X0278475Y0112346D01*
X0278665Y0112108D01*
X0278861Y0111874D01*
X0279063Y0111644D01*
X0279270Y0111420D01*
X0279482Y0111201D01*
X0279700Y0110988D01*
X0279923Y0110779D01*
X0280151Y0110576D01*
X0280384Y0110379D01*
X0280622Y0110188D01*
X0280864Y0110002D01*
X0281110Y0109822D01*
X0281361Y0109649D01*
X0281617Y0109481D01*
X0281876Y0109320D01*
X0282139Y0109166D01*
X0282406Y0109017D01*
X0282676Y0108876D01*
X0282949Y0108741D01*
X0283226Y0108613D01*
X0283506Y0108491D01*
X0283789Y0108377D01*
X0284075Y0108269D01*
X0284363Y0108168D01*
X0284653Y0108075D01*
X0284946Y0107988D01*
X0285241Y0107909D01*
X0285537Y0107837D01*
X0285835Y0107772D01*
X0286135Y0107715D01*
X0286436Y0107665D01*
X0286738Y0107622D01*
X0287041Y0107587D01*
X0287345Y0107559D01*
X0287650Y0107539D01*
X0287955Y0107526D01*
X0288260Y0107520D01*
X0288565Y0107522D01*
X0288870Y0107532D01*
X0289174Y0107548D01*
X0289479Y0107573D01*
X0289782Y0107604D01*
X0290085Y0107644D01*
X0290386Y0107690D01*
X0290687Y0107744D01*
X0290986Y0107805D01*
X0291283Y0107874D01*
X0291579Y0107949D01*
X0291872Y0108032D01*
X0292164Y0108122D01*
X0292453Y0108220D01*
X0292740Y0108324D01*
X0293024Y0108435D01*
X0293305Y0108553D01*
X0293584Y0108678D01*
X0293859Y0108810D01*
X0294131Y0108949D01*
X0294399Y0109094D01*
X0294664Y0109245D01*
X0294925Y0109403D01*
X0295182Y0109568D01*
X0295435Y0109738D01*
X0295684Y0109915D01*
X0295929Y0110098D01*
X0296168Y0110286D01*
X0296404Y0110481D01*
X0296634Y0110681D01*
X0296859Y0110887D01*
X0297080Y0111098D01*
X0297295Y0111314D01*
X0297504Y0111536D01*
X0297708Y0111763D01*
X0297907Y0111994D01*
X0298100Y0112231D01*
X0298287Y0112472D01*
X0298212Y0112528D01*
X0298026Y0112289D01*
X0297835Y0112054D01*
X0297638Y0111825D01*
X0297435Y0111600D01*
X0297227Y0111379D01*
X0297013Y0111165D01*
X0296795Y0110955D01*
X0296571Y0110751D01*
X0296343Y0110552D01*
X0296109Y0110359D01*
X0295871Y0110172D01*
X0295629Y0109991D01*
X0295382Y0109815D01*
X0295131Y0109646D01*
X0294875Y0109483D01*
X0294616Y0109326D01*
X0294353Y0109176D01*
X0294087Y0109032D01*
X0293817Y0108894D01*
X0293544Y0108763D01*
X0293268Y0108639D01*
X0292988Y0108522D01*
X0292706Y0108412D01*
X0292422Y0108308D01*
X0292135Y0108212D01*
X0291845Y0108122D01*
X0291554Y0108040D01*
X0291261Y0107965D01*
X0290965Y0107897D01*
X0290669Y0107836D01*
X0290371Y0107783D01*
X0290071Y0107737D01*
X0289771Y0107698D01*
X0289470Y0107666D01*
X0289168Y0107642D01*
X0288865Y0107625D01*
X0288563Y0107616D01*
X0288260Y0107614D01*
X0287957Y0107620D01*
X0287655Y0107633D01*
X0287352Y0107653D01*
X0287051Y0107681D01*
X0286750Y0107716D01*
X0286450Y0107758D01*
X0286151Y0107808D01*
X0285854Y0107865D01*
X0285558Y0107929D01*
X0285264Y0108000D01*
X0284971Y0108079D01*
X0284681Y0108165D01*
X0284392Y0108258D01*
X0284107Y0108357D01*
X0283823Y0108464D01*
X0283543Y0108578D01*
X0283265Y0108698D01*
X0282990Y0108826D01*
X0282718Y0108960D01*
X0282450Y0109100D01*
X0282185Y0109247D01*
X0281924Y0109401D01*
X0281667Y0109561D01*
X0281414Y0109727D01*
X0281165Y0109899D01*
X0280920Y0110077D01*
X0280679Y0110262D01*
X0280444Y0110452D01*
X0280213Y0110647D01*
X0279986Y0110849D01*
X0279765Y0111055D01*
X0279549Y0111268D01*
X0279338Y0111485D01*
X0279133Y0111707D01*
X0278933Y0111935D01*
X0278738Y0112167D01*
X0278550Y0112404D01*
X0278367Y0112646D01*
X0278190Y0112891D01*
X0278019Y0113142D01*
X0277855Y0113396D01*
X0277696Y0113654D01*
X0277544Y0113916D01*
X0277399Y0114181D01*
X0277260Y0114450D01*
X0277127Y0114723D01*
X0277002Y0114998D01*
X0276883Y0115277D01*
X0276771Y0115558D01*
X0276666Y0115842D01*
X0276567Y0116129D01*
X0276476Y0116418D01*
X0276392Y0116709D01*
X0276315Y0117002D01*
X0276246Y0117296D01*
X0276183Y0117593D01*
X0276128Y0117890D01*
X0276080Y0118189D01*
X0276039Y0118489D01*
X0276006Y0118791D01*
X0275980Y0119092D01*
X0275962Y0119395D01*
X0275951Y0119697D01*
X0275947Y0120000D01*
X0275951Y0120303D01*
X0275962Y0120605D01*
X0275980Y0120908D01*
X0276006Y0121209D01*
X0276039Y0121511D01*
X0276080Y0121811D01*
X0276128Y0122110D01*
X0276183Y0122407D01*
X0276246Y0122704D01*
X0276315Y0122998D01*
X0276392Y0123291D01*
X0276476Y0123582D01*
X0276567Y0123871D01*
X0276666Y0124158D01*
X0276771Y0124442D01*
X0276883Y0124723D01*
X0277002Y0125002D01*
X0277127Y0125277D01*
X0277260Y0125550D01*
X0277399Y0125819D01*
X0277544Y0126084D01*
X0277696Y0126346D01*
X0277855Y0126604D01*
X0278019Y0126858D01*
X0278190Y0127109D01*
X0278367Y0127354D01*
X0278550Y0127596D01*
X0278738Y0127833D01*
X0278933Y0128065D01*
X0279133Y0128293D01*
X0279338Y0128515D01*
X0279549Y0128732D01*
X0279765Y0128945D01*
X0279986Y0129151D01*
X0280213Y0129353D01*
X0280444Y0129548D01*
X0280679Y0129738D01*
X0280920Y0129923D01*
X0281165Y0130101D01*
X0281414Y0130273D01*
X0281667Y0130439D01*
X0281924Y0130599D01*
X0282185Y0130753D01*
X0282450Y0130900D01*
X0282718Y0131040D01*
X0282990Y0131174D01*
X0283265Y0131302D01*
X0283543Y0131422D01*
X0283823Y0131536D01*
X0284107Y0131643D01*
X0284392Y0131742D01*
X0284681Y0131835D01*
X0284971Y0131921D01*
X0285264Y0132000D01*
X0285558Y0132071D01*
X0285854Y0132135D01*
X0286151Y0132192D01*
X0286450Y0132242D01*
X0286750Y0132284D01*
X0287051Y0132319D01*
X0287352Y0132347D01*
X0287655Y0132367D01*
X0287957Y0132380D01*
X0288260Y0132386D01*
X0288563Y0132384D01*
X0288865Y0132375D01*
X0289168Y0132358D01*
X0289470Y0132334D01*
X0289771Y0132302D01*
X0290071Y0132263D01*
X0290371Y0132217D01*
X0290669Y0132164D01*
X0290965Y0132103D01*
X0291261Y0132035D01*
X0291554Y0131960D01*
X0291845Y0131878D01*
X0292135Y0131788D01*
X0292422Y0131692D01*
X0292706Y0131588D01*
X0292988Y0131478D01*
X0293268Y0131361D01*
X0293544Y0131237D01*
X0293817Y0131106D01*
X0294087Y0130968D01*
X0294353Y0130824D01*
X0294616Y0130674D01*
X0294875Y0130517D01*
X0295131Y0130354D01*
X0295382Y0130185D01*
X0295629Y0130009D01*
X0295871Y0129828D01*
X0296109Y0129641D01*
X0296343Y0129448D01*
X0296571Y0129249D01*
X0296795Y0129045D01*
X0297013Y0128835D01*
X0297227Y0128621D01*
X0297435Y0128400D01*
X0297638Y0128175D01*
X0297835Y0127946D01*
X0298026Y0127711D01*
X0298212Y0127472D01*
X0298137Y0127415D01*
X0297952Y0127653D01*
X0297762Y0127885D01*
X0297567Y0128114D01*
X0297366Y0128337D01*
X0297159Y0128555D01*
X0296947Y0128769D01*
X0296730Y0128977D01*
X0296508Y0129179D01*
X0296281Y0129376D01*
X0296050Y0129568D01*
X0295814Y0129754D01*
X0295573Y0129934D01*
X0295328Y0130108D01*
X0295079Y0130276D01*
X0294825Y0130438D01*
X0294568Y0130593D01*
X0294307Y0130742D01*
X0294043Y0130885D01*
X0293775Y0131022D01*
X0293504Y0131151D01*
X0293230Y0131274D01*
X0292953Y0131391D01*
X0292673Y0131500D01*
X0292390Y0131603D01*
X0292106Y0131699D01*
X0291818Y0131787D01*
X0291529Y0131869D01*
X0291238Y0131944D01*
X0290945Y0132011D01*
X0290651Y0132072D01*
X0290355Y0132125D01*
X0290058Y0132170D01*
X0289760Y0132209D01*
X0289461Y0132240D01*
X0289161Y0132264D01*
X0288861Y0132281D01*
X0288561Y0132290D01*
X0288260Y0132292D01*
X0287960Y0132286D01*
X0287659Y0132274D01*
X0287360Y0132253D01*
X0287060Y0132226D01*
X0286762Y0132191D01*
X0286464Y0132149D01*
X0286168Y0132100D01*
X0285873Y0132043D01*
X0285579Y0131979D01*
X0285287Y0131909D01*
X0284997Y0131831D01*
X0284708Y0131745D01*
X0284422Y0131653D01*
X0284138Y0131554D01*
X0283857Y0131448D01*
X0283579Y0131335D01*
X0283303Y0131216D01*
X0283030Y0131089D01*
X0282761Y0130956D01*
X0282495Y0130817D01*
X0282232Y0130671D01*
X0281973Y0130519D01*
X0281717Y0130360D01*
X0281466Y0130195D01*
X0281219Y0130024D01*
X0280976Y0129847D01*
X0280737Y0129664D01*
X0280503Y0129476D01*
X0280274Y0129282D01*
X0280050Y0129082D01*
X0279830Y0128877D01*
X0279616Y0128666D01*
X0279406Y0128450D01*
X0279202Y0128230D01*
X0279004Y0128004D01*
X0278811Y0127773D01*
X0278624Y0127538D01*
X0278442Y0127299D01*
X0278267Y0127055D01*
X0278097Y0126806D01*
X0277934Y0126554D01*
X0277777Y0126298D01*
X0277626Y0126038D01*
X0277482Y0125774D01*
X0277344Y0125507D01*
X0277212Y0125237D01*
X0277088Y0124964D01*
X0276970Y0124687D01*
X0276859Y0124408D01*
X0276754Y0124126D01*
X0276657Y0123842D01*
X0276566Y0123555D01*
X0276483Y0123266D01*
X0276407Y0122976D01*
X0276337Y0122683D01*
X0276275Y0122389D01*
X0276221Y0122094D01*
X0276173Y0121797D01*
X0276133Y0121499D01*
X0276100Y0121200D01*
X0276074Y0120901D01*
X0276056Y0120601D01*
X0276045Y0120301D01*
X0276041Y0120000D01*
X0276045Y0119699D01*
X0276056Y0119399D01*
X0276074Y0119099D01*
X0276100Y0118800D01*
X0276133Y0118501D01*
X0276173Y0118203D01*
X0276221Y0117906D01*
X0276275Y0117611D01*
X0276337Y0117317D01*
X0276407Y0117024D01*
X0276483Y0116734D01*
X0276566Y0116445D01*
X0276657Y0116158D01*
X0276754Y0115874D01*
X0276859Y0115592D01*
X0276970Y0115313D01*
X0277088Y0115036D01*
X0277212Y0114763D01*
X0277344Y0114493D01*
X0277482Y0114226D01*
X0277626Y0113962D01*
X0277777Y0113702D01*
X0277934Y0113446D01*
X0278097Y0113194D01*
X0278267Y0112945D01*
X0278442Y0112701D01*
X0278624Y0112462D01*
X0278811Y0112227D01*
X0279004Y0111996D01*
X0279202Y0111770D01*
X0279406Y0111550D01*
X0279616Y0111334D01*
X0279830Y0111123D01*
X0280050Y0110918D01*
X0280274Y0110718D01*
X0280503Y0110524D01*
X0280737Y0110336D01*
X0280976Y0110153D01*
X0281219Y0109976D01*
X0281466Y0109805D01*
X0281717Y0109640D01*
X0281973Y0109481D01*
X0282232Y0109329D01*
X0282495Y0109183D01*
X0282761Y0109044D01*
X0283030Y0108911D01*
X0283303Y0108784D01*
X0283579Y0108665D01*
X0283857Y0108552D01*
X0284138Y0108446D01*
X0284422Y0108347D01*
X0284708Y0108255D01*
X0284997Y0108169D01*
X0285287Y0108091D01*
X0285579Y0108021D01*
X0285873Y0107957D01*
X0286168Y0107900D01*
X0286464Y0107851D01*
X0286762Y0107809D01*
X0287060Y0107774D01*
X0287360Y0107747D01*
X0287659Y0107726D01*
X0287960Y0107714D01*
X0288260Y0107708D01*
X0288561Y0107710D01*
X0288861Y0107719D01*
X0289161Y0107736D01*
X0289461Y0107760D01*
X0289760Y0107791D01*
X0290058Y0107830D01*
X0290355Y0107875D01*
X0290651Y0107928D01*
X0290945Y0107989D01*
X0291238Y0108056D01*
X0291529Y0108131D01*
X0291818Y0108213D01*
X0292106Y0108301D01*
X0292390Y0108397D01*
X0292673Y0108500D01*
X0292953Y0108609D01*
X0293230Y0108726D01*
X0293504Y0108849D01*
X0293775Y0108978D01*
X0294043Y0109115D01*
X0294307Y0109258D01*
X0294568Y0109407D01*
X0294825Y0109562D01*
X0295079Y0109724D01*
X0295328Y0109892D01*
X0295573Y0110066D01*
X0295814Y0110246D01*
X0296050Y0110432D01*
X0296281Y0110624D01*
X0296508Y0110821D01*
X0296730Y0111023D01*
X0296947Y0111231D01*
X0297159Y0111445D01*
X0297366Y0111663D01*
X0297567Y0111886D01*
X0297762Y0112115D01*
X0297952Y0112347D01*
X0298137Y0112585D01*
X0298061Y0112641D01*
X0297879Y0112406D01*
X0297690Y0112175D01*
X0297496Y0111948D01*
X0297296Y0111726D01*
X0297091Y0111510D01*
X0296881Y0111298D01*
X0296666Y0111092D01*
X0296446Y0110891D01*
X0296220Y0110695D01*
X0295991Y0110505D01*
X0295756Y0110321D01*
X0295517Y0110142D01*
X0295274Y0109969D01*
X0295027Y0109803D01*
X0294775Y0109642D01*
X0294520Y0109488D01*
X0294261Y0109340D01*
X0293999Y0109198D01*
X0293733Y0109063D01*
X0293464Y0108934D01*
X0293192Y0108812D01*
X0292917Y0108696D01*
X0292639Y0108587D01*
X0292359Y0108486D01*
X0292076Y0108391D01*
X0291791Y0108303D01*
X0291504Y0108222D01*
X0291216Y0108147D01*
X0290925Y0108081D01*
X0290633Y0108021D01*
X0290339Y0107968D01*
X0290044Y0107923D01*
X0289749Y0107884D01*
X0289452Y0107853D01*
X0289155Y0107830D01*
X0288857Y0107813D01*
X0288559Y0107804D01*
X0288261Y0107802D01*
X0287962Y0107808D01*
X0287664Y0107820D01*
X0287367Y0107840D01*
X0287070Y0107868D01*
X0286774Y0107902D01*
X0286478Y0107944D01*
X0286184Y0107993D01*
X0285891Y0108049D01*
X0285600Y0108112D01*
X0285310Y0108183D01*
X0285022Y0108260D01*
X0284736Y0108344D01*
X0284452Y0108436D01*
X0284170Y0108534D01*
X0283891Y0108639D01*
X0283615Y0108751D01*
X0283341Y0108870D01*
X0283071Y0108995D01*
X0282803Y0109127D01*
X0282539Y0109266D01*
X0282278Y0109411D01*
X0282021Y0109562D01*
X0281768Y0109719D01*
X0281519Y0109883D01*
X0281273Y0110053D01*
X0281032Y0110228D01*
X0280795Y0110410D01*
X0280563Y0110597D01*
X0280336Y0110789D01*
X0280113Y0110988D01*
X0279895Y0111191D01*
X0279682Y0111400D01*
X0279474Y0111614D01*
X0279272Y0111834D01*
X0279075Y0112057D01*
X0278884Y0112286D01*
X0278698Y0112520D01*
X0278518Y0112757D01*
X0278344Y0112999D01*
X0278176Y0113246D01*
X0278014Y0113496D01*
X0277858Y0113750D01*
X0277708Y0114008D01*
X0277565Y0114270D01*
X0277428Y0114535D01*
X0277297Y0114803D01*
X0277174Y0115074D01*
X0277057Y0115349D01*
X0276946Y0115626D01*
X0276843Y0115906D01*
X0276746Y0116188D01*
X0276656Y0116472D01*
X0276574Y0116759D01*
X0276498Y0117047D01*
X0276429Y0117337D01*
X0276368Y0117629D01*
X0276313Y0117922D01*
X0276266Y0118217D01*
X0276226Y0118512D01*
X0276193Y0118809D01*
X0276168Y0119106D01*
X0276150Y0119404D01*
X0276139Y0119702D01*
X0276135Y0120000D01*
X0276139Y0120298D01*
X0276150Y0120596D01*
X0276168Y0120894D01*
X0276193Y0121191D01*
X0276226Y0121488D01*
X0276266Y0121783D01*
X0276313Y0122078D01*
X0276368Y0122371D01*
X0276429Y0122663D01*
X0276498Y0122953D01*
X0276574Y0123241D01*
X0276656Y0123528D01*
X0276746Y0123812D01*
X0276843Y0124094D01*
X0276946Y0124374D01*
X0277057Y0124651D01*
X0277174Y0124926D01*
X0277297Y0125197D01*
X0277428Y0125465D01*
X0277565Y0125730D01*
X0277708Y0125992D01*
X0277858Y0126250D01*
X0278014Y0126504D01*
X0278176Y0126754D01*
X0278344Y0127001D01*
X0278518Y0127243D01*
X0278698Y0127480D01*
X0278884Y0127714D01*
X0279075Y0127943D01*
X0279272Y0128166D01*
X0279474Y0128386D01*
X0279682Y0128600D01*
X0279895Y0128809D01*
X0280113Y0129012D01*
X0280336Y0129211D01*
X0280563Y0129403D01*
X0280795Y0129590D01*
X0281032Y0129772D01*
X0281273Y0129947D01*
X0281519Y0130117D01*
X0281768Y0130281D01*
X0282021Y0130438D01*
X0282278Y0130589D01*
X0282539Y0130734D01*
X0282803Y0130873D01*
X0283071Y0131005D01*
X0283341Y0131130D01*
X0283615Y0131249D01*
X0283891Y0131361D01*
X0284170Y0131466D01*
X0284452Y0131564D01*
X0284736Y0131656D01*
X0285022Y0131740D01*
X0285310Y0131817D01*
X0285600Y0131888D01*
X0285891Y0131951D01*
X0286184Y0132007D01*
X0286478Y0132056D01*
X0286774Y0132098D01*
X0287070Y0132132D01*
X0287367Y0132160D01*
X0287664Y0132180D01*
X0287962Y0132192D01*
X0288261Y0132198D01*
X0288559Y0132196D01*
X0288857Y0132187D01*
X0289155Y0132170D01*
X0289452Y0132147D01*
X0289749Y0132116D01*
X0290044Y0132077D01*
X0290339Y0132032D01*
X0290633Y0131979D01*
X0290925Y0131919D01*
X0291216Y0131853D01*
X0291504Y0131778D01*
X0291791Y0131697D01*
X0292076Y0131609D01*
X0292359Y0131514D01*
X0292639Y0131413D01*
X0292917Y0131304D01*
X0293192Y0131188D01*
X0293464Y0131066D01*
X0293733Y0130937D01*
X0293999Y0130802D01*
X0294261Y0130660D01*
X0294520Y0130512D01*
X0294775Y0130358D01*
X0295027Y0130197D01*
X0295274Y0130031D01*
X0295517Y0129858D01*
X0295756Y0129679D01*
X0295991Y0129495D01*
X0296220Y0129305D01*
X0296446Y0129109D01*
X0296666Y0128908D01*
X0296881Y0128702D01*
X0297091Y0128490D01*
X0297296Y0128274D01*
X0297496Y0128052D01*
X0297690Y0127825D01*
X0297879Y0127594D01*
X0298061Y0127359D01*
X0297986Y0127302D01*
X0297805Y0127536D01*
X0297618Y0127765D01*
X0297425Y0127990D01*
X0297227Y0128210D01*
X0297024Y0128425D01*
X0296815Y0128635D01*
X0296601Y0128840D01*
X0296383Y0129039D01*
X0296159Y0129233D01*
X0295931Y0129422D01*
X0295699Y0129605D01*
X0295462Y0129782D01*
X0295220Y0129953D01*
X0294975Y0130119D01*
X0294726Y0130278D01*
X0294472Y0130431D01*
X0294216Y0130578D01*
X0293955Y0130719D01*
X0293691Y0130853D01*
X0293424Y0130981D01*
X0293154Y0131102D01*
X0292882Y0131217D01*
X0292606Y0131325D01*
X0292328Y0131426D01*
X0292047Y0131520D01*
X0291765Y0131607D01*
X0291480Y0131688D01*
X0291193Y0131761D01*
X0290905Y0131828D01*
X0290615Y0131887D01*
X0290323Y0131939D01*
X0290031Y0131984D01*
X0289737Y0132022D01*
X0289443Y0132053D01*
X0289148Y0132077D01*
X0288853Y0132093D01*
X0288557Y0132102D01*
X0288261Y0132104D01*
X0287965Y0132098D01*
X0287669Y0132086D01*
X0287374Y0132066D01*
X0287079Y0132039D01*
X0286785Y0132005D01*
X0286492Y0131963D01*
X0286200Y0131915D01*
X0285910Y0131859D01*
X0285621Y0131796D01*
X0285333Y0131726D01*
X0285047Y0131649D01*
X0284763Y0131566D01*
X0284482Y0131475D01*
X0284202Y0131377D01*
X0283925Y0131273D01*
X0283651Y0131162D01*
X0283380Y0131044D01*
X0283111Y0130920D01*
X0282846Y0130789D01*
X0282584Y0130651D01*
X0282325Y0130508D01*
X0282070Y0130358D01*
X0281818Y0130201D01*
X0281571Y0130039D01*
X0281328Y0129871D01*
X0281088Y0129696D01*
X0280853Y0129516D01*
X0280623Y0129331D01*
X0280397Y0129139D01*
X0280176Y0128943D01*
X0279960Y0128741D01*
X0279749Y0128533D01*
X0279543Y0128321D01*
X0279342Y0128103D01*
X0279146Y0127881D01*
X0278956Y0127654D01*
X0278772Y0127423D01*
X0278594Y0127187D01*
X0278421Y0126947D01*
X0278254Y0126702D01*
X0278093Y0126454D01*
X0277938Y0126201D01*
X0277790Y0125945D01*
X0277648Y0125686D01*
X0277512Y0125423D01*
X0277382Y0125157D01*
X0277260Y0124888D01*
X0277143Y0124615D01*
X0277034Y0124340D01*
X0276931Y0124063D01*
X0276835Y0123783D01*
X0276746Y0123501D01*
X0276664Y0123216D01*
X0276589Y0122930D01*
X0276521Y0122642D01*
X0276460Y0122353D01*
X0276406Y0122062D01*
X0276359Y0121769D01*
X0276319Y0121476D01*
X0276287Y0121182D01*
X0276262Y0120887D01*
X0276243Y0120592D01*
X0276233Y0120296D01*
X0276229Y0120000D01*
X0276233Y0119704D01*
X0276243Y0119408D01*
X0276262Y0119113D01*
X0276287Y0118818D01*
X0276319Y0118524D01*
X0276359Y0118231D01*
X0276406Y0117938D01*
X0276460Y0117647D01*
X0276521Y0117358D01*
X0276589Y0117070D01*
X0276664Y0116784D01*
X0276746Y0116499D01*
X0276835Y0116217D01*
X0276931Y0115937D01*
X0277034Y0115660D01*
X0277143Y0115385D01*
X0277260Y0115112D01*
X0277382Y0114843D01*
X0277512Y0114577D01*
X0277648Y0114314D01*
X0277790Y0114055D01*
X0277938Y0113799D01*
X0278093Y0113546D01*
X0278254Y0113298D01*
X0278421Y0113053D01*
X0278594Y0112813D01*
X0278772Y0112577D01*
X0278956Y0112346D01*
X0279146Y0112119D01*
X0279342Y0111897D01*
X0279543Y0111679D01*
X0279749Y0111467D01*
X0279960Y0111259D01*
X0280176Y0111057D01*
X0280397Y0110861D01*
X0280623Y0110669D01*
X0280853Y0110484D01*
X0281088Y0110304D01*
X0281328Y0110129D01*
X0281571Y0109961D01*
X0281818Y0109799D01*
X0282070Y0109642D01*
X0282325Y0109492D01*
X0282584Y0109349D01*
X0282846Y0109211D01*
X0283111Y0109080D01*
X0283380Y0108956D01*
X0283651Y0108838D01*
X0283925Y0108727D01*
X0284202Y0108623D01*
X0284482Y0108525D01*
X0284763Y0108434D01*
X0285047Y0108351D01*
X0285333Y0108274D01*
X0285621Y0108204D01*
X0285910Y0108141D01*
X0286200Y0108085D01*
X0286492Y0108037D01*
X0286785Y0107995D01*
X0287079Y0107961D01*
X0287374Y0107934D01*
X0287669Y0107914D01*
X0287965Y0107902D01*
X0288261Y0107896D01*
X0288557Y0107898D01*
X0288853Y0107907D01*
X0289148Y0107923D01*
X0289443Y0107947D01*
X0289737Y0107978D01*
X0290031Y0108016D01*
X0290323Y0108061D01*
X0290615Y0108113D01*
X0290905Y0108172D01*
X0291193Y0108239D01*
X0291480Y0108312D01*
X0291765Y0108393D01*
X0292047Y0108480D01*
X0292328Y0108574D01*
X0292606Y0108675D01*
X0292882Y0108783D01*
X0293154Y0108898D01*
X0293424Y0109019D01*
X0293691Y0109147D01*
X0293955Y0109281D01*
X0294216Y0109422D01*
X0294472Y0109569D01*
X0294726Y0109722D01*
X0294975Y0109881D01*
X0295220Y0110047D01*
X0295462Y0110218D01*
X0295699Y0110395D01*
X0295931Y0110578D01*
X0296159Y0110767D01*
X0296383Y0110961D01*
X0296601Y0111160D01*
X0296815Y0111365D01*
X0297024Y0111575D01*
X0297227Y0111790D01*
X0297425Y0112010D01*
X0297618Y0112235D01*
X0297805Y0112464D01*
X0297986Y0112698D01*
X0368662Y0127809D02*
X0367942Y0127269D01*
X0367943Y0127270D02*
X0367762Y0127503D01*
X0367576Y0127731D01*
X0367384Y0127955D01*
X0367187Y0128174D01*
X0366985Y0128388D01*
X0366777Y0128597D01*
X0366564Y0128800D01*
X0366347Y0128999D01*
X0366124Y0129192D01*
X0365897Y0129380D01*
X0365666Y0129562D01*
X0365430Y0129739D01*
X0365189Y0129909D01*
X0364945Y0130074D01*
X0364697Y0130232D01*
X0364445Y0130385D01*
X0364189Y0130531D01*
X0363930Y0130671D01*
X0363667Y0130805D01*
X0363402Y0130932D01*
X0363133Y0131053D01*
X0362861Y0131167D01*
X0362587Y0131274D01*
X0362310Y0131375D01*
X0362031Y0131469D01*
X0361749Y0131556D01*
X0361466Y0131636D01*
X0361180Y0131709D01*
X0360893Y0131775D01*
X0360604Y0131834D01*
X0360314Y0131886D01*
X0360023Y0131931D01*
X0359731Y0131969D01*
X0359438Y0131999D01*
X0359144Y0132023D01*
X0358850Y0132039D01*
X0358556Y0132048D01*
X0358261Y0132050D01*
X0357966Y0132044D01*
X0357672Y0132032D01*
X0357378Y0132012D01*
X0357085Y0131985D01*
X0356792Y0131951D01*
X0356500Y0131910D01*
X0356210Y0131861D01*
X0355920Y0131806D01*
X0355633Y0131744D01*
X0355346Y0131674D01*
X0355062Y0131597D01*
X0354779Y0131514D01*
X0354499Y0131424D01*
X0354221Y0131327D01*
X0353945Y0131223D01*
X0353672Y0131112D01*
X0353402Y0130995D01*
X0353134Y0130871D01*
X0352870Y0130741D01*
X0352609Y0130604D01*
X0352352Y0130461D01*
X0352098Y0130311D01*
X0351847Y0130156D01*
X0351601Y0129994D01*
X0351359Y0129827D01*
X0351121Y0129653D01*
X0350887Y0129474D01*
X0350657Y0129289D01*
X0350433Y0129099D01*
X0350212Y0128903D01*
X0349997Y0128702D01*
X0349787Y0128495D01*
X0349582Y0128284D01*
X0349382Y0128067D01*
X0349187Y0127846D01*
X0348998Y0127620D01*
X0348815Y0127390D01*
X0348637Y0127155D01*
X0348465Y0126915D01*
X0348299Y0126672D01*
X0348139Y0126425D01*
X0347985Y0126174D01*
X0347837Y0125919D01*
X0347695Y0125660D01*
X0347560Y0125399D01*
X0347431Y0125134D01*
X0347309Y0124866D01*
X0347193Y0124595D01*
X0347084Y0124321D01*
X0346982Y0124045D01*
X0346887Y0123766D01*
X0346798Y0123485D01*
X0346716Y0123202D01*
X0346641Y0122917D01*
X0346574Y0122630D01*
X0346513Y0122342D01*
X0346459Y0122052D01*
X0346412Y0121761D01*
X0346373Y0121469D01*
X0346341Y0121177D01*
X0346315Y0120883D01*
X0346297Y0120589D01*
X0346287Y0120295D01*
X0346283Y0120000D01*
X0346287Y0119705D01*
X0346297Y0119411D01*
X0346315Y0119117D01*
X0346341Y0118823D01*
X0346373Y0118531D01*
X0346412Y0118239D01*
X0346459Y0117948D01*
X0346513Y0117658D01*
X0346574Y0117370D01*
X0346641Y0117083D01*
X0346716Y0116798D01*
X0346798Y0116515D01*
X0346887Y0116234D01*
X0346982Y0115955D01*
X0347084Y0115679D01*
X0347193Y0115405D01*
X0347309Y0115134D01*
X0347431Y0114866D01*
X0347560Y0114601D01*
X0347695Y0114340D01*
X0347837Y0114081D01*
X0347985Y0113826D01*
X0348139Y0113575D01*
X0348299Y0113328D01*
X0348465Y0113085D01*
X0348637Y0112845D01*
X0348815Y0112610D01*
X0348998Y0112380D01*
X0349187Y0112154D01*
X0349382Y0111933D01*
X0349582Y0111716D01*
X0349787Y0111505D01*
X0349997Y0111298D01*
X0350212Y0111097D01*
X0350433Y0110901D01*
X0350657Y0110711D01*
X0350887Y0110526D01*
X0351121Y0110347D01*
X0351359Y0110173D01*
X0351601Y0110006D01*
X0351847Y0109844D01*
X0352098Y0109689D01*
X0352352Y0109539D01*
X0352609Y0109396D01*
X0352870Y0109259D01*
X0353134Y0109129D01*
X0353402Y0109005D01*
X0353672Y0108888D01*
X0353945Y0108777D01*
X0354221Y0108673D01*
X0354499Y0108576D01*
X0354779Y0108486D01*
X0355062Y0108403D01*
X0355346Y0108326D01*
X0355633Y0108256D01*
X0355920Y0108194D01*
X0356210Y0108139D01*
X0356500Y0108090D01*
X0356792Y0108049D01*
X0357085Y0108015D01*
X0357378Y0107988D01*
X0357672Y0107968D01*
X0357966Y0107956D01*
X0358261Y0107950D01*
X0358556Y0107952D01*
X0358850Y0107961D01*
X0359144Y0107977D01*
X0359438Y0108001D01*
X0359731Y0108031D01*
X0360023Y0108069D01*
X0360314Y0108114D01*
X0360604Y0108166D01*
X0360893Y0108225D01*
X0361180Y0108291D01*
X0361466Y0108364D01*
X0361749Y0108444D01*
X0362031Y0108531D01*
X0362310Y0108625D01*
X0362587Y0108726D01*
X0362861Y0108833D01*
X0363133Y0108947D01*
X0363402Y0109068D01*
X0363667Y0109195D01*
X0363930Y0109329D01*
X0364189Y0109469D01*
X0364445Y0109615D01*
X0364697Y0109768D01*
X0364945Y0109926D01*
X0365189Y0110091D01*
X0365430Y0110261D01*
X0365666Y0110438D01*
X0365897Y0110620D01*
X0366124Y0110808D01*
X0366347Y0111001D01*
X0366564Y0111200D01*
X0366777Y0111403D01*
X0366985Y0111612D01*
X0367187Y0111826D01*
X0367384Y0112045D01*
X0367576Y0112269D01*
X0367762Y0112497D01*
X0367943Y0112730D01*
X0368662Y0112191D01*
X0368663Y0112190D01*
X0368469Y0111940D01*
X0368269Y0111694D01*
X0368063Y0111454D01*
X0367851Y0111219D01*
X0367633Y0110989D01*
X0367410Y0110764D01*
X0367182Y0110545D01*
X0366948Y0110331D01*
X0366709Y0110123D01*
X0366465Y0109921D01*
X0366216Y0109726D01*
X0365962Y0109536D01*
X0365704Y0109353D01*
X0365442Y0109176D01*
X0365175Y0109005D01*
X0364904Y0108841D01*
X0364629Y0108684D01*
X0364351Y0108533D01*
X0364068Y0108389D01*
X0363783Y0108253D01*
X0363494Y0108123D01*
X0363202Y0108000D01*
X0362907Y0107885D01*
X0362610Y0107777D01*
X0362309Y0107676D01*
X0362007Y0107582D01*
X0361702Y0107496D01*
X0361395Y0107417D01*
X0361087Y0107346D01*
X0360777Y0107283D01*
X0360465Y0107227D01*
X0360152Y0107178D01*
X0359838Y0107138D01*
X0359523Y0107105D01*
X0359207Y0107080D01*
X0358891Y0107062D01*
X0358575Y0107052D01*
X0358258Y0107050D01*
X0357941Y0107056D01*
X0357625Y0107069D01*
X0357309Y0107091D01*
X0356994Y0107119D01*
X0356679Y0107156D01*
X0356366Y0107200D01*
X0356053Y0107252D01*
X0355742Y0107312D01*
X0355433Y0107379D01*
X0355125Y0107454D01*
X0354819Y0107536D01*
X0354516Y0107625D01*
X0354214Y0107722D01*
X0353915Y0107827D01*
X0353619Y0107939D01*
X0353325Y0108057D01*
X0353035Y0108183D01*
X0352748Y0108316D01*
X0352463Y0108457D01*
X0352183Y0108604D01*
X0351906Y0108757D01*
X0351633Y0108918D01*
X0351364Y0109085D01*
X0351099Y0109259D01*
X0350839Y0109439D01*
X0350583Y0109625D01*
X0350332Y0109818D01*
X0350085Y0110016D01*
X0349843Y0110221D01*
X0349607Y0110431D01*
X0349375Y0110648D01*
X0349150Y0110870D01*
X0348929Y0111097D01*
X0348714Y0111329D01*
X0348505Y0111567D01*
X0348302Y0111810D01*
X0348104Y0112058D01*
X0347913Y0112310D01*
X0347728Y0112567D01*
X0347550Y0112829D01*
X0347378Y0113095D01*
X0347212Y0113364D01*
X0347053Y0113638D01*
X0346901Y0113916D01*
X0346756Y0114197D01*
X0346617Y0114482D01*
X0346486Y0114770D01*
X0346362Y0115062D01*
X0346244Y0115356D01*
X0346134Y0115653D01*
X0346032Y0115952D01*
X0345937Y0116254D01*
X0345849Y0116558D01*
X0345768Y0116865D01*
X0345695Y0117173D01*
X0345630Y0117483D01*
X0345572Y0117794D01*
X0345522Y0118107D01*
X0345480Y0118421D01*
X0345445Y0118735D01*
X0345418Y0119051D01*
X0345398Y0119367D01*
X0345387Y0119683D01*
X0345383Y0120000D01*
X0345387Y0120317D01*
X0345398Y0120633D01*
X0345418Y0120949D01*
X0345445Y0121265D01*
X0345480Y0121579D01*
X0345522Y0121893D01*
X0345572Y0122206D01*
X0345630Y0122517D01*
X0345695Y0122827D01*
X0345768Y0123135D01*
X0345849Y0123442D01*
X0345937Y0123746D01*
X0346032Y0124048D01*
X0346134Y0124347D01*
X0346244Y0124644D01*
X0346362Y0124938D01*
X0346486Y0125230D01*
X0346617Y0125518D01*
X0346756Y0125803D01*
X0346901Y0126084D01*
X0347053Y0126362D01*
X0347212Y0126636D01*
X0347378Y0126905D01*
X0347550Y0127171D01*
X0347728Y0127433D01*
X0347913Y0127690D01*
X0348104Y0127942D01*
X0348302Y0128190D01*
X0348505Y0128433D01*
X0348714Y0128671D01*
X0348929Y0128903D01*
X0349150Y0129130D01*
X0349375Y0129352D01*
X0349607Y0129569D01*
X0349843Y0129779D01*
X0350085Y0129984D01*
X0350332Y0130182D01*
X0350583Y0130375D01*
X0350839Y0130561D01*
X0351099Y0130741D01*
X0351364Y0130915D01*
X0351633Y0131082D01*
X0351906Y0131243D01*
X0352183Y0131396D01*
X0352463Y0131543D01*
X0352748Y0131684D01*
X0353035Y0131817D01*
X0353325Y0131943D01*
X0353619Y0132061D01*
X0353915Y0132173D01*
X0354214Y0132278D01*
X0354516Y0132375D01*
X0354819Y0132464D01*
X0355125Y0132546D01*
X0355433Y0132621D01*
X0355742Y0132688D01*
X0356053Y0132748D01*
X0356366Y0132800D01*
X0356679Y0132844D01*
X0356994Y0132881D01*
X0357309Y0132909D01*
X0357625Y0132931D01*
X0357941Y0132944D01*
X0358258Y0132950D01*
X0358575Y0132948D01*
X0358891Y0132938D01*
X0359207Y0132920D01*
X0359523Y0132895D01*
X0359838Y0132862D01*
X0360152Y0132822D01*
X0360465Y0132773D01*
X0360777Y0132717D01*
X0361087Y0132654D01*
X0361395Y0132583D01*
X0361702Y0132504D01*
X0362007Y0132418D01*
X0362309Y0132324D01*
X0362610Y0132223D01*
X0362907Y0132115D01*
X0363202Y0132000D01*
X0363494Y0131877D01*
X0363783Y0131747D01*
X0364068Y0131611D01*
X0364351Y0131467D01*
X0364629Y0131316D01*
X0364904Y0131159D01*
X0365175Y0130995D01*
X0365442Y0130824D01*
X0365704Y0130647D01*
X0365962Y0130464D01*
X0366216Y0130274D01*
X0366465Y0130079D01*
X0366709Y0129877D01*
X0366948Y0129669D01*
X0367182Y0129455D01*
X0367410Y0129236D01*
X0367633Y0129011D01*
X0367851Y0128781D01*
X0368063Y0128546D01*
X0368269Y0128306D01*
X0368469Y0128060D01*
X0368663Y0127810D01*
X0368588Y0127754D01*
X0368395Y0128002D01*
X0368196Y0128246D01*
X0367992Y0128484D01*
X0367782Y0128718D01*
X0367566Y0128946D01*
X0367344Y0129169D01*
X0367117Y0129387D01*
X0366885Y0129599D01*
X0366648Y0129805D01*
X0366406Y0130006D01*
X0366158Y0130200D01*
X0365907Y0130388D01*
X0365650Y0130570D01*
X0365390Y0130746D01*
X0365125Y0130915D01*
X0364856Y0131078D01*
X0364583Y0131234D01*
X0364307Y0131384D01*
X0364027Y0131526D01*
X0363743Y0131662D01*
X0363456Y0131791D01*
X0363166Y0131913D01*
X0362874Y0132027D01*
X0362578Y0132135D01*
X0362280Y0132235D01*
X0361980Y0132328D01*
X0361677Y0132413D01*
X0361373Y0132491D01*
X0361067Y0132562D01*
X0360759Y0132625D01*
X0360449Y0132681D01*
X0360139Y0132729D01*
X0359827Y0132769D01*
X0359514Y0132802D01*
X0359201Y0132827D01*
X0358887Y0132844D01*
X0358573Y0132854D01*
X0358258Y0132856D01*
X0357944Y0132850D01*
X0357630Y0132837D01*
X0357316Y0132816D01*
X0357003Y0132787D01*
X0356691Y0132751D01*
X0356380Y0132707D01*
X0356070Y0132655D01*
X0355761Y0132596D01*
X0355454Y0132529D01*
X0355148Y0132455D01*
X0354845Y0132374D01*
X0354543Y0132285D01*
X0354244Y0132188D01*
X0353947Y0132085D01*
X0353653Y0131974D01*
X0353362Y0131856D01*
X0353073Y0131731D01*
X0352788Y0131599D01*
X0352506Y0131460D01*
X0352228Y0131314D01*
X0351953Y0131161D01*
X0351682Y0131002D01*
X0351415Y0130836D01*
X0351152Y0130663D01*
X0350893Y0130485D01*
X0350639Y0130300D01*
X0350390Y0130108D01*
X0350145Y0129911D01*
X0349905Y0129708D01*
X0349670Y0129499D01*
X0349440Y0129284D01*
X0349216Y0129064D01*
X0348997Y0128839D01*
X0348784Y0128608D01*
X0348576Y0128372D01*
X0348374Y0128130D01*
X0348179Y0127885D01*
X0347989Y0127634D01*
X0347805Y0127379D01*
X0347628Y0127119D01*
X0347457Y0126855D01*
X0347293Y0126587D01*
X0347135Y0126315D01*
X0346984Y0126040D01*
X0346840Y0125760D01*
X0346702Y0125478D01*
X0346572Y0125192D01*
X0346448Y0124903D01*
X0346332Y0124610D01*
X0346223Y0124316D01*
X0346121Y0124018D01*
X0346027Y0123719D01*
X0345939Y0123416D01*
X0345859Y0123112D01*
X0345787Y0122807D01*
X0345722Y0122499D01*
X0345665Y0122190D01*
X0345615Y0121879D01*
X0345573Y0121568D01*
X0345538Y0121255D01*
X0345512Y0120942D01*
X0345492Y0120628D01*
X0345481Y0120314D01*
X0345477Y0120000D01*
X0345481Y0119686D01*
X0345492Y0119372D01*
X0345512Y0119058D01*
X0345538Y0118745D01*
X0345573Y0118432D01*
X0345615Y0118121D01*
X0345665Y0117810D01*
X0345722Y0117501D01*
X0345787Y0117193D01*
X0345859Y0116888D01*
X0345939Y0116584D01*
X0346027Y0116281D01*
X0346121Y0115982D01*
X0346223Y0115684D01*
X0346332Y0115390D01*
X0346448Y0115097D01*
X0346572Y0114808D01*
X0346702Y0114522D01*
X0346840Y0114240D01*
X0346984Y0113960D01*
X0347135Y0113685D01*
X0347293Y0113413D01*
X0347457Y0113145D01*
X0347628Y0112881D01*
X0347805Y0112621D01*
X0347989Y0112366D01*
X0348179Y0112115D01*
X0348374Y0111870D01*
X0348576Y0111628D01*
X0348784Y0111392D01*
X0348997Y0111161D01*
X0349216Y0110936D01*
X0349440Y0110716D01*
X0349670Y0110501D01*
X0349905Y0110292D01*
X0350145Y0110089D01*
X0350390Y0109892D01*
X0350639Y0109700D01*
X0350893Y0109515D01*
X0351152Y0109337D01*
X0351415Y0109164D01*
X0351682Y0108998D01*
X0351953Y0108839D01*
X0352228Y0108686D01*
X0352506Y0108540D01*
X0352788Y0108401D01*
X0353073Y0108269D01*
X0353362Y0108144D01*
X0353653Y0108026D01*
X0353947Y0107915D01*
X0354244Y0107812D01*
X0354543Y0107715D01*
X0354845Y0107626D01*
X0355148Y0107545D01*
X0355454Y0107471D01*
X0355761Y0107404D01*
X0356070Y0107345D01*
X0356380Y0107293D01*
X0356691Y0107249D01*
X0357003Y0107213D01*
X0357316Y0107184D01*
X0357630Y0107163D01*
X0357944Y0107150D01*
X0358258Y0107144D01*
X0358573Y0107146D01*
X0358887Y0107156D01*
X0359201Y0107173D01*
X0359514Y0107198D01*
X0359827Y0107231D01*
X0360139Y0107271D01*
X0360449Y0107319D01*
X0360759Y0107375D01*
X0361067Y0107438D01*
X0361373Y0107509D01*
X0361677Y0107587D01*
X0361980Y0107672D01*
X0362280Y0107765D01*
X0362578Y0107865D01*
X0362874Y0107973D01*
X0363166Y0108087D01*
X0363456Y0108209D01*
X0363743Y0108338D01*
X0364027Y0108474D01*
X0364307Y0108616D01*
X0364583Y0108766D01*
X0364856Y0108922D01*
X0365125Y0109085D01*
X0365390Y0109254D01*
X0365650Y0109430D01*
X0365907Y0109612D01*
X0366158Y0109800D01*
X0366406Y0109994D01*
X0366648Y0110195D01*
X0366885Y0110401D01*
X0367117Y0110613D01*
X0367344Y0110831D01*
X0367566Y0111054D01*
X0367782Y0111282D01*
X0367992Y0111516D01*
X0368196Y0111754D01*
X0368395Y0111998D01*
X0368588Y0112246D01*
X0368513Y0112303D01*
X0368321Y0112056D01*
X0368124Y0111814D01*
X0367921Y0111577D01*
X0367712Y0111346D01*
X0367498Y0111119D01*
X0367278Y0110897D01*
X0367053Y0110681D01*
X0366822Y0110471D01*
X0366587Y0110266D01*
X0366346Y0110067D01*
X0366101Y0109874D01*
X0365851Y0109688D01*
X0365597Y0109507D01*
X0365338Y0109332D01*
X0365075Y0109164D01*
X0364808Y0109003D01*
X0364537Y0108848D01*
X0364263Y0108699D01*
X0363985Y0108558D01*
X0363703Y0108423D01*
X0363419Y0108295D01*
X0363131Y0108174D01*
X0362840Y0108060D01*
X0362547Y0107954D01*
X0362251Y0107854D01*
X0361953Y0107762D01*
X0361653Y0107677D01*
X0361350Y0107600D01*
X0361046Y0107530D01*
X0360741Y0107467D01*
X0360434Y0107412D01*
X0360125Y0107364D01*
X0359816Y0107324D01*
X0359505Y0107292D01*
X0359194Y0107267D01*
X0358883Y0107250D01*
X0358571Y0107240D01*
X0358259Y0107238D01*
X0357947Y0107244D01*
X0357635Y0107257D01*
X0357324Y0107278D01*
X0357013Y0107306D01*
X0356703Y0107343D01*
X0356394Y0107386D01*
X0356086Y0107437D01*
X0355779Y0107496D01*
X0355475Y0107562D01*
X0355171Y0107636D01*
X0354870Y0107717D01*
X0354571Y0107805D01*
X0354274Y0107901D01*
X0353979Y0108004D01*
X0353687Y0108114D01*
X0353398Y0108231D01*
X0353111Y0108355D01*
X0352828Y0108486D01*
X0352548Y0108624D01*
X0352272Y0108769D01*
X0351999Y0108921D01*
X0351730Y0109079D01*
X0351465Y0109244D01*
X0351204Y0109415D01*
X0350948Y0109592D01*
X0350695Y0109776D01*
X0350448Y0109966D01*
X0350205Y0110161D01*
X0349966Y0110363D01*
X0349733Y0110571D01*
X0349505Y0110784D01*
X0349283Y0111002D01*
X0349065Y0111226D01*
X0348854Y0111455D01*
X0348648Y0111690D01*
X0348447Y0111929D01*
X0348253Y0112173D01*
X0348065Y0112422D01*
X0347882Y0112675D01*
X0347706Y0112933D01*
X0347537Y0113195D01*
X0347374Y0113461D01*
X0347217Y0113731D01*
X0347067Y0114005D01*
X0346924Y0114282D01*
X0346787Y0114562D01*
X0346658Y0114846D01*
X0346535Y0115133D01*
X0346420Y0115423D01*
X0346312Y0115716D01*
X0346210Y0116011D01*
X0346116Y0116309D01*
X0346030Y0116609D01*
X0345951Y0116910D01*
X0345879Y0117214D01*
X0345814Y0117519D01*
X0345757Y0117826D01*
X0345708Y0118134D01*
X0345666Y0118444D01*
X0345632Y0118754D01*
X0345605Y0119065D01*
X0345586Y0119376D01*
X0345575Y0119688D01*
X0345571Y0120000D01*
X0345575Y0120312D01*
X0345586Y0120624D01*
X0345605Y0120935D01*
X0345632Y0121246D01*
X0345666Y0121556D01*
X0345708Y0121866D01*
X0345757Y0122174D01*
X0345814Y0122481D01*
X0345879Y0122786D01*
X0345951Y0123090D01*
X0346030Y0123391D01*
X0346116Y0123691D01*
X0346210Y0123989D01*
X0346312Y0124284D01*
X0346420Y0124577D01*
X0346535Y0124867D01*
X0346658Y0125154D01*
X0346787Y0125438D01*
X0346924Y0125718D01*
X0347067Y0125995D01*
X0347217Y0126269D01*
X0347374Y0126539D01*
X0347537Y0126805D01*
X0347706Y0127067D01*
X0347882Y0127325D01*
X0348065Y0127578D01*
X0348253Y0127827D01*
X0348447Y0128071D01*
X0348648Y0128310D01*
X0348854Y0128545D01*
X0349065Y0128774D01*
X0349283Y0128998D01*
X0349505Y0129216D01*
X0349733Y0129429D01*
X0349966Y0129637D01*
X0350205Y0129839D01*
X0350448Y0130034D01*
X0350695Y0130224D01*
X0350948Y0130408D01*
X0351204Y0130585D01*
X0351465Y0130756D01*
X0351730Y0130921D01*
X0351999Y0131079D01*
X0352272Y0131231D01*
X0352548Y0131376D01*
X0352828Y0131514D01*
X0353111Y0131645D01*
X0353398Y0131769D01*
X0353687Y0131886D01*
X0353979Y0131996D01*
X0354274Y0132099D01*
X0354571Y0132195D01*
X0354870Y0132283D01*
X0355171Y0132364D01*
X0355475Y0132438D01*
X0355779Y0132504D01*
X0356086Y0132563D01*
X0356394Y0132614D01*
X0356703Y0132657D01*
X0357013Y0132694D01*
X0357324Y0132722D01*
X0357635Y0132743D01*
X0357947Y0132756D01*
X0358259Y0132762D01*
X0358571Y0132760D01*
X0358883Y0132750D01*
X0359194Y0132733D01*
X0359505Y0132708D01*
X0359816Y0132676D01*
X0360125Y0132636D01*
X0360434Y0132588D01*
X0360741Y0132533D01*
X0361046Y0132470D01*
X0361350Y0132400D01*
X0361653Y0132323D01*
X0361953Y0132238D01*
X0362251Y0132146D01*
X0362547Y0132046D01*
X0362840Y0131940D01*
X0363131Y0131826D01*
X0363419Y0131705D01*
X0363703Y0131577D01*
X0363985Y0131442D01*
X0364263Y0131301D01*
X0364537Y0131152D01*
X0364808Y0130997D01*
X0365075Y0130836D01*
X0365338Y0130668D01*
X0365597Y0130493D01*
X0365851Y0130312D01*
X0366101Y0130126D01*
X0366346Y0129933D01*
X0366587Y0129734D01*
X0366822Y0129529D01*
X0367053Y0129319D01*
X0367278Y0129103D01*
X0367498Y0128881D01*
X0367712Y0128654D01*
X0367921Y0128423D01*
X0368124Y0128186D01*
X0368321Y0127944D01*
X0368513Y0127697D01*
X0368437Y0127641D01*
X0368247Y0127886D01*
X0368052Y0128126D01*
X0367850Y0128361D01*
X0367643Y0128591D01*
X0367430Y0128816D01*
X0367212Y0129036D01*
X0366988Y0129250D01*
X0366759Y0129459D01*
X0366526Y0129662D01*
X0366287Y0129860D01*
X0366044Y0130051D01*
X0365795Y0130237D01*
X0365543Y0130416D01*
X0365286Y0130589D01*
X0365025Y0130756D01*
X0364760Y0130917D01*
X0364491Y0131070D01*
X0364219Y0131218D01*
X0363943Y0131358D01*
X0363663Y0131492D01*
X0363381Y0131619D01*
X0363095Y0131739D01*
X0362807Y0131852D01*
X0362516Y0131958D01*
X0362222Y0132056D01*
X0361926Y0132148D01*
X0361628Y0132232D01*
X0361328Y0132309D01*
X0361026Y0132378D01*
X0360723Y0132441D01*
X0360418Y0132495D01*
X0360112Y0132543D01*
X0359804Y0132582D01*
X0359496Y0132614D01*
X0359188Y0132639D01*
X0358878Y0132656D01*
X0358569Y0132666D01*
X0358259Y0132668D01*
X0357949Y0132662D01*
X0357640Y0132649D01*
X0357331Y0132628D01*
X0357022Y0132600D01*
X0356715Y0132564D01*
X0356408Y0132521D01*
X0356102Y0132470D01*
X0355798Y0132412D01*
X0355495Y0132346D01*
X0355194Y0132273D01*
X0354895Y0132193D01*
X0354598Y0132105D01*
X0354303Y0132010D01*
X0354011Y0131908D01*
X0353721Y0131799D01*
X0353434Y0131682D01*
X0353150Y0131559D01*
X0352869Y0131429D01*
X0352591Y0131292D01*
X0352317Y0131148D01*
X0352046Y0130998D01*
X0351779Y0130841D01*
X0351516Y0130677D01*
X0351257Y0130507D01*
X0351002Y0130331D01*
X0350751Y0130149D01*
X0350506Y0129960D01*
X0350264Y0129766D01*
X0350028Y0129566D01*
X0349797Y0129360D01*
X0349570Y0129148D01*
X0349349Y0128931D01*
X0349134Y0128709D01*
X0348923Y0128482D01*
X0348719Y0128249D01*
X0348520Y0128011D01*
X0348327Y0127769D01*
X0348140Y0127522D01*
X0347959Y0127271D01*
X0347785Y0127015D01*
X0347616Y0126755D01*
X0347454Y0126491D01*
X0347299Y0126223D01*
X0347150Y0125951D01*
X0347008Y0125676D01*
X0346872Y0125397D01*
X0346744Y0125116D01*
X0346622Y0124831D01*
X0346508Y0124543D01*
X0346400Y0124252D01*
X0346300Y0123959D01*
X0346206Y0123664D01*
X0346120Y0123366D01*
X0346042Y0123067D01*
X0345971Y0122765D01*
X0345907Y0122462D01*
X0345850Y0122158D01*
X0345801Y0121852D01*
X0345760Y0121545D01*
X0345726Y0121237D01*
X0345699Y0120928D01*
X0345680Y0120619D01*
X0345669Y0120310D01*
X0345665Y0120000D01*
X0345669Y0119690D01*
X0345680Y0119381D01*
X0345699Y0119072D01*
X0345726Y0118763D01*
X0345760Y0118455D01*
X0345801Y0118148D01*
X0345850Y0117842D01*
X0345907Y0117538D01*
X0345971Y0117235D01*
X0346042Y0116933D01*
X0346120Y0116634D01*
X0346206Y0116336D01*
X0346300Y0116041D01*
X0346400Y0115748D01*
X0346508Y0115457D01*
X0346622Y0115169D01*
X0346744Y0114884D01*
X0346872Y0114603D01*
X0347008Y0114324D01*
X0347150Y0114049D01*
X0347299Y0113777D01*
X0347454Y0113509D01*
X0347616Y0113245D01*
X0347785Y0112985D01*
X0347959Y0112729D01*
X0348140Y0112478D01*
X0348327Y0112231D01*
X0348520Y0111989D01*
X0348719Y0111751D01*
X0348923Y0111518D01*
X0349134Y0111291D01*
X0349349Y0111069D01*
X0349570Y0110852D01*
X0349797Y0110640D01*
X0350028Y0110434D01*
X0350264Y0110234D01*
X0350506Y0110040D01*
X0350751Y0109851D01*
X0351002Y0109669D01*
X0351257Y0109493D01*
X0351516Y0109323D01*
X0351779Y0109159D01*
X0352046Y0109002D01*
X0352317Y0108852D01*
X0352591Y0108708D01*
X0352869Y0108571D01*
X0353150Y0108441D01*
X0353434Y0108318D01*
X0353721Y0108201D01*
X0354011Y0108092D01*
X0354303Y0107990D01*
X0354598Y0107895D01*
X0354895Y0107807D01*
X0355194Y0107727D01*
X0355495Y0107654D01*
X0355798Y0107588D01*
X0356102Y0107530D01*
X0356408Y0107479D01*
X0356715Y0107436D01*
X0357022Y0107400D01*
X0357331Y0107372D01*
X0357640Y0107351D01*
X0357949Y0107338D01*
X0358259Y0107332D01*
X0358569Y0107334D01*
X0358878Y0107344D01*
X0359188Y0107361D01*
X0359496Y0107386D01*
X0359804Y0107418D01*
X0360112Y0107457D01*
X0360418Y0107505D01*
X0360723Y0107559D01*
X0361026Y0107622D01*
X0361328Y0107691D01*
X0361628Y0107768D01*
X0361926Y0107852D01*
X0362222Y0107944D01*
X0362516Y0108042D01*
X0362807Y0108148D01*
X0363095Y0108261D01*
X0363381Y0108381D01*
X0363663Y0108508D01*
X0363943Y0108642D01*
X0364219Y0108782D01*
X0364491Y0108930D01*
X0364760Y0109083D01*
X0365025Y0109244D01*
X0365286Y0109411D01*
X0365543Y0109584D01*
X0365795Y0109763D01*
X0366044Y0109949D01*
X0366287Y0110140D01*
X0366526Y0110338D01*
X0366759Y0110541D01*
X0366988Y0110750D01*
X0367212Y0110964D01*
X0367430Y0111184D01*
X0367643Y0111409D01*
X0367850Y0111639D01*
X0368052Y0111874D01*
X0368247Y0112114D01*
X0368437Y0112359D01*
X0368362Y0112416D01*
X0368174Y0112173D01*
X0367979Y0111934D01*
X0367779Y0111701D01*
X0367574Y0111473D01*
X0367362Y0111249D01*
X0367146Y0111031D01*
X0366924Y0110818D01*
X0366697Y0110611D01*
X0366465Y0110409D01*
X0366228Y0110213D01*
X0365986Y0110023D01*
X0365740Y0109839D01*
X0365489Y0109661D01*
X0365234Y0109489D01*
X0364975Y0109324D01*
X0364712Y0109164D01*
X0364445Y0109012D01*
X0364175Y0108865D01*
X0363901Y0108726D01*
X0363624Y0108593D01*
X0363343Y0108467D01*
X0363060Y0108348D01*
X0362773Y0108236D01*
X0362484Y0108131D01*
X0362193Y0108033D01*
X0361899Y0107942D01*
X0361603Y0107859D01*
X0361306Y0107782D01*
X0361006Y0107713D01*
X0360705Y0107652D01*
X0360402Y0107597D01*
X0360098Y0107551D01*
X0359793Y0107511D01*
X0359488Y0107479D01*
X0359181Y0107455D01*
X0358874Y0107438D01*
X0358567Y0107428D01*
X0358259Y0107426D01*
X0357952Y0107432D01*
X0357645Y0107445D01*
X0357338Y0107465D01*
X0357032Y0107494D01*
X0356726Y0107529D01*
X0356422Y0107572D01*
X0356119Y0107623D01*
X0355817Y0107680D01*
X0355516Y0107746D01*
X0355217Y0107818D01*
X0354921Y0107898D01*
X0354626Y0107985D01*
X0354333Y0108079D01*
X0354043Y0108181D01*
X0353755Y0108289D01*
X0353470Y0108404D01*
X0353188Y0108527D01*
X0352909Y0108656D01*
X0352633Y0108792D01*
X0352361Y0108935D01*
X0352092Y0109084D01*
X0351827Y0109240D01*
X0351566Y0109402D01*
X0351309Y0109571D01*
X0351056Y0109746D01*
X0350808Y0109927D01*
X0350564Y0110114D01*
X0350324Y0110307D01*
X0350090Y0110505D01*
X0349860Y0110710D01*
X0349635Y0110920D01*
X0349416Y0111135D01*
X0349202Y0111356D01*
X0348993Y0111581D01*
X0348790Y0111812D01*
X0348593Y0112048D01*
X0348401Y0112289D01*
X0348216Y0112534D01*
X0348036Y0112783D01*
X0347863Y0113037D01*
X0347696Y0113295D01*
X0347535Y0113557D01*
X0347381Y0113823D01*
X0347233Y0114093D01*
X0347092Y0114366D01*
X0346957Y0114643D01*
X0346830Y0114922D01*
X0346709Y0115205D01*
X0346595Y0115491D01*
X0346489Y0115779D01*
X0346389Y0116070D01*
X0346296Y0116363D01*
X0346211Y0116659D01*
X0346133Y0116956D01*
X0346062Y0117255D01*
X0345999Y0117556D01*
X0345943Y0117858D01*
X0345894Y0118162D01*
X0345853Y0118467D01*
X0345819Y0118772D01*
X0345793Y0119078D01*
X0345774Y0119385D01*
X0345763Y0119693D01*
X0345759Y0120000D01*
X0345763Y0120307D01*
X0345774Y0120615D01*
X0345793Y0120922D01*
X0345819Y0121228D01*
X0345853Y0121533D01*
X0345894Y0121838D01*
X0345943Y0122142D01*
X0345999Y0122444D01*
X0346062Y0122745D01*
X0346133Y0123044D01*
X0346211Y0123341D01*
X0346296Y0123637D01*
X0346389Y0123930D01*
X0346489Y0124221D01*
X0346595Y0124509D01*
X0346709Y0124795D01*
X0346830Y0125078D01*
X0346957Y0125357D01*
X0347092Y0125634D01*
X0347233Y0125907D01*
X0347381Y0126177D01*
X0347535Y0126443D01*
X0347696Y0126705D01*
X0347863Y0126963D01*
X0348036Y0127217D01*
X0348216Y0127466D01*
X0348401Y0127711D01*
X0348593Y0127952D01*
X0348790Y0128188D01*
X0348993Y0128419D01*
X0349202Y0128644D01*
X0349416Y0128865D01*
X0349635Y0129080D01*
X0349860Y0129290D01*
X0350090Y0129495D01*
X0350324Y0129693D01*
X0350564Y0129886D01*
X0350808Y0130073D01*
X0351056Y0130254D01*
X0351309Y0130429D01*
X0351566Y0130598D01*
X0351827Y0130760D01*
X0352092Y0130916D01*
X0352361Y0131065D01*
X0352633Y0131208D01*
X0352909Y0131344D01*
X0353188Y0131473D01*
X0353470Y0131596D01*
X0353755Y0131711D01*
X0354043Y0131819D01*
X0354333Y0131921D01*
X0354626Y0132015D01*
X0354921Y0132102D01*
X0355217Y0132182D01*
X0355516Y0132254D01*
X0355817Y0132320D01*
X0356119Y0132377D01*
X0356422Y0132428D01*
X0356726Y0132471D01*
X0357032Y0132506D01*
X0357338Y0132535D01*
X0357645Y0132555D01*
X0357952Y0132568D01*
X0358259Y0132574D01*
X0358567Y0132572D01*
X0358874Y0132562D01*
X0359181Y0132545D01*
X0359488Y0132521D01*
X0359793Y0132489D01*
X0360098Y0132449D01*
X0360402Y0132403D01*
X0360705Y0132348D01*
X0361006Y0132287D01*
X0361306Y0132218D01*
X0361603Y0132141D01*
X0361899Y0132058D01*
X0362193Y0131967D01*
X0362484Y0131869D01*
X0362773Y0131764D01*
X0363060Y0131652D01*
X0363343Y0131533D01*
X0363624Y0131407D01*
X0363901Y0131274D01*
X0364175Y0131135D01*
X0364445Y0130988D01*
X0364712Y0130836D01*
X0364975Y0130676D01*
X0365234Y0130511D01*
X0365489Y0130339D01*
X0365740Y0130161D01*
X0365986Y0129977D01*
X0366228Y0129787D01*
X0366465Y0129591D01*
X0366697Y0129389D01*
X0366924Y0129182D01*
X0367146Y0128969D01*
X0367362Y0128751D01*
X0367574Y0128527D01*
X0367779Y0128299D01*
X0367979Y0128066D01*
X0368174Y0127827D01*
X0368362Y0127584D01*
X0368287Y0127528D01*
X0368100Y0127769D01*
X0367907Y0128006D01*
X0367708Y0128237D01*
X0367504Y0128464D01*
X0367295Y0128686D01*
X0367080Y0128902D01*
X0366859Y0129113D01*
X0366634Y0129319D01*
X0366404Y0129519D01*
X0366168Y0129714D01*
X0365929Y0129902D01*
X0365684Y0130085D01*
X0365435Y0130262D01*
X0365182Y0130432D01*
X0364925Y0130597D01*
X0364664Y0130755D01*
X0364399Y0130906D01*
X0364131Y0131051D01*
X0363859Y0131190D01*
X0363584Y0131322D01*
X0363305Y0131447D01*
X0363024Y0131565D01*
X0362740Y0131676D01*
X0362453Y0131780D01*
X0362164Y0131878D01*
X0361872Y0131968D01*
X0361579Y0132051D01*
X0361283Y0132126D01*
X0360986Y0132195D01*
X0360687Y0132256D01*
X0360386Y0132310D01*
X0360085Y0132356D01*
X0359782Y0132396D01*
X0359479Y0132427D01*
X0359174Y0132452D01*
X0358870Y0132468D01*
X0358565Y0132478D01*
X0358260Y0132480D01*
X0357955Y0132474D01*
X0357650Y0132461D01*
X0357345Y0132441D01*
X0357041Y0132413D01*
X0356738Y0132378D01*
X0356436Y0132335D01*
X0356135Y0132285D01*
X0355835Y0132228D01*
X0355537Y0132163D01*
X0355241Y0132091D01*
X0354946Y0132012D01*
X0354653Y0131925D01*
X0354363Y0131832D01*
X0354075Y0131731D01*
X0353789Y0131623D01*
X0353506Y0131509D01*
X0353226Y0131387D01*
X0352949Y0131259D01*
X0352676Y0131124D01*
X0352406Y0130983D01*
X0352139Y0130834D01*
X0351876Y0130680D01*
X0351617Y0130519D01*
X0351361Y0130351D01*
X0351110Y0130178D01*
X0350864Y0129998D01*
X0350622Y0129812D01*
X0350384Y0129621D01*
X0350151Y0129424D01*
X0349923Y0129221D01*
X0349700Y0129012D01*
X0349482Y0128799D01*
X0349270Y0128580D01*
X0349063Y0128356D01*
X0348861Y0128126D01*
X0348665Y0127892D01*
X0348475Y0127654D01*
X0348291Y0127410D01*
X0348113Y0127163D01*
X0347941Y0126911D01*
X0347775Y0126654D01*
X0347616Y0126394D01*
X0347462Y0126130D01*
X0347316Y0125863D01*
X0347176Y0125592D01*
X0347042Y0125317D01*
X0346916Y0125040D01*
X0346796Y0124759D01*
X0346683Y0124475D01*
X0346577Y0124189D01*
X0346478Y0123901D01*
X0346386Y0123610D01*
X0346302Y0123316D01*
X0346224Y0123021D01*
X0346154Y0122724D01*
X0346091Y0122426D01*
X0346035Y0122126D01*
X0345987Y0121824D01*
X0345946Y0121522D01*
X0345913Y0121219D01*
X0345887Y0120915D01*
X0345868Y0120610D01*
X0345857Y0120305D01*
X0345853Y0120000D01*
X0345857Y0119695D01*
X0345868Y0119390D01*
X0345887Y0119085D01*
X0345913Y0118781D01*
X0345946Y0118478D01*
X0345987Y0118176D01*
X0346035Y0117874D01*
X0346091Y0117574D01*
X0346154Y0117276D01*
X0346224Y0116979D01*
X0346302Y0116684D01*
X0346386Y0116390D01*
X0346478Y0116099D01*
X0346577Y0115811D01*
X0346683Y0115525D01*
X0346796Y0115241D01*
X0346916Y0114960D01*
X0347042Y0114683D01*
X0347176Y0114408D01*
X0347316Y0114137D01*
X0347462Y0113870D01*
X0347616Y0113606D01*
X0347775Y0113346D01*
X0347941Y0113089D01*
X0348113Y0112837D01*
X0348291Y0112590D01*
X0348475Y0112346D01*
X0348665Y0112108D01*
X0348861Y0111874D01*
X0349063Y0111644D01*
X0349270Y0111420D01*
X0349482Y0111201D01*
X0349700Y0110988D01*
X0349923Y0110779D01*
X0350151Y0110576D01*
X0350384Y0110379D01*
X0350622Y0110188D01*
X0350864Y0110002D01*
X0351110Y0109822D01*
X0351361Y0109649D01*
X0351617Y0109481D01*
X0351876Y0109320D01*
X0352139Y0109166D01*
X0352406Y0109017D01*
X0352676Y0108876D01*
X0352949Y0108741D01*
X0353226Y0108613D01*
X0353506Y0108491D01*
X0353789Y0108377D01*
X0354075Y0108269D01*
X0354363Y0108168D01*
X0354653Y0108075D01*
X0354946Y0107988D01*
X0355241Y0107909D01*
X0355537Y0107837D01*
X0355835Y0107772D01*
X0356135Y0107715D01*
X0356436Y0107665D01*
X0356738Y0107622D01*
X0357041Y0107587D01*
X0357345Y0107559D01*
X0357650Y0107539D01*
X0357955Y0107526D01*
X0358260Y0107520D01*
X0358565Y0107522D01*
X0358870Y0107532D01*
X0359174Y0107548D01*
X0359479Y0107573D01*
X0359782Y0107604D01*
X0360085Y0107644D01*
X0360386Y0107690D01*
X0360687Y0107744D01*
X0360986Y0107805D01*
X0361283Y0107874D01*
X0361579Y0107949D01*
X0361872Y0108032D01*
X0362164Y0108122D01*
X0362453Y0108220D01*
X0362740Y0108324D01*
X0363024Y0108435D01*
X0363305Y0108553D01*
X0363584Y0108678D01*
X0363859Y0108810D01*
X0364131Y0108949D01*
X0364399Y0109094D01*
X0364664Y0109245D01*
X0364925Y0109403D01*
X0365182Y0109568D01*
X0365435Y0109738D01*
X0365684Y0109915D01*
X0365929Y0110098D01*
X0366168Y0110286D01*
X0366404Y0110481D01*
X0366634Y0110681D01*
X0366859Y0110887D01*
X0367080Y0111098D01*
X0367295Y0111314D01*
X0367504Y0111536D01*
X0367708Y0111763D01*
X0367907Y0111994D01*
X0368100Y0112231D01*
X0368287Y0112472D01*
X0368212Y0112528D01*
X0368026Y0112289D01*
X0367835Y0112054D01*
X0367638Y0111825D01*
X0367435Y0111600D01*
X0367227Y0111379D01*
X0367013Y0111165D01*
X0366795Y0110955D01*
X0366571Y0110751D01*
X0366343Y0110552D01*
X0366109Y0110359D01*
X0365871Y0110172D01*
X0365629Y0109991D01*
X0365382Y0109815D01*
X0365131Y0109646D01*
X0364875Y0109483D01*
X0364616Y0109326D01*
X0364353Y0109176D01*
X0364087Y0109032D01*
X0363817Y0108894D01*
X0363544Y0108763D01*
X0363268Y0108639D01*
X0362988Y0108522D01*
X0362706Y0108412D01*
X0362422Y0108308D01*
X0362135Y0108212D01*
X0361845Y0108122D01*
X0361554Y0108040D01*
X0361261Y0107965D01*
X0360965Y0107897D01*
X0360669Y0107836D01*
X0360371Y0107783D01*
X0360071Y0107737D01*
X0359771Y0107698D01*
X0359470Y0107666D01*
X0359168Y0107642D01*
X0358865Y0107625D01*
X0358563Y0107616D01*
X0358260Y0107614D01*
X0357957Y0107620D01*
X0357655Y0107633D01*
X0357352Y0107653D01*
X0357051Y0107681D01*
X0356750Y0107716D01*
X0356450Y0107758D01*
X0356151Y0107808D01*
X0355854Y0107865D01*
X0355558Y0107929D01*
X0355264Y0108000D01*
X0354971Y0108079D01*
X0354681Y0108165D01*
X0354392Y0108258D01*
X0354107Y0108357D01*
X0353823Y0108464D01*
X0353543Y0108578D01*
X0353265Y0108698D01*
X0352990Y0108826D01*
X0352718Y0108960D01*
X0352450Y0109100D01*
X0352185Y0109247D01*
X0351924Y0109401D01*
X0351667Y0109561D01*
X0351414Y0109727D01*
X0351165Y0109899D01*
X0350920Y0110077D01*
X0350679Y0110262D01*
X0350444Y0110452D01*
X0350213Y0110647D01*
X0349986Y0110849D01*
X0349765Y0111055D01*
X0349549Y0111268D01*
X0349338Y0111485D01*
X0349133Y0111707D01*
X0348933Y0111935D01*
X0348738Y0112167D01*
X0348550Y0112404D01*
X0348367Y0112646D01*
X0348190Y0112891D01*
X0348019Y0113142D01*
X0347855Y0113396D01*
X0347696Y0113654D01*
X0347544Y0113916D01*
X0347399Y0114181D01*
X0347260Y0114450D01*
X0347127Y0114723D01*
X0347002Y0114998D01*
X0346883Y0115277D01*
X0346771Y0115558D01*
X0346666Y0115842D01*
X0346567Y0116129D01*
X0346476Y0116418D01*
X0346392Y0116709D01*
X0346315Y0117002D01*
X0346246Y0117296D01*
X0346183Y0117593D01*
X0346128Y0117890D01*
X0346080Y0118189D01*
X0346039Y0118489D01*
X0346006Y0118791D01*
X0345980Y0119092D01*
X0345962Y0119395D01*
X0345951Y0119697D01*
X0345947Y0120000D01*
X0345951Y0120303D01*
X0345962Y0120605D01*
X0345980Y0120908D01*
X0346006Y0121209D01*
X0346039Y0121511D01*
X0346080Y0121811D01*
X0346128Y0122110D01*
X0346183Y0122407D01*
X0346246Y0122704D01*
X0346315Y0122998D01*
X0346392Y0123291D01*
X0346476Y0123582D01*
X0346567Y0123871D01*
X0346666Y0124158D01*
X0346771Y0124442D01*
X0346883Y0124723D01*
X0347002Y0125002D01*
X0347127Y0125277D01*
X0347260Y0125550D01*
X0347399Y0125819D01*
X0347544Y0126084D01*
X0347696Y0126346D01*
X0347855Y0126604D01*
X0348019Y0126858D01*
X0348190Y0127109D01*
X0348367Y0127354D01*
X0348550Y0127596D01*
X0348738Y0127833D01*
X0348933Y0128065D01*
X0349133Y0128293D01*
X0349338Y0128515D01*
X0349549Y0128732D01*
X0349765Y0128945D01*
X0349986Y0129151D01*
X0350213Y0129353D01*
X0350444Y0129548D01*
X0350679Y0129738D01*
X0350920Y0129923D01*
X0351165Y0130101D01*
X0351414Y0130273D01*
X0351667Y0130439D01*
X0351924Y0130599D01*
X0352185Y0130753D01*
X0352450Y0130900D01*
X0352718Y0131040D01*
X0352990Y0131174D01*
X0353265Y0131302D01*
X0353543Y0131422D01*
X0353823Y0131536D01*
X0354107Y0131643D01*
X0354392Y0131742D01*
X0354681Y0131835D01*
X0354971Y0131921D01*
X0355264Y0132000D01*
X0355558Y0132071D01*
X0355854Y0132135D01*
X0356151Y0132192D01*
X0356450Y0132242D01*
X0356750Y0132284D01*
X0357051Y0132319D01*
X0357352Y0132347D01*
X0357655Y0132367D01*
X0357957Y0132380D01*
X0358260Y0132386D01*
X0358563Y0132384D01*
X0358865Y0132375D01*
X0359168Y0132358D01*
X0359470Y0132334D01*
X0359771Y0132302D01*
X0360071Y0132263D01*
X0360371Y0132217D01*
X0360669Y0132164D01*
X0360965Y0132103D01*
X0361261Y0132035D01*
X0361554Y0131960D01*
X0361845Y0131878D01*
X0362135Y0131788D01*
X0362422Y0131692D01*
X0362706Y0131588D01*
X0362988Y0131478D01*
X0363268Y0131361D01*
X0363544Y0131237D01*
X0363817Y0131106D01*
X0364087Y0130968D01*
X0364353Y0130824D01*
X0364616Y0130674D01*
X0364875Y0130517D01*
X0365131Y0130354D01*
X0365382Y0130185D01*
X0365629Y0130009D01*
X0365871Y0129828D01*
X0366109Y0129641D01*
X0366343Y0129448D01*
X0366571Y0129249D01*
X0366795Y0129045D01*
X0367013Y0128835D01*
X0367227Y0128621D01*
X0367435Y0128400D01*
X0367638Y0128175D01*
X0367835Y0127946D01*
X0368026Y0127711D01*
X0368212Y0127472D01*
X0368137Y0127415D01*
X0367952Y0127653D01*
X0367762Y0127885D01*
X0367567Y0128114D01*
X0367366Y0128337D01*
X0367159Y0128555D01*
X0366947Y0128769D01*
X0366730Y0128977D01*
X0366508Y0129179D01*
X0366281Y0129376D01*
X0366050Y0129568D01*
X0365814Y0129754D01*
X0365573Y0129934D01*
X0365328Y0130108D01*
X0365079Y0130276D01*
X0364825Y0130438D01*
X0364568Y0130593D01*
X0364307Y0130742D01*
X0364043Y0130885D01*
X0363775Y0131022D01*
X0363504Y0131151D01*
X0363230Y0131274D01*
X0362953Y0131391D01*
X0362673Y0131500D01*
X0362390Y0131603D01*
X0362106Y0131699D01*
X0361818Y0131787D01*
X0361529Y0131869D01*
X0361238Y0131944D01*
X0360945Y0132011D01*
X0360651Y0132072D01*
X0360355Y0132125D01*
X0360058Y0132170D01*
X0359760Y0132209D01*
X0359461Y0132240D01*
X0359161Y0132264D01*
X0358861Y0132281D01*
X0358561Y0132290D01*
X0358260Y0132292D01*
X0357960Y0132286D01*
X0357659Y0132274D01*
X0357360Y0132253D01*
X0357060Y0132226D01*
X0356762Y0132191D01*
X0356464Y0132149D01*
X0356168Y0132100D01*
X0355873Y0132043D01*
X0355579Y0131979D01*
X0355287Y0131909D01*
X0354997Y0131831D01*
X0354708Y0131745D01*
X0354422Y0131653D01*
X0354138Y0131554D01*
X0353857Y0131448D01*
X0353579Y0131335D01*
X0353303Y0131216D01*
X0353030Y0131089D01*
X0352761Y0130956D01*
X0352495Y0130817D01*
X0352232Y0130671D01*
X0351973Y0130519D01*
X0351717Y0130360D01*
X0351466Y0130195D01*
X0351219Y0130024D01*
X0350976Y0129847D01*
X0350737Y0129664D01*
X0350503Y0129476D01*
X0350274Y0129282D01*
X0350050Y0129082D01*
X0349830Y0128877D01*
X0349616Y0128666D01*
X0349406Y0128450D01*
X0349202Y0128230D01*
X0349004Y0128004D01*
X0348811Y0127773D01*
X0348624Y0127538D01*
X0348442Y0127299D01*
X0348267Y0127055D01*
X0348097Y0126806D01*
X0347934Y0126554D01*
X0347777Y0126298D01*
X0347626Y0126038D01*
X0347482Y0125774D01*
X0347344Y0125507D01*
X0347212Y0125237D01*
X0347088Y0124964D01*
X0346970Y0124687D01*
X0346859Y0124408D01*
X0346754Y0124126D01*
X0346657Y0123842D01*
X0346566Y0123555D01*
X0346483Y0123266D01*
X0346407Y0122976D01*
X0346337Y0122683D01*
X0346275Y0122389D01*
X0346221Y0122094D01*
X0346173Y0121797D01*
X0346133Y0121499D01*
X0346100Y0121200D01*
X0346074Y0120901D01*
X0346056Y0120601D01*
X0346045Y0120301D01*
X0346041Y0120000D01*
X0346045Y0119699D01*
X0346056Y0119399D01*
X0346074Y0119099D01*
X0346100Y0118800D01*
X0346133Y0118501D01*
X0346173Y0118203D01*
X0346221Y0117906D01*
X0346275Y0117611D01*
X0346337Y0117317D01*
X0346407Y0117024D01*
X0346483Y0116734D01*
X0346566Y0116445D01*
X0346657Y0116158D01*
X0346754Y0115874D01*
X0346859Y0115592D01*
X0346970Y0115313D01*
X0347088Y0115036D01*
X0347212Y0114763D01*
X0347344Y0114493D01*
X0347482Y0114226D01*
X0347626Y0113962D01*
X0347777Y0113702D01*
X0347934Y0113446D01*
X0348097Y0113194D01*
X0348267Y0112945D01*
X0348442Y0112701D01*
X0348624Y0112462D01*
X0348811Y0112227D01*
X0349004Y0111996D01*
X0349202Y0111770D01*
X0349406Y0111550D01*
X0349616Y0111334D01*
X0349830Y0111123D01*
X0350050Y0110918D01*
X0350274Y0110718D01*
X0350503Y0110524D01*
X0350737Y0110336D01*
X0350976Y0110153D01*
X0351219Y0109976D01*
X0351466Y0109805D01*
X0351717Y0109640D01*
X0351973Y0109481D01*
X0352232Y0109329D01*
X0352495Y0109183D01*
X0352761Y0109044D01*
X0353030Y0108911D01*
X0353303Y0108784D01*
X0353579Y0108665D01*
X0353857Y0108552D01*
X0354138Y0108446D01*
X0354422Y0108347D01*
X0354708Y0108255D01*
X0354997Y0108169D01*
X0355287Y0108091D01*
X0355579Y0108021D01*
X0355873Y0107957D01*
X0356168Y0107900D01*
X0356464Y0107851D01*
X0356762Y0107809D01*
X0357060Y0107774D01*
X0357360Y0107747D01*
X0357659Y0107726D01*
X0357960Y0107714D01*
X0358260Y0107708D01*
X0358561Y0107710D01*
X0358861Y0107719D01*
X0359161Y0107736D01*
X0359461Y0107760D01*
X0359760Y0107791D01*
X0360058Y0107830D01*
X0360355Y0107875D01*
X0360651Y0107928D01*
X0360945Y0107989D01*
X0361238Y0108056D01*
X0361529Y0108131D01*
X0361818Y0108213D01*
X0362106Y0108301D01*
X0362390Y0108397D01*
X0362673Y0108500D01*
X0362953Y0108609D01*
X0363230Y0108726D01*
X0363504Y0108849D01*
X0363775Y0108978D01*
X0364043Y0109115D01*
X0364307Y0109258D01*
X0364568Y0109407D01*
X0364825Y0109562D01*
X0365079Y0109724D01*
X0365328Y0109892D01*
X0365573Y0110066D01*
X0365814Y0110246D01*
X0366050Y0110432D01*
X0366281Y0110624D01*
X0366508Y0110821D01*
X0366730Y0111023D01*
X0366947Y0111231D01*
X0367159Y0111445D01*
X0367366Y0111663D01*
X0367567Y0111886D01*
X0367762Y0112115D01*
X0367952Y0112347D01*
X0368137Y0112585D01*
X0368061Y0112641D01*
X0367879Y0112406D01*
X0367690Y0112175D01*
X0367496Y0111948D01*
X0367296Y0111726D01*
X0367091Y0111510D01*
X0366881Y0111298D01*
X0366666Y0111092D01*
X0366446Y0110891D01*
X0366220Y0110695D01*
X0365991Y0110505D01*
X0365756Y0110321D01*
X0365517Y0110142D01*
X0365274Y0109969D01*
X0365027Y0109803D01*
X0364775Y0109642D01*
X0364520Y0109488D01*
X0364261Y0109340D01*
X0363999Y0109198D01*
X0363733Y0109063D01*
X0363464Y0108934D01*
X0363192Y0108812D01*
X0362917Y0108696D01*
X0362639Y0108587D01*
X0362359Y0108486D01*
X0362076Y0108391D01*
X0361791Y0108303D01*
X0361504Y0108222D01*
X0361216Y0108147D01*
X0360925Y0108081D01*
X0360633Y0108021D01*
X0360339Y0107968D01*
X0360044Y0107923D01*
X0359749Y0107884D01*
X0359452Y0107853D01*
X0359155Y0107830D01*
X0358857Y0107813D01*
X0358559Y0107804D01*
X0358261Y0107802D01*
X0357962Y0107808D01*
X0357664Y0107820D01*
X0357367Y0107840D01*
X0357070Y0107868D01*
X0356774Y0107902D01*
X0356478Y0107944D01*
X0356184Y0107993D01*
X0355891Y0108049D01*
X0355600Y0108112D01*
X0355310Y0108183D01*
X0355022Y0108260D01*
X0354736Y0108344D01*
X0354452Y0108436D01*
X0354170Y0108534D01*
X0353891Y0108639D01*
X0353615Y0108751D01*
X0353341Y0108870D01*
X0353071Y0108995D01*
X0352803Y0109127D01*
X0352539Y0109266D01*
X0352278Y0109411D01*
X0352021Y0109562D01*
X0351768Y0109719D01*
X0351519Y0109883D01*
X0351273Y0110053D01*
X0351032Y0110228D01*
X0350795Y0110410D01*
X0350563Y0110597D01*
X0350336Y0110789D01*
X0350113Y0110988D01*
X0349895Y0111191D01*
X0349682Y0111400D01*
X0349474Y0111614D01*
X0349272Y0111834D01*
X0349075Y0112057D01*
X0348884Y0112286D01*
X0348698Y0112520D01*
X0348518Y0112757D01*
X0348344Y0112999D01*
X0348176Y0113246D01*
X0348014Y0113496D01*
X0347858Y0113750D01*
X0347708Y0114008D01*
X0347565Y0114270D01*
X0347428Y0114535D01*
X0347297Y0114803D01*
X0347174Y0115074D01*
X0347057Y0115349D01*
X0346946Y0115626D01*
X0346843Y0115906D01*
X0346746Y0116188D01*
X0346656Y0116472D01*
X0346574Y0116759D01*
X0346498Y0117047D01*
X0346429Y0117337D01*
X0346368Y0117629D01*
X0346313Y0117922D01*
X0346266Y0118217D01*
X0346226Y0118512D01*
X0346193Y0118809D01*
X0346168Y0119106D01*
X0346150Y0119404D01*
X0346139Y0119702D01*
X0346135Y0120000D01*
X0346139Y0120298D01*
X0346150Y0120596D01*
X0346168Y0120894D01*
X0346193Y0121191D01*
X0346226Y0121488D01*
X0346266Y0121783D01*
X0346313Y0122078D01*
X0346368Y0122371D01*
X0346429Y0122663D01*
X0346498Y0122953D01*
X0346574Y0123241D01*
X0346656Y0123528D01*
X0346746Y0123812D01*
X0346843Y0124094D01*
X0346946Y0124374D01*
X0347057Y0124651D01*
X0347174Y0124926D01*
X0347297Y0125197D01*
X0347428Y0125465D01*
X0347565Y0125730D01*
X0347708Y0125992D01*
X0347858Y0126250D01*
X0348014Y0126504D01*
X0348176Y0126754D01*
X0348344Y0127001D01*
X0348518Y0127243D01*
X0348698Y0127480D01*
X0348884Y0127714D01*
X0349075Y0127943D01*
X0349272Y0128166D01*
X0349474Y0128386D01*
X0349682Y0128600D01*
X0349895Y0128809D01*
X0350113Y0129012D01*
X0350336Y0129211D01*
X0350563Y0129403D01*
X0350795Y0129590D01*
X0351032Y0129772D01*
X0351273Y0129947D01*
X0351519Y0130117D01*
X0351768Y0130281D01*
X0352021Y0130438D01*
X0352278Y0130589D01*
X0352539Y0130734D01*
X0352803Y0130873D01*
X0353071Y0131005D01*
X0353341Y0131130D01*
X0353615Y0131249D01*
X0353891Y0131361D01*
X0354170Y0131466D01*
X0354452Y0131564D01*
X0354736Y0131656D01*
X0355022Y0131740D01*
X0355310Y0131817D01*
X0355600Y0131888D01*
X0355891Y0131951D01*
X0356184Y0132007D01*
X0356478Y0132056D01*
X0356774Y0132098D01*
X0357070Y0132132D01*
X0357367Y0132160D01*
X0357664Y0132180D01*
X0357962Y0132192D01*
X0358261Y0132198D01*
X0358559Y0132196D01*
X0358857Y0132187D01*
X0359155Y0132170D01*
X0359452Y0132147D01*
X0359749Y0132116D01*
X0360044Y0132077D01*
X0360339Y0132032D01*
X0360633Y0131979D01*
X0360925Y0131919D01*
X0361216Y0131853D01*
X0361504Y0131778D01*
X0361791Y0131697D01*
X0362076Y0131609D01*
X0362359Y0131514D01*
X0362639Y0131413D01*
X0362917Y0131304D01*
X0363192Y0131188D01*
X0363464Y0131066D01*
X0363733Y0130937D01*
X0363999Y0130802D01*
X0364261Y0130660D01*
X0364520Y0130512D01*
X0364775Y0130358D01*
X0365027Y0130197D01*
X0365274Y0130031D01*
X0365517Y0129858D01*
X0365756Y0129679D01*
X0365991Y0129495D01*
X0366220Y0129305D01*
X0366446Y0129109D01*
X0366666Y0128908D01*
X0366881Y0128702D01*
X0367091Y0128490D01*
X0367296Y0128274D01*
X0367496Y0128052D01*
X0367690Y0127825D01*
X0367879Y0127594D01*
X0368061Y0127359D01*
X0367986Y0127302D01*
X0367805Y0127536D01*
X0367618Y0127765D01*
X0367425Y0127990D01*
X0367227Y0128210D01*
X0367024Y0128425D01*
X0366815Y0128635D01*
X0366601Y0128840D01*
X0366383Y0129039D01*
X0366159Y0129233D01*
X0365931Y0129422D01*
X0365699Y0129605D01*
X0365462Y0129782D01*
X0365220Y0129953D01*
X0364975Y0130119D01*
X0364726Y0130278D01*
X0364472Y0130431D01*
X0364216Y0130578D01*
X0363955Y0130719D01*
X0363691Y0130853D01*
X0363424Y0130981D01*
X0363154Y0131102D01*
X0362882Y0131217D01*
X0362606Y0131325D01*
X0362328Y0131426D01*
X0362047Y0131520D01*
X0361765Y0131607D01*
X0361480Y0131688D01*
X0361193Y0131761D01*
X0360905Y0131828D01*
X0360615Y0131887D01*
X0360323Y0131939D01*
X0360031Y0131984D01*
X0359737Y0132022D01*
X0359443Y0132053D01*
X0359148Y0132077D01*
X0358853Y0132093D01*
X0358557Y0132102D01*
X0358261Y0132104D01*
X0357965Y0132098D01*
X0357669Y0132086D01*
X0357374Y0132066D01*
X0357079Y0132039D01*
X0356785Y0132005D01*
X0356492Y0131963D01*
X0356200Y0131915D01*
X0355910Y0131859D01*
X0355621Y0131796D01*
X0355333Y0131726D01*
X0355047Y0131649D01*
X0354763Y0131566D01*
X0354482Y0131475D01*
X0354202Y0131377D01*
X0353925Y0131273D01*
X0353651Y0131162D01*
X0353380Y0131044D01*
X0353111Y0130920D01*
X0352846Y0130789D01*
X0352584Y0130651D01*
X0352325Y0130508D01*
X0352070Y0130358D01*
X0351818Y0130201D01*
X0351571Y0130039D01*
X0351328Y0129871D01*
X0351088Y0129696D01*
X0350853Y0129516D01*
X0350623Y0129331D01*
X0350397Y0129139D01*
X0350176Y0128943D01*
X0349960Y0128741D01*
X0349749Y0128533D01*
X0349543Y0128321D01*
X0349342Y0128103D01*
X0349146Y0127881D01*
X0348956Y0127654D01*
X0348772Y0127423D01*
X0348594Y0127187D01*
X0348421Y0126947D01*
X0348254Y0126702D01*
X0348093Y0126454D01*
X0347938Y0126201D01*
X0347790Y0125945D01*
X0347648Y0125686D01*
X0347512Y0125423D01*
X0347382Y0125157D01*
X0347260Y0124888D01*
X0347143Y0124615D01*
X0347034Y0124340D01*
X0346931Y0124063D01*
X0346835Y0123783D01*
X0346746Y0123501D01*
X0346664Y0123216D01*
X0346589Y0122930D01*
X0346521Y0122642D01*
X0346460Y0122353D01*
X0346406Y0122062D01*
X0346359Y0121769D01*
X0346319Y0121476D01*
X0346287Y0121182D01*
X0346262Y0120887D01*
X0346243Y0120592D01*
X0346233Y0120296D01*
X0346229Y0120000D01*
X0346233Y0119704D01*
X0346243Y0119408D01*
X0346262Y0119113D01*
X0346287Y0118818D01*
X0346319Y0118524D01*
X0346359Y0118231D01*
X0346406Y0117938D01*
X0346460Y0117647D01*
X0346521Y0117358D01*
X0346589Y0117070D01*
X0346664Y0116784D01*
X0346746Y0116499D01*
X0346835Y0116217D01*
X0346931Y0115937D01*
X0347034Y0115660D01*
X0347143Y0115385D01*
X0347260Y0115112D01*
X0347382Y0114843D01*
X0347512Y0114577D01*
X0347648Y0114314D01*
X0347790Y0114055D01*
X0347938Y0113799D01*
X0348093Y0113546D01*
X0348254Y0113298D01*
X0348421Y0113053D01*
X0348594Y0112813D01*
X0348772Y0112577D01*
X0348956Y0112346D01*
X0349146Y0112119D01*
X0349342Y0111897D01*
X0349543Y0111679D01*
X0349749Y0111467D01*
X0349960Y0111259D01*
X0350176Y0111057D01*
X0350397Y0110861D01*
X0350623Y0110669D01*
X0350853Y0110484D01*
X0351088Y0110304D01*
X0351328Y0110129D01*
X0351571Y0109961D01*
X0351818Y0109799D01*
X0352070Y0109642D01*
X0352325Y0109492D01*
X0352584Y0109349D01*
X0352846Y0109211D01*
X0353111Y0109080D01*
X0353380Y0108956D01*
X0353651Y0108838D01*
X0353925Y0108727D01*
X0354202Y0108623D01*
X0354482Y0108525D01*
X0354763Y0108434D01*
X0355047Y0108351D01*
X0355333Y0108274D01*
X0355621Y0108204D01*
X0355910Y0108141D01*
X0356200Y0108085D01*
X0356492Y0108037D01*
X0356785Y0107995D01*
X0357079Y0107961D01*
X0357374Y0107934D01*
X0357669Y0107914D01*
X0357965Y0107902D01*
X0358261Y0107896D01*
X0358557Y0107898D01*
X0358853Y0107907D01*
X0359148Y0107923D01*
X0359443Y0107947D01*
X0359737Y0107978D01*
X0360031Y0108016D01*
X0360323Y0108061D01*
X0360615Y0108113D01*
X0360905Y0108172D01*
X0361193Y0108239D01*
X0361480Y0108312D01*
X0361765Y0108393D01*
X0362047Y0108480D01*
X0362328Y0108574D01*
X0362606Y0108675D01*
X0362882Y0108783D01*
X0363154Y0108898D01*
X0363424Y0109019D01*
X0363691Y0109147D01*
X0363955Y0109281D01*
X0364216Y0109422D01*
X0364472Y0109569D01*
X0364726Y0109722D01*
X0364975Y0109881D01*
X0365220Y0110047D01*
X0365462Y0110218D01*
X0365699Y0110395D01*
X0365931Y0110578D01*
X0366159Y0110767D01*
X0366383Y0110961D01*
X0366601Y0111160D01*
X0366815Y0111365D01*
X0367024Y0111575D01*
X0367227Y0111790D01*
X0367425Y0112010D01*
X0367618Y0112235D01*
X0367805Y0112464D01*
X0367986Y0112698D01*
D18*
X0110833Y0332000D02*
X0078333Y0332000D01*
X0078333Y0368000D01*
X0110833Y0368000D01*
X0110833Y0332000D01*
D19*
X0115083Y0340000D03*
X0115083Y0350000D03*
X0115083Y0360000D03*
D20*
X0191286Y0065000D02*
X0191288Y0065105D01*
X0191294Y0065210D01*
X0191304Y0065314D01*
X0191318Y0065418D01*
X0191336Y0065522D01*
X0191358Y0065624D01*
X0191383Y0065726D01*
X0191413Y0065827D01*
X0191446Y0065926D01*
X0191483Y0066024D01*
X0191524Y0066121D01*
X0191569Y0066216D01*
X0191617Y0066309D01*
X0191668Y0066401D01*
X0191724Y0066490D01*
X0191782Y0066577D01*
X0191844Y0066662D01*
X0191908Y0066745D01*
X0191976Y0066825D01*
X0192047Y0066902D01*
X0192121Y0066976D01*
X0192198Y0067048D01*
X0192277Y0067117D01*
X0192359Y0067182D01*
X0192443Y0067245D01*
X0192530Y0067304D01*
X0192619Y0067360D01*
X0192710Y0067413D01*
X0192803Y0067462D01*
X0192897Y0067507D01*
X0192993Y0067549D01*
X0193091Y0067587D01*
X0193190Y0067621D01*
X0193291Y0067652D01*
X0193392Y0067678D01*
X0193495Y0067701D01*
X0193598Y0067720D01*
X0193702Y0067735D01*
X0193806Y0067746D01*
X0193911Y0067753D01*
X0194016Y0067756D01*
X0194121Y0067755D01*
X0194226Y0067750D01*
X0194330Y0067741D01*
X0194434Y0067728D01*
X0194538Y0067711D01*
X0194641Y0067690D01*
X0194743Y0067665D01*
X0194844Y0067637D01*
X0194943Y0067604D01*
X0195042Y0067568D01*
X0195139Y0067528D01*
X0195234Y0067485D01*
X0195328Y0067437D01*
X0195420Y0067387D01*
X0195510Y0067333D01*
X0195598Y0067275D01*
X0195683Y0067214D01*
X0195766Y0067150D01*
X0195847Y0067083D01*
X0195925Y0067013D01*
X0196000Y0066939D01*
X0196072Y0066864D01*
X0196142Y0066785D01*
X0196208Y0066704D01*
X0196272Y0066620D01*
X0196332Y0066534D01*
X0196388Y0066446D01*
X0196442Y0066355D01*
X0196492Y0066263D01*
X0196538Y0066169D01*
X0196581Y0066073D01*
X0196620Y0065975D01*
X0196655Y0065877D01*
X0196686Y0065776D01*
X0196714Y0065675D01*
X0196738Y0065573D01*
X0196758Y0065470D01*
X0196774Y0065366D01*
X0196786Y0065262D01*
X0196794Y0065157D01*
X0196798Y0065052D01*
X0196798Y0064948D01*
X0196794Y0064843D01*
X0196786Y0064738D01*
X0196774Y0064634D01*
X0196758Y0064530D01*
X0196738Y0064427D01*
X0196714Y0064325D01*
X0196686Y0064224D01*
X0196655Y0064123D01*
X0196620Y0064025D01*
X0196581Y0063927D01*
X0196538Y0063831D01*
X0196492Y0063737D01*
X0196442Y0063645D01*
X0196388Y0063554D01*
X0196332Y0063466D01*
X0196272Y0063380D01*
X0196208Y0063296D01*
X0196142Y0063215D01*
X0196072Y0063136D01*
X0196000Y0063061D01*
X0195925Y0062987D01*
X0195847Y0062917D01*
X0195766Y0062850D01*
X0195683Y0062786D01*
X0195598Y0062725D01*
X0195510Y0062667D01*
X0195420Y0062613D01*
X0195328Y0062563D01*
X0195234Y0062515D01*
X0195139Y0062472D01*
X0195042Y0062432D01*
X0194943Y0062396D01*
X0194844Y0062363D01*
X0194743Y0062335D01*
X0194641Y0062310D01*
X0194538Y0062289D01*
X0194434Y0062272D01*
X0194330Y0062259D01*
X0194226Y0062250D01*
X0194121Y0062245D01*
X0194016Y0062244D01*
X0193911Y0062247D01*
X0193806Y0062254D01*
X0193702Y0062265D01*
X0193598Y0062280D01*
X0193495Y0062299D01*
X0193392Y0062322D01*
X0193291Y0062348D01*
X0193190Y0062379D01*
X0193091Y0062413D01*
X0192993Y0062451D01*
X0192897Y0062493D01*
X0192803Y0062538D01*
X0192710Y0062587D01*
X0192619Y0062640D01*
X0192530Y0062696D01*
X0192443Y0062755D01*
X0192359Y0062818D01*
X0192277Y0062883D01*
X0192198Y0062952D01*
X0192121Y0063024D01*
X0192047Y0063098D01*
X0191976Y0063175D01*
X0191908Y0063255D01*
X0191844Y0063338D01*
X0191782Y0063423D01*
X0191724Y0063510D01*
X0191668Y0063599D01*
X0191617Y0063691D01*
X0191569Y0063784D01*
X0191524Y0063879D01*
X0191483Y0063976D01*
X0191446Y0064074D01*
X0191413Y0064173D01*
X0191383Y0064274D01*
X0191358Y0064376D01*
X0191336Y0064478D01*
X0191318Y0064582D01*
X0191304Y0064686D01*
X0191294Y0064790D01*
X0191288Y0064895D01*
X0191286Y0065000D01*
X0029869Y0065000D02*
X0029871Y0065105D01*
X0029877Y0065210D01*
X0029887Y0065314D01*
X0029901Y0065418D01*
X0029919Y0065522D01*
X0029941Y0065624D01*
X0029966Y0065726D01*
X0029996Y0065827D01*
X0030029Y0065926D01*
X0030066Y0066024D01*
X0030107Y0066121D01*
X0030152Y0066216D01*
X0030200Y0066309D01*
X0030251Y0066401D01*
X0030307Y0066490D01*
X0030365Y0066577D01*
X0030427Y0066662D01*
X0030491Y0066745D01*
X0030559Y0066825D01*
X0030630Y0066902D01*
X0030704Y0066976D01*
X0030781Y0067048D01*
X0030860Y0067117D01*
X0030942Y0067182D01*
X0031026Y0067245D01*
X0031113Y0067304D01*
X0031202Y0067360D01*
X0031293Y0067413D01*
X0031386Y0067462D01*
X0031480Y0067507D01*
X0031576Y0067549D01*
X0031674Y0067587D01*
X0031773Y0067621D01*
X0031874Y0067652D01*
X0031975Y0067678D01*
X0032078Y0067701D01*
X0032181Y0067720D01*
X0032285Y0067735D01*
X0032389Y0067746D01*
X0032494Y0067753D01*
X0032599Y0067756D01*
X0032704Y0067755D01*
X0032809Y0067750D01*
X0032913Y0067741D01*
X0033017Y0067728D01*
X0033121Y0067711D01*
X0033224Y0067690D01*
X0033326Y0067665D01*
X0033427Y0067637D01*
X0033526Y0067604D01*
X0033625Y0067568D01*
X0033722Y0067528D01*
X0033817Y0067485D01*
X0033911Y0067437D01*
X0034003Y0067387D01*
X0034093Y0067333D01*
X0034181Y0067275D01*
X0034266Y0067214D01*
X0034349Y0067150D01*
X0034430Y0067083D01*
X0034508Y0067013D01*
X0034583Y0066939D01*
X0034655Y0066864D01*
X0034725Y0066785D01*
X0034791Y0066704D01*
X0034855Y0066620D01*
X0034915Y0066534D01*
X0034971Y0066446D01*
X0035025Y0066355D01*
X0035075Y0066263D01*
X0035121Y0066169D01*
X0035164Y0066073D01*
X0035203Y0065975D01*
X0035238Y0065877D01*
X0035269Y0065776D01*
X0035297Y0065675D01*
X0035321Y0065573D01*
X0035341Y0065470D01*
X0035357Y0065366D01*
X0035369Y0065262D01*
X0035377Y0065157D01*
X0035381Y0065052D01*
X0035381Y0064948D01*
X0035377Y0064843D01*
X0035369Y0064738D01*
X0035357Y0064634D01*
X0035341Y0064530D01*
X0035321Y0064427D01*
X0035297Y0064325D01*
X0035269Y0064224D01*
X0035238Y0064123D01*
X0035203Y0064025D01*
X0035164Y0063927D01*
X0035121Y0063831D01*
X0035075Y0063737D01*
X0035025Y0063645D01*
X0034971Y0063554D01*
X0034915Y0063466D01*
X0034855Y0063380D01*
X0034791Y0063296D01*
X0034725Y0063215D01*
X0034655Y0063136D01*
X0034583Y0063061D01*
X0034508Y0062987D01*
X0034430Y0062917D01*
X0034349Y0062850D01*
X0034266Y0062786D01*
X0034181Y0062725D01*
X0034093Y0062667D01*
X0034003Y0062613D01*
X0033911Y0062563D01*
X0033817Y0062515D01*
X0033722Y0062472D01*
X0033625Y0062432D01*
X0033526Y0062396D01*
X0033427Y0062363D01*
X0033326Y0062335D01*
X0033224Y0062310D01*
X0033121Y0062289D01*
X0033017Y0062272D01*
X0032913Y0062259D01*
X0032809Y0062250D01*
X0032704Y0062245D01*
X0032599Y0062244D01*
X0032494Y0062247D01*
X0032389Y0062254D01*
X0032285Y0062265D01*
X0032181Y0062280D01*
X0032078Y0062299D01*
X0031975Y0062322D01*
X0031874Y0062348D01*
X0031773Y0062379D01*
X0031674Y0062413D01*
X0031576Y0062451D01*
X0031480Y0062493D01*
X0031386Y0062538D01*
X0031293Y0062587D01*
X0031202Y0062640D01*
X0031113Y0062696D01*
X0031026Y0062755D01*
X0030942Y0062818D01*
X0030860Y0062883D01*
X0030781Y0062952D01*
X0030704Y0063024D01*
X0030630Y0063098D01*
X0030559Y0063175D01*
X0030491Y0063255D01*
X0030427Y0063338D01*
X0030365Y0063423D01*
X0030307Y0063510D01*
X0030251Y0063599D01*
X0030200Y0063691D01*
X0030152Y0063784D01*
X0030107Y0063879D01*
X0030066Y0063976D01*
X0030029Y0064074D01*
X0029996Y0064173D01*
X0029966Y0064274D01*
X0029941Y0064376D01*
X0029919Y0064478D01*
X0029901Y0064582D01*
X0029887Y0064686D01*
X0029877Y0064790D01*
X0029871Y0064895D01*
X0029869Y0065000D01*
M02*
