G75*
%MOIN*%
%OFA0B0*%
%FSLAX25Y25*%
%IPPOS*%
%LPD*%
%AMOC8*
5,1,8,0,0,1.08239X$1,22.5*
%
%ADD10C,0.00500*%
%ADD11C,0.08200*%
%ADD12C,0.12800*%
%ADD13C,0.09800*%
%ADD14C,0.07800*%
%ADD15C,0.07200*%
%ADD16C,0.13800*%
%ADD17C,0.09658*%
D10*
X0414618Y0288882D02*
X0414407Y0289202D01*
X0414272Y0289560D01*
X0414220Y0289940D01*
X0414255Y0290340D01*
X0414378Y0290723D01*
X0414584Y0291069D01*
X0414861Y0291360D01*
X0415196Y0291582D01*
X0415572Y0291725D01*
X0415970Y0291780D01*
X0416363Y0291728D01*
X0416735Y0291591D01*
X0417067Y0291375D01*
X0417342Y0291090D01*
X0417548Y0290751D01*
X0417672Y0290374D01*
X0417710Y0289980D01*
X0417663Y0289596D01*
X0417533Y0289233D01*
X0417324Y0288908D01*
X0417049Y0288637D01*
X0416720Y0288434D01*
X0416354Y0288310D01*
X0415970Y0288270D01*
X0415589Y0288304D01*
X0415224Y0288422D01*
X0414895Y0288618D01*
X0414618Y0288882D01*
X0414749Y0288757D02*
X0417171Y0288757D01*
X0417541Y0289256D02*
X0414386Y0289256D01*
X0414245Y0289754D02*
X0417682Y0289754D01*
X0417684Y0290253D02*
X0414247Y0290253D01*
X0414395Y0290751D02*
X0417547Y0290751D01*
X0417188Y0291250D02*
X0414756Y0291250D01*
X0415743Y0291748D02*
X0416211Y0291748D01*
X0425275Y0290340D02*
X0425398Y0290723D01*
X0425604Y0291069D01*
X0425881Y0291360D01*
X0426216Y0291582D01*
X0426592Y0291725D01*
X0426990Y0291780D01*
X0427383Y0291728D01*
X0427755Y0291591D01*
X0428087Y0291375D01*
X0428362Y0291090D01*
X0428568Y0290751D01*
X0428692Y0290374D01*
X0428730Y0289980D01*
X0428683Y0289596D01*
X0428553Y0289233D01*
X0428344Y0288908D01*
X0428069Y0288637D01*
X0427740Y0288434D01*
X0427374Y0288310D01*
X0426990Y0288270D01*
X0426609Y0288304D01*
X0426244Y0288422D01*
X0425915Y0288618D01*
X0425638Y0288882D01*
X0425427Y0289202D01*
X0425292Y0289560D01*
X0425240Y0289940D01*
X0425275Y0290340D01*
X0425268Y0290253D02*
X0428704Y0290253D01*
X0428703Y0289754D02*
X0425265Y0289754D01*
X0425406Y0289256D02*
X0428561Y0289256D01*
X0428191Y0288757D02*
X0425769Y0288757D01*
X0425415Y0290751D02*
X0428567Y0290751D01*
X0428208Y0291250D02*
X0425776Y0291250D01*
X0426763Y0291748D02*
X0427231Y0291748D01*
X0454220Y0289940D02*
X0454255Y0290340D01*
X0454378Y0290723D01*
X0454584Y0291069D01*
X0454861Y0291360D01*
X0455196Y0291582D01*
X0455572Y0291725D01*
X0455970Y0291780D01*
X0456363Y0291728D01*
X0456735Y0291591D01*
X0457067Y0291375D01*
X0457342Y0291090D01*
X0457548Y0290751D01*
X0457672Y0290374D01*
X0457710Y0289980D01*
X0457663Y0289596D01*
X0457533Y0289233D01*
X0457324Y0288908D01*
X0457049Y0288637D01*
X0456720Y0288434D01*
X0456354Y0288310D01*
X0455970Y0288270D01*
X0455589Y0288304D01*
X0455224Y0288422D01*
X0454895Y0288618D01*
X0454618Y0288882D01*
X0454407Y0289202D01*
X0454272Y0289560D01*
X0454220Y0289940D01*
X0454245Y0289754D02*
X0457682Y0289754D01*
X0457684Y0290253D02*
X0454247Y0290253D01*
X0454395Y0290751D02*
X0457547Y0290751D01*
X0457188Y0291250D02*
X0454756Y0291250D01*
X0455743Y0291748D02*
X0456211Y0291748D01*
X0457541Y0289256D02*
X0454386Y0289256D01*
X0454749Y0288757D02*
X0457171Y0288757D01*
X0465240Y0289940D02*
X0465275Y0290340D01*
X0465398Y0290723D01*
X0465604Y0291069D01*
X0465881Y0291360D01*
X0466216Y0291582D01*
X0466592Y0291725D01*
X0466990Y0291780D01*
X0467383Y0291728D01*
X0467755Y0291591D01*
X0468087Y0291375D01*
X0468362Y0291090D01*
X0468568Y0290751D01*
X0468692Y0290374D01*
X0468730Y0289980D01*
X0468683Y0289596D01*
X0468553Y0289233D01*
X0468344Y0288908D01*
X0468069Y0288637D01*
X0467740Y0288434D01*
X0467374Y0288310D01*
X0466990Y0288270D01*
X0466609Y0288304D01*
X0466244Y0288422D01*
X0465915Y0288618D01*
X0465638Y0288882D01*
X0465427Y0289202D01*
X0465292Y0289560D01*
X0465240Y0289940D01*
X0465265Y0289754D02*
X0468703Y0289754D01*
X0468704Y0290253D02*
X0465268Y0290253D01*
X0465415Y0290751D02*
X0468567Y0290751D01*
X0468208Y0291250D02*
X0465776Y0291250D01*
X0466763Y0291748D02*
X0467231Y0291748D01*
X0468561Y0289256D02*
X0465406Y0289256D01*
X0465769Y0288757D02*
X0468191Y0288757D01*
D11*
X0451500Y0190000D03*
X0441500Y0190000D03*
X0431500Y0150000D03*
X0431500Y0120000D03*
X0461500Y0120000D03*
X0461500Y0150000D03*
X0459300Y0088900D03*
X0459300Y0071100D03*
X0433700Y0071100D03*
X0433700Y0088900D03*
X0384300Y0088900D03*
X0384300Y0071100D03*
X0358700Y0071100D03*
X0358700Y0088900D03*
X0356500Y0120000D03*
X0356500Y0150000D03*
X0386500Y0150000D03*
X0386500Y0120000D03*
X0376500Y0190000D03*
X0366500Y0190000D03*
X0346500Y0250000D03*
X0336500Y0250000D03*
X0326500Y0250000D03*
X0316500Y0250000D03*
X0306500Y0250000D03*
X0296500Y0250000D03*
X0286500Y0250000D03*
X0276500Y0250000D03*
X0251500Y0220000D03*
X0251500Y0195000D03*
X0271500Y0195000D03*
X0301500Y0195000D03*
X0251500Y0170000D03*
X0251500Y0145000D03*
X0251500Y0120000D03*
X0221500Y0120000D03*
X0221500Y0145000D03*
X0221500Y0170000D03*
X0221500Y0195000D03*
X0201500Y0210000D03*
X0201500Y0220000D03*
X0191500Y0220000D03*
X0191500Y0210000D03*
X0191500Y0230000D03*
X0191500Y0240000D03*
X0191500Y0250000D03*
X0191500Y0260000D03*
X0201500Y0260000D03*
X0201500Y0250000D03*
X0201500Y0240000D03*
X0201500Y0230000D03*
X0221500Y0220000D03*
X0201500Y0270000D03*
X0201500Y0280000D03*
X0201500Y0290000D03*
X0201500Y0300000D03*
X0191500Y0300000D03*
X0191500Y0290000D03*
X0191500Y0280000D03*
X0191500Y0270000D03*
X0296500Y0355000D03*
X0326500Y0355000D03*
X0326500Y0410000D03*
X0316500Y0410000D03*
X0306500Y0410000D03*
X0296500Y0410000D03*
X0286500Y0410000D03*
X0276500Y0410000D03*
X0336500Y0410000D03*
X0346500Y0410000D03*
X0031500Y0300000D03*
X0031500Y0290000D03*
X0031500Y0280000D03*
X0031500Y0270000D03*
X0021500Y0270000D03*
X0021500Y0280000D03*
X0021500Y0290000D03*
X0021500Y0300000D03*
X0021500Y0260000D03*
X0021500Y0250000D03*
X0021500Y0240000D03*
X0021500Y0230000D03*
X0031500Y0230000D03*
X0031500Y0240000D03*
X0031500Y0250000D03*
X0031500Y0260000D03*
X0031500Y0220000D03*
X0031500Y0210000D03*
X0021500Y0210000D03*
X0021500Y0220000D03*
D12*
X0409500Y0414000D03*
X0460500Y0414000D03*
D13*
X0479500Y0365000D03*
X0391500Y0312000D03*
X0479500Y0259000D03*
D14*
X0324295Y0140000D03*
X0298705Y0140000D03*
D15*
X0426500Y0321800D02*
X0426500Y0328200D01*
X0436500Y0328200D02*
X0436500Y0321800D01*
X0446500Y0321800D02*
X0446500Y0328200D01*
D16*
X0436500Y0384000D03*
D17*
X0090870Y0087874D03*
X0262130Y0087874D03*
X0262130Y0072126D03*
M02*
