G75*
%MOIN*%
%OFA0B0*%
%FSLAX25Y25*%
%IPPOS*%
%LPD*%
%AMOC8*
5,1,8,0,0,1.08239X$1,22.5*
%
%ADD10C,0.00400*%
%ADD11C,0.00800*%
%ADD12C,0.01000*%
%ADD13C,0.00600*%
%ADD14R,0.05000X0.05000*%
%ADD15C,0.01969*%
%ADD16C,0.00100*%
%ADD17C,0.00200*%
%ADD18R,0.03500X0.05000*%
D10*
X0033331Y0119482D02*
X0033331Y0122552D01*
X0031797Y0124086D02*
X0031029Y0124854D01*
X0031029Y0126388D01*
X0031797Y0127155D01*
X0032564Y0127155D01*
X0033331Y0126388D01*
X0034099Y0127155D01*
X0034866Y0127155D01*
X0035633Y0126388D01*
X0035633Y0124854D01*
X0034866Y0124086D01*
X0033331Y0125621D02*
X0033331Y0126388D01*
X0034866Y0128690D02*
X0034866Y0129457D01*
X0035633Y0129457D01*
X0035633Y0128690D01*
X0034866Y0128690D01*
X0034866Y0130992D02*
X0035633Y0131759D01*
X0035633Y0133294D01*
X0034866Y0134061D01*
X0034099Y0134061D01*
X0033331Y0133294D01*
X0033331Y0132527D01*
X0033331Y0133294D02*
X0032564Y0134061D01*
X0031797Y0134061D01*
X0031029Y0133294D01*
X0031029Y0131759D01*
X0031797Y0130992D01*
X0031029Y0135596D02*
X0034099Y0135596D01*
X0035633Y0137131D01*
X0034099Y0138665D01*
X0031029Y0138665D01*
X0041029Y0138665D02*
X0041029Y0135596D01*
X0043331Y0135596D01*
X0042564Y0137131D01*
X0042564Y0137898D01*
X0043331Y0138665D01*
X0044866Y0138665D01*
X0045633Y0137898D01*
X0045633Y0136363D01*
X0044866Y0135596D01*
X0044866Y0134061D02*
X0045633Y0133294D01*
X0045633Y0130992D01*
X0041029Y0130992D01*
X0041029Y0133294D01*
X0041797Y0134061D01*
X0042564Y0134061D01*
X0043331Y0133294D01*
X0043331Y0130992D01*
X0043331Y0129457D02*
X0041797Y0129457D01*
X0041029Y0128690D01*
X0041029Y0126388D01*
X0045633Y0126388D01*
X0044099Y0126388D02*
X0044099Y0128690D01*
X0043331Y0129457D01*
X0043331Y0133294D02*
X0044099Y0134061D01*
X0044866Y0134061D01*
X0051029Y0133294D02*
X0051797Y0134061D01*
X0052564Y0134061D01*
X0053331Y0133294D01*
X0053331Y0130992D01*
X0053331Y0129457D02*
X0054099Y0128690D01*
X0054099Y0126388D01*
X0055633Y0126388D02*
X0051029Y0126388D01*
X0051029Y0128690D01*
X0051797Y0129457D01*
X0053331Y0129457D01*
X0051029Y0130992D02*
X0051029Y0133294D01*
X0051029Y0130992D02*
X0055633Y0130992D01*
X0055633Y0133294D01*
X0054866Y0134061D01*
X0054099Y0134061D01*
X0053331Y0133294D01*
X0051797Y0135596D02*
X0051029Y0136363D01*
X0051029Y0137898D01*
X0051797Y0138665D01*
X0054866Y0135596D01*
X0055633Y0136363D01*
X0055633Y0137898D01*
X0054866Y0138665D01*
X0051797Y0138665D01*
X0051797Y0135596D02*
X0054866Y0135596D01*
X0061029Y0137131D02*
X0065633Y0137131D01*
X0065633Y0138665D02*
X0065633Y0135596D01*
X0064866Y0134061D02*
X0064099Y0134061D01*
X0063331Y0133294D01*
X0063331Y0130992D01*
X0063331Y0129457D02*
X0064099Y0128690D01*
X0064099Y0126388D01*
X0065633Y0126388D02*
X0061029Y0126388D01*
X0061029Y0128690D01*
X0061797Y0129457D01*
X0063331Y0129457D01*
X0061029Y0130992D02*
X0061029Y0133294D01*
X0061797Y0134061D01*
X0062564Y0134061D01*
X0063331Y0133294D01*
X0064866Y0134061D02*
X0065633Y0133294D01*
X0065633Y0130992D01*
X0061029Y0130992D01*
X0062564Y0135596D02*
X0061029Y0137131D01*
X0071029Y0137898D02*
X0073331Y0135596D01*
X0073331Y0138665D01*
X0075633Y0137898D02*
X0071029Y0137898D01*
X0071029Y0134061D02*
X0071029Y0130992D01*
X0075633Y0130992D01*
X0075633Y0134061D01*
X0073331Y0132527D02*
X0073331Y0130992D01*
X0073331Y0129457D02*
X0071797Y0129457D01*
X0071029Y0128690D01*
X0071029Y0126388D01*
X0075633Y0126388D01*
X0074099Y0126388D02*
X0074099Y0128690D01*
X0073331Y0129457D01*
X0081029Y0128690D02*
X0081029Y0126388D01*
X0085633Y0126388D01*
X0084099Y0126388D02*
X0084099Y0128690D01*
X0083331Y0129457D01*
X0081797Y0129457D01*
X0081029Y0128690D01*
X0081029Y0130992D02*
X0085633Y0130992D01*
X0085633Y0134061D01*
X0084866Y0135596D02*
X0085633Y0136363D01*
X0085633Y0137898D01*
X0084866Y0138665D01*
X0083331Y0138665D01*
X0082564Y0137898D01*
X0082564Y0137131D01*
X0083331Y0135596D01*
X0081029Y0135596D01*
X0081029Y0138665D01*
X0081029Y0134061D02*
X0081029Y0130992D01*
X0083331Y0130992D02*
X0083331Y0132527D01*
X0091029Y0133294D02*
X0091797Y0134061D01*
X0092564Y0134061D01*
X0093331Y0133294D01*
X0093331Y0130992D01*
X0093331Y0129457D02*
X0094099Y0128690D01*
X0094099Y0126388D01*
X0095633Y0126388D02*
X0091029Y0126388D01*
X0091029Y0128690D01*
X0091797Y0129457D01*
X0093331Y0129457D01*
X0091029Y0130992D02*
X0091029Y0133294D01*
X0091029Y0130992D02*
X0095633Y0130992D01*
X0095633Y0133294D01*
X0094866Y0134061D01*
X0094099Y0134061D01*
X0093331Y0133294D01*
X0093331Y0135596D02*
X0093331Y0138665D01*
X0091029Y0137898D02*
X0093331Y0135596D01*
X0095633Y0137898D02*
X0091029Y0137898D01*
X0101029Y0138665D02*
X0101029Y0135596D01*
X0103331Y0135596D01*
X0102564Y0137131D01*
X0102564Y0137898D01*
X0103331Y0138665D01*
X0104866Y0138665D01*
X0105633Y0137898D01*
X0105633Y0136363D01*
X0104866Y0135596D01*
X0105633Y0134061D02*
X0102564Y0134061D01*
X0101029Y0132527D01*
X0102564Y0130992D01*
X0105633Y0130992D01*
X0103331Y0130992D02*
X0103331Y0134061D01*
X0103331Y0129457D02*
X0101797Y0129457D01*
X0101029Y0128690D01*
X0101029Y0126388D01*
X0105633Y0126388D01*
X0104099Y0126388D02*
X0104099Y0128690D01*
X0103331Y0129457D01*
X0111029Y0128690D02*
X0111029Y0126388D01*
X0115633Y0126388D01*
X0114099Y0126388D02*
X0114099Y0128690D01*
X0113331Y0129457D01*
X0111797Y0129457D01*
X0111029Y0128690D01*
X0112564Y0130992D02*
X0111029Y0132527D01*
X0112564Y0134061D01*
X0115633Y0134061D01*
X0114866Y0135596D02*
X0115633Y0136363D01*
X0115633Y0137898D01*
X0114866Y0138665D01*
X0114099Y0138665D01*
X0113331Y0137898D01*
X0113331Y0135596D01*
X0114866Y0135596D01*
X0113331Y0135596D02*
X0111797Y0137131D01*
X0111029Y0138665D01*
X0113331Y0134061D02*
X0113331Y0130992D01*
X0112564Y0130992D02*
X0115633Y0130992D01*
X0121029Y0132527D02*
X0122564Y0134061D01*
X0125633Y0134061D01*
X0125633Y0135596D02*
X0124866Y0135596D01*
X0121797Y0138665D01*
X0121029Y0138665D01*
X0121029Y0135596D01*
X0123331Y0134061D02*
X0123331Y0130992D01*
X0122564Y0130992D02*
X0121029Y0132527D01*
X0122564Y0130992D02*
X0125633Y0130992D01*
X0123331Y0129457D02*
X0124099Y0128690D01*
X0124099Y0126388D01*
X0125633Y0126388D02*
X0121029Y0126388D01*
X0121029Y0128690D01*
X0121797Y0129457D01*
X0123331Y0129457D01*
X0124099Y0161200D02*
X0124099Y0163502D01*
X0123331Y0164269D01*
X0121797Y0164269D01*
X0121029Y0163502D01*
X0121029Y0161200D01*
X0125633Y0161200D01*
X0125633Y0165804D02*
X0121029Y0165804D01*
X0121029Y0168873D01*
X0122564Y0170408D02*
X0121029Y0171942D01*
X0125633Y0171942D01*
X0125633Y0170408D02*
X0125633Y0173477D01*
X0123331Y0167339D02*
X0123331Y0165804D01*
X0115633Y0165804D02*
X0115633Y0168873D01*
X0114866Y0170408D02*
X0115633Y0171175D01*
X0115633Y0172710D01*
X0114866Y0173477D01*
X0114099Y0173477D01*
X0113331Y0172710D01*
X0113331Y0171942D01*
X0113331Y0172710D02*
X0112564Y0173477D01*
X0111797Y0173477D01*
X0111029Y0172710D01*
X0111029Y0171175D01*
X0111797Y0170408D01*
X0111029Y0168873D02*
X0111029Y0165804D01*
X0115633Y0165804D01*
X0113331Y0165804D02*
X0113331Y0167339D01*
X0113331Y0164269D02*
X0114099Y0163502D01*
X0114099Y0161200D01*
X0115633Y0161200D02*
X0111029Y0161200D01*
X0111029Y0163502D01*
X0111797Y0164269D01*
X0113331Y0164269D01*
X0105633Y0165804D02*
X0105633Y0168873D01*
X0105633Y0170408D02*
X0102564Y0173477D01*
X0101797Y0173477D01*
X0101029Y0172710D01*
X0101029Y0171175D01*
X0101797Y0170408D01*
X0101029Y0168873D02*
X0101029Y0165804D01*
X0105633Y0165804D01*
X0103331Y0165804D02*
X0103331Y0167339D01*
X0103331Y0164269D02*
X0101797Y0164269D01*
X0101029Y0163502D01*
X0101029Y0161200D01*
X0105633Y0161200D01*
X0104099Y0161200D02*
X0104099Y0163502D01*
X0103331Y0164269D01*
X0105633Y0170408D02*
X0105633Y0173477D01*
X0095633Y0173477D02*
X0095633Y0170408D01*
X0095633Y0171942D02*
X0091029Y0171942D01*
X0092564Y0170408D01*
X0091029Y0168873D02*
X0091029Y0165804D01*
X0095633Y0165804D01*
X0095633Y0168873D01*
X0093331Y0167339D02*
X0093331Y0165804D01*
X0093331Y0164269D02*
X0094099Y0163502D01*
X0094099Y0161200D01*
X0095633Y0161200D02*
X0091029Y0161200D01*
X0091029Y0163502D01*
X0091797Y0164269D01*
X0093331Y0164269D01*
X0085633Y0165804D02*
X0085633Y0168106D01*
X0084866Y0168873D01*
X0081797Y0168873D01*
X0081029Y0168106D01*
X0081029Y0165804D01*
X0085633Y0165804D01*
X0083331Y0164269D02*
X0084099Y0163502D01*
X0084099Y0161200D01*
X0085633Y0161200D02*
X0081029Y0161200D01*
X0081029Y0163502D01*
X0081797Y0164269D01*
X0083331Y0164269D01*
X0081797Y0170408D02*
X0081029Y0171175D01*
X0081029Y0172710D01*
X0081797Y0173477D01*
X0082564Y0173477D01*
X0083331Y0172710D01*
X0084099Y0173477D01*
X0084866Y0173477D01*
X0085633Y0172710D01*
X0085633Y0171175D01*
X0084866Y0170408D01*
X0083331Y0171942D02*
X0083331Y0172710D01*
X0075633Y0173477D02*
X0075633Y0170408D01*
X0072564Y0173477D01*
X0071797Y0173477D01*
X0071029Y0172710D01*
X0071029Y0171175D01*
X0071797Y0170408D01*
X0071797Y0168873D02*
X0071029Y0168106D01*
X0071029Y0165804D01*
X0075633Y0165804D01*
X0075633Y0168106D01*
X0074866Y0168873D01*
X0071797Y0168873D01*
X0071797Y0164269D02*
X0073331Y0164269D01*
X0074099Y0163502D01*
X0074099Y0161200D01*
X0075633Y0161200D02*
X0071029Y0161200D01*
X0071029Y0163502D01*
X0071797Y0164269D01*
X0065633Y0165804D02*
X0065633Y0168106D01*
X0064866Y0168873D01*
X0061797Y0168873D01*
X0061029Y0168106D01*
X0061029Y0165804D01*
X0065633Y0165804D01*
X0063331Y0164269D02*
X0064099Y0163502D01*
X0064099Y0161200D01*
X0065633Y0161200D02*
X0061029Y0161200D01*
X0061029Y0163502D01*
X0061797Y0164269D01*
X0063331Y0164269D01*
X0062564Y0170408D02*
X0061029Y0171942D01*
X0065633Y0171942D01*
X0065633Y0170408D02*
X0065633Y0173477D01*
X0055633Y0172710D02*
X0055633Y0171175D01*
X0054866Y0170408D01*
X0051797Y0173477D01*
X0054866Y0173477D01*
X0055633Y0172710D01*
X0054866Y0170408D02*
X0051797Y0170408D01*
X0051029Y0171175D01*
X0051029Y0172710D01*
X0051797Y0173477D01*
X0051797Y0168873D02*
X0051029Y0168106D01*
X0051029Y0165804D01*
X0055633Y0165804D01*
X0055633Y0168106D01*
X0054866Y0168873D01*
X0051797Y0168873D01*
X0051797Y0164269D02*
X0051029Y0163502D01*
X0051029Y0161200D01*
X0055633Y0161200D01*
X0054099Y0161200D02*
X0054099Y0163502D01*
X0053331Y0164269D01*
X0051797Y0164269D01*
X0045633Y0163502D02*
X0045633Y0161967D01*
X0044866Y0161200D01*
X0041797Y0161200D01*
X0041029Y0161967D01*
X0041029Y0163502D01*
X0041797Y0164269D01*
X0043331Y0164269D02*
X0043331Y0162735D01*
X0043331Y0164269D02*
X0044866Y0164269D01*
X0045633Y0163502D01*
X0045633Y0165804D02*
X0041029Y0165804D01*
X0045633Y0168873D01*
X0041029Y0168873D01*
X0041029Y0170408D02*
X0041029Y0172710D01*
X0041797Y0173477D01*
X0044866Y0173477D01*
X0045633Y0172710D01*
X0045633Y0170408D01*
X0041029Y0170408D01*
X0035633Y0171175D02*
X0035633Y0172710D01*
X0034866Y0173477D01*
X0031029Y0173477D01*
X0031797Y0175012D02*
X0032564Y0175012D01*
X0033331Y0175779D01*
X0033331Y0177314D01*
X0034099Y0178081D01*
X0034866Y0178081D01*
X0035633Y0177314D01*
X0035633Y0175779D01*
X0034866Y0175012D01*
X0031797Y0175012D02*
X0031029Y0175779D01*
X0031029Y0177314D01*
X0031797Y0178081D01*
X0031029Y0170408D02*
X0034866Y0170408D01*
X0035633Y0171175D01*
X0034866Y0168873D02*
X0034099Y0168873D01*
X0033331Y0168106D01*
X0033331Y0165804D01*
X0034099Y0164269D02*
X0031029Y0164269D01*
X0031029Y0165804D02*
X0031029Y0168106D01*
X0031797Y0168873D01*
X0032564Y0168873D01*
X0033331Y0168106D01*
X0034866Y0168873D02*
X0035633Y0168106D01*
X0035633Y0165804D01*
X0031029Y0165804D01*
X0034099Y0164269D02*
X0035633Y0162735D01*
X0034099Y0161200D01*
X0031029Y0161200D01*
X0031797Y0121017D02*
X0034866Y0121017D01*
X0034099Y0296388D02*
X0034099Y0298690D01*
X0033331Y0299457D01*
X0031797Y0299457D01*
X0031029Y0298690D01*
X0031029Y0296388D01*
X0035633Y0296388D01*
X0041029Y0296388D02*
X0041029Y0298690D01*
X0041797Y0299457D01*
X0043331Y0299457D01*
X0044099Y0298690D01*
X0044099Y0296388D01*
X0045633Y0296388D02*
X0041029Y0296388D01*
X0041029Y0300992D02*
X0041029Y0304061D01*
X0041797Y0305596D02*
X0041029Y0306363D01*
X0041029Y0307898D01*
X0041797Y0308665D01*
X0042564Y0308665D01*
X0043331Y0307898D01*
X0044099Y0308665D01*
X0044866Y0308665D01*
X0045633Y0307898D01*
X0045633Y0306363D01*
X0044866Y0305596D01*
X0043331Y0307131D02*
X0043331Y0307898D01*
X0043331Y0302527D02*
X0043331Y0300992D01*
X0045633Y0300992D02*
X0041029Y0300992D01*
X0035633Y0300992D02*
X0031029Y0300992D01*
X0031029Y0304061D01*
X0031797Y0305596D02*
X0031029Y0306363D01*
X0031029Y0307898D01*
X0031797Y0308665D01*
X0032564Y0308665D01*
X0035633Y0305596D01*
X0035633Y0308665D01*
X0033331Y0302527D02*
X0033331Y0300992D01*
X0051029Y0300992D02*
X0051029Y0303294D01*
X0051797Y0304061D01*
X0052564Y0304061D01*
X0053331Y0303294D01*
X0053331Y0300992D01*
X0053331Y0299457D02*
X0054099Y0298690D01*
X0054099Y0296388D01*
X0055633Y0296388D02*
X0051029Y0296388D01*
X0051029Y0298690D01*
X0051797Y0299457D01*
X0053331Y0299457D01*
X0055633Y0300992D02*
X0051029Y0300992D01*
X0053331Y0303294D02*
X0054099Y0304061D01*
X0054866Y0304061D01*
X0055633Y0303294D01*
X0055633Y0300992D01*
X0054866Y0305596D02*
X0055633Y0306363D01*
X0055633Y0307898D01*
X0054866Y0308665D01*
X0054099Y0308665D01*
X0053331Y0307898D01*
X0053331Y0307131D01*
X0053331Y0307898D02*
X0052564Y0308665D01*
X0051797Y0308665D01*
X0051029Y0307898D01*
X0051029Y0306363D01*
X0051797Y0305596D01*
X0061029Y0303294D02*
X0061029Y0301759D01*
X0061797Y0300992D01*
X0064866Y0300992D01*
X0065633Y0301759D01*
X0065633Y0303294D01*
X0064866Y0304061D01*
X0063331Y0305596D02*
X0063331Y0308665D01*
X0061029Y0307898D02*
X0063331Y0305596D01*
X0061797Y0304061D02*
X0061029Y0303294D01*
X0061797Y0299457D02*
X0063331Y0299457D01*
X0064099Y0298690D01*
X0064099Y0296388D01*
X0065633Y0296388D02*
X0061029Y0296388D01*
X0061029Y0298690D01*
X0061797Y0299457D01*
X0061029Y0307898D02*
X0065633Y0307898D01*
X0071029Y0308665D02*
X0071029Y0305596D01*
X0073331Y0305596D01*
X0072564Y0307131D01*
X0072564Y0307898D01*
X0073331Y0308665D01*
X0074866Y0308665D01*
X0075633Y0307898D01*
X0075633Y0306363D01*
X0074866Y0305596D01*
X0074866Y0304061D02*
X0075633Y0303294D01*
X0075633Y0301759D01*
X0074866Y0300992D01*
X0071797Y0300992D01*
X0071029Y0301759D01*
X0071029Y0303294D01*
X0071797Y0304061D01*
X0071797Y0299457D02*
X0073331Y0299457D01*
X0074099Y0298690D01*
X0074099Y0296388D01*
X0075633Y0296388D02*
X0071029Y0296388D01*
X0071029Y0298690D01*
X0071797Y0299457D01*
X0081029Y0298690D02*
X0081029Y0296388D01*
X0085633Y0296388D01*
X0084099Y0296388D02*
X0084099Y0298690D01*
X0083331Y0299457D01*
X0081797Y0299457D01*
X0081029Y0298690D01*
X0081797Y0300992D02*
X0081029Y0301759D01*
X0081029Y0303294D01*
X0081797Y0304061D01*
X0083331Y0305596D02*
X0083331Y0307898D01*
X0084099Y0308665D01*
X0084866Y0308665D01*
X0085633Y0307898D01*
X0085633Y0306363D01*
X0084866Y0305596D01*
X0083331Y0305596D01*
X0081797Y0307131D01*
X0081029Y0308665D01*
X0084866Y0304061D02*
X0085633Y0303294D01*
X0085633Y0301759D01*
X0084866Y0300992D01*
X0081797Y0300992D01*
X0091029Y0301759D02*
X0091797Y0300992D01*
X0094866Y0300992D01*
X0095633Y0301759D01*
X0095633Y0303294D01*
X0094866Y0304061D01*
X0094866Y0305596D02*
X0095633Y0305596D01*
X0094866Y0305596D02*
X0091797Y0308665D01*
X0091029Y0308665D01*
X0091029Y0305596D01*
X0091797Y0304061D02*
X0091029Y0303294D01*
X0091029Y0301759D01*
X0091797Y0299457D02*
X0093331Y0299457D01*
X0094099Y0298690D01*
X0094099Y0296388D01*
X0095633Y0296388D02*
X0091029Y0296388D01*
X0091029Y0298690D01*
X0091797Y0299457D01*
X0101029Y0298690D02*
X0101029Y0296388D01*
X0105633Y0296388D01*
X0104099Y0296388D02*
X0104099Y0298690D01*
X0103331Y0299457D01*
X0101797Y0299457D01*
X0101029Y0298690D01*
X0101029Y0300992D02*
X0101029Y0303294D01*
X0101797Y0304061D01*
X0104866Y0304061D01*
X0105633Y0303294D01*
X0105633Y0300992D01*
X0101029Y0300992D01*
X0103331Y0305596D02*
X0101797Y0307131D01*
X0101029Y0308665D01*
X0103331Y0307898D02*
X0103331Y0305596D01*
X0104866Y0305596D01*
X0105633Y0306363D01*
X0105633Y0307898D01*
X0104866Y0308665D01*
X0104099Y0308665D01*
X0103331Y0307898D01*
X0111029Y0308665D02*
X0111797Y0308665D01*
X0114866Y0305596D01*
X0115633Y0305596D01*
X0114866Y0304061D02*
X0111797Y0304061D01*
X0111029Y0303294D01*
X0111029Y0300992D01*
X0115633Y0300992D01*
X0115633Y0303294D01*
X0114866Y0304061D01*
X0111029Y0305596D02*
X0111029Y0308665D01*
X0111797Y0299457D02*
X0111029Y0298690D01*
X0111029Y0296388D01*
X0115633Y0296388D01*
X0114099Y0296388D02*
X0114099Y0298690D01*
X0113331Y0299457D01*
X0111797Y0299457D01*
X0121029Y0298690D02*
X0121029Y0296388D01*
X0125633Y0296388D01*
X0124099Y0296388D02*
X0124099Y0298690D01*
X0123331Y0299457D01*
X0121797Y0299457D01*
X0121029Y0298690D01*
X0121029Y0300992D02*
X0121029Y0304061D01*
X0123331Y0302527D02*
X0123331Y0300992D01*
X0125633Y0300992D02*
X0121029Y0300992D01*
X0123331Y0305596D02*
X0123331Y0308665D01*
X0121029Y0307898D02*
X0123331Y0305596D01*
X0125633Y0307898D02*
X0121029Y0307898D01*
X0121029Y0331200D02*
X0121029Y0333502D01*
X0121797Y0334269D01*
X0123331Y0334269D01*
X0124099Y0333502D01*
X0124099Y0331200D01*
X0125633Y0331200D02*
X0121029Y0331200D01*
X0122564Y0335804D02*
X0121029Y0337339D01*
X0122564Y0338873D01*
X0125633Y0338873D01*
X0125633Y0340408D02*
X0122564Y0343477D01*
X0121797Y0343477D01*
X0121029Y0342710D01*
X0121029Y0341175D01*
X0121797Y0340408D01*
X0123331Y0338873D02*
X0123331Y0335804D01*
X0122564Y0335804D02*
X0125633Y0335804D01*
X0125633Y0340408D02*
X0125633Y0343477D01*
X0115633Y0342710D02*
X0115633Y0341175D01*
X0114866Y0340408D01*
X0115633Y0338873D02*
X0112564Y0338873D01*
X0111029Y0337339D01*
X0112564Y0335804D01*
X0115633Y0335804D01*
X0113331Y0335804D02*
X0113331Y0338873D01*
X0111797Y0340408D02*
X0111029Y0341175D01*
X0111029Y0342710D01*
X0111797Y0343477D01*
X0112564Y0343477D01*
X0113331Y0342710D01*
X0114099Y0343477D01*
X0114866Y0343477D01*
X0115633Y0342710D01*
X0113331Y0342710D02*
X0113331Y0341942D01*
X0113331Y0334269D02*
X0114099Y0333502D01*
X0114099Y0331200D01*
X0115633Y0331200D02*
X0111029Y0331200D01*
X0111029Y0333502D01*
X0111797Y0334269D01*
X0113331Y0334269D01*
X0105633Y0335804D02*
X0102564Y0335804D01*
X0101029Y0337339D01*
X0102564Y0338873D01*
X0105633Y0338873D01*
X0103331Y0338873D02*
X0103331Y0335804D01*
X0103331Y0334269D02*
X0104099Y0333502D01*
X0104099Y0331200D01*
X0105633Y0331200D02*
X0101029Y0331200D01*
X0101029Y0333502D01*
X0101797Y0334269D01*
X0103331Y0334269D01*
X0103331Y0340408D02*
X0103331Y0343477D01*
X0105633Y0342710D02*
X0101029Y0342710D01*
X0103331Y0340408D01*
X0095633Y0341175D02*
X0094866Y0340408D01*
X0093331Y0340408D01*
X0093331Y0342710D01*
X0094099Y0343477D01*
X0094866Y0343477D01*
X0095633Y0342710D01*
X0095633Y0341175D01*
X0093331Y0340408D02*
X0091797Y0341942D01*
X0091029Y0343477D01*
X0091797Y0338873D02*
X0092564Y0338873D01*
X0093331Y0338106D01*
X0093331Y0335804D01*
X0093331Y0334269D02*
X0094099Y0333502D01*
X0094099Y0331200D01*
X0095633Y0331200D02*
X0091029Y0331200D01*
X0091029Y0333502D01*
X0091797Y0334269D01*
X0093331Y0334269D01*
X0091029Y0335804D02*
X0091029Y0338106D01*
X0091797Y0338873D01*
X0093331Y0338106D02*
X0094099Y0338873D01*
X0094866Y0338873D01*
X0095633Y0338106D01*
X0095633Y0335804D01*
X0091029Y0335804D01*
X0085633Y0335804D02*
X0085633Y0338106D01*
X0084866Y0338873D01*
X0084099Y0338873D01*
X0083331Y0338106D01*
X0083331Y0335804D01*
X0083331Y0334269D02*
X0084099Y0333502D01*
X0084099Y0331200D01*
X0085633Y0331200D02*
X0081029Y0331200D01*
X0081029Y0333502D01*
X0081797Y0334269D01*
X0083331Y0334269D01*
X0085633Y0335804D02*
X0081029Y0335804D01*
X0081029Y0338106D01*
X0081797Y0338873D01*
X0082564Y0338873D01*
X0083331Y0338106D01*
X0084866Y0340408D02*
X0085633Y0340408D01*
X0084866Y0340408D02*
X0081797Y0343477D01*
X0081029Y0343477D01*
X0081029Y0340408D01*
X0075633Y0341942D02*
X0071029Y0341942D01*
X0071029Y0340408D02*
X0071029Y0343477D01*
X0071797Y0338873D02*
X0071029Y0338106D01*
X0071029Y0336571D01*
X0071797Y0335804D01*
X0072564Y0335804D01*
X0073331Y0336571D01*
X0073331Y0338106D01*
X0074099Y0338873D01*
X0074866Y0338873D01*
X0075633Y0338106D01*
X0075633Y0336571D01*
X0074866Y0335804D01*
X0075633Y0334269D02*
X0074099Y0332735D01*
X0074099Y0333502D02*
X0074099Y0331200D01*
X0075633Y0331200D02*
X0071029Y0331200D01*
X0071029Y0333502D01*
X0071797Y0334269D01*
X0073331Y0334269D01*
X0074099Y0333502D01*
X0065633Y0335804D02*
X0061029Y0335804D01*
X0061029Y0338873D01*
X0061797Y0340408D02*
X0061029Y0341175D01*
X0061029Y0342710D01*
X0061797Y0343477D01*
X0064866Y0340408D01*
X0065633Y0341175D01*
X0065633Y0342710D01*
X0064866Y0343477D01*
X0061797Y0343477D01*
X0061797Y0340408D02*
X0064866Y0340408D01*
X0063331Y0337339D02*
X0063331Y0335804D01*
X0063331Y0334269D02*
X0064099Y0333502D01*
X0064099Y0331200D01*
X0065633Y0331200D02*
X0061029Y0331200D01*
X0061029Y0333502D01*
X0061797Y0334269D01*
X0063331Y0334269D01*
X0055633Y0335804D02*
X0055633Y0338873D01*
X0054866Y0340408D02*
X0051797Y0343477D01*
X0054866Y0343477D01*
X0055633Y0342710D01*
X0055633Y0341175D01*
X0054866Y0340408D01*
X0051797Y0340408D01*
X0051029Y0341175D01*
X0051029Y0342710D01*
X0051797Y0343477D01*
X0051029Y0338873D02*
X0051029Y0335804D01*
X0055633Y0335804D01*
X0053331Y0335804D02*
X0053331Y0337339D01*
X0053331Y0334269D02*
X0054099Y0333502D01*
X0054099Y0331200D01*
X0055633Y0331200D02*
X0051029Y0331200D01*
X0051029Y0333502D01*
X0051797Y0334269D01*
X0053331Y0334269D01*
X0045633Y0335804D02*
X0045633Y0338106D01*
X0044866Y0338873D01*
X0044099Y0338873D01*
X0043331Y0338106D01*
X0043331Y0335804D01*
X0043331Y0334269D02*
X0044099Y0333502D01*
X0044099Y0331200D01*
X0045633Y0331200D02*
X0041029Y0331200D01*
X0041029Y0333502D01*
X0041797Y0334269D01*
X0043331Y0334269D01*
X0045633Y0335804D02*
X0041029Y0335804D01*
X0041029Y0338106D01*
X0041797Y0338873D01*
X0042564Y0338873D01*
X0043331Y0338106D01*
X0041797Y0340408D02*
X0041029Y0341175D01*
X0041029Y0342710D01*
X0041797Y0343477D01*
X0042564Y0343477D01*
X0045633Y0340408D01*
X0045633Y0343477D01*
X0035633Y0342710D02*
X0035633Y0340408D01*
X0031029Y0340408D01*
X0031029Y0342710D01*
X0031797Y0343477D01*
X0034866Y0343477D01*
X0035633Y0342710D01*
X0035633Y0338873D02*
X0031029Y0338873D01*
X0031029Y0335804D02*
X0035633Y0338873D01*
X0035633Y0335804D02*
X0031029Y0335804D01*
X0031797Y0334269D02*
X0031029Y0333502D01*
X0031029Y0331967D01*
X0031797Y0331200D01*
X0034866Y0331200D01*
X0035633Y0331967D01*
X0035633Y0333502D01*
X0034866Y0334269D01*
X0033331Y0334269D01*
X0033331Y0332735D01*
X0241029Y0307898D02*
X0241029Y0306363D01*
X0241797Y0305596D01*
X0244866Y0305596D01*
X0245633Y0306363D01*
X0245633Y0307898D01*
X0244866Y0308665D01*
X0241797Y0308665D02*
X0241029Y0307898D01*
X0241797Y0304061D02*
X0241029Y0303294D01*
X0241029Y0301759D01*
X0241797Y0300992D01*
X0244866Y0300992D01*
X0245633Y0301759D01*
X0245633Y0303294D01*
X0244866Y0304061D01*
X0244099Y0299457D02*
X0241029Y0299457D01*
X0241029Y0296388D02*
X0244099Y0296388D01*
X0245633Y0297923D01*
X0244099Y0299457D01*
X0251029Y0298690D02*
X0251029Y0297156D01*
X0251797Y0296388D01*
X0254866Y0296388D01*
X0255633Y0297156D01*
X0255633Y0298690D01*
X0254866Y0299457D01*
X0253331Y0299457D01*
X0253331Y0297923D01*
X0251797Y0299457D02*
X0251029Y0298690D01*
X0251029Y0300992D02*
X0255633Y0304061D01*
X0251029Y0304061D01*
X0251029Y0305596D02*
X0251029Y0307898D01*
X0251797Y0308665D01*
X0254866Y0308665D01*
X0255633Y0307898D01*
X0255633Y0305596D01*
X0251029Y0305596D01*
X0251029Y0300992D02*
X0255633Y0300992D01*
X0261029Y0301759D02*
X0261797Y0300992D01*
X0264866Y0300992D01*
X0265633Y0301759D01*
X0265633Y0303294D01*
X0264866Y0304061D01*
X0265633Y0305596D02*
X0261029Y0305596D01*
X0261029Y0308665D01*
X0263331Y0307131D02*
X0263331Y0305596D01*
X0261797Y0304061D02*
X0261029Y0303294D01*
X0261029Y0301759D01*
X0261797Y0299457D02*
X0261029Y0298690D01*
X0261029Y0297156D01*
X0261797Y0296388D01*
X0262564Y0296388D01*
X0263331Y0297156D01*
X0263331Y0298690D01*
X0264099Y0299457D01*
X0264866Y0299457D01*
X0265633Y0298690D01*
X0265633Y0297156D01*
X0264866Y0296388D01*
X0271029Y0296388D02*
X0271029Y0298690D01*
X0271797Y0299457D01*
X0273331Y0299457D01*
X0274099Y0298690D01*
X0274099Y0296388D01*
X0275633Y0296388D02*
X0271029Y0296388D01*
X0274099Y0297923D02*
X0275633Y0299457D01*
X0274866Y0300992D02*
X0275633Y0301759D01*
X0275633Y0303294D01*
X0274866Y0304061D01*
X0274099Y0304061D01*
X0273331Y0303294D01*
X0273331Y0301759D01*
X0272564Y0300992D01*
X0271797Y0300992D01*
X0271029Y0301759D01*
X0271029Y0303294D01*
X0271797Y0304061D01*
X0271029Y0305596D02*
X0271029Y0308665D01*
X0271029Y0307131D02*
X0275633Y0307131D01*
X0281029Y0307898D02*
X0281797Y0308665D01*
X0281029Y0307898D02*
X0281029Y0306363D01*
X0281797Y0305596D01*
X0284866Y0305596D01*
X0285633Y0306363D01*
X0285633Y0307898D01*
X0284866Y0308665D01*
X0291029Y0308665D02*
X0295633Y0308665D01*
X0291029Y0305596D01*
X0295633Y0305596D01*
X0294866Y0304061D02*
X0291797Y0304061D01*
X0291029Y0303294D01*
X0291029Y0300992D01*
X0295633Y0300992D01*
X0295633Y0303294D01*
X0294866Y0304061D01*
X0301029Y0305596D02*
X0305633Y0305596D01*
X0304099Y0305596D02*
X0301029Y0308665D01*
X0303331Y0306363D02*
X0305633Y0308665D01*
X0311029Y0307898D02*
X0311029Y0305596D01*
X0315633Y0305596D01*
X0315633Y0307898D01*
X0314866Y0308665D01*
X0311797Y0308665D01*
X0311029Y0307898D01*
X0311029Y0304061D02*
X0311029Y0300992D01*
X0315633Y0300992D01*
X0315633Y0304061D01*
X0313331Y0302527D02*
X0313331Y0300992D01*
X0315633Y0299457D02*
X0315633Y0296388D01*
X0311029Y0296388D01*
X0305633Y0297155D02*
X0305633Y0298690D01*
X0304866Y0299457D01*
X0305633Y0300992D02*
X0301029Y0300992D01*
X0301797Y0299457D02*
X0301029Y0298690D01*
X0301029Y0297155D01*
X0301797Y0296388D01*
X0304866Y0296388D01*
X0305633Y0297155D01*
X0304866Y0294854D02*
X0305633Y0294086D01*
X0305633Y0292552D01*
X0304866Y0291784D01*
X0303331Y0292552D02*
X0303331Y0294086D01*
X0304099Y0294854D01*
X0304866Y0294854D01*
X0303331Y0292552D02*
X0302564Y0291784D01*
X0301797Y0291784D01*
X0301029Y0292552D01*
X0301029Y0294086D01*
X0301797Y0294854D01*
X0305633Y0300992D02*
X0305633Y0304061D01*
X0285633Y0300992D02*
X0281029Y0304061D01*
X0281797Y0299457D02*
X0281029Y0298690D01*
X0281029Y0296388D01*
X0285633Y0296388D01*
X0285633Y0298690D01*
X0284866Y0299457D01*
X0281797Y0299457D01*
X0265633Y0305596D02*
X0265633Y0308665D01*
D11*
X0216916Y0051299D02*
X0039751Y0051299D01*
X0039751Y0088701D01*
X0216916Y0088701D01*
X0216916Y0051299D01*
X0223333Y0102000D02*
X0223333Y0105000D01*
X0222333Y0105000D01*
X0223333Y0105000D02*
X0223333Y0108000D01*
X0243333Y0108000D01*
X0243333Y0105000D01*
X0244333Y0105000D01*
X0243333Y0105000D02*
X0243333Y0102000D01*
X0223333Y0102000D01*
X0243333Y0117500D02*
X0243333Y0132500D01*
X0245833Y0150000D02*
X0240833Y0150000D01*
X0238333Y0152500D01*
X0238333Y0157500D01*
X0240833Y0160000D01*
X0245833Y0160000D01*
X0248333Y0157500D01*
X0250833Y0160000D01*
X0255833Y0160000D01*
X0258333Y0157500D01*
X0260833Y0160000D01*
X0265833Y0160000D01*
X0268333Y0157500D01*
X0270833Y0160000D01*
X0275833Y0160000D01*
X0278333Y0157500D01*
X0280833Y0160000D01*
X0285833Y0160000D01*
X0288333Y0157500D01*
X0290833Y0160000D01*
X0295833Y0160000D01*
X0298333Y0157500D01*
X0300833Y0160000D01*
X0305833Y0160000D01*
X0308333Y0157500D01*
X0310833Y0160000D01*
X0315833Y0160000D01*
X0318333Y0157500D01*
X0318333Y0152500D01*
X0315833Y0150000D01*
X0310833Y0150000D01*
X0308333Y0152500D01*
X0305833Y0150000D01*
X0300833Y0150000D01*
X0298333Y0152500D01*
X0295833Y0150000D01*
X0290833Y0150000D01*
X0288333Y0152500D01*
X0285833Y0150000D01*
X0280833Y0150000D01*
X0278333Y0152500D01*
X0275833Y0150000D01*
X0270833Y0150000D01*
X0268333Y0152500D01*
X0265833Y0150000D01*
X0260833Y0150000D01*
X0258333Y0152500D01*
X0255833Y0150000D01*
X0250833Y0150000D01*
X0248333Y0152500D01*
X0245833Y0150000D01*
X0283333Y0132500D02*
X0283333Y0117500D01*
X0283333Y0108000D02*
X0283333Y0105000D01*
X0284333Y0105000D01*
X0283333Y0105000D02*
X0283333Y0102000D01*
X0263333Y0102000D01*
X0263333Y0105000D01*
X0262333Y0105000D01*
X0263333Y0105000D02*
X0263333Y0108000D01*
X0283333Y0108000D01*
X0283333Y0093000D02*
X0303333Y0093000D01*
X0303333Y0090000D01*
X0304333Y0090000D01*
X0303333Y0090000D02*
X0303333Y0087000D01*
X0283333Y0087000D01*
X0283333Y0090000D01*
X0282333Y0090000D01*
X0283333Y0090000D02*
X0283333Y0093000D01*
X0284833Y0077000D02*
X0301833Y0077000D01*
X0305333Y0068929D02*
X0305333Y0061000D01*
X0301833Y0053000D02*
X0284833Y0053000D01*
X0281333Y0061000D02*
X0281333Y0069047D01*
X0286333Y0065000D02*
X0286335Y0065172D01*
X0286341Y0065343D01*
X0286352Y0065515D01*
X0286367Y0065686D01*
X0286386Y0065857D01*
X0286409Y0066027D01*
X0286436Y0066197D01*
X0286468Y0066366D01*
X0286503Y0066534D01*
X0286543Y0066701D01*
X0286587Y0066867D01*
X0286634Y0067032D01*
X0286686Y0067196D01*
X0286742Y0067358D01*
X0286802Y0067519D01*
X0286866Y0067679D01*
X0286934Y0067837D01*
X0287005Y0067993D01*
X0287080Y0068147D01*
X0287160Y0068300D01*
X0287242Y0068450D01*
X0287329Y0068599D01*
X0287419Y0068745D01*
X0287513Y0068889D01*
X0287610Y0069031D01*
X0287711Y0069170D01*
X0287815Y0069307D01*
X0287922Y0069441D01*
X0288033Y0069572D01*
X0288146Y0069701D01*
X0288263Y0069827D01*
X0288383Y0069950D01*
X0288506Y0070070D01*
X0288632Y0070187D01*
X0288761Y0070300D01*
X0288892Y0070411D01*
X0289026Y0070518D01*
X0289163Y0070622D01*
X0289302Y0070723D01*
X0289444Y0070820D01*
X0289588Y0070914D01*
X0289734Y0071004D01*
X0289883Y0071091D01*
X0290033Y0071173D01*
X0290186Y0071253D01*
X0290340Y0071328D01*
X0290496Y0071399D01*
X0290654Y0071467D01*
X0290814Y0071531D01*
X0290975Y0071591D01*
X0291137Y0071647D01*
X0291301Y0071699D01*
X0291466Y0071746D01*
X0291632Y0071790D01*
X0291799Y0071830D01*
X0291967Y0071865D01*
X0292136Y0071897D01*
X0292306Y0071924D01*
X0292476Y0071947D01*
X0292647Y0071966D01*
X0292818Y0071981D01*
X0292990Y0071992D01*
X0293161Y0071998D01*
X0293333Y0072000D01*
X0293505Y0071998D01*
X0293676Y0071992D01*
X0293848Y0071981D01*
X0294019Y0071966D01*
X0294190Y0071947D01*
X0294360Y0071924D01*
X0294530Y0071897D01*
X0294699Y0071865D01*
X0294867Y0071830D01*
X0295034Y0071790D01*
X0295200Y0071746D01*
X0295365Y0071699D01*
X0295529Y0071647D01*
X0295691Y0071591D01*
X0295852Y0071531D01*
X0296012Y0071467D01*
X0296170Y0071399D01*
X0296326Y0071328D01*
X0296480Y0071253D01*
X0296633Y0071173D01*
X0296783Y0071091D01*
X0296932Y0071004D01*
X0297078Y0070914D01*
X0297222Y0070820D01*
X0297364Y0070723D01*
X0297503Y0070622D01*
X0297640Y0070518D01*
X0297774Y0070411D01*
X0297905Y0070300D01*
X0298034Y0070187D01*
X0298160Y0070070D01*
X0298283Y0069950D01*
X0298403Y0069827D01*
X0298520Y0069701D01*
X0298633Y0069572D01*
X0298744Y0069441D01*
X0298851Y0069307D01*
X0298955Y0069170D01*
X0299056Y0069031D01*
X0299153Y0068889D01*
X0299247Y0068745D01*
X0299337Y0068599D01*
X0299424Y0068450D01*
X0299506Y0068300D01*
X0299586Y0068147D01*
X0299661Y0067993D01*
X0299732Y0067837D01*
X0299800Y0067679D01*
X0299864Y0067519D01*
X0299924Y0067358D01*
X0299980Y0067196D01*
X0300032Y0067032D01*
X0300079Y0066867D01*
X0300123Y0066701D01*
X0300163Y0066534D01*
X0300198Y0066366D01*
X0300230Y0066197D01*
X0300257Y0066027D01*
X0300280Y0065857D01*
X0300299Y0065686D01*
X0300314Y0065515D01*
X0300325Y0065343D01*
X0300331Y0065172D01*
X0300333Y0065000D01*
X0300331Y0064828D01*
X0300325Y0064657D01*
X0300314Y0064485D01*
X0300299Y0064314D01*
X0300280Y0064143D01*
X0300257Y0063973D01*
X0300230Y0063803D01*
X0300198Y0063634D01*
X0300163Y0063466D01*
X0300123Y0063299D01*
X0300079Y0063133D01*
X0300032Y0062968D01*
X0299980Y0062804D01*
X0299924Y0062642D01*
X0299864Y0062481D01*
X0299800Y0062321D01*
X0299732Y0062163D01*
X0299661Y0062007D01*
X0299586Y0061853D01*
X0299506Y0061700D01*
X0299424Y0061550D01*
X0299337Y0061401D01*
X0299247Y0061255D01*
X0299153Y0061111D01*
X0299056Y0060969D01*
X0298955Y0060830D01*
X0298851Y0060693D01*
X0298744Y0060559D01*
X0298633Y0060428D01*
X0298520Y0060299D01*
X0298403Y0060173D01*
X0298283Y0060050D01*
X0298160Y0059930D01*
X0298034Y0059813D01*
X0297905Y0059700D01*
X0297774Y0059589D01*
X0297640Y0059482D01*
X0297503Y0059378D01*
X0297364Y0059277D01*
X0297222Y0059180D01*
X0297078Y0059086D01*
X0296932Y0058996D01*
X0296783Y0058909D01*
X0296633Y0058827D01*
X0296480Y0058747D01*
X0296326Y0058672D01*
X0296170Y0058601D01*
X0296012Y0058533D01*
X0295852Y0058469D01*
X0295691Y0058409D01*
X0295529Y0058353D01*
X0295365Y0058301D01*
X0295200Y0058254D01*
X0295034Y0058210D01*
X0294867Y0058170D01*
X0294699Y0058135D01*
X0294530Y0058103D01*
X0294360Y0058076D01*
X0294190Y0058053D01*
X0294019Y0058034D01*
X0293848Y0058019D01*
X0293676Y0058008D01*
X0293505Y0058002D01*
X0293333Y0058000D01*
X0293161Y0058002D01*
X0292990Y0058008D01*
X0292818Y0058019D01*
X0292647Y0058034D01*
X0292476Y0058053D01*
X0292306Y0058076D01*
X0292136Y0058103D01*
X0291967Y0058135D01*
X0291799Y0058170D01*
X0291632Y0058210D01*
X0291466Y0058254D01*
X0291301Y0058301D01*
X0291137Y0058353D01*
X0290975Y0058409D01*
X0290814Y0058469D01*
X0290654Y0058533D01*
X0290496Y0058601D01*
X0290340Y0058672D01*
X0290186Y0058747D01*
X0290033Y0058827D01*
X0289883Y0058909D01*
X0289734Y0058996D01*
X0289588Y0059086D01*
X0289444Y0059180D01*
X0289302Y0059277D01*
X0289163Y0059378D01*
X0289026Y0059482D01*
X0288892Y0059589D01*
X0288761Y0059700D01*
X0288632Y0059813D01*
X0288506Y0059930D01*
X0288383Y0060050D01*
X0288263Y0060173D01*
X0288146Y0060299D01*
X0288033Y0060428D01*
X0287922Y0060559D01*
X0287815Y0060693D01*
X0287711Y0060830D01*
X0287610Y0060969D01*
X0287513Y0061111D01*
X0287419Y0061255D01*
X0287329Y0061401D01*
X0287242Y0061550D01*
X0287160Y0061700D01*
X0287080Y0061853D01*
X0287005Y0062007D01*
X0286934Y0062163D01*
X0286866Y0062321D01*
X0286802Y0062481D01*
X0286742Y0062642D01*
X0286686Y0062804D01*
X0286634Y0062968D01*
X0286587Y0063133D01*
X0286543Y0063299D01*
X0286503Y0063466D01*
X0286468Y0063634D01*
X0286436Y0063803D01*
X0286409Y0063973D01*
X0286386Y0064143D01*
X0286367Y0064314D01*
X0286352Y0064485D01*
X0286341Y0064657D01*
X0286335Y0064828D01*
X0286333Y0065000D01*
X0346333Y0061000D02*
X0346333Y0069047D01*
X0349833Y0077000D02*
X0366833Y0077000D01*
X0370333Y0068929D02*
X0370333Y0061000D01*
X0366833Y0053000D02*
X0349833Y0053000D01*
X0351333Y0065000D02*
X0351335Y0065172D01*
X0351341Y0065343D01*
X0351352Y0065515D01*
X0351367Y0065686D01*
X0351386Y0065857D01*
X0351409Y0066027D01*
X0351436Y0066197D01*
X0351468Y0066366D01*
X0351503Y0066534D01*
X0351543Y0066701D01*
X0351587Y0066867D01*
X0351634Y0067032D01*
X0351686Y0067196D01*
X0351742Y0067358D01*
X0351802Y0067519D01*
X0351866Y0067679D01*
X0351934Y0067837D01*
X0352005Y0067993D01*
X0352080Y0068147D01*
X0352160Y0068300D01*
X0352242Y0068450D01*
X0352329Y0068599D01*
X0352419Y0068745D01*
X0352513Y0068889D01*
X0352610Y0069031D01*
X0352711Y0069170D01*
X0352815Y0069307D01*
X0352922Y0069441D01*
X0353033Y0069572D01*
X0353146Y0069701D01*
X0353263Y0069827D01*
X0353383Y0069950D01*
X0353506Y0070070D01*
X0353632Y0070187D01*
X0353761Y0070300D01*
X0353892Y0070411D01*
X0354026Y0070518D01*
X0354163Y0070622D01*
X0354302Y0070723D01*
X0354444Y0070820D01*
X0354588Y0070914D01*
X0354734Y0071004D01*
X0354883Y0071091D01*
X0355033Y0071173D01*
X0355186Y0071253D01*
X0355340Y0071328D01*
X0355496Y0071399D01*
X0355654Y0071467D01*
X0355814Y0071531D01*
X0355975Y0071591D01*
X0356137Y0071647D01*
X0356301Y0071699D01*
X0356466Y0071746D01*
X0356632Y0071790D01*
X0356799Y0071830D01*
X0356967Y0071865D01*
X0357136Y0071897D01*
X0357306Y0071924D01*
X0357476Y0071947D01*
X0357647Y0071966D01*
X0357818Y0071981D01*
X0357990Y0071992D01*
X0358161Y0071998D01*
X0358333Y0072000D01*
X0358505Y0071998D01*
X0358676Y0071992D01*
X0358848Y0071981D01*
X0359019Y0071966D01*
X0359190Y0071947D01*
X0359360Y0071924D01*
X0359530Y0071897D01*
X0359699Y0071865D01*
X0359867Y0071830D01*
X0360034Y0071790D01*
X0360200Y0071746D01*
X0360365Y0071699D01*
X0360529Y0071647D01*
X0360691Y0071591D01*
X0360852Y0071531D01*
X0361012Y0071467D01*
X0361170Y0071399D01*
X0361326Y0071328D01*
X0361480Y0071253D01*
X0361633Y0071173D01*
X0361783Y0071091D01*
X0361932Y0071004D01*
X0362078Y0070914D01*
X0362222Y0070820D01*
X0362364Y0070723D01*
X0362503Y0070622D01*
X0362640Y0070518D01*
X0362774Y0070411D01*
X0362905Y0070300D01*
X0363034Y0070187D01*
X0363160Y0070070D01*
X0363283Y0069950D01*
X0363403Y0069827D01*
X0363520Y0069701D01*
X0363633Y0069572D01*
X0363744Y0069441D01*
X0363851Y0069307D01*
X0363955Y0069170D01*
X0364056Y0069031D01*
X0364153Y0068889D01*
X0364247Y0068745D01*
X0364337Y0068599D01*
X0364424Y0068450D01*
X0364506Y0068300D01*
X0364586Y0068147D01*
X0364661Y0067993D01*
X0364732Y0067837D01*
X0364800Y0067679D01*
X0364864Y0067519D01*
X0364924Y0067358D01*
X0364980Y0067196D01*
X0365032Y0067032D01*
X0365079Y0066867D01*
X0365123Y0066701D01*
X0365163Y0066534D01*
X0365198Y0066366D01*
X0365230Y0066197D01*
X0365257Y0066027D01*
X0365280Y0065857D01*
X0365299Y0065686D01*
X0365314Y0065515D01*
X0365325Y0065343D01*
X0365331Y0065172D01*
X0365333Y0065000D01*
X0365331Y0064828D01*
X0365325Y0064657D01*
X0365314Y0064485D01*
X0365299Y0064314D01*
X0365280Y0064143D01*
X0365257Y0063973D01*
X0365230Y0063803D01*
X0365198Y0063634D01*
X0365163Y0063466D01*
X0365123Y0063299D01*
X0365079Y0063133D01*
X0365032Y0062968D01*
X0364980Y0062804D01*
X0364924Y0062642D01*
X0364864Y0062481D01*
X0364800Y0062321D01*
X0364732Y0062163D01*
X0364661Y0062007D01*
X0364586Y0061853D01*
X0364506Y0061700D01*
X0364424Y0061550D01*
X0364337Y0061401D01*
X0364247Y0061255D01*
X0364153Y0061111D01*
X0364056Y0060969D01*
X0363955Y0060830D01*
X0363851Y0060693D01*
X0363744Y0060559D01*
X0363633Y0060428D01*
X0363520Y0060299D01*
X0363403Y0060173D01*
X0363283Y0060050D01*
X0363160Y0059930D01*
X0363034Y0059813D01*
X0362905Y0059700D01*
X0362774Y0059589D01*
X0362640Y0059482D01*
X0362503Y0059378D01*
X0362364Y0059277D01*
X0362222Y0059180D01*
X0362078Y0059086D01*
X0361932Y0058996D01*
X0361783Y0058909D01*
X0361633Y0058827D01*
X0361480Y0058747D01*
X0361326Y0058672D01*
X0361170Y0058601D01*
X0361012Y0058533D01*
X0360852Y0058469D01*
X0360691Y0058409D01*
X0360529Y0058353D01*
X0360365Y0058301D01*
X0360200Y0058254D01*
X0360034Y0058210D01*
X0359867Y0058170D01*
X0359699Y0058135D01*
X0359530Y0058103D01*
X0359360Y0058076D01*
X0359190Y0058053D01*
X0359019Y0058034D01*
X0358848Y0058019D01*
X0358676Y0058008D01*
X0358505Y0058002D01*
X0358333Y0058000D01*
X0358161Y0058002D01*
X0357990Y0058008D01*
X0357818Y0058019D01*
X0357647Y0058034D01*
X0357476Y0058053D01*
X0357306Y0058076D01*
X0357136Y0058103D01*
X0356967Y0058135D01*
X0356799Y0058170D01*
X0356632Y0058210D01*
X0356466Y0058254D01*
X0356301Y0058301D01*
X0356137Y0058353D01*
X0355975Y0058409D01*
X0355814Y0058469D01*
X0355654Y0058533D01*
X0355496Y0058601D01*
X0355340Y0058672D01*
X0355186Y0058747D01*
X0355033Y0058827D01*
X0354883Y0058909D01*
X0354734Y0058996D01*
X0354588Y0059086D01*
X0354444Y0059180D01*
X0354302Y0059277D01*
X0354163Y0059378D01*
X0354026Y0059482D01*
X0353892Y0059589D01*
X0353761Y0059700D01*
X0353632Y0059813D01*
X0353506Y0059930D01*
X0353383Y0060050D01*
X0353263Y0060173D01*
X0353146Y0060299D01*
X0353033Y0060428D01*
X0352922Y0060559D01*
X0352815Y0060693D01*
X0352711Y0060830D01*
X0352610Y0060969D01*
X0352513Y0061111D01*
X0352419Y0061255D01*
X0352329Y0061401D01*
X0352242Y0061550D01*
X0352160Y0061700D01*
X0352080Y0061853D01*
X0352005Y0062007D01*
X0351934Y0062163D01*
X0351866Y0062321D01*
X0351802Y0062481D01*
X0351742Y0062642D01*
X0351686Y0062804D01*
X0351634Y0062968D01*
X0351587Y0063133D01*
X0351543Y0063299D01*
X0351503Y0063466D01*
X0351468Y0063634D01*
X0351436Y0063803D01*
X0351409Y0063973D01*
X0351386Y0064143D01*
X0351367Y0064314D01*
X0351352Y0064485D01*
X0351341Y0064657D01*
X0351335Y0064828D01*
X0351333Y0065000D01*
X0348333Y0087000D02*
X0348333Y0090000D01*
X0347333Y0090000D01*
X0348333Y0090000D02*
X0348333Y0093000D01*
X0368333Y0093000D01*
X0368333Y0090000D01*
X0369333Y0090000D01*
X0368333Y0090000D02*
X0368333Y0087000D01*
X0348333Y0087000D01*
X0303105Y0116000D02*
X0303112Y0116570D01*
X0303133Y0117140D01*
X0303168Y0117709D01*
X0303217Y0118277D01*
X0303280Y0118843D01*
X0303356Y0119408D01*
X0303447Y0119971D01*
X0303551Y0120532D01*
X0303669Y0121089D01*
X0303801Y0121644D01*
X0303946Y0122195D01*
X0304105Y0122743D01*
X0304277Y0123286D01*
X0304463Y0123825D01*
X0304661Y0124360D01*
X0304873Y0124889D01*
X0305098Y0125413D01*
X0305335Y0125931D01*
X0305585Y0126444D01*
X0305848Y0126950D01*
X0306123Y0127449D01*
X0306410Y0127942D01*
X0306709Y0128427D01*
X0307020Y0128905D01*
X0307342Y0129375D01*
X0307676Y0129837D01*
X0308021Y0130291D01*
X0308378Y0130736D01*
X0308745Y0131172D01*
X0309122Y0131599D01*
X0309510Y0132017D01*
X0309908Y0132425D01*
X0310316Y0132823D01*
X0310734Y0133211D01*
X0311161Y0133588D01*
X0311597Y0133955D01*
X0312042Y0134312D01*
X0312496Y0134657D01*
X0312958Y0134991D01*
X0313428Y0135313D01*
X0313906Y0135624D01*
X0314391Y0135923D01*
X0314884Y0136210D01*
X0315383Y0136485D01*
X0315889Y0136748D01*
X0316402Y0136998D01*
X0316920Y0137235D01*
X0317444Y0137460D01*
X0317973Y0137672D01*
X0318508Y0137870D01*
X0319047Y0138056D01*
X0319590Y0138228D01*
X0320138Y0138387D01*
X0320689Y0138532D01*
X0321244Y0138664D01*
X0321801Y0138782D01*
X0322362Y0138886D01*
X0322925Y0138977D01*
X0323490Y0139053D01*
X0324056Y0139116D01*
X0324624Y0139165D01*
X0325193Y0139200D01*
X0325763Y0139221D01*
X0326333Y0139228D01*
X0326903Y0139221D01*
X0327473Y0139200D01*
X0328042Y0139165D01*
X0328610Y0139116D01*
X0329176Y0139053D01*
X0329741Y0138977D01*
X0330304Y0138886D01*
X0330865Y0138782D01*
X0331422Y0138664D01*
X0331977Y0138532D01*
X0332528Y0138387D01*
X0333076Y0138228D01*
X0333619Y0138056D01*
X0334158Y0137870D01*
X0334693Y0137672D01*
X0335222Y0137460D01*
X0335746Y0137235D01*
X0336264Y0136998D01*
X0336777Y0136748D01*
X0337283Y0136485D01*
X0337782Y0136210D01*
X0338275Y0135923D01*
X0338760Y0135624D01*
X0339238Y0135313D01*
X0339708Y0134991D01*
X0340170Y0134657D01*
X0340624Y0134312D01*
X0341069Y0133955D01*
X0341505Y0133588D01*
X0341932Y0133211D01*
X0342350Y0132823D01*
X0342758Y0132425D01*
X0343156Y0132017D01*
X0343544Y0131599D01*
X0343921Y0131172D01*
X0344288Y0130736D01*
X0344645Y0130291D01*
X0344990Y0129837D01*
X0345324Y0129375D01*
X0345646Y0128905D01*
X0345957Y0128427D01*
X0346256Y0127942D01*
X0346543Y0127449D01*
X0346818Y0126950D01*
X0347081Y0126444D01*
X0347331Y0125931D01*
X0347568Y0125413D01*
X0347793Y0124889D01*
X0348005Y0124360D01*
X0348203Y0123825D01*
X0348389Y0123286D01*
X0348561Y0122743D01*
X0348720Y0122195D01*
X0348865Y0121644D01*
X0348997Y0121089D01*
X0349115Y0120532D01*
X0349219Y0119971D01*
X0349310Y0119408D01*
X0349386Y0118843D01*
X0349449Y0118277D01*
X0349498Y0117709D01*
X0349533Y0117140D01*
X0349554Y0116570D01*
X0349561Y0116000D01*
X0349554Y0115430D01*
X0349533Y0114860D01*
X0349498Y0114291D01*
X0349449Y0113723D01*
X0349386Y0113157D01*
X0349310Y0112592D01*
X0349219Y0112029D01*
X0349115Y0111468D01*
X0348997Y0110911D01*
X0348865Y0110356D01*
X0348720Y0109805D01*
X0348561Y0109257D01*
X0348389Y0108714D01*
X0348203Y0108175D01*
X0348005Y0107640D01*
X0347793Y0107111D01*
X0347568Y0106587D01*
X0347331Y0106069D01*
X0347081Y0105556D01*
X0346818Y0105050D01*
X0346543Y0104551D01*
X0346256Y0104058D01*
X0345957Y0103573D01*
X0345646Y0103095D01*
X0345324Y0102625D01*
X0344990Y0102163D01*
X0344645Y0101709D01*
X0344288Y0101264D01*
X0343921Y0100828D01*
X0343544Y0100401D01*
X0343156Y0099983D01*
X0342758Y0099575D01*
X0342350Y0099177D01*
X0341932Y0098789D01*
X0341505Y0098412D01*
X0341069Y0098045D01*
X0340624Y0097688D01*
X0340170Y0097343D01*
X0339708Y0097009D01*
X0339238Y0096687D01*
X0338760Y0096376D01*
X0338275Y0096077D01*
X0337782Y0095790D01*
X0337283Y0095515D01*
X0336777Y0095252D01*
X0336264Y0095002D01*
X0335746Y0094765D01*
X0335222Y0094540D01*
X0334693Y0094328D01*
X0334158Y0094130D01*
X0333619Y0093944D01*
X0333076Y0093772D01*
X0332528Y0093613D01*
X0331977Y0093468D01*
X0331422Y0093336D01*
X0330865Y0093218D01*
X0330304Y0093114D01*
X0329741Y0093023D01*
X0329176Y0092947D01*
X0328610Y0092884D01*
X0328042Y0092835D01*
X0327473Y0092800D01*
X0326903Y0092779D01*
X0326333Y0092772D01*
X0325763Y0092779D01*
X0325193Y0092800D01*
X0324624Y0092835D01*
X0324056Y0092884D01*
X0323490Y0092947D01*
X0322925Y0093023D01*
X0322362Y0093114D01*
X0321801Y0093218D01*
X0321244Y0093336D01*
X0320689Y0093468D01*
X0320138Y0093613D01*
X0319590Y0093772D01*
X0319047Y0093944D01*
X0318508Y0094130D01*
X0317973Y0094328D01*
X0317444Y0094540D01*
X0316920Y0094765D01*
X0316402Y0095002D01*
X0315889Y0095252D01*
X0315383Y0095515D01*
X0314884Y0095790D01*
X0314391Y0096077D01*
X0313906Y0096376D01*
X0313428Y0096687D01*
X0312958Y0097009D01*
X0312496Y0097343D01*
X0312042Y0097688D01*
X0311597Y0098045D01*
X0311161Y0098412D01*
X0310734Y0098789D01*
X0310316Y0099177D01*
X0309908Y0099575D01*
X0309510Y0099983D01*
X0309122Y0100401D01*
X0308745Y0100828D01*
X0308378Y0101264D01*
X0308021Y0101709D01*
X0307676Y0102163D01*
X0307342Y0102625D01*
X0307020Y0103095D01*
X0306709Y0103573D01*
X0306410Y0104058D01*
X0306123Y0104551D01*
X0305848Y0105050D01*
X0305585Y0105556D01*
X0305335Y0106069D01*
X0305098Y0106587D01*
X0304873Y0107111D01*
X0304661Y0107640D01*
X0304463Y0108175D01*
X0304277Y0108714D01*
X0304105Y0109257D01*
X0303946Y0109805D01*
X0303801Y0110356D01*
X0303669Y0110911D01*
X0303551Y0111468D01*
X0303447Y0112029D01*
X0303356Y0112592D01*
X0303280Y0113157D01*
X0303217Y0113723D01*
X0303168Y0114291D01*
X0303133Y0114860D01*
X0303112Y0115430D01*
X0303105Y0116000D01*
X0289005Y0184166D02*
X0286835Y0184166D01*
X0289005Y0184166D02*
X0291175Y0186337D01*
X0291175Y0188507D01*
X0290090Y0189592D01*
X0287920Y0189592D01*
X0285750Y0187422D01*
X0283579Y0187422D01*
X0282494Y0188507D01*
X0282494Y0190677D01*
X0284664Y0192848D01*
X0286835Y0192848D01*
X0290090Y0193933D02*
X0293346Y0197188D01*
X0295516Y0197188D01*
X0297686Y0195018D01*
X0297686Y0192848D01*
X0294431Y0189592D01*
X0296601Y0187422D02*
X0290090Y0193933D01*
X0299857Y0197188D02*
X0299857Y0199359D01*
X0303112Y0202614D01*
X0302027Y0203699D02*
X0299857Y0203699D01*
X0297686Y0201529D01*
X0299857Y0197188D02*
X0302027Y0197188D01*
X0305282Y0200444D01*
X0302027Y0203699D01*
X0304197Y0205870D02*
X0306368Y0203699D01*
X0308538Y0203699D01*
X0311793Y0206955D01*
X0312879Y0210210D02*
X0310708Y0212380D01*
X0310708Y0214551D01*
X0312879Y0216721D01*
X0315049Y0216721D01*
X0316134Y0215636D01*
X0311793Y0211295D01*
X0312879Y0210210D02*
X0315049Y0210210D01*
X0317219Y0212380D01*
X0307453Y0211295D02*
X0304197Y0208040D01*
X0304197Y0205870D01*
X0326986Y0222147D02*
X0329156Y0224317D01*
X0328071Y0223232D02*
X0321560Y0229743D01*
X0320475Y0228658D02*
X0322645Y0230828D01*
X0326986Y0230828D02*
X0330241Y0234084D01*
X0332411Y0234084D01*
X0335667Y0230828D01*
X0340007Y0235169D02*
X0337837Y0241680D01*
X0341093Y0244935D02*
X0343263Y0247105D01*
X0345433Y0247105D01*
X0348689Y0243850D01*
X0345433Y0240595D01*
X0343263Y0240595D01*
X0343263Y0242765D01*
X0346518Y0246020D01*
X0347604Y0249276D02*
X0347604Y0251446D01*
X0350859Y0254702D01*
X0348689Y0256872D02*
X0355200Y0250361D01*
X0351944Y0247105D01*
X0349774Y0247105D01*
X0347604Y0249276D01*
X0354114Y0255787D02*
X0354114Y0257957D01*
X0356285Y0260127D01*
X0358455Y0260127D01*
X0359540Y0259042D01*
X0355200Y0254702D01*
X0356285Y0253616D02*
X0354114Y0255787D01*
X0356285Y0253616D02*
X0358455Y0253616D01*
X0360625Y0255787D01*
X0363881Y0259042D02*
X0359540Y0263383D01*
X0361711Y0265553D02*
X0362796Y0266638D01*
X0361711Y0265553D02*
X0361711Y0261212D01*
X0366051Y0267723D02*
X0366051Y0269894D01*
X0369307Y0273149D01*
X0370392Y0269894D02*
X0368222Y0267723D01*
X0366051Y0267723D01*
X0369307Y0264468D02*
X0372562Y0267723D01*
X0372562Y0269894D01*
X0370392Y0269894D01*
X0370550Y0253733D02*
X0377061Y0247222D01*
X0381402Y0251563D01*
X0374891Y0245052D02*
X0372720Y0242882D01*
X0373806Y0243967D02*
X0369465Y0248307D01*
X0368380Y0247222D01*
X0367295Y0243967D02*
X0365124Y0243967D01*
X0362954Y0241796D01*
X0362954Y0239626D01*
X0360784Y0237456D02*
X0360784Y0235286D01*
X0357528Y0232030D01*
X0359699Y0229860D02*
X0353188Y0236371D01*
X0356443Y0239626D01*
X0358613Y0239626D01*
X0360784Y0237456D01*
X0366209Y0236371D02*
X0359699Y0242882D01*
X0367295Y0243967D02*
X0370550Y0240711D01*
X0367295Y0250478D02*
X0366209Y0251563D01*
X0340007Y0235169D02*
X0333497Y0237339D01*
X0326986Y0230828D02*
X0331326Y0226487D01*
X0339081Y0217923D02*
X0335825Y0214668D01*
X0333655Y0216838D02*
X0340166Y0210327D01*
X0343421Y0213582D01*
X0343421Y0215753D01*
X0341251Y0217923D01*
X0339081Y0217923D01*
X0342336Y0221179D02*
X0345591Y0217923D01*
X0347762Y0217923D01*
X0351017Y0221179D01*
X0352102Y0220093D02*
X0346677Y0225519D01*
X0352102Y0220093D02*
X0352102Y0217923D01*
X0351017Y0216838D01*
X0315833Y0310000D02*
X0310833Y0310000D01*
X0308333Y0312500D01*
X0305833Y0310000D01*
X0300833Y0310000D01*
X0298333Y0312500D01*
X0295833Y0310000D01*
X0290833Y0310000D01*
X0288333Y0312500D01*
X0285833Y0310000D01*
X0280833Y0310000D01*
X0278333Y0312500D01*
X0275833Y0310000D01*
X0270833Y0310000D01*
X0268333Y0312500D01*
X0265833Y0310000D01*
X0260833Y0310000D01*
X0258333Y0312500D01*
X0255833Y0310000D01*
X0250833Y0310000D01*
X0248333Y0312500D01*
X0245833Y0310000D01*
X0240833Y0310000D01*
X0238333Y0312500D01*
X0238333Y0317500D01*
X0240833Y0320000D01*
X0245833Y0320000D01*
X0248333Y0317500D01*
X0250833Y0320000D01*
X0255833Y0320000D01*
X0258333Y0317500D01*
X0260833Y0320000D01*
X0265833Y0320000D01*
X0268333Y0317500D01*
X0270833Y0320000D01*
X0275833Y0320000D01*
X0278333Y0317500D01*
X0280833Y0320000D01*
X0285833Y0320000D01*
X0288333Y0317500D01*
X0290833Y0320000D01*
X0295833Y0320000D01*
X0298333Y0317500D01*
X0300833Y0320000D01*
X0305833Y0320000D01*
X0308333Y0317500D01*
X0310833Y0320000D01*
X0315833Y0320000D01*
X0318333Y0317500D01*
X0318333Y0312500D01*
X0315833Y0310000D01*
X0288333Y0332000D02*
X0288333Y0335000D01*
X0289333Y0335000D01*
X0288333Y0335000D02*
X0288333Y0338000D01*
X0268333Y0338000D01*
X0268333Y0335000D01*
X0267333Y0335000D01*
X0268333Y0335000D02*
X0268333Y0332000D01*
X0288333Y0332000D01*
X0355025Y0332702D02*
X0355726Y0332002D01*
X0357828Y0332002D01*
X0357828Y0333403D02*
X0357127Y0334104D01*
X0355726Y0334104D01*
X0355025Y0333403D01*
X0355025Y0332702D01*
X0355025Y0330601D02*
X0355726Y0329900D01*
X0357127Y0329900D01*
X0357828Y0330601D01*
X0357828Y0333403D01*
X0359629Y0334104D02*
X0359629Y0331301D01*
X0361031Y0329900D01*
X0362432Y0331301D01*
X0362432Y0334104D01*
X0138333Y0253000D02*
X0138333Y0250000D01*
X0139333Y0250000D01*
X0138333Y0250000D02*
X0138333Y0247000D01*
X0118333Y0247000D01*
X0118333Y0250000D01*
X0117333Y0250000D01*
X0118333Y0250000D02*
X0118333Y0253000D01*
X0138333Y0253000D01*
X0099333Y0250000D02*
X0098333Y0250000D01*
X0098333Y0247000D01*
X0078333Y0247000D01*
X0078333Y0250000D01*
X0077333Y0250000D01*
X0078333Y0250000D02*
X0078333Y0253000D01*
X0098333Y0253000D01*
X0098333Y0250000D01*
X0098333Y0238000D02*
X0098333Y0235000D01*
X0099333Y0235000D01*
X0098333Y0235000D02*
X0098333Y0232000D01*
X0078333Y0232000D01*
X0078333Y0235000D01*
X0077333Y0235000D01*
X0078333Y0235000D02*
X0078333Y0238000D01*
X0098333Y0238000D01*
X0098333Y0223000D02*
X0078333Y0223000D01*
X0078333Y0220000D01*
X0077333Y0220000D01*
X0078333Y0220000D02*
X0078333Y0217000D01*
X0098333Y0217000D01*
X0098333Y0220000D01*
X0099333Y0220000D01*
X0098333Y0220000D02*
X0098333Y0223000D01*
X0098333Y0208000D02*
X0078333Y0208000D01*
X0078333Y0205000D01*
X0077333Y0205000D01*
X0078333Y0205000D02*
X0078333Y0202000D01*
X0098333Y0202000D01*
X0098333Y0205000D01*
X0099333Y0205000D01*
X0098333Y0205000D02*
X0098333Y0208000D01*
X0095833Y0160000D02*
X0090833Y0160000D01*
X0088333Y0157500D01*
X0088333Y0142500D01*
X0085833Y0140000D01*
X0080833Y0140000D01*
X0078333Y0142500D01*
X0078333Y0157500D01*
X0075833Y0160000D01*
X0070833Y0160000D01*
X0068333Y0157500D01*
X0068333Y0142500D01*
X0065833Y0140000D01*
X0060833Y0140000D01*
X0058333Y0142500D01*
X0058333Y0157500D01*
X0060833Y0160000D01*
X0065833Y0160000D01*
X0068333Y0157500D01*
X0058333Y0157500D02*
X0055833Y0160000D01*
X0050833Y0160000D01*
X0048333Y0157500D01*
X0048333Y0142500D01*
X0045833Y0140000D01*
X0040833Y0140000D01*
X0038333Y0142500D01*
X0035833Y0140000D01*
X0030833Y0140000D01*
X0028333Y0142500D01*
X0028333Y0157500D01*
X0030833Y0160000D01*
X0035833Y0160000D01*
X0038333Y0157500D01*
X0038333Y0142500D01*
X0048333Y0142500D02*
X0050833Y0140000D01*
X0055833Y0140000D01*
X0058333Y0142500D01*
X0068333Y0142500D02*
X0070833Y0140000D01*
X0075833Y0140000D01*
X0078333Y0142500D01*
X0088333Y0142500D02*
X0090833Y0140000D01*
X0095833Y0140000D01*
X0098333Y0142500D01*
X0098333Y0157500D01*
X0095833Y0160000D01*
X0098333Y0157500D02*
X0100833Y0160000D01*
X0105833Y0160000D01*
X0108333Y0157500D01*
X0108333Y0142500D01*
X0105833Y0140000D01*
X0100833Y0140000D01*
X0098333Y0142500D01*
X0108333Y0142500D02*
X0110833Y0140000D01*
X0115833Y0140000D01*
X0118333Y0142500D01*
X0118333Y0157500D01*
X0115833Y0160000D01*
X0110833Y0160000D01*
X0108333Y0157500D01*
X0118333Y0157500D02*
X0120833Y0160000D01*
X0125833Y0160000D01*
X0128333Y0157500D01*
X0128333Y0142500D01*
X0125833Y0140000D01*
X0120833Y0140000D01*
X0118333Y0142500D01*
X0120833Y0161500D02*
X0125833Y0161500D01*
X0088333Y0157500D02*
X0085833Y0160000D01*
X0080833Y0160000D01*
X0078333Y0157500D01*
X0048333Y0157500D02*
X0045833Y0160000D01*
X0040833Y0160000D01*
X0038333Y0157500D01*
X0078333Y0262000D02*
X0078333Y0265000D01*
X0077333Y0265000D01*
X0078333Y0265000D02*
X0078333Y0268000D01*
X0098333Y0268000D01*
X0098333Y0265000D01*
X0099333Y0265000D01*
X0098333Y0265000D02*
X0098333Y0262000D01*
X0078333Y0262000D01*
X0075833Y0310000D02*
X0070833Y0310000D01*
X0068333Y0312500D01*
X0068333Y0327500D01*
X0070833Y0330000D01*
X0075833Y0330000D01*
X0078333Y0327500D01*
X0078333Y0312500D01*
X0080833Y0310000D01*
X0085833Y0310000D01*
X0088333Y0312500D01*
X0088333Y0327500D01*
X0090833Y0330000D01*
X0095833Y0330000D01*
X0098333Y0327500D01*
X0098333Y0312500D01*
X0095833Y0310000D01*
X0090833Y0310000D01*
X0088333Y0312500D01*
X0078333Y0312500D02*
X0075833Y0310000D01*
X0068333Y0312500D02*
X0065833Y0310000D01*
X0060833Y0310000D01*
X0058333Y0312500D01*
X0058333Y0327500D01*
X0060833Y0330000D01*
X0065833Y0330000D01*
X0068333Y0327500D01*
X0058333Y0327500D02*
X0055833Y0330000D01*
X0050833Y0330000D01*
X0048333Y0327500D01*
X0048333Y0312500D01*
X0050833Y0310000D01*
X0055833Y0310000D01*
X0058333Y0312500D01*
X0048333Y0312500D02*
X0045833Y0310000D01*
X0040833Y0310000D01*
X0038333Y0312500D01*
X0038333Y0327500D01*
X0040833Y0330000D01*
X0045833Y0330000D01*
X0048333Y0327500D01*
X0038333Y0327500D02*
X0035833Y0330000D01*
X0030833Y0330000D01*
X0028333Y0327500D01*
X0028333Y0312500D01*
X0030833Y0310000D01*
X0035833Y0310000D01*
X0038333Y0312500D01*
X0035833Y0308500D02*
X0030833Y0308500D01*
X0078333Y0327500D02*
X0080833Y0330000D01*
X0085833Y0330000D01*
X0088333Y0327500D01*
X0098333Y0327500D02*
X0100833Y0330000D01*
X0105833Y0330000D01*
X0108333Y0327500D01*
X0108333Y0312500D01*
X0105833Y0310000D01*
X0100833Y0310000D01*
X0098333Y0312500D01*
X0108333Y0312500D02*
X0110833Y0310000D01*
X0115833Y0310000D01*
X0118333Y0312500D01*
X0120833Y0310000D01*
X0125833Y0310000D01*
X0128333Y0312500D01*
X0128333Y0327500D01*
X0125833Y0330000D01*
X0120833Y0330000D01*
X0118333Y0327500D01*
X0118333Y0312500D01*
X0118333Y0327500D02*
X0115833Y0330000D01*
X0110833Y0330000D01*
X0108333Y0327500D01*
D12*
X0047833Y0283337D02*
X0047833Y0277331D01*
X0038826Y0277331D01*
X0038826Y0274129D02*
X0047833Y0268124D01*
X0046332Y0264921D02*
X0047833Y0263420D01*
X0047833Y0260417D01*
X0046332Y0258916D01*
X0040327Y0258916D01*
X0038826Y0260417D01*
X0038826Y0263420D01*
X0040327Y0264921D01*
X0043329Y0264921D02*
X0043329Y0261918D01*
X0043329Y0264921D02*
X0046332Y0264921D01*
X0038826Y0268124D02*
X0047833Y0274129D01*
X0046332Y0255713D02*
X0047833Y0254212D01*
X0047833Y0251209D01*
X0046332Y0249708D01*
X0047833Y0246505D02*
X0047833Y0240500D01*
X0041828Y0246505D01*
X0040327Y0246505D01*
X0038826Y0245004D01*
X0038826Y0242001D01*
X0040327Y0240500D01*
X0038826Y0234295D02*
X0047833Y0234295D01*
X0047833Y0237297D02*
X0047833Y0231292D01*
X0046332Y0228089D02*
X0047833Y0226588D01*
X0047833Y0223586D01*
X0046332Y0222084D01*
X0040327Y0222084D01*
X0038826Y0223586D01*
X0038826Y0226588D01*
X0040327Y0228089D01*
X0041828Y0231292D02*
X0038826Y0234295D01*
X0040327Y0249708D02*
X0038826Y0251209D01*
X0038826Y0254212D01*
X0040327Y0255713D01*
X0041828Y0255713D01*
X0043329Y0254212D01*
X0044831Y0255713D01*
X0046332Y0255713D01*
X0043329Y0254212D02*
X0043329Y0252710D01*
X0043329Y0218882D02*
X0043329Y0212876D01*
X0038826Y0217380D01*
X0047833Y0217380D01*
X0047833Y0209674D02*
X0038826Y0209674D01*
X0041828Y0206671D01*
X0038826Y0203669D01*
X0047833Y0203669D01*
X0047833Y0197463D02*
X0038826Y0197463D01*
X0038826Y0194461D02*
X0038826Y0200466D01*
X0037833Y0110000D02*
X0037833Y0100000D01*
X0058833Y0100000D01*
X0058833Y0110000D01*
X0037833Y0110000D01*
X0048333Y0107500D02*
X0048333Y0102500D01*
X0097833Y0100000D02*
X0097833Y0110000D01*
X0118833Y0110000D01*
X0118833Y0100000D01*
X0097833Y0100000D01*
X0108333Y0102500D02*
X0108333Y0107500D01*
X0248826Y0191763D02*
X0257833Y0197768D01*
X0248826Y0197768D01*
X0253329Y0200970D02*
X0256332Y0200970D01*
X0257833Y0202472D01*
X0257833Y0205474D01*
X0256332Y0206976D01*
X0253329Y0206976D01*
X0251828Y0205474D01*
X0251828Y0202472D01*
X0253329Y0200970D01*
X0254831Y0210178D02*
X0251828Y0214682D01*
X0251828Y0217852D02*
X0251828Y0219353D01*
X0257833Y0219353D01*
X0257833Y0217852D02*
X0257833Y0220854D01*
X0256332Y0223990D02*
X0254831Y0225491D01*
X0254831Y0229995D01*
X0253329Y0229995D02*
X0257833Y0229995D01*
X0257833Y0225491D01*
X0256332Y0223990D01*
X0251828Y0225491D02*
X0251828Y0228494D01*
X0253329Y0229995D01*
X0248826Y0219353D02*
X0247324Y0219353D01*
X0257833Y0214682D02*
X0254831Y0210178D01*
X0257833Y0210178D02*
X0248826Y0210178D01*
X0248826Y0191763D02*
X0257833Y0191763D01*
X0256332Y0242406D02*
X0257833Y0243907D01*
X0257833Y0246910D01*
X0256332Y0248411D01*
X0253329Y0248411D01*
X0251828Y0246910D01*
X0251828Y0245408D01*
X0253329Y0242406D01*
X0248826Y0242406D01*
X0248826Y0248411D01*
X0251828Y0251614D02*
X0248826Y0254616D01*
X0257833Y0254616D01*
X0257833Y0251614D02*
X0257833Y0257619D01*
X0257833Y0260822D02*
X0257833Y0266827D01*
X0257833Y0263824D02*
X0248826Y0263824D01*
X0251828Y0260822D01*
X0250327Y0270029D02*
X0248826Y0271531D01*
X0248826Y0274533D01*
X0250327Y0276035D01*
X0256332Y0270029D01*
X0257833Y0271531D01*
X0257833Y0274533D01*
X0256332Y0276035D01*
X0250327Y0276035D01*
X0250327Y0270029D02*
X0256332Y0270029D01*
X0346833Y0332000D02*
X0351833Y0332000D01*
X0349333Y0334500D02*
X0349333Y0329500D01*
X0366833Y0332000D02*
X0371833Y0332000D01*
D13*
X0376333Y0332000D02*
X0379333Y0335000D01*
X0379333Y0349000D01*
X0376333Y0352000D01*
X0342333Y0352000D01*
X0339333Y0349000D01*
X0339333Y0335000D01*
X0342333Y0332000D01*
X0135833Y0328636D02*
X0135833Y0325300D01*
X0132497Y0328636D01*
X0131663Y0328636D01*
X0130829Y0327802D01*
X0130829Y0326134D01*
X0131663Y0325300D01*
X0130829Y0323480D02*
X0130829Y0321812D01*
X0130829Y0322646D02*
X0134999Y0322646D01*
X0135833Y0321812D01*
X0135833Y0320978D01*
X0134999Y0320144D01*
X0133331Y0318636D02*
X0133331Y0315300D01*
X0130829Y0317802D01*
X0135833Y0317802D01*
X0134999Y0312646D02*
X0130829Y0312646D01*
X0130829Y0311812D02*
X0130829Y0313480D01*
X0134999Y0312646D02*
X0135833Y0311812D01*
X0135833Y0310978D01*
X0134999Y0310144D01*
X0134999Y0158636D02*
X0135833Y0157802D01*
X0135833Y0156134D01*
X0134999Y0155300D01*
X0133331Y0156968D02*
X0133331Y0157802D01*
X0134165Y0158636D01*
X0134999Y0158636D01*
X0133331Y0157802D02*
X0132497Y0158636D01*
X0131663Y0158636D01*
X0130829Y0157802D01*
X0130829Y0156134D01*
X0131663Y0155300D01*
X0130829Y0153480D02*
X0130829Y0151812D01*
X0130829Y0152646D02*
X0134999Y0152646D01*
X0135833Y0151812D01*
X0135833Y0150978D01*
X0134999Y0150144D01*
X0135833Y0148636D02*
X0135833Y0145300D01*
X0135833Y0146968D02*
X0130829Y0146968D01*
X0132497Y0145300D01*
X0130829Y0143480D02*
X0130829Y0141812D01*
X0130829Y0142646D02*
X0134999Y0142646D01*
X0135833Y0141812D01*
X0135833Y0140978D01*
X0134999Y0140144D01*
X0132833Y0135000D02*
X0140333Y0135000D01*
X0140333Y0131500D01*
X0146333Y0131500D01*
X0146333Y0135000D01*
X0195333Y0135000D01*
X0195333Y0094000D01*
X0146333Y0094000D01*
X0146333Y0097500D01*
X0140333Y0097500D01*
X0140333Y0094000D01*
X0132833Y0094000D01*
X0132833Y0135000D01*
X0139233Y0114500D02*
X0139235Y0114674D01*
X0139242Y0114848D01*
X0139252Y0115022D01*
X0139267Y0115196D01*
X0139286Y0115369D01*
X0139310Y0115542D01*
X0139338Y0115714D01*
X0139369Y0115885D01*
X0139406Y0116056D01*
X0139446Y0116225D01*
X0139490Y0116394D01*
X0139539Y0116561D01*
X0139591Y0116727D01*
X0139648Y0116892D01*
X0139709Y0117055D01*
X0139773Y0117217D01*
X0139842Y0117377D01*
X0139915Y0117536D01*
X0139991Y0117692D01*
X0140071Y0117847D01*
X0140155Y0118000D01*
X0140243Y0118150D01*
X0140335Y0118298D01*
X0140430Y0118445D01*
X0140528Y0118588D01*
X0140630Y0118729D01*
X0140736Y0118868D01*
X0140845Y0119004D01*
X0140957Y0119138D01*
X0141072Y0119268D01*
X0141191Y0119396D01*
X0141313Y0119520D01*
X0141437Y0119642D01*
X0141565Y0119761D01*
X0141695Y0119876D01*
X0141829Y0119988D01*
X0141965Y0120097D01*
X0142104Y0120203D01*
X0142245Y0120305D01*
X0142388Y0120403D01*
X0142535Y0120498D01*
X0142683Y0120590D01*
X0142833Y0120678D01*
X0142986Y0120762D01*
X0143141Y0120842D01*
X0143297Y0120918D01*
X0143456Y0120991D01*
X0143616Y0121060D01*
X0143778Y0121124D01*
X0143941Y0121185D01*
X0144106Y0121242D01*
X0144272Y0121294D01*
X0144439Y0121343D01*
X0144608Y0121387D01*
X0144777Y0121427D01*
X0144948Y0121464D01*
X0145119Y0121495D01*
X0145291Y0121523D01*
X0145464Y0121547D01*
X0145637Y0121566D01*
X0145811Y0121581D01*
X0145985Y0121591D01*
X0146159Y0121598D01*
X0146333Y0121600D01*
X0146507Y0121598D01*
X0146681Y0121591D01*
X0146855Y0121581D01*
X0147029Y0121566D01*
X0147202Y0121547D01*
X0147375Y0121523D01*
X0147547Y0121495D01*
X0147718Y0121464D01*
X0147889Y0121427D01*
X0148058Y0121387D01*
X0148227Y0121343D01*
X0148394Y0121294D01*
X0148560Y0121242D01*
X0148725Y0121185D01*
X0148888Y0121124D01*
X0149050Y0121060D01*
X0149210Y0120991D01*
X0149369Y0120918D01*
X0149525Y0120842D01*
X0149680Y0120762D01*
X0149833Y0120678D01*
X0149983Y0120590D01*
X0150131Y0120498D01*
X0150278Y0120403D01*
X0150421Y0120305D01*
X0150562Y0120203D01*
X0150701Y0120097D01*
X0150837Y0119988D01*
X0150971Y0119876D01*
X0151101Y0119761D01*
X0151229Y0119642D01*
X0151353Y0119520D01*
X0151475Y0119396D01*
X0151594Y0119268D01*
X0151709Y0119138D01*
X0151821Y0119004D01*
X0151930Y0118868D01*
X0152036Y0118729D01*
X0152138Y0118588D01*
X0152236Y0118445D01*
X0152331Y0118298D01*
X0152423Y0118150D01*
X0152511Y0118000D01*
X0152595Y0117847D01*
X0152675Y0117692D01*
X0152751Y0117536D01*
X0152824Y0117377D01*
X0152893Y0117217D01*
X0152957Y0117055D01*
X0153018Y0116892D01*
X0153075Y0116727D01*
X0153127Y0116561D01*
X0153176Y0116394D01*
X0153220Y0116225D01*
X0153260Y0116056D01*
X0153297Y0115885D01*
X0153328Y0115714D01*
X0153356Y0115542D01*
X0153380Y0115369D01*
X0153399Y0115196D01*
X0153414Y0115022D01*
X0153424Y0114848D01*
X0153431Y0114674D01*
X0153433Y0114500D01*
X0153431Y0114326D01*
X0153424Y0114152D01*
X0153414Y0113978D01*
X0153399Y0113804D01*
X0153380Y0113631D01*
X0153356Y0113458D01*
X0153328Y0113286D01*
X0153297Y0113115D01*
X0153260Y0112944D01*
X0153220Y0112775D01*
X0153176Y0112606D01*
X0153127Y0112439D01*
X0153075Y0112273D01*
X0153018Y0112108D01*
X0152957Y0111945D01*
X0152893Y0111783D01*
X0152824Y0111623D01*
X0152751Y0111464D01*
X0152675Y0111308D01*
X0152595Y0111153D01*
X0152511Y0111000D01*
X0152423Y0110850D01*
X0152331Y0110702D01*
X0152236Y0110555D01*
X0152138Y0110412D01*
X0152036Y0110271D01*
X0151930Y0110132D01*
X0151821Y0109996D01*
X0151709Y0109862D01*
X0151594Y0109732D01*
X0151475Y0109604D01*
X0151353Y0109480D01*
X0151229Y0109358D01*
X0151101Y0109239D01*
X0150971Y0109124D01*
X0150837Y0109012D01*
X0150701Y0108903D01*
X0150562Y0108797D01*
X0150421Y0108695D01*
X0150278Y0108597D01*
X0150131Y0108502D01*
X0149983Y0108410D01*
X0149833Y0108322D01*
X0149680Y0108238D01*
X0149525Y0108158D01*
X0149369Y0108082D01*
X0149210Y0108009D01*
X0149050Y0107940D01*
X0148888Y0107876D01*
X0148725Y0107815D01*
X0148560Y0107758D01*
X0148394Y0107706D01*
X0148227Y0107657D01*
X0148058Y0107613D01*
X0147889Y0107573D01*
X0147718Y0107536D01*
X0147547Y0107505D01*
X0147375Y0107477D01*
X0147202Y0107453D01*
X0147029Y0107434D01*
X0146855Y0107419D01*
X0146681Y0107409D01*
X0146507Y0107402D01*
X0146333Y0107400D01*
X0146159Y0107402D01*
X0145985Y0107409D01*
X0145811Y0107419D01*
X0145637Y0107434D01*
X0145464Y0107453D01*
X0145291Y0107477D01*
X0145119Y0107505D01*
X0144948Y0107536D01*
X0144777Y0107573D01*
X0144608Y0107613D01*
X0144439Y0107657D01*
X0144272Y0107706D01*
X0144106Y0107758D01*
X0143941Y0107815D01*
X0143778Y0107876D01*
X0143616Y0107940D01*
X0143456Y0108009D01*
X0143297Y0108082D01*
X0143141Y0108158D01*
X0142986Y0108238D01*
X0142833Y0108322D01*
X0142683Y0108410D01*
X0142535Y0108502D01*
X0142388Y0108597D01*
X0142245Y0108695D01*
X0142104Y0108797D01*
X0141965Y0108903D01*
X0141829Y0109012D01*
X0141695Y0109124D01*
X0141565Y0109239D01*
X0141437Y0109358D01*
X0141313Y0109480D01*
X0141191Y0109604D01*
X0141072Y0109732D01*
X0140957Y0109862D01*
X0140845Y0109996D01*
X0140736Y0110132D01*
X0140630Y0110271D01*
X0140528Y0110412D01*
X0140430Y0110555D01*
X0140335Y0110702D01*
X0140243Y0110850D01*
X0140155Y0111000D01*
X0140071Y0111153D01*
X0139991Y0111308D01*
X0139915Y0111464D01*
X0139842Y0111623D01*
X0139773Y0111783D01*
X0139709Y0111945D01*
X0139648Y0112108D01*
X0139591Y0112273D01*
X0139539Y0112439D01*
X0139490Y0112606D01*
X0139446Y0112775D01*
X0139406Y0112944D01*
X0139369Y0113115D01*
X0139338Y0113286D01*
X0139310Y0113458D01*
X0139286Y0113631D01*
X0139267Y0113804D01*
X0139252Y0113978D01*
X0139242Y0114152D01*
X0139235Y0114326D01*
X0139233Y0114500D01*
X0223333Y0125000D02*
X0223336Y0125245D01*
X0223345Y0125491D01*
X0223360Y0125736D01*
X0223381Y0125980D01*
X0223408Y0126224D01*
X0223441Y0126467D01*
X0223480Y0126710D01*
X0223525Y0126951D01*
X0223576Y0127191D01*
X0223633Y0127430D01*
X0223695Y0127667D01*
X0223764Y0127903D01*
X0223838Y0128137D01*
X0223918Y0128369D01*
X0224003Y0128599D01*
X0224094Y0128827D01*
X0224191Y0129052D01*
X0224293Y0129276D01*
X0224401Y0129496D01*
X0224514Y0129714D01*
X0224632Y0129929D01*
X0224756Y0130141D01*
X0224884Y0130350D01*
X0225018Y0130556D01*
X0225157Y0130758D01*
X0225301Y0130957D01*
X0225450Y0131152D01*
X0225603Y0131344D01*
X0225761Y0131532D01*
X0225923Y0131716D01*
X0226091Y0131895D01*
X0226262Y0132071D01*
X0226438Y0132242D01*
X0226617Y0132410D01*
X0226801Y0132572D01*
X0226989Y0132730D01*
X0227181Y0132883D01*
X0227376Y0133032D01*
X0227575Y0133176D01*
X0227777Y0133315D01*
X0227983Y0133449D01*
X0228192Y0133577D01*
X0228404Y0133701D01*
X0228619Y0133819D01*
X0228837Y0133932D01*
X0229057Y0134040D01*
X0229281Y0134142D01*
X0229506Y0134239D01*
X0229734Y0134330D01*
X0229964Y0134415D01*
X0230196Y0134495D01*
X0230430Y0134569D01*
X0230666Y0134638D01*
X0230903Y0134700D01*
X0231142Y0134757D01*
X0231382Y0134808D01*
X0231623Y0134853D01*
X0231866Y0134892D01*
X0232109Y0134925D01*
X0232353Y0134952D01*
X0232597Y0134973D01*
X0232842Y0134988D01*
X0233088Y0134997D01*
X0233333Y0135000D01*
X0233578Y0134997D01*
X0233824Y0134988D01*
X0234069Y0134973D01*
X0234313Y0134952D01*
X0234557Y0134925D01*
X0234800Y0134892D01*
X0235043Y0134853D01*
X0235284Y0134808D01*
X0235524Y0134757D01*
X0235763Y0134700D01*
X0236000Y0134638D01*
X0236236Y0134569D01*
X0236470Y0134495D01*
X0236702Y0134415D01*
X0236932Y0134330D01*
X0237160Y0134239D01*
X0237385Y0134142D01*
X0237609Y0134040D01*
X0237829Y0133932D01*
X0238047Y0133819D01*
X0238262Y0133701D01*
X0238474Y0133577D01*
X0238683Y0133449D01*
X0238889Y0133315D01*
X0239091Y0133176D01*
X0239290Y0133032D01*
X0239485Y0132883D01*
X0239677Y0132730D01*
X0239865Y0132572D01*
X0240049Y0132410D01*
X0240228Y0132242D01*
X0240404Y0132071D01*
X0240575Y0131895D01*
X0240743Y0131716D01*
X0240905Y0131532D01*
X0241063Y0131344D01*
X0241216Y0131152D01*
X0241365Y0130957D01*
X0241509Y0130758D01*
X0241648Y0130556D01*
X0241782Y0130350D01*
X0241910Y0130141D01*
X0242034Y0129929D01*
X0242152Y0129714D01*
X0242265Y0129496D01*
X0242373Y0129276D01*
X0242475Y0129052D01*
X0242572Y0128827D01*
X0242663Y0128599D01*
X0242748Y0128369D01*
X0242828Y0128137D01*
X0242902Y0127903D01*
X0242971Y0127667D01*
X0243033Y0127430D01*
X0243090Y0127191D01*
X0243141Y0126951D01*
X0243186Y0126710D01*
X0243225Y0126467D01*
X0243258Y0126224D01*
X0243285Y0125980D01*
X0243306Y0125736D01*
X0243321Y0125491D01*
X0243330Y0125245D01*
X0243333Y0125000D01*
X0243330Y0124755D01*
X0243321Y0124509D01*
X0243306Y0124264D01*
X0243285Y0124020D01*
X0243258Y0123776D01*
X0243225Y0123533D01*
X0243186Y0123290D01*
X0243141Y0123049D01*
X0243090Y0122809D01*
X0243033Y0122570D01*
X0242971Y0122333D01*
X0242902Y0122097D01*
X0242828Y0121863D01*
X0242748Y0121631D01*
X0242663Y0121401D01*
X0242572Y0121173D01*
X0242475Y0120948D01*
X0242373Y0120724D01*
X0242265Y0120504D01*
X0242152Y0120286D01*
X0242034Y0120071D01*
X0241910Y0119859D01*
X0241782Y0119650D01*
X0241648Y0119444D01*
X0241509Y0119242D01*
X0241365Y0119043D01*
X0241216Y0118848D01*
X0241063Y0118656D01*
X0240905Y0118468D01*
X0240743Y0118284D01*
X0240575Y0118105D01*
X0240404Y0117929D01*
X0240228Y0117758D01*
X0240049Y0117590D01*
X0239865Y0117428D01*
X0239677Y0117270D01*
X0239485Y0117117D01*
X0239290Y0116968D01*
X0239091Y0116824D01*
X0238889Y0116685D01*
X0238683Y0116551D01*
X0238474Y0116423D01*
X0238262Y0116299D01*
X0238047Y0116181D01*
X0237829Y0116068D01*
X0237609Y0115960D01*
X0237385Y0115858D01*
X0237160Y0115761D01*
X0236932Y0115670D01*
X0236702Y0115585D01*
X0236470Y0115505D01*
X0236236Y0115431D01*
X0236000Y0115362D01*
X0235763Y0115300D01*
X0235524Y0115243D01*
X0235284Y0115192D01*
X0235043Y0115147D01*
X0234800Y0115108D01*
X0234557Y0115075D01*
X0234313Y0115048D01*
X0234069Y0115027D01*
X0233824Y0115012D01*
X0233578Y0115003D01*
X0233333Y0115000D01*
X0233088Y0115003D01*
X0232842Y0115012D01*
X0232597Y0115027D01*
X0232353Y0115048D01*
X0232109Y0115075D01*
X0231866Y0115108D01*
X0231623Y0115147D01*
X0231382Y0115192D01*
X0231142Y0115243D01*
X0230903Y0115300D01*
X0230666Y0115362D01*
X0230430Y0115431D01*
X0230196Y0115505D01*
X0229964Y0115585D01*
X0229734Y0115670D01*
X0229506Y0115761D01*
X0229281Y0115858D01*
X0229057Y0115960D01*
X0228837Y0116068D01*
X0228619Y0116181D01*
X0228404Y0116299D01*
X0228192Y0116423D01*
X0227983Y0116551D01*
X0227777Y0116685D01*
X0227575Y0116824D01*
X0227376Y0116968D01*
X0227181Y0117117D01*
X0226989Y0117270D01*
X0226801Y0117428D01*
X0226617Y0117590D01*
X0226438Y0117758D01*
X0226262Y0117929D01*
X0226091Y0118105D01*
X0225923Y0118284D01*
X0225761Y0118468D01*
X0225603Y0118656D01*
X0225450Y0118848D01*
X0225301Y0119043D01*
X0225157Y0119242D01*
X0225018Y0119444D01*
X0224884Y0119650D01*
X0224756Y0119859D01*
X0224632Y0120071D01*
X0224514Y0120286D01*
X0224401Y0120504D01*
X0224293Y0120724D01*
X0224191Y0120948D01*
X0224094Y0121173D01*
X0224003Y0121401D01*
X0223918Y0121631D01*
X0223838Y0121863D01*
X0223764Y0122097D01*
X0223695Y0122333D01*
X0223633Y0122570D01*
X0223576Y0122809D01*
X0223525Y0123049D01*
X0223480Y0123290D01*
X0223441Y0123533D01*
X0223408Y0123776D01*
X0223381Y0124020D01*
X0223360Y0124264D01*
X0223345Y0124509D01*
X0223336Y0124755D01*
X0223333Y0125000D01*
X0263333Y0125000D02*
X0263336Y0125245D01*
X0263345Y0125491D01*
X0263360Y0125736D01*
X0263381Y0125980D01*
X0263408Y0126224D01*
X0263441Y0126467D01*
X0263480Y0126710D01*
X0263525Y0126951D01*
X0263576Y0127191D01*
X0263633Y0127430D01*
X0263695Y0127667D01*
X0263764Y0127903D01*
X0263838Y0128137D01*
X0263918Y0128369D01*
X0264003Y0128599D01*
X0264094Y0128827D01*
X0264191Y0129052D01*
X0264293Y0129276D01*
X0264401Y0129496D01*
X0264514Y0129714D01*
X0264632Y0129929D01*
X0264756Y0130141D01*
X0264884Y0130350D01*
X0265018Y0130556D01*
X0265157Y0130758D01*
X0265301Y0130957D01*
X0265450Y0131152D01*
X0265603Y0131344D01*
X0265761Y0131532D01*
X0265923Y0131716D01*
X0266091Y0131895D01*
X0266262Y0132071D01*
X0266438Y0132242D01*
X0266617Y0132410D01*
X0266801Y0132572D01*
X0266989Y0132730D01*
X0267181Y0132883D01*
X0267376Y0133032D01*
X0267575Y0133176D01*
X0267777Y0133315D01*
X0267983Y0133449D01*
X0268192Y0133577D01*
X0268404Y0133701D01*
X0268619Y0133819D01*
X0268837Y0133932D01*
X0269057Y0134040D01*
X0269281Y0134142D01*
X0269506Y0134239D01*
X0269734Y0134330D01*
X0269964Y0134415D01*
X0270196Y0134495D01*
X0270430Y0134569D01*
X0270666Y0134638D01*
X0270903Y0134700D01*
X0271142Y0134757D01*
X0271382Y0134808D01*
X0271623Y0134853D01*
X0271866Y0134892D01*
X0272109Y0134925D01*
X0272353Y0134952D01*
X0272597Y0134973D01*
X0272842Y0134988D01*
X0273088Y0134997D01*
X0273333Y0135000D01*
X0273578Y0134997D01*
X0273824Y0134988D01*
X0274069Y0134973D01*
X0274313Y0134952D01*
X0274557Y0134925D01*
X0274800Y0134892D01*
X0275043Y0134853D01*
X0275284Y0134808D01*
X0275524Y0134757D01*
X0275763Y0134700D01*
X0276000Y0134638D01*
X0276236Y0134569D01*
X0276470Y0134495D01*
X0276702Y0134415D01*
X0276932Y0134330D01*
X0277160Y0134239D01*
X0277385Y0134142D01*
X0277609Y0134040D01*
X0277829Y0133932D01*
X0278047Y0133819D01*
X0278262Y0133701D01*
X0278474Y0133577D01*
X0278683Y0133449D01*
X0278889Y0133315D01*
X0279091Y0133176D01*
X0279290Y0133032D01*
X0279485Y0132883D01*
X0279677Y0132730D01*
X0279865Y0132572D01*
X0280049Y0132410D01*
X0280228Y0132242D01*
X0280404Y0132071D01*
X0280575Y0131895D01*
X0280743Y0131716D01*
X0280905Y0131532D01*
X0281063Y0131344D01*
X0281216Y0131152D01*
X0281365Y0130957D01*
X0281509Y0130758D01*
X0281648Y0130556D01*
X0281782Y0130350D01*
X0281910Y0130141D01*
X0282034Y0129929D01*
X0282152Y0129714D01*
X0282265Y0129496D01*
X0282373Y0129276D01*
X0282475Y0129052D01*
X0282572Y0128827D01*
X0282663Y0128599D01*
X0282748Y0128369D01*
X0282828Y0128137D01*
X0282902Y0127903D01*
X0282971Y0127667D01*
X0283033Y0127430D01*
X0283090Y0127191D01*
X0283141Y0126951D01*
X0283186Y0126710D01*
X0283225Y0126467D01*
X0283258Y0126224D01*
X0283285Y0125980D01*
X0283306Y0125736D01*
X0283321Y0125491D01*
X0283330Y0125245D01*
X0283333Y0125000D01*
X0283330Y0124755D01*
X0283321Y0124509D01*
X0283306Y0124264D01*
X0283285Y0124020D01*
X0283258Y0123776D01*
X0283225Y0123533D01*
X0283186Y0123290D01*
X0283141Y0123049D01*
X0283090Y0122809D01*
X0283033Y0122570D01*
X0282971Y0122333D01*
X0282902Y0122097D01*
X0282828Y0121863D01*
X0282748Y0121631D01*
X0282663Y0121401D01*
X0282572Y0121173D01*
X0282475Y0120948D01*
X0282373Y0120724D01*
X0282265Y0120504D01*
X0282152Y0120286D01*
X0282034Y0120071D01*
X0281910Y0119859D01*
X0281782Y0119650D01*
X0281648Y0119444D01*
X0281509Y0119242D01*
X0281365Y0119043D01*
X0281216Y0118848D01*
X0281063Y0118656D01*
X0280905Y0118468D01*
X0280743Y0118284D01*
X0280575Y0118105D01*
X0280404Y0117929D01*
X0280228Y0117758D01*
X0280049Y0117590D01*
X0279865Y0117428D01*
X0279677Y0117270D01*
X0279485Y0117117D01*
X0279290Y0116968D01*
X0279091Y0116824D01*
X0278889Y0116685D01*
X0278683Y0116551D01*
X0278474Y0116423D01*
X0278262Y0116299D01*
X0278047Y0116181D01*
X0277829Y0116068D01*
X0277609Y0115960D01*
X0277385Y0115858D01*
X0277160Y0115761D01*
X0276932Y0115670D01*
X0276702Y0115585D01*
X0276470Y0115505D01*
X0276236Y0115431D01*
X0276000Y0115362D01*
X0275763Y0115300D01*
X0275524Y0115243D01*
X0275284Y0115192D01*
X0275043Y0115147D01*
X0274800Y0115108D01*
X0274557Y0115075D01*
X0274313Y0115048D01*
X0274069Y0115027D01*
X0273824Y0115012D01*
X0273578Y0115003D01*
X0273333Y0115000D01*
X0273088Y0115003D01*
X0272842Y0115012D01*
X0272597Y0115027D01*
X0272353Y0115048D01*
X0272109Y0115075D01*
X0271866Y0115108D01*
X0271623Y0115147D01*
X0271382Y0115192D01*
X0271142Y0115243D01*
X0270903Y0115300D01*
X0270666Y0115362D01*
X0270430Y0115431D01*
X0270196Y0115505D01*
X0269964Y0115585D01*
X0269734Y0115670D01*
X0269506Y0115761D01*
X0269281Y0115858D01*
X0269057Y0115960D01*
X0268837Y0116068D01*
X0268619Y0116181D01*
X0268404Y0116299D01*
X0268192Y0116423D01*
X0267983Y0116551D01*
X0267777Y0116685D01*
X0267575Y0116824D01*
X0267376Y0116968D01*
X0267181Y0117117D01*
X0266989Y0117270D01*
X0266801Y0117428D01*
X0266617Y0117590D01*
X0266438Y0117758D01*
X0266262Y0117929D01*
X0266091Y0118105D01*
X0265923Y0118284D01*
X0265761Y0118468D01*
X0265603Y0118656D01*
X0265450Y0118848D01*
X0265301Y0119043D01*
X0265157Y0119242D01*
X0265018Y0119444D01*
X0264884Y0119650D01*
X0264756Y0119859D01*
X0264632Y0120071D01*
X0264514Y0120286D01*
X0264401Y0120504D01*
X0264293Y0120724D01*
X0264191Y0120948D01*
X0264094Y0121173D01*
X0264003Y0121401D01*
X0263918Y0121631D01*
X0263838Y0121863D01*
X0263764Y0122097D01*
X0263695Y0122333D01*
X0263633Y0122570D01*
X0263576Y0122809D01*
X0263525Y0123049D01*
X0263480Y0123290D01*
X0263441Y0123533D01*
X0263408Y0123776D01*
X0263381Y0124020D01*
X0263360Y0124264D01*
X0263345Y0124509D01*
X0263336Y0124755D01*
X0263333Y0125000D01*
D14*
X0195833Y0237500D03*
X0190833Y0237500D03*
X0180833Y0237500D03*
X0175833Y0237500D03*
X0170833Y0242500D03*
X0170833Y0247500D03*
X0170833Y0252500D03*
X0165833Y0252500D03*
X0160833Y0252500D03*
X0160833Y0247500D03*
X0160833Y0242500D03*
X0175833Y0247500D03*
X0175833Y0252500D03*
X0180833Y0252500D03*
X0180833Y0247500D03*
X0185833Y0247500D03*
X0185833Y0252500D03*
X0190833Y0252500D03*
X0190833Y0247500D03*
X0195833Y0247500D03*
X0195833Y0252500D03*
X0200833Y0252500D03*
X0200833Y0247500D03*
X0205833Y0252500D03*
X0205833Y0257500D03*
X0200833Y0257500D03*
X0200833Y0262500D03*
X0195833Y0262500D03*
X0190833Y0262500D03*
X0185833Y0262500D03*
X0180833Y0262500D03*
X0180833Y0257500D03*
X0185833Y0257500D03*
X0190833Y0257500D03*
X0195833Y0267500D03*
X0200833Y0272500D03*
X0210833Y0252500D03*
X0210833Y0247500D03*
X0210833Y0242500D03*
X0200833Y0242500D03*
X0175833Y0262500D03*
X0170833Y0262500D03*
X0170833Y0257500D03*
X0165833Y0257500D03*
X0175833Y0267500D03*
X0170833Y0272500D03*
D15*
X0206286Y0070000D02*
X0206288Y0070105D01*
X0206294Y0070210D01*
X0206304Y0070314D01*
X0206318Y0070418D01*
X0206336Y0070522D01*
X0206358Y0070624D01*
X0206383Y0070726D01*
X0206413Y0070827D01*
X0206446Y0070926D01*
X0206483Y0071024D01*
X0206524Y0071121D01*
X0206569Y0071216D01*
X0206617Y0071309D01*
X0206668Y0071401D01*
X0206724Y0071490D01*
X0206782Y0071577D01*
X0206844Y0071662D01*
X0206908Y0071745D01*
X0206976Y0071825D01*
X0207047Y0071902D01*
X0207121Y0071976D01*
X0207198Y0072048D01*
X0207277Y0072117D01*
X0207359Y0072182D01*
X0207443Y0072245D01*
X0207530Y0072304D01*
X0207619Y0072360D01*
X0207710Y0072413D01*
X0207803Y0072462D01*
X0207897Y0072507D01*
X0207993Y0072549D01*
X0208091Y0072587D01*
X0208190Y0072621D01*
X0208291Y0072652D01*
X0208392Y0072678D01*
X0208495Y0072701D01*
X0208598Y0072720D01*
X0208702Y0072735D01*
X0208806Y0072746D01*
X0208911Y0072753D01*
X0209016Y0072756D01*
X0209121Y0072755D01*
X0209226Y0072750D01*
X0209330Y0072741D01*
X0209434Y0072728D01*
X0209538Y0072711D01*
X0209641Y0072690D01*
X0209743Y0072665D01*
X0209844Y0072637D01*
X0209943Y0072604D01*
X0210042Y0072568D01*
X0210139Y0072528D01*
X0210234Y0072485D01*
X0210328Y0072437D01*
X0210420Y0072387D01*
X0210510Y0072333D01*
X0210598Y0072275D01*
X0210683Y0072214D01*
X0210766Y0072150D01*
X0210847Y0072083D01*
X0210925Y0072013D01*
X0211000Y0071939D01*
X0211072Y0071864D01*
X0211142Y0071785D01*
X0211208Y0071704D01*
X0211272Y0071620D01*
X0211332Y0071534D01*
X0211388Y0071446D01*
X0211442Y0071355D01*
X0211492Y0071263D01*
X0211538Y0071169D01*
X0211581Y0071073D01*
X0211620Y0070975D01*
X0211655Y0070877D01*
X0211686Y0070776D01*
X0211714Y0070675D01*
X0211738Y0070573D01*
X0211758Y0070470D01*
X0211774Y0070366D01*
X0211786Y0070262D01*
X0211794Y0070157D01*
X0211798Y0070052D01*
X0211798Y0069948D01*
X0211794Y0069843D01*
X0211786Y0069738D01*
X0211774Y0069634D01*
X0211758Y0069530D01*
X0211738Y0069427D01*
X0211714Y0069325D01*
X0211686Y0069224D01*
X0211655Y0069123D01*
X0211620Y0069025D01*
X0211581Y0068927D01*
X0211538Y0068831D01*
X0211492Y0068737D01*
X0211442Y0068645D01*
X0211388Y0068554D01*
X0211332Y0068466D01*
X0211272Y0068380D01*
X0211208Y0068296D01*
X0211142Y0068215D01*
X0211072Y0068136D01*
X0211000Y0068061D01*
X0210925Y0067987D01*
X0210847Y0067917D01*
X0210766Y0067850D01*
X0210683Y0067786D01*
X0210598Y0067725D01*
X0210510Y0067667D01*
X0210420Y0067613D01*
X0210328Y0067563D01*
X0210234Y0067515D01*
X0210139Y0067472D01*
X0210042Y0067432D01*
X0209943Y0067396D01*
X0209844Y0067363D01*
X0209743Y0067335D01*
X0209641Y0067310D01*
X0209538Y0067289D01*
X0209434Y0067272D01*
X0209330Y0067259D01*
X0209226Y0067250D01*
X0209121Y0067245D01*
X0209016Y0067244D01*
X0208911Y0067247D01*
X0208806Y0067254D01*
X0208702Y0067265D01*
X0208598Y0067280D01*
X0208495Y0067299D01*
X0208392Y0067322D01*
X0208291Y0067348D01*
X0208190Y0067379D01*
X0208091Y0067413D01*
X0207993Y0067451D01*
X0207897Y0067493D01*
X0207803Y0067538D01*
X0207710Y0067587D01*
X0207619Y0067640D01*
X0207530Y0067696D01*
X0207443Y0067755D01*
X0207359Y0067818D01*
X0207277Y0067883D01*
X0207198Y0067952D01*
X0207121Y0068024D01*
X0207047Y0068098D01*
X0206976Y0068175D01*
X0206908Y0068255D01*
X0206844Y0068338D01*
X0206782Y0068423D01*
X0206724Y0068510D01*
X0206668Y0068599D01*
X0206617Y0068691D01*
X0206569Y0068784D01*
X0206524Y0068879D01*
X0206483Y0068976D01*
X0206446Y0069074D01*
X0206413Y0069173D01*
X0206383Y0069274D01*
X0206358Y0069376D01*
X0206336Y0069478D01*
X0206318Y0069582D01*
X0206304Y0069686D01*
X0206294Y0069790D01*
X0206288Y0069895D01*
X0206286Y0070000D01*
X0044869Y0070000D02*
X0044871Y0070105D01*
X0044877Y0070210D01*
X0044887Y0070314D01*
X0044901Y0070418D01*
X0044919Y0070522D01*
X0044941Y0070624D01*
X0044966Y0070726D01*
X0044996Y0070827D01*
X0045029Y0070926D01*
X0045066Y0071024D01*
X0045107Y0071121D01*
X0045152Y0071216D01*
X0045200Y0071309D01*
X0045251Y0071401D01*
X0045307Y0071490D01*
X0045365Y0071577D01*
X0045427Y0071662D01*
X0045491Y0071745D01*
X0045559Y0071825D01*
X0045630Y0071902D01*
X0045704Y0071976D01*
X0045781Y0072048D01*
X0045860Y0072117D01*
X0045942Y0072182D01*
X0046026Y0072245D01*
X0046113Y0072304D01*
X0046202Y0072360D01*
X0046293Y0072413D01*
X0046386Y0072462D01*
X0046480Y0072507D01*
X0046576Y0072549D01*
X0046674Y0072587D01*
X0046773Y0072621D01*
X0046874Y0072652D01*
X0046975Y0072678D01*
X0047078Y0072701D01*
X0047181Y0072720D01*
X0047285Y0072735D01*
X0047389Y0072746D01*
X0047494Y0072753D01*
X0047599Y0072756D01*
X0047704Y0072755D01*
X0047809Y0072750D01*
X0047913Y0072741D01*
X0048017Y0072728D01*
X0048121Y0072711D01*
X0048224Y0072690D01*
X0048326Y0072665D01*
X0048427Y0072637D01*
X0048526Y0072604D01*
X0048625Y0072568D01*
X0048722Y0072528D01*
X0048817Y0072485D01*
X0048911Y0072437D01*
X0049003Y0072387D01*
X0049093Y0072333D01*
X0049181Y0072275D01*
X0049266Y0072214D01*
X0049349Y0072150D01*
X0049430Y0072083D01*
X0049508Y0072013D01*
X0049583Y0071939D01*
X0049655Y0071864D01*
X0049725Y0071785D01*
X0049791Y0071704D01*
X0049855Y0071620D01*
X0049915Y0071534D01*
X0049971Y0071446D01*
X0050025Y0071355D01*
X0050075Y0071263D01*
X0050121Y0071169D01*
X0050164Y0071073D01*
X0050203Y0070975D01*
X0050238Y0070877D01*
X0050269Y0070776D01*
X0050297Y0070675D01*
X0050321Y0070573D01*
X0050341Y0070470D01*
X0050357Y0070366D01*
X0050369Y0070262D01*
X0050377Y0070157D01*
X0050381Y0070052D01*
X0050381Y0069948D01*
X0050377Y0069843D01*
X0050369Y0069738D01*
X0050357Y0069634D01*
X0050341Y0069530D01*
X0050321Y0069427D01*
X0050297Y0069325D01*
X0050269Y0069224D01*
X0050238Y0069123D01*
X0050203Y0069025D01*
X0050164Y0068927D01*
X0050121Y0068831D01*
X0050075Y0068737D01*
X0050025Y0068645D01*
X0049971Y0068554D01*
X0049915Y0068466D01*
X0049855Y0068380D01*
X0049791Y0068296D01*
X0049725Y0068215D01*
X0049655Y0068136D01*
X0049583Y0068061D01*
X0049508Y0067987D01*
X0049430Y0067917D01*
X0049349Y0067850D01*
X0049266Y0067786D01*
X0049181Y0067725D01*
X0049093Y0067667D01*
X0049003Y0067613D01*
X0048911Y0067563D01*
X0048817Y0067515D01*
X0048722Y0067472D01*
X0048625Y0067432D01*
X0048526Y0067396D01*
X0048427Y0067363D01*
X0048326Y0067335D01*
X0048224Y0067310D01*
X0048121Y0067289D01*
X0048017Y0067272D01*
X0047913Y0067259D01*
X0047809Y0067250D01*
X0047704Y0067245D01*
X0047599Y0067244D01*
X0047494Y0067247D01*
X0047389Y0067254D01*
X0047285Y0067265D01*
X0047181Y0067280D01*
X0047078Y0067299D01*
X0046975Y0067322D01*
X0046874Y0067348D01*
X0046773Y0067379D01*
X0046674Y0067413D01*
X0046576Y0067451D01*
X0046480Y0067493D01*
X0046386Y0067538D01*
X0046293Y0067587D01*
X0046202Y0067640D01*
X0046113Y0067696D01*
X0046026Y0067755D01*
X0045942Y0067818D01*
X0045860Y0067883D01*
X0045781Y0067952D01*
X0045704Y0068024D01*
X0045630Y0068098D01*
X0045559Y0068175D01*
X0045491Y0068255D01*
X0045427Y0068338D01*
X0045365Y0068423D01*
X0045307Y0068510D01*
X0045251Y0068599D01*
X0045200Y0068691D01*
X0045152Y0068784D01*
X0045107Y0068879D01*
X0045066Y0068976D01*
X0045029Y0069074D01*
X0044996Y0069173D01*
X0044966Y0069274D01*
X0044941Y0069376D01*
X0044919Y0069478D01*
X0044901Y0069582D01*
X0044887Y0069686D01*
X0044877Y0069790D01*
X0044871Y0069895D01*
X0044869Y0070000D01*
D16*
X0243662Y0132809D02*
X0242942Y0132269D01*
X0242943Y0132270D02*
X0242762Y0132503D01*
X0242576Y0132731D01*
X0242384Y0132955D01*
X0242187Y0133174D01*
X0241985Y0133388D01*
X0241777Y0133597D01*
X0241564Y0133800D01*
X0241347Y0133999D01*
X0241124Y0134192D01*
X0240897Y0134380D01*
X0240666Y0134562D01*
X0240430Y0134739D01*
X0240189Y0134909D01*
X0239945Y0135074D01*
X0239697Y0135232D01*
X0239445Y0135385D01*
X0239189Y0135531D01*
X0238930Y0135671D01*
X0238667Y0135805D01*
X0238402Y0135932D01*
X0238133Y0136053D01*
X0237861Y0136167D01*
X0237587Y0136274D01*
X0237310Y0136375D01*
X0237031Y0136469D01*
X0236749Y0136556D01*
X0236466Y0136636D01*
X0236180Y0136709D01*
X0235893Y0136775D01*
X0235604Y0136834D01*
X0235314Y0136886D01*
X0235023Y0136931D01*
X0234731Y0136969D01*
X0234438Y0136999D01*
X0234144Y0137023D01*
X0233850Y0137039D01*
X0233556Y0137048D01*
X0233261Y0137050D01*
X0232966Y0137044D01*
X0232672Y0137032D01*
X0232378Y0137012D01*
X0232085Y0136985D01*
X0231792Y0136951D01*
X0231500Y0136910D01*
X0231210Y0136861D01*
X0230920Y0136806D01*
X0230633Y0136744D01*
X0230346Y0136674D01*
X0230062Y0136597D01*
X0229779Y0136514D01*
X0229499Y0136424D01*
X0229221Y0136327D01*
X0228945Y0136223D01*
X0228672Y0136112D01*
X0228402Y0135995D01*
X0228134Y0135871D01*
X0227870Y0135741D01*
X0227609Y0135604D01*
X0227352Y0135461D01*
X0227098Y0135311D01*
X0226847Y0135156D01*
X0226601Y0134994D01*
X0226359Y0134827D01*
X0226121Y0134653D01*
X0225887Y0134474D01*
X0225657Y0134289D01*
X0225433Y0134099D01*
X0225212Y0133903D01*
X0224997Y0133702D01*
X0224787Y0133495D01*
X0224582Y0133284D01*
X0224382Y0133067D01*
X0224187Y0132846D01*
X0223998Y0132620D01*
X0223815Y0132390D01*
X0223637Y0132155D01*
X0223465Y0131915D01*
X0223299Y0131672D01*
X0223139Y0131425D01*
X0222985Y0131174D01*
X0222837Y0130919D01*
X0222695Y0130660D01*
X0222560Y0130399D01*
X0222431Y0130134D01*
X0222309Y0129866D01*
X0222193Y0129595D01*
X0222084Y0129321D01*
X0221982Y0129045D01*
X0221887Y0128766D01*
X0221798Y0128485D01*
X0221716Y0128202D01*
X0221641Y0127917D01*
X0221574Y0127630D01*
X0221513Y0127342D01*
X0221459Y0127052D01*
X0221412Y0126761D01*
X0221373Y0126469D01*
X0221341Y0126177D01*
X0221315Y0125883D01*
X0221297Y0125589D01*
X0221287Y0125295D01*
X0221283Y0125000D01*
X0221287Y0124705D01*
X0221297Y0124411D01*
X0221315Y0124117D01*
X0221341Y0123823D01*
X0221373Y0123531D01*
X0221412Y0123239D01*
X0221459Y0122948D01*
X0221513Y0122658D01*
X0221574Y0122370D01*
X0221641Y0122083D01*
X0221716Y0121798D01*
X0221798Y0121515D01*
X0221887Y0121234D01*
X0221982Y0120955D01*
X0222084Y0120679D01*
X0222193Y0120405D01*
X0222309Y0120134D01*
X0222431Y0119866D01*
X0222560Y0119601D01*
X0222695Y0119340D01*
X0222837Y0119081D01*
X0222985Y0118826D01*
X0223139Y0118575D01*
X0223299Y0118328D01*
X0223465Y0118085D01*
X0223637Y0117845D01*
X0223815Y0117610D01*
X0223998Y0117380D01*
X0224187Y0117154D01*
X0224382Y0116933D01*
X0224582Y0116716D01*
X0224787Y0116505D01*
X0224997Y0116298D01*
X0225212Y0116097D01*
X0225433Y0115901D01*
X0225657Y0115711D01*
X0225887Y0115526D01*
X0226121Y0115347D01*
X0226359Y0115173D01*
X0226601Y0115006D01*
X0226847Y0114844D01*
X0227098Y0114689D01*
X0227352Y0114539D01*
X0227609Y0114396D01*
X0227870Y0114259D01*
X0228134Y0114129D01*
X0228402Y0114005D01*
X0228672Y0113888D01*
X0228945Y0113777D01*
X0229221Y0113673D01*
X0229499Y0113576D01*
X0229779Y0113486D01*
X0230062Y0113403D01*
X0230346Y0113326D01*
X0230633Y0113256D01*
X0230920Y0113194D01*
X0231210Y0113139D01*
X0231500Y0113090D01*
X0231792Y0113049D01*
X0232085Y0113015D01*
X0232378Y0112988D01*
X0232672Y0112968D01*
X0232966Y0112956D01*
X0233261Y0112950D01*
X0233556Y0112952D01*
X0233850Y0112961D01*
X0234144Y0112977D01*
X0234438Y0113001D01*
X0234731Y0113031D01*
X0235023Y0113069D01*
X0235314Y0113114D01*
X0235604Y0113166D01*
X0235893Y0113225D01*
X0236180Y0113291D01*
X0236466Y0113364D01*
X0236749Y0113444D01*
X0237031Y0113531D01*
X0237310Y0113625D01*
X0237587Y0113726D01*
X0237861Y0113833D01*
X0238133Y0113947D01*
X0238402Y0114068D01*
X0238667Y0114195D01*
X0238930Y0114329D01*
X0239189Y0114469D01*
X0239445Y0114615D01*
X0239697Y0114768D01*
X0239945Y0114926D01*
X0240189Y0115091D01*
X0240430Y0115261D01*
X0240666Y0115438D01*
X0240897Y0115620D01*
X0241124Y0115808D01*
X0241347Y0116001D01*
X0241564Y0116200D01*
X0241777Y0116403D01*
X0241985Y0116612D01*
X0242187Y0116826D01*
X0242384Y0117045D01*
X0242576Y0117269D01*
X0242762Y0117497D01*
X0242943Y0117730D01*
X0243662Y0117191D01*
X0243663Y0117190D01*
X0243469Y0116940D01*
X0243269Y0116694D01*
X0243063Y0116454D01*
X0242851Y0116219D01*
X0242633Y0115989D01*
X0242410Y0115764D01*
X0242182Y0115545D01*
X0241948Y0115331D01*
X0241709Y0115123D01*
X0241465Y0114921D01*
X0241216Y0114726D01*
X0240962Y0114536D01*
X0240704Y0114353D01*
X0240442Y0114176D01*
X0240175Y0114005D01*
X0239904Y0113841D01*
X0239629Y0113684D01*
X0239351Y0113533D01*
X0239068Y0113389D01*
X0238783Y0113253D01*
X0238494Y0113123D01*
X0238202Y0113000D01*
X0237907Y0112885D01*
X0237610Y0112777D01*
X0237309Y0112676D01*
X0237007Y0112582D01*
X0236702Y0112496D01*
X0236395Y0112417D01*
X0236087Y0112346D01*
X0235777Y0112283D01*
X0235465Y0112227D01*
X0235152Y0112178D01*
X0234838Y0112138D01*
X0234523Y0112105D01*
X0234207Y0112080D01*
X0233891Y0112062D01*
X0233575Y0112052D01*
X0233258Y0112050D01*
X0232941Y0112056D01*
X0232625Y0112069D01*
X0232309Y0112091D01*
X0231994Y0112119D01*
X0231679Y0112156D01*
X0231366Y0112200D01*
X0231053Y0112252D01*
X0230742Y0112312D01*
X0230433Y0112379D01*
X0230125Y0112454D01*
X0229819Y0112536D01*
X0229516Y0112625D01*
X0229214Y0112722D01*
X0228915Y0112827D01*
X0228619Y0112939D01*
X0228325Y0113057D01*
X0228035Y0113183D01*
X0227748Y0113316D01*
X0227463Y0113457D01*
X0227183Y0113604D01*
X0226906Y0113757D01*
X0226633Y0113918D01*
X0226364Y0114085D01*
X0226099Y0114259D01*
X0225839Y0114439D01*
X0225583Y0114625D01*
X0225332Y0114818D01*
X0225085Y0115016D01*
X0224843Y0115221D01*
X0224607Y0115431D01*
X0224375Y0115648D01*
X0224150Y0115870D01*
X0223929Y0116097D01*
X0223714Y0116329D01*
X0223505Y0116567D01*
X0223302Y0116810D01*
X0223104Y0117058D01*
X0222913Y0117310D01*
X0222728Y0117567D01*
X0222550Y0117829D01*
X0222378Y0118095D01*
X0222212Y0118364D01*
X0222053Y0118638D01*
X0221901Y0118916D01*
X0221756Y0119197D01*
X0221617Y0119482D01*
X0221486Y0119770D01*
X0221362Y0120062D01*
X0221244Y0120356D01*
X0221134Y0120653D01*
X0221032Y0120952D01*
X0220937Y0121254D01*
X0220849Y0121558D01*
X0220768Y0121865D01*
X0220695Y0122173D01*
X0220630Y0122483D01*
X0220572Y0122794D01*
X0220522Y0123107D01*
X0220480Y0123421D01*
X0220445Y0123735D01*
X0220418Y0124051D01*
X0220398Y0124367D01*
X0220387Y0124683D01*
X0220383Y0125000D01*
X0220387Y0125317D01*
X0220398Y0125633D01*
X0220418Y0125949D01*
X0220445Y0126265D01*
X0220480Y0126579D01*
X0220522Y0126893D01*
X0220572Y0127206D01*
X0220630Y0127517D01*
X0220695Y0127827D01*
X0220768Y0128135D01*
X0220849Y0128442D01*
X0220937Y0128746D01*
X0221032Y0129048D01*
X0221134Y0129347D01*
X0221244Y0129644D01*
X0221362Y0129938D01*
X0221486Y0130230D01*
X0221617Y0130518D01*
X0221756Y0130803D01*
X0221901Y0131084D01*
X0222053Y0131362D01*
X0222212Y0131636D01*
X0222378Y0131905D01*
X0222550Y0132171D01*
X0222728Y0132433D01*
X0222913Y0132690D01*
X0223104Y0132942D01*
X0223302Y0133190D01*
X0223505Y0133433D01*
X0223714Y0133671D01*
X0223929Y0133903D01*
X0224150Y0134130D01*
X0224375Y0134352D01*
X0224607Y0134569D01*
X0224843Y0134779D01*
X0225085Y0134984D01*
X0225332Y0135182D01*
X0225583Y0135375D01*
X0225839Y0135561D01*
X0226099Y0135741D01*
X0226364Y0135915D01*
X0226633Y0136082D01*
X0226906Y0136243D01*
X0227183Y0136396D01*
X0227463Y0136543D01*
X0227748Y0136684D01*
X0228035Y0136817D01*
X0228325Y0136943D01*
X0228619Y0137061D01*
X0228915Y0137173D01*
X0229214Y0137278D01*
X0229516Y0137375D01*
X0229819Y0137464D01*
X0230125Y0137546D01*
X0230433Y0137621D01*
X0230742Y0137688D01*
X0231053Y0137748D01*
X0231366Y0137800D01*
X0231679Y0137844D01*
X0231994Y0137881D01*
X0232309Y0137909D01*
X0232625Y0137931D01*
X0232941Y0137944D01*
X0233258Y0137950D01*
X0233575Y0137948D01*
X0233891Y0137938D01*
X0234207Y0137920D01*
X0234523Y0137895D01*
X0234838Y0137862D01*
X0235152Y0137822D01*
X0235465Y0137773D01*
X0235777Y0137717D01*
X0236087Y0137654D01*
X0236395Y0137583D01*
X0236702Y0137504D01*
X0237007Y0137418D01*
X0237309Y0137324D01*
X0237610Y0137223D01*
X0237907Y0137115D01*
X0238202Y0137000D01*
X0238494Y0136877D01*
X0238783Y0136747D01*
X0239068Y0136611D01*
X0239351Y0136467D01*
X0239629Y0136316D01*
X0239904Y0136159D01*
X0240175Y0135995D01*
X0240442Y0135824D01*
X0240704Y0135647D01*
X0240962Y0135464D01*
X0241216Y0135274D01*
X0241465Y0135079D01*
X0241709Y0134877D01*
X0241948Y0134669D01*
X0242182Y0134455D01*
X0242410Y0134236D01*
X0242633Y0134011D01*
X0242851Y0133781D01*
X0243063Y0133546D01*
X0243269Y0133306D01*
X0243469Y0133060D01*
X0243663Y0132810D01*
X0243588Y0132754D01*
X0243395Y0133002D01*
X0243196Y0133246D01*
X0242992Y0133484D01*
X0242782Y0133718D01*
X0242566Y0133946D01*
X0242344Y0134169D01*
X0242117Y0134387D01*
X0241885Y0134599D01*
X0241648Y0134805D01*
X0241406Y0135006D01*
X0241158Y0135200D01*
X0240907Y0135388D01*
X0240650Y0135570D01*
X0240390Y0135746D01*
X0240125Y0135915D01*
X0239856Y0136078D01*
X0239583Y0136234D01*
X0239307Y0136384D01*
X0239027Y0136526D01*
X0238743Y0136662D01*
X0238456Y0136791D01*
X0238166Y0136913D01*
X0237874Y0137027D01*
X0237578Y0137135D01*
X0237280Y0137235D01*
X0236980Y0137328D01*
X0236677Y0137413D01*
X0236373Y0137491D01*
X0236067Y0137562D01*
X0235759Y0137625D01*
X0235449Y0137681D01*
X0235139Y0137729D01*
X0234827Y0137769D01*
X0234514Y0137802D01*
X0234201Y0137827D01*
X0233887Y0137844D01*
X0233573Y0137854D01*
X0233258Y0137856D01*
X0232944Y0137850D01*
X0232630Y0137837D01*
X0232316Y0137816D01*
X0232003Y0137787D01*
X0231691Y0137751D01*
X0231380Y0137707D01*
X0231070Y0137655D01*
X0230761Y0137596D01*
X0230454Y0137529D01*
X0230148Y0137455D01*
X0229845Y0137374D01*
X0229543Y0137285D01*
X0229244Y0137188D01*
X0228947Y0137085D01*
X0228653Y0136974D01*
X0228362Y0136856D01*
X0228073Y0136731D01*
X0227788Y0136599D01*
X0227506Y0136460D01*
X0227228Y0136314D01*
X0226953Y0136161D01*
X0226682Y0136002D01*
X0226415Y0135836D01*
X0226152Y0135663D01*
X0225893Y0135485D01*
X0225639Y0135300D01*
X0225390Y0135108D01*
X0225145Y0134911D01*
X0224905Y0134708D01*
X0224670Y0134499D01*
X0224440Y0134284D01*
X0224216Y0134064D01*
X0223997Y0133839D01*
X0223784Y0133608D01*
X0223576Y0133372D01*
X0223374Y0133130D01*
X0223179Y0132885D01*
X0222989Y0132634D01*
X0222805Y0132379D01*
X0222628Y0132119D01*
X0222457Y0131855D01*
X0222293Y0131587D01*
X0222135Y0131315D01*
X0221984Y0131040D01*
X0221840Y0130760D01*
X0221702Y0130478D01*
X0221572Y0130192D01*
X0221448Y0129903D01*
X0221332Y0129610D01*
X0221223Y0129316D01*
X0221121Y0129018D01*
X0221027Y0128719D01*
X0220939Y0128416D01*
X0220859Y0128112D01*
X0220787Y0127807D01*
X0220722Y0127499D01*
X0220665Y0127190D01*
X0220615Y0126879D01*
X0220573Y0126568D01*
X0220538Y0126255D01*
X0220512Y0125942D01*
X0220492Y0125628D01*
X0220481Y0125314D01*
X0220477Y0125000D01*
X0220481Y0124686D01*
X0220492Y0124372D01*
X0220512Y0124058D01*
X0220538Y0123745D01*
X0220573Y0123432D01*
X0220615Y0123121D01*
X0220665Y0122810D01*
X0220722Y0122501D01*
X0220787Y0122193D01*
X0220859Y0121888D01*
X0220939Y0121584D01*
X0221027Y0121281D01*
X0221121Y0120982D01*
X0221223Y0120684D01*
X0221332Y0120390D01*
X0221448Y0120097D01*
X0221572Y0119808D01*
X0221702Y0119522D01*
X0221840Y0119240D01*
X0221984Y0118960D01*
X0222135Y0118685D01*
X0222293Y0118413D01*
X0222457Y0118145D01*
X0222628Y0117881D01*
X0222805Y0117621D01*
X0222989Y0117366D01*
X0223179Y0117115D01*
X0223374Y0116870D01*
X0223576Y0116628D01*
X0223784Y0116392D01*
X0223997Y0116161D01*
X0224216Y0115936D01*
X0224440Y0115716D01*
X0224670Y0115501D01*
X0224905Y0115292D01*
X0225145Y0115089D01*
X0225390Y0114892D01*
X0225639Y0114700D01*
X0225893Y0114515D01*
X0226152Y0114337D01*
X0226415Y0114164D01*
X0226682Y0113998D01*
X0226953Y0113839D01*
X0227228Y0113686D01*
X0227506Y0113540D01*
X0227788Y0113401D01*
X0228073Y0113269D01*
X0228362Y0113144D01*
X0228653Y0113026D01*
X0228947Y0112915D01*
X0229244Y0112812D01*
X0229543Y0112715D01*
X0229845Y0112626D01*
X0230148Y0112545D01*
X0230454Y0112471D01*
X0230761Y0112404D01*
X0231070Y0112345D01*
X0231380Y0112293D01*
X0231691Y0112249D01*
X0232003Y0112213D01*
X0232316Y0112184D01*
X0232630Y0112163D01*
X0232944Y0112150D01*
X0233258Y0112144D01*
X0233573Y0112146D01*
X0233887Y0112156D01*
X0234201Y0112173D01*
X0234514Y0112198D01*
X0234827Y0112231D01*
X0235139Y0112271D01*
X0235449Y0112319D01*
X0235759Y0112375D01*
X0236067Y0112438D01*
X0236373Y0112509D01*
X0236677Y0112587D01*
X0236980Y0112672D01*
X0237280Y0112765D01*
X0237578Y0112865D01*
X0237874Y0112973D01*
X0238166Y0113087D01*
X0238456Y0113209D01*
X0238743Y0113338D01*
X0239027Y0113474D01*
X0239307Y0113616D01*
X0239583Y0113766D01*
X0239856Y0113922D01*
X0240125Y0114085D01*
X0240390Y0114254D01*
X0240650Y0114430D01*
X0240907Y0114612D01*
X0241158Y0114800D01*
X0241406Y0114994D01*
X0241648Y0115195D01*
X0241885Y0115401D01*
X0242117Y0115613D01*
X0242344Y0115831D01*
X0242566Y0116054D01*
X0242782Y0116282D01*
X0242992Y0116516D01*
X0243196Y0116754D01*
X0243395Y0116998D01*
X0243588Y0117246D01*
X0243513Y0117303D01*
X0243321Y0117056D01*
X0243124Y0116814D01*
X0242921Y0116577D01*
X0242712Y0116346D01*
X0242498Y0116119D01*
X0242278Y0115897D01*
X0242053Y0115681D01*
X0241822Y0115471D01*
X0241587Y0115266D01*
X0241346Y0115067D01*
X0241101Y0114874D01*
X0240851Y0114688D01*
X0240597Y0114507D01*
X0240338Y0114332D01*
X0240075Y0114164D01*
X0239808Y0114003D01*
X0239537Y0113848D01*
X0239263Y0113699D01*
X0238985Y0113558D01*
X0238703Y0113423D01*
X0238419Y0113295D01*
X0238131Y0113174D01*
X0237840Y0113060D01*
X0237547Y0112954D01*
X0237251Y0112854D01*
X0236953Y0112762D01*
X0236653Y0112677D01*
X0236350Y0112600D01*
X0236046Y0112530D01*
X0235741Y0112467D01*
X0235434Y0112412D01*
X0235125Y0112364D01*
X0234816Y0112324D01*
X0234505Y0112292D01*
X0234194Y0112267D01*
X0233883Y0112250D01*
X0233571Y0112240D01*
X0233259Y0112238D01*
X0232947Y0112244D01*
X0232635Y0112257D01*
X0232324Y0112278D01*
X0232013Y0112306D01*
X0231703Y0112343D01*
X0231394Y0112386D01*
X0231086Y0112437D01*
X0230779Y0112496D01*
X0230475Y0112562D01*
X0230171Y0112636D01*
X0229870Y0112717D01*
X0229571Y0112805D01*
X0229274Y0112901D01*
X0228979Y0113004D01*
X0228687Y0113114D01*
X0228398Y0113231D01*
X0228111Y0113355D01*
X0227828Y0113486D01*
X0227548Y0113624D01*
X0227272Y0113769D01*
X0226999Y0113921D01*
X0226730Y0114079D01*
X0226465Y0114244D01*
X0226204Y0114415D01*
X0225948Y0114592D01*
X0225695Y0114776D01*
X0225448Y0114966D01*
X0225205Y0115161D01*
X0224966Y0115363D01*
X0224733Y0115571D01*
X0224505Y0115784D01*
X0224283Y0116002D01*
X0224065Y0116226D01*
X0223854Y0116455D01*
X0223648Y0116690D01*
X0223447Y0116929D01*
X0223253Y0117173D01*
X0223065Y0117422D01*
X0222882Y0117675D01*
X0222706Y0117933D01*
X0222537Y0118195D01*
X0222374Y0118461D01*
X0222217Y0118731D01*
X0222067Y0119005D01*
X0221924Y0119282D01*
X0221787Y0119562D01*
X0221658Y0119846D01*
X0221535Y0120133D01*
X0221420Y0120423D01*
X0221312Y0120716D01*
X0221210Y0121011D01*
X0221116Y0121309D01*
X0221030Y0121609D01*
X0220951Y0121910D01*
X0220879Y0122214D01*
X0220814Y0122519D01*
X0220757Y0122826D01*
X0220708Y0123134D01*
X0220666Y0123444D01*
X0220632Y0123754D01*
X0220605Y0124065D01*
X0220586Y0124376D01*
X0220575Y0124688D01*
X0220571Y0125000D01*
X0220575Y0125312D01*
X0220586Y0125624D01*
X0220605Y0125935D01*
X0220632Y0126246D01*
X0220666Y0126556D01*
X0220708Y0126866D01*
X0220757Y0127174D01*
X0220814Y0127481D01*
X0220879Y0127786D01*
X0220951Y0128090D01*
X0221030Y0128391D01*
X0221116Y0128691D01*
X0221210Y0128989D01*
X0221312Y0129284D01*
X0221420Y0129577D01*
X0221535Y0129867D01*
X0221658Y0130154D01*
X0221787Y0130438D01*
X0221924Y0130718D01*
X0222067Y0130995D01*
X0222217Y0131269D01*
X0222374Y0131539D01*
X0222537Y0131805D01*
X0222706Y0132067D01*
X0222882Y0132325D01*
X0223065Y0132578D01*
X0223253Y0132827D01*
X0223447Y0133071D01*
X0223648Y0133310D01*
X0223854Y0133545D01*
X0224065Y0133774D01*
X0224283Y0133998D01*
X0224505Y0134216D01*
X0224733Y0134429D01*
X0224966Y0134637D01*
X0225205Y0134839D01*
X0225448Y0135034D01*
X0225695Y0135224D01*
X0225948Y0135408D01*
X0226204Y0135585D01*
X0226465Y0135756D01*
X0226730Y0135921D01*
X0226999Y0136079D01*
X0227272Y0136231D01*
X0227548Y0136376D01*
X0227828Y0136514D01*
X0228111Y0136645D01*
X0228398Y0136769D01*
X0228687Y0136886D01*
X0228979Y0136996D01*
X0229274Y0137099D01*
X0229571Y0137195D01*
X0229870Y0137283D01*
X0230171Y0137364D01*
X0230475Y0137438D01*
X0230779Y0137504D01*
X0231086Y0137563D01*
X0231394Y0137614D01*
X0231703Y0137657D01*
X0232013Y0137694D01*
X0232324Y0137722D01*
X0232635Y0137743D01*
X0232947Y0137756D01*
X0233259Y0137762D01*
X0233571Y0137760D01*
X0233883Y0137750D01*
X0234194Y0137733D01*
X0234505Y0137708D01*
X0234816Y0137676D01*
X0235125Y0137636D01*
X0235434Y0137588D01*
X0235741Y0137533D01*
X0236046Y0137470D01*
X0236350Y0137400D01*
X0236653Y0137323D01*
X0236953Y0137238D01*
X0237251Y0137146D01*
X0237547Y0137046D01*
X0237840Y0136940D01*
X0238131Y0136826D01*
X0238419Y0136705D01*
X0238703Y0136577D01*
X0238985Y0136442D01*
X0239263Y0136301D01*
X0239537Y0136152D01*
X0239808Y0135997D01*
X0240075Y0135836D01*
X0240338Y0135668D01*
X0240597Y0135493D01*
X0240851Y0135312D01*
X0241101Y0135126D01*
X0241346Y0134933D01*
X0241587Y0134734D01*
X0241822Y0134529D01*
X0242053Y0134319D01*
X0242278Y0134103D01*
X0242498Y0133881D01*
X0242712Y0133654D01*
X0242921Y0133423D01*
X0243124Y0133186D01*
X0243321Y0132944D01*
X0243513Y0132697D01*
X0243437Y0132641D01*
X0243247Y0132886D01*
X0243052Y0133126D01*
X0242850Y0133361D01*
X0242643Y0133591D01*
X0242430Y0133816D01*
X0242212Y0134036D01*
X0241988Y0134250D01*
X0241759Y0134459D01*
X0241526Y0134662D01*
X0241287Y0134860D01*
X0241044Y0135051D01*
X0240795Y0135237D01*
X0240543Y0135416D01*
X0240286Y0135589D01*
X0240025Y0135756D01*
X0239760Y0135917D01*
X0239491Y0136070D01*
X0239219Y0136218D01*
X0238943Y0136358D01*
X0238663Y0136492D01*
X0238381Y0136619D01*
X0238095Y0136739D01*
X0237807Y0136852D01*
X0237516Y0136958D01*
X0237222Y0137056D01*
X0236926Y0137148D01*
X0236628Y0137232D01*
X0236328Y0137309D01*
X0236026Y0137378D01*
X0235723Y0137441D01*
X0235418Y0137495D01*
X0235112Y0137543D01*
X0234804Y0137582D01*
X0234496Y0137614D01*
X0234188Y0137639D01*
X0233878Y0137656D01*
X0233569Y0137666D01*
X0233259Y0137668D01*
X0232949Y0137662D01*
X0232640Y0137649D01*
X0232331Y0137628D01*
X0232022Y0137600D01*
X0231715Y0137564D01*
X0231408Y0137521D01*
X0231102Y0137470D01*
X0230798Y0137412D01*
X0230495Y0137346D01*
X0230194Y0137273D01*
X0229895Y0137193D01*
X0229598Y0137105D01*
X0229303Y0137010D01*
X0229011Y0136908D01*
X0228721Y0136799D01*
X0228434Y0136682D01*
X0228150Y0136559D01*
X0227869Y0136429D01*
X0227591Y0136292D01*
X0227317Y0136148D01*
X0227046Y0135998D01*
X0226779Y0135841D01*
X0226516Y0135677D01*
X0226257Y0135507D01*
X0226002Y0135331D01*
X0225751Y0135149D01*
X0225506Y0134960D01*
X0225264Y0134766D01*
X0225028Y0134566D01*
X0224797Y0134360D01*
X0224570Y0134148D01*
X0224349Y0133931D01*
X0224134Y0133709D01*
X0223923Y0133482D01*
X0223719Y0133249D01*
X0223520Y0133011D01*
X0223327Y0132769D01*
X0223140Y0132522D01*
X0222959Y0132271D01*
X0222785Y0132015D01*
X0222616Y0131755D01*
X0222454Y0131491D01*
X0222299Y0131223D01*
X0222150Y0130951D01*
X0222008Y0130676D01*
X0221872Y0130397D01*
X0221744Y0130116D01*
X0221622Y0129831D01*
X0221508Y0129543D01*
X0221400Y0129252D01*
X0221300Y0128959D01*
X0221206Y0128664D01*
X0221120Y0128366D01*
X0221042Y0128067D01*
X0220971Y0127765D01*
X0220907Y0127462D01*
X0220850Y0127158D01*
X0220801Y0126852D01*
X0220760Y0126545D01*
X0220726Y0126237D01*
X0220699Y0125928D01*
X0220680Y0125619D01*
X0220669Y0125310D01*
X0220665Y0125000D01*
X0220669Y0124690D01*
X0220680Y0124381D01*
X0220699Y0124072D01*
X0220726Y0123763D01*
X0220760Y0123455D01*
X0220801Y0123148D01*
X0220850Y0122842D01*
X0220907Y0122538D01*
X0220971Y0122235D01*
X0221042Y0121933D01*
X0221120Y0121634D01*
X0221206Y0121336D01*
X0221300Y0121041D01*
X0221400Y0120748D01*
X0221508Y0120457D01*
X0221622Y0120169D01*
X0221744Y0119884D01*
X0221872Y0119603D01*
X0222008Y0119324D01*
X0222150Y0119049D01*
X0222299Y0118777D01*
X0222454Y0118509D01*
X0222616Y0118245D01*
X0222785Y0117985D01*
X0222959Y0117729D01*
X0223140Y0117478D01*
X0223327Y0117231D01*
X0223520Y0116989D01*
X0223719Y0116751D01*
X0223923Y0116518D01*
X0224134Y0116291D01*
X0224349Y0116069D01*
X0224570Y0115852D01*
X0224797Y0115640D01*
X0225028Y0115434D01*
X0225264Y0115234D01*
X0225506Y0115040D01*
X0225751Y0114851D01*
X0226002Y0114669D01*
X0226257Y0114493D01*
X0226516Y0114323D01*
X0226779Y0114159D01*
X0227046Y0114002D01*
X0227317Y0113852D01*
X0227591Y0113708D01*
X0227869Y0113571D01*
X0228150Y0113441D01*
X0228434Y0113318D01*
X0228721Y0113201D01*
X0229011Y0113092D01*
X0229303Y0112990D01*
X0229598Y0112895D01*
X0229895Y0112807D01*
X0230194Y0112727D01*
X0230495Y0112654D01*
X0230798Y0112588D01*
X0231102Y0112530D01*
X0231408Y0112479D01*
X0231715Y0112436D01*
X0232022Y0112400D01*
X0232331Y0112372D01*
X0232640Y0112351D01*
X0232949Y0112338D01*
X0233259Y0112332D01*
X0233569Y0112334D01*
X0233878Y0112344D01*
X0234188Y0112361D01*
X0234496Y0112386D01*
X0234804Y0112418D01*
X0235112Y0112457D01*
X0235418Y0112505D01*
X0235723Y0112559D01*
X0236026Y0112622D01*
X0236328Y0112691D01*
X0236628Y0112768D01*
X0236926Y0112852D01*
X0237222Y0112944D01*
X0237516Y0113042D01*
X0237807Y0113148D01*
X0238095Y0113261D01*
X0238381Y0113381D01*
X0238663Y0113508D01*
X0238943Y0113642D01*
X0239219Y0113782D01*
X0239491Y0113930D01*
X0239760Y0114083D01*
X0240025Y0114244D01*
X0240286Y0114411D01*
X0240543Y0114584D01*
X0240795Y0114763D01*
X0241044Y0114949D01*
X0241287Y0115140D01*
X0241526Y0115338D01*
X0241759Y0115541D01*
X0241988Y0115750D01*
X0242212Y0115964D01*
X0242430Y0116184D01*
X0242643Y0116409D01*
X0242850Y0116639D01*
X0243052Y0116874D01*
X0243247Y0117114D01*
X0243437Y0117359D01*
X0243362Y0117416D01*
X0243174Y0117173D01*
X0242979Y0116934D01*
X0242779Y0116701D01*
X0242574Y0116473D01*
X0242362Y0116249D01*
X0242146Y0116031D01*
X0241924Y0115818D01*
X0241697Y0115611D01*
X0241465Y0115409D01*
X0241228Y0115213D01*
X0240986Y0115023D01*
X0240740Y0114839D01*
X0240489Y0114661D01*
X0240234Y0114489D01*
X0239975Y0114324D01*
X0239712Y0114164D01*
X0239445Y0114012D01*
X0239175Y0113865D01*
X0238901Y0113726D01*
X0238624Y0113593D01*
X0238343Y0113467D01*
X0238060Y0113348D01*
X0237773Y0113236D01*
X0237484Y0113131D01*
X0237193Y0113033D01*
X0236899Y0112942D01*
X0236603Y0112859D01*
X0236306Y0112782D01*
X0236006Y0112713D01*
X0235705Y0112652D01*
X0235402Y0112597D01*
X0235098Y0112551D01*
X0234793Y0112511D01*
X0234488Y0112479D01*
X0234181Y0112455D01*
X0233874Y0112438D01*
X0233567Y0112428D01*
X0233259Y0112426D01*
X0232952Y0112432D01*
X0232645Y0112445D01*
X0232338Y0112465D01*
X0232032Y0112494D01*
X0231726Y0112529D01*
X0231422Y0112572D01*
X0231119Y0112623D01*
X0230817Y0112680D01*
X0230516Y0112746D01*
X0230217Y0112818D01*
X0229921Y0112898D01*
X0229626Y0112985D01*
X0229333Y0113079D01*
X0229043Y0113181D01*
X0228755Y0113289D01*
X0228470Y0113404D01*
X0228188Y0113527D01*
X0227909Y0113656D01*
X0227633Y0113792D01*
X0227361Y0113935D01*
X0227092Y0114084D01*
X0226827Y0114240D01*
X0226566Y0114402D01*
X0226309Y0114571D01*
X0226056Y0114746D01*
X0225808Y0114927D01*
X0225564Y0115114D01*
X0225324Y0115307D01*
X0225090Y0115505D01*
X0224860Y0115710D01*
X0224635Y0115920D01*
X0224416Y0116135D01*
X0224202Y0116356D01*
X0223993Y0116581D01*
X0223790Y0116812D01*
X0223593Y0117048D01*
X0223401Y0117289D01*
X0223216Y0117534D01*
X0223036Y0117783D01*
X0222863Y0118037D01*
X0222696Y0118295D01*
X0222535Y0118557D01*
X0222381Y0118823D01*
X0222233Y0119093D01*
X0222092Y0119366D01*
X0221957Y0119643D01*
X0221830Y0119922D01*
X0221709Y0120205D01*
X0221595Y0120491D01*
X0221489Y0120779D01*
X0221389Y0121070D01*
X0221296Y0121363D01*
X0221211Y0121659D01*
X0221133Y0121956D01*
X0221062Y0122255D01*
X0220999Y0122556D01*
X0220943Y0122858D01*
X0220894Y0123162D01*
X0220853Y0123467D01*
X0220819Y0123772D01*
X0220793Y0124078D01*
X0220774Y0124385D01*
X0220763Y0124693D01*
X0220759Y0125000D01*
X0220763Y0125307D01*
X0220774Y0125615D01*
X0220793Y0125922D01*
X0220819Y0126228D01*
X0220853Y0126533D01*
X0220894Y0126838D01*
X0220943Y0127142D01*
X0220999Y0127444D01*
X0221062Y0127745D01*
X0221133Y0128044D01*
X0221211Y0128341D01*
X0221296Y0128637D01*
X0221389Y0128930D01*
X0221489Y0129221D01*
X0221595Y0129509D01*
X0221709Y0129795D01*
X0221830Y0130078D01*
X0221957Y0130357D01*
X0222092Y0130634D01*
X0222233Y0130907D01*
X0222381Y0131177D01*
X0222535Y0131443D01*
X0222696Y0131705D01*
X0222863Y0131963D01*
X0223036Y0132217D01*
X0223216Y0132466D01*
X0223401Y0132711D01*
X0223593Y0132952D01*
X0223790Y0133188D01*
X0223993Y0133419D01*
X0224202Y0133644D01*
X0224416Y0133865D01*
X0224635Y0134080D01*
X0224860Y0134290D01*
X0225090Y0134495D01*
X0225324Y0134693D01*
X0225564Y0134886D01*
X0225808Y0135073D01*
X0226056Y0135254D01*
X0226309Y0135429D01*
X0226566Y0135598D01*
X0226827Y0135760D01*
X0227092Y0135916D01*
X0227361Y0136065D01*
X0227633Y0136208D01*
X0227909Y0136344D01*
X0228188Y0136473D01*
X0228470Y0136596D01*
X0228755Y0136711D01*
X0229043Y0136819D01*
X0229333Y0136921D01*
X0229626Y0137015D01*
X0229921Y0137102D01*
X0230217Y0137182D01*
X0230516Y0137254D01*
X0230817Y0137320D01*
X0231119Y0137377D01*
X0231422Y0137428D01*
X0231726Y0137471D01*
X0232032Y0137506D01*
X0232338Y0137535D01*
X0232645Y0137555D01*
X0232952Y0137568D01*
X0233259Y0137574D01*
X0233567Y0137572D01*
X0233874Y0137562D01*
X0234181Y0137545D01*
X0234488Y0137521D01*
X0234793Y0137489D01*
X0235098Y0137449D01*
X0235402Y0137403D01*
X0235705Y0137348D01*
X0236006Y0137287D01*
X0236306Y0137218D01*
X0236603Y0137141D01*
X0236899Y0137058D01*
X0237193Y0136967D01*
X0237484Y0136869D01*
X0237773Y0136764D01*
X0238060Y0136652D01*
X0238343Y0136533D01*
X0238624Y0136407D01*
X0238901Y0136274D01*
X0239175Y0136135D01*
X0239445Y0135988D01*
X0239712Y0135836D01*
X0239975Y0135676D01*
X0240234Y0135511D01*
X0240489Y0135339D01*
X0240740Y0135161D01*
X0240986Y0134977D01*
X0241228Y0134787D01*
X0241465Y0134591D01*
X0241697Y0134389D01*
X0241924Y0134182D01*
X0242146Y0133969D01*
X0242362Y0133751D01*
X0242574Y0133527D01*
X0242779Y0133299D01*
X0242979Y0133066D01*
X0243174Y0132827D01*
X0243362Y0132584D01*
X0243287Y0132528D01*
X0243100Y0132769D01*
X0242907Y0133006D01*
X0242708Y0133237D01*
X0242504Y0133464D01*
X0242295Y0133686D01*
X0242080Y0133902D01*
X0241859Y0134113D01*
X0241634Y0134319D01*
X0241404Y0134519D01*
X0241168Y0134714D01*
X0240929Y0134902D01*
X0240684Y0135085D01*
X0240435Y0135262D01*
X0240182Y0135432D01*
X0239925Y0135597D01*
X0239664Y0135755D01*
X0239399Y0135906D01*
X0239131Y0136051D01*
X0238859Y0136190D01*
X0238584Y0136322D01*
X0238305Y0136447D01*
X0238024Y0136565D01*
X0237740Y0136676D01*
X0237453Y0136780D01*
X0237164Y0136878D01*
X0236872Y0136968D01*
X0236579Y0137051D01*
X0236283Y0137126D01*
X0235986Y0137195D01*
X0235687Y0137256D01*
X0235386Y0137310D01*
X0235085Y0137356D01*
X0234782Y0137396D01*
X0234479Y0137427D01*
X0234174Y0137452D01*
X0233870Y0137468D01*
X0233565Y0137478D01*
X0233260Y0137480D01*
X0232955Y0137474D01*
X0232650Y0137461D01*
X0232345Y0137441D01*
X0232041Y0137413D01*
X0231738Y0137378D01*
X0231436Y0137335D01*
X0231135Y0137285D01*
X0230835Y0137228D01*
X0230537Y0137163D01*
X0230241Y0137091D01*
X0229946Y0137012D01*
X0229653Y0136925D01*
X0229363Y0136832D01*
X0229075Y0136731D01*
X0228789Y0136623D01*
X0228506Y0136509D01*
X0228226Y0136387D01*
X0227949Y0136259D01*
X0227676Y0136124D01*
X0227406Y0135983D01*
X0227139Y0135834D01*
X0226876Y0135680D01*
X0226617Y0135519D01*
X0226361Y0135351D01*
X0226110Y0135178D01*
X0225864Y0134998D01*
X0225622Y0134812D01*
X0225384Y0134621D01*
X0225151Y0134424D01*
X0224923Y0134221D01*
X0224700Y0134012D01*
X0224482Y0133799D01*
X0224270Y0133580D01*
X0224063Y0133356D01*
X0223861Y0133126D01*
X0223665Y0132892D01*
X0223475Y0132654D01*
X0223291Y0132410D01*
X0223113Y0132163D01*
X0222941Y0131911D01*
X0222775Y0131654D01*
X0222616Y0131394D01*
X0222462Y0131130D01*
X0222316Y0130863D01*
X0222176Y0130592D01*
X0222042Y0130317D01*
X0221916Y0130040D01*
X0221796Y0129759D01*
X0221683Y0129475D01*
X0221577Y0129189D01*
X0221478Y0128901D01*
X0221386Y0128610D01*
X0221302Y0128316D01*
X0221224Y0128021D01*
X0221154Y0127724D01*
X0221091Y0127426D01*
X0221035Y0127126D01*
X0220987Y0126824D01*
X0220946Y0126522D01*
X0220913Y0126219D01*
X0220887Y0125915D01*
X0220868Y0125610D01*
X0220857Y0125305D01*
X0220853Y0125000D01*
X0220857Y0124695D01*
X0220868Y0124390D01*
X0220887Y0124085D01*
X0220913Y0123781D01*
X0220946Y0123478D01*
X0220987Y0123176D01*
X0221035Y0122874D01*
X0221091Y0122574D01*
X0221154Y0122276D01*
X0221224Y0121979D01*
X0221302Y0121684D01*
X0221386Y0121390D01*
X0221478Y0121099D01*
X0221577Y0120811D01*
X0221683Y0120525D01*
X0221796Y0120241D01*
X0221916Y0119960D01*
X0222042Y0119683D01*
X0222176Y0119408D01*
X0222316Y0119137D01*
X0222462Y0118870D01*
X0222616Y0118606D01*
X0222775Y0118346D01*
X0222941Y0118089D01*
X0223113Y0117837D01*
X0223291Y0117590D01*
X0223475Y0117346D01*
X0223665Y0117108D01*
X0223861Y0116874D01*
X0224063Y0116644D01*
X0224270Y0116420D01*
X0224482Y0116201D01*
X0224700Y0115988D01*
X0224923Y0115779D01*
X0225151Y0115576D01*
X0225384Y0115379D01*
X0225622Y0115188D01*
X0225864Y0115002D01*
X0226110Y0114822D01*
X0226361Y0114649D01*
X0226617Y0114481D01*
X0226876Y0114320D01*
X0227139Y0114166D01*
X0227406Y0114017D01*
X0227676Y0113876D01*
X0227949Y0113741D01*
X0228226Y0113613D01*
X0228506Y0113491D01*
X0228789Y0113377D01*
X0229075Y0113269D01*
X0229363Y0113168D01*
X0229653Y0113075D01*
X0229946Y0112988D01*
X0230241Y0112909D01*
X0230537Y0112837D01*
X0230835Y0112772D01*
X0231135Y0112715D01*
X0231436Y0112665D01*
X0231738Y0112622D01*
X0232041Y0112587D01*
X0232345Y0112559D01*
X0232650Y0112539D01*
X0232955Y0112526D01*
X0233260Y0112520D01*
X0233565Y0112522D01*
X0233870Y0112532D01*
X0234174Y0112548D01*
X0234479Y0112573D01*
X0234782Y0112604D01*
X0235085Y0112644D01*
X0235386Y0112690D01*
X0235687Y0112744D01*
X0235986Y0112805D01*
X0236283Y0112874D01*
X0236579Y0112949D01*
X0236872Y0113032D01*
X0237164Y0113122D01*
X0237453Y0113220D01*
X0237740Y0113324D01*
X0238024Y0113435D01*
X0238305Y0113553D01*
X0238584Y0113678D01*
X0238859Y0113810D01*
X0239131Y0113949D01*
X0239399Y0114094D01*
X0239664Y0114245D01*
X0239925Y0114403D01*
X0240182Y0114568D01*
X0240435Y0114738D01*
X0240684Y0114915D01*
X0240929Y0115098D01*
X0241168Y0115286D01*
X0241404Y0115481D01*
X0241634Y0115681D01*
X0241859Y0115887D01*
X0242080Y0116098D01*
X0242295Y0116314D01*
X0242504Y0116536D01*
X0242708Y0116763D01*
X0242907Y0116994D01*
X0243100Y0117231D01*
X0243287Y0117472D01*
X0243212Y0117528D01*
X0243026Y0117289D01*
X0242835Y0117054D01*
X0242638Y0116825D01*
X0242435Y0116600D01*
X0242227Y0116379D01*
X0242013Y0116165D01*
X0241795Y0115955D01*
X0241571Y0115751D01*
X0241343Y0115552D01*
X0241109Y0115359D01*
X0240871Y0115172D01*
X0240629Y0114991D01*
X0240382Y0114815D01*
X0240131Y0114646D01*
X0239875Y0114483D01*
X0239616Y0114326D01*
X0239353Y0114176D01*
X0239087Y0114032D01*
X0238817Y0113894D01*
X0238544Y0113763D01*
X0238268Y0113639D01*
X0237988Y0113522D01*
X0237706Y0113412D01*
X0237422Y0113308D01*
X0237135Y0113212D01*
X0236845Y0113122D01*
X0236554Y0113040D01*
X0236261Y0112965D01*
X0235965Y0112897D01*
X0235669Y0112836D01*
X0235371Y0112783D01*
X0235071Y0112737D01*
X0234771Y0112698D01*
X0234470Y0112666D01*
X0234168Y0112642D01*
X0233865Y0112625D01*
X0233563Y0112616D01*
X0233260Y0112614D01*
X0232957Y0112620D01*
X0232655Y0112633D01*
X0232352Y0112653D01*
X0232051Y0112681D01*
X0231750Y0112716D01*
X0231450Y0112758D01*
X0231151Y0112808D01*
X0230854Y0112865D01*
X0230558Y0112929D01*
X0230264Y0113000D01*
X0229971Y0113079D01*
X0229681Y0113165D01*
X0229392Y0113258D01*
X0229107Y0113357D01*
X0228823Y0113464D01*
X0228543Y0113578D01*
X0228265Y0113698D01*
X0227990Y0113826D01*
X0227718Y0113960D01*
X0227450Y0114100D01*
X0227185Y0114247D01*
X0226924Y0114401D01*
X0226667Y0114561D01*
X0226414Y0114727D01*
X0226165Y0114899D01*
X0225920Y0115077D01*
X0225679Y0115262D01*
X0225444Y0115452D01*
X0225213Y0115647D01*
X0224986Y0115849D01*
X0224765Y0116055D01*
X0224549Y0116268D01*
X0224338Y0116485D01*
X0224133Y0116707D01*
X0223933Y0116935D01*
X0223738Y0117167D01*
X0223550Y0117404D01*
X0223367Y0117646D01*
X0223190Y0117891D01*
X0223019Y0118142D01*
X0222855Y0118396D01*
X0222696Y0118654D01*
X0222544Y0118916D01*
X0222399Y0119181D01*
X0222260Y0119450D01*
X0222127Y0119723D01*
X0222002Y0119998D01*
X0221883Y0120277D01*
X0221771Y0120558D01*
X0221666Y0120842D01*
X0221567Y0121129D01*
X0221476Y0121418D01*
X0221392Y0121709D01*
X0221315Y0122002D01*
X0221246Y0122296D01*
X0221183Y0122593D01*
X0221128Y0122890D01*
X0221080Y0123189D01*
X0221039Y0123489D01*
X0221006Y0123791D01*
X0220980Y0124092D01*
X0220962Y0124395D01*
X0220951Y0124697D01*
X0220947Y0125000D01*
X0220951Y0125303D01*
X0220962Y0125605D01*
X0220980Y0125908D01*
X0221006Y0126209D01*
X0221039Y0126511D01*
X0221080Y0126811D01*
X0221128Y0127110D01*
X0221183Y0127407D01*
X0221246Y0127704D01*
X0221315Y0127998D01*
X0221392Y0128291D01*
X0221476Y0128582D01*
X0221567Y0128871D01*
X0221666Y0129158D01*
X0221771Y0129442D01*
X0221883Y0129723D01*
X0222002Y0130002D01*
X0222127Y0130277D01*
X0222260Y0130550D01*
X0222399Y0130819D01*
X0222544Y0131084D01*
X0222696Y0131346D01*
X0222855Y0131604D01*
X0223019Y0131858D01*
X0223190Y0132109D01*
X0223367Y0132354D01*
X0223550Y0132596D01*
X0223738Y0132833D01*
X0223933Y0133065D01*
X0224133Y0133293D01*
X0224338Y0133515D01*
X0224549Y0133732D01*
X0224765Y0133945D01*
X0224986Y0134151D01*
X0225213Y0134353D01*
X0225444Y0134548D01*
X0225679Y0134738D01*
X0225920Y0134923D01*
X0226165Y0135101D01*
X0226414Y0135273D01*
X0226667Y0135439D01*
X0226924Y0135599D01*
X0227185Y0135753D01*
X0227450Y0135900D01*
X0227718Y0136040D01*
X0227990Y0136174D01*
X0228265Y0136302D01*
X0228543Y0136422D01*
X0228823Y0136536D01*
X0229107Y0136643D01*
X0229392Y0136742D01*
X0229681Y0136835D01*
X0229971Y0136921D01*
X0230264Y0137000D01*
X0230558Y0137071D01*
X0230854Y0137135D01*
X0231151Y0137192D01*
X0231450Y0137242D01*
X0231750Y0137284D01*
X0232051Y0137319D01*
X0232352Y0137347D01*
X0232655Y0137367D01*
X0232957Y0137380D01*
X0233260Y0137386D01*
X0233563Y0137384D01*
X0233865Y0137375D01*
X0234168Y0137358D01*
X0234470Y0137334D01*
X0234771Y0137302D01*
X0235071Y0137263D01*
X0235371Y0137217D01*
X0235669Y0137164D01*
X0235965Y0137103D01*
X0236261Y0137035D01*
X0236554Y0136960D01*
X0236845Y0136878D01*
X0237135Y0136788D01*
X0237422Y0136692D01*
X0237706Y0136588D01*
X0237988Y0136478D01*
X0238268Y0136361D01*
X0238544Y0136237D01*
X0238817Y0136106D01*
X0239087Y0135968D01*
X0239353Y0135824D01*
X0239616Y0135674D01*
X0239875Y0135517D01*
X0240131Y0135354D01*
X0240382Y0135185D01*
X0240629Y0135009D01*
X0240871Y0134828D01*
X0241109Y0134641D01*
X0241343Y0134448D01*
X0241571Y0134249D01*
X0241795Y0134045D01*
X0242013Y0133835D01*
X0242227Y0133621D01*
X0242435Y0133400D01*
X0242638Y0133175D01*
X0242835Y0132946D01*
X0243026Y0132711D01*
X0243212Y0132472D01*
X0243137Y0132415D01*
X0242952Y0132653D01*
X0242762Y0132885D01*
X0242567Y0133114D01*
X0242366Y0133337D01*
X0242159Y0133555D01*
X0241947Y0133769D01*
X0241730Y0133977D01*
X0241508Y0134179D01*
X0241281Y0134376D01*
X0241050Y0134568D01*
X0240814Y0134754D01*
X0240573Y0134934D01*
X0240328Y0135108D01*
X0240079Y0135276D01*
X0239825Y0135438D01*
X0239568Y0135593D01*
X0239307Y0135742D01*
X0239043Y0135885D01*
X0238775Y0136022D01*
X0238504Y0136151D01*
X0238230Y0136274D01*
X0237953Y0136391D01*
X0237673Y0136500D01*
X0237390Y0136603D01*
X0237106Y0136699D01*
X0236818Y0136787D01*
X0236529Y0136869D01*
X0236238Y0136944D01*
X0235945Y0137011D01*
X0235651Y0137072D01*
X0235355Y0137125D01*
X0235058Y0137170D01*
X0234760Y0137209D01*
X0234461Y0137240D01*
X0234161Y0137264D01*
X0233861Y0137281D01*
X0233561Y0137290D01*
X0233260Y0137292D01*
X0232960Y0137286D01*
X0232659Y0137274D01*
X0232360Y0137253D01*
X0232060Y0137226D01*
X0231762Y0137191D01*
X0231464Y0137149D01*
X0231168Y0137100D01*
X0230873Y0137043D01*
X0230579Y0136979D01*
X0230287Y0136909D01*
X0229997Y0136831D01*
X0229708Y0136745D01*
X0229422Y0136653D01*
X0229138Y0136554D01*
X0228857Y0136448D01*
X0228579Y0136335D01*
X0228303Y0136216D01*
X0228030Y0136089D01*
X0227761Y0135956D01*
X0227495Y0135817D01*
X0227232Y0135671D01*
X0226973Y0135519D01*
X0226717Y0135360D01*
X0226466Y0135195D01*
X0226219Y0135024D01*
X0225976Y0134847D01*
X0225737Y0134664D01*
X0225503Y0134476D01*
X0225274Y0134282D01*
X0225050Y0134082D01*
X0224830Y0133877D01*
X0224616Y0133666D01*
X0224406Y0133450D01*
X0224202Y0133230D01*
X0224004Y0133004D01*
X0223811Y0132773D01*
X0223624Y0132538D01*
X0223442Y0132299D01*
X0223267Y0132055D01*
X0223097Y0131806D01*
X0222934Y0131554D01*
X0222777Y0131298D01*
X0222626Y0131038D01*
X0222482Y0130774D01*
X0222344Y0130507D01*
X0222212Y0130237D01*
X0222088Y0129964D01*
X0221970Y0129687D01*
X0221859Y0129408D01*
X0221754Y0129126D01*
X0221657Y0128842D01*
X0221566Y0128555D01*
X0221483Y0128266D01*
X0221407Y0127976D01*
X0221337Y0127683D01*
X0221275Y0127389D01*
X0221221Y0127094D01*
X0221173Y0126797D01*
X0221133Y0126499D01*
X0221100Y0126200D01*
X0221074Y0125901D01*
X0221056Y0125601D01*
X0221045Y0125301D01*
X0221041Y0125000D01*
X0221045Y0124699D01*
X0221056Y0124399D01*
X0221074Y0124099D01*
X0221100Y0123800D01*
X0221133Y0123501D01*
X0221173Y0123203D01*
X0221221Y0122906D01*
X0221275Y0122611D01*
X0221337Y0122317D01*
X0221407Y0122024D01*
X0221483Y0121734D01*
X0221566Y0121445D01*
X0221657Y0121158D01*
X0221754Y0120874D01*
X0221859Y0120592D01*
X0221970Y0120313D01*
X0222088Y0120036D01*
X0222212Y0119763D01*
X0222344Y0119493D01*
X0222482Y0119226D01*
X0222626Y0118962D01*
X0222777Y0118702D01*
X0222934Y0118446D01*
X0223097Y0118194D01*
X0223267Y0117945D01*
X0223442Y0117701D01*
X0223624Y0117462D01*
X0223811Y0117227D01*
X0224004Y0116996D01*
X0224202Y0116770D01*
X0224406Y0116550D01*
X0224616Y0116334D01*
X0224830Y0116123D01*
X0225050Y0115918D01*
X0225274Y0115718D01*
X0225503Y0115524D01*
X0225737Y0115336D01*
X0225976Y0115153D01*
X0226219Y0114976D01*
X0226466Y0114805D01*
X0226717Y0114640D01*
X0226973Y0114481D01*
X0227232Y0114329D01*
X0227495Y0114183D01*
X0227761Y0114044D01*
X0228030Y0113911D01*
X0228303Y0113784D01*
X0228579Y0113665D01*
X0228857Y0113552D01*
X0229138Y0113446D01*
X0229422Y0113347D01*
X0229708Y0113255D01*
X0229997Y0113169D01*
X0230287Y0113091D01*
X0230579Y0113021D01*
X0230873Y0112957D01*
X0231168Y0112900D01*
X0231464Y0112851D01*
X0231762Y0112809D01*
X0232060Y0112774D01*
X0232360Y0112747D01*
X0232659Y0112726D01*
X0232960Y0112714D01*
X0233260Y0112708D01*
X0233561Y0112710D01*
X0233861Y0112719D01*
X0234161Y0112736D01*
X0234461Y0112760D01*
X0234760Y0112791D01*
X0235058Y0112830D01*
X0235355Y0112875D01*
X0235651Y0112928D01*
X0235945Y0112989D01*
X0236238Y0113056D01*
X0236529Y0113131D01*
X0236818Y0113213D01*
X0237106Y0113301D01*
X0237390Y0113397D01*
X0237673Y0113500D01*
X0237953Y0113609D01*
X0238230Y0113726D01*
X0238504Y0113849D01*
X0238775Y0113978D01*
X0239043Y0114115D01*
X0239307Y0114258D01*
X0239568Y0114407D01*
X0239825Y0114562D01*
X0240079Y0114724D01*
X0240328Y0114892D01*
X0240573Y0115066D01*
X0240814Y0115246D01*
X0241050Y0115432D01*
X0241281Y0115624D01*
X0241508Y0115821D01*
X0241730Y0116023D01*
X0241947Y0116231D01*
X0242159Y0116445D01*
X0242366Y0116663D01*
X0242567Y0116886D01*
X0242762Y0117115D01*
X0242952Y0117347D01*
X0243137Y0117585D01*
X0243061Y0117641D01*
X0242879Y0117406D01*
X0242690Y0117175D01*
X0242496Y0116948D01*
X0242296Y0116726D01*
X0242091Y0116510D01*
X0241881Y0116298D01*
X0241666Y0116092D01*
X0241446Y0115891D01*
X0241220Y0115695D01*
X0240991Y0115505D01*
X0240756Y0115321D01*
X0240517Y0115142D01*
X0240274Y0114969D01*
X0240027Y0114803D01*
X0239775Y0114642D01*
X0239520Y0114488D01*
X0239261Y0114340D01*
X0238999Y0114198D01*
X0238733Y0114063D01*
X0238464Y0113934D01*
X0238192Y0113812D01*
X0237917Y0113696D01*
X0237639Y0113587D01*
X0237359Y0113486D01*
X0237076Y0113391D01*
X0236791Y0113303D01*
X0236504Y0113222D01*
X0236216Y0113147D01*
X0235925Y0113081D01*
X0235633Y0113021D01*
X0235339Y0112968D01*
X0235044Y0112923D01*
X0234749Y0112884D01*
X0234452Y0112853D01*
X0234155Y0112830D01*
X0233857Y0112813D01*
X0233559Y0112804D01*
X0233261Y0112802D01*
X0232962Y0112808D01*
X0232664Y0112820D01*
X0232367Y0112840D01*
X0232070Y0112868D01*
X0231774Y0112902D01*
X0231478Y0112944D01*
X0231184Y0112993D01*
X0230891Y0113049D01*
X0230600Y0113112D01*
X0230310Y0113183D01*
X0230022Y0113260D01*
X0229736Y0113344D01*
X0229452Y0113436D01*
X0229170Y0113534D01*
X0228891Y0113639D01*
X0228615Y0113751D01*
X0228341Y0113870D01*
X0228071Y0113995D01*
X0227803Y0114127D01*
X0227539Y0114266D01*
X0227278Y0114411D01*
X0227021Y0114562D01*
X0226768Y0114719D01*
X0226519Y0114883D01*
X0226273Y0115053D01*
X0226032Y0115228D01*
X0225795Y0115410D01*
X0225563Y0115597D01*
X0225336Y0115789D01*
X0225113Y0115988D01*
X0224895Y0116191D01*
X0224682Y0116400D01*
X0224474Y0116614D01*
X0224272Y0116834D01*
X0224075Y0117057D01*
X0223884Y0117286D01*
X0223698Y0117520D01*
X0223518Y0117757D01*
X0223344Y0117999D01*
X0223176Y0118246D01*
X0223014Y0118496D01*
X0222858Y0118750D01*
X0222708Y0119008D01*
X0222565Y0119270D01*
X0222428Y0119535D01*
X0222297Y0119803D01*
X0222174Y0120074D01*
X0222057Y0120349D01*
X0221946Y0120626D01*
X0221843Y0120906D01*
X0221746Y0121188D01*
X0221656Y0121472D01*
X0221574Y0121759D01*
X0221498Y0122047D01*
X0221429Y0122337D01*
X0221368Y0122629D01*
X0221313Y0122922D01*
X0221266Y0123217D01*
X0221226Y0123512D01*
X0221193Y0123809D01*
X0221168Y0124106D01*
X0221150Y0124404D01*
X0221139Y0124702D01*
X0221135Y0125000D01*
X0221139Y0125298D01*
X0221150Y0125596D01*
X0221168Y0125894D01*
X0221193Y0126191D01*
X0221226Y0126488D01*
X0221266Y0126783D01*
X0221313Y0127078D01*
X0221368Y0127371D01*
X0221429Y0127663D01*
X0221498Y0127953D01*
X0221574Y0128241D01*
X0221656Y0128528D01*
X0221746Y0128812D01*
X0221843Y0129094D01*
X0221946Y0129374D01*
X0222057Y0129651D01*
X0222174Y0129926D01*
X0222297Y0130197D01*
X0222428Y0130465D01*
X0222565Y0130730D01*
X0222708Y0130992D01*
X0222858Y0131250D01*
X0223014Y0131504D01*
X0223176Y0131754D01*
X0223344Y0132001D01*
X0223518Y0132243D01*
X0223698Y0132480D01*
X0223884Y0132714D01*
X0224075Y0132943D01*
X0224272Y0133166D01*
X0224474Y0133386D01*
X0224682Y0133600D01*
X0224895Y0133809D01*
X0225113Y0134012D01*
X0225336Y0134211D01*
X0225563Y0134403D01*
X0225795Y0134590D01*
X0226032Y0134772D01*
X0226273Y0134947D01*
X0226519Y0135117D01*
X0226768Y0135281D01*
X0227021Y0135438D01*
X0227278Y0135589D01*
X0227539Y0135734D01*
X0227803Y0135873D01*
X0228071Y0136005D01*
X0228341Y0136130D01*
X0228615Y0136249D01*
X0228891Y0136361D01*
X0229170Y0136466D01*
X0229452Y0136564D01*
X0229736Y0136656D01*
X0230022Y0136740D01*
X0230310Y0136817D01*
X0230600Y0136888D01*
X0230891Y0136951D01*
X0231184Y0137007D01*
X0231478Y0137056D01*
X0231774Y0137098D01*
X0232070Y0137132D01*
X0232367Y0137160D01*
X0232664Y0137180D01*
X0232962Y0137192D01*
X0233261Y0137198D01*
X0233559Y0137196D01*
X0233857Y0137187D01*
X0234155Y0137170D01*
X0234452Y0137147D01*
X0234749Y0137116D01*
X0235044Y0137077D01*
X0235339Y0137032D01*
X0235633Y0136979D01*
X0235925Y0136919D01*
X0236216Y0136853D01*
X0236504Y0136778D01*
X0236791Y0136697D01*
X0237076Y0136609D01*
X0237359Y0136514D01*
X0237639Y0136413D01*
X0237917Y0136304D01*
X0238192Y0136188D01*
X0238464Y0136066D01*
X0238733Y0135937D01*
X0238999Y0135802D01*
X0239261Y0135660D01*
X0239520Y0135512D01*
X0239775Y0135358D01*
X0240027Y0135197D01*
X0240274Y0135031D01*
X0240517Y0134858D01*
X0240756Y0134679D01*
X0240991Y0134495D01*
X0241220Y0134305D01*
X0241446Y0134109D01*
X0241666Y0133908D01*
X0241881Y0133702D01*
X0242091Y0133490D01*
X0242296Y0133274D01*
X0242496Y0133052D01*
X0242690Y0132825D01*
X0242879Y0132594D01*
X0243061Y0132359D01*
X0242986Y0132302D01*
X0242805Y0132536D01*
X0242618Y0132765D01*
X0242425Y0132990D01*
X0242227Y0133210D01*
X0242024Y0133425D01*
X0241815Y0133635D01*
X0241601Y0133840D01*
X0241383Y0134039D01*
X0241159Y0134233D01*
X0240931Y0134422D01*
X0240699Y0134605D01*
X0240462Y0134782D01*
X0240220Y0134953D01*
X0239975Y0135119D01*
X0239726Y0135278D01*
X0239472Y0135431D01*
X0239216Y0135578D01*
X0238955Y0135719D01*
X0238691Y0135853D01*
X0238424Y0135981D01*
X0238154Y0136102D01*
X0237882Y0136217D01*
X0237606Y0136325D01*
X0237328Y0136426D01*
X0237047Y0136520D01*
X0236765Y0136607D01*
X0236480Y0136688D01*
X0236193Y0136761D01*
X0235905Y0136828D01*
X0235615Y0136887D01*
X0235323Y0136939D01*
X0235031Y0136984D01*
X0234737Y0137022D01*
X0234443Y0137053D01*
X0234148Y0137077D01*
X0233853Y0137093D01*
X0233557Y0137102D01*
X0233261Y0137104D01*
X0232965Y0137098D01*
X0232669Y0137086D01*
X0232374Y0137066D01*
X0232079Y0137039D01*
X0231785Y0137005D01*
X0231492Y0136963D01*
X0231200Y0136915D01*
X0230910Y0136859D01*
X0230621Y0136796D01*
X0230333Y0136726D01*
X0230047Y0136649D01*
X0229763Y0136566D01*
X0229482Y0136475D01*
X0229202Y0136377D01*
X0228925Y0136273D01*
X0228651Y0136162D01*
X0228380Y0136044D01*
X0228111Y0135920D01*
X0227846Y0135789D01*
X0227584Y0135651D01*
X0227325Y0135508D01*
X0227070Y0135358D01*
X0226818Y0135201D01*
X0226571Y0135039D01*
X0226328Y0134871D01*
X0226088Y0134696D01*
X0225853Y0134516D01*
X0225623Y0134331D01*
X0225397Y0134139D01*
X0225176Y0133943D01*
X0224960Y0133741D01*
X0224749Y0133533D01*
X0224543Y0133321D01*
X0224342Y0133103D01*
X0224146Y0132881D01*
X0223956Y0132654D01*
X0223772Y0132423D01*
X0223594Y0132187D01*
X0223421Y0131947D01*
X0223254Y0131702D01*
X0223093Y0131454D01*
X0222938Y0131201D01*
X0222790Y0130945D01*
X0222648Y0130686D01*
X0222512Y0130423D01*
X0222382Y0130157D01*
X0222260Y0129888D01*
X0222143Y0129615D01*
X0222034Y0129340D01*
X0221931Y0129063D01*
X0221835Y0128783D01*
X0221746Y0128501D01*
X0221664Y0128216D01*
X0221589Y0127930D01*
X0221521Y0127642D01*
X0221460Y0127353D01*
X0221406Y0127062D01*
X0221359Y0126769D01*
X0221319Y0126476D01*
X0221287Y0126182D01*
X0221262Y0125887D01*
X0221243Y0125592D01*
X0221233Y0125296D01*
X0221229Y0125000D01*
X0221233Y0124704D01*
X0221243Y0124408D01*
X0221262Y0124113D01*
X0221287Y0123818D01*
X0221319Y0123524D01*
X0221359Y0123231D01*
X0221406Y0122938D01*
X0221460Y0122647D01*
X0221521Y0122358D01*
X0221589Y0122070D01*
X0221664Y0121784D01*
X0221746Y0121499D01*
X0221835Y0121217D01*
X0221931Y0120937D01*
X0222034Y0120660D01*
X0222143Y0120385D01*
X0222260Y0120112D01*
X0222382Y0119843D01*
X0222512Y0119577D01*
X0222648Y0119314D01*
X0222790Y0119055D01*
X0222938Y0118799D01*
X0223093Y0118546D01*
X0223254Y0118298D01*
X0223421Y0118053D01*
X0223594Y0117813D01*
X0223772Y0117577D01*
X0223956Y0117346D01*
X0224146Y0117119D01*
X0224342Y0116897D01*
X0224543Y0116679D01*
X0224749Y0116467D01*
X0224960Y0116259D01*
X0225176Y0116057D01*
X0225397Y0115861D01*
X0225623Y0115669D01*
X0225853Y0115484D01*
X0226088Y0115304D01*
X0226328Y0115129D01*
X0226571Y0114961D01*
X0226818Y0114799D01*
X0227070Y0114642D01*
X0227325Y0114492D01*
X0227584Y0114349D01*
X0227846Y0114211D01*
X0228111Y0114080D01*
X0228380Y0113956D01*
X0228651Y0113838D01*
X0228925Y0113727D01*
X0229202Y0113623D01*
X0229482Y0113525D01*
X0229763Y0113434D01*
X0230047Y0113351D01*
X0230333Y0113274D01*
X0230621Y0113204D01*
X0230910Y0113141D01*
X0231200Y0113085D01*
X0231492Y0113037D01*
X0231785Y0112995D01*
X0232079Y0112961D01*
X0232374Y0112934D01*
X0232669Y0112914D01*
X0232965Y0112902D01*
X0233261Y0112896D01*
X0233557Y0112898D01*
X0233853Y0112907D01*
X0234148Y0112923D01*
X0234443Y0112947D01*
X0234737Y0112978D01*
X0235031Y0113016D01*
X0235323Y0113061D01*
X0235615Y0113113D01*
X0235905Y0113172D01*
X0236193Y0113239D01*
X0236480Y0113312D01*
X0236765Y0113393D01*
X0237047Y0113480D01*
X0237328Y0113574D01*
X0237606Y0113675D01*
X0237882Y0113783D01*
X0238154Y0113898D01*
X0238424Y0114019D01*
X0238691Y0114147D01*
X0238955Y0114281D01*
X0239216Y0114422D01*
X0239472Y0114569D01*
X0239726Y0114722D01*
X0239975Y0114881D01*
X0240220Y0115047D01*
X0240462Y0115218D01*
X0240699Y0115395D01*
X0240931Y0115578D01*
X0241159Y0115767D01*
X0241383Y0115961D01*
X0241601Y0116160D01*
X0241815Y0116365D01*
X0242024Y0116575D01*
X0242227Y0116790D01*
X0242425Y0117010D01*
X0242618Y0117235D01*
X0242805Y0117464D01*
X0242986Y0117698D01*
X0283662Y0132809D02*
X0282942Y0132269D01*
X0282943Y0132270D02*
X0282762Y0132503D01*
X0282576Y0132731D01*
X0282384Y0132955D01*
X0282187Y0133174D01*
X0281985Y0133388D01*
X0281777Y0133597D01*
X0281564Y0133800D01*
X0281347Y0133999D01*
X0281124Y0134192D01*
X0280897Y0134380D01*
X0280666Y0134562D01*
X0280430Y0134739D01*
X0280189Y0134909D01*
X0279945Y0135074D01*
X0279697Y0135232D01*
X0279445Y0135385D01*
X0279189Y0135531D01*
X0278930Y0135671D01*
X0278667Y0135805D01*
X0278402Y0135932D01*
X0278133Y0136053D01*
X0277861Y0136167D01*
X0277587Y0136274D01*
X0277310Y0136375D01*
X0277031Y0136469D01*
X0276749Y0136556D01*
X0276466Y0136636D01*
X0276180Y0136709D01*
X0275893Y0136775D01*
X0275604Y0136834D01*
X0275314Y0136886D01*
X0275023Y0136931D01*
X0274731Y0136969D01*
X0274438Y0136999D01*
X0274144Y0137023D01*
X0273850Y0137039D01*
X0273556Y0137048D01*
X0273261Y0137050D01*
X0272966Y0137044D01*
X0272672Y0137032D01*
X0272378Y0137012D01*
X0272085Y0136985D01*
X0271792Y0136951D01*
X0271500Y0136910D01*
X0271210Y0136861D01*
X0270920Y0136806D01*
X0270633Y0136744D01*
X0270346Y0136674D01*
X0270062Y0136597D01*
X0269779Y0136514D01*
X0269499Y0136424D01*
X0269221Y0136327D01*
X0268945Y0136223D01*
X0268672Y0136112D01*
X0268402Y0135995D01*
X0268134Y0135871D01*
X0267870Y0135741D01*
X0267609Y0135604D01*
X0267352Y0135461D01*
X0267098Y0135311D01*
X0266847Y0135156D01*
X0266601Y0134994D01*
X0266359Y0134827D01*
X0266121Y0134653D01*
X0265887Y0134474D01*
X0265657Y0134289D01*
X0265433Y0134099D01*
X0265212Y0133903D01*
X0264997Y0133702D01*
X0264787Y0133495D01*
X0264582Y0133284D01*
X0264382Y0133067D01*
X0264187Y0132846D01*
X0263998Y0132620D01*
X0263815Y0132390D01*
X0263637Y0132155D01*
X0263465Y0131915D01*
X0263299Y0131672D01*
X0263139Y0131425D01*
X0262985Y0131174D01*
X0262837Y0130919D01*
X0262695Y0130660D01*
X0262560Y0130399D01*
X0262431Y0130134D01*
X0262309Y0129866D01*
X0262193Y0129595D01*
X0262084Y0129321D01*
X0261982Y0129045D01*
X0261887Y0128766D01*
X0261798Y0128485D01*
X0261716Y0128202D01*
X0261641Y0127917D01*
X0261574Y0127630D01*
X0261513Y0127342D01*
X0261459Y0127052D01*
X0261412Y0126761D01*
X0261373Y0126469D01*
X0261341Y0126177D01*
X0261315Y0125883D01*
X0261297Y0125589D01*
X0261287Y0125295D01*
X0261283Y0125000D01*
X0261287Y0124705D01*
X0261297Y0124411D01*
X0261315Y0124117D01*
X0261341Y0123823D01*
X0261373Y0123531D01*
X0261412Y0123239D01*
X0261459Y0122948D01*
X0261513Y0122658D01*
X0261574Y0122370D01*
X0261641Y0122083D01*
X0261716Y0121798D01*
X0261798Y0121515D01*
X0261887Y0121234D01*
X0261982Y0120955D01*
X0262084Y0120679D01*
X0262193Y0120405D01*
X0262309Y0120134D01*
X0262431Y0119866D01*
X0262560Y0119601D01*
X0262695Y0119340D01*
X0262837Y0119081D01*
X0262985Y0118826D01*
X0263139Y0118575D01*
X0263299Y0118328D01*
X0263465Y0118085D01*
X0263637Y0117845D01*
X0263815Y0117610D01*
X0263998Y0117380D01*
X0264187Y0117154D01*
X0264382Y0116933D01*
X0264582Y0116716D01*
X0264787Y0116505D01*
X0264997Y0116298D01*
X0265212Y0116097D01*
X0265433Y0115901D01*
X0265657Y0115711D01*
X0265887Y0115526D01*
X0266121Y0115347D01*
X0266359Y0115173D01*
X0266601Y0115006D01*
X0266847Y0114844D01*
X0267098Y0114689D01*
X0267352Y0114539D01*
X0267609Y0114396D01*
X0267870Y0114259D01*
X0268134Y0114129D01*
X0268402Y0114005D01*
X0268672Y0113888D01*
X0268945Y0113777D01*
X0269221Y0113673D01*
X0269499Y0113576D01*
X0269779Y0113486D01*
X0270062Y0113403D01*
X0270346Y0113326D01*
X0270633Y0113256D01*
X0270920Y0113194D01*
X0271210Y0113139D01*
X0271500Y0113090D01*
X0271792Y0113049D01*
X0272085Y0113015D01*
X0272378Y0112988D01*
X0272672Y0112968D01*
X0272966Y0112956D01*
X0273261Y0112950D01*
X0273556Y0112952D01*
X0273850Y0112961D01*
X0274144Y0112977D01*
X0274438Y0113001D01*
X0274731Y0113031D01*
X0275023Y0113069D01*
X0275314Y0113114D01*
X0275604Y0113166D01*
X0275893Y0113225D01*
X0276180Y0113291D01*
X0276466Y0113364D01*
X0276749Y0113444D01*
X0277031Y0113531D01*
X0277310Y0113625D01*
X0277587Y0113726D01*
X0277861Y0113833D01*
X0278133Y0113947D01*
X0278402Y0114068D01*
X0278667Y0114195D01*
X0278930Y0114329D01*
X0279189Y0114469D01*
X0279445Y0114615D01*
X0279697Y0114768D01*
X0279945Y0114926D01*
X0280189Y0115091D01*
X0280430Y0115261D01*
X0280666Y0115438D01*
X0280897Y0115620D01*
X0281124Y0115808D01*
X0281347Y0116001D01*
X0281564Y0116200D01*
X0281777Y0116403D01*
X0281985Y0116612D01*
X0282187Y0116826D01*
X0282384Y0117045D01*
X0282576Y0117269D01*
X0282762Y0117497D01*
X0282943Y0117730D01*
X0283662Y0117191D01*
X0283663Y0117190D01*
X0283469Y0116940D01*
X0283269Y0116694D01*
X0283063Y0116454D01*
X0282851Y0116219D01*
X0282633Y0115989D01*
X0282410Y0115764D01*
X0282182Y0115545D01*
X0281948Y0115331D01*
X0281709Y0115123D01*
X0281465Y0114921D01*
X0281216Y0114726D01*
X0280962Y0114536D01*
X0280704Y0114353D01*
X0280442Y0114176D01*
X0280175Y0114005D01*
X0279904Y0113841D01*
X0279629Y0113684D01*
X0279351Y0113533D01*
X0279068Y0113389D01*
X0278783Y0113253D01*
X0278494Y0113123D01*
X0278202Y0113000D01*
X0277907Y0112885D01*
X0277610Y0112777D01*
X0277309Y0112676D01*
X0277007Y0112582D01*
X0276702Y0112496D01*
X0276395Y0112417D01*
X0276087Y0112346D01*
X0275777Y0112283D01*
X0275465Y0112227D01*
X0275152Y0112178D01*
X0274838Y0112138D01*
X0274523Y0112105D01*
X0274207Y0112080D01*
X0273891Y0112062D01*
X0273575Y0112052D01*
X0273258Y0112050D01*
X0272941Y0112056D01*
X0272625Y0112069D01*
X0272309Y0112091D01*
X0271994Y0112119D01*
X0271679Y0112156D01*
X0271366Y0112200D01*
X0271053Y0112252D01*
X0270742Y0112312D01*
X0270433Y0112379D01*
X0270125Y0112454D01*
X0269819Y0112536D01*
X0269516Y0112625D01*
X0269214Y0112722D01*
X0268915Y0112827D01*
X0268619Y0112939D01*
X0268325Y0113057D01*
X0268035Y0113183D01*
X0267748Y0113316D01*
X0267463Y0113457D01*
X0267183Y0113604D01*
X0266906Y0113757D01*
X0266633Y0113918D01*
X0266364Y0114085D01*
X0266099Y0114259D01*
X0265839Y0114439D01*
X0265583Y0114625D01*
X0265332Y0114818D01*
X0265085Y0115016D01*
X0264843Y0115221D01*
X0264607Y0115431D01*
X0264375Y0115648D01*
X0264150Y0115870D01*
X0263929Y0116097D01*
X0263714Y0116329D01*
X0263505Y0116567D01*
X0263302Y0116810D01*
X0263104Y0117058D01*
X0262913Y0117310D01*
X0262728Y0117567D01*
X0262550Y0117829D01*
X0262378Y0118095D01*
X0262212Y0118364D01*
X0262053Y0118638D01*
X0261901Y0118916D01*
X0261756Y0119197D01*
X0261617Y0119482D01*
X0261486Y0119770D01*
X0261362Y0120062D01*
X0261244Y0120356D01*
X0261134Y0120653D01*
X0261032Y0120952D01*
X0260937Y0121254D01*
X0260849Y0121558D01*
X0260768Y0121865D01*
X0260695Y0122173D01*
X0260630Y0122483D01*
X0260572Y0122794D01*
X0260522Y0123107D01*
X0260480Y0123421D01*
X0260445Y0123735D01*
X0260418Y0124051D01*
X0260398Y0124367D01*
X0260387Y0124683D01*
X0260383Y0125000D01*
X0260387Y0125317D01*
X0260398Y0125633D01*
X0260418Y0125949D01*
X0260445Y0126265D01*
X0260480Y0126579D01*
X0260522Y0126893D01*
X0260572Y0127206D01*
X0260630Y0127517D01*
X0260695Y0127827D01*
X0260768Y0128135D01*
X0260849Y0128442D01*
X0260937Y0128746D01*
X0261032Y0129048D01*
X0261134Y0129347D01*
X0261244Y0129644D01*
X0261362Y0129938D01*
X0261486Y0130230D01*
X0261617Y0130518D01*
X0261756Y0130803D01*
X0261901Y0131084D01*
X0262053Y0131362D01*
X0262212Y0131636D01*
X0262378Y0131905D01*
X0262550Y0132171D01*
X0262728Y0132433D01*
X0262913Y0132690D01*
X0263104Y0132942D01*
X0263302Y0133190D01*
X0263505Y0133433D01*
X0263714Y0133671D01*
X0263929Y0133903D01*
X0264150Y0134130D01*
X0264375Y0134352D01*
X0264607Y0134569D01*
X0264843Y0134779D01*
X0265085Y0134984D01*
X0265332Y0135182D01*
X0265583Y0135375D01*
X0265839Y0135561D01*
X0266099Y0135741D01*
X0266364Y0135915D01*
X0266633Y0136082D01*
X0266906Y0136243D01*
X0267183Y0136396D01*
X0267463Y0136543D01*
X0267748Y0136684D01*
X0268035Y0136817D01*
X0268325Y0136943D01*
X0268619Y0137061D01*
X0268915Y0137173D01*
X0269214Y0137278D01*
X0269516Y0137375D01*
X0269819Y0137464D01*
X0270125Y0137546D01*
X0270433Y0137621D01*
X0270742Y0137688D01*
X0271053Y0137748D01*
X0271366Y0137800D01*
X0271679Y0137844D01*
X0271994Y0137881D01*
X0272309Y0137909D01*
X0272625Y0137931D01*
X0272941Y0137944D01*
X0273258Y0137950D01*
X0273575Y0137948D01*
X0273891Y0137938D01*
X0274207Y0137920D01*
X0274523Y0137895D01*
X0274838Y0137862D01*
X0275152Y0137822D01*
X0275465Y0137773D01*
X0275777Y0137717D01*
X0276087Y0137654D01*
X0276395Y0137583D01*
X0276702Y0137504D01*
X0277007Y0137418D01*
X0277309Y0137324D01*
X0277610Y0137223D01*
X0277907Y0137115D01*
X0278202Y0137000D01*
X0278494Y0136877D01*
X0278783Y0136747D01*
X0279068Y0136611D01*
X0279351Y0136467D01*
X0279629Y0136316D01*
X0279904Y0136159D01*
X0280175Y0135995D01*
X0280442Y0135824D01*
X0280704Y0135647D01*
X0280962Y0135464D01*
X0281216Y0135274D01*
X0281465Y0135079D01*
X0281709Y0134877D01*
X0281948Y0134669D01*
X0282182Y0134455D01*
X0282410Y0134236D01*
X0282633Y0134011D01*
X0282851Y0133781D01*
X0283063Y0133546D01*
X0283269Y0133306D01*
X0283469Y0133060D01*
X0283663Y0132810D01*
X0283588Y0132754D01*
X0283395Y0133002D01*
X0283196Y0133246D01*
X0282992Y0133484D01*
X0282782Y0133718D01*
X0282566Y0133946D01*
X0282344Y0134169D01*
X0282117Y0134387D01*
X0281885Y0134599D01*
X0281648Y0134805D01*
X0281406Y0135006D01*
X0281158Y0135200D01*
X0280907Y0135388D01*
X0280650Y0135570D01*
X0280390Y0135746D01*
X0280125Y0135915D01*
X0279856Y0136078D01*
X0279583Y0136234D01*
X0279307Y0136384D01*
X0279027Y0136526D01*
X0278743Y0136662D01*
X0278456Y0136791D01*
X0278166Y0136913D01*
X0277874Y0137027D01*
X0277578Y0137135D01*
X0277280Y0137235D01*
X0276980Y0137328D01*
X0276677Y0137413D01*
X0276373Y0137491D01*
X0276067Y0137562D01*
X0275759Y0137625D01*
X0275449Y0137681D01*
X0275139Y0137729D01*
X0274827Y0137769D01*
X0274514Y0137802D01*
X0274201Y0137827D01*
X0273887Y0137844D01*
X0273573Y0137854D01*
X0273258Y0137856D01*
X0272944Y0137850D01*
X0272630Y0137837D01*
X0272316Y0137816D01*
X0272003Y0137787D01*
X0271691Y0137751D01*
X0271380Y0137707D01*
X0271070Y0137655D01*
X0270761Y0137596D01*
X0270454Y0137529D01*
X0270148Y0137455D01*
X0269845Y0137374D01*
X0269543Y0137285D01*
X0269244Y0137188D01*
X0268947Y0137085D01*
X0268653Y0136974D01*
X0268362Y0136856D01*
X0268073Y0136731D01*
X0267788Y0136599D01*
X0267506Y0136460D01*
X0267228Y0136314D01*
X0266953Y0136161D01*
X0266682Y0136002D01*
X0266415Y0135836D01*
X0266152Y0135663D01*
X0265893Y0135485D01*
X0265639Y0135300D01*
X0265390Y0135108D01*
X0265145Y0134911D01*
X0264905Y0134708D01*
X0264670Y0134499D01*
X0264440Y0134284D01*
X0264216Y0134064D01*
X0263997Y0133839D01*
X0263784Y0133608D01*
X0263576Y0133372D01*
X0263374Y0133130D01*
X0263179Y0132885D01*
X0262989Y0132634D01*
X0262805Y0132379D01*
X0262628Y0132119D01*
X0262457Y0131855D01*
X0262293Y0131587D01*
X0262135Y0131315D01*
X0261984Y0131040D01*
X0261840Y0130760D01*
X0261702Y0130478D01*
X0261572Y0130192D01*
X0261448Y0129903D01*
X0261332Y0129610D01*
X0261223Y0129316D01*
X0261121Y0129018D01*
X0261027Y0128719D01*
X0260939Y0128416D01*
X0260859Y0128112D01*
X0260787Y0127807D01*
X0260722Y0127499D01*
X0260665Y0127190D01*
X0260615Y0126879D01*
X0260573Y0126568D01*
X0260538Y0126255D01*
X0260512Y0125942D01*
X0260492Y0125628D01*
X0260481Y0125314D01*
X0260477Y0125000D01*
X0260481Y0124686D01*
X0260492Y0124372D01*
X0260512Y0124058D01*
X0260538Y0123745D01*
X0260573Y0123432D01*
X0260615Y0123121D01*
X0260665Y0122810D01*
X0260722Y0122501D01*
X0260787Y0122193D01*
X0260859Y0121888D01*
X0260939Y0121584D01*
X0261027Y0121281D01*
X0261121Y0120982D01*
X0261223Y0120684D01*
X0261332Y0120390D01*
X0261448Y0120097D01*
X0261572Y0119808D01*
X0261702Y0119522D01*
X0261840Y0119240D01*
X0261984Y0118960D01*
X0262135Y0118685D01*
X0262293Y0118413D01*
X0262457Y0118145D01*
X0262628Y0117881D01*
X0262805Y0117621D01*
X0262989Y0117366D01*
X0263179Y0117115D01*
X0263374Y0116870D01*
X0263576Y0116628D01*
X0263784Y0116392D01*
X0263997Y0116161D01*
X0264216Y0115936D01*
X0264440Y0115716D01*
X0264670Y0115501D01*
X0264905Y0115292D01*
X0265145Y0115089D01*
X0265390Y0114892D01*
X0265639Y0114700D01*
X0265893Y0114515D01*
X0266152Y0114337D01*
X0266415Y0114164D01*
X0266682Y0113998D01*
X0266953Y0113839D01*
X0267228Y0113686D01*
X0267506Y0113540D01*
X0267788Y0113401D01*
X0268073Y0113269D01*
X0268362Y0113144D01*
X0268653Y0113026D01*
X0268947Y0112915D01*
X0269244Y0112812D01*
X0269543Y0112715D01*
X0269845Y0112626D01*
X0270148Y0112545D01*
X0270454Y0112471D01*
X0270761Y0112404D01*
X0271070Y0112345D01*
X0271380Y0112293D01*
X0271691Y0112249D01*
X0272003Y0112213D01*
X0272316Y0112184D01*
X0272630Y0112163D01*
X0272944Y0112150D01*
X0273258Y0112144D01*
X0273573Y0112146D01*
X0273887Y0112156D01*
X0274201Y0112173D01*
X0274514Y0112198D01*
X0274827Y0112231D01*
X0275139Y0112271D01*
X0275449Y0112319D01*
X0275759Y0112375D01*
X0276067Y0112438D01*
X0276373Y0112509D01*
X0276677Y0112587D01*
X0276980Y0112672D01*
X0277280Y0112765D01*
X0277578Y0112865D01*
X0277874Y0112973D01*
X0278166Y0113087D01*
X0278456Y0113209D01*
X0278743Y0113338D01*
X0279027Y0113474D01*
X0279307Y0113616D01*
X0279583Y0113766D01*
X0279856Y0113922D01*
X0280125Y0114085D01*
X0280390Y0114254D01*
X0280650Y0114430D01*
X0280907Y0114612D01*
X0281158Y0114800D01*
X0281406Y0114994D01*
X0281648Y0115195D01*
X0281885Y0115401D01*
X0282117Y0115613D01*
X0282344Y0115831D01*
X0282566Y0116054D01*
X0282782Y0116282D01*
X0282992Y0116516D01*
X0283196Y0116754D01*
X0283395Y0116998D01*
X0283588Y0117246D01*
X0283513Y0117303D01*
X0283321Y0117056D01*
X0283124Y0116814D01*
X0282921Y0116577D01*
X0282712Y0116346D01*
X0282498Y0116119D01*
X0282278Y0115897D01*
X0282053Y0115681D01*
X0281822Y0115471D01*
X0281587Y0115266D01*
X0281346Y0115067D01*
X0281101Y0114874D01*
X0280851Y0114688D01*
X0280597Y0114507D01*
X0280338Y0114332D01*
X0280075Y0114164D01*
X0279808Y0114003D01*
X0279537Y0113848D01*
X0279263Y0113699D01*
X0278985Y0113558D01*
X0278703Y0113423D01*
X0278419Y0113295D01*
X0278131Y0113174D01*
X0277840Y0113060D01*
X0277547Y0112954D01*
X0277251Y0112854D01*
X0276953Y0112762D01*
X0276653Y0112677D01*
X0276350Y0112600D01*
X0276046Y0112530D01*
X0275741Y0112467D01*
X0275434Y0112412D01*
X0275125Y0112364D01*
X0274816Y0112324D01*
X0274505Y0112292D01*
X0274194Y0112267D01*
X0273883Y0112250D01*
X0273571Y0112240D01*
X0273259Y0112238D01*
X0272947Y0112244D01*
X0272635Y0112257D01*
X0272324Y0112278D01*
X0272013Y0112306D01*
X0271703Y0112343D01*
X0271394Y0112386D01*
X0271086Y0112437D01*
X0270779Y0112496D01*
X0270475Y0112562D01*
X0270171Y0112636D01*
X0269870Y0112717D01*
X0269571Y0112805D01*
X0269274Y0112901D01*
X0268979Y0113004D01*
X0268687Y0113114D01*
X0268398Y0113231D01*
X0268111Y0113355D01*
X0267828Y0113486D01*
X0267548Y0113624D01*
X0267272Y0113769D01*
X0266999Y0113921D01*
X0266730Y0114079D01*
X0266465Y0114244D01*
X0266204Y0114415D01*
X0265948Y0114592D01*
X0265695Y0114776D01*
X0265448Y0114966D01*
X0265205Y0115161D01*
X0264966Y0115363D01*
X0264733Y0115571D01*
X0264505Y0115784D01*
X0264283Y0116002D01*
X0264065Y0116226D01*
X0263854Y0116455D01*
X0263648Y0116690D01*
X0263447Y0116929D01*
X0263253Y0117173D01*
X0263065Y0117422D01*
X0262882Y0117675D01*
X0262706Y0117933D01*
X0262537Y0118195D01*
X0262374Y0118461D01*
X0262217Y0118731D01*
X0262067Y0119005D01*
X0261924Y0119282D01*
X0261787Y0119562D01*
X0261658Y0119846D01*
X0261535Y0120133D01*
X0261420Y0120423D01*
X0261312Y0120716D01*
X0261210Y0121011D01*
X0261116Y0121309D01*
X0261030Y0121609D01*
X0260951Y0121910D01*
X0260879Y0122214D01*
X0260814Y0122519D01*
X0260757Y0122826D01*
X0260708Y0123134D01*
X0260666Y0123444D01*
X0260632Y0123754D01*
X0260605Y0124065D01*
X0260586Y0124376D01*
X0260575Y0124688D01*
X0260571Y0125000D01*
X0260575Y0125312D01*
X0260586Y0125624D01*
X0260605Y0125935D01*
X0260632Y0126246D01*
X0260666Y0126556D01*
X0260708Y0126866D01*
X0260757Y0127174D01*
X0260814Y0127481D01*
X0260879Y0127786D01*
X0260951Y0128090D01*
X0261030Y0128391D01*
X0261116Y0128691D01*
X0261210Y0128989D01*
X0261312Y0129284D01*
X0261420Y0129577D01*
X0261535Y0129867D01*
X0261658Y0130154D01*
X0261787Y0130438D01*
X0261924Y0130718D01*
X0262067Y0130995D01*
X0262217Y0131269D01*
X0262374Y0131539D01*
X0262537Y0131805D01*
X0262706Y0132067D01*
X0262882Y0132325D01*
X0263065Y0132578D01*
X0263253Y0132827D01*
X0263447Y0133071D01*
X0263648Y0133310D01*
X0263854Y0133545D01*
X0264065Y0133774D01*
X0264283Y0133998D01*
X0264505Y0134216D01*
X0264733Y0134429D01*
X0264966Y0134637D01*
X0265205Y0134839D01*
X0265448Y0135034D01*
X0265695Y0135224D01*
X0265948Y0135408D01*
X0266204Y0135585D01*
X0266465Y0135756D01*
X0266730Y0135921D01*
X0266999Y0136079D01*
X0267272Y0136231D01*
X0267548Y0136376D01*
X0267828Y0136514D01*
X0268111Y0136645D01*
X0268398Y0136769D01*
X0268687Y0136886D01*
X0268979Y0136996D01*
X0269274Y0137099D01*
X0269571Y0137195D01*
X0269870Y0137283D01*
X0270171Y0137364D01*
X0270475Y0137438D01*
X0270779Y0137504D01*
X0271086Y0137563D01*
X0271394Y0137614D01*
X0271703Y0137657D01*
X0272013Y0137694D01*
X0272324Y0137722D01*
X0272635Y0137743D01*
X0272947Y0137756D01*
X0273259Y0137762D01*
X0273571Y0137760D01*
X0273883Y0137750D01*
X0274194Y0137733D01*
X0274505Y0137708D01*
X0274816Y0137676D01*
X0275125Y0137636D01*
X0275434Y0137588D01*
X0275741Y0137533D01*
X0276046Y0137470D01*
X0276350Y0137400D01*
X0276653Y0137323D01*
X0276953Y0137238D01*
X0277251Y0137146D01*
X0277547Y0137046D01*
X0277840Y0136940D01*
X0278131Y0136826D01*
X0278419Y0136705D01*
X0278703Y0136577D01*
X0278985Y0136442D01*
X0279263Y0136301D01*
X0279537Y0136152D01*
X0279808Y0135997D01*
X0280075Y0135836D01*
X0280338Y0135668D01*
X0280597Y0135493D01*
X0280851Y0135312D01*
X0281101Y0135126D01*
X0281346Y0134933D01*
X0281587Y0134734D01*
X0281822Y0134529D01*
X0282053Y0134319D01*
X0282278Y0134103D01*
X0282498Y0133881D01*
X0282712Y0133654D01*
X0282921Y0133423D01*
X0283124Y0133186D01*
X0283321Y0132944D01*
X0283513Y0132697D01*
X0283437Y0132641D01*
X0283247Y0132886D01*
X0283052Y0133126D01*
X0282850Y0133361D01*
X0282643Y0133591D01*
X0282430Y0133816D01*
X0282212Y0134036D01*
X0281988Y0134250D01*
X0281759Y0134459D01*
X0281526Y0134662D01*
X0281287Y0134860D01*
X0281044Y0135051D01*
X0280795Y0135237D01*
X0280543Y0135416D01*
X0280286Y0135589D01*
X0280025Y0135756D01*
X0279760Y0135917D01*
X0279491Y0136070D01*
X0279219Y0136218D01*
X0278943Y0136358D01*
X0278663Y0136492D01*
X0278381Y0136619D01*
X0278095Y0136739D01*
X0277807Y0136852D01*
X0277516Y0136958D01*
X0277222Y0137056D01*
X0276926Y0137148D01*
X0276628Y0137232D01*
X0276328Y0137309D01*
X0276026Y0137378D01*
X0275723Y0137441D01*
X0275418Y0137495D01*
X0275112Y0137543D01*
X0274804Y0137582D01*
X0274496Y0137614D01*
X0274188Y0137639D01*
X0273878Y0137656D01*
X0273569Y0137666D01*
X0273259Y0137668D01*
X0272949Y0137662D01*
X0272640Y0137649D01*
X0272331Y0137628D01*
X0272022Y0137600D01*
X0271715Y0137564D01*
X0271408Y0137521D01*
X0271102Y0137470D01*
X0270798Y0137412D01*
X0270495Y0137346D01*
X0270194Y0137273D01*
X0269895Y0137193D01*
X0269598Y0137105D01*
X0269303Y0137010D01*
X0269011Y0136908D01*
X0268721Y0136799D01*
X0268434Y0136682D01*
X0268150Y0136559D01*
X0267869Y0136429D01*
X0267591Y0136292D01*
X0267317Y0136148D01*
X0267046Y0135998D01*
X0266779Y0135841D01*
X0266516Y0135677D01*
X0266257Y0135507D01*
X0266002Y0135331D01*
X0265751Y0135149D01*
X0265506Y0134960D01*
X0265264Y0134766D01*
X0265028Y0134566D01*
X0264797Y0134360D01*
X0264570Y0134148D01*
X0264349Y0133931D01*
X0264134Y0133709D01*
X0263923Y0133482D01*
X0263719Y0133249D01*
X0263520Y0133011D01*
X0263327Y0132769D01*
X0263140Y0132522D01*
X0262959Y0132271D01*
X0262785Y0132015D01*
X0262616Y0131755D01*
X0262454Y0131491D01*
X0262299Y0131223D01*
X0262150Y0130951D01*
X0262008Y0130676D01*
X0261872Y0130397D01*
X0261744Y0130116D01*
X0261622Y0129831D01*
X0261508Y0129543D01*
X0261400Y0129252D01*
X0261300Y0128959D01*
X0261206Y0128664D01*
X0261120Y0128366D01*
X0261042Y0128067D01*
X0260971Y0127765D01*
X0260907Y0127462D01*
X0260850Y0127158D01*
X0260801Y0126852D01*
X0260760Y0126545D01*
X0260726Y0126237D01*
X0260699Y0125928D01*
X0260680Y0125619D01*
X0260669Y0125310D01*
X0260665Y0125000D01*
X0260669Y0124690D01*
X0260680Y0124381D01*
X0260699Y0124072D01*
X0260726Y0123763D01*
X0260760Y0123455D01*
X0260801Y0123148D01*
X0260850Y0122842D01*
X0260907Y0122538D01*
X0260971Y0122235D01*
X0261042Y0121933D01*
X0261120Y0121634D01*
X0261206Y0121336D01*
X0261300Y0121041D01*
X0261400Y0120748D01*
X0261508Y0120457D01*
X0261622Y0120169D01*
X0261744Y0119884D01*
X0261872Y0119603D01*
X0262008Y0119324D01*
X0262150Y0119049D01*
X0262299Y0118777D01*
X0262454Y0118509D01*
X0262616Y0118245D01*
X0262785Y0117985D01*
X0262959Y0117729D01*
X0263140Y0117478D01*
X0263327Y0117231D01*
X0263520Y0116989D01*
X0263719Y0116751D01*
X0263923Y0116518D01*
X0264134Y0116291D01*
X0264349Y0116069D01*
X0264570Y0115852D01*
X0264797Y0115640D01*
X0265028Y0115434D01*
X0265264Y0115234D01*
X0265506Y0115040D01*
X0265751Y0114851D01*
X0266002Y0114669D01*
X0266257Y0114493D01*
X0266516Y0114323D01*
X0266779Y0114159D01*
X0267046Y0114002D01*
X0267317Y0113852D01*
X0267591Y0113708D01*
X0267869Y0113571D01*
X0268150Y0113441D01*
X0268434Y0113318D01*
X0268721Y0113201D01*
X0269011Y0113092D01*
X0269303Y0112990D01*
X0269598Y0112895D01*
X0269895Y0112807D01*
X0270194Y0112727D01*
X0270495Y0112654D01*
X0270798Y0112588D01*
X0271102Y0112530D01*
X0271408Y0112479D01*
X0271715Y0112436D01*
X0272022Y0112400D01*
X0272331Y0112372D01*
X0272640Y0112351D01*
X0272949Y0112338D01*
X0273259Y0112332D01*
X0273569Y0112334D01*
X0273878Y0112344D01*
X0274188Y0112361D01*
X0274496Y0112386D01*
X0274804Y0112418D01*
X0275112Y0112457D01*
X0275418Y0112505D01*
X0275723Y0112559D01*
X0276026Y0112622D01*
X0276328Y0112691D01*
X0276628Y0112768D01*
X0276926Y0112852D01*
X0277222Y0112944D01*
X0277516Y0113042D01*
X0277807Y0113148D01*
X0278095Y0113261D01*
X0278381Y0113381D01*
X0278663Y0113508D01*
X0278943Y0113642D01*
X0279219Y0113782D01*
X0279491Y0113930D01*
X0279760Y0114083D01*
X0280025Y0114244D01*
X0280286Y0114411D01*
X0280543Y0114584D01*
X0280795Y0114763D01*
X0281044Y0114949D01*
X0281287Y0115140D01*
X0281526Y0115338D01*
X0281759Y0115541D01*
X0281988Y0115750D01*
X0282212Y0115964D01*
X0282430Y0116184D01*
X0282643Y0116409D01*
X0282850Y0116639D01*
X0283052Y0116874D01*
X0283247Y0117114D01*
X0283437Y0117359D01*
X0283362Y0117416D01*
X0283174Y0117173D01*
X0282979Y0116934D01*
X0282779Y0116701D01*
X0282574Y0116473D01*
X0282362Y0116249D01*
X0282146Y0116031D01*
X0281924Y0115818D01*
X0281697Y0115611D01*
X0281465Y0115409D01*
X0281228Y0115213D01*
X0280986Y0115023D01*
X0280740Y0114839D01*
X0280489Y0114661D01*
X0280234Y0114489D01*
X0279975Y0114324D01*
X0279712Y0114164D01*
X0279445Y0114012D01*
X0279175Y0113865D01*
X0278901Y0113726D01*
X0278624Y0113593D01*
X0278343Y0113467D01*
X0278060Y0113348D01*
X0277773Y0113236D01*
X0277484Y0113131D01*
X0277193Y0113033D01*
X0276899Y0112942D01*
X0276603Y0112859D01*
X0276306Y0112782D01*
X0276006Y0112713D01*
X0275705Y0112652D01*
X0275402Y0112597D01*
X0275098Y0112551D01*
X0274793Y0112511D01*
X0274488Y0112479D01*
X0274181Y0112455D01*
X0273874Y0112438D01*
X0273567Y0112428D01*
X0273259Y0112426D01*
X0272952Y0112432D01*
X0272645Y0112445D01*
X0272338Y0112465D01*
X0272032Y0112494D01*
X0271726Y0112529D01*
X0271422Y0112572D01*
X0271119Y0112623D01*
X0270817Y0112680D01*
X0270516Y0112746D01*
X0270217Y0112818D01*
X0269921Y0112898D01*
X0269626Y0112985D01*
X0269333Y0113079D01*
X0269043Y0113181D01*
X0268755Y0113289D01*
X0268470Y0113404D01*
X0268188Y0113527D01*
X0267909Y0113656D01*
X0267633Y0113792D01*
X0267361Y0113935D01*
X0267092Y0114084D01*
X0266827Y0114240D01*
X0266566Y0114402D01*
X0266309Y0114571D01*
X0266056Y0114746D01*
X0265808Y0114927D01*
X0265564Y0115114D01*
X0265324Y0115307D01*
X0265090Y0115505D01*
X0264860Y0115710D01*
X0264635Y0115920D01*
X0264416Y0116135D01*
X0264202Y0116356D01*
X0263993Y0116581D01*
X0263790Y0116812D01*
X0263593Y0117048D01*
X0263401Y0117289D01*
X0263216Y0117534D01*
X0263036Y0117783D01*
X0262863Y0118037D01*
X0262696Y0118295D01*
X0262535Y0118557D01*
X0262381Y0118823D01*
X0262233Y0119093D01*
X0262092Y0119366D01*
X0261957Y0119643D01*
X0261830Y0119922D01*
X0261709Y0120205D01*
X0261595Y0120491D01*
X0261489Y0120779D01*
X0261389Y0121070D01*
X0261296Y0121363D01*
X0261211Y0121659D01*
X0261133Y0121956D01*
X0261062Y0122255D01*
X0260999Y0122556D01*
X0260943Y0122858D01*
X0260894Y0123162D01*
X0260853Y0123467D01*
X0260819Y0123772D01*
X0260793Y0124078D01*
X0260774Y0124385D01*
X0260763Y0124693D01*
X0260759Y0125000D01*
X0260763Y0125307D01*
X0260774Y0125615D01*
X0260793Y0125922D01*
X0260819Y0126228D01*
X0260853Y0126533D01*
X0260894Y0126838D01*
X0260943Y0127142D01*
X0260999Y0127444D01*
X0261062Y0127745D01*
X0261133Y0128044D01*
X0261211Y0128341D01*
X0261296Y0128637D01*
X0261389Y0128930D01*
X0261489Y0129221D01*
X0261595Y0129509D01*
X0261709Y0129795D01*
X0261830Y0130078D01*
X0261957Y0130357D01*
X0262092Y0130634D01*
X0262233Y0130907D01*
X0262381Y0131177D01*
X0262535Y0131443D01*
X0262696Y0131705D01*
X0262863Y0131963D01*
X0263036Y0132217D01*
X0263216Y0132466D01*
X0263401Y0132711D01*
X0263593Y0132952D01*
X0263790Y0133188D01*
X0263993Y0133419D01*
X0264202Y0133644D01*
X0264416Y0133865D01*
X0264635Y0134080D01*
X0264860Y0134290D01*
X0265090Y0134495D01*
X0265324Y0134693D01*
X0265564Y0134886D01*
X0265808Y0135073D01*
X0266056Y0135254D01*
X0266309Y0135429D01*
X0266566Y0135598D01*
X0266827Y0135760D01*
X0267092Y0135916D01*
X0267361Y0136065D01*
X0267633Y0136208D01*
X0267909Y0136344D01*
X0268188Y0136473D01*
X0268470Y0136596D01*
X0268755Y0136711D01*
X0269043Y0136819D01*
X0269333Y0136921D01*
X0269626Y0137015D01*
X0269921Y0137102D01*
X0270217Y0137182D01*
X0270516Y0137254D01*
X0270817Y0137320D01*
X0271119Y0137377D01*
X0271422Y0137428D01*
X0271726Y0137471D01*
X0272032Y0137506D01*
X0272338Y0137535D01*
X0272645Y0137555D01*
X0272952Y0137568D01*
X0273259Y0137574D01*
X0273567Y0137572D01*
X0273874Y0137562D01*
X0274181Y0137545D01*
X0274488Y0137521D01*
X0274793Y0137489D01*
X0275098Y0137449D01*
X0275402Y0137403D01*
X0275705Y0137348D01*
X0276006Y0137287D01*
X0276306Y0137218D01*
X0276603Y0137141D01*
X0276899Y0137058D01*
X0277193Y0136967D01*
X0277484Y0136869D01*
X0277773Y0136764D01*
X0278060Y0136652D01*
X0278343Y0136533D01*
X0278624Y0136407D01*
X0278901Y0136274D01*
X0279175Y0136135D01*
X0279445Y0135988D01*
X0279712Y0135836D01*
X0279975Y0135676D01*
X0280234Y0135511D01*
X0280489Y0135339D01*
X0280740Y0135161D01*
X0280986Y0134977D01*
X0281228Y0134787D01*
X0281465Y0134591D01*
X0281697Y0134389D01*
X0281924Y0134182D01*
X0282146Y0133969D01*
X0282362Y0133751D01*
X0282574Y0133527D01*
X0282779Y0133299D01*
X0282979Y0133066D01*
X0283174Y0132827D01*
X0283362Y0132584D01*
X0283287Y0132528D01*
X0283100Y0132769D01*
X0282907Y0133006D01*
X0282708Y0133237D01*
X0282504Y0133464D01*
X0282295Y0133686D01*
X0282080Y0133902D01*
X0281859Y0134113D01*
X0281634Y0134319D01*
X0281404Y0134519D01*
X0281168Y0134714D01*
X0280929Y0134902D01*
X0280684Y0135085D01*
X0280435Y0135262D01*
X0280182Y0135432D01*
X0279925Y0135597D01*
X0279664Y0135755D01*
X0279399Y0135906D01*
X0279131Y0136051D01*
X0278859Y0136190D01*
X0278584Y0136322D01*
X0278305Y0136447D01*
X0278024Y0136565D01*
X0277740Y0136676D01*
X0277453Y0136780D01*
X0277164Y0136878D01*
X0276872Y0136968D01*
X0276579Y0137051D01*
X0276283Y0137126D01*
X0275986Y0137195D01*
X0275687Y0137256D01*
X0275386Y0137310D01*
X0275085Y0137356D01*
X0274782Y0137396D01*
X0274479Y0137427D01*
X0274174Y0137452D01*
X0273870Y0137468D01*
X0273565Y0137478D01*
X0273260Y0137480D01*
X0272955Y0137474D01*
X0272650Y0137461D01*
X0272345Y0137441D01*
X0272041Y0137413D01*
X0271738Y0137378D01*
X0271436Y0137335D01*
X0271135Y0137285D01*
X0270835Y0137228D01*
X0270537Y0137163D01*
X0270241Y0137091D01*
X0269946Y0137012D01*
X0269653Y0136925D01*
X0269363Y0136832D01*
X0269075Y0136731D01*
X0268789Y0136623D01*
X0268506Y0136509D01*
X0268226Y0136387D01*
X0267949Y0136259D01*
X0267676Y0136124D01*
X0267406Y0135983D01*
X0267139Y0135834D01*
X0266876Y0135680D01*
X0266617Y0135519D01*
X0266361Y0135351D01*
X0266110Y0135178D01*
X0265864Y0134998D01*
X0265622Y0134812D01*
X0265384Y0134621D01*
X0265151Y0134424D01*
X0264923Y0134221D01*
X0264700Y0134012D01*
X0264482Y0133799D01*
X0264270Y0133580D01*
X0264063Y0133356D01*
X0263861Y0133126D01*
X0263665Y0132892D01*
X0263475Y0132654D01*
X0263291Y0132410D01*
X0263113Y0132163D01*
X0262941Y0131911D01*
X0262775Y0131654D01*
X0262616Y0131394D01*
X0262462Y0131130D01*
X0262316Y0130863D01*
X0262176Y0130592D01*
X0262042Y0130317D01*
X0261916Y0130040D01*
X0261796Y0129759D01*
X0261683Y0129475D01*
X0261577Y0129189D01*
X0261478Y0128901D01*
X0261386Y0128610D01*
X0261302Y0128316D01*
X0261224Y0128021D01*
X0261154Y0127724D01*
X0261091Y0127426D01*
X0261035Y0127126D01*
X0260987Y0126824D01*
X0260946Y0126522D01*
X0260913Y0126219D01*
X0260887Y0125915D01*
X0260868Y0125610D01*
X0260857Y0125305D01*
X0260853Y0125000D01*
X0260857Y0124695D01*
X0260868Y0124390D01*
X0260887Y0124085D01*
X0260913Y0123781D01*
X0260946Y0123478D01*
X0260987Y0123176D01*
X0261035Y0122874D01*
X0261091Y0122574D01*
X0261154Y0122276D01*
X0261224Y0121979D01*
X0261302Y0121684D01*
X0261386Y0121390D01*
X0261478Y0121099D01*
X0261577Y0120811D01*
X0261683Y0120525D01*
X0261796Y0120241D01*
X0261916Y0119960D01*
X0262042Y0119683D01*
X0262176Y0119408D01*
X0262316Y0119137D01*
X0262462Y0118870D01*
X0262616Y0118606D01*
X0262775Y0118346D01*
X0262941Y0118089D01*
X0263113Y0117837D01*
X0263291Y0117590D01*
X0263475Y0117346D01*
X0263665Y0117108D01*
X0263861Y0116874D01*
X0264063Y0116644D01*
X0264270Y0116420D01*
X0264482Y0116201D01*
X0264700Y0115988D01*
X0264923Y0115779D01*
X0265151Y0115576D01*
X0265384Y0115379D01*
X0265622Y0115188D01*
X0265864Y0115002D01*
X0266110Y0114822D01*
X0266361Y0114649D01*
X0266617Y0114481D01*
X0266876Y0114320D01*
X0267139Y0114166D01*
X0267406Y0114017D01*
X0267676Y0113876D01*
X0267949Y0113741D01*
X0268226Y0113613D01*
X0268506Y0113491D01*
X0268789Y0113377D01*
X0269075Y0113269D01*
X0269363Y0113168D01*
X0269653Y0113075D01*
X0269946Y0112988D01*
X0270241Y0112909D01*
X0270537Y0112837D01*
X0270835Y0112772D01*
X0271135Y0112715D01*
X0271436Y0112665D01*
X0271738Y0112622D01*
X0272041Y0112587D01*
X0272345Y0112559D01*
X0272650Y0112539D01*
X0272955Y0112526D01*
X0273260Y0112520D01*
X0273565Y0112522D01*
X0273870Y0112532D01*
X0274174Y0112548D01*
X0274479Y0112573D01*
X0274782Y0112604D01*
X0275085Y0112644D01*
X0275386Y0112690D01*
X0275687Y0112744D01*
X0275986Y0112805D01*
X0276283Y0112874D01*
X0276579Y0112949D01*
X0276872Y0113032D01*
X0277164Y0113122D01*
X0277453Y0113220D01*
X0277740Y0113324D01*
X0278024Y0113435D01*
X0278305Y0113553D01*
X0278584Y0113678D01*
X0278859Y0113810D01*
X0279131Y0113949D01*
X0279399Y0114094D01*
X0279664Y0114245D01*
X0279925Y0114403D01*
X0280182Y0114568D01*
X0280435Y0114738D01*
X0280684Y0114915D01*
X0280929Y0115098D01*
X0281168Y0115286D01*
X0281404Y0115481D01*
X0281634Y0115681D01*
X0281859Y0115887D01*
X0282080Y0116098D01*
X0282295Y0116314D01*
X0282504Y0116536D01*
X0282708Y0116763D01*
X0282907Y0116994D01*
X0283100Y0117231D01*
X0283287Y0117472D01*
X0283212Y0117528D01*
X0283026Y0117289D01*
X0282835Y0117054D01*
X0282638Y0116825D01*
X0282435Y0116600D01*
X0282227Y0116379D01*
X0282013Y0116165D01*
X0281795Y0115955D01*
X0281571Y0115751D01*
X0281343Y0115552D01*
X0281109Y0115359D01*
X0280871Y0115172D01*
X0280629Y0114991D01*
X0280382Y0114815D01*
X0280131Y0114646D01*
X0279875Y0114483D01*
X0279616Y0114326D01*
X0279353Y0114176D01*
X0279087Y0114032D01*
X0278817Y0113894D01*
X0278544Y0113763D01*
X0278268Y0113639D01*
X0277988Y0113522D01*
X0277706Y0113412D01*
X0277422Y0113308D01*
X0277135Y0113212D01*
X0276845Y0113122D01*
X0276554Y0113040D01*
X0276261Y0112965D01*
X0275965Y0112897D01*
X0275669Y0112836D01*
X0275371Y0112783D01*
X0275071Y0112737D01*
X0274771Y0112698D01*
X0274470Y0112666D01*
X0274168Y0112642D01*
X0273865Y0112625D01*
X0273563Y0112616D01*
X0273260Y0112614D01*
X0272957Y0112620D01*
X0272655Y0112633D01*
X0272352Y0112653D01*
X0272051Y0112681D01*
X0271750Y0112716D01*
X0271450Y0112758D01*
X0271151Y0112808D01*
X0270854Y0112865D01*
X0270558Y0112929D01*
X0270264Y0113000D01*
X0269971Y0113079D01*
X0269681Y0113165D01*
X0269392Y0113258D01*
X0269107Y0113357D01*
X0268823Y0113464D01*
X0268543Y0113578D01*
X0268265Y0113698D01*
X0267990Y0113826D01*
X0267718Y0113960D01*
X0267450Y0114100D01*
X0267185Y0114247D01*
X0266924Y0114401D01*
X0266667Y0114561D01*
X0266414Y0114727D01*
X0266165Y0114899D01*
X0265920Y0115077D01*
X0265679Y0115262D01*
X0265444Y0115452D01*
X0265213Y0115647D01*
X0264986Y0115849D01*
X0264765Y0116055D01*
X0264549Y0116268D01*
X0264338Y0116485D01*
X0264133Y0116707D01*
X0263933Y0116935D01*
X0263738Y0117167D01*
X0263550Y0117404D01*
X0263367Y0117646D01*
X0263190Y0117891D01*
X0263019Y0118142D01*
X0262855Y0118396D01*
X0262696Y0118654D01*
X0262544Y0118916D01*
X0262399Y0119181D01*
X0262260Y0119450D01*
X0262127Y0119723D01*
X0262002Y0119998D01*
X0261883Y0120277D01*
X0261771Y0120558D01*
X0261666Y0120842D01*
X0261567Y0121129D01*
X0261476Y0121418D01*
X0261392Y0121709D01*
X0261315Y0122002D01*
X0261246Y0122296D01*
X0261183Y0122593D01*
X0261128Y0122890D01*
X0261080Y0123189D01*
X0261039Y0123489D01*
X0261006Y0123791D01*
X0260980Y0124092D01*
X0260962Y0124395D01*
X0260951Y0124697D01*
X0260947Y0125000D01*
X0260951Y0125303D01*
X0260962Y0125605D01*
X0260980Y0125908D01*
X0261006Y0126209D01*
X0261039Y0126511D01*
X0261080Y0126811D01*
X0261128Y0127110D01*
X0261183Y0127407D01*
X0261246Y0127704D01*
X0261315Y0127998D01*
X0261392Y0128291D01*
X0261476Y0128582D01*
X0261567Y0128871D01*
X0261666Y0129158D01*
X0261771Y0129442D01*
X0261883Y0129723D01*
X0262002Y0130002D01*
X0262127Y0130277D01*
X0262260Y0130550D01*
X0262399Y0130819D01*
X0262544Y0131084D01*
X0262696Y0131346D01*
X0262855Y0131604D01*
X0263019Y0131858D01*
X0263190Y0132109D01*
X0263367Y0132354D01*
X0263550Y0132596D01*
X0263738Y0132833D01*
X0263933Y0133065D01*
X0264133Y0133293D01*
X0264338Y0133515D01*
X0264549Y0133732D01*
X0264765Y0133945D01*
X0264986Y0134151D01*
X0265213Y0134353D01*
X0265444Y0134548D01*
X0265679Y0134738D01*
X0265920Y0134923D01*
X0266165Y0135101D01*
X0266414Y0135273D01*
X0266667Y0135439D01*
X0266924Y0135599D01*
X0267185Y0135753D01*
X0267450Y0135900D01*
X0267718Y0136040D01*
X0267990Y0136174D01*
X0268265Y0136302D01*
X0268543Y0136422D01*
X0268823Y0136536D01*
X0269107Y0136643D01*
X0269392Y0136742D01*
X0269681Y0136835D01*
X0269971Y0136921D01*
X0270264Y0137000D01*
X0270558Y0137071D01*
X0270854Y0137135D01*
X0271151Y0137192D01*
X0271450Y0137242D01*
X0271750Y0137284D01*
X0272051Y0137319D01*
X0272352Y0137347D01*
X0272655Y0137367D01*
X0272957Y0137380D01*
X0273260Y0137386D01*
X0273563Y0137384D01*
X0273865Y0137375D01*
X0274168Y0137358D01*
X0274470Y0137334D01*
X0274771Y0137302D01*
X0275071Y0137263D01*
X0275371Y0137217D01*
X0275669Y0137164D01*
X0275965Y0137103D01*
X0276261Y0137035D01*
X0276554Y0136960D01*
X0276845Y0136878D01*
X0277135Y0136788D01*
X0277422Y0136692D01*
X0277706Y0136588D01*
X0277988Y0136478D01*
X0278268Y0136361D01*
X0278544Y0136237D01*
X0278817Y0136106D01*
X0279087Y0135968D01*
X0279353Y0135824D01*
X0279616Y0135674D01*
X0279875Y0135517D01*
X0280131Y0135354D01*
X0280382Y0135185D01*
X0280629Y0135009D01*
X0280871Y0134828D01*
X0281109Y0134641D01*
X0281343Y0134448D01*
X0281571Y0134249D01*
X0281795Y0134045D01*
X0282013Y0133835D01*
X0282227Y0133621D01*
X0282435Y0133400D01*
X0282638Y0133175D01*
X0282835Y0132946D01*
X0283026Y0132711D01*
X0283212Y0132472D01*
X0283137Y0132415D01*
X0282952Y0132653D01*
X0282762Y0132885D01*
X0282567Y0133114D01*
X0282366Y0133337D01*
X0282159Y0133555D01*
X0281947Y0133769D01*
X0281730Y0133977D01*
X0281508Y0134179D01*
X0281281Y0134376D01*
X0281050Y0134568D01*
X0280814Y0134754D01*
X0280573Y0134934D01*
X0280328Y0135108D01*
X0280079Y0135276D01*
X0279825Y0135438D01*
X0279568Y0135593D01*
X0279307Y0135742D01*
X0279043Y0135885D01*
X0278775Y0136022D01*
X0278504Y0136151D01*
X0278230Y0136274D01*
X0277953Y0136391D01*
X0277673Y0136500D01*
X0277390Y0136603D01*
X0277106Y0136699D01*
X0276818Y0136787D01*
X0276529Y0136869D01*
X0276238Y0136944D01*
X0275945Y0137011D01*
X0275651Y0137072D01*
X0275355Y0137125D01*
X0275058Y0137170D01*
X0274760Y0137209D01*
X0274461Y0137240D01*
X0274161Y0137264D01*
X0273861Y0137281D01*
X0273561Y0137290D01*
X0273260Y0137292D01*
X0272960Y0137286D01*
X0272659Y0137274D01*
X0272360Y0137253D01*
X0272060Y0137226D01*
X0271762Y0137191D01*
X0271464Y0137149D01*
X0271168Y0137100D01*
X0270873Y0137043D01*
X0270579Y0136979D01*
X0270287Y0136909D01*
X0269997Y0136831D01*
X0269708Y0136745D01*
X0269422Y0136653D01*
X0269138Y0136554D01*
X0268857Y0136448D01*
X0268579Y0136335D01*
X0268303Y0136216D01*
X0268030Y0136089D01*
X0267761Y0135956D01*
X0267495Y0135817D01*
X0267232Y0135671D01*
X0266973Y0135519D01*
X0266717Y0135360D01*
X0266466Y0135195D01*
X0266219Y0135024D01*
X0265976Y0134847D01*
X0265737Y0134664D01*
X0265503Y0134476D01*
X0265274Y0134282D01*
X0265050Y0134082D01*
X0264830Y0133877D01*
X0264616Y0133666D01*
X0264406Y0133450D01*
X0264202Y0133230D01*
X0264004Y0133004D01*
X0263811Y0132773D01*
X0263624Y0132538D01*
X0263442Y0132299D01*
X0263267Y0132055D01*
X0263097Y0131806D01*
X0262934Y0131554D01*
X0262777Y0131298D01*
X0262626Y0131038D01*
X0262482Y0130774D01*
X0262344Y0130507D01*
X0262212Y0130237D01*
X0262088Y0129964D01*
X0261970Y0129687D01*
X0261859Y0129408D01*
X0261754Y0129126D01*
X0261657Y0128842D01*
X0261566Y0128555D01*
X0261483Y0128266D01*
X0261407Y0127976D01*
X0261337Y0127683D01*
X0261275Y0127389D01*
X0261221Y0127094D01*
X0261173Y0126797D01*
X0261133Y0126499D01*
X0261100Y0126200D01*
X0261074Y0125901D01*
X0261056Y0125601D01*
X0261045Y0125301D01*
X0261041Y0125000D01*
X0261045Y0124699D01*
X0261056Y0124399D01*
X0261074Y0124099D01*
X0261100Y0123800D01*
X0261133Y0123501D01*
X0261173Y0123203D01*
X0261221Y0122906D01*
X0261275Y0122611D01*
X0261337Y0122317D01*
X0261407Y0122024D01*
X0261483Y0121734D01*
X0261566Y0121445D01*
X0261657Y0121158D01*
X0261754Y0120874D01*
X0261859Y0120592D01*
X0261970Y0120313D01*
X0262088Y0120036D01*
X0262212Y0119763D01*
X0262344Y0119493D01*
X0262482Y0119226D01*
X0262626Y0118962D01*
X0262777Y0118702D01*
X0262934Y0118446D01*
X0263097Y0118194D01*
X0263267Y0117945D01*
X0263442Y0117701D01*
X0263624Y0117462D01*
X0263811Y0117227D01*
X0264004Y0116996D01*
X0264202Y0116770D01*
X0264406Y0116550D01*
X0264616Y0116334D01*
X0264830Y0116123D01*
X0265050Y0115918D01*
X0265274Y0115718D01*
X0265503Y0115524D01*
X0265737Y0115336D01*
X0265976Y0115153D01*
X0266219Y0114976D01*
X0266466Y0114805D01*
X0266717Y0114640D01*
X0266973Y0114481D01*
X0267232Y0114329D01*
X0267495Y0114183D01*
X0267761Y0114044D01*
X0268030Y0113911D01*
X0268303Y0113784D01*
X0268579Y0113665D01*
X0268857Y0113552D01*
X0269138Y0113446D01*
X0269422Y0113347D01*
X0269708Y0113255D01*
X0269997Y0113169D01*
X0270287Y0113091D01*
X0270579Y0113021D01*
X0270873Y0112957D01*
X0271168Y0112900D01*
X0271464Y0112851D01*
X0271762Y0112809D01*
X0272060Y0112774D01*
X0272360Y0112747D01*
X0272659Y0112726D01*
X0272960Y0112714D01*
X0273260Y0112708D01*
X0273561Y0112710D01*
X0273861Y0112719D01*
X0274161Y0112736D01*
X0274461Y0112760D01*
X0274760Y0112791D01*
X0275058Y0112830D01*
X0275355Y0112875D01*
X0275651Y0112928D01*
X0275945Y0112989D01*
X0276238Y0113056D01*
X0276529Y0113131D01*
X0276818Y0113213D01*
X0277106Y0113301D01*
X0277390Y0113397D01*
X0277673Y0113500D01*
X0277953Y0113609D01*
X0278230Y0113726D01*
X0278504Y0113849D01*
X0278775Y0113978D01*
X0279043Y0114115D01*
X0279307Y0114258D01*
X0279568Y0114407D01*
X0279825Y0114562D01*
X0280079Y0114724D01*
X0280328Y0114892D01*
X0280573Y0115066D01*
X0280814Y0115246D01*
X0281050Y0115432D01*
X0281281Y0115624D01*
X0281508Y0115821D01*
X0281730Y0116023D01*
X0281947Y0116231D01*
X0282159Y0116445D01*
X0282366Y0116663D01*
X0282567Y0116886D01*
X0282762Y0117115D01*
X0282952Y0117347D01*
X0283137Y0117585D01*
X0283061Y0117641D01*
X0282879Y0117406D01*
X0282690Y0117175D01*
X0282496Y0116948D01*
X0282296Y0116726D01*
X0282091Y0116510D01*
X0281881Y0116298D01*
X0281666Y0116092D01*
X0281446Y0115891D01*
X0281220Y0115695D01*
X0280991Y0115505D01*
X0280756Y0115321D01*
X0280517Y0115142D01*
X0280274Y0114969D01*
X0280027Y0114803D01*
X0279775Y0114642D01*
X0279520Y0114488D01*
X0279261Y0114340D01*
X0278999Y0114198D01*
X0278733Y0114063D01*
X0278464Y0113934D01*
X0278192Y0113812D01*
X0277917Y0113696D01*
X0277639Y0113587D01*
X0277359Y0113486D01*
X0277076Y0113391D01*
X0276791Y0113303D01*
X0276504Y0113222D01*
X0276216Y0113147D01*
X0275925Y0113081D01*
X0275633Y0113021D01*
X0275339Y0112968D01*
X0275044Y0112923D01*
X0274749Y0112884D01*
X0274452Y0112853D01*
X0274155Y0112830D01*
X0273857Y0112813D01*
X0273559Y0112804D01*
X0273261Y0112802D01*
X0272962Y0112808D01*
X0272664Y0112820D01*
X0272367Y0112840D01*
X0272070Y0112868D01*
X0271774Y0112902D01*
X0271478Y0112944D01*
X0271184Y0112993D01*
X0270891Y0113049D01*
X0270600Y0113112D01*
X0270310Y0113183D01*
X0270022Y0113260D01*
X0269736Y0113344D01*
X0269452Y0113436D01*
X0269170Y0113534D01*
X0268891Y0113639D01*
X0268615Y0113751D01*
X0268341Y0113870D01*
X0268071Y0113995D01*
X0267803Y0114127D01*
X0267539Y0114266D01*
X0267278Y0114411D01*
X0267021Y0114562D01*
X0266768Y0114719D01*
X0266519Y0114883D01*
X0266273Y0115053D01*
X0266032Y0115228D01*
X0265795Y0115410D01*
X0265563Y0115597D01*
X0265336Y0115789D01*
X0265113Y0115988D01*
X0264895Y0116191D01*
X0264682Y0116400D01*
X0264474Y0116614D01*
X0264272Y0116834D01*
X0264075Y0117057D01*
X0263884Y0117286D01*
X0263698Y0117520D01*
X0263518Y0117757D01*
X0263344Y0117999D01*
X0263176Y0118246D01*
X0263014Y0118496D01*
X0262858Y0118750D01*
X0262708Y0119008D01*
X0262565Y0119270D01*
X0262428Y0119535D01*
X0262297Y0119803D01*
X0262174Y0120074D01*
X0262057Y0120349D01*
X0261946Y0120626D01*
X0261843Y0120906D01*
X0261746Y0121188D01*
X0261656Y0121472D01*
X0261574Y0121759D01*
X0261498Y0122047D01*
X0261429Y0122337D01*
X0261368Y0122629D01*
X0261313Y0122922D01*
X0261266Y0123217D01*
X0261226Y0123512D01*
X0261193Y0123809D01*
X0261168Y0124106D01*
X0261150Y0124404D01*
X0261139Y0124702D01*
X0261135Y0125000D01*
X0261139Y0125298D01*
X0261150Y0125596D01*
X0261168Y0125894D01*
X0261193Y0126191D01*
X0261226Y0126488D01*
X0261266Y0126783D01*
X0261313Y0127078D01*
X0261368Y0127371D01*
X0261429Y0127663D01*
X0261498Y0127953D01*
X0261574Y0128241D01*
X0261656Y0128528D01*
X0261746Y0128812D01*
X0261843Y0129094D01*
X0261946Y0129374D01*
X0262057Y0129651D01*
X0262174Y0129926D01*
X0262297Y0130197D01*
X0262428Y0130465D01*
X0262565Y0130730D01*
X0262708Y0130992D01*
X0262858Y0131250D01*
X0263014Y0131504D01*
X0263176Y0131754D01*
X0263344Y0132001D01*
X0263518Y0132243D01*
X0263698Y0132480D01*
X0263884Y0132714D01*
X0264075Y0132943D01*
X0264272Y0133166D01*
X0264474Y0133386D01*
X0264682Y0133600D01*
X0264895Y0133809D01*
X0265113Y0134012D01*
X0265336Y0134211D01*
X0265563Y0134403D01*
X0265795Y0134590D01*
X0266032Y0134772D01*
X0266273Y0134947D01*
X0266519Y0135117D01*
X0266768Y0135281D01*
X0267021Y0135438D01*
X0267278Y0135589D01*
X0267539Y0135734D01*
X0267803Y0135873D01*
X0268071Y0136005D01*
X0268341Y0136130D01*
X0268615Y0136249D01*
X0268891Y0136361D01*
X0269170Y0136466D01*
X0269452Y0136564D01*
X0269736Y0136656D01*
X0270022Y0136740D01*
X0270310Y0136817D01*
X0270600Y0136888D01*
X0270891Y0136951D01*
X0271184Y0137007D01*
X0271478Y0137056D01*
X0271774Y0137098D01*
X0272070Y0137132D01*
X0272367Y0137160D01*
X0272664Y0137180D01*
X0272962Y0137192D01*
X0273261Y0137198D01*
X0273559Y0137196D01*
X0273857Y0137187D01*
X0274155Y0137170D01*
X0274452Y0137147D01*
X0274749Y0137116D01*
X0275044Y0137077D01*
X0275339Y0137032D01*
X0275633Y0136979D01*
X0275925Y0136919D01*
X0276216Y0136853D01*
X0276504Y0136778D01*
X0276791Y0136697D01*
X0277076Y0136609D01*
X0277359Y0136514D01*
X0277639Y0136413D01*
X0277917Y0136304D01*
X0278192Y0136188D01*
X0278464Y0136066D01*
X0278733Y0135937D01*
X0278999Y0135802D01*
X0279261Y0135660D01*
X0279520Y0135512D01*
X0279775Y0135358D01*
X0280027Y0135197D01*
X0280274Y0135031D01*
X0280517Y0134858D01*
X0280756Y0134679D01*
X0280991Y0134495D01*
X0281220Y0134305D01*
X0281446Y0134109D01*
X0281666Y0133908D01*
X0281881Y0133702D01*
X0282091Y0133490D01*
X0282296Y0133274D01*
X0282496Y0133052D01*
X0282690Y0132825D01*
X0282879Y0132594D01*
X0283061Y0132359D01*
X0282986Y0132302D01*
X0282805Y0132536D01*
X0282618Y0132765D01*
X0282425Y0132990D01*
X0282227Y0133210D01*
X0282024Y0133425D01*
X0281815Y0133635D01*
X0281601Y0133840D01*
X0281383Y0134039D01*
X0281159Y0134233D01*
X0280931Y0134422D01*
X0280699Y0134605D01*
X0280462Y0134782D01*
X0280220Y0134953D01*
X0279975Y0135119D01*
X0279726Y0135278D01*
X0279472Y0135431D01*
X0279216Y0135578D01*
X0278955Y0135719D01*
X0278691Y0135853D01*
X0278424Y0135981D01*
X0278154Y0136102D01*
X0277882Y0136217D01*
X0277606Y0136325D01*
X0277328Y0136426D01*
X0277047Y0136520D01*
X0276765Y0136607D01*
X0276480Y0136688D01*
X0276193Y0136761D01*
X0275905Y0136828D01*
X0275615Y0136887D01*
X0275323Y0136939D01*
X0275031Y0136984D01*
X0274737Y0137022D01*
X0274443Y0137053D01*
X0274148Y0137077D01*
X0273853Y0137093D01*
X0273557Y0137102D01*
X0273261Y0137104D01*
X0272965Y0137098D01*
X0272669Y0137086D01*
X0272374Y0137066D01*
X0272079Y0137039D01*
X0271785Y0137005D01*
X0271492Y0136963D01*
X0271200Y0136915D01*
X0270910Y0136859D01*
X0270621Y0136796D01*
X0270333Y0136726D01*
X0270047Y0136649D01*
X0269763Y0136566D01*
X0269482Y0136475D01*
X0269202Y0136377D01*
X0268925Y0136273D01*
X0268651Y0136162D01*
X0268380Y0136044D01*
X0268111Y0135920D01*
X0267846Y0135789D01*
X0267584Y0135651D01*
X0267325Y0135508D01*
X0267070Y0135358D01*
X0266818Y0135201D01*
X0266571Y0135039D01*
X0266328Y0134871D01*
X0266088Y0134696D01*
X0265853Y0134516D01*
X0265623Y0134331D01*
X0265397Y0134139D01*
X0265176Y0133943D01*
X0264960Y0133741D01*
X0264749Y0133533D01*
X0264543Y0133321D01*
X0264342Y0133103D01*
X0264146Y0132881D01*
X0263956Y0132654D01*
X0263772Y0132423D01*
X0263594Y0132187D01*
X0263421Y0131947D01*
X0263254Y0131702D01*
X0263093Y0131454D01*
X0262938Y0131201D01*
X0262790Y0130945D01*
X0262648Y0130686D01*
X0262512Y0130423D01*
X0262382Y0130157D01*
X0262260Y0129888D01*
X0262143Y0129615D01*
X0262034Y0129340D01*
X0261931Y0129063D01*
X0261835Y0128783D01*
X0261746Y0128501D01*
X0261664Y0128216D01*
X0261589Y0127930D01*
X0261521Y0127642D01*
X0261460Y0127353D01*
X0261406Y0127062D01*
X0261359Y0126769D01*
X0261319Y0126476D01*
X0261287Y0126182D01*
X0261262Y0125887D01*
X0261243Y0125592D01*
X0261233Y0125296D01*
X0261229Y0125000D01*
X0261233Y0124704D01*
X0261243Y0124408D01*
X0261262Y0124113D01*
X0261287Y0123818D01*
X0261319Y0123524D01*
X0261359Y0123231D01*
X0261406Y0122938D01*
X0261460Y0122647D01*
X0261521Y0122358D01*
X0261589Y0122070D01*
X0261664Y0121784D01*
X0261746Y0121499D01*
X0261835Y0121217D01*
X0261931Y0120937D01*
X0262034Y0120660D01*
X0262143Y0120385D01*
X0262260Y0120112D01*
X0262382Y0119843D01*
X0262512Y0119577D01*
X0262648Y0119314D01*
X0262790Y0119055D01*
X0262938Y0118799D01*
X0263093Y0118546D01*
X0263254Y0118298D01*
X0263421Y0118053D01*
X0263594Y0117813D01*
X0263772Y0117577D01*
X0263956Y0117346D01*
X0264146Y0117119D01*
X0264342Y0116897D01*
X0264543Y0116679D01*
X0264749Y0116467D01*
X0264960Y0116259D01*
X0265176Y0116057D01*
X0265397Y0115861D01*
X0265623Y0115669D01*
X0265853Y0115484D01*
X0266088Y0115304D01*
X0266328Y0115129D01*
X0266571Y0114961D01*
X0266818Y0114799D01*
X0267070Y0114642D01*
X0267325Y0114492D01*
X0267584Y0114349D01*
X0267846Y0114211D01*
X0268111Y0114080D01*
X0268380Y0113956D01*
X0268651Y0113838D01*
X0268925Y0113727D01*
X0269202Y0113623D01*
X0269482Y0113525D01*
X0269763Y0113434D01*
X0270047Y0113351D01*
X0270333Y0113274D01*
X0270621Y0113204D01*
X0270910Y0113141D01*
X0271200Y0113085D01*
X0271492Y0113037D01*
X0271785Y0112995D01*
X0272079Y0112961D01*
X0272374Y0112934D01*
X0272669Y0112914D01*
X0272965Y0112902D01*
X0273261Y0112896D01*
X0273557Y0112898D01*
X0273853Y0112907D01*
X0274148Y0112923D01*
X0274443Y0112947D01*
X0274737Y0112978D01*
X0275031Y0113016D01*
X0275323Y0113061D01*
X0275615Y0113113D01*
X0275905Y0113172D01*
X0276193Y0113239D01*
X0276480Y0113312D01*
X0276765Y0113393D01*
X0277047Y0113480D01*
X0277328Y0113574D01*
X0277606Y0113675D01*
X0277882Y0113783D01*
X0278154Y0113898D01*
X0278424Y0114019D01*
X0278691Y0114147D01*
X0278955Y0114281D01*
X0279216Y0114422D01*
X0279472Y0114569D01*
X0279726Y0114722D01*
X0279975Y0114881D01*
X0280220Y0115047D01*
X0280462Y0115218D01*
X0280699Y0115395D01*
X0280931Y0115578D01*
X0281159Y0115767D01*
X0281383Y0115961D01*
X0281601Y0116160D01*
X0281815Y0116365D01*
X0282024Y0116575D01*
X0282227Y0116790D01*
X0282425Y0117010D01*
X0282618Y0117235D01*
X0282805Y0117464D01*
X0282986Y0117698D01*
D17*
X0192833Y0132500D02*
X0192833Y0096500D01*
X0160333Y0096500D01*
X0160333Y0132500D01*
X0192833Y0132500D01*
D18*
X0197083Y0124500D03*
X0197083Y0114500D03*
X0197083Y0104500D03*
M02*
