G75*
%MOIN*%
%OFA0B0*%
%FSLAX25Y25*%
%IPPOS*%
%LPD*%
%AMOC8*
5,1,8,0,0,1.08239X$1,22.5*
%
%ADD10C,0.00800*%
%ADD11C,0.08000*%
%ADD12C,0.07400*%
%ADD13C,0.12000*%
%ADD14C,0.00000*%
%ADD15C,0.07000*%
%ADD16C,0.06400*%
%ADD17C,0.08858*%
%ADD18C,0.01000*%
%ADD19C,0.01200*%
%ADD20C,0.04000*%
D10*
X0013333Y0035000D02*
X0413333Y0035000D01*
X0413333Y0410000D01*
X0013333Y0410000D01*
X0013333Y0035000D01*
D11*
X0153333Y0324500D03*
X0153333Y0335500D03*
X0153333Y0364500D03*
X0153333Y0375500D03*
D12*
X0203333Y0285000D03*
X0213333Y0285000D03*
X0213333Y0275000D03*
X0203333Y0275000D03*
X0203333Y0265000D03*
X0213333Y0265000D03*
X0213333Y0255000D03*
X0203333Y0255000D03*
X0203333Y0245000D03*
X0203333Y0235000D03*
X0213333Y0235000D03*
X0213333Y0245000D03*
X0213333Y0225000D03*
X0203333Y0225000D03*
X0203333Y0215000D03*
X0213333Y0215000D03*
X0213333Y0205000D03*
X0203333Y0205000D03*
X0203333Y0195000D03*
X0213333Y0195000D03*
X0258333Y0135000D03*
X0283333Y0120000D03*
X0293333Y0120000D03*
X0303333Y0095000D03*
X0301133Y0073900D03*
X0301133Y0056100D03*
X0275533Y0056100D03*
X0275533Y0073900D03*
X0273333Y0095000D03*
X0258333Y0105000D03*
X0283333Y0155000D03*
X0293333Y0155000D03*
X0303333Y0155000D03*
X0313333Y0155000D03*
X0323333Y0155000D03*
X0333333Y0155000D03*
X0343333Y0155000D03*
X0353333Y0155000D03*
X0328333Y0135000D03*
X0353333Y0120000D03*
X0363333Y0120000D03*
X0373333Y0095000D03*
X0371133Y0073900D03*
X0371133Y0056100D03*
X0345533Y0056100D03*
X0345533Y0073900D03*
X0343333Y0095000D03*
X0328333Y0105000D03*
X0333333Y0260000D03*
X0303333Y0260000D03*
X0303333Y0315000D03*
X0293333Y0315000D03*
X0283333Y0315000D03*
X0313333Y0315000D03*
X0323333Y0315000D03*
X0333333Y0315000D03*
X0343333Y0315000D03*
X0353333Y0315000D03*
X0113333Y0155000D03*
X0083333Y0155000D03*
X0068333Y0155000D03*
X0068333Y0135000D03*
X0068333Y0115000D03*
X0068333Y0095000D03*
X0038333Y0095000D03*
X0038333Y0115000D03*
X0038333Y0135000D03*
X0038333Y0155000D03*
X0038333Y0175000D03*
X0033333Y0195000D03*
X0033333Y0205000D03*
X0033333Y0215000D03*
X0033333Y0225000D03*
X0033333Y0235000D03*
X0033333Y0245000D03*
X0033333Y0255000D03*
X0033333Y0265000D03*
X0033333Y0275000D03*
X0033333Y0285000D03*
X0043333Y0285000D03*
X0043333Y0275000D03*
X0043333Y0265000D03*
X0043333Y0255000D03*
X0043333Y0245000D03*
X0043333Y0235000D03*
X0043333Y0225000D03*
X0043333Y0215000D03*
X0043333Y0205000D03*
X0043333Y0195000D03*
X0068333Y0175000D03*
D13*
X0029333Y0323000D03*
X0029333Y0374000D03*
D14*
X0057833Y0350000D02*
X0057835Y0350161D01*
X0057841Y0350321D01*
X0057851Y0350482D01*
X0057865Y0350642D01*
X0057883Y0350802D01*
X0057904Y0350961D01*
X0057930Y0351120D01*
X0057960Y0351278D01*
X0057993Y0351435D01*
X0058031Y0351592D01*
X0058072Y0351747D01*
X0058117Y0351901D01*
X0058166Y0352054D01*
X0058219Y0352206D01*
X0058275Y0352357D01*
X0058336Y0352506D01*
X0058399Y0352654D01*
X0058467Y0352800D01*
X0058538Y0352944D01*
X0058612Y0353086D01*
X0058690Y0353227D01*
X0058772Y0353365D01*
X0058857Y0353502D01*
X0058945Y0353636D01*
X0059037Y0353768D01*
X0059132Y0353898D01*
X0059230Y0354026D01*
X0059331Y0354151D01*
X0059435Y0354273D01*
X0059542Y0354393D01*
X0059652Y0354510D01*
X0059765Y0354625D01*
X0059881Y0354736D01*
X0060000Y0354845D01*
X0060121Y0354950D01*
X0060245Y0355053D01*
X0060371Y0355153D01*
X0060499Y0355249D01*
X0060630Y0355342D01*
X0060764Y0355432D01*
X0060899Y0355519D01*
X0061037Y0355602D01*
X0061176Y0355682D01*
X0061318Y0355758D01*
X0061461Y0355831D01*
X0061606Y0355900D01*
X0061753Y0355966D01*
X0061901Y0356028D01*
X0062051Y0356086D01*
X0062202Y0356141D01*
X0062355Y0356192D01*
X0062509Y0356239D01*
X0062664Y0356282D01*
X0062820Y0356321D01*
X0062976Y0356357D01*
X0063134Y0356388D01*
X0063292Y0356416D01*
X0063451Y0356440D01*
X0063611Y0356460D01*
X0063771Y0356476D01*
X0063931Y0356488D01*
X0064092Y0356496D01*
X0064253Y0356500D01*
X0064413Y0356500D01*
X0064574Y0356496D01*
X0064735Y0356488D01*
X0064895Y0356476D01*
X0065055Y0356460D01*
X0065215Y0356440D01*
X0065374Y0356416D01*
X0065532Y0356388D01*
X0065690Y0356357D01*
X0065846Y0356321D01*
X0066002Y0356282D01*
X0066157Y0356239D01*
X0066311Y0356192D01*
X0066464Y0356141D01*
X0066615Y0356086D01*
X0066765Y0356028D01*
X0066913Y0355966D01*
X0067060Y0355900D01*
X0067205Y0355831D01*
X0067348Y0355758D01*
X0067490Y0355682D01*
X0067629Y0355602D01*
X0067767Y0355519D01*
X0067902Y0355432D01*
X0068036Y0355342D01*
X0068167Y0355249D01*
X0068295Y0355153D01*
X0068421Y0355053D01*
X0068545Y0354950D01*
X0068666Y0354845D01*
X0068785Y0354736D01*
X0068901Y0354625D01*
X0069014Y0354510D01*
X0069124Y0354393D01*
X0069231Y0354273D01*
X0069335Y0354151D01*
X0069436Y0354026D01*
X0069534Y0353898D01*
X0069629Y0353768D01*
X0069721Y0353636D01*
X0069809Y0353502D01*
X0069894Y0353365D01*
X0069976Y0353227D01*
X0070054Y0353086D01*
X0070128Y0352944D01*
X0070199Y0352800D01*
X0070267Y0352654D01*
X0070330Y0352506D01*
X0070391Y0352357D01*
X0070447Y0352206D01*
X0070500Y0352054D01*
X0070549Y0351901D01*
X0070594Y0351747D01*
X0070635Y0351592D01*
X0070673Y0351435D01*
X0070706Y0351278D01*
X0070736Y0351120D01*
X0070762Y0350961D01*
X0070783Y0350802D01*
X0070801Y0350642D01*
X0070815Y0350482D01*
X0070825Y0350321D01*
X0070831Y0350161D01*
X0070833Y0350000D01*
X0070831Y0349839D01*
X0070825Y0349679D01*
X0070815Y0349518D01*
X0070801Y0349358D01*
X0070783Y0349198D01*
X0070762Y0349039D01*
X0070736Y0348880D01*
X0070706Y0348722D01*
X0070673Y0348565D01*
X0070635Y0348408D01*
X0070594Y0348253D01*
X0070549Y0348099D01*
X0070500Y0347946D01*
X0070447Y0347794D01*
X0070391Y0347643D01*
X0070330Y0347494D01*
X0070267Y0347346D01*
X0070199Y0347200D01*
X0070128Y0347056D01*
X0070054Y0346914D01*
X0069976Y0346773D01*
X0069894Y0346635D01*
X0069809Y0346498D01*
X0069721Y0346364D01*
X0069629Y0346232D01*
X0069534Y0346102D01*
X0069436Y0345974D01*
X0069335Y0345849D01*
X0069231Y0345727D01*
X0069124Y0345607D01*
X0069014Y0345490D01*
X0068901Y0345375D01*
X0068785Y0345264D01*
X0068666Y0345155D01*
X0068545Y0345050D01*
X0068421Y0344947D01*
X0068295Y0344847D01*
X0068167Y0344751D01*
X0068036Y0344658D01*
X0067902Y0344568D01*
X0067767Y0344481D01*
X0067629Y0344398D01*
X0067490Y0344318D01*
X0067348Y0344242D01*
X0067205Y0344169D01*
X0067060Y0344100D01*
X0066913Y0344034D01*
X0066765Y0343972D01*
X0066615Y0343914D01*
X0066464Y0343859D01*
X0066311Y0343808D01*
X0066157Y0343761D01*
X0066002Y0343718D01*
X0065846Y0343679D01*
X0065690Y0343643D01*
X0065532Y0343612D01*
X0065374Y0343584D01*
X0065215Y0343560D01*
X0065055Y0343540D01*
X0064895Y0343524D01*
X0064735Y0343512D01*
X0064574Y0343504D01*
X0064413Y0343500D01*
X0064253Y0343500D01*
X0064092Y0343504D01*
X0063931Y0343512D01*
X0063771Y0343524D01*
X0063611Y0343540D01*
X0063451Y0343560D01*
X0063292Y0343584D01*
X0063134Y0343612D01*
X0062976Y0343643D01*
X0062820Y0343679D01*
X0062664Y0343718D01*
X0062509Y0343761D01*
X0062355Y0343808D01*
X0062202Y0343859D01*
X0062051Y0343914D01*
X0061901Y0343972D01*
X0061753Y0344034D01*
X0061606Y0344100D01*
X0061461Y0344169D01*
X0061318Y0344242D01*
X0061176Y0344318D01*
X0061037Y0344398D01*
X0060899Y0344481D01*
X0060764Y0344568D01*
X0060630Y0344658D01*
X0060499Y0344751D01*
X0060371Y0344847D01*
X0060245Y0344947D01*
X0060121Y0345050D01*
X0060000Y0345155D01*
X0059881Y0345264D01*
X0059765Y0345375D01*
X0059652Y0345490D01*
X0059542Y0345607D01*
X0059435Y0345727D01*
X0059331Y0345849D01*
X0059230Y0345974D01*
X0059132Y0346102D01*
X0059037Y0346232D01*
X0058945Y0346364D01*
X0058857Y0346498D01*
X0058772Y0346635D01*
X0058690Y0346773D01*
X0058612Y0346914D01*
X0058538Y0347056D01*
X0058467Y0347200D01*
X0058399Y0347346D01*
X0058336Y0347494D01*
X0058275Y0347643D01*
X0058219Y0347794D01*
X0058166Y0347946D01*
X0058117Y0348099D01*
X0058072Y0348253D01*
X0058031Y0348408D01*
X0057993Y0348565D01*
X0057960Y0348722D01*
X0057930Y0348880D01*
X0057904Y0349039D01*
X0057883Y0349198D01*
X0057865Y0349358D01*
X0057851Y0349518D01*
X0057841Y0349679D01*
X0057835Y0349839D01*
X0057833Y0350000D01*
X0073833Y0393000D02*
X0073835Y0393134D01*
X0073841Y0393268D01*
X0073851Y0393401D01*
X0073865Y0393535D01*
X0073883Y0393668D01*
X0073905Y0393800D01*
X0073930Y0393931D01*
X0073960Y0394062D01*
X0073994Y0394192D01*
X0074031Y0394320D01*
X0074072Y0394448D01*
X0074117Y0394574D01*
X0074166Y0394699D01*
X0074218Y0394822D01*
X0074274Y0394944D01*
X0074334Y0395064D01*
X0074397Y0395182D01*
X0074464Y0395298D01*
X0074534Y0395412D01*
X0074608Y0395524D01*
X0074685Y0395634D01*
X0074765Y0395742D01*
X0074848Y0395847D01*
X0074934Y0395949D01*
X0075023Y0396049D01*
X0075116Y0396146D01*
X0075211Y0396241D01*
X0075309Y0396332D01*
X0075409Y0396421D01*
X0075512Y0396506D01*
X0075618Y0396589D01*
X0075726Y0396668D01*
X0075836Y0396744D01*
X0075949Y0396817D01*
X0076064Y0396886D01*
X0076180Y0396952D01*
X0076299Y0397014D01*
X0076419Y0397073D01*
X0076542Y0397128D01*
X0076665Y0397180D01*
X0076790Y0397227D01*
X0076917Y0397271D01*
X0077045Y0397312D01*
X0077174Y0397348D01*
X0077304Y0397381D01*
X0077435Y0397409D01*
X0077566Y0397434D01*
X0077699Y0397455D01*
X0077832Y0397472D01*
X0077965Y0397485D01*
X0078099Y0397494D01*
X0078233Y0397499D01*
X0078367Y0397500D01*
X0078500Y0397497D01*
X0078634Y0397490D01*
X0078768Y0397479D01*
X0078901Y0397464D01*
X0079034Y0397445D01*
X0079166Y0397422D01*
X0079297Y0397396D01*
X0079427Y0397365D01*
X0079557Y0397330D01*
X0079685Y0397292D01*
X0079812Y0397250D01*
X0079938Y0397204D01*
X0080063Y0397154D01*
X0080186Y0397101D01*
X0080307Y0397044D01*
X0080427Y0396983D01*
X0080544Y0396919D01*
X0080660Y0396852D01*
X0080774Y0396781D01*
X0080885Y0396706D01*
X0080994Y0396629D01*
X0081101Y0396548D01*
X0081206Y0396464D01*
X0081307Y0396377D01*
X0081407Y0396287D01*
X0081503Y0396194D01*
X0081597Y0396098D01*
X0081688Y0395999D01*
X0081775Y0395898D01*
X0081860Y0395794D01*
X0081942Y0395688D01*
X0082020Y0395580D01*
X0082095Y0395469D01*
X0082167Y0395356D01*
X0082236Y0395240D01*
X0082301Y0395123D01*
X0082362Y0395004D01*
X0082420Y0394883D01*
X0082474Y0394761D01*
X0082525Y0394637D01*
X0082572Y0394511D01*
X0082615Y0394384D01*
X0082654Y0394256D01*
X0082690Y0394127D01*
X0082721Y0393997D01*
X0082749Y0393866D01*
X0082773Y0393734D01*
X0082793Y0393601D01*
X0082809Y0393468D01*
X0082821Y0393335D01*
X0082829Y0393201D01*
X0082833Y0393067D01*
X0082833Y0392933D01*
X0082829Y0392799D01*
X0082821Y0392665D01*
X0082809Y0392532D01*
X0082793Y0392399D01*
X0082773Y0392266D01*
X0082749Y0392134D01*
X0082721Y0392003D01*
X0082690Y0391873D01*
X0082654Y0391744D01*
X0082615Y0391616D01*
X0082572Y0391489D01*
X0082525Y0391363D01*
X0082474Y0391239D01*
X0082420Y0391117D01*
X0082362Y0390996D01*
X0082301Y0390877D01*
X0082236Y0390760D01*
X0082167Y0390644D01*
X0082095Y0390531D01*
X0082020Y0390420D01*
X0081942Y0390312D01*
X0081860Y0390206D01*
X0081775Y0390102D01*
X0081688Y0390001D01*
X0081597Y0389902D01*
X0081503Y0389806D01*
X0081407Y0389713D01*
X0081307Y0389623D01*
X0081206Y0389536D01*
X0081101Y0389452D01*
X0080994Y0389371D01*
X0080885Y0389294D01*
X0080774Y0389219D01*
X0080660Y0389148D01*
X0080544Y0389081D01*
X0080427Y0389017D01*
X0080307Y0388956D01*
X0080186Y0388899D01*
X0080063Y0388846D01*
X0079938Y0388796D01*
X0079812Y0388750D01*
X0079685Y0388708D01*
X0079557Y0388670D01*
X0079427Y0388635D01*
X0079297Y0388604D01*
X0079166Y0388578D01*
X0079034Y0388555D01*
X0078901Y0388536D01*
X0078768Y0388521D01*
X0078634Y0388510D01*
X0078500Y0388503D01*
X0078367Y0388500D01*
X0078233Y0388501D01*
X0078099Y0388506D01*
X0077965Y0388515D01*
X0077832Y0388528D01*
X0077699Y0388545D01*
X0077566Y0388566D01*
X0077435Y0388591D01*
X0077304Y0388619D01*
X0077174Y0388652D01*
X0077045Y0388688D01*
X0076917Y0388729D01*
X0076790Y0388773D01*
X0076665Y0388820D01*
X0076542Y0388872D01*
X0076419Y0388927D01*
X0076299Y0388986D01*
X0076180Y0389048D01*
X0076064Y0389114D01*
X0075949Y0389183D01*
X0075836Y0389256D01*
X0075726Y0389332D01*
X0075618Y0389411D01*
X0075512Y0389494D01*
X0075409Y0389579D01*
X0075309Y0389668D01*
X0075211Y0389759D01*
X0075116Y0389854D01*
X0075023Y0389951D01*
X0074934Y0390051D01*
X0074848Y0390153D01*
X0074765Y0390258D01*
X0074685Y0390366D01*
X0074608Y0390476D01*
X0074534Y0390588D01*
X0074464Y0390702D01*
X0074397Y0390818D01*
X0074334Y0390936D01*
X0074274Y0391056D01*
X0074218Y0391178D01*
X0074166Y0391301D01*
X0074117Y0391426D01*
X0074072Y0391552D01*
X0074031Y0391680D01*
X0073994Y0391808D01*
X0073960Y0391938D01*
X0073930Y0392069D01*
X0073905Y0392200D01*
X0073883Y0392332D01*
X0073865Y0392465D01*
X0073851Y0392599D01*
X0073841Y0392732D01*
X0073835Y0392866D01*
X0073833Y0393000D01*
X0126833Y0305000D02*
X0126835Y0305134D01*
X0126841Y0305268D01*
X0126851Y0305401D01*
X0126865Y0305535D01*
X0126883Y0305668D01*
X0126905Y0305800D01*
X0126930Y0305931D01*
X0126960Y0306062D01*
X0126994Y0306192D01*
X0127031Y0306320D01*
X0127072Y0306448D01*
X0127117Y0306574D01*
X0127166Y0306699D01*
X0127218Y0306822D01*
X0127274Y0306944D01*
X0127334Y0307064D01*
X0127397Y0307182D01*
X0127464Y0307298D01*
X0127534Y0307412D01*
X0127608Y0307524D01*
X0127685Y0307634D01*
X0127765Y0307742D01*
X0127848Y0307847D01*
X0127934Y0307949D01*
X0128023Y0308049D01*
X0128116Y0308146D01*
X0128211Y0308241D01*
X0128309Y0308332D01*
X0128409Y0308421D01*
X0128512Y0308506D01*
X0128618Y0308589D01*
X0128726Y0308668D01*
X0128836Y0308744D01*
X0128949Y0308817D01*
X0129064Y0308886D01*
X0129180Y0308952D01*
X0129299Y0309014D01*
X0129419Y0309073D01*
X0129542Y0309128D01*
X0129665Y0309180D01*
X0129790Y0309227D01*
X0129917Y0309271D01*
X0130045Y0309312D01*
X0130174Y0309348D01*
X0130304Y0309381D01*
X0130435Y0309409D01*
X0130566Y0309434D01*
X0130699Y0309455D01*
X0130832Y0309472D01*
X0130965Y0309485D01*
X0131099Y0309494D01*
X0131233Y0309499D01*
X0131367Y0309500D01*
X0131500Y0309497D01*
X0131634Y0309490D01*
X0131768Y0309479D01*
X0131901Y0309464D01*
X0132034Y0309445D01*
X0132166Y0309422D01*
X0132297Y0309396D01*
X0132427Y0309365D01*
X0132557Y0309330D01*
X0132685Y0309292D01*
X0132812Y0309250D01*
X0132938Y0309204D01*
X0133063Y0309154D01*
X0133186Y0309101D01*
X0133307Y0309044D01*
X0133427Y0308983D01*
X0133544Y0308919D01*
X0133660Y0308852D01*
X0133774Y0308781D01*
X0133885Y0308706D01*
X0133994Y0308629D01*
X0134101Y0308548D01*
X0134206Y0308464D01*
X0134307Y0308377D01*
X0134407Y0308287D01*
X0134503Y0308194D01*
X0134597Y0308098D01*
X0134688Y0307999D01*
X0134775Y0307898D01*
X0134860Y0307794D01*
X0134942Y0307688D01*
X0135020Y0307580D01*
X0135095Y0307469D01*
X0135167Y0307356D01*
X0135236Y0307240D01*
X0135301Y0307123D01*
X0135362Y0307004D01*
X0135420Y0306883D01*
X0135474Y0306761D01*
X0135525Y0306637D01*
X0135572Y0306511D01*
X0135615Y0306384D01*
X0135654Y0306256D01*
X0135690Y0306127D01*
X0135721Y0305997D01*
X0135749Y0305866D01*
X0135773Y0305734D01*
X0135793Y0305601D01*
X0135809Y0305468D01*
X0135821Y0305335D01*
X0135829Y0305201D01*
X0135833Y0305067D01*
X0135833Y0304933D01*
X0135829Y0304799D01*
X0135821Y0304665D01*
X0135809Y0304532D01*
X0135793Y0304399D01*
X0135773Y0304266D01*
X0135749Y0304134D01*
X0135721Y0304003D01*
X0135690Y0303873D01*
X0135654Y0303744D01*
X0135615Y0303616D01*
X0135572Y0303489D01*
X0135525Y0303363D01*
X0135474Y0303239D01*
X0135420Y0303117D01*
X0135362Y0302996D01*
X0135301Y0302877D01*
X0135236Y0302760D01*
X0135167Y0302644D01*
X0135095Y0302531D01*
X0135020Y0302420D01*
X0134942Y0302312D01*
X0134860Y0302206D01*
X0134775Y0302102D01*
X0134688Y0302001D01*
X0134597Y0301902D01*
X0134503Y0301806D01*
X0134407Y0301713D01*
X0134307Y0301623D01*
X0134206Y0301536D01*
X0134101Y0301452D01*
X0133994Y0301371D01*
X0133885Y0301294D01*
X0133774Y0301219D01*
X0133660Y0301148D01*
X0133544Y0301081D01*
X0133427Y0301017D01*
X0133307Y0300956D01*
X0133186Y0300899D01*
X0133063Y0300846D01*
X0132938Y0300796D01*
X0132812Y0300750D01*
X0132685Y0300708D01*
X0132557Y0300670D01*
X0132427Y0300635D01*
X0132297Y0300604D01*
X0132166Y0300578D01*
X0132034Y0300555D01*
X0131901Y0300536D01*
X0131768Y0300521D01*
X0131634Y0300510D01*
X0131500Y0300503D01*
X0131367Y0300500D01*
X0131233Y0300501D01*
X0131099Y0300506D01*
X0130965Y0300515D01*
X0130832Y0300528D01*
X0130699Y0300545D01*
X0130566Y0300566D01*
X0130435Y0300591D01*
X0130304Y0300619D01*
X0130174Y0300652D01*
X0130045Y0300688D01*
X0129917Y0300729D01*
X0129790Y0300773D01*
X0129665Y0300820D01*
X0129542Y0300872D01*
X0129419Y0300927D01*
X0129299Y0300986D01*
X0129180Y0301048D01*
X0129064Y0301114D01*
X0128949Y0301183D01*
X0128836Y0301256D01*
X0128726Y0301332D01*
X0128618Y0301411D01*
X0128512Y0301494D01*
X0128409Y0301579D01*
X0128309Y0301668D01*
X0128211Y0301759D01*
X0128116Y0301854D01*
X0128023Y0301951D01*
X0127934Y0302051D01*
X0127848Y0302153D01*
X0127765Y0302258D01*
X0127685Y0302366D01*
X0127608Y0302476D01*
X0127534Y0302588D01*
X0127464Y0302702D01*
X0127397Y0302818D01*
X0127334Y0302936D01*
X0127274Y0303056D01*
X0127218Y0303178D01*
X0127166Y0303301D01*
X0127117Y0303426D01*
X0127072Y0303552D01*
X0127031Y0303680D01*
X0126994Y0303808D01*
X0126960Y0303938D01*
X0126930Y0304069D01*
X0126905Y0304200D01*
X0126883Y0304332D01*
X0126865Y0304465D01*
X0126851Y0304599D01*
X0126841Y0304732D01*
X0126835Y0304866D01*
X0126833Y0305000D01*
X0179833Y0393000D02*
X0179835Y0393134D01*
X0179841Y0393268D01*
X0179851Y0393401D01*
X0179865Y0393535D01*
X0179883Y0393668D01*
X0179905Y0393800D01*
X0179930Y0393931D01*
X0179960Y0394062D01*
X0179994Y0394192D01*
X0180031Y0394320D01*
X0180072Y0394448D01*
X0180117Y0394574D01*
X0180166Y0394699D01*
X0180218Y0394822D01*
X0180274Y0394944D01*
X0180334Y0395064D01*
X0180397Y0395182D01*
X0180464Y0395298D01*
X0180534Y0395412D01*
X0180608Y0395524D01*
X0180685Y0395634D01*
X0180765Y0395742D01*
X0180848Y0395847D01*
X0180934Y0395949D01*
X0181023Y0396049D01*
X0181116Y0396146D01*
X0181211Y0396241D01*
X0181309Y0396332D01*
X0181409Y0396421D01*
X0181512Y0396506D01*
X0181618Y0396589D01*
X0181726Y0396668D01*
X0181836Y0396744D01*
X0181949Y0396817D01*
X0182064Y0396886D01*
X0182180Y0396952D01*
X0182299Y0397014D01*
X0182419Y0397073D01*
X0182542Y0397128D01*
X0182665Y0397180D01*
X0182790Y0397227D01*
X0182917Y0397271D01*
X0183045Y0397312D01*
X0183174Y0397348D01*
X0183304Y0397381D01*
X0183435Y0397409D01*
X0183566Y0397434D01*
X0183699Y0397455D01*
X0183832Y0397472D01*
X0183965Y0397485D01*
X0184099Y0397494D01*
X0184233Y0397499D01*
X0184367Y0397500D01*
X0184500Y0397497D01*
X0184634Y0397490D01*
X0184768Y0397479D01*
X0184901Y0397464D01*
X0185034Y0397445D01*
X0185166Y0397422D01*
X0185297Y0397396D01*
X0185427Y0397365D01*
X0185557Y0397330D01*
X0185685Y0397292D01*
X0185812Y0397250D01*
X0185938Y0397204D01*
X0186063Y0397154D01*
X0186186Y0397101D01*
X0186307Y0397044D01*
X0186427Y0396983D01*
X0186544Y0396919D01*
X0186660Y0396852D01*
X0186774Y0396781D01*
X0186885Y0396706D01*
X0186994Y0396629D01*
X0187101Y0396548D01*
X0187206Y0396464D01*
X0187307Y0396377D01*
X0187407Y0396287D01*
X0187503Y0396194D01*
X0187597Y0396098D01*
X0187688Y0395999D01*
X0187775Y0395898D01*
X0187860Y0395794D01*
X0187942Y0395688D01*
X0188020Y0395580D01*
X0188095Y0395469D01*
X0188167Y0395356D01*
X0188236Y0395240D01*
X0188301Y0395123D01*
X0188362Y0395004D01*
X0188420Y0394883D01*
X0188474Y0394761D01*
X0188525Y0394637D01*
X0188572Y0394511D01*
X0188615Y0394384D01*
X0188654Y0394256D01*
X0188690Y0394127D01*
X0188721Y0393997D01*
X0188749Y0393866D01*
X0188773Y0393734D01*
X0188793Y0393601D01*
X0188809Y0393468D01*
X0188821Y0393335D01*
X0188829Y0393201D01*
X0188833Y0393067D01*
X0188833Y0392933D01*
X0188829Y0392799D01*
X0188821Y0392665D01*
X0188809Y0392532D01*
X0188793Y0392399D01*
X0188773Y0392266D01*
X0188749Y0392134D01*
X0188721Y0392003D01*
X0188690Y0391873D01*
X0188654Y0391744D01*
X0188615Y0391616D01*
X0188572Y0391489D01*
X0188525Y0391363D01*
X0188474Y0391239D01*
X0188420Y0391117D01*
X0188362Y0390996D01*
X0188301Y0390877D01*
X0188236Y0390760D01*
X0188167Y0390644D01*
X0188095Y0390531D01*
X0188020Y0390420D01*
X0187942Y0390312D01*
X0187860Y0390206D01*
X0187775Y0390102D01*
X0187688Y0390001D01*
X0187597Y0389902D01*
X0187503Y0389806D01*
X0187407Y0389713D01*
X0187307Y0389623D01*
X0187206Y0389536D01*
X0187101Y0389452D01*
X0186994Y0389371D01*
X0186885Y0389294D01*
X0186774Y0389219D01*
X0186660Y0389148D01*
X0186544Y0389081D01*
X0186427Y0389017D01*
X0186307Y0388956D01*
X0186186Y0388899D01*
X0186063Y0388846D01*
X0185938Y0388796D01*
X0185812Y0388750D01*
X0185685Y0388708D01*
X0185557Y0388670D01*
X0185427Y0388635D01*
X0185297Y0388604D01*
X0185166Y0388578D01*
X0185034Y0388555D01*
X0184901Y0388536D01*
X0184768Y0388521D01*
X0184634Y0388510D01*
X0184500Y0388503D01*
X0184367Y0388500D01*
X0184233Y0388501D01*
X0184099Y0388506D01*
X0183965Y0388515D01*
X0183832Y0388528D01*
X0183699Y0388545D01*
X0183566Y0388566D01*
X0183435Y0388591D01*
X0183304Y0388619D01*
X0183174Y0388652D01*
X0183045Y0388688D01*
X0182917Y0388729D01*
X0182790Y0388773D01*
X0182665Y0388820D01*
X0182542Y0388872D01*
X0182419Y0388927D01*
X0182299Y0388986D01*
X0182180Y0389048D01*
X0182064Y0389114D01*
X0181949Y0389183D01*
X0181836Y0389256D01*
X0181726Y0389332D01*
X0181618Y0389411D01*
X0181512Y0389494D01*
X0181409Y0389579D01*
X0181309Y0389668D01*
X0181211Y0389759D01*
X0181116Y0389854D01*
X0181023Y0389951D01*
X0180934Y0390051D01*
X0180848Y0390153D01*
X0180765Y0390258D01*
X0180685Y0390366D01*
X0180608Y0390476D01*
X0180534Y0390588D01*
X0180464Y0390702D01*
X0180397Y0390818D01*
X0180334Y0390936D01*
X0180274Y0391056D01*
X0180218Y0391178D01*
X0180166Y0391301D01*
X0180117Y0391426D01*
X0180072Y0391552D01*
X0180031Y0391680D01*
X0179994Y0391808D01*
X0179960Y0391938D01*
X0179930Y0392069D01*
X0179905Y0392200D01*
X0179883Y0392332D01*
X0179865Y0392465D01*
X0179851Y0392599D01*
X0179841Y0392732D01*
X0179835Y0392866D01*
X0179833Y0393000D01*
D15*
X0190538Y0115000D03*
X0216129Y0115000D03*
D16*
X0126533Y0340000D02*
X0120133Y0340000D01*
X0120133Y0350000D02*
X0126533Y0350000D01*
X0126533Y0360000D02*
X0120133Y0360000D01*
D17*
X0198963Y0072874D03*
X0198963Y0057126D03*
X0027703Y0072874D03*
D18*
X0021574Y0072943D02*
X0015433Y0072943D01*
X0015433Y0071945D02*
X0021574Y0071945D01*
X0021574Y0071655D02*
X0022507Y0069402D01*
X0024232Y0067678D01*
X0026484Y0066745D01*
X0028923Y0066745D01*
X0031175Y0067678D01*
X0032899Y0069402D01*
X0033833Y0071655D01*
X0033833Y0074093D01*
X0032899Y0076346D01*
X0031175Y0078070D01*
X0028923Y0079003D01*
X0026484Y0079003D01*
X0024232Y0078070D01*
X0022507Y0076346D01*
X0021574Y0074093D01*
X0021574Y0071655D01*
X0021868Y0070946D02*
X0015433Y0070946D01*
X0015433Y0069948D02*
X0022281Y0069948D01*
X0022960Y0068949D02*
X0015433Y0068949D01*
X0015433Y0067951D02*
X0023959Y0067951D01*
X0025983Y0066952D02*
X0015433Y0066952D01*
X0015433Y0065954D02*
X0086768Y0065954D01*
X0085770Y0066952D02*
X0029423Y0066952D01*
X0031448Y0067951D02*
X0084771Y0067951D01*
X0083773Y0068949D02*
X0032447Y0068949D01*
X0033125Y0069948D02*
X0082774Y0069948D01*
X0081776Y0070946D02*
X0033539Y0070946D01*
X0033833Y0071945D02*
X0080777Y0071945D01*
X0079779Y0072943D02*
X0033833Y0072943D01*
X0033833Y0073942D02*
X0078780Y0073942D01*
X0077782Y0074940D02*
X0033482Y0074940D01*
X0033068Y0075939D02*
X0076783Y0075939D01*
X0075785Y0076937D02*
X0032308Y0076937D01*
X0031309Y0077936D02*
X0074786Y0077936D01*
X0073788Y0078934D02*
X0029088Y0078934D01*
X0026319Y0078934D02*
X0015433Y0078934D01*
X0015433Y0077936D02*
X0024097Y0077936D01*
X0023099Y0076937D02*
X0015433Y0076937D01*
X0015433Y0075939D02*
X0022339Y0075939D01*
X0021925Y0074940D02*
X0015433Y0074940D01*
X0015433Y0073942D02*
X0021574Y0073942D01*
X0015433Y0079933D02*
X0072789Y0079933D01*
X0071791Y0080932D02*
X0015433Y0080932D01*
X0015433Y0081930D02*
X0070792Y0081930D01*
X0069794Y0082929D02*
X0015433Y0082929D01*
X0015433Y0083927D02*
X0068795Y0083927D01*
X0067796Y0084926D02*
X0015433Y0084926D01*
X0015433Y0085924D02*
X0066798Y0085924D01*
X0065799Y0086923D02*
X0015433Y0086923D01*
X0015433Y0087921D02*
X0064801Y0087921D01*
X0063802Y0088920D02*
X0015433Y0088920D01*
X0015433Y0089918D02*
X0036491Y0089918D01*
X0037259Y0089600D02*
X0039407Y0089600D01*
X0041392Y0090422D01*
X0042911Y0091941D01*
X0043733Y0093926D01*
X0043733Y0096074D01*
X0042911Y0098059D01*
X0041392Y0099578D01*
X0040533Y0099934D01*
X0040533Y0110066D01*
X0041392Y0110422D01*
X0042911Y0111941D01*
X0043733Y0113926D01*
X0043733Y0116074D01*
X0042911Y0118059D01*
X0041392Y0119578D01*
X0040533Y0119934D01*
X0040533Y0130066D01*
X0041392Y0130422D01*
X0042911Y0131941D01*
X0043733Y0133926D01*
X0043733Y0136074D01*
X0042911Y0138059D01*
X0041392Y0139578D01*
X0040533Y0139934D01*
X0040533Y0150066D01*
X0041392Y0150422D01*
X0042911Y0151941D01*
X0043733Y0153926D01*
X0043733Y0156074D01*
X0042911Y0158059D01*
X0041392Y0159578D01*
X0040533Y0159934D01*
X0040533Y0170066D01*
X0041392Y0170422D01*
X0042911Y0171941D01*
X0043733Y0173926D01*
X0043733Y0173989D01*
X0044633Y0173089D01*
X0044633Y0171764D01*
X0045197Y0170404D01*
X0046237Y0169363D01*
X0047597Y0168800D01*
X0049069Y0168800D01*
X0050429Y0169363D01*
X0051133Y0170067D01*
X0051133Y0101589D01*
X0096133Y0056589D01*
X0097422Y0055300D01*
X0193085Y0055300D01*
X0193767Y0053654D01*
X0195491Y0051930D01*
X0197744Y0050997D01*
X0200182Y0050997D01*
X0202435Y0051930D01*
X0204159Y0053654D01*
X0205092Y0055907D01*
X0205092Y0058345D01*
X0204159Y0060598D01*
X0202435Y0062322D01*
X0200182Y0063255D01*
X0197744Y0063255D01*
X0195491Y0062322D01*
X0193767Y0060598D01*
X0193395Y0059700D01*
X0099245Y0059700D01*
X0069345Y0089600D01*
X0069407Y0089600D01*
X0071392Y0090422D01*
X0072911Y0091941D01*
X0073733Y0093926D01*
X0073733Y0096074D01*
X0072911Y0098059D01*
X0071392Y0099578D01*
X0070533Y0099934D01*
X0070533Y0110066D01*
X0071392Y0110422D01*
X0072911Y0111941D01*
X0073267Y0112800D01*
X0185821Y0112800D01*
X0186130Y0112054D01*
X0187592Y0110592D01*
X0189504Y0109800D01*
X0191572Y0109800D01*
X0193484Y0110592D01*
X0194946Y0112054D01*
X0195738Y0113966D01*
X0195738Y0116034D01*
X0194946Y0117946D01*
X0193484Y0119408D01*
X0191572Y0120200D01*
X0189504Y0120200D01*
X0187592Y0119408D01*
X0186130Y0117946D01*
X0185821Y0117200D01*
X0115533Y0117200D01*
X0115533Y0150066D01*
X0116392Y0150422D01*
X0117911Y0151941D01*
X0118733Y0153926D01*
X0118733Y0156074D01*
X0117911Y0158059D01*
X0116392Y0159578D01*
X0114407Y0160400D01*
X0112259Y0160400D01*
X0110274Y0159578D01*
X0108755Y0158059D01*
X0107933Y0156074D01*
X0107933Y0153926D01*
X0108755Y0151941D01*
X0110274Y0150422D01*
X0111133Y0150066D01*
X0111133Y0117200D01*
X0073267Y0117200D01*
X0072911Y0118059D01*
X0071392Y0119578D01*
X0070533Y0119934D01*
X0070533Y0130066D01*
X0071392Y0130422D01*
X0072911Y0131941D01*
X0073733Y0133926D01*
X0073733Y0136074D01*
X0072911Y0138059D01*
X0071392Y0139578D01*
X0069407Y0140400D01*
X0067259Y0140400D01*
X0065274Y0139578D01*
X0063755Y0138059D01*
X0062933Y0136074D01*
X0062933Y0133926D01*
X0063755Y0131941D01*
X0065274Y0130422D01*
X0066133Y0130066D01*
X0066133Y0119934D01*
X0065274Y0119578D01*
X0063755Y0118059D01*
X0062933Y0116074D01*
X0062933Y0113926D01*
X0063755Y0111941D01*
X0065274Y0110422D01*
X0066133Y0110066D01*
X0066133Y0099934D01*
X0065274Y0099578D01*
X0063755Y0098059D01*
X0062933Y0096074D01*
X0062933Y0096011D01*
X0055533Y0103411D01*
X0055533Y0175067D01*
X0056237Y0174363D01*
X0057597Y0173800D01*
X0059069Y0173800D01*
X0060429Y0174363D01*
X0061470Y0175404D01*
X0062033Y0176764D01*
X0062033Y0178236D01*
X0061470Y0179596D01*
X0060533Y0180533D01*
X0060533Y0264089D01*
X0146745Y0350300D01*
X0148033Y0351589D01*
X0148033Y0363013D01*
X0148236Y0362389D01*
X0148629Y0361617D01*
X0149138Y0360917D01*
X0149750Y0360305D01*
X0150451Y0359796D01*
X0151222Y0359403D01*
X0152045Y0359135D01*
X0152833Y0359011D01*
X0152833Y0364000D01*
X0153833Y0364000D01*
X0153833Y0359011D01*
X0154621Y0359135D01*
X0155445Y0359403D01*
X0156216Y0359796D01*
X0156916Y0360305D01*
X0157528Y0360917D01*
X0158037Y0361617D01*
X0158430Y0362389D01*
X0158698Y0363212D01*
X0158823Y0364000D01*
X0153833Y0364000D01*
X0153833Y0365000D01*
X0158823Y0365000D01*
X0158698Y0365788D01*
X0158430Y0366611D01*
X0158037Y0367383D01*
X0157734Y0367800D01*
X0267422Y0367800D01*
X0315115Y0320107D01*
X0314407Y0320400D01*
X0312259Y0320400D01*
X0310274Y0319578D01*
X0308755Y0318059D01*
X0308333Y0317040D01*
X0307911Y0318059D01*
X0306392Y0319578D01*
X0304407Y0320400D01*
X0302259Y0320400D01*
X0300274Y0319578D01*
X0298755Y0318059D01*
X0298224Y0316776D01*
X0298152Y0316996D01*
X0297781Y0317725D01*
X0297300Y0318388D01*
X0296721Y0318966D01*
X0296059Y0319447D01*
X0295329Y0319819D01*
X0294551Y0320072D01*
X0293833Y0320186D01*
X0293833Y0315500D01*
X0292833Y0315500D01*
X0292833Y0320186D01*
X0292116Y0320072D01*
X0291337Y0319819D01*
X0290608Y0319447D01*
X0289946Y0318966D01*
X0289367Y0318388D01*
X0288886Y0317725D01*
X0288514Y0316996D01*
X0288443Y0316776D01*
X0287911Y0318059D01*
X0286392Y0319578D01*
X0284407Y0320400D01*
X0282259Y0320400D01*
X0280274Y0319578D01*
X0278755Y0318059D01*
X0277933Y0316074D01*
X0277933Y0313926D01*
X0278755Y0311941D01*
X0280274Y0310422D01*
X0282259Y0309600D01*
X0284407Y0309600D01*
X0285166Y0309914D01*
X0301033Y0294047D01*
X0301033Y0264892D01*
X0300274Y0264578D01*
X0298755Y0263059D01*
X0297933Y0261074D01*
X0297933Y0258926D01*
X0298755Y0256941D01*
X0300274Y0255422D01*
X0301033Y0255108D01*
X0301033Y0175953D01*
X0285166Y0160086D01*
X0284407Y0160400D01*
X0282259Y0160400D01*
X0280274Y0159578D01*
X0278755Y0158059D01*
X0277933Y0156074D01*
X0277933Y0153926D01*
X0278755Y0151941D01*
X0280274Y0150422D01*
X0281033Y0150108D01*
X0281033Y0136547D01*
X0292455Y0125126D01*
X0292116Y0125072D01*
X0291337Y0124819D01*
X0290608Y0124447D01*
X0289946Y0123966D01*
X0289367Y0123388D01*
X0288886Y0122725D01*
X0288514Y0121996D01*
X0288443Y0121776D01*
X0287911Y0123059D01*
X0286392Y0124578D01*
X0284407Y0125400D01*
X0282259Y0125400D01*
X0280274Y0124578D01*
X0278755Y0123059D01*
X0277933Y0121074D01*
X0277933Y0118926D01*
X0278755Y0116941D01*
X0280274Y0115422D01*
X0282259Y0114600D01*
X0284407Y0114600D01*
X0286392Y0115422D01*
X0287911Y0116941D01*
X0288443Y0118224D01*
X0288514Y0118004D01*
X0288886Y0117275D01*
X0289367Y0116612D01*
X0289946Y0116034D01*
X0290608Y0115553D01*
X0291337Y0115181D01*
X0292116Y0114928D01*
X0292924Y0114800D01*
X0293033Y0114800D01*
X0293033Y0119700D01*
X0293633Y0119700D01*
X0293633Y0114800D01*
X0293743Y0114800D01*
X0294551Y0114928D01*
X0295329Y0115181D01*
X0296059Y0115553D01*
X0296721Y0116034D01*
X0297300Y0116612D01*
X0297781Y0117275D01*
X0298152Y0118004D01*
X0298405Y0118782D01*
X0298459Y0119122D01*
X0340858Y0076723D01*
X0340133Y0074974D01*
X0340133Y0072826D01*
X0340955Y0070841D01*
X0342474Y0069322D01*
X0344459Y0068500D01*
X0346607Y0068500D01*
X0348592Y0069322D01*
X0350111Y0070841D01*
X0350933Y0072826D01*
X0350933Y0074974D01*
X0350111Y0076959D01*
X0348592Y0078478D01*
X0346607Y0079300D01*
X0344786Y0079300D01*
X0285633Y0138453D01*
X0285633Y0150108D01*
X0286392Y0150422D01*
X0287911Y0151941D01*
X0288443Y0153224D01*
X0288514Y0153004D01*
X0288886Y0152275D01*
X0289367Y0151612D01*
X0289946Y0151034D01*
X0290608Y0150553D01*
X0291337Y0150181D01*
X0292116Y0149928D01*
X0292833Y0149814D01*
X0292833Y0154500D01*
X0293833Y0154500D01*
X0293833Y0149814D01*
X0294551Y0149928D01*
X0295329Y0150181D01*
X0296059Y0150553D01*
X0296721Y0151034D01*
X0297300Y0151612D01*
X0297781Y0152275D01*
X0298152Y0153004D01*
X0298224Y0153224D01*
X0298755Y0151941D01*
X0300274Y0150422D01*
X0302259Y0149600D01*
X0304407Y0149600D01*
X0306392Y0150422D01*
X0307911Y0151941D01*
X0308333Y0152960D01*
X0308755Y0151941D01*
X0310274Y0150422D01*
X0312259Y0149600D01*
X0314407Y0149600D01*
X0316392Y0150422D01*
X0317911Y0151941D01*
X0318333Y0152960D01*
X0318755Y0151941D01*
X0320274Y0150422D01*
X0322259Y0149600D01*
X0324407Y0149600D01*
X0326392Y0150422D01*
X0327911Y0151941D01*
X0328333Y0152960D01*
X0328755Y0151941D01*
X0330274Y0150422D01*
X0332259Y0149600D01*
X0334407Y0149600D01*
X0336392Y0150422D01*
X0337911Y0151941D01*
X0338333Y0152960D01*
X0338755Y0151941D01*
X0340274Y0150422D01*
X0342259Y0149600D01*
X0344407Y0149600D01*
X0346392Y0150422D01*
X0347911Y0151941D01*
X0348333Y0152960D01*
X0348755Y0151941D01*
X0350274Y0150422D01*
X0352259Y0149600D01*
X0354407Y0149600D01*
X0356392Y0150422D01*
X0357911Y0151941D01*
X0358733Y0153926D01*
X0358733Y0156074D01*
X0357911Y0158059D01*
X0356392Y0159578D01*
X0354407Y0160400D01*
X0352259Y0160400D01*
X0350274Y0159578D01*
X0348755Y0158059D01*
X0348333Y0157040D01*
X0347911Y0158059D01*
X0346392Y0159578D01*
X0344407Y0160400D01*
X0342259Y0160400D01*
X0340274Y0159578D01*
X0338755Y0158059D01*
X0338333Y0157040D01*
X0337911Y0158059D01*
X0336392Y0159578D01*
X0334407Y0160400D01*
X0332259Y0160400D01*
X0330274Y0159578D01*
X0328755Y0158059D01*
X0328333Y0157040D01*
X0327911Y0158059D01*
X0326392Y0159578D01*
X0324407Y0160400D01*
X0322259Y0160400D01*
X0320274Y0159578D01*
X0318755Y0158059D01*
X0318333Y0157040D01*
X0317911Y0158059D01*
X0316392Y0159578D01*
X0314407Y0160400D01*
X0312259Y0160400D01*
X0310274Y0159578D01*
X0308755Y0158059D01*
X0308333Y0157040D01*
X0307911Y0158059D01*
X0306392Y0159578D01*
X0304407Y0160400D01*
X0302259Y0160400D01*
X0300274Y0159578D01*
X0298755Y0158059D01*
X0298224Y0156776D01*
X0298152Y0156996D01*
X0297781Y0157725D01*
X0297300Y0158388D01*
X0296721Y0158966D01*
X0296059Y0159447D01*
X0295329Y0159819D01*
X0294551Y0160072D01*
X0293833Y0160186D01*
X0293833Y0155500D01*
X0292833Y0155500D01*
X0292833Y0160186D01*
X0292116Y0160072D01*
X0291438Y0159852D01*
X0305633Y0174047D01*
X0305633Y0255108D01*
X0306392Y0255422D01*
X0307911Y0256941D01*
X0308733Y0258926D01*
X0308733Y0261074D01*
X0307911Y0263059D01*
X0306392Y0264578D01*
X0305633Y0264892D01*
X0305633Y0295953D01*
X0291438Y0310148D01*
X0292116Y0309928D01*
X0292833Y0309814D01*
X0292833Y0314500D01*
X0293833Y0314500D01*
X0293833Y0309814D01*
X0294551Y0309928D01*
X0295329Y0310181D01*
X0296059Y0310553D01*
X0296721Y0311034D01*
X0297300Y0311612D01*
X0297781Y0312275D01*
X0298152Y0313004D01*
X0298224Y0313224D01*
X0298755Y0311941D01*
X0300274Y0310422D01*
X0302259Y0309600D01*
X0304407Y0309600D01*
X0306392Y0310422D01*
X0307911Y0311941D01*
X0308333Y0312960D01*
X0308755Y0311941D01*
X0310274Y0310422D01*
X0312259Y0309600D01*
X0314407Y0309600D01*
X0316392Y0310422D01*
X0317911Y0311941D01*
X0318333Y0312960D01*
X0318755Y0311941D01*
X0320274Y0310422D01*
X0322259Y0309600D01*
X0324407Y0309600D01*
X0326392Y0310422D01*
X0327911Y0311941D01*
X0328333Y0312960D01*
X0328755Y0311941D01*
X0330274Y0310422D01*
X0332259Y0309600D01*
X0334407Y0309600D01*
X0336392Y0310422D01*
X0337911Y0311941D01*
X0338333Y0312960D01*
X0338755Y0311941D01*
X0340274Y0310422D01*
X0342259Y0309600D01*
X0344407Y0309600D01*
X0346392Y0310422D01*
X0347911Y0311941D01*
X0348333Y0312960D01*
X0348755Y0311941D01*
X0350274Y0310422D01*
X0352259Y0309600D01*
X0354407Y0309600D01*
X0356392Y0310422D01*
X0357911Y0311941D01*
X0358733Y0313926D01*
X0358733Y0316074D01*
X0357911Y0318059D01*
X0356392Y0319578D01*
X0354407Y0320400D01*
X0352259Y0320400D01*
X0350274Y0319578D01*
X0348755Y0318059D01*
X0348333Y0317040D01*
X0347911Y0318059D01*
X0346392Y0319578D01*
X0344407Y0320400D01*
X0342259Y0320400D01*
X0340274Y0319578D01*
X0338755Y0318059D01*
X0338333Y0317040D01*
X0337911Y0318059D01*
X0336392Y0319578D01*
X0334407Y0320400D01*
X0332259Y0320400D01*
X0330274Y0319578D01*
X0328755Y0318059D01*
X0328333Y0317040D01*
X0327911Y0318059D01*
X0326392Y0319578D01*
X0324407Y0320400D01*
X0322259Y0320400D01*
X0321400Y0320044D01*
X0269245Y0372200D01*
X0158094Y0372200D01*
X0158166Y0372271D01*
X0159033Y0374366D01*
X0159033Y0376634D01*
X0158166Y0378729D01*
X0156562Y0380332D01*
X0154467Y0381200D01*
X0152200Y0381200D01*
X0150105Y0380332D01*
X0148501Y0378729D01*
X0147633Y0376634D01*
X0147633Y0374366D01*
X0148501Y0372271D01*
X0149247Y0371525D01*
X0148633Y0370911D01*
X0143633Y0365911D01*
X0143633Y0353411D01*
X0131364Y0341142D01*
X0130687Y0342776D01*
X0129309Y0344154D01*
X0127508Y0344900D01*
X0119159Y0344900D01*
X0117358Y0344154D01*
X0115979Y0342776D01*
X0115233Y0340975D01*
X0115233Y0339025D01*
X0115979Y0337224D01*
X0117358Y0335846D01*
X0119159Y0335100D01*
X0125322Y0335100D01*
X0056133Y0265911D01*
X0056133Y0180533D01*
X0055533Y0179933D01*
X0055533Y0205911D01*
X0054245Y0207200D01*
X0048378Y0213067D01*
X0048733Y0213926D01*
X0048733Y0216074D01*
X0047911Y0218059D01*
X0046392Y0219578D01*
X0045373Y0220000D01*
X0046392Y0220422D01*
X0047911Y0221941D01*
X0048733Y0223926D01*
X0048733Y0226074D01*
X0047911Y0228059D01*
X0046392Y0229578D01*
X0045373Y0230000D01*
X0046392Y0230422D01*
X0047911Y0231941D01*
X0048733Y0233926D01*
X0048733Y0236074D01*
X0047911Y0238059D01*
X0046392Y0239578D01*
X0045373Y0240000D01*
X0046392Y0240422D01*
X0047911Y0241941D01*
X0048733Y0243926D01*
X0048733Y0246074D01*
X0047911Y0248059D01*
X0046392Y0249578D01*
X0045373Y0250000D01*
X0046392Y0250422D01*
X0047911Y0251941D01*
X0048733Y0253926D01*
X0048733Y0256074D01*
X0047911Y0258059D01*
X0046392Y0259578D01*
X0045373Y0260000D01*
X0046392Y0260422D01*
X0047911Y0261941D01*
X0048733Y0263926D01*
X0048733Y0266074D01*
X0047911Y0268059D01*
X0046392Y0269578D01*
X0045109Y0270109D01*
X0045329Y0270181D01*
X0046059Y0270553D01*
X0046721Y0271034D01*
X0047300Y0271612D01*
X0047781Y0272275D01*
X0048152Y0273004D01*
X0048405Y0273782D01*
X0048519Y0274500D01*
X0043833Y0274500D01*
X0043833Y0275500D01*
X0048519Y0275500D01*
X0048405Y0276218D01*
X0048152Y0276996D01*
X0047781Y0277725D01*
X0047300Y0278388D01*
X0046721Y0278966D01*
X0046059Y0279447D01*
X0045329Y0279819D01*
X0045109Y0279891D01*
X0046392Y0280422D01*
X0047911Y0281941D01*
X0048226Y0282700D01*
X0049286Y0282700D01*
X0115540Y0348954D01*
X0115549Y0348899D01*
X0115778Y0348196D01*
X0116114Y0347537D01*
X0116548Y0346938D01*
X0117071Y0346415D01*
X0117670Y0345980D01*
X0118329Y0345644D01*
X0119033Y0345416D01*
X0119763Y0345300D01*
X0122833Y0345300D01*
X0122833Y0349500D01*
X0123833Y0349500D01*
X0123833Y0345300D01*
X0126903Y0345300D01*
X0127634Y0345416D01*
X0128337Y0345644D01*
X0128997Y0345980D01*
X0129595Y0346415D01*
X0130118Y0346938D01*
X0130553Y0347537D01*
X0130889Y0348196D01*
X0131118Y0348899D01*
X0131213Y0349500D01*
X0123833Y0349500D01*
X0123833Y0350500D01*
X0122833Y0350500D01*
X0122833Y0354700D01*
X0121286Y0354700D01*
X0121686Y0355100D01*
X0127508Y0355100D01*
X0129309Y0355846D01*
X0130687Y0357224D01*
X0131433Y0359025D01*
X0131433Y0360975D01*
X0130687Y0362776D01*
X0129309Y0364154D01*
X0127508Y0364900D01*
X0119159Y0364900D01*
X0117358Y0364154D01*
X0115979Y0362776D01*
X0115233Y0360975D01*
X0115233Y0359025D01*
X0115979Y0357224D01*
X0116642Y0356562D01*
X0047978Y0287897D01*
X0047911Y0288059D01*
X0046392Y0289578D01*
X0044407Y0290400D01*
X0042259Y0290400D01*
X0040274Y0289578D01*
X0038755Y0288059D01*
X0038333Y0287040D01*
X0037911Y0288059D01*
X0036392Y0289578D01*
X0034407Y0290400D01*
X0032259Y0290400D01*
X0030274Y0289578D01*
X0028755Y0288059D01*
X0027933Y0286074D01*
X0027933Y0283926D01*
X0028755Y0281941D01*
X0030274Y0280422D01*
X0031294Y0280000D01*
X0030274Y0279578D01*
X0028755Y0278059D01*
X0027933Y0276074D01*
X0027933Y0273926D01*
X0028755Y0271941D01*
X0030274Y0270422D01*
X0031294Y0270000D01*
X0030274Y0269578D01*
X0028755Y0268059D01*
X0027933Y0266074D01*
X0027933Y0263926D01*
X0028755Y0261941D01*
X0030274Y0260422D01*
X0031133Y0260066D01*
X0031133Y0259934D01*
X0030274Y0259578D01*
X0028755Y0258059D01*
X0027933Y0256074D01*
X0027933Y0253926D01*
X0028289Y0253067D01*
X0019922Y0244700D01*
X0018633Y0243411D01*
X0018633Y0189089D01*
X0032933Y0174789D01*
X0032933Y0173926D01*
X0033755Y0171941D01*
X0035274Y0170422D01*
X0036133Y0170066D01*
X0036133Y0159934D01*
X0035274Y0159578D01*
X0033755Y0158059D01*
X0032933Y0156074D01*
X0032933Y0153926D01*
X0033755Y0151941D01*
X0035274Y0150422D01*
X0036133Y0150066D01*
X0036133Y0139934D01*
X0035274Y0139578D01*
X0033755Y0138059D01*
X0032933Y0136074D01*
X0032933Y0133926D01*
X0033755Y0131941D01*
X0035274Y0130422D01*
X0036133Y0130066D01*
X0036133Y0119934D01*
X0035274Y0119578D01*
X0033755Y0118059D01*
X0032933Y0116074D01*
X0032933Y0113926D01*
X0033755Y0111941D01*
X0035274Y0110422D01*
X0036133Y0110066D01*
X0036133Y0099934D01*
X0035274Y0099578D01*
X0033755Y0098059D01*
X0032933Y0096074D01*
X0032933Y0093926D01*
X0033755Y0091941D01*
X0035274Y0090422D01*
X0037259Y0089600D01*
X0034780Y0090917D02*
X0015433Y0090917D01*
X0015433Y0091915D02*
X0033781Y0091915D01*
X0033353Y0092914D02*
X0015433Y0092914D01*
X0015433Y0093912D02*
X0032939Y0093912D01*
X0032933Y0094911D02*
X0015433Y0094911D01*
X0015433Y0095909D02*
X0032933Y0095909D01*
X0033279Y0096908D02*
X0015433Y0096908D01*
X0015433Y0097906D02*
X0033692Y0097906D01*
X0034601Y0098905D02*
X0015433Y0098905D01*
X0015433Y0099903D02*
X0036060Y0099903D01*
X0036133Y0100902D02*
X0015433Y0100902D01*
X0015433Y0101900D02*
X0036133Y0101900D01*
X0036133Y0102899D02*
X0015433Y0102899D01*
X0015433Y0103897D02*
X0036133Y0103897D01*
X0036133Y0104896D02*
X0015433Y0104896D01*
X0015433Y0105894D02*
X0036133Y0105894D01*
X0036133Y0106893D02*
X0015433Y0106893D01*
X0015433Y0107891D02*
X0036133Y0107891D01*
X0036133Y0108890D02*
X0015433Y0108890D01*
X0015433Y0109888D02*
X0036133Y0109888D01*
X0034810Y0110887D02*
X0015433Y0110887D01*
X0015433Y0111885D02*
X0033811Y0111885D01*
X0033365Y0112884D02*
X0015433Y0112884D01*
X0015433Y0113882D02*
X0032951Y0113882D01*
X0032933Y0114881D02*
X0015433Y0114881D01*
X0015433Y0115879D02*
X0032933Y0115879D01*
X0033266Y0116878D02*
X0015433Y0116878D01*
X0015433Y0117876D02*
X0033680Y0117876D01*
X0034572Y0118875D02*
X0015433Y0118875D01*
X0015433Y0119873D02*
X0035988Y0119873D01*
X0036133Y0120872D02*
X0015433Y0120872D01*
X0015433Y0121870D02*
X0036133Y0121870D01*
X0036133Y0122869D02*
X0015433Y0122869D01*
X0015433Y0123868D02*
X0036133Y0123868D01*
X0036133Y0124866D02*
X0015433Y0124866D01*
X0015433Y0125865D02*
X0036133Y0125865D01*
X0036133Y0126863D02*
X0015433Y0126863D01*
X0015433Y0127862D02*
X0036133Y0127862D01*
X0036133Y0128860D02*
X0015433Y0128860D01*
X0015433Y0129859D02*
X0036133Y0129859D01*
X0034839Y0130857D02*
X0015433Y0130857D01*
X0015433Y0131856D02*
X0033841Y0131856D01*
X0033377Y0132854D02*
X0015433Y0132854D01*
X0015433Y0133853D02*
X0032964Y0133853D01*
X0032933Y0134851D02*
X0015433Y0134851D01*
X0015433Y0135850D02*
X0032933Y0135850D01*
X0033254Y0136848D02*
X0015433Y0136848D01*
X0015433Y0137847D02*
X0033668Y0137847D01*
X0034542Y0138845D02*
X0015433Y0138845D01*
X0015433Y0139844D02*
X0035916Y0139844D01*
X0036133Y0140842D02*
X0015433Y0140842D01*
X0015433Y0141841D02*
X0036133Y0141841D01*
X0036133Y0142839D02*
X0015433Y0142839D01*
X0015433Y0143838D02*
X0036133Y0143838D01*
X0036133Y0144836D02*
X0015433Y0144836D01*
X0015433Y0145835D02*
X0036133Y0145835D01*
X0036133Y0146833D02*
X0015433Y0146833D01*
X0015433Y0147832D02*
X0036133Y0147832D01*
X0036133Y0148830D02*
X0015433Y0148830D01*
X0015433Y0149829D02*
X0036133Y0149829D01*
X0034869Y0150827D02*
X0015433Y0150827D01*
X0015433Y0151826D02*
X0033871Y0151826D01*
X0033390Y0152824D02*
X0015433Y0152824D01*
X0015433Y0153823D02*
X0032976Y0153823D01*
X0032933Y0154821D02*
X0015433Y0154821D01*
X0015433Y0155820D02*
X0032933Y0155820D01*
X0033242Y0156818D02*
X0015433Y0156818D01*
X0015433Y0157817D02*
X0033655Y0157817D01*
X0034512Y0158815D02*
X0015433Y0158815D01*
X0015433Y0159814D02*
X0035844Y0159814D01*
X0036133Y0160812D02*
X0015433Y0160812D01*
X0015433Y0161811D02*
X0036133Y0161811D01*
X0036133Y0162809D02*
X0015433Y0162809D01*
X0015433Y0163808D02*
X0036133Y0163808D01*
X0036133Y0164806D02*
X0015433Y0164806D01*
X0015433Y0165805D02*
X0036133Y0165805D01*
X0036133Y0166803D02*
X0015433Y0166803D01*
X0015433Y0167802D02*
X0036133Y0167802D01*
X0036133Y0168801D02*
X0015433Y0168801D01*
X0015433Y0169799D02*
X0036133Y0169799D01*
X0034899Y0170798D02*
X0015433Y0170798D01*
X0015433Y0171796D02*
X0033901Y0171796D01*
X0033402Y0172795D02*
X0015433Y0172795D01*
X0015433Y0173793D02*
X0032988Y0173793D01*
X0032930Y0174792D02*
X0015433Y0174792D01*
X0015433Y0175790D02*
X0031932Y0175790D01*
X0030933Y0176789D02*
X0015433Y0176789D01*
X0015433Y0177787D02*
X0029935Y0177787D01*
X0028936Y0178786D02*
X0015433Y0178786D01*
X0015433Y0179784D02*
X0027938Y0179784D01*
X0026939Y0180783D02*
X0015433Y0180783D01*
X0015433Y0181781D02*
X0025941Y0181781D01*
X0024942Y0182780D02*
X0015433Y0182780D01*
X0015433Y0183778D02*
X0023944Y0183778D01*
X0022945Y0184777D02*
X0015433Y0184777D01*
X0015433Y0185775D02*
X0021947Y0185775D01*
X0020948Y0186774D02*
X0015433Y0186774D01*
X0015433Y0187772D02*
X0019950Y0187772D01*
X0018951Y0188771D02*
X0015433Y0188771D01*
X0015433Y0189769D02*
X0018633Y0189769D01*
X0018633Y0190768D02*
X0015433Y0190768D01*
X0015433Y0191766D02*
X0018633Y0191766D01*
X0018633Y0192765D02*
X0015433Y0192765D01*
X0015433Y0193763D02*
X0018633Y0193763D01*
X0018633Y0194762D02*
X0015433Y0194762D01*
X0015433Y0195760D02*
X0018633Y0195760D01*
X0018633Y0196759D02*
X0015433Y0196759D01*
X0015433Y0197757D02*
X0018633Y0197757D01*
X0018633Y0198756D02*
X0015433Y0198756D01*
X0015433Y0199754D02*
X0018633Y0199754D01*
X0018633Y0200753D02*
X0015433Y0200753D01*
X0015433Y0201751D02*
X0018633Y0201751D01*
X0018633Y0202750D02*
X0015433Y0202750D01*
X0015433Y0203748D02*
X0018633Y0203748D01*
X0018633Y0204747D02*
X0015433Y0204747D01*
X0015433Y0205745D02*
X0018633Y0205745D01*
X0018633Y0206744D02*
X0015433Y0206744D01*
X0015433Y0207742D02*
X0018633Y0207742D01*
X0018633Y0208741D02*
X0015433Y0208741D01*
X0015433Y0209739D02*
X0018633Y0209739D01*
X0018633Y0210738D02*
X0015433Y0210738D01*
X0015433Y0211737D02*
X0018633Y0211737D01*
X0018633Y0212735D02*
X0015433Y0212735D01*
X0015433Y0213734D02*
X0018633Y0213734D01*
X0018633Y0214732D02*
X0015433Y0214732D01*
X0015433Y0215731D02*
X0018633Y0215731D01*
X0018633Y0216729D02*
X0015433Y0216729D01*
X0015433Y0217728D02*
X0018633Y0217728D01*
X0018633Y0218726D02*
X0015433Y0218726D01*
X0015433Y0219725D02*
X0018633Y0219725D01*
X0018633Y0220723D02*
X0015433Y0220723D01*
X0015433Y0221722D02*
X0018633Y0221722D01*
X0018633Y0222720D02*
X0015433Y0222720D01*
X0015433Y0223719D02*
X0018633Y0223719D01*
X0018633Y0224717D02*
X0015433Y0224717D01*
X0015433Y0225716D02*
X0018633Y0225716D01*
X0018633Y0226714D02*
X0015433Y0226714D01*
X0015433Y0227713D02*
X0018633Y0227713D01*
X0018633Y0228711D02*
X0015433Y0228711D01*
X0015433Y0229710D02*
X0018633Y0229710D01*
X0018633Y0230708D02*
X0015433Y0230708D01*
X0015433Y0231707D02*
X0018633Y0231707D01*
X0018633Y0232705D02*
X0015433Y0232705D01*
X0015433Y0233704D02*
X0018633Y0233704D01*
X0018633Y0234702D02*
X0015433Y0234702D01*
X0015433Y0235701D02*
X0018633Y0235701D01*
X0018633Y0236699D02*
X0015433Y0236699D01*
X0015433Y0237698D02*
X0018633Y0237698D01*
X0018633Y0238696D02*
X0015433Y0238696D01*
X0015433Y0239695D02*
X0018633Y0239695D01*
X0018633Y0240693D02*
X0015433Y0240693D01*
X0015433Y0241692D02*
X0018633Y0241692D01*
X0018633Y0242690D02*
X0015433Y0242690D01*
X0015433Y0243689D02*
X0018911Y0243689D01*
X0019909Y0244687D02*
X0015433Y0244687D01*
X0015433Y0245686D02*
X0020908Y0245686D01*
X0021906Y0246684D02*
X0015433Y0246684D01*
X0015433Y0247683D02*
X0022905Y0247683D01*
X0023903Y0248681D02*
X0015433Y0248681D01*
X0015433Y0249680D02*
X0024902Y0249680D01*
X0025901Y0250678D02*
X0015433Y0250678D01*
X0015433Y0251677D02*
X0026899Y0251677D01*
X0027898Y0252675D02*
X0015433Y0252675D01*
X0015433Y0253674D02*
X0028038Y0253674D01*
X0027933Y0254672D02*
X0015433Y0254672D01*
X0015433Y0255671D02*
X0027933Y0255671D01*
X0028180Y0256670D02*
X0015433Y0256670D01*
X0015433Y0257668D02*
X0028594Y0257668D01*
X0029363Y0258667D02*
X0015433Y0258667D01*
X0015433Y0259665D02*
X0030485Y0259665D01*
X0030033Y0260664D02*
X0015433Y0260664D01*
X0015433Y0261662D02*
X0029034Y0261662D01*
X0028457Y0262661D02*
X0015433Y0262661D01*
X0015433Y0263659D02*
X0028044Y0263659D01*
X0027933Y0264658D02*
X0015433Y0264658D01*
X0015433Y0265656D02*
X0027933Y0265656D01*
X0028174Y0266655D02*
X0015433Y0266655D01*
X0015433Y0267653D02*
X0028587Y0267653D01*
X0029348Y0268652D02*
X0015433Y0268652D01*
X0015433Y0269650D02*
X0030449Y0269650D01*
X0030048Y0270649D02*
X0015433Y0270649D01*
X0015433Y0271647D02*
X0029049Y0271647D01*
X0028464Y0272646D02*
X0015433Y0272646D01*
X0015433Y0273644D02*
X0028050Y0273644D01*
X0027933Y0274643D02*
X0015433Y0274643D01*
X0015433Y0275641D02*
X0027933Y0275641D01*
X0028168Y0276640D02*
X0015433Y0276640D01*
X0015433Y0277638D02*
X0028581Y0277638D01*
X0029333Y0278637D02*
X0015433Y0278637D01*
X0015433Y0279635D02*
X0030413Y0279635D01*
X0030063Y0280634D02*
X0015433Y0280634D01*
X0015433Y0281632D02*
X0029064Y0281632D01*
X0028470Y0282631D02*
X0015433Y0282631D01*
X0015433Y0283629D02*
X0028056Y0283629D01*
X0027933Y0284628D02*
X0015433Y0284628D01*
X0015433Y0285626D02*
X0027933Y0285626D01*
X0028161Y0286625D02*
X0015433Y0286625D01*
X0015433Y0287623D02*
X0028575Y0287623D01*
X0029318Y0288622D02*
X0015433Y0288622D01*
X0015433Y0289620D02*
X0030377Y0289620D01*
X0036290Y0289620D02*
X0040377Y0289620D01*
X0039318Y0288622D02*
X0037348Y0288622D01*
X0038092Y0287623D02*
X0038575Y0287623D01*
X0046290Y0289620D02*
X0049701Y0289620D01*
X0048703Y0288622D02*
X0047348Y0288622D01*
X0050700Y0290619D02*
X0015433Y0290619D01*
X0015433Y0291617D02*
X0051698Y0291617D01*
X0052697Y0292616D02*
X0015433Y0292616D01*
X0015433Y0293614D02*
X0053695Y0293614D01*
X0054694Y0294613D02*
X0015433Y0294613D01*
X0015433Y0295611D02*
X0055692Y0295611D01*
X0056691Y0296610D02*
X0015433Y0296610D01*
X0015433Y0297608D02*
X0057689Y0297608D01*
X0058688Y0298607D02*
X0015433Y0298607D01*
X0015433Y0299605D02*
X0059686Y0299605D01*
X0060685Y0300604D02*
X0015433Y0300604D01*
X0015433Y0301603D02*
X0061683Y0301603D01*
X0062682Y0302601D02*
X0015433Y0302601D01*
X0015433Y0303600D02*
X0063680Y0303600D01*
X0064679Y0304598D02*
X0015433Y0304598D01*
X0015433Y0305597D02*
X0065677Y0305597D01*
X0066676Y0306595D02*
X0015433Y0306595D01*
X0015433Y0307594D02*
X0067674Y0307594D01*
X0068673Y0308592D02*
X0015433Y0308592D01*
X0015433Y0309591D02*
X0069671Y0309591D01*
X0070670Y0310589D02*
X0015433Y0310589D01*
X0015433Y0311588D02*
X0071668Y0311588D01*
X0072667Y0312586D02*
X0015433Y0312586D01*
X0015433Y0313585D02*
X0073665Y0313585D01*
X0074664Y0314583D02*
X0015433Y0314583D01*
X0015433Y0315582D02*
X0028221Y0315582D01*
X0027867Y0315628D02*
X0028833Y0315501D01*
X0028833Y0322500D01*
X0021834Y0322500D01*
X0021962Y0321534D01*
X0022216Y0320584D01*
X0022592Y0319676D01*
X0023084Y0318824D01*
X0023682Y0318044D01*
X0024378Y0317349D01*
X0025158Y0316751D01*
X0026009Y0316259D01*
X0026917Y0315883D01*
X0027867Y0315628D01*
X0028833Y0315582D02*
X0029833Y0315582D01*
X0029833Y0315501D02*
X0030800Y0315628D01*
X0031749Y0315883D01*
X0032658Y0316259D01*
X0033509Y0316751D01*
X0034289Y0317349D01*
X0034984Y0318044D01*
X0035583Y0318824D01*
X0036074Y0319676D01*
X0036451Y0320584D01*
X0036705Y0321534D01*
X0036832Y0322500D01*
X0029833Y0322500D01*
X0029833Y0315501D01*
X0030445Y0315582D02*
X0075662Y0315582D01*
X0076661Y0316580D02*
X0033214Y0316580D01*
X0034519Y0317579D02*
X0077659Y0317579D01*
X0078658Y0318577D02*
X0035393Y0318577D01*
X0036017Y0319576D02*
X0079656Y0319576D01*
X0080655Y0320574D02*
X0036446Y0320574D01*
X0036710Y0321573D02*
X0081653Y0321573D01*
X0082652Y0322571D02*
X0029833Y0322571D01*
X0029833Y0322500D02*
X0029833Y0323500D01*
X0028833Y0323500D01*
X0028833Y0322500D01*
X0029833Y0322500D01*
X0029833Y0321573D02*
X0028833Y0321573D01*
X0028833Y0322571D02*
X0015433Y0322571D01*
X0015433Y0321573D02*
X0021956Y0321573D01*
X0022220Y0320574D02*
X0015433Y0320574D01*
X0015433Y0319576D02*
X0022650Y0319576D01*
X0023273Y0318577D02*
X0015433Y0318577D01*
X0015433Y0317579D02*
X0024148Y0317579D01*
X0025453Y0316580D02*
X0015433Y0316580D01*
X0015433Y0323570D02*
X0021844Y0323570D01*
X0021834Y0323500D02*
X0028833Y0323500D01*
X0028833Y0330499D01*
X0027867Y0330372D01*
X0026917Y0330117D01*
X0026009Y0329741D01*
X0025158Y0329249D01*
X0024378Y0328651D01*
X0023682Y0327956D01*
X0023084Y0327176D01*
X0022592Y0326324D01*
X0022216Y0325416D01*
X0021962Y0324466D01*
X0021834Y0323500D01*
X0021989Y0324568D02*
X0015433Y0324568D01*
X0015433Y0325567D02*
X0022279Y0325567D01*
X0022732Y0326565D02*
X0015433Y0326565D01*
X0015433Y0327564D02*
X0023382Y0327564D01*
X0024289Y0328562D02*
X0015433Y0328562D01*
X0015433Y0329561D02*
X0025697Y0329561D01*
X0028833Y0329561D02*
X0029833Y0329561D01*
X0029833Y0330499D02*
X0030800Y0330372D01*
X0031749Y0330117D01*
X0032658Y0329741D01*
X0033509Y0329249D01*
X0034289Y0328651D01*
X0034984Y0327956D01*
X0035583Y0327176D01*
X0036074Y0326324D01*
X0036451Y0325416D01*
X0036705Y0324466D01*
X0036832Y0323500D01*
X0029833Y0323500D01*
X0029833Y0330499D01*
X0029833Y0328562D02*
X0028833Y0328562D01*
X0028833Y0327564D02*
X0029833Y0327564D01*
X0029833Y0326565D02*
X0028833Y0326565D01*
X0028833Y0325567D02*
X0029833Y0325567D01*
X0029833Y0324568D02*
X0028833Y0324568D01*
X0028833Y0323570D02*
X0029833Y0323570D01*
X0029833Y0320574D02*
X0028833Y0320574D01*
X0028833Y0319576D02*
X0029833Y0319576D01*
X0029833Y0318577D02*
X0028833Y0318577D01*
X0028833Y0317579D02*
X0029833Y0317579D01*
X0029833Y0316580D02*
X0028833Y0316580D01*
X0036823Y0323570D02*
X0083650Y0323570D01*
X0084649Y0324568D02*
X0036678Y0324568D01*
X0036388Y0325567D02*
X0085647Y0325567D01*
X0086646Y0326565D02*
X0035935Y0326565D01*
X0035285Y0327564D02*
X0087644Y0327564D01*
X0088643Y0328562D02*
X0034378Y0328562D01*
X0032970Y0329561D02*
X0089641Y0329561D01*
X0090640Y0330559D02*
X0015433Y0330559D01*
X0015433Y0331558D02*
X0091639Y0331558D01*
X0092637Y0332556D02*
X0015433Y0332556D01*
X0015433Y0333555D02*
X0093636Y0333555D01*
X0094634Y0334553D02*
X0015433Y0334553D01*
X0015433Y0335552D02*
X0095633Y0335552D01*
X0096631Y0336550D02*
X0015433Y0336550D01*
X0015433Y0337549D02*
X0097630Y0337549D01*
X0098628Y0338547D02*
X0015433Y0338547D01*
X0015433Y0339546D02*
X0099627Y0339546D01*
X0100625Y0340544D02*
X0015433Y0340544D01*
X0015433Y0341543D02*
X0101624Y0341543D01*
X0102622Y0342541D02*
X0067755Y0342541D01*
X0068978Y0343048D02*
X0065964Y0341800D01*
X0062702Y0341800D01*
X0059688Y0343048D01*
X0057382Y0345355D01*
X0056133Y0348369D01*
X0056133Y0351631D01*
X0057382Y0354645D01*
X0059688Y0356952D01*
X0062702Y0358200D01*
X0065964Y0358200D01*
X0068978Y0356952D01*
X0071285Y0354645D01*
X0072533Y0351631D01*
X0072533Y0348369D01*
X0071285Y0345355D01*
X0068978Y0343048D01*
X0069470Y0343540D02*
X0103621Y0343540D01*
X0104619Y0344539D02*
X0070468Y0344539D01*
X0071360Y0345537D02*
X0105618Y0345537D01*
X0106616Y0346536D02*
X0071774Y0346536D01*
X0072188Y0347534D02*
X0107615Y0347534D01*
X0108613Y0348533D02*
X0072533Y0348533D01*
X0072533Y0349531D02*
X0109612Y0349531D01*
X0110610Y0350530D02*
X0072533Y0350530D01*
X0072533Y0351528D02*
X0111609Y0351528D01*
X0112607Y0352527D02*
X0072162Y0352527D01*
X0071749Y0353525D02*
X0113606Y0353525D01*
X0114604Y0354524D02*
X0071335Y0354524D01*
X0070408Y0355522D02*
X0115603Y0355522D01*
X0116601Y0356521D02*
X0069409Y0356521D01*
X0067608Y0357519D02*
X0115857Y0357519D01*
X0115444Y0358518D02*
X0015433Y0358518D01*
X0015433Y0359516D02*
X0115233Y0359516D01*
X0115233Y0360515D02*
X0015433Y0360515D01*
X0015433Y0361513D02*
X0115456Y0361513D01*
X0115870Y0362512D02*
X0015433Y0362512D01*
X0015433Y0363510D02*
X0116714Y0363510D01*
X0118214Y0364509D02*
X0015433Y0364509D01*
X0015433Y0365507D02*
X0143633Y0365507D01*
X0143633Y0364509D02*
X0128453Y0364509D01*
X0129953Y0363510D02*
X0143633Y0363510D01*
X0143633Y0362512D02*
X0130797Y0362512D01*
X0131210Y0361513D02*
X0143633Y0361513D01*
X0143633Y0360515D02*
X0131433Y0360515D01*
X0131433Y0359516D02*
X0143633Y0359516D01*
X0143633Y0358518D02*
X0131223Y0358518D01*
X0130809Y0357519D02*
X0143633Y0357519D01*
X0143633Y0356521D02*
X0129984Y0356521D01*
X0128527Y0355522D02*
X0143633Y0355522D01*
X0143633Y0354524D02*
X0127821Y0354524D01*
X0127634Y0354584D02*
X0126903Y0354700D01*
X0123833Y0354700D01*
X0123833Y0350500D01*
X0131213Y0350500D01*
X0131118Y0351101D01*
X0130889Y0351804D01*
X0130553Y0352463D01*
X0130118Y0353062D01*
X0129595Y0353585D01*
X0128997Y0354020D01*
X0128337Y0354356D01*
X0127634Y0354584D01*
X0129655Y0353525D02*
X0143633Y0353525D01*
X0142749Y0352527D02*
X0130507Y0352527D01*
X0130979Y0351528D02*
X0141750Y0351528D01*
X0140752Y0350530D02*
X0131208Y0350530D01*
X0130998Y0348533D02*
X0138755Y0348533D01*
X0139753Y0349531D02*
X0123833Y0349531D01*
X0123833Y0348533D02*
X0122833Y0348533D01*
X0122833Y0347534D02*
X0123833Y0347534D01*
X0123833Y0346536D02*
X0122833Y0346536D01*
X0122833Y0345537D02*
X0123833Y0345537D01*
X0128007Y0345537D02*
X0135759Y0345537D01*
X0134761Y0344539D02*
X0128381Y0344539D01*
X0129923Y0343540D02*
X0133762Y0343540D01*
X0132764Y0342541D02*
X0130784Y0342541D01*
X0131198Y0341543D02*
X0131765Y0341543D01*
X0134992Y0338547D02*
X0148749Y0338547D01*
X0148629Y0338383D02*
X0148236Y0337611D01*
X0147969Y0336788D01*
X0147844Y0336000D01*
X0152833Y0336000D01*
X0152833Y0335000D01*
X0147844Y0335000D01*
X0147969Y0334212D01*
X0148236Y0333389D01*
X0148629Y0332617D01*
X0149138Y0331917D01*
X0149750Y0331305D01*
X0150451Y0330796D01*
X0151222Y0330403D01*
X0152044Y0330136D01*
X0150105Y0329332D01*
X0148501Y0327729D01*
X0147633Y0325634D01*
X0147633Y0323366D01*
X0148501Y0321271D01*
X0150105Y0319668D01*
X0152200Y0318800D01*
X0154467Y0318800D01*
X0156562Y0319668D01*
X0158166Y0321271D01*
X0159033Y0323366D01*
X0159033Y0325634D01*
X0158166Y0327729D01*
X0156562Y0329332D01*
X0154622Y0330136D01*
X0155445Y0330403D01*
X0156216Y0330796D01*
X0156916Y0331305D01*
X0157528Y0331917D01*
X0158037Y0332617D01*
X0158430Y0333389D01*
X0158698Y0334212D01*
X0158823Y0335000D01*
X0153833Y0335000D01*
X0153833Y0336000D01*
X0152833Y0336000D01*
X0152833Y0340989D01*
X0152045Y0340865D01*
X0151222Y0340597D01*
X0150451Y0340204D01*
X0149750Y0339695D01*
X0149138Y0339083D01*
X0148629Y0338383D01*
X0148216Y0337549D02*
X0133994Y0337549D01*
X0132995Y0336550D02*
X0147931Y0336550D01*
X0147915Y0334553D02*
X0130998Y0334553D01*
X0129999Y0333555D02*
X0148182Y0333555D01*
X0148674Y0332556D02*
X0129001Y0332556D01*
X0128002Y0331558D02*
X0149497Y0331558D01*
X0150915Y0330559D02*
X0127004Y0330559D01*
X0126005Y0329561D02*
X0150656Y0329561D01*
X0149335Y0328562D02*
X0125007Y0328562D01*
X0124008Y0327564D02*
X0148433Y0327564D01*
X0148019Y0326565D02*
X0123010Y0326565D01*
X0122011Y0325567D02*
X0147633Y0325567D01*
X0147633Y0324568D02*
X0121013Y0324568D01*
X0120014Y0323570D02*
X0147633Y0323570D01*
X0147963Y0322571D02*
X0119016Y0322571D01*
X0118017Y0321573D02*
X0148376Y0321573D01*
X0149198Y0320574D02*
X0117019Y0320574D01*
X0116020Y0319576D02*
X0150327Y0319576D01*
X0156340Y0319576D02*
X0280272Y0319576D01*
X0279274Y0318577D02*
X0115022Y0318577D01*
X0114023Y0317579D02*
X0278557Y0317579D01*
X0278143Y0316580D02*
X0113025Y0316580D01*
X0112026Y0315582D02*
X0277933Y0315582D01*
X0277933Y0314583D02*
X0111028Y0314583D01*
X0110029Y0313585D02*
X0278075Y0313585D01*
X0278488Y0312586D02*
X0109031Y0312586D01*
X0108032Y0311588D02*
X0279109Y0311588D01*
X0280107Y0310589D02*
X0134041Y0310589D01*
X0134845Y0310256D02*
X0132567Y0311200D01*
X0130100Y0311200D01*
X0127821Y0310256D01*
X0126077Y0308512D01*
X0125133Y0306233D01*
X0125133Y0303767D01*
X0126077Y0301488D01*
X0127821Y0299744D01*
X0130100Y0298800D01*
X0132567Y0298800D01*
X0134845Y0299744D01*
X0136589Y0301488D01*
X0137533Y0303767D01*
X0137533Y0306233D01*
X0136589Y0308512D01*
X0134845Y0310256D01*
X0135511Y0309591D02*
X0285490Y0309591D01*
X0286489Y0308592D02*
X0136509Y0308592D01*
X0136970Y0307594D02*
X0287487Y0307594D01*
X0288486Y0306595D02*
X0137383Y0306595D01*
X0137533Y0305597D02*
X0289484Y0305597D01*
X0290483Y0304598D02*
X0137533Y0304598D01*
X0137464Y0303600D02*
X0291481Y0303600D01*
X0292480Y0302601D02*
X0137050Y0302601D01*
X0136637Y0301603D02*
X0293478Y0301603D01*
X0294477Y0300604D02*
X0135705Y0300604D01*
X0134511Y0299605D02*
X0295475Y0299605D01*
X0296474Y0298607D02*
X0095052Y0298607D01*
X0096050Y0299605D02*
X0128155Y0299605D01*
X0126961Y0300604D02*
X0097049Y0300604D01*
X0098047Y0301603D02*
X0126030Y0301603D01*
X0125616Y0302601D02*
X0099046Y0302601D01*
X0100044Y0303600D02*
X0125203Y0303600D01*
X0125133Y0304598D02*
X0101043Y0304598D01*
X0102041Y0305597D02*
X0125133Y0305597D01*
X0125283Y0306595D02*
X0103040Y0306595D01*
X0104038Y0307594D02*
X0125697Y0307594D01*
X0126157Y0308592D02*
X0105037Y0308592D01*
X0106035Y0309591D02*
X0127156Y0309591D01*
X0128625Y0310589D02*
X0107034Y0310589D01*
X0103807Y0313585D02*
X0080171Y0313585D01*
X0081169Y0314583D02*
X0104805Y0314583D01*
X0105804Y0315582D02*
X0082168Y0315582D01*
X0083166Y0316580D02*
X0106802Y0316580D01*
X0107801Y0317579D02*
X0084165Y0317579D01*
X0085163Y0318577D02*
X0108799Y0318577D01*
X0109798Y0319576D02*
X0086162Y0319576D01*
X0087160Y0320574D02*
X0110796Y0320574D01*
X0111795Y0321573D02*
X0088159Y0321573D01*
X0089157Y0322571D02*
X0112793Y0322571D01*
X0113792Y0323570D02*
X0090156Y0323570D01*
X0091154Y0324568D02*
X0114790Y0324568D01*
X0115789Y0325567D02*
X0092153Y0325567D01*
X0093151Y0326565D02*
X0116787Y0326565D01*
X0117786Y0327564D02*
X0094150Y0327564D01*
X0095148Y0328562D02*
X0118784Y0328562D01*
X0119783Y0329561D02*
X0096147Y0329561D01*
X0097145Y0330559D02*
X0120781Y0330559D01*
X0121780Y0331558D02*
X0098144Y0331558D01*
X0099142Y0332556D02*
X0122778Y0332556D01*
X0123777Y0333555D02*
X0100141Y0333555D01*
X0101139Y0334553D02*
X0124775Y0334553D01*
X0131997Y0335552D02*
X0152833Y0335552D01*
X0153333Y0335500D02*
X0153333Y0364500D01*
X0153833Y0364509D02*
X0270713Y0364509D01*
X0269715Y0365507D02*
X0158742Y0365507D01*
X0158465Y0366506D02*
X0268716Y0366506D01*
X0267718Y0367504D02*
X0157949Y0367504D01*
X0158745Y0363510D02*
X0271712Y0363510D01*
X0272710Y0362512D02*
X0158470Y0362512D01*
X0157962Y0361513D02*
X0273709Y0361513D01*
X0274707Y0360515D02*
X0157126Y0360515D01*
X0155667Y0359516D02*
X0275706Y0359516D01*
X0276704Y0358518D02*
X0148033Y0358518D01*
X0148033Y0359516D02*
X0151000Y0359516D01*
X0149540Y0360515D02*
X0148033Y0360515D01*
X0148033Y0361513D02*
X0148705Y0361513D01*
X0148196Y0362512D02*
X0148033Y0362512D01*
X0145833Y0365000D02*
X0150833Y0370000D01*
X0268333Y0370000D01*
X0323333Y0315000D01*
X0327393Y0318577D02*
X0329274Y0318577D01*
X0328557Y0317579D02*
X0328110Y0317579D01*
X0326394Y0319576D02*
X0330272Y0319576D01*
X0336394Y0319576D02*
X0340272Y0319576D01*
X0339274Y0318577D02*
X0337393Y0318577D01*
X0338110Y0317579D02*
X0338557Y0317579D01*
X0338488Y0312586D02*
X0338178Y0312586D01*
X0337558Y0311588D02*
X0339109Y0311588D01*
X0340107Y0310589D02*
X0336559Y0310589D01*
X0330107Y0310589D02*
X0326559Y0310589D01*
X0327558Y0311588D02*
X0329109Y0311588D01*
X0328488Y0312586D02*
X0328178Y0312586D01*
X0320107Y0310589D02*
X0316559Y0310589D01*
X0317558Y0311588D02*
X0319109Y0311588D01*
X0318488Y0312586D02*
X0318178Y0312586D01*
X0310107Y0310589D02*
X0306559Y0310589D01*
X0307558Y0311588D02*
X0309109Y0311588D01*
X0308488Y0312586D02*
X0308178Y0312586D01*
X0308110Y0317579D02*
X0308557Y0317579D01*
X0309274Y0318577D02*
X0307393Y0318577D01*
X0306394Y0319576D02*
X0310272Y0319576D01*
X0312651Y0322571D02*
X0158704Y0322571D01*
X0159033Y0323570D02*
X0311652Y0323570D01*
X0310654Y0324568D02*
X0159033Y0324568D01*
X0159033Y0325567D02*
X0309655Y0325567D01*
X0308657Y0326565D02*
X0158647Y0326565D01*
X0158234Y0327564D02*
X0307658Y0327564D01*
X0306660Y0328562D02*
X0157332Y0328562D01*
X0156010Y0329561D02*
X0305661Y0329561D01*
X0304663Y0330559D02*
X0155752Y0330559D01*
X0157169Y0331558D02*
X0303664Y0331558D01*
X0302666Y0332556D02*
X0157993Y0332556D01*
X0158484Y0333555D02*
X0301667Y0333555D01*
X0300669Y0334553D02*
X0158752Y0334553D01*
X0158823Y0336000D02*
X0158698Y0336788D01*
X0158430Y0337611D01*
X0158037Y0338383D01*
X0157528Y0339083D01*
X0156916Y0339695D01*
X0156216Y0340204D01*
X0155445Y0340597D01*
X0154621Y0340865D01*
X0153833Y0340989D01*
X0153833Y0336000D01*
X0158823Y0336000D01*
X0158736Y0336550D02*
X0298672Y0336550D01*
X0299670Y0335552D02*
X0153833Y0335552D01*
X0153333Y0335500D02*
X0153333Y0335000D01*
X0163333Y0335000D01*
X0175833Y0322500D01*
X0275833Y0322500D01*
X0275833Y0137500D01*
X0293333Y0120000D01*
X0293033Y0118875D02*
X0293633Y0118875D01*
X0293633Y0117876D02*
X0293033Y0117876D01*
X0293033Y0116878D02*
X0293633Y0116878D01*
X0293633Y0115879D02*
X0293033Y0115879D01*
X0293033Y0114881D02*
X0293633Y0114881D01*
X0294253Y0114881D02*
X0302700Y0114881D01*
X0303698Y0113882D02*
X0221014Y0113882D01*
X0221005Y0113829D02*
X0221129Y0114606D01*
X0221129Y0114614D01*
X0216515Y0114614D01*
X0216515Y0115386D01*
X0221129Y0115386D01*
X0221129Y0115394D01*
X0221005Y0116171D01*
X0220762Y0116919D01*
X0220405Y0117621D01*
X0219942Y0118257D01*
X0219386Y0118814D01*
X0218749Y0119276D01*
X0218048Y0119634D01*
X0217299Y0119877D01*
X0216522Y0120000D01*
X0216514Y0120000D01*
X0216514Y0115386D01*
X0215743Y0115386D01*
X0215743Y0119298D01*
X0223033Y0126589D01*
X0223033Y0258411D01*
X0221745Y0259700D01*
X0221745Y0259700D01*
X0218378Y0263067D01*
X0218733Y0263926D01*
X0218733Y0266074D01*
X0217911Y0268059D01*
X0216392Y0269578D01*
X0215373Y0270000D01*
X0216392Y0270422D01*
X0217911Y0271941D01*
X0218733Y0273926D01*
X0218733Y0276074D01*
X0217911Y0278059D01*
X0216392Y0279578D01*
X0215109Y0280109D01*
X0215329Y0280181D01*
X0216059Y0280553D01*
X0216721Y0281034D01*
X0217300Y0281612D01*
X0217781Y0282275D01*
X0218152Y0283004D01*
X0218405Y0283782D01*
X0218519Y0284500D01*
X0213833Y0284500D01*
X0213833Y0285500D01*
X0212833Y0285500D01*
X0212833Y0290186D01*
X0212116Y0290072D01*
X0211337Y0289819D01*
X0210608Y0289447D01*
X0209946Y0288966D01*
X0209367Y0288388D01*
X0208886Y0287725D01*
X0208514Y0286996D01*
X0208443Y0286776D01*
X0207911Y0288059D01*
X0206392Y0289578D01*
X0204407Y0290400D01*
X0202259Y0290400D01*
X0200274Y0289578D01*
X0198755Y0288059D01*
X0197933Y0286074D01*
X0197933Y0283926D01*
X0198755Y0281941D01*
X0200274Y0280422D01*
X0201294Y0280000D01*
X0200274Y0279578D01*
X0198755Y0278059D01*
X0197933Y0276074D01*
X0197933Y0273926D01*
X0198755Y0271941D01*
X0200274Y0270422D01*
X0201294Y0270000D01*
X0200274Y0269578D01*
X0198755Y0268059D01*
X0197933Y0266074D01*
X0197933Y0263926D01*
X0198755Y0261941D01*
X0200274Y0260422D01*
X0201294Y0260000D01*
X0200274Y0259578D01*
X0198755Y0258059D01*
X0197933Y0256074D01*
X0197933Y0253926D01*
X0198755Y0251941D01*
X0200274Y0250422D01*
X0201294Y0250000D01*
X0200274Y0249578D01*
X0198755Y0248059D01*
X0197933Y0246074D01*
X0197933Y0243926D01*
X0198755Y0241941D01*
X0200274Y0240422D01*
X0201294Y0240000D01*
X0200274Y0239578D01*
X0198755Y0238059D01*
X0197933Y0236074D01*
X0197933Y0233926D01*
X0198755Y0231941D01*
X0200274Y0230422D01*
X0201294Y0230000D01*
X0200274Y0229578D01*
X0198755Y0228059D01*
X0197933Y0226074D01*
X0197933Y0223926D01*
X0198755Y0221941D01*
X0200274Y0220422D01*
X0201294Y0220000D01*
X0200274Y0219578D01*
X0198755Y0218059D01*
X0197933Y0216074D01*
X0197933Y0213926D01*
X0198755Y0211941D01*
X0200274Y0210422D01*
X0201294Y0210000D01*
X0200274Y0209578D01*
X0198755Y0208059D01*
X0197933Y0206074D01*
X0197933Y0203926D01*
X0198755Y0201941D01*
X0200274Y0200422D01*
X0201294Y0200000D01*
X0200274Y0199578D01*
X0198755Y0198059D01*
X0197933Y0196074D01*
X0197933Y0193926D01*
X0198755Y0191941D01*
X0200274Y0190422D01*
X0202259Y0189600D01*
X0204407Y0189600D01*
X0206392Y0190422D01*
X0207911Y0191941D01*
X0208333Y0192960D01*
X0208755Y0191941D01*
X0210274Y0190422D01*
X0212259Y0189600D01*
X0214407Y0189600D01*
X0216392Y0190422D01*
X0217911Y0191941D01*
X0218633Y0193684D01*
X0218633Y0128411D01*
X0209922Y0119700D01*
X0208633Y0118411D01*
X0208633Y0111589D01*
X0226133Y0094089D01*
X0227422Y0092800D01*
X0268400Y0092800D01*
X0268755Y0091941D01*
X0270274Y0090422D01*
X0272259Y0089600D01*
X0274407Y0089600D01*
X0276392Y0090422D01*
X0277911Y0091941D01*
X0278733Y0093926D01*
X0278733Y0096074D01*
X0277911Y0098059D01*
X0276392Y0099578D01*
X0274407Y0100400D01*
X0272259Y0100400D01*
X0270274Y0099578D01*
X0268755Y0098059D01*
X0268400Y0097200D01*
X0229245Y0097200D01*
X0215743Y0110702D01*
X0215743Y0114614D01*
X0216514Y0114614D01*
X0216514Y0110000D01*
X0216522Y0110000D01*
X0217299Y0110123D01*
X0218048Y0110366D01*
X0218749Y0110724D01*
X0219386Y0111186D01*
X0219942Y0111743D01*
X0220405Y0112379D01*
X0220762Y0113081D01*
X0221005Y0113829D01*
X0220662Y0112884D02*
X0304697Y0112884D01*
X0305695Y0111885D02*
X0220046Y0111885D01*
X0218974Y0110887D02*
X0306694Y0110887D01*
X0307692Y0109888D02*
X0260643Y0109888D01*
X0261392Y0109578D02*
X0259407Y0110400D01*
X0257259Y0110400D01*
X0255274Y0109578D01*
X0253755Y0108059D01*
X0252933Y0106074D01*
X0252933Y0103926D01*
X0253755Y0101941D01*
X0255274Y0100422D01*
X0257259Y0099600D01*
X0259407Y0099600D01*
X0261392Y0100422D01*
X0262911Y0101941D01*
X0263733Y0103926D01*
X0263733Y0106074D01*
X0262911Y0108059D01*
X0261392Y0109578D01*
X0262080Y0108890D02*
X0308691Y0108890D01*
X0309689Y0107891D02*
X0262981Y0107891D01*
X0263394Y0106893D02*
X0310688Y0106893D01*
X0311686Y0105894D02*
X0263733Y0105894D01*
X0263733Y0104896D02*
X0312685Y0104896D01*
X0313683Y0103897D02*
X0263721Y0103897D01*
X0263308Y0102899D02*
X0314682Y0102899D01*
X0315680Y0101900D02*
X0262870Y0101900D01*
X0261872Y0100902D02*
X0316679Y0100902D01*
X0317677Y0099903D02*
X0305070Y0099903D01*
X0305329Y0099819D02*
X0304551Y0100072D01*
X0303743Y0100200D01*
X0303719Y0100200D01*
X0303719Y0095386D01*
X0302947Y0095386D01*
X0302947Y0094614D01*
X0298133Y0094614D01*
X0298133Y0094591D01*
X0298261Y0093782D01*
X0298514Y0093004D01*
X0298886Y0092275D01*
X0299367Y0091612D01*
X0299946Y0091034D01*
X0300608Y0090553D01*
X0301337Y0090181D01*
X0302116Y0089928D01*
X0302924Y0089800D01*
X0302947Y0089800D01*
X0302947Y0094614D01*
X0303719Y0094614D01*
X0303719Y0089800D01*
X0303743Y0089800D01*
X0304551Y0089928D01*
X0305329Y0090181D01*
X0306059Y0090553D01*
X0306721Y0091034D01*
X0307300Y0091612D01*
X0307781Y0092275D01*
X0308152Y0093004D01*
X0308405Y0093782D01*
X0308533Y0094591D01*
X0308533Y0094614D01*
X0303719Y0094614D01*
X0303719Y0095386D01*
X0308533Y0095386D01*
X0308533Y0095409D01*
X0308405Y0096218D01*
X0308152Y0096996D01*
X0307781Y0097725D01*
X0307300Y0098388D01*
X0306721Y0098966D01*
X0306059Y0099447D01*
X0305329Y0099819D01*
X0303719Y0099903D02*
X0302947Y0099903D01*
X0302947Y0100200D02*
X0302924Y0100200D01*
X0302116Y0100072D01*
X0301337Y0099819D01*
X0300608Y0099447D01*
X0299946Y0098966D01*
X0299367Y0098388D01*
X0298886Y0097725D01*
X0298514Y0096996D01*
X0298261Y0096218D01*
X0298133Y0095409D01*
X0298133Y0095386D01*
X0302947Y0095386D01*
X0302947Y0100200D01*
X0302947Y0098905D02*
X0303719Y0098905D01*
X0303719Y0097906D02*
X0302947Y0097906D01*
X0302947Y0096908D02*
X0303719Y0096908D01*
X0303719Y0095909D02*
X0302947Y0095909D01*
X0302947Y0094911D02*
X0278733Y0094911D01*
X0278733Y0095909D02*
X0298213Y0095909D01*
X0298486Y0096908D02*
X0278388Y0096908D01*
X0277974Y0097906D02*
X0299017Y0097906D01*
X0299884Y0098905D02*
X0277065Y0098905D01*
X0275607Y0099903D02*
X0301596Y0099903D01*
X0306782Y0098905D02*
X0318676Y0098905D01*
X0319674Y0097906D02*
X0307649Y0097906D01*
X0308181Y0096908D02*
X0320673Y0096908D01*
X0321671Y0095909D02*
X0308454Y0095909D01*
X0308426Y0093912D02*
X0323668Y0093912D01*
X0322670Y0094911D02*
X0303719Y0094911D01*
X0303719Y0093912D02*
X0302947Y0093912D01*
X0302947Y0092914D02*
X0303719Y0092914D01*
X0303719Y0091915D02*
X0302947Y0091915D01*
X0302947Y0090917D02*
X0303719Y0090917D01*
X0303719Y0089918D02*
X0302947Y0089918D01*
X0302178Y0089918D02*
X0275175Y0089918D01*
X0276887Y0090917D02*
X0300107Y0090917D01*
X0299147Y0091915D02*
X0277885Y0091915D01*
X0278314Y0092914D02*
X0298560Y0092914D01*
X0298241Y0093912D02*
X0278728Y0093912D01*
X0273333Y0095000D02*
X0228333Y0095000D01*
X0210833Y0112500D01*
X0210833Y0117500D01*
X0220833Y0127500D01*
X0220833Y0257500D01*
X0213333Y0265000D01*
X0217318Y0268652D02*
X0301033Y0268652D01*
X0301033Y0269650D02*
X0216218Y0269650D01*
X0216619Y0270649D02*
X0301033Y0270649D01*
X0301033Y0271647D02*
X0217617Y0271647D01*
X0218203Y0272646D02*
X0301033Y0272646D01*
X0301033Y0273644D02*
X0218617Y0273644D01*
X0218733Y0274643D02*
X0301033Y0274643D01*
X0301033Y0275641D02*
X0218733Y0275641D01*
X0218499Y0276640D02*
X0301033Y0276640D01*
X0301033Y0277638D02*
X0218085Y0277638D01*
X0217333Y0278637D02*
X0301033Y0278637D01*
X0301033Y0279635D02*
X0216254Y0279635D01*
X0216171Y0280634D02*
X0301033Y0280634D01*
X0301033Y0281632D02*
X0217314Y0281632D01*
X0217962Y0282631D02*
X0301033Y0282631D01*
X0301033Y0283629D02*
X0218356Y0283629D01*
X0218519Y0285500D02*
X0213833Y0285500D01*
X0213833Y0290186D01*
X0214551Y0290072D01*
X0215329Y0289819D01*
X0216059Y0289447D01*
X0216721Y0288966D01*
X0217300Y0288388D01*
X0217781Y0287725D01*
X0218152Y0286996D01*
X0218405Y0286218D01*
X0218519Y0285500D01*
X0218499Y0285626D02*
X0301033Y0285626D01*
X0301033Y0284628D02*
X0213833Y0284628D01*
X0213333Y0285000D02*
X0175833Y0322500D01*
X0158290Y0321573D02*
X0313649Y0321573D01*
X0314648Y0320574D02*
X0157469Y0320574D01*
X0153833Y0336550D02*
X0152833Y0336550D01*
X0152833Y0337549D02*
X0153833Y0337549D01*
X0153833Y0338547D02*
X0152833Y0338547D01*
X0152833Y0339546D02*
X0153833Y0339546D01*
X0153833Y0340544D02*
X0152833Y0340544D01*
X0151119Y0340544D02*
X0136989Y0340544D01*
X0135991Y0339546D02*
X0149601Y0339546D01*
X0141982Y0345537D02*
X0289685Y0345537D01*
X0290684Y0344539D02*
X0140983Y0344539D01*
X0139985Y0343540D02*
X0291682Y0343540D01*
X0292681Y0342541D02*
X0138986Y0342541D01*
X0137988Y0341543D02*
X0293679Y0341543D01*
X0294678Y0340544D02*
X0155548Y0340544D01*
X0157066Y0339546D02*
X0295676Y0339546D01*
X0296675Y0338547D02*
X0157918Y0338547D01*
X0158451Y0337549D02*
X0297673Y0337549D01*
X0300900Y0340544D02*
X0411233Y0340544D01*
X0411233Y0339546D02*
X0301899Y0339546D01*
X0302897Y0338547D02*
X0411233Y0338547D01*
X0411233Y0337549D02*
X0303896Y0337549D01*
X0304894Y0336550D02*
X0411233Y0336550D01*
X0411233Y0335552D02*
X0305893Y0335552D01*
X0306891Y0334553D02*
X0411233Y0334553D01*
X0411233Y0333555D02*
X0307890Y0333555D01*
X0308888Y0332556D02*
X0411233Y0332556D01*
X0411233Y0331558D02*
X0309887Y0331558D01*
X0310885Y0330559D02*
X0411233Y0330559D01*
X0411233Y0329561D02*
X0311884Y0329561D01*
X0312882Y0328562D02*
X0411233Y0328562D01*
X0411233Y0327564D02*
X0313881Y0327564D01*
X0314879Y0326565D02*
X0411233Y0326565D01*
X0411233Y0325567D02*
X0315878Y0325567D01*
X0316876Y0324568D02*
X0411233Y0324568D01*
X0411233Y0323570D02*
X0317875Y0323570D01*
X0318873Y0322571D02*
X0411233Y0322571D01*
X0411233Y0321573D02*
X0319872Y0321573D01*
X0320870Y0320574D02*
X0411233Y0320574D01*
X0411233Y0319576D02*
X0356394Y0319576D01*
X0357393Y0318577D02*
X0411233Y0318577D01*
X0411233Y0317579D02*
X0358110Y0317579D01*
X0358524Y0316580D02*
X0411233Y0316580D01*
X0411233Y0315582D02*
X0358733Y0315582D01*
X0358733Y0314583D02*
X0411233Y0314583D01*
X0411233Y0313585D02*
X0358592Y0313585D01*
X0358178Y0312586D02*
X0411233Y0312586D01*
X0411233Y0311588D02*
X0357558Y0311588D01*
X0356559Y0310589D02*
X0411233Y0310589D01*
X0411233Y0309591D02*
X0291995Y0309591D01*
X0292833Y0310589D02*
X0293833Y0310589D01*
X0293833Y0311588D02*
X0292833Y0311588D01*
X0292833Y0312586D02*
X0293833Y0312586D01*
X0293833Y0313585D02*
X0292833Y0313585D01*
X0293333Y0315000D02*
X0285833Y0322500D01*
X0275833Y0322500D01*
X0286394Y0319576D02*
X0290860Y0319576D01*
X0289557Y0318577D02*
X0287393Y0318577D01*
X0288110Y0317579D02*
X0288811Y0317579D01*
X0292833Y0317579D02*
X0293833Y0317579D01*
X0293833Y0318577D02*
X0292833Y0318577D01*
X0292833Y0319576D02*
X0293833Y0319576D01*
X0295807Y0319576D02*
X0300272Y0319576D01*
X0299274Y0318577D02*
X0297110Y0318577D01*
X0297856Y0317579D02*
X0298557Y0317579D01*
X0293833Y0316580D02*
X0292833Y0316580D01*
X0292833Y0315582D02*
X0293833Y0315582D01*
X0297939Y0312586D02*
X0298488Y0312586D01*
X0299109Y0311588D02*
X0297275Y0311588D01*
X0296109Y0310589D02*
X0300107Y0310589D01*
X0295989Y0305597D02*
X0411233Y0305597D01*
X0411233Y0306595D02*
X0294991Y0306595D01*
X0293992Y0307594D02*
X0411233Y0307594D01*
X0411233Y0308592D02*
X0292994Y0308592D01*
X0296988Y0304598D02*
X0411233Y0304598D01*
X0411233Y0303600D02*
X0297986Y0303600D01*
X0298985Y0302601D02*
X0411233Y0302601D01*
X0411233Y0301603D02*
X0299983Y0301603D01*
X0300982Y0300604D02*
X0411233Y0300604D01*
X0411233Y0299605D02*
X0301980Y0299605D01*
X0302979Y0298607D02*
X0411233Y0298607D01*
X0411233Y0297608D02*
X0303978Y0297608D01*
X0304976Y0296610D02*
X0411233Y0296610D01*
X0411233Y0295611D02*
X0305633Y0295611D01*
X0305633Y0294613D02*
X0411233Y0294613D01*
X0411233Y0293614D02*
X0305633Y0293614D01*
X0305633Y0292616D02*
X0411233Y0292616D01*
X0411233Y0291617D02*
X0305633Y0291617D01*
X0305633Y0290619D02*
X0411233Y0290619D01*
X0411233Y0289620D02*
X0305633Y0289620D01*
X0305633Y0288622D02*
X0411233Y0288622D01*
X0411233Y0287623D02*
X0305633Y0287623D01*
X0305633Y0286625D02*
X0411233Y0286625D01*
X0411233Y0285626D02*
X0305633Y0285626D01*
X0305633Y0284628D02*
X0411233Y0284628D01*
X0411233Y0283629D02*
X0305633Y0283629D01*
X0305633Y0282631D02*
X0411233Y0282631D01*
X0411233Y0281632D02*
X0305633Y0281632D01*
X0305633Y0280634D02*
X0411233Y0280634D01*
X0411233Y0279635D02*
X0305633Y0279635D01*
X0305633Y0278637D02*
X0411233Y0278637D01*
X0411233Y0277638D02*
X0305633Y0277638D01*
X0305633Y0276640D02*
X0411233Y0276640D01*
X0411233Y0275641D02*
X0305633Y0275641D01*
X0305633Y0274643D02*
X0411233Y0274643D01*
X0411233Y0273644D02*
X0305633Y0273644D01*
X0305633Y0272646D02*
X0411233Y0272646D01*
X0411233Y0271647D02*
X0305633Y0271647D01*
X0305633Y0270649D02*
X0411233Y0270649D01*
X0411233Y0269650D02*
X0305633Y0269650D01*
X0305633Y0268652D02*
X0411233Y0268652D01*
X0411233Y0267653D02*
X0305633Y0267653D01*
X0305633Y0266655D02*
X0411233Y0266655D01*
X0411233Y0265656D02*
X0305633Y0265656D01*
X0306200Y0264658D02*
X0330467Y0264658D01*
X0330274Y0264578D02*
X0328755Y0263059D01*
X0327933Y0261074D01*
X0327933Y0258926D01*
X0328755Y0256941D01*
X0330274Y0255422D01*
X0332259Y0254600D01*
X0334407Y0254600D01*
X0336392Y0255422D01*
X0337911Y0256941D01*
X0338733Y0258926D01*
X0338733Y0261074D01*
X0337911Y0263059D01*
X0336392Y0264578D01*
X0334407Y0265400D01*
X0332259Y0265400D01*
X0330274Y0264578D01*
X0329356Y0263659D02*
X0307311Y0263659D01*
X0308076Y0262661D02*
X0328590Y0262661D01*
X0328177Y0261662D02*
X0308490Y0261662D01*
X0308733Y0260664D02*
X0327933Y0260664D01*
X0327933Y0259665D02*
X0308733Y0259665D01*
X0308626Y0258667D02*
X0328041Y0258667D01*
X0328454Y0257668D02*
X0308212Y0257668D01*
X0307640Y0256670D02*
X0329027Y0256670D01*
X0330026Y0255671D02*
X0306641Y0255671D01*
X0305633Y0254672D02*
X0332084Y0254672D01*
X0334582Y0254672D02*
X0411233Y0254672D01*
X0411233Y0253674D02*
X0305633Y0253674D01*
X0305633Y0252675D02*
X0411233Y0252675D01*
X0411233Y0251677D02*
X0305633Y0251677D01*
X0305633Y0250678D02*
X0411233Y0250678D01*
X0411233Y0249680D02*
X0305633Y0249680D01*
X0305633Y0248681D02*
X0411233Y0248681D01*
X0411233Y0247683D02*
X0305633Y0247683D01*
X0305633Y0246684D02*
X0411233Y0246684D01*
X0411233Y0245686D02*
X0305633Y0245686D01*
X0305633Y0244687D02*
X0411233Y0244687D01*
X0411233Y0243689D02*
X0305633Y0243689D01*
X0305633Y0242690D02*
X0411233Y0242690D01*
X0411233Y0241692D02*
X0305633Y0241692D01*
X0305633Y0240693D02*
X0411233Y0240693D01*
X0411233Y0239695D02*
X0305633Y0239695D01*
X0305633Y0238696D02*
X0411233Y0238696D01*
X0411233Y0237698D02*
X0305633Y0237698D01*
X0305633Y0236699D02*
X0411233Y0236699D01*
X0411233Y0235701D02*
X0305633Y0235701D01*
X0305633Y0234702D02*
X0411233Y0234702D01*
X0411233Y0233704D02*
X0305633Y0233704D01*
X0305633Y0232705D02*
X0411233Y0232705D01*
X0411233Y0231707D02*
X0305633Y0231707D01*
X0305633Y0230708D02*
X0411233Y0230708D01*
X0411233Y0229710D02*
X0305633Y0229710D01*
X0305633Y0228711D02*
X0411233Y0228711D01*
X0411233Y0227713D02*
X0305633Y0227713D01*
X0305633Y0226714D02*
X0411233Y0226714D01*
X0411233Y0225716D02*
X0305633Y0225716D01*
X0305633Y0224717D02*
X0411233Y0224717D01*
X0411233Y0223719D02*
X0305633Y0223719D01*
X0305633Y0222720D02*
X0411233Y0222720D01*
X0411233Y0221722D02*
X0305633Y0221722D01*
X0305633Y0220723D02*
X0411233Y0220723D01*
X0411233Y0219725D02*
X0305633Y0219725D01*
X0305633Y0218726D02*
X0411233Y0218726D01*
X0411233Y0217728D02*
X0305633Y0217728D01*
X0305633Y0216729D02*
X0411233Y0216729D01*
X0411233Y0215731D02*
X0305633Y0215731D01*
X0305633Y0214732D02*
X0411233Y0214732D01*
X0411233Y0213734D02*
X0305633Y0213734D01*
X0305633Y0212735D02*
X0411233Y0212735D01*
X0411233Y0211737D02*
X0305633Y0211737D01*
X0305633Y0210738D02*
X0411233Y0210738D01*
X0411233Y0209739D02*
X0305633Y0209739D01*
X0305633Y0208741D02*
X0411233Y0208741D01*
X0411233Y0207742D02*
X0305633Y0207742D01*
X0305633Y0206744D02*
X0411233Y0206744D01*
X0411233Y0205745D02*
X0305633Y0205745D01*
X0305633Y0204747D02*
X0411233Y0204747D01*
X0411233Y0203748D02*
X0305633Y0203748D01*
X0305633Y0202750D02*
X0411233Y0202750D01*
X0411233Y0201751D02*
X0305633Y0201751D01*
X0305633Y0200753D02*
X0411233Y0200753D01*
X0411233Y0199754D02*
X0305633Y0199754D01*
X0305633Y0198756D02*
X0411233Y0198756D01*
X0411233Y0197757D02*
X0305633Y0197757D01*
X0305633Y0196759D02*
X0411233Y0196759D01*
X0411233Y0195760D02*
X0305633Y0195760D01*
X0305633Y0194762D02*
X0411233Y0194762D01*
X0411233Y0193763D02*
X0305633Y0193763D01*
X0305633Y0192765D02*
X0411233Y0192765D01*
X0411233Y0191766D02*
X0305633Y0191766D01*
X0305633Y0190768D02*
X0411233Y0190768D01*
X0411233Y0189769D02*
X0305633Y0189769D01*
X0305633Y0188771D02*
X0411233Y0188771D01*
X0411233Y0187772D02*
X0305633Y0187772D01*
X0305633Y0186774D02*
X0411233Y0186774D01*
X0411233Y0185775D02*
X0305633Y0185775D01*
X0305633Y0184777D02*
X0411233Y0184777D01*
X0411233Y0183778D02*
X0305633Y0183778D01*
X0305633Y0182780D02*
X0411233Y0182780D01*
X0411233Y0181781D02*
X0305633Y0181781D01*
X0305633Y0180783D02*
X0411233Y0180783D01*
X0411233Y0179784D02*
X0305633Y0179784D01*
X0305633Y0178786D02*
X0411233Y0178786D01*
X0411233Y0177787D02*
X0305633Y0177787D01*
X0305633Y0176789D02*
X0411233Y0176789D01*
X0411233Y0175790D02*
X0305633Y0175790D01*
X0305633Y0174792D02*
X0411233Y0174792D01*
X0411233Y0173793D02*
X0305379Y0173793D01*
X0304381Y0172795D02*
X0411233Y0172795D01*
X0411233Y0171796D02*
X0303382Y0171796D01*
X0302384Y0170798D02*
X0411233Y0170798D01*
X0411233Y0169799D02*
X0301385Y0169799D01*
X0300387Y0168801D02*
X0411233Y0168801D01*
X0411233Y0167802D02*
X0299388Y0167802D01*
X0298390Y0166803D02*
X0411233Y0166803D01*
X0411233Y0165805D02*
X0297391Y0165805D01*
X0296392Y0164806D02*
X0411233Y0164806D01*
X0411233Y0163808D02*
X0295394Y0163808D01*
X0294395Y0162809D02*
X0411233Y0162809D01*
X0411233Y0161811D02*
X0293397Y0161811D01*
X0292398Y0160812D02*
X0411233Y0160812D01*
X0411233Y0159814D02*
X0355822Y0159814D01*
X0357155Y0158815D02*
X0411233Y0158815D01*
X0411233Y0157817D02*
X0358011Y0157817D01*
X0358425Y0156818D02*
X0411233Y0156818D01*
X0411233Y0155820D02*
X0358733Y0155820D01*
X0358733Y0154821D02*
X0411233Y0154821D01*
X0411233Y0153823D02*
X0358691Y0153823D01*
X0358277Y0152824D02*
X0411233Y0152824D01*
X0411233Y0151826D02*
X0357796Y0151826D01*
X0356797Y0150827D02*
X0411233Y0150827D01*
X0411233Y0149829D02*
X0354960Y0149829D01*
X0351707Y0149829D02*
X0344960Y0149829D01*
X0346797Y0150827D02*
X0349869Y0150827D01*
X0348871Y0151826D02*
X0347796Y0151826D01*
X0348277Y0152824D02*
X0348390Y0152824D01*
X0348655Y0157817D02*
X0348011Y0157817D01*
X0347155Y0158815D02*
X0349512Y0158815D01*
X0350844Y0159814D02*
X0345822Y0159814D01*
X0340844Y0159814D02*
X0335822Y0159814D01*
X0337155Y0158815D02*
X0339512Y0158815D01*
X0338655Y0157817D02*
X0338011Y0157817D01*
X0338277Y0152824D02*
X0338390Y0152824D01*
X0338871Y0151826D02*
X0337796Y0151826D01*
X0336797Y0150827D02*
X0339869Y0150827D01*
X0341707Y0149829D02*
X0334960Y0149829D01*
X0331707Y0149829D02*
X0324960Y0149829D01*
X0326797Y0150827D02*
X0329869Y0150827D01*
X0328871Y0151826D02*
X0327796Y0151826D01*
X0328277Y0152824D02*
X0328390Y0152824D01*
X0328655Y0157817D02*
X0328011Y0157817D01*
X0327155Y0158815D02*
X0329512Y0158815D01*
X0330844Y0159814D02*
X0325822Y0159814D01*
X0320844Y0159814D02*
X0315822Y0159814D01*
X0317155Y0158815D02*
X0319512Y0158815D01*
X0318655Y0157817D02*
X0318011Y0157817D01*
X0318277Y0152824D02*
X0318390Y0152824D01*
X0318871Y0151826D02*
X0317796Y0151826D01*
X0316797Y0150827D02*
X0319869Y0150827D01*
X0321707Y0149829D02*
X0314960Y0149829D01*
X0311707Y0149829D02*
X0304960Y0149829D01*
X0306797Y0150827D02*
X0309869Y0150827D01*
X0308871Y0151826D02*
X0307796Y0151826D01*
X0308277Y0152824D02*
X0308390Y0152824D01*
X0308655Y0157817D02*
X0308011Y0157817D01*
X0307155Y0158815D02*
X0309512Y0158815D01*
X0310844Y0159814D02*
X0305822Y0159814D01*
X0300844Y0159814D02*
X0295339Y0159814D01*
X0293833Y0159814D02*
X0292833Y0159814D01*
X0292833Y0158815D02*
X0293833Y0158815D01*
X0293833Y0157817D02*
X0292833Y0157817D01*
X0292833Y0156818D02*
X0293833Y0156818D01*
X0293833Y0155820D02*
X0292833Y0155820D01*
X0293333Y0155000D02*
X0293333Y0147500D01*
X0343333Y0097500D01*
X0343333Y0095000D01*
X0342947Y0094911D02*
X0329175Y0094911D01*
X0328177Y0095909D02*
X0338213Y0095909D01*
X0338261Y0096218D02*
X0338133Y0095409D01*
X0338133Y0095386D01*
X0342947Y0095386D01*
X0342947Y0094614D01*
X0338133Y0094614D01*
X0338133Y0094591D01*
X0338261Y0093782D01*
X0338514Y0093004D01*
X0338886Y0092275D01*
X0339367Y0091612D01*
X0339946Y0091034D01*
X0340608Y0090553D01*
X0341337Y0090181D01*
X0342116Y0089928D01*
X0342924Y0089800D01*
X0342947Y0089800D01*
X0342947Y0094614D01*
X0343719Y0094614D01*
X0343719Y0089800D01*
X0343743Y0089800D01*
X0344551Y0089928D01*
X0345329Y0090181D01*
X0346059Y0090553D01*
X0346721Y0091034D01*
X0347300Y0091612D01*
X0347781Y0092275D01*
X0348152Y0093004D01*
X0348405Y0093782D01*
X0348533Y0094591D01*
X0348533Y0094614D01*
X0343719Y0094614D01*
X0343719Y0095386D01*
X0342947Y0095386D01*
X0342947Y0100200D01*
X0342924Y0100200D01*
X0342116Y0100072D01*
X0341337Y0099819D01*
X0340608Y0099447D01*
X0339946Y0098966D01*
X0339367Y0098388D01*
X0338886Y0097725D01*
X0338514Y0096996D01*
X0338261Y0096218D01*
X0338486Y0096908D02*
X0327178Y0096908D01*
X0326180Y0097906D02*
X0339017Y0097906D01*
X0339884Y0098905D02*
X0325181Y0098905D01*
X0324183Y0099903D02*
X0326527Y0099903D01*
X0327259Y0099600D02*
X0325274Y0100422D01*
X0323755Y0101941D01*
X0322933Y0103926D01*
X0322933Y0106074D01*
X0323755Y0108059D01*
X0325274Y0109578D01*
X0327259Y0110400D01*
X0329407Y0110400D01*
X0331392Y0109578D01*
X0332911Y0108059D01*
X0333733Y0106074D01*
X0333733Y0103926D01*
X0332911Y0101941D01*
X0331392Y0100422D01*
X0329407Y0099600D01*
X0327259Y0099600D01*
X0324795Y0100902D02*
X0323184Y0100902D01*
X0323796Y0101900D02*
X0322186Y0101900D01*
X0321187Y0102899D02*
X0323359Y0102899D01*
X0322945Y0103897D02*
X0320189Y0103897D01*
X0319190Y0104896D02*
X0322933Y0104896D01*
X0322933Y0105894D02*
X0318192Y0105894D01*
X0317193Y0106893D02*
X0323272Y0106893D01*
X0323686Y0107891D02*
X0316195Y0107891D01*
X0315196Y0108890D02*
X0324586Y0108890D01*
X0326024Y0109888D02*
X0314198Y0109888D01*
X0313199Y0110887D02*
X0411233Y0110887D01*
X0411233Y0111885D02*
X0312201Y0111885D01*
X0311202Y0112884D02*
X0411233Y0112884D01*
X0411233Y0113882D02*
X0310204Y0113882D01*
X0309205Y0114881D02*
X0351581Y0114881D01*
X0352259Y0114600D02*
X0354407Y0114600D01*
X0356392Y0115422D01*
X0357911Y0116941D01*
X0358443Y0118224D01*
X0358514Y0118004D01*
X0358886Y0117275D01*
X0359367Y0116612D01*
X0359946Y0116034D01*
X0360608Y0115553D01*
X0361337Y0115181D01*
X0362116Y0114928D01*
X0362924Y0114800D01*
X0363033Y0114800D01*
X0363033Y0119700D01*
X0363633Y0119700D01*
X0363633Y0114800D01*
X0363743Y0114800D01*
X0364551Y0114928D01*
X0365329Y0115181D01*
X0366059Y0115553D01*
X0366721Y0116034D01*
X0367300Y0116612D01*
X0367781Y0117275D01*
X0368152Y0118004D01*
X0368405Y0118782D01*
X0368533Y0119591D01*
X0368533Y0119700D01*
X0363633Y0119700D01*
X0363633Y0120300D01*
X0363033Y0120300D01*
X0363033Y0125200D01*
X0362924Y0125200D01*
X0362116Y0125072D01*
X0361337Y0124819D01*
X0360608Y0124447D01*
X0359946Y0123966D01*
X0359367Y0123388D01*
X0358886Y0122725D01*
X0358514Y0121996D01*
X0358443Y0121776D01*
X0357911Y0123059D01*
X0356392Y0124578D01*
X0354407Y0125400D01*
X0352259Y0125400D01*
X0350274Y0124578D01*
X0348755Y0123059D01*
X0347933Y0121074D01*
X0347933Y0118926D01*
X0348755Y0116941D01*
X0350274Y0115422D01*
X0352259Y0114600D01*
X0349817Y0115879D02*
X0308207Y0115879D01*
X0307208Y0116878D02*
X0348819Y0116878D01*
X0348368Y0117876D02*
X0306210Y0117876D01*
X0305211Y0118875D02*
X0347954Y0118875D01*
X0347933Y0119873D02*
X0304213Y0119873D01*
X0303214Y0120872D02*
X0347933Y0120872D01*
X0348263Y0121870D02*
X0302216Y0121870D01*
X0301217Y0122869D02*
X0348677Y0122869D01*
X0349564Y0123868D02*
X0300218Y0123868D01*
X0299220Y0124866D02*
X0350970Y0124866D01*
X0355697Y0124866D02*
X0361482Y0124866D01*
X0363033Y0124866D02*
X0363633Y0124866D01*
X0363633Y0125200D02*
X0363743Y0125200D01*
X0364551Y0125072D01*
X0365329Y0124819D01*
X0366059Y0124447D01*
X0366721Y0123966D01*
X0367300Y0123388D01*
X0367781Y0122725D01*
X0368152Y0121996D01*
X0368405Y0121218D01*
X0368533Y0120409D01*
X0368533Y0120300D01*
X0363633Y0120300D01*
X0363633Y0125200D01*
X0363633Y0123868D02*
X0363033Y0123868D01*
X0363033Y0122869D02*
X0363633Y0122869D01*
X0363633Y0121870D02*
X0363033Y0121870D01*
X0363033Y0120872D02*
X0363633Y0120872D01*
X0363633Y0119873D02*
X0411233Y0119873D01*
X0411233Y0118875D02*
X0368420Y0118875D01*
X0368087Y0117876D02*
X0411233Y0117876D01*
X0411233Y0116878D02*
X0367493Y0116878D01*
X0366509Y0115879D02*
X0411233Y0115879D01*
X0411233Y0114881D02*
X0364253Y0114881D01*
X0363633Y0114881D02*
X0363033Y0114881D01*
X0362413Y0114881D02*
X0355086Y0114881D01*
X0356849Y0115879D02*
X0360158Y0115879D01*
X0359174Y0116878D02*
X0357848Y0116878D01*
X0358299Y0117876D02*
X0358579Y0117876D01*
X0358473Y0121870D02*
X0358403Y0121870D01*
X0357990Y0122869D02*
X0358990Y0122869D01*
X0359847Y0123868D02*
X0357103Y0123868D01*
X0365185Y0124866D02*
X0411233Y0124866D01*
X0411233Y0123868D02*
X0366820Y0123868D01*
X0367676Y0122869D02*
X0411233Y0122869D01*
X0411233Y0121870D02*
X0368193Y0121870D01*
X0368460Y0120872D02*
X0411233Y0120872D01*
X0411233Y0125865D02*
X0298221Y0125865D01*
X0297223Y0126863D02*
X0411233Y0126863D01*
X0411233Y0127862D02*
X0296224Y0127862D01*
X0295226Y0128860D02*
X0411233Y0128860D01*
X0411233Y0129859D02*
X0330032Y0129859D01*
X0329407Y0129600D02*
X0331392Y0130422D01*
X0332911Y0131941D01*
X0333733Y0133926D01*
X0333733Y0136074D01*
X0332911Y0138059D01*
X0331392Y0139578D01*
X0329407Y0140400D01*
X0327259Y0140400D01*
X0325274Y0139578D01*
X0323755Y0138059D01*
X0322933Y0136074D01*
X0322933Y0133926D01*
X0323755Y0131941D01*
X0325274Y0130422D01*
X0327259Y0129600D01*
X0329407Y0129600D01*
X0331827Y0130857D02*
X0411233Y0130857D01*
X0411233Y0131856D02*
X0332826Y0131856D01*
X0333289Y0132854D02*
X0411233Y0132854D01*
X0411233Y0133853D02*
X0333703Y0133853D01*
X0333733Y0134851D02*
X0411233Y0134851D01*
X0411233Y0135850D02*
X0333733Y0135850D01*
X0333413Y0136848D02*
X0411233Y0136848D01*
X0411233Y0137847D02*
X0332999Y0137847D01*
X0332125Y0138845D02*
X0411233Y0138845D01*
X0411233Y0139844D02*
X0330750Y0139844D01*
X0325916Y0139844D02*
X0285633Y0139844D01*
X0285633Y0140842D02*
X0411233Y0140842D01*
X0411233Y0141841D02*
X0285633Y0141841D01*
X0285633Y0142839D02*
X0411233Y0142839D01*
X0411233Y0143838D02*
X0285633Y0143838D01*
X0285633Y0144836D02*
X0411233Y0144836D01*
X0411233Y0145835D02*
X0285633Y0145835D01*
X0285633Y0146833D02*
X0411233Y0146833D01*
X0411233Y0147832D02*
X0285633Y0147832D01*
X0285633Y0148830D02*
X0411233Y0148830D01*
X0411233Y0109888D02*
X0330643Y0109888D01*
X0332080Y0108890D02*
X0411233Y0108890D01*
X0411233Y0107891D02*
X0332981Y0107891D01*
X0333394Y0106893D02*
X0411233Y0106893D01*
X0411233Y0105894D02*
X0333733Y0105894D01*
X0333733Y0104896D02*
X0411233Y0104896D01*
X0411233Y0103897D02*
X0333721Y0103897D01*
X0333308Y0102899D02*
X0411233Y0102899D01*
X0411233Y0101900D02*
X0332870Y0101900D01*
X0331872Y0100902D02*
X0411233Y0100902D01*
X0411233Y0099903D02*
X0375607Y0099903D01*
X0376392Y0099578D02*
X0374407Y0100400D01*
X0372259Y0100400D01*
X0370274Y0099578D01*
X0368755Y0098059D01*
X0367933Y0096074D01*
X0367933Y0093926D01*
X0368755Y0091941D01*
X0370274Y0090422D01*
X0372259Y0089600D01*
X0374407Y0089600D01*
X0376392Y0090422D01*
X0377911Y0091941D01*
X0378733Y0093926D01*
X0378733Y0096074D01*
X0377911Y0098059D01*
X0376392Y0099578D01*
X0377065Y0098905D02*
X0411233Y0098905D01*
X0411233Y0097906D02*
X0377974Y0097906D01*
X0378388Y0096908D02*
X0411233Y0096908D01*
X0411233Y0095909D02*
X0378733Y0095909D01*
X0378733Y0094911D02*
X0411233Y0094911D01*
X0411233Y0093912D02*
X0378728Y0093912D01*
X0378314Y0092914D02*
X0411233Y0092914D01*
X0411233Y0091915D02*
X0377885Y0091915D01*
X0376887Y0090917D02*
X0411233Y0090917D01*
X0411233Y0089918D02*
X0375175Y0089918D01*
X0371491Y0089918D02*
X0344488Y0089918D01*
X0343719Y0089918D02*
X0342947Y0089918D01*
X0342178Y0089918D02*
X0334168Y0089918D01*
X0335166Y0088920D02*
X0411233Y0088920D01*
X0411233Y0087921D02*
X0336165Y0087921D01*
X0337163Y0086923D02*
X0411233Y0086923D01*
X0411233Y0085924D02*
X0338162Y0085924D01*
X0339160Y0084926D02*
X0411233Y0084926D01*
X0411233Y0083927D02*
X0340159Y0083927D01*
X0341157Y0082929D02*
X0411233Y0082929D01*
X0411233Y0081930D02*
X0342156Y0081930D01*
X0343154Y0080932D02*
X0411233Y0080932D01*
X0411233Y0079933D02*
X0344153Y0079933D01*
X0347490Y0078934D02*
X0369177Y0078934D01*
X0370059Y0079300D02*
X0368074Y0078478D01*
X0366555Y0076959D01*
X0365733Y0074974D01*
X0365733Y0072826D01*
X0366555Y0070841D01*
X0368074Y0069322D01*
X0370059Y0068500D01*
X0372207Y0068500D01*
X0374192Y0069322D01*
X0375711Y0070841D01*
X0376533Y0072826D01*
X0376533Y0074974D01*
X0375711Y0076959D01*
X0374192Y0078478D01*
X0372207Y0079300D01*
X0370059Y0079300D01*
X0367533Y0077936D02*
X0349134Y0077936D01*
X0350120Y0076937D02*
X0366547Y0076937D01*
X0366133Y0075939D02*
X0350534Y0075939D01*
X0350933Y0074940D02*
X0365733Y0074940D01*
X0365733Y0073942D02*
X0350933Y0073942D01*
X0350933Y0072943D02*
X0365733Y0072943D01*
X0366098Y0071945D02*
X0350568Y0071945D01*
X0350155Y0070946D02*
X0366512Y0070946D01*
X0367449Y0069948D02*
X0349218Y0069948D01*
X0347692Y0068949D02*
X0368974Y0068949D01*
X0373292Y0068949D02*
X0411233Y0068949D01*
X0411233Y0067951D02*
X0202274Y0067951D01*
X0202071Y0067803D02*
X0202826Y0068352D01*
X0203486Y0069011D01*
X0204034Y0069766D01*
X0204458Y0070598D01*
X0204746Y0071486D01*
X0204887Y0072374D01*
X0199463Y0072374D01*
X0199463Y0066950D01*
X0200352Y0067091D01*
X0201239Y0067379D01*
X0202071Y0067803D01*
X0203424Y0068949D02*
X0273374Y0068949D01*
X0272474Y0069322D02*
X0274459Y0068500D01*
X0276607Y0068500D01*
X0278592Y0069322D01*
X0280111Y0070841D01*
X0280933Y0072826D01*
X0280933Y0074974D01*
X0280111Y0076959D01*
X0278592Y0078478D01*
X0276607Y0079300D01*
X0274459Y0079300D01*
X0272474Y0078478D01*
X0270955Y0076959D01*
X0270133Y0074974D01*
X0270133Y0072826D01*
X0270955Y0070841D01*
X0272474Y0069322D01*
X0271849Y0069948D02*
X0204127Y0069948D01*
X0204571Y0070946D02*
X0270912Y0070946D01*
X0270498Y0071945D02*
X0204819Y0071945D01*
X0204887Y0073374D02*
X0204746Y0074262D01*
X0204458Y0075150D01*
X0204034Y0075982D01*
X0203486Y0076737D01*
X0202826Y0077396D01*
X0202071Y0077945D01*
X0201239Y0078369D01*
X0200352Y0078657D01*
X0199463Y0078798D01*
X0199463Y0073374D01*
X0198463Y0073374D01*
X0198463Y0072374D01*
X0193039Y0072374D01*
X0193180Y0071486D01*
X0193469Y0070598D01*
X0193892Y0069766D01*
X0194441Y0069011D01*
X0195101Y0068352D01*
X0195856Y0067803D01*
X0196687Y0067379D01*
X0197575Y0067091D01*
X0198463Y0066950D01*
X0198463Y0072374D01*
X0199463Y0072374D01*
X0199463Y0073374D01*
X0204887Y0073374D01*
X0204797Y0073942D02*
X0270133Y0073942D01*
X0270133Y0074940D02*
X0204526Y0074940D01*
X0204056Y0075939D02*
X0270533Y0075939D01*
X0270947Y0076937D02*
X0203285Y0076937D01*
X0202083Y0077936D02*
X0271933Y0077936D01*
X0273577Y0078934D02*
X0080010Y0078934D01*
X0081009Y0077936D02*
X0195843Y0077936D01*
X0195856Y0077945D02*
X0195101Y0077396D01*
X0194441Y0076737D01*
X0193892Y0075982D01*
X0193469Y0075150D01*
X0193180Y0074262D01*
X0193039Y0073374D01*
X0198463Y0073374D01*
X0198463Y0078798D01*
X0197575Y0078657D01*
X0196687Y0078369D01*
X0195856Y0077945D01*
X0194642Y0076937D02*
X0082007Y0076937D01*
X0083006Y0075939D02*
X0193871Y0075939D01*
X0193400Y0074940D02*
X0084004Y0074940D01*
X0085003Y0073942D02*
X0193129Y0073942D01*
X0193107Y0071945D02*
X0087000Y0071945D01*
X0087998Y0070946D02*
X0193355Y0070946D01*
X0193800Y0069948D02*
X0088997Y0069948D01*
X0089995Y0068949D02*
X0194503Y0068949D01*
X0195652Y0067951D02*
X0090994Y0067951D01*
X0091992Y0066952D02*
X0198449Y0066952D01*
X0198463Y0066952D02*
X0199463Y0066952D01*
X0199477Y0066952D02*
X0411233Y0066952D01*
X0411233Y0065954D02*
X0092991Y0065954D01*
X0093989Y0064955D02*
X0411233Y0064955D01*
X0411233Y0063957D02*
X0094988Y0063957D01*
X0095986Y0062958D02*
X0197028Y0062958D01*
X0195129Y0061960D02*
X0096985Y0061960D01*
X0097983Y0060961D02*
X0194131Y0060961D01*
X0193504Y0059963D02*
X0098982Y0059963D01*
X0098333Y0057500D02*
X0198333Y0057500D01*
X0198963Y0057126D01*
X0205092Y0056967D02*
X0270133Y0056967D01*
X0270133Y0057174D02*
X0270133Y0055026D01*
X0270955Y0053041D01*
X0272474Y0051522D01*
X0274459Y0050700D01*
X0276607Y0050700D01*
X0278592Y0051522D01*
X0280111Y0053041D01*
X0280933Y0055026D01*
X0280933Y0057174D01*
X0280111Y0059159D01*
X0278592Y0060678D01*
X0276607Y0061500D01*
X0274459Y0061500D01*
X0272474Y0060678D01*
X0270955Y0059159D01*
X0270133Y0057174D01*
X0270461Y0057966D02*
X0205092Y0057966D01*
X0204836Y0058964D02*
X0270875Y0058964D01*
X0271759Y0059963D02*
X0204422Y0059963D01*
X0203796Y0060961D02*
X0273159Y0060961D01*
X0277908Y0060961D02*
X0298759Y0060961D01*
X0298074Y0060678D02*
X0296555Y0059159D01*
X0295733Y0057174D01*
X0295733Y0055026D01*
X0296555Y0053041D01*
X0298074Y0051522D01*
X0300059Y0050700D01*
X0302207Y0050700D01*
X0304192Y0051522D01*
X0305711Y0053041D01*
X0306533Y0055026D01*
X0306533Y0057174D01*
X0305711Y0059159D01*
X0304192Y0060678D01*
X0302207Y0061500D01*
X0300059Y0061500D01*
X0298074Y0060678D01*
X0297359Y0059963D02*
X0279307Y0059963D01*
X0280192Y0058964D02*
X0296475Y0058964D01*
X0296061Y0057966D02*
X0280605Y0057966D01*
X0280933Y0056967D02*
X0295733Y0056967D01*
X0295733Y0055969D02*
X0280933Y0055969D01*
X0280910Y0054970D02*
X0295756Y0054970D01*
X0296170Y0053972D02*
X0280497Y0053972D01*
X0280043Y0052973D02*
X0296623Y0052973D01*
X0297622Y0051975D02*
X0279045Y0051975D01*
X0277274Y0050976D02*
X0299392Y0050976D01*
X0302874Y0050976D02*
X0343792Y0050976D01*
X0344459Y0050700D02*
X0342474Y0051522D01*
X0340955Y0053041D01*
X0340133Y0055026D01*
X0340133Y0057174D01*
X0340955Y0059159D01*
X0342474Y0060678D01*
X0344459Y0061500D01*
X0346607Y0061500D01*
X0348592Y0060678D01*
X0350111Y0059159D01*
X0350933Y0057174D01*
X0350933Y0055026D01*
X0350111Y0053041D01*
X0348592Y0051522D01*
X0346607Y0050700D01*
X0344459Y0050700D01*
X0342022Y0051975D02*
X0304645Y0051975D01*
X0305643Y0052973D02*
X0341023Y0052973D01*
X0340570Y0053972D02*
X0306097Y0053972D01*
X0306510Y0054970D02*
X0340156Y0054970D01*
X0340133Y0055969D02*
X0306533Y0055969D01*
X0306533Y0056967D02*
X0340133Y0056967D01*
X0340461Y0057966D02*
X0306205Y0057966D01*
X0305792Y0058964D02*
X0340875Y0058964D01*
X0341759Y0059963D02*
X0304907Y0059963D01*
X0303508Y0060961D02*
X0343159Y0060961D01*
X0347908Y0060961D02*
X0368759Y0060961D01*
X0368074Y0060678D02*
X0366555Y0059159D01*
X0365733Y0057174D01*
X0365733Y0055026D01*
X0366555Y0053041D01*
X0368074Y0051522D01*
X0370059Y0050700D01*
X0372207Y0050700D01*
X0374192Y0051522D01*
X0375711Y0053041D01*
X0376533Y0055026D01*
X0376533Y0057174D01*
X0375711Y0059159D01*
X0374192Y0060678D01*
X0372207Y0061500D01*
X0370059Y0061500D01*
X0368074Y0060678D01*
X0367359Y0059963D02*
X0349307Y0059963D01*
X0350192Y0058964D02*
X0366475Y0058964D01*
X0366061Y0057966D02*
X0350605Y0057966D01*
X0350933Y0056967D02*
X0365733Y0056967D01*
X0365733Y0055969D02*
X0350933Y0055969D01*
X0350910Y0054970D02*
X0365756Y0054970D01*
X0366170Y0053972D02*
X0350497Y0053972D01*
X0350043Y0052973D02*
X0366623Y0052973D01*
X0367622Y0051975D02*
X0349045Y0051975D01*
X0347274Y0050976D02*
X0369392Y0050976D01*
X0372874Y0050976D02*
X0411233Y0050976D01*
X0411233Y0049978D02*
X0015433Y0049978D01*
X0015433Y0050976D02*
X0273792Y0050976D01*
X0272022Y0051975D02*
X0202480Y0051975D01*
X0203478Y0052973D02*
X0271023Y0052973D01*
X0270570Y0053972D02*
X0204291Y0053972D01*
X0204704Y0054970D02*
X0270156Y0054970D01*
X0270133Y0055969D02*
X0205092Y0055969D01*
X0202797Y0061960D02*
X0411233Y0061960D01*
X0411233Y0062958D02*
X0200899Y0062958D01*
X0199463Y0067951D02*
X0198463Y0067951D01*
X0198463Y0068949D02*
X0199463Y0068949D01*
X0199463Y0069948D02*
X0198463Y0069948D01*
X0198463Y0070946D02*
X0199463Y0070946D01*
X0199463Y0071945D02*
X0198463Y0071945D01*
X0198463Y0072943D02*
X0086001Y0072943D01*
X0087767Y0064955D02*
X0015433Y0064955D01*
X0015433Y0063957D02*
X0088765Y0063957D01*
X0089764Y0062958D02*
X0015433Y0062958D01*
X0015433Y0061960D02*
X0090762Y0061960D01*
X0091761Y0060961D02*
X0015433Y0060961D01*
X0015433Y0059963D02*
X0092759Y0059963D01*
X0093758Y0058964D02*
X0015433Y0058964D01*
X0015433Y0057966D02*
X0094756Y0057966D01*
X0095755Y0056967D02*
X0015433Y0056967D01*
X0015433Y0055969D02*
X0096753Y0055969D01*
X0098333Y0057500D02*
X0053333Y0102500D01*
X0053333Y0205000D01*
X0043333Y0215000D01*
X0047244Y0218726D02*
X0056133Y0218726D01*
X0056133Y0217728D02*
X0048048Y0217728D01*
X0048462Y0216729D02*
X0056133Y0216729D01*
X0056133Y0215731D02*
X0048733Y0215731D01*
X0048733Y0214732D02*
X0056133Y0214732D01*
X0056133Y0213734D02*
X0048654Y0213734D01*
X0048710Y0212735D02*
X0056133Y0212735D01*
X0056133Y0211737D02*
X0049708Y0211737D01*
X0050707Y0210738D02*
X0056133Y0210738D01*
X0056133Y0209739D02*
X0051705Y0209739D01*
X0052704Y0208741D02*
X0056133Y0208741D01*
X0056133Y0207742D02*
X0053702Y0207742D01*
X0054701Y0206744D02*
X0056133Y0206744D01*
X0056133Y0205745D02*
X0055533Y0205745D01*
X0055533Y0204747D02*
X0056133Y0204747D01*
X0056133Y0203748D02*
X0055533Y0203748D01*
X0055533Y0202750D02*
X0056133Y0202750D01*
X0056133Y0201751D02*
X0055533Y0201751D01*
X0055533Y0200753D02*
X0056133Y0200753D01*
X0056133Y0199754D02*
X0055533Y0199754D01*
X0055533Y0198756D02*
X0056133Y0198756D01*
X0056133Y0197757D02*
X0055533Y0197757D01*
X0055533Y0196759D02*
X0056133Y0196759D01*
X0056133Y0195760D02*
X0055533Y0195760D01*
X0055533Y0194762D02*
X0056133Y0194762D01*
X0056133Y0193763D02*
X0055533Y0193763D01*
X0055533Y0192765D02*
X0056133Y0192765D01*
X0056133Y0191766D02*
X0055533Y0191766D01*
X0055533Y0190768D02*
X0056133Y0190768D01*
X0056133Y0189769D02*
X0055533Y0189769D01*
X0055533Y0188771D02*
X0056133Y0188771D01*
X0056133Y0187772D02*
X0055533Y0187772D01*
X0055533Y0186774D02*
X0056133Y0186774D01*
X0056133Y0185775D02*
X0055533Y0185775D01*
X0055533Y0184777D02*
X0056133Y0184777D01*
X0056133Y0183778D02*
X0055533Y0183778D01*
X0055533Y0182780D02*
X0056133Y0182780D01*
X0056133Y0181781D02*
X0055533Y0181781D01*
X0055533Y0180783D02*
X0056133Y0180783D01*
X0058333Y0177500D02*
X0058333Y0265000D01*
X0145833Y0352500D01*
X0145833Y0365000D01*
X0144228Y0366506D02*
X0031362Y0366506D01*
X0030865Y0366300D02*
X0033695Y0367472D01*
X0035861Y0369638D01*
X0037033Y0372468D01*
X0037033Y0375532D01*
X0035861Y0378362D01*
X0033695Y0380528D01*
X0030865Y0381700D01*
X0027802Y0381700D01*
X0024972Y0380528D01*
X0022806Y0378362D01*
X0021633Y0375532D01*
X0021633Y0372468D01*
X0022806Y0369638D01*
X0024972Y0367472D01*
X0027802Y0366300D01*
X0030865Y0366300D01*
X0033727Y0367504D02*
X0145226Y0367504D01*
X0146225Y0368503D02*
X0034726Y0368503D01*
X0035724Y0369501D02*
X0147223Y0369501D01*
X0148222Y0370500D02*
X0036218Y0370500D01*
X0036631Y0371498D02*
X0149220Y0371498D01*
X0148408Y0372497D02*
X0037033Y0372497D01*
X0037033Y0373495D02*
X0147994Y0373495D01*
X0147633Y0374494D02*
X0037033Y0374494D01*
X0037033Y0375492D02*
X0147633Y0375492D01*
X0147633Y0376491D02*
X0036636Y0376491D01*
X0036222Y0377489D02*
X0147988Y0377489D01*
X0148401Y0378488D02*
X0035735Y0378488D01*
X0034736Y0379486D02*
X0149259Y0379486D01*
X0150473Y0380485D02*
X0033738Y0380485D01*
X0031388Y0381483D02*
X0411233Y0381483D01*
X0411233Y0380485D02*
X0156193Y0380485D01*
X0157408Y0379486D02*
X0411233Y0379486D01*
X0411233Y0378488D02*
X0158265Y0378488D01*
X0158679Y0377489D02*
X0411233Y0377489D01*
X0411233Y0376491D02*
X0159033Y0376491D01*
X0159033Y0375492D02*
X0411233Y0375492D01*
X0411233Y0374494D02*
X0159033Y0374494D01*
X0158673Y0373495D02*
X0411233Y0373495D01*
X0411233Y0372497D02*
X0158259Y0372497D01*
X0153833Y0363510D02*
X0152833Y0363510D01*
X0152833Y0362512D02*
X0153833Y0362512D01*
X0153833Y0361513D02*
X0152833Y0361513D01*
X0152833Y0360515D02*
X0153833Y0360515D01*
X0153833Y0359516D02*
X0152833Y0359516D01*
X0148033Y0357519D02*
X0277703Y0357519D01*
X0278701Y0356521D02*
X0148033Y0356521D01*
X0148033Y0355522D02*
X0279700Y0355522D01*
X0280698Y0354524D02*
X0148033Y0354524D01*
X0148033Y0353525D02*
X0281697Y0353525D01*
X0282695Y0352527D02*
X0148033Y0352527D01*
X0147973Y0351528D02*
X0283694Y0351528D01*
X0284692Y0350530D02*
X0146974Y0350530D01*
X0145976Y0349531D02*
X0285691Y0349531D01*
X0286689Y0348533D02*
X0144977Y0348533D01*
X0143979Y0347534D02*
X0287688Y0347534D01*
X0288687Y0346536D02*
X0142980Y0346536D01*
X0137756Y0347534D02*
X0130551Y0347534D01*
X0129716Y0346536D02*
X0136758Y0346536D01*
X0123833Y0350530D02*
X0122833Y0350530D01*
X0122833Y0351528D02*
X0123833Y0351528D01*
X0123833Y0352527D02*
X0122833Y0352527D01*
X0122833Y0353525D02*
X0123833Y0353525D01*
X0123833Y0354524D02*
X0122833Y0354524D01*
X0115668Y0348533D02*
X0115119Y0348533D01*
X0116115Y0347534D02*
X0114120Y0347534D01*
X0113122Y0346536D02*
X0116951Y0346536D01*
X0118659Y0345537D02*
X0112123Y0345537D01*
X0111125Y0344539D02*
X0118286Y0344539D01*
X0116744Y0343540D02*
X0110126Y0343540D01*
X0109127Y0342541D02*
X0115882Y0342541D01*
X0115469Y0341543D02*
X0108129Y0341543D01*
X0107130Y0340544D02*
X0115233Y0340544D01*
X0115233Y0339546D02*
X0106132Y0339546D01*
X0105133Y0338547D02*
X0115431Y0338547D01*
X0115845Y0337549D02*
X0104135Y0337549D01*
X0103136Y0336550D02*
X0116653Y0336550D01*
X0118068Y0335552D02*
X0102138Y0335552D01*
X0102808Y0312586D02*
X0079172Y0312586D01*
X0078174Y0311588D02*
X0101810Y0311588D01*
X0100811Y0310589D02*
X0077175Y0310589D01*
X0076177Y0309591D02*
X0099813Y0309591D01*
X0098814Y0308592D02*
X0075178Y0308592D01*
X0074180Y0307594D02*
X0097816Y0307594D01*
X0096817Y0306595D02*
X0073181Y0306595D01*
X0072183Y0305597D02*
X0095819Y0305597D01*
X0094820Y0304598D02*
X0071184Y0304598D01*
X0070186Y0303600D02*
X0093822Y0303600D01*
X0092823Y0302601D02*
X0069187Y0302601D01*
X0068189Y0301603D02*
X0091825Y0301603D01*
X0090826Y0300604D02*
X0067190Y0300604D01*
X0066191Y0299605D02*
X0089828Y0299605D01*
X0088829Y0298607D02*
X0065193Y0298607D01*
X0064194Y0297608D02*
X0087831Y0297608D01*
X0086832Y0296610D02*
X0063196Y0296610D01*
X0062197Y0295611D02*
X0085834Y0295611D01*
X0084835Y0294613D02*
X0061199Y0294613D01*
X0060200Y0293614D02*
X0083837Y0293614D01*
X0082838Y0292616D02*
X0059202Y0292616D01*
X0058203Y0291617D02*
X0081839Y0291617D01*
X0080841Y0290619D02*
X0057205Y0290619D01*
X0056206Y0289620D02*
X0079842Y0289620D01*
X0078844Y0288622D02*
X0055208Y0288622D01*
X0054209Y0287623D02*
X0077845Y0287623D01*
X0076847Y0286625D02*
X0053211Y0286625D01*
X0052212Y0285626D02*
X0075848Y0285626D01*
X0074850Y0284628D02*
X0051214Y0284628D01*
X0050215Y0283629D02*
X0073851Y0283629D01*
X0072853Y0282631D02*
X0048197Y0282631D01*
X0047602Y0281632D02*
X0071854Y0281632D01*
X0070856Y0280634D02*
X0046604Y0280634D01*
X0045690Y0279635D02*
X0069857Y0279635D01*
X0068859Y0278637D02*
X0047050Y0278637D01*
X0047825Y0277638D02*
X0067860Y0277638D01*
X0066862Y0276640D02*
X0048268Y0276640D01*
X0048497Y0275641D02*
X0065863Y0275641D01*
X0064865Y0274643D02*
X0043833Y0274643D01*
X0047970Y0272646D02*
X0062868Y0272646D01*
X0063866Y0273644D02*
X0048360Y0273644D01*
X0047325Y0271647D02*
X0061869Y0271647D01*
X0060871Y0270649D02*
X0046191Y0270649D01*
X0046218Y0269650D02*
X0059872Y0269650D01*
X0058874Y0268652D02*
X0047318Y0268652D01*
X0048079Y0267653D02*
X0057875Y0267653D01*
X0056877Y0266655D02*
X0048493Y0266655D01*
X0048733Y0265656D02*
X0056133Y0265656D01*
X0056133Y0264658D02*
X0048733Y0264658D01*
X0048623Y0263659D02*
X0056133Y0263659D01*
X0056133Y0262661D02*
X0048209Y0262661D01*
X0047632Y0261662D02*
X0056133Y0261662D01*
X0056133Y0260664D02*
X0046634Y0260664D01*
X0046182Y0259665D02*
X0056133Y0259665D01*
X0056133Y0258667D02*
X0047304Y0258667D01*
X0048073Y0257668D02*
X0056133Y0257668D01*
X0056133Y0256670D02*
X0048487Y0256670D01*
X0048733Y0255671D02*
X0056133Y0255671D01*
X0056133Y0254672D02*
X0048733Y0254672D01*
X0048629Y0253674D02*
X0056133Y0253674D01*
X0056133Y0252675D02*
X0048215Y0252675D01*
X0047647Y0251677D02*
X0056133Y0251677D01*
X0056133Y0250678D02*
X0046649Y0250678D01*
X0046146Y0249680D02*
X0056133Y0249680D01*
X0056133Y0248681D02*
X0047289Y0248681D01*
X0048067Y0247683D02*
X0056133Y0247683D01*
X0056133Y0246684D02*
X0048481Y0246684D01*
X0048733Y0245686D02*
X0056133Y0245686D01*
X0056133Y0244687D02*
X0048733Y0244687D01*
X0048635Y0243689D02*
X0056133Y0243689D01*
X0056133Y0242690D02*
X0048222Y0242690D01*
X0047662Y0241692D02*
X0056133Y0241692D01*
X0056133Y0240693D02*
X0046663Y0240693D01*
X0046110Y0239695D02*
X0056133Y0239695D01*
X0056133Y0238696D02*
X0047274Y0238696D01*
X0048061Y0237698D02*
X0056133Y0237698D01*
X0056133Y0236699D02*
X0048474Y0236699D01*
X0048733Y0235701D02*
X0056133Y0235701D01*
X0056133Y0234702D02*
X0048733Y0234702D01*
X0048641Y0233704D02*
X0056133Y0233704D01*
X0056133Y0232705D02*
X0048228Y0232705D01*
X0047677Y0231707D02*
X0056133Y0231707D01*
X0056133Y0230708D02*
X0046678Y0230708D01*
X0046074Y0229710D02*
X0056133Y0229710D01*
X0056133Y0228711D02*
X0047259Y0228711D01*
X0048055Y0227713D02*
X0056133Y0227713D01*
X0056133Y0226714D02*
X0048468Y0226714D01*
X0048733Y0225716D02*
X0056133Y0225716D01*
X0056133Y0224717D02*
X0048733Y0224717D01*
X0048647Y0223719D02*
X0056133Y0223719D01*
X0056133Y0222720D02*
X0048234Y0222720D01*
X0047692Y0221722D02*
X0056133Y0221722D01*
X0056133Y0220723D02*
X0046693Y0220723D01*
X0046038Y0219725D02*
X0056133Y0219725D01*
X0060533Y0219725D02*
X0200629Y0219725D01*
X0199973Y0220723D02*
X0060533Y0220723D01*
X0060533Y0221722D02*
X0198975Y0221722D01*
X0198433Y0222720D02*
X0060533Y0222720D01*
X0060533Y0223719D02*
X0198019Y0223719D01*
X0197933Y0224717D02*
X0060533Y0224717D01*
X0060533Y0225716D02*
X0197933Y0225716D01*
X0198198Y0226714D02*
X0060533Y0226714D01*
X0060533Y0227713D02*
X0198612Y0227713D01*
X0199408Y0228711D02*
X0060533Y0228711D01*
X0060533Y0229710D02*
X0200593Y0229710D01*
X0199988Y0230708D02*
X0060533Y0230708D01*
X0060533Y0231707D02*
X0198990Y0231707D01*
X0198439Y0232705D02*
X0060533Y0232705D01*
X0060533Y0233704D02*
X0198025Y0233704D01*
X0197933Y0234702D02*
X0060533Y0234702D01*
X0060533Y0235701D02*
X0197933Y0235701D01*
X0198192Y0236699D02*
X0060533Y0236699D01*
X0060533Y0237698D02*
X0198606Y0237698D01*
X0199393Y0238696D02*
X0060533Y0238696D01*
X0060533Y0239695D02*
X0200557Y0239695D01*
X0200003Y0240693D02*
X0060533Y0240693D01*
X0060533Y0241692D02*
X0199005Y0241692D01*
X0198445Y0242690D02*
X0060533Y0242690D01*
X0060533Y0243689D02*
X0198031Y0243689D01*
X0197933Y0244687D02*
X0060533Y0244687D01*
X0060533Y0245686D02*
X0197933Y0245686D01*
X0198186Y0246684D02*
X0060533Y0246684D01*
X0060533Y0247683D02*
X0198600Y0247683D01*
X0199378Y0248681D02*
X0060533Y0248681D01*
X0060533Y0249680D02*
X0200521Y0249680D01*
X0200018Y0250678D02*
X0060533Y0250678D01*
X0060533Y0251677D02*
X0199020Y0251677D01*
X0198451Y0252675D02*
X0060533Y0252675D01*
X0060533Y0253674D02*
X0198038Y0253674D01*
X0197933Y0254672D02*
X0060533Y0254672D01*
X0060533Y0255671D02*
X0197933Y0255671D01*
X0198180Y0256670D02*
X0060533Y0256670D01*
X0060533Y0257668D02*
X0198594Y0257668D01*
X0199363Y0258667D02*
X0060533Y0258667D01*
X0060533Y0259665D02*
X0200485Y0259665D01*
X0200033Y0260664D02*
X0060533Y0260664D01*
X0060533Y0261662D02*
X0199034Y0261662D01*
X0198457Y0262661D02*
X0060533Y0262661D01*
X0060533Y0263659D02*
X0198044Y0263659D01*
X0197933Y0264658D02*
X0061102Y0264658D01*
X0062101Y0265656D02*
X0197933Y0265656D01*
X0198174Y0266655D02*
X0063099Y0266655D01*
X0064098Y0267653D02*
X0198587Y0267653D01*
X0199348Y0268652D02*
X0065096Y0268652D01*
X0066095Y0269650D02*
X0200449Y0269650D01*
X0200048Y0270649D02*
X0067093Y0270649D01*
X0068092Y0271647D02*
X0199049Y0271647D01*
X0198464Y0272646D02*
X0069090Y0272646D01*
X0070089Y0273644D02*
X0198050Y0273644D01*
X0197933Y0274643D02*
X0071087Y0274643D01*
X0072086Y0275641D02*
X0197933Y0275641D01*
X0198168Y0276640D02*
X0073084Y0276640D01*
X0074083Y0277638D02*
X0198581Y0277638D01*
X0199333Y0278637D02*
X0075081Y0278637D01*
X0076080Y0279635D02*
X0200413Y0279635D01*
X0200063Y0280634D02*
X0077078Y0280634D01*
X0078077Y0281632D02*
X0199064Y0281632D01*
X0198470Y0282631D02*
X0079075Y0282631D01*
X0080074Y0283629D02*
X0198056Y0283629D01*
X0197933Y0284628D02*
X0081072Y0284628D01*
X0082071Y0285626D02*
X0197933Y0285626D01*
X0198161Y0286625D02*
X0083069Y0286625D01*
X0084068Y0287623D02*
X0198575Y0287623D01*
X0199318Y0288622D02*
X0085066Y0288622D01*
X0086065Y0289620D02*
X0200377Y0289620D01*
X0206290Y0289620D02*
X0210947Y0289620D01*
X0209601Y0288622D02*
X0207348Y0288622D01*
X0208092Y0287623D02*
X0208834Y0287623D01*
X0212833Y0287623D02*
X0213833Y0287623D01*
X0213833Y0286625D02*
X0212833Y0286625D01*
X0212833Y0285626D02*
X0213833Y0285626D01*
X0213833Y0288622D02*
X0212833Y0288622D01*
X0212833Y0289620D02*
X0213833Y0289620D01*
X0215719Y0289620D02*
X0301033Y0289620D01*
X0301033Y0288622D02*
X0217065Y0288622D01*
X0217833Y0287623D02*
X0301033Y0287623D01*
X0301033Y0286625D02*
X0218273Y0286625D01*
X0213333Y0275000D02*
X0203333Y0265000D01*
X0218079Y0267653D02*
X0301033Y0267653D01*
X0301033Y0266655D02*
X0218493Y0266655D01*
X0218733Y0265656D02*
X0301033Y0265656D01*
X0300467Y0264658D02*
X0218733Y0264658D01*
X0218623Y0263659D02*
X0299356Y0263659D01*
X0298590Y0262661D02*
X0218784Y0262661D01*
X0219783Y0261662D02*
X0298177Y0261662D01*
X0297933Y0260664D02*
X0220781Y0260664D01*
X0221780Y0259665D02*
X0297933Y0259665D01*
X0298041Y0258667D02*
X0222778Y0258667D01*
X0223033Y0257668D02*
X0298454Y0257668D01*
X0299027Y0256670D02*
X0223033Y0256670D01*
X0223033Y0255671D02*
X0300026Y0255671D01*
X0301033Y0254672D02*
X0223033Y0254672D01*
X0223033Y0253674D02*
X0301033Y0253674D01*
X0301033Y0252675D02*
X0223033Y0252675D01*
X0223033Y0251677D02*
X0301033Y0251677D01*
X0301033Y0250678D02*
X0223033Y0250678D01*
X0223033Y0249680D02*
X0301033Y0249680D01*
X0301033Y0248681D02*
X0223033Y0248681D01*
X0223033Y0247683D02*
X0301033Y0247683D01*
X0301033Y0246684D02*
X0223033Y0246684D01*
X0223033Y0245686D02*
X0301033Y0245686D01*
X0301033Y0244687D02*
X0223033Y0244687D01*
X0223033Y0243689D02*
X0301033Y0243689D01*
X0301033Y0242690D02*
X0223033Y0242690D01*
X0223033Y0241692D02*
X0301033Y0241692D01*
X0301033Y0240693D02*
X0223033Y0240693D01*
X0223033Y0239695D02*
X0301033Y0239695D01*
X0301033Y0238696D02*
X0223033Y0238696D01*
X0223033Y0237698D02*
X0301033Y0237698D01*
X0301033Y0236699D02*
X0223033Y0236699D01*
X0223033Y0235701D02*
X0301033Y0235701D01*
X0301033Y0234702D02*
X0223033Y0234702D01*
X0223033Y0233704D02*
X0301033Y0233704D01*
X0301033Y0232705D02*
X0223033Y0232705D01*
X0223033Y0231707D02*
X0301033Y0231707D01*
X0301033Y0230708D02*
X0223033Y0230708D01*
X0223033Y0229710D02*
X0301033Y0229710D01*
X0301033Y0228711D02*
X0223033Y0228711D01*
X0223033Y0227713D02*
X0301033Y0227713D01*
X0301033Y0226714D02*
X0223033Y0226714D01*
X0223033Y0225716D02*
X0301033Y0225716D01*
X0301033Y0224717D02*
X0223033Y0224717D01*
X0223033Y0223719D02*
X0301033Y0223719D01*
X0301033Y0222720D02*
X0223033Y0222720D01*
X0223033Y0221722D02*
X0301033Y0221722D01*
X0301033Y0220723D02*
X0223033Y0220723D01*
X0223033Y0219725D02*
X0301033Y0219725D01*
X0301033Y0218726D02*
X0223033Y0218726D01*
X0223033Y0217728D02*
X0301033Y0217728D01*
X0301033Y0216729D02*
X0223033Y0216729D01*
X0223033Y0215731D02*
X0301033Y0215731D01*
X0301033Y0214732D02*
X0223033Y0214732D01*
X0223033Y0213734D02*
X0301033Y0213734D01*
X0301033Y0212735D02*
X0223033Y0212735D01*
X0223033Y0211737D02*
X0301033Y0211737D01*
X0301033Y0210738D02*
X0223033Y0210738D01*
X0223033Y0209739D02*
X0301033Y0209739D01*
X0301033Y0208741D02*
X0223033Y0208741D01*
X0223033Y0207742D02*
X0301033Y0207742D01*
X0301033Y0206744D02*
X0223033Y0206744D01*
X0223033Y0205745D02*
X0301033Y0205745D01*
X0301033Y0204747D02*
X0223033Y0204747D01*
X0223033Y0203748D02*
X0301033Y0203748D01*
X0301033Y0202750D02*
X0223033Y0202750D01*
X0223033Y0201751D02*
X0301033Y0201751D01*
X0301033Y0200753D02*
X0223033Y0200753D01*
X0223033Y0199754D02*
X0301033Y0199754D01*
X0301033Y0198756D02*
X0223033Y0198756D01*
X0223033Y0197757D02*
X0301033Y0197757D01*
X0301033Y0196759D02*
X0223033Y0196759D01*
X0223033Y0195760D02*
X0301033Y0195760D01*
X0301033Y0194762D02*
X0223033Y0194762D01*
X0223033Y0193763D02*
X0301033Y0193763D01*
X0301033Y0192765D02*
X0223033Y0192765D01*
X0223033Y0191766D02*
X0301033Y0191766D01*
X0301033Y0190768D02*
X0223033Y0190768D01*
X0223033Y0189769D02*
X0301033Y0189769D01*
X0301033Y0188771D02*
X0223033Y0188771D01*
X0223033Y0187772D02*
X0301033Y0187772D01*
X0301033Y0186774D02*
X0223033Y0186774D01*
X0223033Y0185775D02*
X0301033Y0185775D01*
X0301033Y0184777D02*
X0223033Y0184777D01*
X0223033Y0183778D02*
X0301033Y0183778D01*
X0301033Y0182780D02*
X0223033Y0182780D01*
X0223033Y0181781D02*
X0301033Y0181781D01*
X0301033Y0180783D02*
X0223033Y0180783D01*
X0223033Y0179784D02*
X0301033Y0179784D01*
X0301033Y0178786D02*
X0223033Y0178786D01*
X0223033Y0177787D02*
X0301033Y0177787D01*
X0301033Y0176789D02*
X0223033Y0176789D01*
X0223033Y0175790D02*
X0300871Y0175790D01*
X0299872Y0174792D02*
X0223033Y0174792D01*
X0223033Y0173793D02*
X0298874Y0173793D01*
X0297875Y0172795D02*
X0223033Y0172795D01*
X0223033Y0171796D02*
X0296877Y0171796D01*
X0295878Y0170798D02*
X0223033Y0170798D01*
X0223033Y0169799D02*
X0294880Y0169799D01*
X0293881Y0168801D02*
X0223033Y0168801D01*
X0223033Y0167802D02*
X0292883Y0167802D01*
X0291884Y0166803D02*
X0223033Y0166803D01*
X0223033Y0165805D02*
X0290886Y0165805D01*
X0289887Y0164806D02*
X0223033Y0164806D01*
X0223033Y0163808D02*
X0288889Y0163808D01*
X0287890Y0162809D02*
X0223033Y0162809D01*
X0223033Y0161811D02*
X0286892Y0161811D01*
X0285893Y0160812D02*
X0223033Y0160812D01*
X0223033Y0159814D02*
X0280844Y0159814D01*
X0279512Y0158815D02*
X0223033Y0158815D01*
X0223033Y0157817D02*
X0278655Y0157817D01*
X0278242Y0156818D02*
X0223033Y0156818D01*
X0223033Y0155820D02*
X0277933Y0155820D01*
X0277933Y0154821D02*
X0223033Y0154821D01*
X0223033Y0153823D02*
X0277976Y0153823D01*
X0278390Y0152824D02*
X0223033Y0152824D01*
X0223033Y0151826D02*
X0278871Y0151826D01*
X0279869Y0150827D02*
X0223033Y0150827D01*
X0223033Y0149829D02*
X0281033Y0149829D01*
X0281033Y0148830D02*
X0223033Y0148830D01*
X0223033Y0147832D02*
X0281033Y0147832D01*
X0281033Y0146833D02*
X0223033Y0146833D01*
X0223033Y0145835D02*
X0281033Y0145835D01*
X0281033Y0144836D02*
X0223033Y0144836D01*
X0223033Y0143838D02*
X0281033Y0143838D01*
X0281033Y0142839D02*
X0223033Y0142839D01*
X0223033Y0141841D02*
X0281033Y0141841D01*
X0281033Y0140842D02*
X0223033Y0140842D01*
X0223033Y0139844D02*
X0255916Y0139844D01*
X0255274Y0139578D02*
X0253755Y0138059D01*
X0252933Y0136074D01*
X0252933Y0133926D01*
X0253755Y0131941D01*
X0255274Y0130422D01*
X0257259Y0129600D01*
X0259407Y0129600D01*
X0261392Y0130422D01*
X0262911Y0131941D01*
X0263733Y0133926D01*
X0263733Y0136074D01*
X0262911Y0138059D01*
X0261392Y0139578D01*
X0259407Y0140400D01*
X0257259Y0140400D01*
X0255274Y0139578D01*
X0254542Y0138845D02*
X0223033Y0138845D01*
X0223033Y0137847D02*
X0253668Y0137847D01*
X0253254Y0136848D02*
X0223033Y0136848D01*
X0223033Y0135850D02*
X0252933Y0135850D01*
X0252933Y0134851D02*
X0223033Y0134851D01*
X0223033Y0133853D02*
X0252964Y0133853D01*
X0253377Y0132854D02*
X0223033Y0132854D01*
X0223033Y0131856D02*
X0253841Y0131856D01*
X0254839Y0130857D02*
X0223033Y0130857D01*
X0223033Y0129859D02*
X0256635Y0129859D01*
X0260032Y0129859D02*
X0287722Y0129859D01*
X0286724Y0130857D02*
X0261827Y0130857D01*
X0262826Y0131856D02*
X0285725Y0131856D01*
X0284727Y0132854D02*
X0263289Y0132854D01*
X0263703Y0133853D02*
X0283728Y0133853D01*
X0282730Y0134851D02*
X0263733Y0134851D01*
X0263733Y0135850D02*
X0281731Y0135850D01*
X0281033Y0136848D02*
X0263413Y0136848D01*
X0262999Y0137847D02*
X0281033Y0137847D01*
X0281033Y0138845D02*
X0262125Y0138845D01*
X0260750Y0139844D02*
X0281033Y0139844D01*
X0285633Y0138845D02*
X0324542Y0138845D01*
X0323668Y0137847D02*
X0286239Y0137847D01*
X0287238Y0136848D02*
X0323254Y0136848D01*
X0322933Y0135850D02*
X0288236Y0135850D01*
X0289235Y0134851D02*
X0322933Y0134851D01*
X0322964Y0133853D02*
X0290233Y0133853D01*
X0291232Y0132854D02*
X0323377Y0132854D01*
X0323841Y0131856D02*
X0292230Y0131856D01*
X0293229Y0130857D02*
X0324839Y0130857D01*
X0326635Y0129859D02*
X0294227Y0129859D01*
X0290718Y0126863D02*
X0223033Y0126863D01*
X0223033Y0127862D02*
X0289719Y0127862D01*
X0288721Y0128860D02*
X0223033Y0128860D01*
X0222309Y0125865D02*
X0291716Y0125865D01*
X0291482Y0124866D02*
X0285697Y0124866D01*
X0287103Y0123868D02*
X0289847Y0123868D01*
X0288990Y0122869D02*
X0287990Y0122869D01*
X0288403Y0121870D02*
X0288473Y0121870D01*
X0288579Y0117876D02*
X0288299Y0117876D01*
X0287848Y0116878D02*
X0289174Y0116878D01*
X0290158Y0115879D02*
X0286849Y0115879D01*
X0285086Y0114881D02*
X0292413Y0114881D01*
X0296509Y0115879D02*
X0301701Y0115879D01*
X0300703Y0116878D02*
X0297493Y0116878D01*
X0298087Y0117876D02*
X0299704Y0117876D01*
X0298706Y0118875D02*
X0298420Y0118875D01*
X0281581Y0114881D02*
X0216515Y0114881D01*
X0216514Y0115879D02*
X0215743Y0115879D01*
X0215743Y0116878D02*
X0216514Y0116878D01*
X0216514Y0117876D02*
X0215743Y0117876D01*
X0215743Y0118875D02*
X0216514Y0118875D01*
X0216514Y0119873D02*
X0216318Y0119873D01*
X0217310Y0119873D02*
X0277933Y0119873D01*
X0277954Y0118875D02*
X0219302Y0118875D01*
X0220219Y0117876D02*
X0278368Y0117876D01*
X0278819Y0116878D02*
X0220776Y0116878D01*
X0221052Y0115879D02*
X0279817Y0115879D01*
X0277933Y0120872D02*
X0217317Y0120872D01*
X0218315Y0121870D02*
X0278263Y0121870D01*
X0278677Y0122869D02*
X0219314Y0122869D01*
X0220312Y0123868D02*
X0279564Y0123868D01*
X0280970Y0124866D02*
X0221311Y0124866D01*
X0218084Y0127862D02*
X0115533Y0127862D01*
X0115533Y0128860D02*
X0218633Y0128860D01*
X0218633Y0129859D02*
X0115533Y0129859D01*
X0115533Y0130857D02*
X0218633Y0130857D01*
X0218633Y0131856D02*
X0115533Y0131856D01*
X0115533Y0132854D02*
X0218633Y0132854D01*
X0218633Y0133853D02*
X0115533Y0133853D01*
X0115533Y0134851D02*
X0218633Y0134851D01*
X0218633Y0135850D02*
X0115533Y0135850D01*
X0115533Y0136848D02*
X0218633Y0136848D01*
X0218633Y0137847D02*
X0115533Y0137847D01*
X0115533Y0138845D02*
X0218633Y0138845D01*
X0218633Y0139844D02*
X0115533Y0139844D01*
X0115533Y0140842D02*
X0218633Y0140842D01*
X0218633Y0141841D02*
X0115533Y0141841D01*
X0115533Y0142839D02*
X0218633Y0142839D01*
X0218633Y0143838D02*
X0115533Y0143838D01*
X0115533Y0144836D02*
X0218633Y0144836D01*
X0218633Y0145835D02*
X0115533Y0145835D01*
X0115533Y0146833D02*
X0218633Y0146833D01*
X0218633Y0147832D02*
X0115533Y0147832D01*
X0115533Y0148830D02*
X0218633Y0148830D01*
X0218633Y0149829D02*
X0115533Y0149829D01*
X0116797Y0150827D02*
X0218633Y0150827D01*
X0218633Y0151826D02*
X0117796Y0151826D01*
X0118277Y0152824D02*
X0218633Y0152824D01*
X0218633Y0153823D02*
X0118691Y0153823D01*
X0118733Y0154821D02*
X0218633Y0154821D01*
X0218633Y0155820D02*
X0118733Y0155820D01*
X0118425Y0156818D02*
X0218633Y0156818D01*
X0218633Y0157817D02*
X0118011Y0157817D01*
X0117155Y0158815D02*
X0218633Y0158815D01*
X0218633Y0159814D02*
X0115822Y0159814D01*
X0110844Y0159814D02*
X0085822Y0159814D01*
X0086392Y0159578D02*
X0084407Y0160400D01*
X0082259Y0160400D01*
X0080274Y0159578D01*
X0078755Y0158059D01*
X0078400Y0157200D01*
X0073267Y0157200D01*
X0072911Y0158059D01*
X0071392Y0159578D01*
X0069407Y0160400D01*
X0067259Y0160400D01*
X0065274Y0159578D01*
X0063755Y0158059D01*
X0062933Y0156074D01*
X0062933Y0153926D01*
X0063755Y0151941D01*
X0065274Y0150422D01*
X0067259Y0149600D01*
X0069407Y0149600D01*
X0071392Y0150422D01*
X0072911Y0151941D01*
X0073267Y0152800D01*
X0078400Y0152800D01*
X0078755Y0151941D01*
X0080274Y0150422D01*
X0082259Y0149600D01*
X0084407Y0149600D01*
X0086392Y0150422D01*
X0087911Y0151941D01*
X0088733Y0153926D01*
X0088733Y0156074D01*
X0087911Y0158059D01*
X0086392Y0159578D01*
X0087155Y0158815D02*
X0109512Y0158815D01*
X0108655Y0157817D02*
X0088011Y0157817D01*
X0088425Y0156818D02*
X0108242Y0156818D01*
X0107933Y0155820D02*
X0088733Y0155820D01*
X0088733Y0154821D02*
X0107933Y0154821D01*
X0107976Y0153823D02*
X0088691Y0153823D01*
X0088277Y0152824D02*
X0108390Y0152824D01*
X0108871Y0151826D02*
X0087796Y0151826D01*
X0086797Y0150827D02*
X0109869Y0150827D01*
X0111133Y0149829D02*
X0084960Y0149829D01*
X0081707Y0149829D02*
X0069960Y0149829D01*
X0071797Y0150827D02*
X0079869Y0150827D01*
X0078871Y0151826D02*
X0072796Y0151826D01*
X0068333Y0155000D02*
X0083333Y0155000D01*
X0079512Y0158815D02*
X0072155Y0158815D01*
X0073011Y0157817D02*
X0078655Y0157817D01*
X0080844Y0159814D02*
X0070822Y0159814D01*
X0065844Y0159814D02*
X0055533Y0159814D01*
X0055533Y0160812D02*
X0218633Y0160812D01*
X0218633Y0161811D02*
X0055533Y0161811D01*
X0055533Y0162809D02*
X0218633Y0162809D01*
X0218633Y0163808D02*
X0055533Y0163808D01*
X0055533Y0164806D02*
X0218633Y0164806D01*
X0218633Y0165805D02*
X0055533Y0165805D01*
X0055533Y0166803D02*
X0218633Y0166803D01*
X0218633Y0167802D02*
X0055533Y0167802D01*
X0055533Y0168801D02*
X0218633Y0168801D01*
X0218633Y0169799D02*
X0069888Y0169799D01*
X0069407Y0169600D02*
X0071392Y0170422D01*
X0072911Y0171941D01*
X0073733Y0173926D01*
X0073733Y0176074D01*
X0072911Y0178059D01*
X0071392Y0179578D01*
X0069407Y0180400D01*
X0067259Y0180400D01*
X0065274Y0179578D01*
X0063755Y0178059D01*
X0062933Y0176074D01*
X0062933Y0173926D01*
X0063755Y0171941D01*
X0065274Y0170422D01*
X0067259Y0169600D01*
X0069407Y0169600D01*
X0066779Y0169799D02*
X0055533Y0169799D01*
X0055533Y0170798D02*
X0064899Y0170798D01*
X0063901Y0171796D02*
X0055533Y0171796D01*
X0055533Y0172795D02*
X0063402Y0172795D01*
X0062988Y0173793D02*
X0055533Y0173793D01*
X0055533Y0174792D02*
X0055809Y0174792D01*
X0051133Y0169799D02*
X0050865Y0169799D01*
X0051133Y0168801D02*
X0049071Y0168801D01*
X0047596Y0168801D02*
X0040533Y0168801D01*
X0040533Y0169799D02*
X0045802Y0169799D01*
X0045034Y0170798D02*
X0041768Y0170798D01*
X0042766Y0171796D02*
X0044633Y0171796D01*
X0044633Y0172795D02*
X0043265Y0172795D01*
X0043678Y0173793D02*
X0043929Y0173793D01*
X0048333Y0172500D02*
X0038333Y0182500D01*
X0033333Y0182500D01*
X0023333Y0192500D01*
X0023333Y0215000D01*
X0033333Y0225000D01*
X0020833Y0242500D02*
X0020833Y0190000D01*
X0038333Y0172500D01*
X0038333Y0175000D01*
X0038333Y0172500D02*
X0038333Y0155000D01*
X0038333Y0135000D01*
X0038333Y0115000D01*
X0038333Y0095000D01*
X0042065Y0098905D02*
X0053817Y0098905D01*
X0052819Y0099903D02*
X0040607Y0099903D01*
X0040533Y0100902D02*
X0051820Y0100902D01*
X0051133Y0101900D02*
X0040533Y0101900D01*
X0040533Y0102899D02*
X0051133Y0102899D01*
X0051133Y0103897D02*
X0040533Y0103897D01*
X0040533Y0104896D02*
X0051133Y0104896D01*
X0051133Y0105894D02*
X0040533Y0105894D01*
X0040533Y0106893D02*
X0051133Y0106893D01*
X0051133Y0107891D02*
X0040533Y0107891D01*
X0040533Y0108890D02*
X0051133Y0108890D01*
X0051133Y0109888D02*
X0040533Y0109888D01*
X0041857Y0110887D02*
X0051133Y0110887D01*
X0051133Y0111885D02*
X0042855Y0111885D01*
X0043302Y0112884D02*
X0051133Y0112884D01*
X0051133Y0113882D02*
X0043715Y0113882D01*
X0043733Y0114881D02*
X0051133Y0114881D01*
X0051133Y0115879D02*
X0043733Y0115879D01*
X0043400Y0116878D02*
X0051133Y0116878D01*
X0051133Y0117876D02*
X0042987Y0117876D01*
X0042095Y0118875D02*
X0051133Y0118875D01*
X0051133Y0119873D02*
X0040679Y0119873D01*
X0040533Y0120872D02*
X0051133Y0120872D01*
X0051133Y0121870D02*
X0040533Y0121870D01*
X0040533Y0122869D02*
X0051133Y0122869D01*
X0051133Y0123868D02*
X0040533Y0123868D01*
X0040533Y0124866D02*
X0051133Y0124866D01*
X0051133Y0125865D02*
X0040533Y0125865D01*
X0040533Y0126863D02*
X0051133Y0126863D01*
X0051133Y0127862D02*
X0040533Y0127862D01*
X0040533Y0128860D02*
X0051133Y0128860D01*
X0051133Y0129859D02*
X0040533Y0129859D01*
X0041827Y0130857D02*
X0051133Y0130857D01*
X0051133Y0131856D02*
X0042826Y0131856D01*
X0043289Y0132854D02*
X0051133Y0132854D01*
X0051133Y0133853D02*
X0043703Y0133853D01*
X0043733Y0134851D02*
X0051133Y0134851D01*
X0051133Y0135850D02*
X0043733Y0135850D01*
X0043413Y0136848D02*
X0051133Y0136848D01*
X0051133Y0137847D02*
X0042999Y0137847D01*
X0042125Y0138845D02*
X0051133Y0138845D01*
X0051133Y0139844D02*
X0040750Y0139844D01*
X0040533Y0140842D02*
X0051133Y0140842D01*
X0051133Y0141841D02*
X0040533Y0141841D01*
X0040533Y0142839D02*
X0051133Y0142839D01*
X0051133Y0143838D02*
X0040533Y0143838D01*
X0040533Y0144836D02*
X0051133Y0144836D01*
X0051133Y0145835D02*
X0040533Y0145835D01*
X0040533Y0146833D02*
X0051133Y0146833D01*
X0051133Y0147832D02*
X0040533Y0147832D01*
X0040533Y0148830D02*
X0051133Y0148830D01*
X0051133Y0149829D02*
X0040533Y0149829D01*
X0041797Y0150827D02*
X0051133Y0150827D01*
X0051133Y0151826D02*
X0042796Y0151826D01*
X0043277Y0152824D02*
X0051133Y0152824D01*
X0051133Y0153823D02*
X0043691Y0153823D01*
X0043733Y0154821D02*
X0051133Y0154821D01*
X0051133Y0155820D02*
X0043733Y0155820D01*
X0043425Y0156818D02*
X0051133Y0156818D01*
X0051133Y0157817D02*
X0043011Y0157817D01*
X0042155Y0158815D02*
X0051133Y0158815D01*
X0051133Y0159814D02*
X0040822Y0159814D01*
X0040533Y0160812D02*
X0051133Y0160812D01*
X0051133Y0161811D02*
X0040533Y0161811D01*
X0040533Y0162809D02*
X0051133Y0162809D01*
X0051133Y0163808D02*
X0040533Y0163808D01*
X0040533Y0164806D02*
X0051133Y0164806D01*
X0051133Y0165805D02*
X0040533Y0165805D01*
X0040533Y0166803D02*
X0051133Y0166803D01*
X0051133Y0167802D02*
X0040533Y0167802D01*
X0048333Y0177500D02*
X0040833Y0185000D01*
X0035833Y0185000D01*
X0025833Y0195000D01*
X0025833Y0197500D01*
X0033333Y0205000D01*
X0060533Y0204747D02*
X0197933Y0204747D01*
X0197933Y0205745D02*
X0060533Y0205745D01*
X0060533Y0206744D02*
X0198211Y0206744D01*
X0198624Y0207742D02*
X0060533Y0207742D01*
X0060533Y0208741D02*
X0199438Y0208741D01*
X0200665Y0209739D02*
X0060533Y0209739D01*
X0060533Y0210738D02*
X0199959Y0210738D01*
X0198960Y0211737D02*
X0060533Y0211737D01*
X0060533Y0212735D02*
X0198427Y0212735D01*
X0198013Y0213734D02*
X0060533Y0213734D01*
X0060533Y0214732D02*
X0197933Y0214732D01*
X0197933Y0215731D02*
X0060533Y0215731D01*
X0060533Y0216729D02*
X0198205Y0216729D01*
X0198618Y0217728D02*
X0060533Y0217728D01*
X0060533Y0218726D02*
X0199423Y0218726D01*
X0198007Y0203748D02*
X0060533Y0203748D01*
X0060533Y0202750D02*
X0198420Y0202750D01*
X0198945Y0201751D02*
X0060533Y0201751D01*
X0060533Y0200753D02*
X0199944Y0200753D01*
X0200701Y0199754D02*
X0060533Y0199754D01*
X0060533Y0198756D02*
X0199452Y0198756D01*
X0198631Y0197757D02*
X0060533Y0197757D01*
X0060533Y0196759D02*
X0198217Y0196759D01*
X0197933Y0195760D02*
X0060533Y0195760D01*
X0060533Y0194762D02*
X0197933Y0194762D01*
X0198001Y0193763D02*
X0060533Y0193763D01*
X0060533Y0192765D02*
X0198414Y0192765D01*
X0198930Y0191766D02*
X0060533Y0191766D01*
X0060533Y0190768D02*
X0199929Y0190768D01*
X0201851Y0189769D02*
X0060533Y0189769D01*
X0060533Y0188771D02*
X0218633Y0188771D01*
X0218633Y0189769D02*
X0214816Y0189769D01*
X0216738Y0190768D02*
X0218633Y0190768D01*
X0218633Y0191766D02*
X0217736Y0191766D01*
X0218252Y0192765D02*
X0218633Y0192765D01*
X0218633Y0187772D02*
X0060533Y0187772D01*
X0060533Y0186774D02*
X0218633Y0186774D01*
X0218633Y0185775D02*
X0060533Y0185775D01*
X0060533Y0184777D02*
X0218633Y0184777D01*
X0218633Y0183778D02*
X0060533Y0183778D01*
X0060533Y0182780D02*
X0218633Y0182780D01*
X0218633Y0181781D02*
X0060533Y0181781D01*
X0060533Y0180783D02*
X0218633Y0180783D01*
X0218633Y0179784D02*
X0070894Y0179784D01*
X0072184Y0178786D02*
X0218633Y0178786D01*
X0218633Y0177787D02*
X0073024Y0177787D01*
X0073437Y0176789D02*
X0218633Y0176789D01*
X0218633Y0175790D02*
X0073733Y0175790D01*
X0073733Y0174792D02*
X0218633Y0174792D01*
X0218633Y0173793D02*
X0073678Y0173793D01*
X0073265Y0172795D02*
X0218633Y0172795D01*
X0218633Y0171796D02*
X0072766Y0171796D01*
X0071768Y0170798D02*
X0218633Y0170798D01*
X0211851Y0189769D02*
X0204816Y0189769D01*
X0206738Y0190768D02*
X0209929Y0190768D01*
X0208930Y0191766D02*
X0207736Y0191766D01*
X0208252Y0192765D02*
X0208414Y0192765D01*
X0217085Y0126863D02*
X0115533Y0126863D01*
X0115533Y0125865D02*
X0216087Y0125865D01*
X0215088Y0124866D02*
X0115533Y0124866D01*
X0115533Y0123868D02*
X0214090Y0123868D01*
X0213091Y0122869D02*
X0115533Y0122869D01*
X0115533Y0121870D02*
X0212093Y0121870D01*
X0211094Y0120872D02*
X0115533Y0120872D01*
X0115533Y0119873D02*
X0188715Y0119873D01*
X0187059Y0118875D02*
X0115533Y0118875D01*
X0115533Y0117876D02*
X0186101Y0117876D01*
X0190538Y0115000D02*
X0113333Y0115000D01*
X0113333Y0155000D01*
X0111133Y0148830D02*
X0055533Y0148830D01*
X0055533Y0147832D02*
X0111133Y0147832D01*
X0111133Y0146833D02*
X0055533Y0146833D01*
X0055533Y0145835D02*
X0111133Y0145835D01*
X0111133Y0144836D02*
X0055533Y0144836D01*
X0055533Y0143838D02*
X0111133Y0143838D01*
X0111133Y0142839D02*
X0055533Y0142839D01*
X0055533Y0141841D02*
X0111133Y0141841D01*
X0111133Y0140842D02*
X0055533Y0140842D01*
X0055533Y0139844D02*
X0065916Y0139844D01*
X0064542Y0138845D02*
X0055533Y0138845D01*
X0055533Y0137847D02*
X0063668Y0137847D01*
X0063254Y0136848D02*
X0055533Y0136848D01*
X0055533Y0135850D02*
X0062933Y0135850D01*
X0062933Y0134851D02*
X0055533Y0134851D01*
X0055533Y0133853D02*
X0062964Y0133853D01*
X0063377Y0132854D02*
X0055533Y0132854D01*
X0055533Y0131856D02*
X0063841Y0131856D01*
X0064839Y0130857D02*
X0055533Y0130857D01*
X0055533Y0129859D02*
X0066133Y0129859D01*
X0066133Y0128860D02*
X0055533Y0128860D01*
X0055533Y0127862D02*
X0066133Y0127862D01*
X0066133Y0126863D02*
X0055533Y0126863D01*
X0055533Y0125865D02*
X0066133Y0125865D01*
X0066133Y0124866D02*
X0055533Y0124866D01*
X0055533Y0123868D02*
X0066133Y0123868D01*
X0066133Y0122869D02*
X0055533Y0122869D01*
X0055533Y0121870D02*
X0066133Y0121870D01*
X0066133Y0120872D02*
X0055533Y0120872D01*
X0055533Y0119873D02*
X0065988Y0119873D01*
X0064572Y0118875D02*
X0055533Y0118875D01*
X0055533Y0117876D02*
X0063680Y0117876D01*
X0063266Y0116878D02*
X0055533Y0116878D01*
X0055533Y0115879D02*
X0062933Y0115879D01*
X0062933Y0114881D02*
X0055533Y0114881D01*
X0055533Y0113882D02*
X0062951Y0113882D01*
X0063365Y0112884D02*
X0055533Y0112884D01*
X0055533Y0111885D02*
X0063811Y0111885D01*
X0064810Y0110887D02*
X0055533Y0110887D01*
X0055533Y0109888D02*
X0066133Y0109888D01*
X0066133Y0108890D02*
X0055533Y0108890D01*
X0055533Y0107891D02*
X0066133Y0107891D01*
X0066133Y0106893D02*
X0055533Y0106893D01*
X0055533Y0105894D02*
X0066133Y0105894D01*
X0066133Y0104896D02*
X0055533Y0104896D01*
X0055533Y0103897D02*
X0066133Y0103897D01*
X0066133Y0102899D02*
X0056046Y0102899D01*
X0057044Y0101900D02*
X0066133Y0101900D01*
X0066133Y0100902D02*
X0058043Y0100902D01*
X0059041Y0099903D02*
X0066060Y0099903D01*
X0064601Y0098905D02*
X0060040Y0098905D01*
X0061038Y0097906D02*
X0063692Y0097906D01*
X0063279Y0096908D02*
X0062037Y0096908D01*
X0058810Y0093912D02*
X0043728Y0093912D01*
X0043733Y0094911D02*
X0057811Y0094911D01*
X0056813Y0095909D02*
X0043733Y0095909D01*
X0043388Y0096908D02*
X0055814Y0096908D01*
X0054816Y0097906D02*
X0042974Y0097906D01*
X0043314Y0092914D02*
X0059808Y0092914D01*
X0060807Y0091915D02*
X0042885Y0091915D01*
X0041887Y0090917D02*
X0061805Y0090917D01*
X0062804Y0089918D02*
X0040175Y0089918D01*
X0068333Y0095000D02*
X0068333Y0115000D01*
X0068333Y0135000D01*
X0072125Y0138845D02*
X0111133Y0138845D01*
X0111133Y0137847D02*
X0072999Y0137847D01*
X0073413Y0136848D02*
X0111133Y0136848D01*
X0111133Y0135850D02*
X0073733Y0135850D01*
X0073733Y0134851D02*
X0111133Y0134851D01*
X0111133Y0133853D02*
X0073703Y0133853D01*
X0073289Y0132854D02*
X0111133Y0132854D01*
X0111133Y0131856D02*
X0072826Y0131856D01*
X0071827Y0130857D02*
X0111133Y0130857D01*
X0111133Y0129859D02*
X0070533Y0129859D01*
X0070533Y0128860D02*
X0111133Y0128860D01*
X0111133Y0127862D02*
X0070533Y0127862D01*
X0070533Y0126863D02*
X0111133Y0126863D01*
X0111133Y0125865D02*
X0070533Y0125865D01*
X0070533Y0124866D02*
X0111133Y0124866D01*
X0111133Y0123868D02*
X0070533Y0123868D01*
X0070533Y0122869D02*
X0111133Y0122869D01*
X0111133Y0121870D02*
X0070533Y0121870D01*
X0070533Y0120872D02*
X0111133Y0120872D01*
X0111133Y0119873D02*
X0070679Y0119873D01*
X0072095Y0118875D02*
X0111133Y0118875D01*
X0111133Y0117876D02*
X0072987Y0117876D01*
X0068333Y0115000D02*
X0113333Y0115000D01*
X0111133Y0139844D02*
X0070750Y0139844D01*
X0066707Y0149829D02*
X0055533Y0149829D01*
X0055533Y0150827D02*
X0064869Y0150827D01*
X0063871Y0151826D02*
X0055533Y0151826D01*
X0055533Y0152824D02*
X0063390Y0152824D01*
X0062976Y0153823D02*
X0055533Y0153823D01*
X0055533Y0154821D02*
X0062933Y0154821D01*
X0062933Y0155820D02*
X0055533Y0155820D01*
X0055533Y0156818D02*
X0063242Y0156818D01*
X0063655Y0157817D02*
X0055533Y0157817D01*
X0055533Y0158815D02*
X0064512Y0158815D01*
X0062933Y0174792D02*
X0060858Y0174792D01*
X0061630Y0175790D02*
X0062933Y0175790D01*
X0063229Y0176789D02*
X0062033Y0176789D01*
X0062033Y0177787D02*
X0063643Y0177787D01*
X0064482Y0178786D02*
X0061806Y0178786D01*
X0061282Y0179784D02*
X0065772Y0179784D01*
X0020833Y0242500D02*
X0033333Y0255000D01*
X0033333Y0265000D01*
X0087063Y0290619D02*
X0301033Y0290619D01*
X0301033Y0291617D02*
X0088062Y0291617D01*
X0089061Y0292616D02*
X0301033Y0292616D01*
X0301033Y0293614D02*
X0090059Y0293614D01*
X0091058Y0294613D02*
X0300468Y0294613D01*
X0299469Y0295611D02*
X0092056Y0295611D01*
X0093055Y0296610D02*
X0298471Y0296610D01*
X0297472Y0297608D02*
X0094053Y0297608D01*
X0060912Y0342541D02*
X0015433Y0342541D01*
X0015433Y0343540D02*
X0059197Y0343540D01*
X0058198Y0344539D02*
X0015433Y0344539D01*
X0015433Y0345537D02*
X0057306Y0345537D01*
X0056893Y0346536D02*
X0015433Y0346536D01*
X0015433Y0347534D02*
X0056479Y0347534D01*
X0056133Y0348533D02*
X0015433Y0348533D01*
X0015433Y0349531D02*
X0056133Y0349531D01*
X0056133Y0350530D02*
X0015433Y0350530D01*
X0015433Y0351528D02*
X0056133Y0351528D01*
X0056504Y0352527D02*
X0015433Y0352527D01*
X0015433Y0353525D02*
X0056918Y0353525D01*
X0057331Y0354524D02*
X0015433Y0354524D01*
X0015433Y0355522D02*
X0058259Y0355522D01*
X0059257Y0356521D02*
X0015433Y0356521D01*
X0015433Y0357519D02*
X0061059Y0357519D01*
X0074821Y0387744D02*
X0077100Y0386800D01*
X0079567Y0386800D01*
X0081845Y0387744D01*
X0083589Y0389488D01*
X0084533Y0391767D01*
X0084533Y0394233D01*
X0083589Y0396512D01*
X0081845Y0398256D01*
X0079567Y0399200D01*
X0077100Y0399200D01*
X0074821Y0398256D01*
X0073077Y0396512D01*
X0072133Y0394233D01*
X0072133Y0391767D01*
X0073077Y0389488D01*
X0074821Y0387744D01*
X0075472Y0387474D02*
X0015433Y0387474D01*
X0015433Y0386476D02*
X0411233Y0386476D01*
X0411233Y0387474D02*
X0187195Y0387474D01*
X0187845Y0387744D02*
X0189589Y0389488D01*
X0190533Y0391767D01*
X0190533Y0394233D01*
X0189589Y0396512D01*
X0187845Y0398256D01*
X0185567Y0399200D01*
X0183100Y0399200D01*
X0180821Y0398256D01*
X0179077Y0396512D01*
X0178133Y0394233D01*
X0178133Y0391767D01*
X0179077Y0389488D01*
X0180821Y0387744D01*
X0183100Y0386800D01*
X0185567Y0386800D01*
X0187845Y0387744D01*
X0188574Y0388473D02*
X0411233Y0388473D01*
X0411233Y0389472D02*
X0189573Y0389472D01*
X0189996Y0390470D02*
X0411233Y0390470D01*
X0411233Y0391469D02*
X0190410Y0391469D01*
X0190533Y0392467D02*
X0411233Y0392467D01*
X0411233Y0393466D02*
X0190533Y0393466D01*
X0190438Y0394464D02*
X0411233Y0394464D01*
X0411233Y0395463D02*
X0190024Y0395463D01*
X0189611Y0396461D02*
X0411233Y0396461D01*
X0411233Y0397460D02*
X0188642Y0397460D01*
X0187358Y0398458D02*
X0411233Y0398458D01*
X0411233Y0399457D02*
X0015433Y0399457D01*
X0015433Y0400455D02*
X0411233Y0400455D01*
X0411233Y0401454D02*
X0015433Y0401454D01*
X0015433Y0402452D02*
X0411233Y0402452D01*
X0411233Y0403451D02*
X0015433Y0403451D01*
X0015433Y0404449D02*
X0411233Y0404449D01*
X0411233Y0405448D02*
X0015433Y0405448D01*
X0015433Y0406446D02*
X0411233Y0406446D01*
X0411233Y0407445D02*
X0015433Y0407445D01*
X0015433Y0407900D02*
X0015433Y0037100D01*
X0411233Y0037100D01*
X0411233Y0407900D01*
X0015433Y0407900D01*
X0015433Y0398458D02*
X0075309Y0398458D01*
X0074025Y0397460D02*
X0015433Y0397460D01*
X0015433Y0396461D02*
X0073056Y0396461D01*
X0072643Y0395463D02*
X0015433Y0395463D01*
X0015433Y0394464D02*
X0072229Y0394464D01*
X0072133Y0393466D02*
X0015433Y0393466D01*
X0015433Y0392467D02*
X0072133Y0392467D01*
X0072257Y0391469D02*
X0015433Y0391469D01*
X0015433Y0390470D02*
X0072670Y0390470D01*
X0073094Y0389472D02*
X0015433Y0389472D01*
X0015433Y0388473D02*
X0074092Y0388473D01*
X0081195Y0387474D02*
X0181472Y0387474D01*
X0180092Y0388473D02*
X0082574Y0388473D01*
X0083573Y0389472D02*
X0179094Y0389472D01*
X0178670Y0390470D02*
X0083996Y0390470D01*
X0084410Y0391469D02*
X0178257Y0391469D01*
X0178133Y0392467D02*
X0084533Y0392467D01*
X0084533Y0393466D02*
X0178133Y0393466D01*
X0178229Y0394464D02*
X0084438Y0394464D01*
X0084024Y0395463D02*
X0178643Y0395463D01*
X0179056Y0396461D02*
X0083611Y0396461D01*
X0082642Y0397460D02*
X0180025Y0397460D01*
X0181309Y0398458D02*
X0081358Y0398458D01*
X0027279Y0381483D02*
X0015433Y0381483D01*
X0015433Y0380485D02*
X0024929Y0380485D01*
X0023930Y0379486D02*
X0015433Y0379486D01*
X0015433Y0378488D02*
X0022932Y0378488D01*
X0022444Y0377489D02*
X0015433Y0377489D01*
X0015433Y0376491D02*
X0022031Y0376491D01*
X0021633Y0375492D02*
X0015433Y0375492D01*
X0015433Y0374494D02*
X0021633Y0374494D01*
X0021633Y0373495D02*
X0015433Y0373495D01*
X0015433Y0372497D02*
X0021633Y0372497D01*
X0022035Y0371498D02*
X0015433Y0371498D01*
X0015433Y0370500D02*
X0022449Y0370500D01*
X0022943Y0369501D02*
X0015433Y0369501D01*
X0015433Y0368503D02*
X0023941Y0368503D01*
X0024940Y0367504D02*
X0015433Y0367504D01*
X0015433Y0366506D02*
X0027305Y0366506D01*
X0015433Y0382482D02*
X0411233Y0382482D01*
X0411233Y0383480D02*
X0015433Y0383480D01*
X0015433Y0384479D02*
X0411233Y0384479D01*
X0411233Y0385477D02*
X0015433Y0385477D01*
X0269946Y0371498D02*
X0411233Y0371498D01*
X0411233Y0370500D02*
X0270945Y0370500D01*
X0271943Y0369501D02*
X0411233Y0369501D01*
X0411233Y0368503D02*
X0272942Y0368503D01*
X0273940Y0367504D02*
X0411233Y0367504D01*
X0411233Y0366506D02*
X0274939Y0366506D01*
X0275937Y0365507D02*
X0411233Y0365507D01*
X0411233Y0364509D02*
X0276936Y0364509D01*
X0277934Y0363510D02*
X0411233Y0363510D01*
X0411233Y0362512D02*
X0278933Y0362512D01*
X0279931Y0361513D02*
X0411233Y0361513D01*
X0411233Y0360515D02*
X0280930Y0360515D01*
X0281928Y0359516D02*
X0411233Y0359516D01*
X0411233Y0358518D02*
X0282927Y0358518D01*
X0283925Y0357519D02*
X0411233Y0357519D01*
X0411233Y0356521D02*
X0284924Y0356521D01*
X0285922Y0355522D02*
X0411233Y0355522D01*
X0411233Y0354524D02*
X0286921Y0354524D01*
X0287919Y0353525D02*
X0411233Y0353525D01*
X0411233Y0352527D02*
X0288918Y0352527D01*
X0289916Y0351528D02*
X0411233Y0351528D01*
X0411233Y0350530D02*
X0290915Y0350530D01*
X0291914Y0349531D02*
X0411233Y0349531D01*
X0411233Y0348533D02*
X0292912Y0348533D01*
X0293911Y0347534D02*
X0411233Y0347534D01*
X0411233Y0346536D02*
X0294909Y0346536D01*
X0295908Y0345537D02*
X0411233Y0345537D01*
X0411233Y0344539D02*
X0296906Y0344539D01*
X0297905Y0343540D02*
X0411233Y0343540D01*
X0411233Y0342541D02*
X0298903Y0342541D01*
X0299902Y0341543D02*
X0411233Y0341543D01*
X0350272Y0319576D02*
X0346394Y0319576D01*
X0347393Y0318577D02*
X0349274Y0318577D01*
X0348557Y0317579D02*
X0348110Y0317579D01*
X0348178Y0312586D02*
X0348488Y0312586D01*
X0349109Y0311588D02*
X0347558Y0311588D01*
X0346559Y0310589D02*
X0350107Y0310589D01*
X0336200Y0264658D02*
X0411233Y0264658D01*
X0411233Y0263659D02*
X0337311Y0263659D01*
X0338076Y0262661D02*
X0411233Y0262661D01*
X0411233Y0261662D02*
X0338490Y0261662D01*
X0338733Y0260664D02*
X0411233Y0260664D01*
X0411233Y0259665D02*
X0338733Y0259665D01*
X0338626Y0258667D02*
X0411233Y0258667D01*
X0411233Y0257668D02*
X0338212Y0257668D01*
X0337640Y0256670D02*
X0411233Y0256670D01*
X0411233Y0255671D02*
X0336641Y0255671D01*
X0299512Y0158815D02*
X0296872Y0158815D01*
X0297714Y0157817D02*
X0298655Y0157817D01*
X0298242Y0156818D02*
X0298210Y0156818D01*
X0298061Y0152824D02*
X0298390Y0152824D01*
X0298871Y0151826D02*
X0297455Y0151826D01*
X0296437Y0150827D02*
X0299869Y0150827D01*
X0301707Y0149829D02*
X0293924Y0149829D01*
X0293833Y0149829D02*
X0292833Y0149829D01*
X0292742Y0149829D02*
X0285633Y0149829D01*
X0286797Y0150827D02*
X0290230Y0150827D01*
X0289212Y0151826D02*
X0287796Y0151826D01*
X0288277Y0152824D02*
X0288606Y0152824D01*
X0292833Y0152824D02*
X0293833Y0152824D01*
X0293833Y0151826D02*
X0292833Y0151826D01*
X0292833Y0150827D02*
X0293833Y0150827D01*
X0293833Y0153823D02*
X0292833Y0153823D01*
X0256024Y0109888D02*
X0216556Y0109888D01*
X0216514Y0110887D02*
X0215743Y0110887D01*
X0215743Y0111885D02*
X0216514Y0111885D01*
X0216514Y0112884D02*
X0215743Y0112884D01*
X0215743Y0113882D02*
X0216514Y0113882D01*
X0217555Y0108890D02*
X0254586Y0108890D01*
X0253686Y0107891D02*
X0218553Y0107891D01*
X0219552Y0106893D02*
X0253272Y0106893D01*
X0252933Y0105894D02*
X0220550Y0105894D01*
X0221549Y0104896D02*
X0252933Y0104896D01*
X0252945Y0103897D02*
X0222547Y0103897D01*
X0223546Y0102899D02*
X0253359Y0102899D01*
X0253796Y0101900D02*
X0224544Y0101900D01*
X0225543Y0100902D02*
X0254795Y0100902D01*
X0256527Y0099903D02*
X0226541Y0099903D01*
X0227540Y0098905D02*
X0269601Y0098905D01*
X0268692Y0097906D02*
X0228538Y0097906D01*
X0225311Y0094911D02*
X0073733Y0094911D01*
X0073733Y0095909D02*
X0224313Y0095909D01*
X0223314Y0096908D02*
X0073388Y0096908D01*
X0072974Y0097906D02*
X0222316Y0097906D01*
X0221317Y0098905D02*
X0072065Y0098905D01*
X0070607Y0099903D02*
X0220319Y0099903D01*
X0219320Y0100902D02*
X0070533Y0100902D01*
X0070533Y0101900D02*
X0218322Y0101900D01*
X0217323Y0102899D02*
X0070533Y0102899D01*
X0070533Y0103897D02*
X0216325Y0103897D01*
X0215326Y0104896D02*
X0070533Y0104896D01*
X0070533Y0105894D02*
X0214328Y0105894D01*
X0213329Y0106893D02*
X0070533Y0106893D01*
X0070533Y0107891D02*
X0212331Y0107891D01*
X0211332Y0108890D02*
X0070533Y0108890D01*
X0070533Y0109888D02*
X0189290Y0109888D01*
X0187297Y0110887D02*
X0071857Y0110887D01*
X0072855Y0111885D02*
X0186299Y0111885D01*
X0191786Y0109888D02*
X0210334Y0109888D01*
X0209335Y0110887D02*
X0193779Y0110887D01*
X0194777Y0111885D02*
X0208633Y0111885D01*
X0208633Y0112884D02*
X0195290Y0112884D01*
X0195704Y0113882D02*
X0208633Y0113882D01*
X0208633Y0114881D02*
X0195738Y0114881D01*
X0195738Y0115879D02*
X0208633Y0115879D01*
X0208633Y0116878D02*
X0195389Y0116878D01*
X0194975Y0117876D02*
X0208633Y0117876D01*
X0209097Y0118875D02*
X0194017Y0118875D01*
X0192361Y0119873D02*
X0210096Y0119873D01*
X0226310Y0093912D02*
X0073728Y0093912D01*
X0073314Y0092914D02*
X0227308Y0092914D01*
X0199463Y0077936D02*
X0198463Y0077936D01*
X0198463Y0076937D02*
X0199463Y0076937D01*
X0199463Y0075939D02*
X0198463Y0075939D01*
X0198463Y0074940D02*
X0199463Y0074940D01*
X0199463Y0073942D02*
X0198463Y0073942D01*
X0199463Y0072943D02*
X0270133Y0072943D01*
X0277692Y0068949D02*
X0298974Y0068949D01*
X0298074Y0069322D02*
X0300059Y0068500D01*
X0302207Y0068500D01*
X0304192Y0069322D01*
X0305711Y0070841D01*
X0306533Y0072826D01*
X0306533Y0074974D01*
X0305711Y0076959D01*
X0304192Y0078478D01*
X0302207Y0079300D01*
X0300059Y0079300D01*
X0298074Y0078478D01*
X0296555Y0076959D01*
X0295733Y0074974D01*
X0295733Y0072826D01*
X0296555Y0070841D01*
X0298074Y0069322D01*
X0297449Y0069948D02*
X0279218Y0069948D01*
X0280155Y0070946D02*
X0296512Y0070946D01*
X0296098Y0071945D02*
X0280568Y0071945D01*
X0280933Y0072943D02*
X0295733Y0072943D01*
X0295733Y0073942D02*
X0280933Y0073942D01*
X0280933Y0074940D02*
X0295733Y0074940D01*
X0296133Y0075939D02*
X0280534Y0075939D01*
X0280120Y0076937D02*
X0296547Y0076937D01*
X0297533Y0077936D02*
X0279134Y0077936D01*
X0277490Y0078934D02*
X0299177Y0078934D01*
X0303090Y0078934D02*
X0338646Y0078934D01*
X0339645Y0077936D02*
X0304734Y0077936D01*
X0305720Y0076937D02*
X0340643Y0076937D01*
X0340533Y0075939D02*
X0306134Y0075939D01*
X0306533Y0074940D02*
X0340133Y0074940D01*
X0340133Y0073942D02*
X0306533Y0073942D01*
X0306533Y0072943D02*
X0340133Y0072943D01*
X0340498Y0071945D02*
X0306168Y0071945D01*
X0305755Y0070946D02*
X0340912Y0070946D01*
X0341849Y0069948D02*
X0304818Y0069948D01*
X0303292Y0068949D02*
X0343374Y0068949D01*
X0337648Y0079933D02*
X0079012Y0079933D01*
X0078013Y0080932D02*
X0336649Y0080932D01*
X0335651Y0081930D02*
X0077015Y0081930D01*
X0076016Y0082929D02*
X0334652Y0082929D01*
X0333654Y0083927D02*
X0075018Y0083927D01*
X0074019Y0084926D02*
X0332655Y0084926D01*
X0331657Y0085924D02*
X0073021Y0085924D01*
X0072022Y0086923D02*
X0330658Y0086923D01*
X0329660Y0087921D02*
X0071023Y0087921D01*
X0070025Y0088920D02*
X0328661Y0088920D01*
X0327663Y0089918D02*
X0304488Y0089918D01*
X0306560Y0090917D02*
X0326664Y0090917D01*
X0325666Y0091915D02*
X0307520Y0091915D01*
X0308106Y0092914D02*
X0324667Y0092914D01*
X0330174Y0093912D02*
X0338241Y0093912D01*
X0338560Y0092914D02*
X0331172Y0092914D01*
X0332171Y0091915D02*
X0339147Y0091915D01*
X0340107Y0090917D02*
X0333169Y0090917D01*
X0330140Y0099903D02*
X0341596Y0099903D01*
X0342947Y0099903D02*
X0343719Y0099903D01*
X0343743Y0100200D02*
X0343719Y0100200D01*
X0343719Y0095386D01*
X0348533Y0095386D01*
X0348533Y0095409D01*
X0348405Y0096218D01*
X0348152Y0096996D01*
X0347781Y0097725D01*
X0347300Y0098388D01*
X0346721Y0098966D01*
X0346059Y0099447D01*
X0345329Y0099819D01*
X0344551Y0100072D01*
X0343743Y0100200D01*
X0343719Y0098905D02*
X0342947Y0098905D01*
X0342947Y0097906D02*
X0343719Y0097906D01*
X0343719Y0096908D02*
X0342947Y0096908D01*
X0342947Y0095909D02*
X0343719Y0095909D01*
X0343719Y0094911D02*
X0367933Y0094911D01*
X0367933Y0095909D02*
X0348454Y0095909D01*
X0348181Y0096908D02*
X0368279Y0096908D01*
X0368692Y0097906D02*
X0347649Y0097906D01*
X0346782Y0098905D02*
X0369601Y0098905D01*
X0371060Y0099903D02*
X0345070Y0099903D01*
X0343719Y0093912D02*
X0342947Y0093912D01*
X0342947Y0092914D02*
X0343719Y0092914D01*
X0343719Y0091915D02*
X0342947Y0091915D01*
X0342947Y0090917D02*
X0343719Y0090917D01*
X0346560Y0090917D02*
X0369780Y0090917D01*
X0368781Y0091915D02*
X0347520Y0091915D01*
X0348106Y0092914D02*
X0368353Y0092914D01*
X0367939Y0093912D02*
X0348426Y0093912D01*
X0373090Y0078934D02*
X0411233Y0078934D01*
X0411233Y0077936D02*
X0374734Y0077936D01*
X0375720Y0076937D02*
X0411233Y0076937D01*
X0411233Y0075939D02*
X0376134Y0075939D01*
X0376533Y0074940D02*
X0411233Y0074940D01*
X0411233Y0073942D02*
X0376533Y0073942D01*
X0376533Y0072943D02*
X0411233Y0072943D01*
X0411233Y0071945D02*
X0376168Y0071945D01*
X0375755Y0070946D02*
X0411233Y0070946D01*
X0411233Y0069948D02*
X0374818Y0069948D01*
X0373508Y0060961D02*
X0411233Y0060961D01*
X0411233Y0059963D02*
X0374907Y0059963D01*
X0375792Y0058964D02*
X0411233Y0058964D01*
X0411233Y0057966D02*
X0376205Y0057966D01*
X0376533Y0056967D02*
X0411233Y0056967D01*
X0411233Y0055969D02*
X0376533Y0055969D01*
X0376510Y0054970D02*
X0411233Y0054970D01*
X0411233Y0053972D02*
X0376097Y0053972D01*
X0375643Y0052973D02*
X0411233Y0052973D01*
X0411233Y0051975D02*
X0374645Y0051975D01*
X0411233Y0048979D02*
X0015433Y0048979D01*
X0015433Y0047981D02*
X0411233Y0047981D01*
X0411233Y0046982D02*
X0015433Y0046982D01*
X0015433Y0045984D02*
X0411233Y0045984D01*
X0411233Y0044985D02*
X0015433Y0044985D01*
X0015433Y0043987D02*
X0411233Y0043987D01*
X0411233Y0042988D02*
X0015433Y0042988D01*
X0015433Y0041990D02*
X0411233Y0041990D01*
X0411233Y0040991D02*
X0015433Y0040991D01*
X0015433Y0039993D02*
X0411233Y0039993D01*
X0411233Y0038994D02*
X0015433Y0038994D01*
X0015433Y0037996D02*
X0411233Y0037996D01*
X0363633Y0115879D02*
X0363033Y0115879D01*
X0363033Y0116878D02*
X0363633Y0116878D01*
X0363633Y0117876D02*
X0363033Y0117876D01*
X0363033Y0118875D02*
X0363633Y0118875D01*
X0271060Y0099903D02*
X0260140Y0099903D01*
X0268781Y0091915D02*
X0072885Y0091915D01*
X0071887Y0090917D02*
X0269780Y0090917D01*
X0271491Y0089918D02*
X0070175Y0089918D01*
X0015433Y0054970D02*
X0193222Y0054970D01*
X0193636Y0053972D02*
X0015433Y0053972D01*
X0015433Y0052973D02*
X0194448Y0052973D01*
X0195447Y0051975D02*
X0015433Y0051975D01*
D19*
X0043333Y0285000D02*
X0048333Y0285000D01*
X0123333Y0360000D01*
X0283333Y0315000D02*
X0303333Y0295000D01*
X0303333Y0260000D01*
X0303333Y0175000D01*
X0283333Y0155000D01*
X0283333Y0137500D01*
X0345833Y0075000D01*
X0345533Y0073900D01*
D20*
X0058333Y0177500D03*
X0048333Y0177500D03*
X0048333Y0172500D03*
M02*
