G75*
%MOIN*%
%OFA0B0*%
%FSLAX25Y25*%
%IPPOS*%
%LPD*%
%AMOC8*
5,1,8,0,0,1.08239X$1,22.5*
%
%ADD10C,0.00800*%
%ADD11C,0.08000*%
%ADD12C,0.07400*%
%ADD13C,0.12000*%
%ADD14C,0.00000*%
%ADD15C,0.07000*%
%ADD16C,0.06400*%
%ADD17C,0.08858*%
%ADD18C,0.01000*%
%ADD19C,0.04000*%
%ADD20C,0.01200*%
D10*
X0013333Y0035000D02*
X0413333Y0035000D01*
X0413333Y0410000D01*
X0013333Y0410000D01*
X0013333Y0035000D01*
D11*
X0158333Y0324500D03*
X0158333Y0335500D03*
X0158333Y0364500D03*
X0158333Y0375500D03*
D12*
X0203333Y0285000D03*
X0213333Y0285000D03*
X0213333Y0275000D03*
X0203333Y0275000D03*
X0203333Y0265000D03*
X0213333Y0265000D03*
X0213333Y0255000D03*
X0203333Y0255000D03*
X0203333Y0245000D03*
X0203333Y0235000D03*
X0213333Y0235000D03*
X0213333Y0245000D03*
X0213333Y0225000D03*
X0203333Y0225000D03*
X0203333Y0215000D03*
X0213333Y0215000D03*
X0213333Y0205000D03*
X0203333Y0205000D03*
X0203333Y0195000D03*
X0213333Y0195000D03*
X0258333Y0135000D03*
X0283333Y0120000D03*
X0293333Y0120000D03*
X0303333Y0095000D03*
X0301133Y0073900D03*
X0301133Y0056100D03*
X0275533Y0056100D03*
X0275533Y0073900D03*
X0273333Y0095000D03*
X0258333Y0105000D03*
X0283333Y0155000D03*
X0293333Y0155000D03*
X0303333Y0155000D03*
X0313333Y0155000D03*
X0323333Y0155000D03*
X0333333Y0155000D03*
X0343333Y0155000D03*
X0353333Y0155000D03*
X0328333Y0135000D03*
X0353333Y0120000D03*
X0363333Y0120000D03*
X0373333Y0095000D03*
X0371133Y0073900D03*
X0371133Y0056100D03*
X0345533Y0056100D03*
X0345533Y0073900D03*
X0343333Y0095000D03*
X0328333Y0105000D03*
X0333333Y0260000D03*
X0303333Y0260000D03*
X0303333Y0315000D03*
X0293333Y0315000D03*
X0283333Y0315000D03*
X0313333Y0315000D03*
X0323333Y0315000D03*
X0333333Y0315000D03*
X0343333Y0315000D03*
X0353333Y0315000D03*
X0113333Y0155000D03*
X0083333Y0155000D03*
X0068333Y0155000D03*
X0068333Y0135000D03*
X0068333Y0115000D03*
X0068333Y0095000D03*
X0038333Y0095000D03*
X0038333Y0115000D03*
X0038333Y0135000D03*
X0038333Y0155000D03*
X0038333Y0175000D03*
X0033333Y0195000D03*
X0033333Y0205000D03*
X0033333Y0215000D03*
X0033333Y0225000D03*
X0033333Y0235000D03*
X0033333Y0245000D03*
X0033333Y0255000D03*
X0033333Y0265000D03*
X0033333Y0275000D03*
X0033333Y0285000D03*
X0043333Y0285000D03*
X0043333Y0275000D03*
X0043333Y0265000D03*
X0043333Y0255000D03*
X0043333Y0245000D03*
X0043333Y0235000D03*
X0043333Y0225000D03*
X0043333Y0215000D03*
X0043333Y0205000D03*
X0043333Y0195000D03*
X0068333Y0175000D03*
D13*
X0029333Y0323000D03*
X0029333Y0374000D03*
D14*
X0057833Y0350000D02*
X0057835Y0350161D01*
X0057841Y0350321D01*
X0057851Y0350482D01*
X0057865Y0350642D01*
X0057883Y0350802D01*
X0057904Y0350961D01*
X0057930Y0351120D01*
X0057960Y0351278D01*
X0057993Y0351435D01*
X0058031Y0351592D01*
X0058072Y0351747D01*
X0058117Y0351901D01*
X0058166Y0352054D01*
X0058219Y0352206D01*
X0058275Y0352357D01*
X0058336Y0352506D01*
X0058399Y0352654D01*
X0058467Y0352800D01*
X0058538Y0352944D01*
X0058612Y0353086D01*
X0058690Y0353227D01*
X0058772Y0353365D01*
X0058857Y0353502D01*
X0058945Y0353636D01*
X0059037Y0353768D01*
X0059132Y0353898D01*
X0059230Y0354026D01*
X0059331Y0354151D01*
X0059435Y0354273D01*
X0059542Y0354393D01*
X0059652Y0354510D01*
X0059765Y0354625D01*
X0059881Y0354736D01*
X0060000Y0354845D01*
X0060121Y0354950D01*
X0060245Y0355053D01*
X0060371Y0355153D01*
X0060499Y0355249D01*
X0060630Y0355342D01*
X0060764Y0355432D01*
X0060899Y0355519D01*
X0061037Y0355602D01*
X0061176Y0355682D01*
X0061318Y0355758D01*
X0061461Y0355831D01*
X0061606Y0355900D01*
X0061753Y0355966D01*
X0061901Y0356028D01*
X0062051Y0356086D01*
X0062202Y0356141D01*
X0062355Y0356192D01*
X0062509Y0356239D01*
X0062664Y0356282D01*
X0062820Y0356321D01*
X0062976Y0356357D01*
X0063134Y0356388D01*
X0063292Y0356416D01*
X0063451Y0356440D01*
X0063611Y0356460D01*
X0063771Y0356476D01*
X0063931Y0356488D01*
X0064092Y0356496D01*
X0064253Y0356500D01*
X0064413Y0356500D01*
X0064574Y0356496D01*
X0064735Y0356488D01*
X0064895Y0356476D01*
X0065055Y0356460D01*
X0065215Y0356440D01*
X0065374Y0356416D01*
X0065532Y0356388D01*
X0065690Y0356357D01*
X0065846Y0356321D01*
X0066002Y0356282D01*
X0066157Y0356239D01*
X0066311Y0356192D01*
X0066464Y0356141D01*
X0066615Y0356086D01*
X0066765Y0356028D01*
X0066913Y0355966D01*
X0067060Y0355900D01*
X0067205Y0355831D01*
X0067348Y0355758D01*
X0067490Y0355682D01*
X0067629Y0355602D01*
X0067767Y0355519D01*
X0067902Y0355432D01*
X0068036Y0355342D01*
X0068167Y0355249D01*
X0068295Y0355153D01*
X0068421Y0355053D01*
X0068545Y0354950D01*
X0068666Y0354845D01*
X0068785Y0354736D01*
X0068901Y0354625D01*
X0069014Y0354510D01*
X0069124Y0354393D01*
X0069231Y0354273D01*
X0069335Y0354151D01*
X0069436Y0354026D01*
X0069534Y0353898D01*
X0069629Y0353768D01*
X0069721Y0353636D01*
X0069809Y0353502D01*
X0069894Y0353365D01*
X0069976Y0353227D01*
X0070054Y0353086D01*
X0070128Y0352944D01*
X0070199Y0352800D01*
X0070267Y0352654D01*
X0070330Y0352506D01*
X0070391Y0352357D01*
X0070447Y0352206D01*
X0070500Y0352054D01*
X0070549Y0351901D01*
X0070594Y0351747D01*
X0070635Y0351592D01*
X0070673Y0351435D01*
X0070706Y0351278D01*
X0070736Y0351120D01*
X0070762Y0350961D01*
X0070783Y0350802D01*
X0070801Y0350642D01*
X0070815Y0350482D01*
X0070825Y0350321D01*
X0070831Y0350161D01*
X0070833Y0350000D01*
X0070831Y0349839D01*
X0070825Y0349679D01*
X0070815Y0349518D01*
X0070801Y0349358D01*
X0070783Y0349198D01*
X0070762Y0349039D01*
X0070736Y0348880D01*
X0070706Y0348722D01*
X0070673Y0348565D01*
X0070635Y0348408D01*
X0070594Y0348253D01*
X0070549Y0348099D01*
X0070500Y0347946D01*
X0070447Y0347794D01*
X0070391Y0347643D01*
X0070330Y0347494D01*
X0070267Y0347346D01*
X0070199Y0347200D01*
X0070128Y0347056D01*
X0070054Y0346914D01*
X0069976Y0346773D01*
X0069894Y0346635D01*
X0069809Y0346498D01*
X0069721Y0346364D01*
X0069629Y0346232D01*
X0069534Y0346102D01*
X0069436Y0345974D01*
X0069335Y0345849D01*
X0069231Y0345727D01*
X0069124Y0345607D01*
X0069014Y0345490D01*
X0068901Y0345375D01*
X0068785Y0345264D01*
X0068666Y0345155D01*
X0068545Y0345050D01*
X0068421Y0344947D01*
X0068295Y0344847D01*
X0068167Y0344751D01*
X0068036Y0344658D01*
X0067902Y0344568D01*
X0067767Y0344481D01*
X0067629Y0344398D01*
X0067490Y0344318D01*
X0067348Y0344242D01*
X0067205Y0344169D01*
X0067060Y0344100D01*
X0066913Y0344034D01*
X0066765Y0343972D01*
X0066615Y0343914D01*
X0066464Y0343859D01*
X0066311Y0343808D01*
X0066157Y0343761D01*
X0066002Y0343718D01*
X0065846Y0343679D01*
X0065690Y0343643D01*
X0065532Y0343612D01*
X0065374Y0343584D01*
X0065215Y0343560D01*
X0065055Y0343540D01*
X0064895Y0343524D01*
X0064735Y0343512D01*
X0064574Y0343504D01*
X0064413Y0343500D01*
X0064253Y0343500D01*
X0064092Y0343504D01*
X0063931Y0343512D01*
X0063771Y0343524D01*
X0063611Y0343540D01*
X0063451Y0343560D01*
X0063292Y0343584D01*
X0063134Y0343612D01*
X0062976Y0343643D01*
X0062820Y0343679D01*
X0062664Y0343718D01*
X0062509Y0343761D01*
X0062355Y0343808D01*
X0062202Y0343859D01*
X0062051Y0343914D01*
X0061901Y0343972D01*
X0061753Y0344034D01*
X0061606Y0344100D01*
X0061461Y0344169D01*
X0061318Y0344242D01*
X0061176Y0344318D01*
X0061037Y0344398D01*
X0060899Y0344481D01*
X0060764Y0344568D01*
X0060630Y0344658D01*
X0060499Y0344751D01*
X0060371Y0344847D01*
X0060245Y0344947D01*
X0060121Y0345050D01*
X0060000Y0345155D01*
X0059881Y0345264D01*
X0059765Y0345375D01*
X0059652Y0345490D01*
X0059542Y0345607D01*
X0059435Y0345727D01*
X0059331Y0345849D01*
X0059230Y0345974D01*
X0059132Y0346102D01*
X0059037Y0346232D01*
X0058945Y0346364D01*
X0058857Y0346498D01*
X0058772Y0346635D01*
X0058690Y0346773D01*
X0058612Y0346914D01*
X0058538Y0347056D01*
X0058467Y0347200D01*
X0058399Y0347346D01*
X0058336Y0347494D01*
X0058275Y0347643D01*
X0058219Y0347794D01*
X0058166Y0347946D01*
X0058117Y0348099D01*
X0058072Y0348253D01*
X0058031Y0348408D01*
X0057993Y0348565D01*
X0057960Y0348722D01*
X0057930Y0348880D01*
X0057904Y0349039D01*
X0057883Y0349198D01*
X0057865Y0349358D01*
X0057851Y0349518D01*
X0057841Y0349679D01*
X0057835Y0349839D01*
X0057833Y0350000D01*
X0073833Y0393000D02*
X0073835Y0393134D01*
X0073841Y0393268D01*
X0073851Y0393401D01*
X0073865Y0393535D01*
X0073883Y0393668D01*
X0073905Y0393800D01*
X0073930Y0393931D01*
X0073960Y0394062D01*
X0073994Y0394192D01*
X0074031Y0394320D01*
X0074072Y0394448D01*
X0074117Y0394574D01*
X0074166Y0394699D01*
X0074218Y0394822D01*
X0074274Y0394944D01*
X0074334Y0395064D01*
X0074397Y0395182D01*
X0074464Y0395298D01*
X0074534Y0395412D01*
X0074608Y0395524D01*
X0074685Y0395634D01*
X0074765Y0395742D01*
X0074848Y0395847D01*
X0074934Y0395949D01*
X0075023Y0396049D01*
X0075116Y0396146D01*
X0075211Y0396241D01*
X0075309Y0396332D01*
X0075409Y0396421D01*
X0075512Y0396506D01*
X0075618Y0396589D01*
X0075726Y0396668D01*
X0075836Y0396744D01*
X0075949Y0396817D01*
X0076064Y0396886D01*
X0076180Y0396952D01*
X0076299Y0397014D01*
X0076419Y0397073D01*
X0076542Y0397128D01*
X0076665Y0397180D01*
X0076790Y0397227D01*
X0076917Y0397271D01*
X0077045Y0397312D01*
X0077174Y0397348D01*
X0077304Y0397381D01*
X0077435Y0397409D01*
X0077566Y0397434D01*
X0077699Y0397455D01*
X0077832Y0397472D01*
X0077965Y0397485D01*
X0078099Y0397494D01*
X0078233Y0397499D01*
X0078367Y0397500D01*
X0078500Y0397497D01*
X0078634Y0397490D01*
X0078768Y0397479D01*
X0078901Y0397464D01*
X0079034Y0397445D01*
X0079166Y0397422D01*
X0079297Y0397396D01*
X0079427Y0397365D01*
X0079557Y0397330D01*
X0079685Y0397292D01*
X0079812Y0397250D01*
X0079938Y0397204D01*
X0080063Y0397154D01*
X0080186Y0397101D01*
X0080307Y0397044D01*
X0080427Y0396983D01*
X0080544Y0396919D01*
X0080660Y0396852D01*
X0080774Y0396781D01*
X0080885Y0396706D01*
X0080994Y0396629D01*
X0081101Y0396548D01*
X0081206Y0396464D01*
X0081307Y0396377D01*
X0081407Y0396287D01*
X0081503Y0396194D01*
X0081597Y0396098D01*
X0081688Y0395999D01*
X0081775Y0395898D01*
X0081860Y0395794D01*
X0081942Y0395688D01*
X0082020Y0395580D01*
X0082095Y0395469D01*
X0082167Y0395356D01*
X0082236Y0395240D01*
X0082301Y0395123D01*
X0082362Y0395004D01*
X0082420Y0394883D01*
X0082474Y0394761D01*
X0082525Y0394637D01*
X0082572Y0394511D01*
X0082615Y0394384D01*
X0082654Y0394256D01*
X0082690Y0394127D01*
X0082721Y0393997D01*
X0082749Y0393866D01*
X0082773Y0393734D01*
X0082793Y0393601D01*
X0082809Y0393468D01*
X0082821Y0393335D01*
X0082829Y0393201D01*
X0082833Y0393067D01*
X0082833Y0392933D01*
X0082829Y0392799D01*
X0082821Y0392665D01*
X0082809Y0392532D01*
X0082793Y0392399D01*
X0082773Y0392266D01*
X0082749Y0392134D01*
X0082721Y0392003D01*
X0082690Y0391873D01*
X0082654Y0391744D01*
X0082615Y0391616D01*
X0082572Y0391489D01*
X0082525Y0391363D01*
X0082474Y0391239D01*
X0082420Y0391117D01*
X0082362Y0390996D01*
X0082301Y0390877D01*
X0082236Y0390760D01*
X0082167Y0390644D01*
X0082095Y0390531D01*
X0082020Y0390420D01*
X0081942Y0390312D01*
X0081860Y0390206D01*
X0081775Y0390102D01*
X0081688Y0390001D01*
X0081597Y0389902D01*
X0081503Y0389806D01*
X0081407Y0389713D01*
X0081307Y0389623D01*
X0081206Y0389536D01*
X0081101Y0389452D01*
X0080994Y0389371D01*
X0080885Y0389294D01*
X0080774Y0389219D01*
X0080660Y0389148D01*
X0080544Y0389081D01*
X0080427Y0389017D01*
X0080307Y0388956D01*
X0080186Y0388899D01*
X0080063Y0388846D01*
X0079938Y0388796D01*
X0079812Y0388750D01*
X0079685Y0388708D01*
X0079557Y0388670D01*
X0079427Y0388635D01*
X0079297Y0388604D01*
X0079166Y0388578D01*
X0079034Y0388555D01*
X0078901Y0388536D01*
X0078768Y0388521D01*
X0078634Y0388510D01*
X0078500Y0388503D01*
X0078367Y0388500D01*
X0078233Y0388501D01*
X0078099Y0388506D01*
X0077965Y0388515D01*
X0077832Y0388528D01*
X0077699Y0388545D01*
X0077566Y0388566D01*
X0077435Y0388591D01*
X0077304Y0388619D01*
X0077174Y0388652D01*
X0077045Y0388688D01*
X0076917Y0388729D01*
X0076790Y0388773D01*
X0076665Y0388820D01*
X0076542Y0388872D01*
X0076419Y0388927D01*
X0076299Y0388986D01*
X0076180Y0389048D01*
X0076064Y0389114D01*
X0075949Y0389183D01*
X0075836Y0389256D01*
X0075726Y0389332D01*
X0075618Y0389411D01*
X0075512Y0389494D01*
X0075409Y0389579D01*
X0075309Y0389668D01*
X0075211Y0389759D01*
X0075116Y0389854D01*
X0075023Y0389951D01*
X0074934Y0390051D01*
X0074848Y0390153D01*
X0074765Y0390258D01*
X0074685Y0390366D01*
X0074608Y0390476D01*
X0074534Y0390588D01*
X0074464Y0390702D01*
X0074397Y0390818D01*
X0074334Y0390936D01*
X0074274Y0391056D01*
X0074218Y0391178D01*
X0074166Y0391301D01*
X0074117Y0391426D01*
X0074072Y0391552D01*
X0074031Y0391680D01*
X0073994Y0391808D01*
X0073960Y0391938D01*
X0073930Y0392069D01*
X0073905Y0392200D01*
X0073883Y0392332D01*
X0073865Y0392465D01*
X0073851Y0392599D01*
X0073841Y0392732D01*
X0073835Y0392866D01*
X0073833Y0393000D01*
X0126833Y0305000D02*
X0126835Y0305134D01*
X0126841Y0305268D01*
X0126851Y0305401D01*
X0126865Y0305535D01*
X0126883Y0305668D01*
X0126905Y0305800D01*
X0126930Y0305931D01*
X0126960Y0306062D01*
X0126994Y0306192D01*
X0127031Y0306320D01*
X0127072Y0306448D01*
X0127117Y0306574D01*
X0127166Y0306699D01*
X0127218Y0306822D01*
X0127274Y0306944D01*
X0127334Y0307064D01*
X0127397Y0307182D01*
X0127464Y0307298D01*
X0127534Y0307412D01*
X0127608Y0307524D01*
X0127685Y0307634D01*
X0127765Y0307742D01*
X0127848Y0307847D01*
X0127934Y0307949D01*
X0128023Y0308049D01*
X0128116Y0308146D01*
X0128211Y0308241D01*
X0128309Y0308332D01*
X0128409Y0308421D01*
X0128512Y0308506D01*
X0128618Y0308589D01*
X0128726Y0308668D01*
X0128836Y0308744D01*
X0128949Y0308817D01*
X0129064Y0308886D01*
X0129180Y0308952D01*
X0129299Y0309014D01*
X0129419Y0309073D01*
X0129542Y0309128D01*
X0129665Y0309180D01*
X0129790Y0309227D01*
X0129917Y0309271D01*
X0130045Y0309312D01*
X0130174Y0309348D01*
X0130304Y0309381D01*
X0130435Y0309409D01*
X0130566Y0309434D01*
X0130699Y0309455D01*
X0130832Y0309472D01*
X0130965Y0309485D01*
X0131099Y0309494D01*
X0131233Y0309499D01*
X0131367Y0309500D01*
X0131500Y0309497D01*
X0131634Y0309490D01*
X0131768Y0309479D01*
X0131901Y0309464D01*
X0132034Y0309445D01*
X0132166Y0309422D01*
X0132297Y0309396D01*
X0132427Y0309365D01*
X0132557Y0309330D01*
X0132685Y0309292D01*
X0132812Y0309250D01*
X0132938Y0309204D01*
X0133063Y0309154D01*
X0133186Y0309101D01*
X0133307Y0309044D01*
X0133427Y0308983D01*
X0133544Y0308919D01*
X0133660Y0308852D01*
X0133774Y0308781D01*
X0133885Y0308706D01*
X0133994Y0308629D01*
X0134101Y0308548D01*
X0134206Y0308464D01*
X0134307Y0308377D01*
X0134407Y0308287D01*
X0134503Y0308194D01*
X0134597Y0308098D01*
X0134688Y0307999D01*
X0134775Y0307898D01*
X0134860Y0307794D01*
X0134942Y0307688D01*
X0135020Y0307580D01*
X0135095Y0307469D01*
X0135167Y0307356D01*
X0135236Y0307240D01*
X0135301Y0307123D01*
X0135362Y0307004D01*
X0135420Y0306883D01*
X0135474Y0306761D01*
X0135525Y0306637D01*
X0135572Y0306511D01*
X0135615Y0306384D01*
X0135654Y0306256D01*
X0135690Y0306127D01*
X0135721Y0305997D01*
X0135749Y0305866D01*
X0135773Y0305734D01*
X0135793Y0305601D01*
X0135809Y0305468D01*
X0135821Y0305335D01*
X0135829Y0305201D01*
X0135833Y0305067D01*
X0135833Y0304933D01*
X0135829Y0304799D01*
X0135821Y0304665D01*
X0135809Y0304532D01*
X0135793Y0304399D01*
X0135773Y0304266D01*
X0135749Y0304134D01*
X0135721Y0304003D01*
X0135690Y0303873D01*
X0135654Y0303744D01*
X0135615Y0303616D01*
X0135572Y0303489D01*
X0135525Y0303363D01*
X0135474Y0303239D01*
X0135420Y0303117D01*
X0135362Y0302996D01*
X0135301Y0302877D01*
X0135236Y0302760D01*
X0135167Y0302644D01*
X0135095Y0302531D01*
X0135020Y0302420D01*
X0134942Y0302312D01*
X0134860Y0302206D01*
X0134775Y0302102D01*
X0134688Y0302001D01*
X0134597Y0301902D01*
X0134503Y0301806D01*
X0134407Y0301713D01*
X0134307Y0301623D01*
X0134206Y0301536D01*
X0134101Y0301452D01*
X0133994Y0301371D01*
X0133885Y0301294D01*
X0133774Y0301219D01*
X0133660Y0301148D01*
X0133544Y0301081D01*
X0133427Y0301017D01*
X0133307Y0300956D01*
X0133186Y0300899D01*
X0133063Y0300846D01*
X0132938Y0300796D01*
X0132812Y0300750D01*
X0132685Y0300708D01*
X0132557Y0300670D01*
X0132427Y0300635D01*
X0132297Y0300604D01*
X0132166Y0300578D01*
X0132034Y0300555D01*
X0131901Y0300536D01*
X0131768Y0300521D01*
X0131634Y0300510D01*
X0131500Y0300503D01*
X0131367Y0300500D01*
X0131233Y0300501D01*
X0131099Y0300506D01*
X0130965Y0300515D01*
X0130832Y0300528D01*
X0130699Y0300545D01*
X0130566Y0300566D01*
X0130435Y0300591D01*
X0130304Y0300619D01*
X0130174Y0300652D01*
X0130045Y0300688D01*
X0129917Y0300729D01*
X0129790Y0300773D01*
X0129665Y0300820D01*
X0129542Y0300872D01*
X0129419Y0300927D01*
X0129299Y0300986D01*
X0129180Y0301048D01*
X0129064Y0301114D01*
X0128949Y0301183D01*
X0128836Y0301256D01*
X0128726Y0301332D01*
X0128618Y0301411D01*
X0128512Y0301494D01*
X0128409Y0301579D01*
X0128309Y0301668D01*
X0128211Y0301759D01*
X0128116Y0301854D01*
X0128023Y0301951D01*
X0127934Y0302051D01*
X0127848Y0302153D01*
X0127765Y0302258D01*
X0127685Y0302366D01*
X0127608Y0302476D01*
X0127534Y0302588D01*
X0127464Y0302702D01*
X0127397Y0302818D01*
X0127334Y0302936D01*
X0127274Y0303056D01*
X0127218Y0303178D01*
X0127166Y0303301D01*
X0127117Y0303426D01*
X0127072Y0303552D01*
X0127031Y0303680D01*
X0126994Y0303808D01*
X0126960Y0303938D01*
X0126930Y0304069D01*
X0126905Y0304200D01*
X0126883Y0304332D01*
X0126865Y0304465D01*
X0126851Y0304599D01*
X0126841Y0304732D01*
X0126835Y0304866D01*
X0126833Y0305000D01*
X0179833Y0393000D02*
X0179835Y0393134D01*
X0179841Y0393268D01*
X0179851Y0393401D01*
X0179865Y0393535D01*
X0179883Y0393668D01*
X0179905Y0393800D01*
X0179930Y0393931D01*
X0179960Y0394062D01*
X0179994Y0394192D01*
X0180031Y0394320D01*
X0180072Y0394448D01*
X0180117Y0394574D01*
X0180166Y0394699D01*
X0180218Y0394822D01*
X0180274Y0394944D01*
X0180334Y0395064D01*
X0180397Y0395182D01*
X0180464Y0395298D01*
X0180534Y0395412D01*
X0180608Y0395524D01*
X0180685Y0395634D01*
X0180765Y0395742D01*
X0180848Y0395847D01*
X0180934Y0395949D01*
X0181023Y0396049D01*
X0181116Y0396146D01*
X0181211Y0396241D01*
X0181309Y0396332D01*
X0181409Y0396421D01*
X0181512Y0396506D01*
X0181618Y0396589D01*
X0181726Y0396668D01*
X0181836Y0396744D01*
X0181949Y0396817D01*
X0182064Y0396886D01*
X0182180Y0396952D01*
X0182299Y0397014D01*
X0182419Y0397073D01*
X0182542Y0397128D01*
X0182665Y0397180D01*
X0182790Y0397227D01*
X0182917Y0397271D01*
X0183045Y0397312D01*
X0183174Y0397348D01*
X0183304Y0397381D01*
X0183435Y0397409D01*
X0183566Y0397434D01*
X0183699Y0397455D01*
X0183832Y0397472D01*
X0183965Y0397485D01*
X0184099Y0397494D01*
X0184233Y0397499D01*
X0184367Y0397500D01*
X0184500Y0397497D01*
X0184634Y0397490D01*
X0184768Y0397479D01*
X0184901Y0397464D01*
X0185034Y0397445D01*
X0185166Y0397422D01*
X0185297Y0397396D01*
X0185427Y0397365D01*
X0185557Y0397330D01*
X0185685Y0397292D01*
X0185812Y0397250D01*
X0185938Y0397204D01*
X0186063Y0397154D01*
X0186186Y0397101D01*
X0186307Y0397044D01*
X0186427Y0396983D01*
X0186544Y0396919D01*
X0186660Y0396852D01*
X0186774Y0396781D01*
X0186885Y0396706D01*
X0186994Y0396629D01*
X0187101Y0396548D01*
X0187206Y0396464D01*
X0187307Y0396377D01*
X0187407Y0396287D01*
X0187503Y0396194D01*
X0187597Y0396098D01*
X0187688Y0395999D01*
X0187775Y0395898D01*
X0187860Y0395794D01*
X0187942Y0395688D01*
X0188020Y0395580D01*
X0188095Y0395469D01*
X0188167Y0395356D01*
X0188236Y0395240D01*
X0188301Y0395123D01*
X0188362Y0395004D01*
X0188420Y0394883D01*
X0188474Y0394761D01*
X0188525Y0394637D01*
X0188572Y0394511D01*
X0188615Y0394384D01*
X0188654Y0394256D01*
X0188690Y0394127D01*
X0188721Y0393997D01*
X0188749Y0393866D01*
X0188773Y0393734D01*
X0188793Y0393601D01*
X0188809Y0393468D01*
X0188821Y0393335D01*
X0188829Y0393201D01*
X0188833Y0393067D01*
X0188833Y0392933D01*
X0188829Y0392799D01*
X0188821Y0392665D01*
X0188809Y0392532D01*
X0188793Y0392399D01*
X0188773Y0392266D01*
X0188749Y0392134D01*
X0188721Y0392003D01*
X0188690Y0391873D01*
X0188654Y0391744D01*
X0188615Y0391616D01*
X0188572Y0391489D01*
X0188525Y0391363D01*
X0188474Y0391239D01*
X0188420Y0391117D01*
X0188362Y0390996D01*
X0188301Y0390877D01*
X0188236Y0390760D01*
X0188167Y0390644D01*
X0188095Y0390531D01*
X0188020Y0390420D01*
X0187942Y0390312D01*
X0187860Y0390206D01*
X0187775Y0390102D01*
X0187688Y0390001D01*
X0187597Y0389902D01*
X0187503Y0389806D01*
X0187407Y0389713D01*
X0187307Y0389623D01*
X0187206Y0389536D01*
X0187101Y0389452D01*
X0186994Y0389371D01*
X0186885Y0389294D01*
X0186774Y0389219D01*
X0186660Y0389148D01*
X0186544Y0389081D01*
X0186427Y0389017D01*
X0186307Y0388956D01*
X0186186Y0388899D01*
X0186063Y0388846D01*
X0185938Y0388796D01*
X0185812Y0388750D01*
X0185685Y0388708D01*
X0185557Y0388670D01*
X0185427Y0388635D01*
X0185297Y0388604D01*
X0185166Y0388578D01*
X0185034Y0388555D01*
X0184901Y0388536D01*
X0184768Y0388521D01*
X0184634Y0388510D01*
X0184500Y0388503D01*
X0184367Y0388500D01*
X0184233Y0388501D01*
X0184099Y0388506D01*
X0183965Y0388515D01*
X0183832Y0388528D01*
X0183699Y0388545D01*
X0183566Y0388566D01*
X0183435Y0388591D01*
X0183304Y0388619D01*
X0183174Y0388652D01*
X0183045Y0388688D01*
X0182917Y0388729D01*
X0182790Y0388773D01*
X0182665Y0388820D01*
X0182542Y0388872D01*
X0182419Y0388927D01*
X0182299Y0388986D01*
X0182180Y0389048D01*
X0182064Y0389114D01*
X0181949Y0389183D01*
X0181836Y0389256D01*
X0181726Y0389332D01*
X0181618Y0389411D01*
X0181512Y0389494D01*
X0181409Y0389579D01*
X0181309Y0389668D01*
X0181211Y0389759D01*
X0181116Y0389854D01*
X0181023Y0389951D01*
X0180934Y0390051D01*
X0180848Y0390153D01*
X0180765Y0390258D01*
X0180685Y0390366D01*
X0180608Y0390476D01*
X0180534Y0390588D01*
X0180464Y0390702D01*
X0180397Y0390818D01*
X0180334Y0390936D01*
X0180274Y0391056D01*
X0180218Y0391178D01*
X0180166Y0391301D01*
X0180117Y0391426D01*
X0180072Y0391552D01*
X0180031Y0391680D01*
X0179994Y0391808D01*
X0179960Y0391938D01*
X0179930Y0392069D01*
X0179905Y0392200D01*
X0179883Y0392332D01*
X0179865Y0392465D01*
X0179851Y0392599D01*
X0179841Y0392732D01*
X0179835Y0392866D01*
X0179833Y0393000D01*
D15*
X0190538Y0115000D03*
X0216129Y0115000D03*
D16*
X0126533Y0340000D02*
X0120133Y0340000D01*
X0120133Y0350000D02*
X0126533Y0350000D01*
X0126533Y0360000D02*
X0120133Y0360000D01*
D17*
X0198963Y0072874D03*
X0198963Y0057126D03*
X0027703Y0072874D03*
D18*
X0022060Y0075265D02*
X0021574Y0074093D01*
X0021574Y0071655D01*
X0022507Y0069402D01*
X0024232Y0067678D01*
X0026484Y0066745D01*
X0028923Y0066745D01*
X0031175Y0067678D01*
X0031197Y0067700D01*
X0049286Y0067700D01*
X0050633Y0069047D01*
X0064286Y0082700D01*
X0252381Y0082700D01*
X0267381Y0067700D01*
X0272586Y0067700D01*
X0273700Y0068814D01*
X0274459Y0068500D01*
X0276607Y0068500D01*
X0278592Y0069322D01*
X0280111Y0070841D01*
X0280933Y0072826D01*
X0280933Y0074974D01*
X0280619Y0075733D01*
X0287586Y0082700D01*
X0332381Y0082700D01*
X0340133Y0074947D01*
X0340133Y0072826D01*
X0340955Y0070841D01*
X0342474Y0069322D01*
X0344459Y0068500D01*
X0346607Y0068500D01*
X0348592Y0069322D01*
X0350111Y0070841D01*
X0350933Y0072826D01*
X0350933Y0074974D01*
X0350111Y0076959D01*
X0348592Y0078478D01*
X0346607Y0079300D01*
X0344459Y0079300D01*
X0342923Y0078663D01*
X0334286Y0087300D01*
X0285681Y0087300D01*
X0277366Y0078986D01*
X0276607Y0079300D01*
X0274459Y0079300D01*
X0272474Y0078478D01*
X0270955Y0076959D01*
X0270133Y0074974D01*
X0270133Y0072826D01*
X0270351Y0072300D01*
X0269286Y0072300D01*
X0245633Y0095953D01*
X0245633Y0159047D01*
X0249286Y0162700D01*
X0250801Y0162700D01*
X0250197Y0162096D01*
X0249633Y0160736D01*
X0249633Y0159264D01*
X0250197Y0157904D01*
X0251133Y0156967D01*
X0251133Y0145911D01*
X0247422Y0142200D01*
X0246133Y0140911D01*
X0246133Y0099089D01*
X0251133Y0094089D01*
X0252422Y0092800D01*
X0268400Y0092800D01*
X0268755Y0091941D01*
X0270274Y0090422D01*
X0272259Y0089600D01*
X0274407Y0089600D01*
X0276392Y0090422D01*
X0277911Y0091941D01*
X0278733Y0093926D01*
X0278733Y0096074D01*
X0277911Y0098059D01*
X0276392Y0099578D01*
X0274407Y0100400D01*
X0272259Y0100400D01*
X0270274Y0099578D01*
X0268755Y0098059D01*
X0268400Y0097200D01*
X0254245Y0097200D01*
X0250533Y0100911D01*
X0250533Y0139089D01*
X0255533Y0144089D01*
X0255533Y0156967D01*
X0256470Y0157904D01*
X0257033Y0159264D01*
X0257033Y0160736D01*
X0256470Y0162096D01*
X0255866Y0162700D01*
X0277381Y0162700D01*
X0280436Y0159645D01*
X0280274Y0159578D01*
X0278755Y0158059D01*
X0277933Y0156074D01*
X0277933Y0153926D01*
X0278755Y0151941D01*
X0280274Y0150422D01*
X0282259Y0149600D01*
X0284407Y0149600D01*
X0286392Y0150422D01*
X0287911Y0151941D01*
X0288443Y0153224D01*
X0288514Y0153004D01*
X0288886Y0152275D01*
X0289367Y0151612D01*
X0289946Y0151034D01*
X0290608Y0150553D01*
X0291337Y0150181D01*
X0292116Y0149928D01*
X0292833Y0149814D01*
X0292833Y0154500D01*
X0293833Y0154500D01*
X0293833Y0149814D01*
X0294551Y0149928D01*
X0295329Y0150181D01*
X0296059Y0150553D01*
X0296721Y0151034D01*
X0297300Y0151612D01*
X0297781Y0152275D01*
X0298152Y0153004D01*
X0298224Y0153224D01*
X0298755Y0151941D01*
X0300274Y0150422D01*
X0302259Y0149600D01*
X0304407Y0149600D01*
X0306392Y0150422D01*
X0307911Y0151941D01*
X0308333Y0152960D01*
X0308755Y0151941D01*
X0310274Y0150422D01*
X0312259Y0149600D01*
X0314407Y0149600D01*
X0316392Y0150422D01*
X0317911Y0151941D01*
X0318333Y0152960D01*
X0318755Y0151941D01*
X0320274Y0150422D01*
X0322259Y0149600D01*
X0324407Y0149600D01*
X0326392Y0150422D01*
X0327911Y0151941D01*
X0328333Y0152960D01*
X0328755Y0151941D01*
X0330274Y0150422D01*
X0332259Y0149600D01*
X0334407Y0149600D01*
X0336392Y0150422D01*
X0337911Y0151941D01*
X0338333Y0152960D01*
X0338755Y0151941D01*
X0340274Y0150422D01*
X0342259Y0149600D01*
X0344407Y0149600D01*
X0346392Y0150422D01*
X0347911Y0151941D01*
X0348333Y0152960D01*
X0348755Y0151941D01*
X0350274Y0150422D01*
X0352259Y0149600D01*
X0354407Y0149600D01*
X0356392Y0150422D01*
X0357911Y0151941D01*
X0358733Y0153926D01*
X0358733Y0156074D01*
X0357911Y0158059D01*
X0356392Y0159578D01*
X0354407Y0160400D01*
X0352259Y0160400D01*
X0350274Y0159578D01*
X0348755Y0158059D01*
X0348333Y0157040D01*
X0347911Y0158059D01*
X0346392Y0159578D01*
X0344407Y0160400D01*
X0342259Y0160400D01*
X0340274Y0159578D01*
X0338755Y0158059D01*
X0338333Y0157040D01*
X0337911Y0158059D01*
X0336392Y0159578D01*
X0334407Y0160400D01*
X0332259Y0160400D01*
X0330274Y0159578D01*
X0328755Y0158059D01*
X0328333Y0157040D01*
X0327911Y0158059D01*
X0326392Y0159578D01*
X0324407Y0160400D01*
X0322259Y0160400D01*
X0320274Y0159578D01*
X0318755Y0158059D01*
X0318333Y0157040D01*
X0317911Y0158059D01*
X0316392Y0159578D01*
X0314407Y0160400D01*
X0312259Y0160400D01*
X0310274Y0159578D01*
X0308755Y0158059D01*
X0308333Y0157040D01*
X0307911Y0158059D01*
X0306392Y0159578D01*
X0305533Y0159934D01*
X0305533Y0165911D01*
X0304245Y0167200D01*
X0268645Y0202800D01*
X0279245Y0202800D01*
X0289245Y0212800D01*
X0290533Y0214089D01*
X0290533Y0264089D01*
X0304245Y0277800D01*
X0305533Y0279089D01*
X0305533Y0310066D01*
X0306392Y0310422D01*
X0307911Y0311941D01*
X0308333Y0312960D01*
X0308755Y0311941D01*
X0310274Y0310422D01*
X0312259Y0309600D01*
X0314407Y0309600D01*
X0316392Y0310422D01*
X0317911Y0311941D01*
X0318333Y0312960D01*
X0318755Y0311941D01*
X0320274Y0310422D01*
X0322259Y0309600D01*
X0324407Y0309600D01*
X0326392Y0310422D01*
X0327911Y0311941D01*
X0328333Y0312960D01*
X0328755Y0311941D01*
X0330274Y0310422D01*
X0332259Y0309600D01*
X0334407Y0309600D01*
X0336392Y0310422D01*
X0337911Y0311941D01*
X0338333Y0312960D01*
X0338755Y0311941D01*
X0340274Y0310422D01*
X0342259Y0309600D01*
X0344407Y0309600D01*
X0346392Y0310422D01*
X0347911Y0311941D01*
X0348333Y0312960D01*
X0348755Y0311941D01*
X0350274Y0310422D01*
X0351133Y0310066D01*
X0351133Y0280911D01*
X0335266Y0265044D01*
X0334407Y0265400D01*
X0332259Y0265400D01*
X0330274Y0264578D01*
X0328755Y0263059D01*
X0327933Y0261074D01*
X0327933Y0258926D01*
X0328755Y0256941D01*
X0330274Y0255422D01*
X0332259Y0254600D01*
X0334407Y0254600D01*
X0336392Y0255422D01*
X0337911Y0256941D01*
X0338733Y0258926D01*
X0338733Y0261074D01*
X0338378Y0261933D01*
X0355533Y0279089D01*
X0355533Y0310066D01*
X0356392Y0310422D01*
X0357911Y0311941D01*
X0358733Y0313926D01*
X0358733Y0316074D01*
X0357911Y0318059D01*
X0356392Y0319578D01*
X0354407Y0320400D01*
X0352259Y0320400D01*
X0350274Y0319578D01*
X0348755Y0318059D01*
X0348333Y0317040D01*
X0347911Y0318059D01*
X0346392Y0319578D01*
X0344407Y0320400D01*
X0342259Y0320400D01*
X0340274Y0319578D01*
X0338755Y0318059D01*
X0338333Y0317040D01*
X0337911Y0318059D01*
X0336392Y0319578D01*
X0336131Y0319686D01*
X0339245Y0322800D01*
X0372422Y0322800D01*
X0391133Y0304089D01*
X0391133Y0050911D01*
X0382422Y0042200D01*
X0074245Y0042200D01*
X0062033Y0054411D01*
X0062033Y0055736D01*
X0061470Y0057096D01*
X0060429Y0058137D01*
X0059069Y0058700D01*
X0057597Y0058700D01*
X0056237Y0058137D01*
X0055197Y0057096D01*
X0054633Y0055736D01*
X0054633Y0054264D01*
X0055197Y0052904D01*
X0056237Y0051863D01*
X0057597Y0051300D01*
X0058922Y0051300D01*
X0071133Y0039089D01*
X0072422Y0037800D01*
X0384245Y0037800D01*
X0394245Y0047800D01*
X0395533Y0049089D01*
X0395533Y0305911D01*
X0394245Y0307200D01*
X0375533Y0325911D01*
X0374245Y0327200D01*
X0337422Y0327200D01*
X0332422Y0322200D01*
X0331133Y0320911D01*
X0331133Y0319934D01*
X0330274Y0319578D01*
X0328755Y0318059D01*
X0328333Y0317040D01*
X0327911Y0318059D01*
X0326392Y0319578D01*
X0324407Y0320400D01*
X0322259Y0320400D01*
X0320274Y0319578D01*
X0318755Y0318059D01*
X0318333Y0317040D01*
X0317911Y0318059D01*
X0316392Y0319578D01*
X0315533Y0319934D01*
X0315533Y0320911D01*
X0314245Y0322200D01*
X0309245Y0327200D01*
X0197422Y0327200D01*
X0196133Y0325911D01*
X0059922Y0189700D01*
X0044649Y0189700D01*
X0046392Y0190422D01*
X0047911Y0191941D01*
X0048733Y0193926D01*
X0048733Y0196074D01*
X0047911Y0198059D01*
X0046392Y0199578D01*
X0045373Y0200000D01*
X0046392Y0200422D01*
X0047911Y0201941D01*
X0048733Y0203926D01*
X0048733Y0206074D01*
X0047911Y0208059D01*
X0046392Y0209578D01*
X0045373Y0210000D01*
X0046392Y0210422D01*
X0047911Y0211941D01*
X0048733Y0213926D01*
X0048733Y0216074D01*
X0047911Y0218059D01*
X0046392Y0219578D01*
X0045373Y0220000D01*
X0046392Y0220422D01*
X0047911Y0221941D01*
X0048733Y0223926D01*
X0048733Y0226074D01*
X0047911Y0228059D01*
X0046392Y0229578D01*
X0045373Y0230000D01*
X0046392Y0230422D01*
X0047911Y0231941D01*
X0048733Y0233926D01*
X0048733Y0236074D01*
X0047911Y0238059D01*
X0046392Y0239578D01*
X0045373Y0240000D01*
X0046392Y0240422D01*
X0047911Y0241941D01*
X0048733Y0243926D01*
X0048733Y0246074D01*
X0047911Y0248059D01*
X0046392Y0249578D01*
X0045373Y0250000D01*
X0046392Y0250422D01*
X0047911Y0251941D01*
X0048733Y0253926D01*
X0048733Y0256074D01*
X0047911Y0258059D01*
X0046392Y0259578D01*
X0045373Y0260000D01*
X0046392Y0260422D01*
X0047911Y0261941D01*
X0048733Y0263926D01*
X0048733Y0266074D01*
X0047911Y0268059D01*
X0046392Y0269578D01*
X0045109Y0270109D01*
X0045329Y0270181D01*
X0046059Y0270553D01*
X0046721Y0271034D01*
X0047300Y0271612D01*
X0047781Y0272275D01*
X0048152Y0273004D01*
X0048405Y0273782D01*
X0048519Y0274500D01*
X0043833Y0274500D01*
X0043833Y0275500D01*
X0048519Y0275500D01*
X0048405Y0276218D01*
X0048152Y0276996D01*
X0047781Y0277725D01*
X0047300Y0278388D01*
X0046721Y0278966D01*
X0046059Y0279447D01*
X0045329Y0279819D01*
X0045109Y0279891D01*
X0046392Y0280422D01*
X0047911Y0281941D01*
X0048733Y0283926D01*
X0048733Y0286074D01*
X0047911Y0288059D01*
X0046392Y0289578D01*
X0044407Y0290400D01*
X0042259Y0290400D01*
X0041500Y0290086D01*
X0020633Y0310953D01*
X0020633Y0379047D01*
X0024286Y0382700D01*
X0117381Y0382700D01*
X0121033Y0379047D01*
X0121033Y0364900D01*
X0119159Y0364900D01*
X0117358Y0364154D01*
X0115979Y0362776D01*
X0115233Y0360975D01*
X0115233Y0359025D01*
X0115979Y0357224D01*
X0117358Y0355846D01*
X0119159Y0355100D01*
X0127508Y0355100D01*
X0129309Y0355846D01*
X0130687Y0357224D01*
X0131433Y0359025D01*
X0131433Y0360975D01*
X0130687Y0362776D01*
X0130024Y0363438D01*
X0139786Y0373200D01*
X0153116Y0373200D01*
X0153501Y0372271D01*
X0155105Y0370668D01*
X0157044Y0369864D01*
X0156222Y0369597D01*
X0155451Y0369204D01*
X0154750Y0368695D01*
X0154138Y0368083D01*
X0153629Y0367383D01*
X0153236Y0366611D01*
X0152969Y0365788D01*
X0152844Y0365000D01*
X0157833Y0365000D01*
X0157833Y0364000D01*
X0152844Y0364000D01*
X0152969Y0363212D01*
X0153236Y0362389D01*
X0153629Y0361617D01*
X0154138Y0360917D01*
X0154750Y0360305D01*
X0155451Y0359796D01*
X0156222Y0359403D01*
X0157045Y0359135D01*
X0157833Y0359011D01*
X0157833Y0364000D01*
X0158833Y0364000D01*
X0158833Y0359011D01*
X0159621Y0359135D01*
X0160445Y0359403D01*
X0161216Y0359796D01*
X0161916Y0360305D01*
X0162528Y0360917D01*
X0163037Y0361617D01*
X0163430Y0362389D01*
X0163698Y0363212D01*
X0163823Y0364000D01*
X0158833Y0364000D01*
X0158833Y0365000D01*
X0163823Y0365000D01*
X0163698Y0365788D01*
X0163430Y0366611D01*
X0163037Y0367383D01*
X0162528Y0368083D01*
X0161916Y0368695D01*
X0161216Y0369204D01*
X0160445Y0369597D01*
X0159622Y0369864D01*
X0161562Y0370668D01*
X0163166Y0372271D01*
X0164033Y0374366D01*
X0164033Y0376634D01*
X0163166Y0378729D01*
X0161562Y0380332D01*
X0159467Y0381200D01*
X0157200Y0381200D01*
X0155105Y0380332D01*
X0153501Y0378729D01*
X0153116Y0377800D01*
X0137881Y0377800D01*
X0136533Y0376453D01*
X0125633Y0365553D01*
X0125633Y0380953D01*
X0120633Y0385953D01*
X0119286Y0387300D01*
X0080774Y0387300D01*
X0081845Y0387744D01*
X0083589Y0389488D01*
X0084533Y0391767D01*
X0084533Y0394233D01*
X0083589Y0396512D01*
X0081845Y0398256D01*
X0079567Y0399200D01*
X0077100Y0399200D01*
X0074821Y0398256D01*
X0073077Y0396512D01*
X0072133Y0394233D01*
X0072133Y0391767D01*
X0073077Y0389488D01*
X0074821Y0387744D01*
X0075893Y0387300D01*
X0022381Y0387300D01*
X0017381Y0382300D01*
X0016033Y0380953D01*
X0016033Y0309047D01*
X0034874Y0290207D01*
X0034407Y0290400D01*
X0032259Y0290400D01*
X0030274Y0289578D01*
X0028755Y0288059D01*
X0028441Y0287300D01*
X0022381Y0287300D01*
X0017381Y0282300D01*
X0016033Y0280953D01*
X0016033Y0081291D01*
X0022060Y0075265D01*
X0021925Y0074940D02*
X0015433Y0074940D01*
X0015433Y0073942D02*
X0021574Y0073942D01*
X0021574Y0072943D02*
X0015433Y0072943D01*
X0015433Y0071945D02*
X0021574Y0071945D01*
X0021868Y0070946D02*
X0015433Y0070946D01*
X0015433Y0069948D02*
X0022281Y0069948D01*
X0022960Y0068949D02*
X0015433Y0068949D01*
X0015433Y0067951D02*
X0023959Y0067951D01*
X0025983Y0066952D02*
X0015433Y0066952D01*
X0015433Y0065954D02*
X0381133Y0065954D01*
X0381133Y0066952D02*
X0199477Y0066952D01*
X0199463Y0066952D02*
X0198463Y0066952D01*
X0198463Y0066950D02*
X0198463Y0072374D01*
X0193039Y0072374D01*
X0193180Y0071486D01*
X0193469Y0070598D01*
X0193892Y0069766D01*
X0194441Y0069011D01*
X0195101Y0068352D01*
X0195856Y0067803D01*
X0196687Y0067379D01*
X0197575Y0067091D01*
X0198463Y0066950D01*
X0198449Y0066952D02*
X0029423Y0066952D01*
X0033833Y0072300D02*
X0033833Y0074093D01*
X0032899Y0076346D01*
X0031175Y0078070D01*
X0028923Y0079003D01*
X0026484Y0079003D01*
X0025312Y0078518D01*
X0020633Y0083197D01*
X0020633Y0264967D01*
X0021237Y0264363D01*
X0022597Y0263800D01*
X0024022Y0263800D01*
X0022422Y0262200D01*
X0021133Y0260911D01*
X0021133Y0189089D01*
X0026133Y0184089D01*
X0026133Y0184089D01*
X0027422Y0182800D01*
X0027422Y0182800D01*
X0033289Y0176933D01*
X0032933Y0176074D01*
X0032933Y0173926D01*
X0033755Y0171941D01*
X0035274Y0170422D01*
X0036133Y0170066D01*
X0036133Y0159934D01*
X0035274Y0159578D01*
X0033755Y0158059D01*
X0032933Y0156074D01*
X0032933Y0153926D01*
X0033755Y0151941D01*
X0035274Y0150422D01*
X0036133Y0150066D01*
X0036133Y0139934D01*
X0035274Y0139578D01*
X0033755Y0138059D01*
X0032933Y0136074D01*
X0032933Y0133926D01*
X0033755Y0131941D01*
X0035274Y0130422D01*
X0036133Y0130066D01*
X0036133Y0119934D01*
X0035274Y0119578D01*
X0033755Y0118059D01*
X0032933Y0116074D01*
X0032933Y0113926D01*
X0033755Y0111941D01*
X0035274Y0110422D01*
X0036133Y0110066D01*
X0036133Y0099934D01*
X0035274Y0099578D01*
X0033755Y0098059D01*
X0032933Y0096074D01*
X0032933Y0093926D01*
X0033755Y0091941D01*
X0035274Y0090422D01*
X0037259Y0089600D01*
X0039407Y0089600D01*
X0041392Y0090422D01*
X0042911Y0091941D01*
X0043733Y0093926D01*
X0043733Y0096074D01*
X0042911Y0098059D01*
X0041392Y0099578D01*
X0040533Y0099934D01*
X0040533Y0110066D01*
X0041392Y0110422D01*
X0042911Y0111941D01*
X0043733Y0113926D01*
X0043733Y0116074D01*
X0042911Y0118059D01*
X0041392Y0119578D01*
X0040533Y0119934D01*
X0040533Y0130066D01*
X0041392Y0130422D01*
X0042911Y0131941D01*
X0043733Y0133926D01*
X0043733Y0136074D01*
X0042911Y0138059D01*
X0041392Y0139578D01*
X0040533Y0139934D01*
X0040533Y0150066D01*
X0041392Y0150422D01*
X0042911Y0151941D01*
X0043733Y0153926D01*
X0043733Y0156074D01*
X0042911Y0158059D01*
X0041392Y0159578D01*
X0040533Y0159934D01*
X0040533Y0170066D01*
X0041392Y0170422D01*
X0042911Y0171941D01*
X0043733Y0173926D01*
X0043733Y0176074D01*
X0042911Y0178059D01*
X0041392Y0179578D01*
X0039407Y0180400D01*
X0037259Y0180400D01*
X0036400Y0180044D01*
X0033645Y0182800D01*
X0064245Y0182800D01*
X0065533Y0184089D01*
X0144245Y0262800D01*
X0198400Y0262800D01*
X0198755Y0261941D01*
X0200274Y0260422D01*
X0201294Y0260000D01*
X0200274Y0259578D01*
X0198755Y0258059D01*
X0197933Y0256074D01*
X0197933Y0253926D01*
X0198755Y0251941D01*
X0200274Y0250422D01*
X0201294Y0250000D01*
X0200274Y0249578D01*
X0198755Y0248059D01*
X0197933Y0246074D01*
X0197933Y0243926D01*
X0198755Y0241941D01*
X0200274Y0240422D01*
X0201294Y0240000D01*
X0200274Y0239578D01*
X0198755Y0238059D01*
X0197933Y0236074D01*
X0197933Y0233926D01*
X0198755Y0231941D01*
X0200274Y0230422D01*
X0201294Y0230000D01*
X0200274Y0229578D01*
X0198755Y0228059D01*
X0197933Y0226074D01*
X0197933Y0223926D01*
X0198755Y0221941D01*
X0200274Y0220422D01*
X0201294Y0220000D01*
X0200274Y0219578D01*
X0198755Y0218059D01*
X0197933Y0216074D01*
X0197933Y0213926D01*
X0198755Y0211941D01*
X0200274Y0210422D01*
X0201294Y0210000D01*
X0200274Y0209578D01*
X0198755Y0208059D01*
X0197933Y0206074D01*
X0197933Y0203926D01*
X0198755Y0201941D01*
X0200274Y0200422D01*
X0201294Y0200000D01*
X0200274Y0199578D01*
X0198755Y0198059D01*
X0197933Y0196074D01*
X0197933Y0193926D01*
X0198755Y0191941D01*
X0200274Y0190422D01*
X0202259Y0189600D01*
X0204407Y0189600D01*
X0206392Y0190422D01*
X0207911Y0191941D01*
X0208333Y0192960D01*
X0208755Y0191941D01*
X0210274Y0190422D01*
X0212259Y0189600D01*
X0214407Y0189600D01*
X0216392Y0190422D01*
X0217911Y0191941D01*
X0218267Y0192800D01*
X0255301Y0192800D01*
X0256237Y0191863D01*
X0257597Y0191300D01*
X0259069Y0191300D01*
X0260429Y0191863D01*
X0261470Y0192904D01*
X0262033Y0194264D01*
X0262033Y0195736D01*
X0261470Y0197096D01*
X0260429Y0198137D01*
X0259069Y0198700D01*
X0257597Y0198700D01*
X0256237Y0198137D01*
X0255301Y0197200D01*
X0218267Y0197200D01*
X0217911Y0198059D01*
X0216392Y0199578D01*
X0215373Y0200000D01*
X0216392Y0200422D01*
X0217911Y0201941D01*
X0218267Y0202800D01*
X0262422Y0202800D01*
X0301133Y0164089D01*
X0301133Y0159934D01*
X0300274Y0159578D01*
X0298755Y0158059D01*
X0298224Y0156776D01*
X0298152Y0156996D01*
X0297781Y0157725D01*
X0297300Y0158388D01*
X0296721Y0158966D01*
X0296059Y0159447D01*
X0295329Y0159819D01*
X0294551Y0160072D01*
X0293833Y0160186D01*
X0293833Y0155500D01*
X0292833Y0155500D01*
X0292833Y0160186D01*
X0292116Y0160072D01*
X0291337Y0159819D01*
X0290608Y0159447D01*
X0289946Y0158966D01*
X0289367Y0158388D01*
X0288886Y0157725D01*
X0288514Y0156996D01*
X0288443Y0156776D01*
X0287911Y0158059D01*
X0286392Y0159578D01*
X0285633Y0159892D01*
X0285633Y0160953D01*
X0280633Y0165953D01*
X0279286Y0167300D01*
X0247381Y0167300D01*
X0242381Y0162300D01*
X0241033Y0160953D01*
X0241033Y0149047D01*
X0241033Y0095953D01*
X0241033Y0094047D01*
X0247781Y0087300D01*
X0062381Y0087300D01*
X0047381Y0072300D01*
X0033833Y0072300D01*
X0033833Y0072943D02*
X0048024Y0072943D01*
X0049023Y0073942D02*
X0033833Y0073942D01*
X0033482Y0074940D02*
X0050021Y0074940D01*
X0051020Y0075939D02*
X0033068Y0075939D01*
X0032308Y0076937D02*
X0052018Y0076937D01*
X0053017Y0077936D02*
X0031309Y0077936D01*
X0029088Y0078934D02*
X0054015Y0078934D01*
X0055014Y0079933D02*
X0023897Y0079933D01*
X0022899Y0080932D02*
X0056012Y0080932D01*
X0057011Y0081930D02*
X0021900Y0081930D01*
X0020902Y0082929D02*
X0058009Y0082929D01*
X0059008Y0083927D02*
X0020633Y0083927D01*
X0020633Y0084926D02*
X0060006Y0084926D01*
X0061005Y0085924D02*
X0020633Y0085924D01*
X0020633Y0086923D02*
X0062003Y0086923D01*
X0065274Y0090422D02*
X0063755Y0091941D01*
X0062933Y0093926D01*
X0062933Y0096074D01*
X0063755Y0098059D01*
X0065274Y0099578D01*
X0066133Y0099934D01*
X0066133Y0110066D01*
X0065274Y0110422D01*
X0063755Y0111941D01*
X0062933Y0113926D01*
X0062933Y0116074D01*
X0063755Y0118059D01*
X0065274Y0119578D01*
X0066133Y0119934D01*
X0066133Y0130066D01*
X0065274Y0130422D01*
X0063755Y0131941D01*
X0062933Y0133926D01*
X0062933Y0136074D01*
X0063755Y0138059D01*
X0065274Y0139578D01*
X0067259Y0140400D01*
X0069407Y0140400D01*
X0071392Y0139578D01*
X0072911Y0138059D01*
X0073267Y0137200D01*
X0092422Y0137200D01*
X0108289Y0153067D01*
X0107933Y0153926D01*
X0107933Y0156074D01*
X0108289Y0156933D01*
X0092422Y0172800D01*
X0073267Y0172800D01*
X0072911Y0171941D01*
X0071392Y0170422D01*
X0069407Y0169600D01*
X0067259Y0169600D01*
X0065274Y0170422D01*
X0063755Y0171941D01*
X0062933Y0173926D01*
X0062933Y0176074D01*
X0063755Y0178059D01*
X0065274Y0179578D01*
X0067259Y0180400D01*
X0069407Y0180400D01*
X0071392Y0179578D01*
X0072911Y0178059D01*
X0073267Y0177200D01*
X0094245Y0177200D01*
X0111400Y0160044D01*
X0112259Y0160400D01*
X0114407Y0160400D01*
X0116392Y0159578D01*
X0117911Y0158059D01*
X0118267Y0157200D01*
X0139245Y0157200D01*
X0179245Y0117200D01*
X0185821Y0117200D01*
X0186130Y0117946D01*
X0187592Y0119408D01*
X0189504Y0120200D01*
X0191572Y0120200D01*
X0193484Y0119408D01*
X0194946Y0117946D01*
X0195738Y0116034D01*
X0195738Y0113966D01*
X0194946Y0112054D01*
X0193484Y0110592D01*
X0191572Y0109800D01*
X0189504Y0109800D01*
X0187592Y0110592D01*
X0186130Y0112054D01*
X0185821Y0112800D01*
X0177422Y0112800D01*
X0176133Y0114089D01*
X0176133Y0114089D01*
X0137422Y0152800D01*
X0118267Y0152800D01*
X0117911Y0151941D01*
X0116392Y0150422D01*
X0114407Y0149600D01*
X0112259Y0149600D01*
X0111400Y0149956D01*
X0094245Y0132800D01*
X0073267Y0132800D01*
X0072911Y0131941D01*
X0071392Y0130422D01*
X0070533Y0130066D01*
X0070533Y0119934D01*
X0071392Y0119578D01*
X0072911Y0118059D01*
X0073733Y0116074D01*
X0073733Y0113926D01*
X0072911Y0111941D01*
X0071392Y0110422D01*
X0070533Y0110066D01*
X0070533Y0099934D01*
X0071392Y0099578D01*
X0072911Y0098059D01*
X0073733Y0096074D01*
X0073733Y0093926D01*
X0072911Y0091941D01*
X0071392Y0090422D01*
X0069407Y0089600D01*
X0067259Y0089600D01*
X0065274Y0090422D01*
X0064780Y0090917D02*
X0041887Y0090917D01*
X0042885Y0091915D02*
X0063781Y0091915D01*
X0063353Y0092914D02*
X0043314Y0092914D01*
X0043728Y0093912D02*
X0062939Y0093912D01*
X0062933Y0094911D02*
X0043733Y0094911D01*
X0043733Y0095909D02*
X0062933Y0095909D01*
X0063279Y0096908D02*
X0043388Y0096908D01*
X0042974Y0097906D02*
X0063692Y0097906D01*
X0064601Y0098905D02*
X0042065Y0098905D01*
X0040607Y0099903D02*
X0066060Y0099903D01*
X0066133Y0100902D02*
X0040533Y0100902D01*
X0040533Y0101900D02*
X0066133Y0101900D01*
X0066133Y0102899D02*
X0040533Y0102899D01*
X0040533Y0103897D02*
X0066133Y0103897D01*
X0066133Y0104896D02*
X0040533Y0104896D01*
X0040533Y0105894D02*
X0066133Y0105894D01*
X0066133Y0106893D02*
X0040533Y0106893D01*
X0040533Y0107891D02*
X0066133Y0107891D01*
X0066133Y0108890D02*
X0040533Y0108890D01*
X0040533Y0109888D02*
X0066133Y0109888D01*
X0064810Y0110887D02*
X0041857Y0110887D01*
X0042855Y0111885D02*
X0063811Y0111885D01*
X0063365Y0112884D02*
X0043302Y0112884D01*
X0043715Y0113882D02*
X0062951Y0113882D01*
X0062933Y0114881D02*
X0043733Y0114881D01*
X0043733Y0115879D02*
X0062933Y0115879D01*
X0063266Y0116878D02*
X0043400Y0116878D01*
X0042987Y0117876D02*
X0063680Y0117876D01*
X0064572Y0118875D02*
X0042095Y0118875D01*
X0040679Y0119873D02*
X0065988Y0119873D01*
X0066133Y0120872D02*
X0040533Y0120872D01*
X0040533Y0121870D02*
X0066133Y0121870D01*
X0066133Y0122869D02*
X0040533Y0122869D01*
X0040533Y0123868D02*
X0066133Y0123868D01*
X0066133Y0124866D02*
X0040533Y0124866D01*
X0040533Y0125865D02*
X0066133Y0125865D01*
X0066133Y0126863D02*
X0040533Y0126863D01*
X0040533Y0127862D02*
X0066133Y0127862D01*
X0066133Y0128860D02*
X0040533Y0128860D01*
X0040533Y0129859D02*
X0066133Y0129859D01*
X0064839Y0130857D02*
X0041827Y0130857D01*
X0042826Y0131856D02*
X0063841Y0131856D01*
X0063377Y0132854D02*
X0043289Y0132854D01*
X0043703Y0133853D02*
X0062964Y0133853D01*
X0062933Y0134851D02*
X0043733Y0134851D01*
X0043733Y0135850D02*
X0062933Y0135850D01*
X0063254Y0136848D02*
X0043413Y0136848D01*
X0042999Y0137847D02*
X0063668Y0137847D01*
X0064542Y0138845D02*
X0042125Y0138845D01*
X0040750Y0139844D02*
X0065916Y0139844D01*
X0070750Y0139844D02*
X0095066Y0139844D01*
X0096064Y0140842D02*
X0040533Y0140842D01*
X0040533Y0141841D02*
X0097063Y0141841D01*
X0098061Y0142839D02*
X0040533Y0142839D01*
X0040533Y0143838D02*
X0099060Y0143838D01*
X0100058Y0144836D02*
X0040533Y0144836D01*
X0040533Y0145835D02*
X0101057Y0145835D01*
X0102055Y0146833D02*
X0040533Y0146833D01*
X0040533Y0147832D02*
X0103054Y0147832D01*
X0104052Y0148830D02*
X0040533Y0148830D01*
X0040533Y0149829D02*
X0066707Y0149829D01*
X0067259Y0149600D02*
X0069407Y0149600D01*
X0071392Y0150422D01*
X0072911Y0151941D01*
X0073267Y0152800D01*
X0078400Y0152800D01*
X0078755Y0151941D01*
X0080274Y0150422D01*
X0082259Y0149600D01*
X0084407Y0149600D01*
X0086392Y0150422D01*
X0087911Y0151941D01*
X0088733Y0153926D01*
X0088733Y0156074D01*
X0087911Y0158059D01*
X0086392Y0159578D01*
X0084407Y0160400D01*
X0082259Y0160400D01*
X0080274Y0159578D01*
X0078755Y0158059D01*
X0078400Y0157200D01*
X0073267Y0157200D01*
X0072911Y0158059D01*
X0071392Y0159578D01*
X0069407Y0160400D01*
X0067259Y0160400D01*
X0065274Y0159578D01*
X0063755Y0158059D01*
X0062933Y0156074D01*
X0062933Y0153926D01*
X0063755Y0151941D01*
X0065274Y0150422D01*
X0067259Y0149600D01*
X0064869Y0150827D02*
X0041797Y0150827D01*
X0042796Y0151826D02*
X0063871Y0151826D01*
X0063390Y0152824D02*
X0043277Y0152824D01*
X0043691Y0153823D02*
X0062976Y0153823D01*
X0062933Y0154821D02*
X0043733Y0154821D01*
X0043733Y0155820D02*
X0062933Y0155820D01*
X0063242Y0156818D02*
X0043425Y0156818D01*
X0043011Y0157817D02*
X0063655Y0157817D01*
X0064512Y0158815D02*
X0042155Y0158815D01*
X0040822Y0159814D02*
X0065844Y0159814D01*
X0070822Y0159814D02*
X0080844Y0159814D01*
X0079512Y0158815D02*
X0072155Y0158815D01*
X0073011Y0157817D02*
X0078655Y0157817D01*
X0083333Y0155000D02*
X0068333Y0155000D01*
X0069960Y0149829D02*
X0081707Y0149829D01*
X0079869Y0150827D02*
X0071797Y0150827D01*
X0072796Y0151826D02*
X0078871Y0151826D01*
X0084960Y0149829D02*
X0105051Y0149829D01*
X0106049Y0150827D02*
X0086797Y0150827D01*
X0087796Y0151826D02*
X0107048Y0151826D01*
X0108046Y0152824D02*
X0088277Y0152824D01*
X0088691Y0153823D02*
X0107976Y0153823D01*
X0107933Y0154821D02*
X0088733Y0154821D01*
X0088733Y0155820D02*
X0107933Y0155820D01*
X0108242Y0156818D02*
X0088425Y0156818D01*
X0088011Y0157817D02*
X0107405Y0157817D01*
X0106407Y0158815D02*
X0087155Y0158815D01*
X0085822Y0159814D02*
X0105408Y0159814D01*
X0104410Y0160812D02*
X0040533Y0160812D01*
X0040533Y0161811D02*
X0103411Y0161811D01*
X0102413Y0162809D02*
X0040533Y0162809D01*
X0040533Y0163808D02*
X0101414Y0163808D01*
X0100416Y0164806D02*
X0040533Y0164806D01*
X0040533Y0165805D02*
X0099417Y0165805D01*
X0098419Y0166803D02*
X0040533Y0166803D01*
X0040533Y0167802D02*
X0097420Y0167802D01*
X0096422Y0168801D02*
X0040533Y0168801D01*
X0040533Y0169799D02*
X0066779Y0169799D01*
X0064899Y0170798D02*
X0041768Y0170798D01*
X0042766Y0171796D02*
X0063901Y0171796D01*
X0063402Y0172795D02*
X0043265Y0172795D01*
X0043678Y0173793D02*
X0062988Y0173793D01*
X0062933Y0174792D02*
X0043733Y0174792D01*
X0043733Y0175790D02*
X0062933Y0175790D01*
X0063229Y0176789D02*
X0043437Y0176789D01*
X0043024Y0177787D02*
X0063643Y0177787D01*
X0064482Y0178786D02*
X0042184Y0178786D01*
X0040894Y0179784D02*
X0065772Y0179784D01*
X0065223Y0183778D02*
X0281444Y0183778D01*
X0282442Y0182780D02*
X0033665Y0182780D01*
X0034663Y0181781D02*
X0283441Y0181781D01*
X0284439Y0180783D02*
X0035662Y0180783D01*
X0032435Y0177787D02*
X0020633Y0177787D01*
X0020633Y0176789D02*
X0033229Y0176789D01*
X0032933Y0175790D02*
X0020633Y0175790D01*
X0020633Y0174792D02*
X0032933Y0174792D01*
X0032988Y0173793D02*
X0020633Y0173793D01*
X0020633Y0172795D02*
X0033402Y0172795D01*
X0033901Y0171796D02*
X0020633Y0171796D01*
X0020633Y0170798D02*
X0034899Y0170798D01*
X0036133Y0169799D02*
X0020633Y0169799D01*
X0020633Y0168801D02*
X0036133Y0168801D01*
X0036133Y0167802D02*
X0020633Y0167802D01*
X0020633Y0166803D02*
X0036133Y0166803D01*
X0036133Y0165805D02*
X0020633Y0165805D01*
X0020633Y0164806D02*
X0036133Y0164806D01*
X0036133Y0163808D02*
X0020633Y0163808D01*
X0020633Y0162809D02*
X0036133Y0162809D01*
X0036133Y0161811D02*
X0020633Y0161811D01*
X0020633Y0160812D02*
X0036133Y0160812D01*
X0035844Y0159814D02*
X0020633Y0159814D01*
X0020633Y0158815D02*
X0034512Y0158815D01*
X0033655Y0157817D02*
X0020633Y0157817D01*
X0020633Y0156818D02*
X0033242Y0156818D01*
X0032933Y0155820D02*
X0020633Y0155820D01*
X0020633Y0154821D02*
X0032933Y0154821D01*
X0032976Y0153823D02*
X0020633Y0153823D01*
X0020633Y0152824D02*
X0033390Y0152824D01*
X0033871Y0151826D02*
X0020633Y0151826D01*
X0020633Y0150827D02*
X0034869Y0150827D01*
X0036133Y0149829D02*
X0020633Y0149829D01*
X0020633Y0148830D02*
X0036133Y0148830D01*
X0036133Y0147832D02*
X0020633Y0147832D01*
X0020633Y0146833D02*
X0036133Y0146833D01*
X0036133Y0145835D02*
X0020633Y0145835D01*
X0020633Y0144836D02*
X0036133Y0144836D01*
X0036133Y0143838D02*
X0020633Y0143838D01*
X0020633Y0142839D02*
X0036133Y0142839D01*
X0036133Y0141841D02*
X0020633Y0141841D01*
X0020633Y0140842D02*
X0036133Y0140842D01*
X0035916Y0139844D02*
X0020633Y0139844D01*
X0020633Y0138845D02*
X0034542Y0138845D01*
X0033668Y0137847D02*
X0020633Y0137847D01*
X0020633Y0136848D02*
X0033254Y0136848D01*
X0032933Y0135850D02*
X0020633Y0135850D01*
X0020633Y0134851D02*
X0032933Y0134851D01*
X0032964Y0133853D02*
X0020633Y0133853D01*
X0020633Y0132854D02*
X0033377Y0132854D01*
X0033841Y0131856D02*
X0020633Y0131856D01*
X0020633Y0130857D02*
X0034839Y0130857D01*
X0036133Y0129859D02*
X0020633Y0129859D01*
X0020633Y0128860D02*
X0036133Y0128860D01*
X0036133Y0127862D02*
X0020633Y0127862D01*
X0020633Y0126863D02*
X0036133Y0126863D01*
X0036133Y0125865D02*
X0020633Y0125865D01*
X0020633Y0124866D02*
X0036133Y0124866D01*
X0036133Y0123868D02*
X0020633Y0123868D01*
X0020633Y0122869D02*
X0036133Y0122869D01*
X0036133Y0121870D02*
X0020633Y0121870D01*
X0020633Y0120872D02*
X0036133Y0120872D01*
X0035988Y0119873D02*
X0020633Y0119873D01*
X0020633Y0118875D02*
X0034572Y0118875D01*
X0033680Y0117876D02*
X0020633Y0117876D01*
X0020633Y0116878D02*
X0033266Y0116878D01*
X0032933Y0115879D02*
X0020633Y0115879D01*
X0020633Y0114881D02*
X0032933Y0114881D01*
X0032951Y0113882D02*
X0020633Y0113882D01*
X0020633Y0112884D02*
X0033365Y0112884D01*
X0033811Y0111885D02*
X0020633Y0111885D01*
X0020633Y0110887D02*
X0034810Y0110887D01*
X0036133Y0109888D02*
X0020633Y0109888D01*
X0020633Y0108890D02*
X0036133Y0108890D01*
X0036133Y0107891D02*
X0020633Y0107891D01*
X0020633Y0106893D02*
X0036133Y0106893D01*
X0036133Y0105894D02*
X0020633Y0105894D01*
X0020633Y0104896D02*
X0036133Y0104896D01*
X0036133Y0103897D02*
X0020633Y0103897D01*
X0020633Y0102899D02*
X0036133Y0102899D01*
X0036133Y0101900D02*
X0020633Y0101900D01*
X0020633Y0100902D02*
X0036133Y0100902D01*
X0036060Y0099903D02*
X0020633Y0099903D01*
X0020633Y0098905D02*
X0034601Y0098905D01*
X0033692Y0097906D02*
X0020633Y0097906D01*
X0020633Y0096908D02*
X0033279Y0096908D01*
X0032933Y0095909D02*
X0020633Y0095909D01*
X0020633Y0094911D02*
X0032933Y0094911D01*
X0032939Y0093912D02*
X0020633Y0093912D01*
X0020633Y0092914D02*
X0033353Y0092914D01*
X0033781Y0091915D02*
X0020633Y0091915D01*
X0020633Y0090917D02*
X0034780Y0090917D01*
X0036491Y0089918D02*
X0020633Y0089918D01*
X0020633Y0088920D02*
X0246161Y0088920D01*
X0245163Y0089918D02*
X0070175Y0089918D01*
X0071887Y0090917D02*
X0244164Y0090917D01*
X0243165Y0091915D02*
X0072885Y0091915D01*
X0073314Y0092914D02*
X0242167Y0092914D01*
X0241168Y0093912D02*
X0073728Y0093912D01*
X0073733Y0094911D02*
X0241033Y0094911D01*
X0241033Y0095909D02*
X0073733Y0095909D01*
X0073388Y0096908D02*
X0241033Y0096908D01*
X0241033Y0097906D02*
X0072974Y0097906D01*
X0072065Y0098905D02*
X0241033Y0098905D01*
X0241033Y0099903D02*
X0070607Y0099903D01*
X0070533Y0100902D02*
X0241033Y0100902D01*
X0241033Y0101900D02*
X0070533Y0101900D01*
X0070533Y0102899D02*
X0241033Y0102899D01*
X0241033Y0103897D02*
X0070533Y0103897D01*
X0070533Y0104896D02*
X0241033Y0104896D01*
X0241033Y0105894D02*
X0070533Y0105894D01*
X0070533Y0106893D02*
X0241033Y0106893D01*
X0241033Y0107891D02*
X0070533Y0107891D01*
X0070533Y0108890D02*
X0241033Y0108890D01*
X0241033Y0109888D02*
X0191786Y0109888D01*
X0193779Y0110887D02*
X0213283Y0110887D01*
X0213508Y0110724D02*
X0214209Y0110366D01*
X0214958Y0110123D01*
X0215735Y0110000D01*
X0215743Y0110000D01*
X0215743Y0114614D01*
X0216514Y0114614D01*
X0216514Y0110000D01*
X0216522Y0110000D01*
X0217299Y0110123D01*
X0218048Y0110366D01*
X0218749Y0110724D01*
X0219386Y0111186D01*
X0219942Y0111743D01*
X0220405Y0112379D01*
X0220762Y0113081D01*
X0221005Y0113829D01*
X0221129Y0114606D01*
X0221129Y0114614D01*
X0216515Y0114614D01*
X0216515Y0115386D01*
X0221129Y0115386D01*
X0221129Y0115394D01*
X0221005Y0116171D01*
X0220762Y0116919D01*
X0220405Y0117621D01*
X0219942Y0118257D01*
X0219386Y0118814D01*
X0218749Y0119276D01*
X0218048Y0119634D01*
X0217299Y0119877D01*
X0216522Y0120000D01*
X0216514Y0120000D01*
X0216514Y0115386D01*
X0215743Y0115386D01*
X0215743Y0120000D01*
X0215735Y0120000D01*
X0214958Y0119877D01*
X0214209Y0119634D01*
X0213508Y0119276D01*
X0212871Y0118814D01*
X0212315Y0118257D01*
X0211852Y0117621D01*
X0211495Y0116919D01*
X0211252Y0116171D01*
X0211129Y0115394D01*
X0211129Y0115386D01*
X0215743Y0115386D01*
X0215743Y0114614D01*
X0211129Y0114614D01*
X0211129Y0114606D01*
X0211252Y0113829D01*
X0211495Y0113081D01*
X0211852Y0112379D01*
X0212315Y0111743D01*
X0212871Y0111186D01*
X0213508Y0110724D01*
X0212211Y0111885D02*
X0194777Y0111885D01*
X0195290Y0112884D02*
X0211595Y0112884D01*
X0211243Y0113882D02*
X0195704Y0113882D01*
X0195738Y0114881D02*
X0215743Y0114881D01*
X0216515Y0114881D02*
X0241033Y0114881D01*
X0241033Y0115879D02*
X0221052Y0115879D01*
X0220776Y0116878D02*
X0241033Y0116878D01*
X0241033Y0117876D02*
X0220219Y0117876D01*
X0219302Y0118875D02*
X0241033Y0118875D01*
X0241033Y0119873D02*
X0217310Y0119873D01*
X0216514Y0119873D02*
X0215743Y0119873D01*
X0214947Y0119873D02*
X0192361Y0119873D01*
X0194017Y0118875D02*
X0212956Y0118875D01*
X0212038Y0117876D02*
X0194975Y0117876D01*
X0195389Y0116878D02*
X0211481Y0116878D01*
X0211206Y0115879D02*
X0195738Y0115879D01*
X0190538Y0115000D02*
X0178333Y0115000D01*
X0138333Y0155000D01*
X0113333Y0155000D01*
X0093333Y0135000D01*
X0068333Y0135000D01*
X0068333Y0115000D01*
X0068333Y0095000D01*
X0066491Y0089918D02*
X0040175Y0089918D01*
X0038333Y0095000D02*
X0038333Y0115000D01*
X0038333Y0135000D01*
X0038333Y0155000D01*
X0038333Y0175000D01*
X0028333Y0185000D01*
X0063333Y0185000D01*
X0143333Y0265000D01*
X0203333Y0265000D01*
X0213333Y0275000D01*
X0215373Y0270000D02*
X0216392Y0270422D01*
X0217911Y0271941D01*
X0218733Y0273926D01*
X0218733Y0276074D01*
X0217911Y0278059D01*
X0216392Y0279578D01*
X0215109Y0280109D01*
X0215329Y0280181D01*
X0216059Y0280553D01*
X0216721Y0281034D01*
X0217300Y0281612D01*
X0217781Y0282275D01*
X0218152Y0283004D01*
X0218405Y0283782D01*
X0218519Y0284500D01*
X0213833Y0284500D01*
X0213833Y0285500D01*
X0212833Y0285500D01*
X0212833Y0290186D01*
X0212116Y0290072D01*
X0211337Y0289819D01*
X0210608Y0289447D01*
X0209946Y0288966D01*
X0209367Y0288388D01*
X0208886Y0287725D01*
X0208514Y0286996D01*
X0208443Y0286776D01*
X0207911Y0288059D01*
X0206392Y0289578D01*
X0204407Y0290400D01*
X0202259Y0290400D01*
X0200274Y0289578D01*
X0198755Y0288059D01*
X0197933Y0286074D01*
X0197933Y0283926D01*
X0198755Y0281941D01*
X0200274Y0280422D01*
X0201294Y0280000D01*
X0200274Y0279578D01*
X0198755Y0278059D01*
X0197933Y0276074D01*
X0197933Y0273926D01*
X0198755Y0271941D01*
X0200274Y0270422D01*
X0201294Y0270000D01*
X0200274Y0269578D01*
X0198755Y0268059D01*
X0198400Y0267200D01*
X0143645Y0267200D01*
X0199245Y0322800D01*
X0307422Y0322800D01*
X0310536Y0319686D01*
X0310274Y0319578D01*
X0308755Y0318059D01*
X0308333Y0317040D01*
X0307911Y0318059D01*
X0306392Y0319578D01*
X0304407Y0320400D01*
X0302259Y0320400D01*
X0300274Y0319578D01*
X0298755Y0318059D01*
X0298224Y0316776D01*
X0298152Y0316996D01*
X0297781Y0317725D01*
X0297300Y0318388D01*
X0296721Y0318966D01*
X0296059Y0319447D01*
X0295329Y0319819D01*
X0294551Y0320072D01*
X0293833Y0320186D01*
X0293833Y0315500D01*
X0292833Y0315500D01*
X0292833Y0320186D01*
X0292116Y0320072D01*
X0291337Y0319819D01*
X0290608Y0319447D01*
X0289946Y0318966D01*
X0289367Y0318388D01*
X0288886Y0317725D01*
X0288514Y0316996D01*
X0288443Y0316776D01*
X0287911Y0318059D01*
X0286392Y0319578D01*
X0284407Y0320400D01*
X0282259Y0320400D01*
X0280274Y0319578D01*
X0278755Y0318059D01*
X0277933Y0316074D01*
X0277933Y0313926D01*
X0278755Y0311941D01*
X0280274Y0310422D01*
X0282259Y0309600D01*
X0284407Y0309600D01*
X0286392Y0310422D01*
X0287911Y0311941D01*
X0288443Y0313224D01*
X0288514Y0313004D01*
X0288886Y0312275D01*
X0289367Y0311612D01*
X0289946Y0311034D01*
X0290608Y0310553D01*
X0291337Y0310181D01*
X0292116Y0309928D01*
X0292833Y0309814D01*
X0292833Y0314500D01*
X0293833Y0314500D01*
X0293833Y0309814D01*
X0294551Y0309928D01*
X0295329Y0310181D01*
X0296059Y0310553D01*
X0296721Y0311034D01*
X0297300Y0311612D01*
X0297781Y0312275D01*
X0298152Y0313004D01*
X0298224Y0313224D01*
X0298755Y0311941D01*
X0300274Y0310422D01*
X0301133Y0310066D01*
X0301133Y0280911D01*
X0286133Y0265911D01*
X0286133Y0215911D01*
X0277422Y0207200D01*
X0218267Y0207200D01*
X0217911Y0208059D01*
X0216392Y0209578D01*
X0215373Y0210000D01*
X0216392Y0210422D01*
X0217911Y0211941D01*
X0218733Y0213926D01*
X0218733Y0216074D01*
X0217911Y0218059D01*
X0216392Y0219578D01*
X0215373Y0220000D01*
X0216392Y0220422D01*
X0217911Y0221941D01*
X0218733Y0223926D01*
X0218733Y0226074D01*
X0217911Y0228059D01*
X0216392Y0229578D01*
X0215373Y0230000D01*
X0216392Y0230422D01*
X0217911Y0231941D01*
X0218733Y0233926D01*
X0218733Y0236074D01*
X0217911Y0238059D01*
X0216392Y0239578D01*
X0215373Y0240000D01*
X0216392Y0240422D01*
X0217911Y0241941D01*
X0218733Y0243926D01*
X0218733Y0246074D01*
X0217911Y0248059D01*
X0216392Y0249578D01*
X0215373Y0250000D01*
X0216392Y0250422D01*
X0217911Y0251941D01*
X0218733Y0253926D01*
X0218733Y0256074D01*
X0217911Y0258059D01*
X0216392Y0259578D01*
X0215373Y0260000D01*
X0216392Y0260422D01*
X0217911Y0261941D01*
X0218733Y0263926D01*
X0218733Y0266074D01*
X0217911Y0268059D01*
X0216392Y0269578D01*
X0215373Y0270000D01*
X0216218Y0269650D02*
X0289872Y0269650D01*
X0288874Y0268652D02*
X0217318Y0268652D01*
X0218079Y0267653D02*
X0287875Y0267653D01*
X0286877Y0266655D02*
X0218493Y0266655D01*
X0218733Y0265656D02*
X0286133Y0265656D01*
X0286133Y0264658D02*
X0218733Y0264658D01*
X0218623Y0263659D02*
X0286133Y0263659D01*
X0286133Y0262661D02*
X0218209Y0262661D01*
X0217632Y0261662D02*
X0286133Y0261662D01*
X0286133Y0260664D02*
X0216634Y0260664D01*
X0216182Y0259665D02*
X0286133Y0259665D01*
X0286133Y0258667D02*
X0217304Y0258667D01*
X0218073Y0257668D02*
X0286133Y0257668D01*
X0286133Y0256670D02*
X0218487Y0256670D01*
X0218733Y0255671D02*
X0286133Y0255671D01*
X0286133Y0254672D02*
X0218733Y0254672D01*
X0218629Y0253674D02*
X0286133Y0253674D01*
X0286133Y0252675D02*
X0218215Y0252675D01*
X0217647Y0251677D02*
X0286133Y0251677D01*
X0286133Y0250678D02*
X0216649Y0250678D01*
X0216146Y0249680D02*
X0286133Y0249680D01*
X0286133Y0248681D02*
X0217289Y0248681D01*
X0218067Y0247683D02*
X0286133Y0247683D01*
X0286133Y0246684D02*
X0218481Y0246684D01*
X0218733Y0245686D02*
X0286133Y0245686D01*
X0286133Y0244687D02*
X0218733Y0244687D01*
X0218635Y0243689D02*
X0286133Y0243689D01*
X0286133Y0242690D02*
X0218222Y0242690D01*
X0217662Y0241692D02*
X0286133Y0241692D01*
X0286133Y0240693D02*
X0216663Y0240693D01*
X0216110Y0239695D02*
X0286133Y0239695D01*
X0286133Y0238696D02*
X0217274Y0238696D01*
X0218061Y0237698D02*
X0286133Y0237698D01*
X0286133Y0236699D02*
X0218474Y0236699D01*
X0218733Y0235701D02*
X0286133Y0235701D01*
X0286133Y0234702D02*
X0218733Y0234702D01*
X0218641Y0233704D02*
X0286133Y0233704D01*
X0286133Y0232705D02*
X0218228Y0232705D01*
X0217677Y0231707D02*
X0286133Y0231707D01*
X0286133Y0230708D02*
X0216678Y0230708D01*
X0216074Y0229710D02*
X0286133Y0229710D01*
X0286133Y0228711D02*
X0217259Y0228711D01*
X0218055Y0227713D02*
X0286133Y0227713D01*
X0286133Y0226714D02*
X0218468Y0226714D01*
X0218733Y0225716D02*
X0286133Y0225716D01*
X0286133Y0224717D02*
X0218733Y0224717D01*
X0218647Y0223719D02*
X0286133Y0223719D01*
X0286133Y0222720D02*
X0218234Y0222720D01*
X0217692Y0221722D02*
X0286133Y0221722D01*
X0286133Y0220723D02*
X0216693Y0220723D01*
X0216038Y0219725D02*
X0286133Y0219725D01*
X0286133Y0218726D02*
X0217244Y0218726D01*
X0218048Y0217728D02*
X0286133Y0217728D01*
X0286133Y0216729D02*
X0218462Y0216729D01*
X0218733Y0215731D02*
X0285953Y0215731D01*
X0284954Y0214732D02*
X0218733Y0214732D01*
X0218654Y0213734D02*
X0283956Y0213734D01*
X0282957Y0212735D02*
X0218240Y0212735D01*
X0217707Y0211737D02*
X0281959Y0211737D01*
X0280960Y0210738D02*
X0216708Y0210738D01*
X0216002Y0209739D02*
X0279962Y0209739D01*
X0278963Y0208741D02*
X0217229Y0208741D01*
X0218042Y0207742D02*
X0277965Y0207742D01*
X0278333Y0205000D02*
X0288333Y0215000D01*
X0288333Y0265000D01*
X0303333Y0280000D01*
X0303333Y0315000D01*
X0299274Y0318577D02*
X0297110Y0318577D01*
X0297856Y0317579D02*
X0298557Y0317579D01*
X0300272Y0319576D02*
X0295807Y0319576D01*
X0293833Y0319576D02*
X0292833Y0319576D01*
X0292833Y0318577D02*
X0293833Y0318577D01*
X0293833Y0317579D02*
X0292833Y0317579D01*
X0292833Y0316580D02*
X0293833Y0316580D01*
X0293833Y0315582D02*
X0292833Y0315582D01*
X0292833Y0313585D02*
X0293833Y0313585D01*
X0293833Y0312586D02*
X0292833Y0312586D01*
X0292833Y0311588D02*
X0293833Y0311588D01*
X0293833Y0310589D02*
X0292833Y0310589D01*
X0290558Y0310589D02*
X0286559Y0310589D01*
X0287558Y0311588D02*
X0289392Y0311588D01*
X0288727Y0312586D02*
X0288178Y0312586D01*
X0296109Y0310589D02*
X0300107Y0310589D01*
X0299109Y0311588D02*
X0297275Y0311588D01*
X0297939Y0312586D02*
X0298488Y0312586D01*
X0301133Y0309591D02*
X0186035Y0309591D01*
X0187034Y0310589D02*
X0280107Y0310589D01*
X0279109Y0311588D02*
X0188032Y0311588D01*
X0189031Y0312586D02*
X0278488Y0312586D01*
X0278075Y0313585D02*
X0190029Y0313585D01*
X0191028Y0314583D02*
X0277933Y0314583D01*
X0277933Y0315582D02*
X0192026Y0315582D01*
X0193025Y0316580D02*
X0278143Y0316580D01*
X0278557Y0317579D02*
X0194023Y0317579D01*
X0195022Y0318577D02*
X0279274Y0318577D01*
X0280272Y0319576D02*
X0196020Y0319576D01*
X0197019Y0320574D02*
X0309648Y0320574D01*
X0310272Y0319576D02*
X0306394Y0319576D01*
X0307393Y0318577D02*
X0309274Y0318577D01*
X0308557Y0317579D02*
X0308110Y0317579D01*
X0308649Y0321573D02*
X0198017Y0321573D01*
X0199016Y0322571D02*
X0307651Y0322571D01*
X0308333Y0325000D02*
X0313333Y0320000D01*
X0313333Y0315000D01*
X0317393Y0318577D02*
X0319274Y0318577D01*
X0318557Y0317579D02*
X0318110Y0317579D01*
X0316394Y0319576D02*
X0320272Y0319576D01*
X0315533Y0320574D02*
X0331133Y0320574D01*
X0331795Y0321573D02*
X0314872Y0321573D01*
X0313873Y0322571D02*
X0332793Y0322571D01*
X0333792Y0323570D02*
X0312875Y0323570D01*
X0311876Y0324568D02*
X0334790Y0324568D01*
X0335789Y0325567D02*
X0310878Y0325567D01*
X0309879Y0326565D02*
X0336787Y0326565D01*
X0338333Y0325000D02*
X0333333Y0320000D01*
X0333333Y0315000D01*
X0329274Y0318577D02*
X0327393Y0318577D01*
X0328110Y0317579D02*
X0328557Y0317579D01*
X0330272Y0319576D02*
X0326394Y0319576D01*
X0328178Y0312586D02*
X0328488Y0312586D01*
X0329109Y0311588D02*
X0327558Y0311588D01*
X0326559Y0310589D02*
X0330107Y0310589D01*
X0336559Y0310589D02*
X0340107Y0310589D01*
X0339109Y0311588D02*
X0337558Y0311588D01*
X0338178Y0312586D02*
X0338488Y0312586D01*
X0338557Y0317579D02*
X0338110Y0317579D01*
X0337393Y0318577D02*
X0339274Y0318577D01*
X0340272Y0319576D02*
X0336394Y0319576D01*
X0337019Y0320574D02*
X0374648Y0320574D01*
X0375646Y0319576D02*
X0356394Y0319576D01*
X0357393Y0318577D02*
X0376645Y0318577D01*
X0377643Y0317579D02*
X0358110Y0317579D01*
X0358524Y0316580D02*
X0378642Y0316580D01*
X0379640Y0315582D02*
X0358733Y0315582D01*
X0358733Y0314583D02*
X0380639Y0314583D01*
X0381637Y0313585D02*
X0358592Y0313585D01*
X0358178Y0312586D02*
X0382636Y0312586D01*
X0383634Y0311588D02*
X0357558Y0311588D01*
X0356559Y0310589D02*
X0384633Y0310589D01*
X0385631Y0309591D02*
X0355533Y0309591D01*
X0355533Y0308592D02*
X0386630Y0308592D01*
X0387628Y0307594D02*
X0355533Y0307594D01*
X0355533Y0306595D02*
X0388627Y0306595D01*
X0389625Y0305597D02*
X0355533Y0305597D01*
X0355533Y0304598D02*
X0390624Y0304598D01*
X0391133Y0303600D02*
X0355533Y0303600D01*
X0355533Y0302601D02*
X0391133Y0302601D01*
X0391133Y0301603D02*
X0355533Y0301603D01*
X0355533Y0300604D02*
X0391133Y0300604D01*
X0391133Y0299605D02*
X0355533Y0299605D01*
X0355533Y0298607D02*
X0391133Y0298607D01*
X0391133Y0297608D02*
X0355533Y0297608D01*
X0355533Y0296610D02*
X0391133Y0296610D01*
X0391133Y0295611D02*
X0355533Y0295611D01*
X0355533Y0294613D02*
X0391133Y0294613D01*
X0391133Y0293614D02*
X0355533Y0293614D01*
X0355533Y0292616D02*
X0391133Y0292616D01*
X0391133Y0291617D02*
X0355533Y0291617D01*
X0355533Y0290619D02*
X0391133Y0290619D01*
X0391133Y0289620D02*
X0355533Y0289620D01*
X0355533Y0288622D02*
X0391133Y0288622D01*
X0391133Y0287623D02*
X0355533Y0287623D01*
X0355533Y0286625D02*
X0391133Y0286625D01*
X0391133Y0285626D02*
X0355533Y0285626D01*
X0355533Y0284628D02*
X0391133Y0284628D01*
X0391133Y0283629D02*
X0355533Y0283629D01*
X0355533Y0282631D02*
X0391133Y0282631D01*
X0391133Y0281632D02*
X0355533Y0281632D01*
X0355533Y0280634D02*
X0391133Y0280634D01*
X0391133Y0279635D02*
X0355533Y0279635D01*
X0355081Y0278637D02*
X0391133Y0278637D01*
X0391133Y0277638D02*
X0354083Y0277638D01*
X0353084Y0276640D02*
X0391133Y0276640D01*
X0391133Y0275641D02*
X0352086Y0275641D01*
X0351087Y0274643D02*
X0391133Y0274643D01*
X0391133Y0273644D02*
X0350089Y0273644D01*
X0349090Y0272646D02*
X0391133Y0272646D01*
X0391133Y0271647D02*
X0348092Y0271647D01*
X0347093Y0270649D02*
X0391133Y0270649D01*
X0391133Y0269650D02*
X0346095Y0269650D01*
X0345096Y0268652D02*
X0391133Y0268652D01*
X0391133Y0267653D02*
X0344098Y0267653D01*
X0343099Y0266655D02*
X0391133Y0266655D01*
X0391133Y0265656D02*
X0342101Y0265656D01*
X0341102Y0264658D02*
X0391133Y0264658D01*
X0391133Y0263659D02*
X0340104Y0263659D01*
X0339105Y0262661D02*
X0391133Y0262661D01*
X0391133Y0261662D02*
X0338490Y0261662D01*
X0338733Y0260664D02*
X0391133Y0260664D01*
X0391133Y0259665D02*
X0338733Y0259665D01*
X0338626Y0258667D02*
X0391133Y0258667D01*
X0391133Y0257668D02*
X0338212Y0257668D01*
X0337640Y0256670D02*
X0391133Y0256670D01*
X0391133Y0255671D02*
X0336641Y0255671D01*
X0334582Y0254672D02*
X0391133Y0254672D01*
X0391133Y0253674D02*
X0290533Y0253674D01*
X0290533Y0254672D02*
X0302084Y0254672D01*
X0302259Y0254600D02*
X0304407Y0254600D01*
X0306392Y0255422D01*
X0307911Y0256941D01*
X0308733Y0258926D01*
X0308733Y0261074D01*
X0307911Y0263059D01*
X0306392Y0264578D01*
X0304407Y0265400D01*
X0302259Y0265400D01*
X0300274Y0264578D01*
X0298755Y0263059D01*
X0297933Y0261074D01*
X0297933Y0258926D01*
X0298755Y0256941D01*
X0300274Y0255422D01*
X0302259Y0254600D01*
X0304582Y0254672D02*
X0332084Y0254672D01*
X0330026Y0255671D02*
X0306641Y0255671D01*
X0307640Y0256670D02*
X0329027Y0256670D01*
X0328454Y0257668D02*
X0308212Y0257668D01*
X0308626Y0258667D02*
X0328041Y0258667D01*
X0327933Y0259665D02*
X0308733Y0259665D01*
X0308733Y0260664D02*
X0327933Y0260664D01*
X0328177Y0261662D02*
X0308490Y0261662D01*
X0308076Y0262661D02*
X0328590Y0262661D01*
X0329356Y0263659D02*
X0307311Y0263659D01*
X0306200Y0264658D02*
X0330467Y0264658D01*
X0333333Y0260000D02*
X0353333Y0280000D01*
X0353333Y0315000D01*
X0349274Y0318577D02*
X0347393Y0318577D01*
X0348110Y0317579D02*
X0348557Y0317579D01*
X0350272Y0319576D02*
X0346394Y0319576D01*
X0348178Y0312586D02*
X0348488Y0312586D01*
X0349109Y0311588D02*
X0347558Y0311588D01*
X0346559Y0310589D02*
X0350107Y0310589D01*
X0351133Y0309591D02*
X0305533Y0309591D01*
X0305533Y0308592D02*
X0351133Y0308592D01*
X0351133Y0307594D02*
X0305533Y0307594D01*
X0305533Y0306595D02*
X0351133Y0306595D01*
X0351133Y0305597D02*
X0305533Y0305597D01*
X0305533Y0304598D02*
X0351133Y0304598D01*
X0351133Y0303600D02*
X0305533Y0303600D01*
X0305533Y0302601D02*
X0351133Y0302601D01*
X0351133Y0301603D02*
X0305533Y0301603D01*
X0305533Y0300604D02*
X0351133Y0300604D01*
X0351133Y0299605D02*
X0305533Y0299605D01*
X0305533Y0298607D02*
X0351133Y0298607D01*
X0351133Y0297608D02*
X0305533Y0297608D01*
X0305533Y0296610D02*
X0351133Y0296610D01*
X0351133Y0295611D02*
X0305533Y0295611D01*
X0305533Y0294613D02*
X0351133Y0294613D01*
X0351133Y0293614D02*
X0305533Y0293614D01*
X0305533Y0292616D02*
X0351133Y0292616D01*
X0351133Y0291617D02*
X0305533Y0291617D01*
X0305533Y0290619D02*
X0351133Y0290619D01*
X0351133Y0289620D02*
X0305533Y0289620D01*
X0305533Y0288622D02*
X0351133Y0288622D01*
X0351133Y0287623D02*
X0305533Y0287623D01*
X0305533Y0286625D02*
X0351133Y0286625D01*
X0351133Y0285626D02*
X0305533Y0285626D01*
X0305533Y0284628D02*
X0351133Y0284628D01*
X0351133Y0283629D02*
X0305533Y0283629D01*
X0305533Y0282631D02*
X0351133Y0282631D01*
X0351133Y0281632D02*
X0305533Y0281632D01*
X0305533Y0280634D02*
X0350856Y0280634D01*
X0349857Y0279635D02*
X0305533Y0279635D01*
X0305081Y0278637D02*
X0348859Y0278637D01*
X0347860Y0277638D02*
X0304083Y0277638D01*
X0303084Y0276640D02*
X0346862Y0276640D01*
X0345863Y0275641D02*
X0302086Y0275641D01*
X0301087Y0274643D02*
X0344865Y0274643D01*
X0343866Y0273644D02*
X0300089Y0273644D01*
X0299090Y0272646D02*
X0342868Y0272646D01*
X0341869Y0271647D02*
X0298092Y0271647D01*
X0297093Y0270649D02*
X0340871Y0270649D01*
X0339872Y0269650D02*
X0296095Y0269650D01*
X0295096Y0268652D02*
X0338874Y0268652D01*
X0337875Y0267653D02*
X0294098Y0267653D01*
X0293099Y0266655D02*
X0336877Y0266655D01*
X0335878Y0265656D02*
X0292101Y0265656D01*
X0291102Y0264658D02*
X0300467Y0264658D01*
X0299356Y0263659D02*
X0290533Y0263659D01*
X0290533Y0262661D02*
X0298590Y0262661D01*
X0298177Y0261662D02*
X0290533Y0261662D01*
X0290533Y0260664D02*
X0297933Y0260664D01*
X0297933Y0259665D02*
X0290533Y0259665D01*
X0290533Y0258667D02*
X0298041Y0258667D01*
X0298454Y0257668D02*
X0290533Y0257668D01*
X0290533Y0256670D02*
X0299027Y0256670D01*
X0300026Y0255671D02*
X0290533Y0255671D01*
X0290533Y0252675D02*
X0391133Y0252675D01*
X0391133Y0251677D02*
X0290533Y0251677D01*
X0290533Y0250678D02*
X0391133Y0250678D01*
X0391133Y0249680D02*
X0290533Y0249680D01*
X0290533Y0248681D02*
X0391133Y0248681D01*
X0391133Y0247683D02*
X0290533Y0247683D01*
X0290533Y0246684D02*
X0391133Y0246684D01*
X0391133Y0245686D02*
X0290533Y0245686D01*
X0290533Y0244687D02*
X0391133Y0244687D01*
X0391133Y0243689D02*
X0290533Y0243689D01*
X0290533Y0242690D02*
X0391133Y0242690D01*
X0391133Y0241692D02*
X0290533Y0241692D01*
X0290533Y0240693D02*
X0391133Y0240693D01*
X0391133Y0239695D02*
X0290533Y0239695D01*
X0290533Y0238696D02*
X0391133Y0238696D01*
X0391133Y0237698D02*
X0290533Y0237698D01*
X0290533Y0236699D02*
X0391133Y0236699D01*
X0391133Y0235701D02*
X0290533Y0235701D01*
X0290533Y0234702D02*
X0391133Y0234702D01*
X0391133Y0233704D02*
X0290533Y0233704D01*
X0290533Y0232705D02*
X0391133Y0232705D01*
X0391133Y0231707D02*
X0290533Y0231707D01*
X0290533Y0230708D02*
X0391133Y0230708D01*
X0391133Y0229710D02*
X0290533Y0229710D01*
X0290533Y0228711D02*
X0391133Y0228711D01*
X0391133Y0227713D02*
X0290533Y0227713D01*
X0290533Y0226714D02*
X0391133Y0226714D01*
X0391133Y0225716D02*
X0290533Y0225716D01*
X0290533Y0224717D02*
X0391133Y0224717D01*
X0391133Y0223719D02*
X0290533Y0223719D01*
X0290533Y0222720D02*
X0391133Y0222720D01*
X0391133Y0221722D02*
X0290533Y0221722D01*
X0290533Y0220723D02*
X0391133Y0220723D01*
X0391133Y0219725D02*
X0290533Y0219725D01*
X0290533Y0218726D02*
X0391133Y0218726D01*
X0391133Y0217728D02*
X0290533Y0217728D01*
X0290533Y0216729D02*
X0391133Y0216729D01*
X0391133Y0215731D02*
X0290533Y0215731D01*
X0290533Y0214732D02*
X0391133Y0214732D01*
X0391133Y0213734D02*
X0290178Y0213734D01*
X0289180Y0212735D02*
X0391133Y0212735D01*
X0391133Y0211737D02*
X0288181Y0211737D01*
X0287183Y0210738D02*
X0391133Y0210738D01*
X0391133Y0209739D02*
X0286184Y0209739D01*
X0285186Y0208741D02*
X0391133Y0208741D01*
X0391133Y0207742D02*
X0284187Y0207742D01*
X0283189Y0206744D02*
X0391133Y0206744D01*
X0391133Y0205745D02*
X0282190Y0205745D01*
X0281192Y0204747D02*
X0391133Y0204747D01*
X0391133Y0203748D02*
X0280193Y0203748D01*
X0278333Y0205000D02*
X0263333Y0205000D01*
X0303333Y0165000D01*
X0303333Y0155000D01*
X0299512Y0158815D02*
X0296872Y0158815D01*
X0297714Y0157817D02*
X0298655Y0157817D01*
X0298242Y0156818D02*
X0298210Y0156818D01*
X0300844Y0159814D02*
X0295339Y0159814D01*
X0293833Y0159814D02*
X0292833Y0159814D01*
X0292833Y0158815D02*
X0293833Y0158815D01*
X0293833Y0157817D02*
X0292833Y0157817D01*
X0292833Y0156818D02*
X0293833Y0156818D01*
X0293833Y0155820D02*
X0292833Y0155820D01*
X0293333Y0155000D02*
X0293333Y0120000D01*
X0293333Y0105000D01*
X0303333Y0095000D01*
X0343333Y0095000D01*
X0363333Y0115000D01*
X0363333Y0120000D01*
X0363633Y0119873D02*
X0391133Y0119873D01*
X0391133Y0118875D02*
X0368420Y0118875D01*
X0368405Y0118782D02*
X0368533Y0119591D01*
X0368533Y0119700D01*
X0363633Y0119700D01*
X0363633Y0114800D01*
X0363743Y0114800D01*
X0364551Y0114928D01*
X0365329Y0115181D01*
X0366059Y0115553D01*
X0366721Y0116034D01*
X0367300Y0116612D01*
X0367781Y0117275D01*
X0368152Y0118004D01*
X0368405Y0118782D01*
X0368087Y0117876D02*
X0391133Y0117876D01*
X0391133Y0116878D02*
X0367493Y0116878D01*
X0366509Y0115879D02*
X0391133Y0115879D01*
X0391133Y0114881D02*
X0364253Y0114881D01*
X0363633Y0114881D02*
X0363033Y0114881D01*
X0363033Y0114800D02*
X0363033Y0119700D01*
X0363633Y0119700D01*
X0363633Y0120300D01*
X0363033Y0120300D01*
X0363033Y0125200D01*
X0362924Y0125200D01*
X0362116Y0125072D01*
X0361337Y0124819D01*
X0360608Y0124447D01*
X0359946Y0123966D01*
X0359367Y0123388D01*
X0358886Y0122725D01*
X0358514Y0121996D01*
X0358443Y0121776D01*
X0357911Y0123059D01*
X0356392Y0124578D01*
X0354407Y0125400D01*
X0352259Y0125400D01*
X0350274Y0124578D01*
X0348755Y0123059D01*
X0347933Y0121074D01*
X0347933Y0118926D01*
X0348289Y0118067D01*
X0337422Y0107200D01*
X0333267Y0107200D01*
X0332911Y0108059D01*
X0331392Y0109578D01*
X0329407Y0110400D01*
X0327259Y0110400D01*
X0325274Y0109578D01*
X0323755Y0108059D01*
X0322933Y0106074D01*
X0322933Y0103926D01*
X0323755Y0101941D01*
X0325274Y0100422D01*
X0327259Y0099600D01*
X0329407Y0099600D01*
X0331392Y0100422D01*
X0332911Y0101941D01*
X0333267Y0102800D01*
X0339245Y0102800D01*
X0351400Y0114956D01*
X0352259Y0114600D01*
X0354407Y0114600D01*
X0356392Y0115422D01*
X0357911Y0116941D01*
X0358443Y0118224D01*
X0358514Y0118004D01*
X0358886Y0117275D01*
X0359367Y0116612D01*
X0359946Y0116034D01*
X0360608Y0115553D01*
X0361337Y0115181D01*
X0362116Y0114928D01*
X0362924Y0114800D01*
X0363033Y0114800D01*
X0362413Y0114881D02*
X0355086Y0114881D01*
X0356849Y0115879D02*
X0360158Y0115879D01*
X0359174Y0116878D02*
X0357848Y0116878D01*
X0358299Y0117876D02*
X0358579Y0117876D01*
X0358473Y0121870D02*
X0358403Y0121870D01*
X0357990Y0122869D02*
X0358990Y0122869D01*
X0359847Y0123868D02*
X0357103Y0123868D01*
X0355697Y0124866D02*
X0361482Y0124866D01*
X0363033Y0124866D02*
X0363633Y0124866D01*
X0363633Y0125200D02*
X0363633Y0120300D01*
X0368533Y0120300D01*
X0368533Y0120409D01*
X0368405Y0121218D01*
X0368152Y0121996D01*
X0367781Y0122725D01*
X0367300Y0123388D01*
X0366721Y0123966D01*
X0366059Y0124447D01*
X0365329Y0124819D01*
X0364551Y0125072D01*
X0363743Y0125200D01*
X0363633Y0125200D01*
X0363633Y0123868D02*
X0363033Y0123868D01*
X0363033Y0122869D02*
X0363633Y0122869D01*
X0363633Y0121870D02*
X0363033Y0121870D01*
X0363033Y0120872D02*
X0363633Y0120872D01*
X0363633Y0118875D02*
X0363033Y0118875D01*
X0363033Y0117876D02*
X0363633Y0117876D01*
X0363633Y0116878D02*
X0363033Y0116878D01*
X0363033Y0115879D02*
X0363633Y0115879D01*
X0368460Y0120872D02*
X0391133Y0120872D01*
X0391133Y0121870D02*
X0368193Y0121870D01*
X0367676Y0122869D02*
X0391133Y0122869D01*
X0391133Y0123868D02*
X0366820Y0123868D01*
X0365185Y0124866D02*
X0391133Y0124866D01*
X0391133Y0125865D02*
X0280580Y0125865D01*
X0281400Y0125044D02*
X0269245Y0137200D01*
X0263267Y0137200D01*
X0262911Y0138059D01*
X0261392Y0139578D01*
X0259407Y0140400D01*
X0257259Y0140400D01*
X0255274Y0139578D01*
X0253755Y0138059D01*
X0252933Y0136074D01*
X0252933Y0133926D01*
X0253755Y0131941D01*
X0255274Y0130422D01*
X0257259Y0129600D01*
X0259407Y0129600D01*
X0261392Y0130422D01*
X0262911Y0131941D01*
X0263267Y0132800D01*
X0267422Y0132800D01*
X0278289Y0121933D01*
X0277933Y0121074D01*
X0277933Y0118926D01*
X0278755Y0116941D01*
X0280274Y0115422D01*
X0282259Y0114600D01*
X0284407Y0114600D01*
X0286392Y0115422D01*
X0287911Y0116941D01*
X0288443Y0118224D01*
X0288514Y0118004D01*
X0288886Y0117275D01*
X0289367Y0116612D01*
X0289946Y0116034D01*
X0290608Y0115553D01*
X0291337Y0115181D01*
X0292116Y0114928D01*
X0292924Y0114800D01*
X0293033Y0114800D01*
X0293033Y0119700D01*
X0293633Y0119700D01*
X0293633Y0114800D01*
X0293743Y0114800D01*
X0294551Y0114928D01*
X0295329Y0115181D01*
X0296059Y0115553D01*
X0296721Y0116034D01*
X0297300Y0116612D01*
X0297781Y0117275D01*
X0298152Y0118004D01*
X0298405Y0118782D01*
X0298533Y0119591D01*
X0298533Y0119700D01*
X0293633Y0119700D01*
X0293633Y0120300D01*
X0293033Y0120300D01*
X0293033Y0125200D01*
X0292924Y0125200D01*
X0292116Y0125072D01*
X0291337Y0124819D01*
X0290608Y0124447D01*
X0289946Y0123966D01*
X0289367Y0123388D01*
X0288886Y0122725D01*
X0288514Y0121996D01*
X0288443Y0121776D01*
X0287911Y0123059D01*
X0286392Y0124578D01*
X0284407Y0125400D01*
X0282259Y0125400D01*
X0281400Y0125044D01*
X0279582Y0126863D02*
X0391133Y0126863D01*
X0391133Y0127862D02*
X0278583Y0127862D01*
X0277585Y0128860D02*
X0391133Y0128860D01*
X0391133Y0129859D02*
X0330032Y0129859D01*
X0329407Y0129600D02*
X0331392Y0130422D01*
X0332911Y0131941D01*
X0333267Y0132800D01*
X0374245Y0132800D01*
X0375533Y0134089D01*
X0380533Y0139089D01*
X0380533Y0156967D01*
X0381470Y0157904D01*
X0382033Y0159264D01*
X0382033Y0160736D01*
X0381470Y0162096D01*
X0380429Y0163137D01*
X0379069Y0163700D01*
X0377597Y0163700D01*
X0376237Y0163137D01*
X0375197Y0162096D01*
X0374633Y0160736D01*
X0374633Y0159264D01*
X0375197Y0157904D01*
X0376133Y0156967D01*
X0376133Y0140911D01*
X0372422Y0137200D01*
X0333267Y0137200D01*
X0332911Y0138059D01*
X0331392Y0139578D01*
X0329407Y0140400D01*
X0327259Y0140400D01*
X0325274Y0139578D01*
X0323755Y0138059D01*
X0322933Y0136074D01*
X0322933Y0133926D01*
X0323755Y0131941D01*
X0325274Y0130422D01*
X0327259Y0129600D01*
X0329407Y0129600D01*
X0331827Y0130857D02*
X0391133Y0130857D01*
X0391133Y0131856D02*
X0332826Y0131856D01*
X0328333Y0135000D02*
X0373333Y0135000D01*
X0378333Y0140000D01*
X0378333Y0160000D01*
X0374633Y0159814D02*
X0355822Y0159814D01*
X0357155Y0158815D02*
X0374819Y0158815D01*
X0375284Y0157817D02*
X0358011Y0157817D01*
X0358425Y0156818D02*
X0376133Y0156818D01*
X0376133Y0155820D02*
X0358733Y0155820D01*
X0358733Y0154821D02*
X0376133Y0154821D01*
X0376133Y0153823D02*
X0358691Y0153823D01*
X0358277Y0152824D02*
X0376133Y0152824D01*
X0376133Y0151826D02*
X0357796Y0151826D01*
X0356797Y0150827D02*
X0376133Y0150827D01*
X0376133Y0149829D02*
X0354960Y0149829D01*
X0351707Y0149829D02*
X0344960Y0149829D01*
X0346797Y0150827D02*
X0349869Y0150827D01*
X0348871Y0151826D02*
X0347796Y0151826D01*
X0348277Y0152824D02*
X0348390Y0152824D01*
X0348655Y0157817D02*
X0348011Y0157817D01*
X0347155Y0158815D02*
X0349512Y0158815D01*
X0350844Y0159814D02*
X0345822Y0159814D01*
X0340844Y0159814D02*
X0335822Y0159814D01*
X0337155Y0158815D02*
X0339512Y0158815D01*
X0338655Y0157817D02*
X0338011Y0157817D01*
X0338277Y0152824D02*
X0338390Y0152824D01*
X0338871Y0151826D02*
X0337796Y0151826D01*
X0336797Y0150827D02*
X0339869Y0150827D01*
X0341707Y0149829D02*
X0334960Y0149829D01*
X0331707Y0149829D02*
X0324960Y0149829D01*
X0326797Y0150827D02*
X0329869Y0150827D01*
X0328871Y0151826D02*
X0327796Y0151826D01*
X0328277Y0152824D02*
X0328390Y0152824D01*
X0328655Y0157817D02*
X0328011Y0157817D01*
X0327155Y0158815D02*
X0329512Y0158815D01*
X0330844Y0159814D02*
X0325822Y0159814D01*
X0320844Y0159814D02*
X0315822Y0159814D01*
X0317155Y0158815D02*
X0319512Y0158815D01*
X0318655Y0157817D02*
X0318011Y0157817D01*
X0318277Y0152824D02*
X0318390Y0152824D01*
X0318871Y0151826D02*
X0317796Y0151826D01*
X0316797Y0150827D02*
X0319869Y0150827D01*
X0321707Y0149829D02*
X0314960Y0149829D01*
X0311707Y0149829D02*
X0304960Y0149829D01*
X0306797Y0150827D02*
X0309869Y0150827D01*
X0308871Y0151826D02*
X0307796Y0151826D01*
X0308277Y0152824D02*
X0308390Y0152824D01*
X0308655Y0157817D02*
X0308011Y0157817D01*
X0307155Y0158815D02*
X0309512Y0158815D01*
X0310844Y0159814D02*
X0305822Y0159814D01*
X0305533Y0160812D02*
X0374665Y0160812D01*
X0375079Y0161811D02*
X0305533Y0161811D01*
X0305533Y0162809D02*
X0375910Y0162809D01*
X0380756Y0162809D02*
X0391133Y0162809D01*
X0391133Y0161811D02*
X0381588Y0161811D01*
X0382002Y0160812D02*
X0391133Y0160812D01*
X0391133Y0159814D02*
X0382033Y0159814D01*
X0381847Y0158815D02*
X0391133Y0158815D01*
X0391133Y0157817D02*
X0381383Y0157817D01*
X0380533Y0156818D02*
X0391133Y0156818D01*
X0391133Y0155820D02*
X0380533Y0155820D01*
X0380533Y0154821D02*
X0391133Y0154821D01*
X0391133Y0153823D02*
X0380533Y0153823D01*
X0380533Y0152824D02*
X0391133Y0152824D01*
X0391133Y0151826D02*
X0380533Y0151826D01*
X0380533Y0150827D02*
X0391133Y0150827D01*
X0391133Y0149829D02*
X0380533Y0149829D01*
X0380533Y0148830D02*
X0391133Y0148830D01*
X0391133Y0147832D02*
X0380533Y0147832D01*
X0380533Y0146833D02*
X0391133Y0146833D01*
X0391133Y0145835D02*
X0380533Y0145835D01*
X0380533Y0144836D02*
X0391133Y0144836D01*
X0391133Y0143838D02*
X0380533Y0143838D01*
X0380533Y0142839D02*
X0391133Y0142839D01*
X0391133Y0141841D02*
X0380533Y0141841D01*
X0380533Y0140842D02*
X0391133Y0140842D01*
X0391133Y0139844D02*
X0380533Y0139844D01*
X0380290Y0138845D02*
X0391133Y0138845D01*
X0391133Y0137847D02*
X0379291Y0137847D01*
X0378293Y0136848D02*
X0391133Y0136848D01*
X0391133Y0135850D02*
X0377294Y0135850D01*
X0376296Y0134851D02*
X0391133Y0134851D01*
X0391133Y0133853D02*
X0375297Y0133853D01*
X0374299Y0132854D02*
X0391133Y0132854D01*
X0395533Y0132854D02*
X0411233Y0132854D01*
X0411233Y0131856D02*
X0395533Y0131856D01*
X0395533Y0130857D02*
X0411233Y0130857D01*
X0411233Y0129859D02*
X0395533Y0129859D01*
X0395533Y0128860D02*
X0411233Y0128860D01*
X0411233Y0127862D02*
X0395533Y0127862D01*
X0395533Y0126863D02*
X0411233Y0126863D01*
X0411233Y0125865D02*
X0395533Y0125865D01*
X0395533Y0124866D02*
X0411233Y0124866D01*
X0411233Y0123868D02*
X0395533Y0123868D01*
X0395533Y0122869D02*
X0411233Y0122869D01*
X0411233Y0121870D02*
X0395533Y0121870D01*
X0395533Y0120872D02*
X0411233Y0120872D01*
X0411233Y0119873D02*
X0395533Y0119873D01*
X0395533Y0118875D02*
X0411233Y0118875D01*
X0411233Y0117876D02*
X0395533Y0117876D01*
X0395533Y0116878D02*
X0411233Y0116878D01*
X0411233Y0115879D02*
X0395533Y0115879D01*
X0395533Y0114881D02*
X0411233Y0114881D01*
X0411233Y0113882D02*
X0395533Y0113882D01*
X0395533Y0112884D02*
X0411233Y0112884D01*
X0411233Y0111885D02*
X0395533Y0111885D01*
X0395533Y0110887D02*
X0411233Y0110887D01*
X0411233Y0109888D02*
X0395533Y0109888D01*
X0395533Y0108890D02*
X0411233Y0108890D01*
X0411233Y0107891D02*
X0395533Y0107891D01*
X0395533Y0106893D02*
X0411233Y0106893D01*
X0411233Y0105894D02*
X0395533Y0105894D01*
X0395533Y0104896D02*
X0411233Y0104896D01*
X0411233Y0103897D02*
X0395533Y0103897D01*
X0395533Y0102899D02*
X0411233Y0102899D01*
X0411233Y0101900D02*
X0395533Y0101900D01*
X0395533Y0100902D02*
X0411233Y0100902D01*
X0411233Y0099903D02*
X0395533Y0099903D01*
X0395533Y0098905D02*
X0411233Y0098905D01*
X0411233Y0097906D02*
X0395533Y0097906D01*
X0395533Y0096908D02*
X0411233Y0096908D01*
X0411233Y0095909D02*
X0395533Y0095909D01*
X0395533Y0094911D02*
X0411233Y0094911D01*
X0411233Y0093912D02*
X0395533Y0093912D01*
X0395533Y0092914D02*
X0411233Y0092914D01*
X0411233Y0091915D02*
X0395533Y0091915D01*
X0395533Y0090917D02*
X0411233Y0090917D01*
X0411233Y0089918D02*
X0395533Y0089918D01*
X0395533Y0088920D02*
X0411233Y0088920D01*
X0411233Y0087921D02*
X0395533Y0087921D01*
X0395533Y0086923D02*
X0411233Y0086923D01*
X0411233Y0085924D02*
X0395533Y0085924D01*
X0395533Y0084926D02*
X0411233Y0084926D01*
X0411233Y0083927D02*
X0395533Y0083927D01*
X0395533Y0082929D02*
X0411233Y0082929D01*
X0411233Y0081930D02*
X0395533Y0081930D01*
X0395533Y0080932D02*
X0411233Y0080932D01*
X0411233Y0079933D02*
X0395533Y0079933D01*
X0395533Y0078934D02*
X0411233Y0078934D01*
X0411233Y0077936D02*
X0395533Y0077936D01*
X0395533Y0076937D02*
X0411233Y0076937D01*
X0411233Y0075939D02*
X0395533Y0075939D01*
X0395533Y0074940D02*
X0411233Y0074940D01*
X0411233Y0073942D02*
X0395533Y0073942D01*
X0395533Y0072943D02*
X0411233Y0072943D01*
X0411233Y0071945D02*
X0395533Y0071945D01*
X0395533Y0070946D02*
X0411233Y0070946D01*
X0411233Y0069948D02*
X0395533Y0069948D01*
X0395533Y0068949D02*
X0411233Y0068949D01*
X0411233Y0067951D02*
X0395533Y0067951D01*
X0395533Y0066952D02*
X0411233Y0066952D01*
X0411233Y0065954D02*
X0395533Y0065954D01*
X0395533Y0064955D02*
X0411233Y0064955D01*
X0411233Y0063957D02*
X0395533Y0063957D01*
X0395533Y0062958D02*
X0411233Y0062958D01*
X0411233Y0061960D02*
X0395533Y0061960D01*
X0395533Y0060961D02*
X0411233Y0060961D01*
X0411233Y0059963D02*
X0395533Y0059963D01*
X0395533Y0058964D02*
X0411233Y0058964D01*
X0411233Y0057966D02*
X0395533Y0057966D01*
X0395533Y0056967D02*
X0411233Y0056967D01*
X0411233Y0055969D02*
X0395533Y0055969D01*
X0395533Y0054970D02*
X0411233Y0054970D01*
X0411233Y0053972D02*
X0395533Y0053972D01*
X0395533Y0052973D02*
X0411233Y0052973D01*
X0411233Y0051975D02*
X0395533Y0051975D01*
X0395533Y0050976D02*
X0411233Y0050976D01*
X0411233Y0049978D02*
X0395533Y0049978D01*
X0395424Y0048979D02*
X0411233Y0048979D01*
X0411233Y0047981D02*
X0394425Y0047981D01*
X0393427Y0046982D02*
X0411233Y0046982D01*
X0411233Y0045984D02*
X0392428Y0045984D01*
X0391430Y0044985D02*
X0411233Y0044985D01*
X0411233Y0043987D02*
X0390431Y0043987D01*
X0389433Y0042988D02*
X0411233Y0042988D01*
X0411233Y0041990D02*
X0388434Y0041990D01*
X0387436Y0040991D02*
X0411233Y0040991D01*
X0411233Y0039993D02*
X0386437Y0039993D01*
X0385439Y0038994D02*
X0411233Y0038994D01*
X0411233Y0037996D02*
X0384440Y0037996D01*
X0383333Y0040000D02*
X0393333Y0050000D01*
X0393333Y0305000D01*
X0373333Y0325000D01*
X0338333Y0325000D01*
X0339016Y0322571D02*
X0372651Y0322571D01*
X0373649Y0321573D02*
X0338017Y0321573D01*
X0320107Y0310589D02*
X0316559Y0310589D01*
X0317558Y0311588D02*
X0319109Y0311588D01*
X0318488Y0312586D02*
X0318178Y0312586D01*
X0310107Y0310589D02*
X0306559Y0310589D01*
X0307558Y0311588D02*
X0309109Y0311588D01*
X0308488Y0312586D02*
X0308178Y0312586D01*
X0301133Y0308592D02*
X0185037Y0308592D01*
X0184038Y0307594D02*
X0301133Y0307594D01*
X0301133Y0306595D02*
X0183040Y0306595D01*
X0182041Y0305597D02*
X0301133Y0305597D01*
X0301133Y0304598D02*
X0181043Y0304598D01*
X0180044Y0303600D02*
X0301133Y0303600D01*
X0301133Y0302601D02*
X0179046Y0302601D01*
X0178047Y0301603D02*
X0301133Y0301603D01*
X0301133Y0300604D02*
X0177049Y0300604D01*
X0176050Y0299605D02*
X0301133Y0299605D01*
X0301133Y0298607D02*
X0175052Y0298607D01*
X0174053Y0297608D02*
X0301133Y0297608D01*
X0301133Y0296610D02*
X0173055Y0296610D01*
X0172056Y0295611D02*
X0301133Y0295611D01*
X0301133Y0294613D02*
X0171058Y0294613D01*
X0170059Y0293614D02*
X0301133Y0293614D01*
X0301133Y0292616D02*
X0169061Y0292616D01*
X0168062Y0291617D02*
X0301133Y0291617D01*
X0301133Y0290619D02*
X0167063Y0290619D01*
X0166065Y0289620D02*
X0200377Y0289620D01*
X0199318Y0288622D02*
X0165066Y0288622D01*
X0164068Y0287623D02*
X0198575Y0287623D01*
X0198161Y0286625D02*
X0163069Y0286625D01*
X0162071Y0285626D02*
X0197933Y0285626D01*
X0197933Y0284628D02*
X0161072Y0284628D01*
X0160074Y0283629D02*
X0198056Y0283629D01*
X0198470Y0282631D02*
X0159075Y0282631D01*
X0158077Y0281632D02*
X0199064Y0281632D01*
X0200063Y0280634D02*
X0157078Y0280634D01*
X0156080Y0279635D02*
X0200413Y0279635D01*
X0199333Y0278637D02*
X0155081Y0278637D01*
X0154083Y0277638D02*
X0198581Y0277638D01*
X0198168Y0276640D02*
X0153084Y0276640D01*
X0152086Y0275641D02*
X0197933Y0275641D01*
X0197933Y0274643D02*
X0151087Y0274643D01*
X0150089Y0273644D02*
X0198050Y0273644D01*
X0198464Y0272646D02*
X0149090Y0272646D01*
X0148092Y0271647D02*
X0199049Y0271647D01*
X0200048Y0270649D02*
X0147093Y0270649D01*
X0146095Y0269650D02*
X0200449Y0269650D01*
X0199348Y0268652D02*
X0145096Y0268652D01*
X0144098Y0267653D02*
X0198587Y0267653D01*
X0198457Y0262661D02*
X0144105Y0262661D01*
X0143107Y0261662D02*
X0199034Y0261662D01*
X0200033Y0260664D02*
X0142108Y0260664D01*
X0141110Y0259665D02*
X0200485Y0259665D01*
X0199363Y0258667D02*
X0140111Y0258667D01*
X0139113Y0257668D02*
X0198594Y0257668D01*
X0198180Y0256670D02*
X0138114Y0256670D01*
X0137116Y0255671D02*
X0197933Y0255671D01*
X0197933Y0254672D02*
X0136117Y0254672D01*
X0135119Y0253674D02*
X0198038Y0253674D01*
X0198451Y0252675D02*
X0134120Y0252675D01*
X0133122Y0251677D02*
X0199020Y0251677D01*
X0200018Y0250678D02*
X0132123Y0250678D01*
X0131125Y0249680D02*
X0200521Y0249680D01*
X0199378Y0248681D02*
X0130126Y0248681D01*
X0129128Y0247683D02*
X0198600Y0247683D01*
X0198186Y0246684D02*
X0128129Y0246684D01*
X0127130Y0245686D02*
X0197933Y0245686D01*
X0197933Y0244687D02*
X0126132Y0244687D01*
X0125133Y0243689D02*
X0198031Y0243689D01*
X0198445Y0242690D02*
X0124135Y0242690D01*
X0123136Y0241692D02*
X0199005Y0241692D01*
X0200003Y0240693D02*
X0122138Y0240693D01*
X0121139Y0239695D02*
X0200557Y0239695D01*
X0199393Y0238696D02*
X0120141Y0238696D01*
X0119142Y0237698D02*
X0198606Y0237698D01*
X0198192Y0236699D02*
X0118144Y0236699D01*
X0117145Y0235701D02*
X0197933Y0235701D01*
X0197933Y0234702D02*
X0116147Y0234702D01*
X0115148Y0233704D02*
X0198025Y0233704D01*
X0198439Y0232705D02*
X0114150Y0232705D01*
X0113151Y0231707D02*
X0198990Y0231707D01*
X0199988Y0230708D02*
X0112153Y0230708D01*
X0111154Y0229710D02*
X0200593Y0229710D01*
X0199408Y0228711D02*
X0110156Y0228711D01*
X0109157Y0227713D02*
X0198612Y0227713D01*
X0198198Y0226714D02*
X0108159Y0226714D01*
X0107160Y0225716D02*
X0197933Y0225716D01*
X0197933Y0224717D02*
X0106162Y0224717D01*
X0105163Y0223719D02*
X0198019Y0223719D01*
X0198433Y0222720D02*
X0104165Y0222720D01*
X0103166Y0221722D02*
X0198975Y0221722D01*
X0199973Y0220723D02*
X0102168Y0220723D01*
X0101169Y0219725D02*
X0200629Y0219725D01*
X0199423Y0218726D02*
X0100171Y0218726D01*
X0099172Y0217728D02*
X0198618Y0217728D01*
X0198205Y0216729D02*
X0098174Y0216729D01*
X0097175Y0215731D02*
X0197933Y0215731D01*
X0197933Y0214732D02*
X0096177Y0214732D01*
X0095178Y0213734D02*
X0198013Y0213734D01*
X0198427Y0212735D02*
X0094180Y0212735D01*
X0093181Y0211737D02*
X0198960Y0211737D01*
X0199959Y0210738D02*
X0092183Y0210738D01*
X0091184Y0209739D02*
X0200665Y0209739D01*
X0199438Y0208741D02*
X0090186Y0208741D01*
X0089187Y0207742D02*
X0198624Y0207742D01*
X0198211Y0206744D02*
X0088189Y0206744D01*
X0087190Y0205745D02*
X0197933Y0205745D01*
X0197933Y0204747D02*
X0086192Y0204747D01*
X0085193Y0203748D02*
X0198007Y0203748D01*
X0198420Y0202750D02*
X0084195Y0202750D01*
X0083196Y0201751D02*
X0198945Y0201751D01*
X0199944Y0200753D02*
X0082197Y0200753D01*
X0081199Y0199754D02*
X0200701Y0199754D01*
X0199452Y0198756D02*
X0080200Y0198756D01*
X0079202Y0197757D02*
X0198631Y0197757D01*
X0198217Y0196759D02*
X0078203Y0196759D01*
X0077205Y0195760D02*
X0197933Y0195760D01*
X0197933Y0194762D02*
X0076206Y0194762D01*
X0075208Y0193763D02*
X0198001Y0193763D01*
X0198414Y0192765D02*
X0074209Y0192765D01*
X0073211Y0191766D02*
X0198930Y0191766D01*
X0199929Y0190768D02*
X0072212Y0190768D01*
X0071214Y0189769D02*
X0201851Y0189769D01*
X0204816Y0189769D02*
X0211851Y0189769D01*
X0209929Y0190768D02*
X0206738Y0190768D01*
X0207736Y0191766D02*
X0208930Y0191766D01*
X0208414Y0192765D02*
X0208252Y0192765D01*
X0213333Y0195000D02*
X0258333Y0195000D01*
X0255858Y0197757D02*
X0218036Y0197757D01*
X0217214Y0198756D02*
X0266466Y0198756D01*
X0265468Y0199754D02*
X0215966Y0199754D01*
X0216723Y0200753D02*
X0264469Y0200753D01*
X0263471Y0201751D02*
X0217721Y0201751D01*
X0218246Y0202750D02*
X0262472Y0202750D01*
X0263333Y0205000D02*
X0213333Y0205000D01*
X0218252Y0192765D02*
X0255336Y0192765D01*
X0256472Y0191766D02*
X0217736Y0191766D01*
X0216738Y0190768D02*
X0274454Y0190768D01*
X0273456Y0191766D02*
X0260195Y0191766D01*
X0261331Y0192765D02*
X0272457Y0192765D01*
X0271459Y0193763D02*
X0261826Y0193763D01*
X0262033Y0194762D02*
X0270460Y0194762D01*
X0269462Y0195760D02*
X0262023Y0195760D01*
X0261610Y0196759D02*
X0268463Y0196759D01*
X0267465Y0197757D02*
X0260809Y0197757D01*
X0268695Y0202750D02*
X0391133Y0202750D01*
X0391133Y0201751D02*
X0269693Y0201751D01*
X0270692Y0200753D02*
X0391133Y0200753D01*
X0391133Y0199754D02*
X0271690Y0199754D01*
X0272689Y0198756D02*
X0391133Y0198756D01*
X0391133Y0197757D02*
X0273687Y0197757D01*
X0274686Y0196759D02*
X0391133Y0196759D01*
X0391133Y0195760D02*
X0275684Y0195760D01*
X0276683Y0194762D02*
X0391133Y0194762D01*
X0391133Y0193763D02*
X0277681Y0193763D01*
X0278680Y0192765D02*
X0391133Y0192765D01*
X0391133Y0191766D02*
X0279678Y0191766D01*
X0280677Y0190768D02*
X0391133Y0190768D01*
X0391133Y0189769D02*
X0281675Y0189769D01*
X0282674Y0188771D02*
X0391133Y0188771D01*
X0391133Y0187772D02*
X0283672Y0187772D01*
X0284671Y0186774D02*
X0391133Y0186774D01*
X0391133Y0185775D02*
X0285669Y0185775D01*
X0286668Y0184777D02*
X0391133Y0184777D01*
X0391133Y0183778D02*
X0287666Y0183778D01*
X0288665Y0182780D02*
X0391133Y0182780D01*
X0391133Y0181781D02*
X0289663Y0181781D01*
X0290662Y0180783D02*
X0391133Y0180783D01*
X0391133Y0179784D02*
X0291660Y0179784D01*
X0292659Y0178786D02*
X0391133Y0178786D01*
X0391133Y0177787D02*
X0293657Y0177787D01*
X0294656Y0176789D02*
X0391133Y0176789D01*
X0391133Y0175790D02*
X0295654Y0175790D01*
X0296653Y0174792D02*
X0391133Y0174792D01*
X0391133Y0173793D02*
X0297652Y0173793D01*
X0298650Y0172795D02*
X0391133Y0172795D01*
X0391133Y0171796D02*
X0299649Y0171796D01*
X0300647Y0170798D02*
X0391133Y0170798D01*
X0391133Y0169799D02*
X0301646Y0169799D01*
X0302644Y0168801D02*
X0391133Y0168801D01*
X0391133Y0167802D02*
X0303643Y0167802D01*
X0304641Y0166803D02*
X0391133Y0166803D01*
X0391133Y0165805D02*
X0305533Y0165805D01*
X0305533Y0164806D02*
X0391133Y0164806D01*
X0391133Y0163808D02*
X0305533Y0163808D01*
X0301133Y0163808D02*
X0282778Y0163808D01*
X0281780Y0164806D02*
X0300416Y0164806D01*
X0299417Y0165805D02*
X0280781Y0165805D01*
X0279783Y0166803D02*
X0298419Y0166803D01*
X0297420Y0167802D02*
X0103643Y0167802D01*
X0104641Y0166803D02*
X0246884Y0166803D01*
X0245886Y0165805D02*
X0105640Y0165805D01*
X0106638Y0164806D02*
X0244887Y0164806D01*
X0243889Y0163808D02*
X0107637Y0163808D01*
X0108635Y0162809D02*
X0242890Y0162809D01*
X0241892Y0161811D02*
X0109634Y0161811D01*
X0110632Y0160812D02*
X0241033Y0160812D01*
X0241033Y0159814D02*
X0115822Y0159814D01*
X0117155Y0158815D02*
X0241033Y0158815D01*
X0241033Y0157817D02*
X0118011Y0157817D01*
X0113333Y0155000D02*
X0093333Y0175000D01*
X0068333Y0175000D01*
X0072184Y0178786D02*
X0286436Y0178786D01*
X0285438Y0179784D02*
X0070894Y0179784D01*
X0073024Y0177787D02*
X0287435Y0177787D01*
X0288433Y0176789D02*
X0094656Y0176789D01*
X0095654Y0175790D02*
X0289432Y0175790D01*
X0290430Y0174792D02*
X0096653Y0174792D01*
X0097652Y0173793D02*
X0291429Y0173793D01*
X0292427Y0172795D02*
X0098650Y0172795D01*
X0099649Y0171796D02*
X0293426Y0171796D01*
X0294425Y0170798D02*
X0100647Y0170798D01*
X0101646Y0169799D02*
X0295423Y0169799D01*
X0296422Y0168801D02*
X0102644Y0168801D01*
X0095423Y0169799D02*
X0069888Y0169799D01*
X0071768Y0170798D02*
X0094425Y0170798D01*
X0093426Y0171796D02*
X0072766Y0171796D01*
X0073265Y0172795D02*
X0092427Y0172795D01*
X0070215Y0188771D02*
X0276451Y0188771D01*
X0275453Y0189769D02*
X0214816Y0189769D01*
X0241033Y0156818D02*
X0139626Y0156818D01*
X0140625Y0155820D02*
X0241033Y0155820D01*
X0241033Y0154821D02*
X0141623Y0154821D01*
X0142622Y0153823D02*
X0241033Y0153823D01*
X0241033Y0152824D02*
X0143620Y0152824D01*
X0144619Y0151826D02*
X0241033Y0151826D01*
X0241033Y0150827D02*
X0145617Y0150827D01*
X0146616Y0149829D02*
X0241033Y0149829D01*
X0241033Y0148830D02*
X0147614Y0148830D01*
X0148613Y0147832D02*
X0241033Y0147832D01*
X0241033Y0146833D02*
X0149611Y0146833D01*
X0150610Y0145835D02*
X0241033Y0145835D01*
X0241033Y0144836D02*
X0151608Y0144836D01*
X0152607Y0143838D02*
X0241033Y0143838D01*
X0241033Y0142839D02*
X0153605Y0142839D01*
X0154604Y0141841D02*
X0241033Y0141841D01*
X0241033Y0140842D02*
X0155602Y0140842D01*
X0156601Y0139844D02*
X0241033Y0139844D01*
X0241033Y0138845D02*
X0157599Y0138845D01*
X0158598Y0137847D02*
X0241033Y0137847D01*
X0241033Y0136848D02*
X0159596Y0136848D01*
X0160595Y0135850D02*
X0241033Y0135850D01*
X0241033Y0134851D02*
X0161593Y0134851D01*
X0162592Y0133853D02*
X0241033Y0133853D01*
X0241033Y0132854D02*
X0163590Y0132854D01*
X0164589Y0131856D02*
X0241033Y0131856D01*
X0241033Y0130857D02*
X0165588Y0130857D01*
X0166586Y0129859D02*
X0241033Y0129859D01*
X0241033Y0128860D02*
X0167585Y0128860D01*
X0168583Y0127862D02*
X0241033Y0127862D01*
X0241033Y0126863D02*
X0169582Y0126863D01*
X0170580Y0125865D02*
X0241033Y0125865D01*
X0241033Y0124866D02*
X0171579Y0124866D01*
X0172577Y0123868D02*
X0241033Y0123868D01*
X0241033Y0122869D02*
X0173576Y0122869D01*
X0174574Y0121870D02*
X0241033Y0121870D01*
X0241033Y0120872D02*
X0175573Y0120872D01*
X0176571Y0119873D02*
X0188715Y0119873D01*
X0187059Y0118875D02*
X0177570Y0118875D01*
X0178568Y0117876D02*
X0186101Y0117876D01*
X0186299Y0111885D02*
X0072855Y0111885D01*
X0073302Y0112884D02*
X0177338Y0112884D01*
X0176340Y0113882D02*
X0073715Y0113882D01*
X0073733Y0114881D02*
X0175341Y0114881D01*
X0174343Y0115879D02*
X0073733Y0115879D01*
X0073400Y0116878D02*
X0173344Y0116878D01*
X0172346Y0117876D02*
X0072987Y0117876D01*
X0072095Y0118875D02*
X0171347Y0118875D01*
X0170349Y0119873D02*
X0070679Y0119873D01*
X0070533Y0120872D02*
X0169350Y0120872D01*
X0168352Y0121870D02*
X0070533Y0121870D01*
X0070533Y0122869D02*
X0167353Y0122869D01*
X0166355Y0123868D02*
X0070533Y0123868D01*
X0070533Y0124866D02*
X0165356Y0124866D01*
X0164358Y0125865D02*
X0070533Y0125865D01*
X0070533Y0126863D02*
X0163359Y0126863D01*
X0162360Y0127862D02*
X0070533Y0127862D01*
X0070533Y0128860D02*
X0161362Y0128860D01*
X0160363Y0129859D02*
X0070533Y0129859D01*
X0071827Y0130857D02*
X0159365Y0130857D01*
X0158366Y0131856D02*
X0072826Y0131856D01*
X0072999Y0137847D02*
X0093069Y0137847D01*
X0094067Y0138845D02*
X0072125Y0138845D01*
X0094299Y0132854D02*
X0157368Y0132854D01*
X0156369Y0133853D02*
X0095297Y0133853D01*
X0096296Y0134851D02*
X0155371Y0134851D01*
X0154372Y0135850D02*
X0097294Y0135850D01*
X0098293Y0136848D02*
X0153374Y0136848D01*
X0152375Y0137847D02*
X0099291Y0137847D01*
X0100290Y0138845D02*
X0151377Y0138845D01*
X0150378Y0139844D02*
X0101288Y0139844D01*
X0102287Y0140842D02*
X0149380Y0140842D01*
X0148381Y0141841D02*
X0103285Y0141841D01*
X0104284Y0142839D02*
X0147383Y0142839D01*
X0146384Y0143838D02*
X0105282Y0143838D01*
X0106281Y0144836D02*
X0145386Y0144836D01*
X0144387Y0145835D02*
X0107279Y0145835D01*
X0108278Y0146833D02*
X0143389Y0146833D01*
X0142390Y0147832D02*
X0109276Y0147832D01*
X0110275Y0148830D02*
X0141392Y0148830D01*
X0140393Y0149829D02*
X0114960Y0149829D01*
X0116797Y0150827D02*
X0139395Y0150827D01*
X0138396Y0151826D02*
X0117796Y0151826D01*
X0111707Y0149829D02*
X0111273Y0149829D01*
X0069217Y0187772D02*
X0277450Y0187772D01*
X0278448Y0186774D02*
X0068218Y0186774D01*
X0067220Y0185775D02*
X0279447Y0185775D01*
X0280445Y0184777D02*
X0066221Y0184777D01*
X0060833Y0187500D02*
X0198333Y0325000D01*
X0308333Y0325000D01*
X0290860Y0319576D02*
X0286394Y0319576D01*
X0287393Y0318577D02*
X0289557Y0318577D01*
X0288811Y0317579D02*
X0288110Y0317579D01*
X0301133Y0289620D02*
X0215719Y0289620D01*
X0216059Y0289447D02*
X0215329Y0289819D01*
X0214551Y0290072D01*
X0213833Y0290186D01*
X0213833Y0285500D01*
X0218519Y0285500D01*
X0218405Y0286218D01*
X0218152Y0286996D01*
X0217781Y0287725D01*
X0217300Y0288388D01*
X0216721Y0288966D01*
X0216059Y0289447D01*
X0217065Y0288622D02*
X0301133Y0288622D01*
X0301133Y0287623D02*
X0217833Y0287623D01*
X0218273Y0286625D02*
X0301133Y0286625D01*
X0301133Y0285626D02*
X0218499Y0285626D01*
X0218356Y0283629D02*
X0301133Y0283629D01*
X0301133Y0282631D02*
X0217962Y0282631D01*
X0217314Y0281632D02*
X0301133Y0281632D01*
X0300856Y0280634D02*
X0216171Y0280634D01*
X0216254Y0279635D02*
X0299857Y0279635D01*
X0298859Y0278637D02*
X0217333Y0278637D01*
X0218085Y0277638D02*
X0297860Y0277638D01*
X0296862Y0276640D02*
X0218499Y0276640D01*
X0218733Y0275641D02*
X0295863Y0275641D01*
X0294865Y0274643D02*
X0218733Y0274643D01*
X0218617Y0273644D02*
X0293866Y0273644D01*
X0292868Y0272646D02*
X0218203Y0272646D01*
X0217617Y0271647D02*
X0291869Y0271647D01*
X0290871Y0270649D02*
X0216619Y0270649D01*
X0213833Y0284628D02*
X0301133Y0284628D01*
X0374879Y0326565D02*
X0411233Y0326565D01*
X0411233Y0325567D02*
X0375878Y0325567D01*
X0376876Y0324568D02*
X0411233Y0324568D01*
X0411233Y0323570D02*
X0377875Y0323570D01*
X0378873Y0322571D02*
X0411233Y0322571D01*
X0411233Y0321573D02*
X0379872Y0321573D01*
X0380870Y0320574D02*
X0411233Y0320574D01*
X0411233Y0319576D02*
X0381869Y0319576D01*
X0382867Y0318577D02*
X0411233Y0318577D01*
X0411233Y0317579D02*
X0383866Y0317579D01*
X0384864Y0316580D02*
X0411233Y0316580D01*
X0411233Y0315582D02*
X0385863Y0315582D01*
X0386861Y0314583D02*
X0411233Y0314583D01*
X0411233Y0313585D02*
X0387860Y0313585D01*
X0388858Y0312586D02*
X0411233Y0312586D01*
X0411233Y0311588D02*
X0389857Y0311588D01*
X0390855Y0310589D02*
X0411233Y0310589D01*
X0411233Y0309591D02*
X0391854Y0309591D01*
X0392852Y0308592D02*
X0411233Y0308592D01*
X0411233Y0307594D02*
X0393851Y0307594D01*
X0394850Y0306595D02*
X0411233Y0306595D01*
X0411233Y0305597D02*
X0395533Y0305597D01*
X0395533Y0304598D02*
X0411233Y0304598D01*
X0411233Y0303600D02*
X0395533Y0303600D01*
X0395533Y0302601D02*
X0411233Y0302601D01*
X0411233Y0301603D02*
X0395533Y0301603D01*
X0395533Y0300604D02*
X0411233Y0300604D01*
X0411233Y0299605D02*
X0395533Y0299605D01*
X0395533Y0298607D02*
X0411233Y0298607D01*
X0411233Y0297608D02*
X0395533Y0297608D01*
X0395533Y0296610D02*
X0411233Y0296610D01*
X0411233Y0295611D02*
X0395533Y0295611D01*
X0395533Y0294613D02*
X0411233Y0294613D01*
X0411233Y0293614D02*
X0395533Y0293614D01*
X0395533Y0292616D02*
X0411233Y0292616D01*
X0411233Y0291617D02*
X0395533Y0291617D01*
X0395533Y0290619D02*
X0411233Y0290619D01*
X0411233Y0289620D02*
X0395533Y0289620D01*
X0395533Y0288622D02*
X0411233Y0288622D01*
X0411233Y0287623D02*
X0395533Y0287623D01*
X0395533Y0286625D02*
X0411233Y0286625D01*
X0411233Y0285626D02*
X0395533Y0285626D01*
X0395533Y0284628D02*
X0411233Y0284628D01*
X0411233Y0283629D02*
X0395533Y0283629D01*
X0395533Y0282631D02*
X0411233Y0282631D01*
X0411233Y0281632D02*
X0395533Y0281632D01*
X0395533Y0280634D02*
X0411233Y0280634D01*
X0411233Y0279635D02*
X0395533Y0279635D01*
X0395533Y0278637D02*
X0411233Y0278637D01*
X0411233Y0277638D02*
X0395533Y0277638D01*
X0395533Y0276640D02*
X0411233Y0276640D01*
X0411233Y0275641D02*
X0395533Y0275641D01*
X0395533Y0274643D02*
X0411233Y0274643D01*
X0411233Y0273644D02*
X0395533Y0273644D01*
X0395533Y0272646D02*
X0411233Y0272646D01*
X0411233Y0271647D02*
X0395533Y0271647D01*
X0395533Y0270649D02*
X0411233Y0270649D01*
X0411233Y0269650D02*
X0395533Y0269650D01*
X0395533Y0268652D02*
X0411233Y0268652D01*
X0411233Y0267653D02*
X0395533Y0267653D01*
X0395533Y0266655D02*
X0411233Y0266655D01*
X0411233Y0265656D02*
X0395533Y0265656D01*
X0395533Y0264658D02*
X0411233Y0264658D01*
X0411233Y0263659D02*
X0395533Y0263659D01*
X0395533Y0262661D02*
X0411233Y0262661D01*
X0411233Y0261662D02*
X0395533Y0261662D01*
X0395533Y0260664D02*
X0411233Y0260664D01*
X0411233Y0259665D02*
X0395533Y0259665D01*
X0395533Y0258667D02*
X0411233Y0258667D01*
X0411233Y0257668D02*
X0395533Y0257668D01*
X0395533Y0256670D02*
X0411233Y0256670D01*
X0411233Y0255671D02*
X0395533Y0255671D01*
X0395533Y0254672D02*
X0411233Y0254672D01*
X0411233Y0253674D02*
X0395533Y0253674D01*
X0395533Y0252675D02*
X0411233Y0252675D01*
X0411233Y0251677D02*
X0395533Y0251677D01*
X0395533Y0250678D02*
X0411233Y0250678D01*
X0411233Y0249680D02*
X0395533Y0249680D01*
X0395533Y0248681D02*
X0411233Y0248681D01*
X0411233Y0247683D02*
X0395533Y0247683D01*
X0395533Y0246684D02*
X0411233Y0246684D01*
X0411233Y0245686D02*
X0395533Y0245686D01*
X0395533Y0244687D02*
X0411233Y0244687D01*
X0411233Y0243689D02*
X0395533Y0243689D01*
X0395533Y0242690D02*
X0411233Y0242690D01*
X0411233Y0241692D02*
X0395533Y0241692D01*
X0395533Y0240693D02*
X0411233Y0240693D01*
X0411233Y0239695D02*
X0395533Y0239695D01*
X0395533Y0238696D02*
X0411233Y0238696D01*
X0411233Y0237698D02*
X0395533Y0237698D01*
X0395533Y0236699D02*
X0411233Y0236699D01*
X0411233Y0235701D02*
X0395533Y0235701D01*
X0395533Y0234702D02*
X0411233Y0234702D01*
X0411233Y0233704D02*
X0395533Y0233704D01*
X0395533Y0232705D02*
X0411233Y0232705D01*
X0411233Y0231707D02*
X0395533Y0231707D01*
X0395533Y0230708D02*
X0411233Y0230708D01*
X0411233Y0229710D02*
X0395533Y0229710D01*
X0395533Y0228711D02*
X0411233Y0228711D01*
X0411233Y0227713D02*
X0395533Y0227713D01*
X0395533Y0226714D02*
X0411233Y0226714D01*
X0411233Y0225716D02*
X0395533Y0225716D01*
X0395533Y0224717D02*
X0411233Y0224717D01*
X0411233Y0223719D02*
X0395533Y0223719D01*
X0395533Y0222720D02*
X0411233Y0222720D01*
X0411233Y0221722D02*
X0395533Y0221722D01*
X0395533Y0220723D02*
X0411233Y0220723D01*
X0411233Y0219725D02*
X0395533Y0219725D01*
X0395533Y0218726D02*
X0411233Y0218726D01*
X0411233Y0217728D02*
X0395533Y0217728D01*
X0395533Y0216729D02*
X0411233Y0216729D01*
X0411233Y0215731D02*
X0395533Y0215731D01*
X0395533Y0214732D02*
X0411233Y0214732D01*
X0411233Y0213734D02*
X0395533Y0213734D01*
X0395533Y0212735D02*
X0411233Y0212735D01*
X0411233Y0211737D02*
X0395533Y0211737D01*
X0395533Y0210738D02*
X0411233Y0210738D01*
X0411233Y0209739D02*
X0395533Y0209739D01*
X0395533Y0208741D02*
X0411233Y0208741D01*
X0411233Y0207742D02*
X0395533Y0207742D01*
X0395533Y0206744D02*
X0411233Y0206744D01*
X0411233Y0205745D02*
X0395533Y0205745D01*
X0395533Y0204747D02*
X0411233Y0204747D01*
X0411233Y0203748D02*
X0395533Y0203748D01*
X0395533Y0202750D02*
X0411233Y0202750D01*
X0411233Y0201751D02*
X0395533Y0201751D01*
X0395533Y0200753D02*
X0411233Y0200753D01*
X0411233Y0199754D02*
X0395533Y0199754D01*
X0395533Y0198756D02*
X0411233Y0198756D01*
X0411233Y0197757D02*
X0395533Y0197757D01*
X0395533Y0196759D02*
X0411233Y0196759D01*
X0411233Y0195760D02*
X0395533Y0195760D01*
X0395533Y0194762D02*
X0411233Y0194762D01*
X0411233Y0193763D02*
X0395533Y0193763D01*
X0395533Y0192765D02*
X0411233Y0192765D01*
X0411233Y0191766D02*
X0395533Y0191766D01*
X0395533Y0190768D02*
X0411233Y0190768D01*
X0411233Y0189769D02*
X0395533Y0189769D01*
X0395533Y0188771D02*
X0411233Y0188771D01*
X0411233Y0187772D02*
X0395533Y0187772D01*
X0395533Y0186774D02*
X0411233Y0186774D01*
X0411233Y0185775D02*
X0395533Y0185775D01*
X0395533Y0184777D02*
X0411233Y0184777D01*
X0411233Y0183778D02*
X0395533Y0183778D01*
X0395533Y0182780D02*
X0411233Y0182780D01*
X0411233Y0181781D02*
X0395533Y0181781D01*
X0395533Y0180783D02*
X0411233Y0180783D01*
X0411233Y0179784D02*
X0395533Y0179784D01*
X0395533Y0178786D02*
X0411233Y0178786D01*
X0411233Y0177787D02*
X0395533Y0177787D01*
X0395533Y0176789D02*
X0411233Y0176789D01*
X0411233Y0175790D02*
X0395533Y0175790D01*
X0395533Y0174792D02*
X0411233Y0174792D01*
X0411233Y0173793D02*
X0395533Y0173793D01*
X0395533Y0172795D02*
X0411233Y0172795D01*
X0411233Y0171796D02*
X0395533Y0171796D01*
X0395533Y0170798D02*
X0411233Y0170798D01*
X0411233Y0169799D02*
X0395533Y0169799D01*
X0395533Y0168801D02*
X0411233Y0168801D01*
X0411233Y0167802D02*
X0395533Y0167802D01*
X0395533Y0166803D02*
X0411233Y0166803D01*
X0411233Y0165805D02*
X0395533Y0165805D01*
X0395533Y0164806D02*
X0411233Y0164806D01*
X0411233Y0163808D02*
X0395533Y0163808D01*
X0395533Y0162809D02*
X0411233Y0162809D01*
X0411233Y0161811D02*
X0395533Y0161811D01*
X0395533Y0160812D02*
X0411233Y0160812D01*
X0411233Y0159814D02*
X0395533Y0159814D01*
X0395533Y0158815D02*
X0411233Y0158815D01*
X0411233Y0157817D02*
X0395533Y0157817D01*
X0395533Y0156818D02*
X0411233Y0156818D01*
X0411233Y0155820D02*
X0395533Y0155820D01*
X0395533Y0154821D02*
X0411233Y0154821D01*
X0411233Y0153823D02*
X0395533Y0153823D01*
X0395533Y0152824D02*
X0411233Y0152824D01*
X0411233Y0151826D02*
X0395533Y0151826D01*
X0395533Y0150827D02*
X0411233Y0150827D01*
X0411233Y0149829D02*
X0395533Y0149829D01*
X0395533Y0148830D02*
X0411233Y0148830D01*
X0411233Y0147832D02*
X0395533Y0147832D01*
X0395533Y0146833D02*
X0411233Y0146833D01*
X0411233Y0145835D02*
X0395533Y0145835D01*
X0395533Y0144836D02*
X0411233Y0144836D01*
X0411233Y0143838D02*
X0395533Y0143838D01*
X0395533Y0142839D02*
X0411233Y0142839D01*
X0411233Y0141841D02*
X0395533Y0141841D01*
X0395533Y0140842D02*
X0411233Y0140842D01*
X0411233Y0139844D02*
X0395533Y0139844D01*
X0395533Y0138845D02*
X0411233Y0138845D01*
X0411233Y0137847D02*
X0395533Y0137847D01*
X0395533Y0136848D02*
X0411233Y0136848D01*
X0411233Y0135850D02*
X0395533Y0135850D01*
X0395533Y0134851D02*
X0411233Y0134851D01*
X0411233Y0133853D02*
X0395533Y0133853D01*
X0391133Y0113882D02*
X0350327Y0113882D01*
X0349328Y0112884D02*
X0391133Y0112884D01*
X0391133Y0111885D02*
X0348330Y0111885D01*
X0347331Y0110887D02*
X0391133Y0110887D01*
X0391133Y0109888D02*
X0346333Y0109888D01*
X0345334Y0108890D02*
X0391133Y0108890D01*
X0391133Y0107891D02*
X0344336Y0107891D01*
X0343337Y0106893D02*
X0391133Y0106893D01*
X0391133Y0105894D02*
X0342339Y0105894D01*
X0341340Y0104896D02*
X0391133Y0104896D01*
X0391133Y0103897D02*
X0340342Y0103897D01*
X0339343Y0102899D02*
X0391133Y0102899D01*
X0391133Y0101900D02*
X0332870Y0101900D01*
X0331872Y0100902D02*
X0391133Y0100902D01*
X0391133Y0099903D02*
X0375607Y0099903D01*
X0376392Y0099578D02*
X0374407Y0100400D01*
X0372259Y0100400D01*
X0370274Y0099578D01*
X0368755Y0098059D01*
X0367933Y0096074D01*
X0367933Y0093926D01*
X0368755Y0091941D01*
X0370274Y0090422D01*
X0372259Y0089600D01*
X0374407Y0089600D01*
X0375266Y0089956D01*
X0381133Y0084089D01*
X0381133Y0050911D01*
X0377422Y0047200D01*
X0357545Y0047200D01*
X0350578Y0054167D01*
X0350933Y0055026D01*
X0350933Y0057174D01*
X0350111Y0059159D01*
X0348592Y0060678D01*
X0346607Y0061500D01*
X0344459Y0061500D01*
X0342474Y0060678D01*
X0340955Y0059159D01*
X0340133Y0057174D01*
X0340133Y0055026D01*
X0340955Y0053041D01*
X0342474Y0051522D01*
X0344459Y0050700D01*
X0346607Y0050700D01*
X0347466Y0051056D01*
X0355722Y0042800D01*
X0379245Y0042800D01*
X0380533Y0044089D01*
X0385533Y0049089D01*
X0385533Y0085911D01*
X0384245Y0087200D01*
X0378378Y0093067D01*
X0378733Y0093926D01*
X0378733Y0096074D01*
X0377911Y0098059D01*
X0376392Y0099578D01*
X0377065Y0098905D02*
X0391133Y0098905D01*
X0391133Y0097906D02*
X0377974Y0097906D01*
X0378388Y0096908D02*
X0391133Y0096908D01*
X0391133Y0095909D02*
X0378733Y0095909D01*
X0378733Y0094911D02*
X0391133Y0094911D01*
X0391133Y0093912D02*
X0378728Y0093912D01*
X0378531Y0092914D02*
X0391133Y0092914D01*
X0391133Y0091915D02*
X0379529Y0091915D01*
X0380528Y0090917D02*
X0391133Y0090917D01*
X0391133Y0089918D02*
X0381526Y0089918D01*
X0382525Y0088920D02*
X0391133Y0088920D01*
X0391133Y0087921D02*
X0383523Y0087921D01*
X0384522Y0086923D02*
X0391133Y0086923D01*
X0391133Y0085924D02*
X0385521Y0085924D01*
X0385533Y0084926D02*
X0391133Y0084926D01*
X0391133Y0083927D02*
X0385533Y0083927D01*
X0385533Y0082929D02*
X0391133Y0082929D01*
X0391133Y0081930D02*
X0385533Y0081930D01*
X0385533Y0080932D02*
X0391133Y0080932D01*
X0391133Y0079933D02*
X0385533Y0079933D01*
X0385533Y0078934D02*
X0391133Y0078934D01*
X0391133Y0077936D02*
X0385533Y0077936D01*
X0385533Y0076937D02*
X0391133Y0076937D01*
X0391133Y0075939D02*
X0385533Y0075939D01*
X0385533Y0074940D02*
X0391133Y0074940D01*
X0391133Y0073942D02*
X0385533Y0073942D01*
X0385533Y0072943D02*
X0391133Y0072943D01*
X0391133Y0071945D02*
X0385533Y0071945D01*
X0385533Y0070946D02*
X0391133Y0070946D01*
X0391133Y0069948D02*
X0385533Y0069948D01*
X0385533Y0068949D02*
X0391133Y0068949D01*
X0391133Y0067951D02*
X0385533Y0067951D01*
X0385533Y0066952D02*
X0391133Y0066952D01*
X0391133Y0065954D02*
X0385533Y0065954D01*
X0385533Y0064955D02*
X0391133Y0064955D01*
X0391133Y0063957D02*
X0385533Y0063957D01*
X0385533Y0062958D02*
X0391133Y0062958D01*
X0391133Y0061960D02*
X0385533Y0061960D01*
X0385533Y0060961D02*
X0391133Y0060961D01*
X0391133Y0059963D02*
X0385533Y0059963D01*
X0385533Y0058964D02*
X0391133Y0058964D01*
X0391133Y0057966D02*
X0385533Y0057966D01*
X0385533Y0056967D02*
X0391133Y0056967D01*
X0391133Y0055969D02*
X0385533Y0055969D01*
X0385533Y0054970D02*
X0391133Y0054970D01*
X0391133Y0053972D02*
X0385533Y0053972D01*
X0385533Y0052973D02*
X0391133Y0052973D01*
X0391133Y0051975D02*
X0385533Y0051975D01*
X0385533Y0050976D02*
X0391133Y0050976D01*
X0390200Y0049978D02*
X0385533Y0049978D01*
X0385424Y0048979D02*
X0389201Y0048979D01*
X0388203Y0047981D02*
X0384425Y0047981D01*
X0383427Y0046982D02*
X0387204Y0046982D01*
X0386206Y0045984D02*
X0382428Y0045984D01*
X0381430Y0044985D02*
X0385207Y0044985D01*
X0384209Y0043987D02*
X0380431Y0043987D01*
X0379433Y0042988D02*
X0383210Y0042988D01*
X0383333Y0040000D02*
X0073333Y0040000D01*
X0058333Y0055000D01*
X0054633Y0054970D02*
X0015433Y0054970D01*
X0015433Y0053972D02*
X0054754Y0053972D01*
X0055168Y0052973D02*
X0015433Y0052973D01*
X0015433Y0051975D02*
X0056126Y0051975D01*
X0059246Y0050976D02*
X0015433Y0050976D01*
X0015433Y0049978D02*
X0060244Y0049978D01*
X0061243Y0048979D02*
X0015433Y0048979D01*
X0015433Y0047981D02*
X0062241Y0047981D01*
X0063240Y0046982D02*
X0015433Y0046982D01*
X0015433Y0045984D02*
X0064238Y0045984D01*
X0065237Y0044985D02*
X0015433Y0044985D01*
X0015433Y0043987D02*
X0066235Y0043987D01*
X0067234Y0042988D02*
X0015433Y0042988D01*
X0015433Y0041990D02*
X0068232Y0041990D01*
X0069231Y0040991D02*
X0015433Y0040991D01*
X0015433Y0039993D02*
X0070229Y0039993D01*
X0071228Y0038994D02*
X0015433Y0038994D01*
X0015433Y0037996D02*
X0072227Y0037996D01*
X0073456Y0042988D02*
X0355534Y0042988D01*
X0354535Y0043987D02*
X0072458Y0043987D01*
X0071459Y0044985D02*
X0353537Y0044985D01*
X0352538Y0045984D02*
X0070461Y0045984D01*
X0069462Y0046982D02*
X0351540Y0046982D01*
X0350541Y0047981D02*
X0068464Y0047981D01*
X0067465Y0048979D02*
X0349543Y0048979D01*
X0348544Y0049978D02*
X0066467Y0049978D01*
X0065468Y0050976D02*
X0273792Y0050976D01*
X0274459Y0050700D02*
X0276607Y0050700D01*
X0278592Y0051522D01*
X0280111Y0053041D01*
X0280933Y0055026D01*
X0280933Y0057174D01*
X0280111Y0059159D01*
X0278592Y0060678D01*
X0276607Y0061500D01*
X0274459Y0061500D01*
X0272474Y0060678D01*
X0270955Y0059159D01*
X0270133Y0057174D01*
X0270133Y0055026D01*
X0270955Y0053041D01*
X0272474Y0051522D01*
X0274459Y0050700D01*
X0272022Y0051975D02*
X0202480Y0051975D01*
X0202435Y0051930D02*
X0204159Y0053654D01*
X0205092Y0055907D01*
X0205092Y0058345D01*
X0204159Y0060598D01*
X0202435Y0062322D01*
X0200182Y0063255D01*
X0197744Y0063255D01*
X0195491Y0062322D01*
X0193767Y0060598D01*
X0192834Y0058345D01*
X0192834Y0055907D01*
X0193767Y0053654D01*
X0195491Y0051930D01*
X0197744Y0050997D01*
X0200182Y0050997D01*
X0202435Y0051930D01*
X0203478Y0052973D02*
X0271023Y0052973D01*
X0270570Y0053972D02*
X0204291Y0053972D01*
X0204704Y0054970D02*
X0270156Y0054970D01*
X0270133Y0055969D02*
X0205092Y0055969D01*
X0205092Y0056967D02*
X0270133Y0056967D01*
X0270461Y0057966D02*
X0205092Y0057966D01*
X0204836Y0058964D02*
X0270875Y0058964D01*
X0271759Y0059963D02*
X0204422Y0059963D01*
X0203796Y0060961D02*
X0273159Y0060961D01*
X0277908Y0060961D02*
X0298759Y0060961D01*
X0298074Y0060678D02*
X0296555Y0059159D01*
X0295733Y0057174D01*
X0295733Y0055026D01*
X0296555Y0053041D01*
X0298074Y0051522D01*
X0300059Y0050700D01*
X0302207Y0050700D01*
X0304192Y0051522D01*
X0305711Y0053041D01*
X0306533Y0055026D01*
X0306533Y0057174D01*
X0305711Y0059159D01*
X0304192Y0060678D01*
X0302207Y0061500D01*
X0300059Y0061500D01*
X0298074Y0060678D01*
X0297359Y0059963D02*
X0279307Y0059963D01*
X0280192Y0058964D02*
X0296475Y0058964D01*
X0296061Y0057966D02*
X0280605Y0057966D01*
X0280933Y0056967D02*
X0295733Y0056967D01*
X0295733Y0055969D02*
X0280933Y0055969D01*
X0280910Y0054970D02*
X0295756Y0054970D01*
X0296170Y0053972D02*
X0280497Y0053972D01*
X0280043Y0052973D02*
X0296623Y0052973D01*
X0297622Y0051975D02*
X0279045Y0051975D01*
X0277274Y0050976D02*
X0299392Y0050976D01*
X0302874Y0050976D02*
X0343792Y0050976D01*
X0342022Y0051975D02*
X0304645Y0051975D01*
X0305643Y0052973D02*
X0341023Y0052973D01*
X0340570Y0053972D02*
X0306097Y0053972D01*
X0306510Y0054970D02*
X0340156Y0054970D01*
X0340133Y0055969D02*
X0306533Y0055969D01*
X0306533Y0056967D02*
X0340133Y0056967D01*
X0340461Y0057966D02*
X0306205Y0057966D01*
X0305792Y0058964D02*
X0340875Y0058964D01*
X0341759Y0059963D02*
X0304907Y0059963D01*
X0303508Y0060961D02*
X0343159Y0060961D01*
X0347908Y0060961D02*
X0368759Y0060961D01*
X0368074Y0060678D02*
X0366555Y0059159D01*
X0365733Y0057174D01*
X0365733Y0055026D01*
X0366555Y0053041D01*
X0368074Y0051522D01*
X0370059Y0050700D01*
X0372207Y0050700D01*
X0374192Y0051522D01*
X0375711Y0053041D01*
X0376533Y0055026D01*
X0376533Y0057174D01*
X0375711Y0059159D01*
X0374192Y0060678D01*
X0372207Y0061500D01*
X0370059Y0061500D01*
X0368074Y0060678D01*
X0367359Y0059963D02*
X0349307Y0059963D01*
X0350192Y0058964D02*
X0366475Y0058964D01*
X0366061Y0057966D02*
X0350605Y0057966D01*
X0350933Y0056967D02*
X0365733Y0056967D01*
X0365733Y0055969D02*
X0350933Y0055969D01*
X0350910Y0054970D02*
X0365756Y0054970D01*
X0366170Y0053972D02*
X0350773Y0053972D01*
X0351771Y0052973D02*
X0366623Y0052973D01*
X0367622Y0051975D02*
X0352770Y0051975D01*
X0353768Y0050976D02*
X0369392Y0050976D01*
X0372874Y0050976D02*
X0381133Y0050976D01*
X0381133Y0051975D02*
X0374645Y0051975D01*
X0375643Y0052973D02*
X0381133Y0052973D01*
X0381133Y0053972D02*
X0376097Y0053972D01*
X0376510Y0054970D02*
X0381133Y0054970D01*
X0381133Y0055969D02*
X0376533Y0055969D01*
X0376533Y0056967D02*
X0381133Y0056967D01*
X0381133Y0057966D02*
X0376205Y0057966D01*
X0375792Y0058964D02*
X0381133Y0058964D01*
X0381133Y0059963D02*
X0374907Y0059963D01*
X0373508Y0060961D02*
X0381133Y0060961D01*
X0381133Y0061960D02*
X0202797Y0061960D01*
X0200899Y0062958D02*
X0381133Y0062958D01*
X0381133Y0063957D02*
X0015433Y0063957D01*
X0015433Y0064955D02*
X0381133Y0064955D01*
X0381133Y0067951D02*
X0272837Y0067951D01*
X0277692Y0068949D02*
X0298974Y0068949D01*
X0298074Y0069322D02*
X0300059Y0068500D01*
X0302207Y0068500D01*
X0304192Y0069322D01*
X0305711Y0070841D01*
X0306533Y0072826D01*
X0306533Y0074974D01*
X0305711Y0076959D01*
X0304192Y0078478D01*
X0302207Y0079300D01*
X0300059Y0079300D01*
X0298074Y0078478D01*
X0296555Y0076959D01*
X0295733Y0074974D01*
X0295733Y0072826D01*
X0296555Y0070841D01*
X0298074Y0069322D01*
X0297449Y0069948D02*
X0279218Y0069948D01*
X0280155Y0070946D02*
X0296512Y0070946D01*
X0296098Y0071945D02*
X0280568Y0071945D01*
X0280933Y0072943D02*
X0295733Y0072943D01*
X0295733Y0073942D02*
X0280933Y0073942D01*
X0280933Y0074940D02*
X0295733Y0074940D01*
X0296133Y0075939D02*
X0280825Y0075939D01*
X0281823Y0076937D02*
X0296547Y0076937D01*
X0297533Y0077936D02*
X0282822Y0077936D01*
X0283820Y0078934D02*
X0299177Y0078934D01*
X0303090Y0078934D02*
X0336146Y0078934D01*
X0337145Y0077936D02*
X0304734Y0077936D01*
X0305720Y0076937D02*
X0338143Y0076937D01*
X0339142Y0075939D02*
X0306134Y0075939D01*
X0306533Y0074940D02*
X0340133Y0074940D01*
X0340133Y0073942D02*
X0306533Y0073942D01*
X0306533Y0072943D02*
X0340133Y0072943D01*
X0340498Y0071945D02*
X0306168Y0071945D01*
X0305755Y0070946D02*
X0340912Y0070946D01*
X0341849Y0069948D02*
X0304818Y0069948D01*
X0303292Y0068949D02*
X0343374Y0068949D01*
X0347692Y0068949D02*
X0368974Y0068949D01*
X0368074Y0069322D02*
X0370059Y0068500D01*
X0372207Y0068500D01*
X0374192Y0069322D01*
X0375711Y0070841D01*
X0376533Y0072826D01*
X0376533Y0074974D01*
X0375711Y0076959D01*
X0374192Y0078478D01*
X0372207Y0079300D01*
X0370059Y0079300D01*
X0368074Y0078478D01*
X0366555Y0076959D01*
X0365733Y0074974D01*
X0365733Y0072826D01*
X0366555Y0070841D01*
X0368074Y0069322D01*
X0367449Y0069948D02*
X0349218Y0069948D01*
X0350155Y0070946D02*
X0366512Y0070946D01*
X0366098Y0071945D02*
X0350568Y0071945D01*
X0350933Y0072943D02*
X0365733Y0072943D01*
X0365733Y0073942D02*
X0350933Y0073942D01*
X0350933Y0074940D02*
X0365733Y0074940D01*
X0366133Y0075939D02*
X0350534Y0075939D01*
X0350120Y0076937D02*
X0366547Y0076937D01*
X0367533Y0077936D02*
X0349134Y0077936D01*
X0347490Y0078934D02*
X0369177Y0078934D01*
X0373090Y0078934D02*
X0381133Y0078934D01*
X0381133Y0077936D02*
X0374734Y0077936D01*
X0375720Y0076937D02*
X0381133Y0076937D01*
X0381133Y0075939D02*
X0376134Y0075939D01*
X0376533Y0074940D02*
X0381133Y0074940D01*
X0381133Y0073942D02*
X0376533Y0073942D01*
X0376533Y0072943D02*
X0381133Y0072943D01*
X0381133Y0071945D02*
X0376168Y0071945D01*
X0375755Y0070946D02*
X0381133Y0070946D01*
X0381133Y0069948D02*
X0374818Y0069948D01*
X0373292Y0068949D02*
X0381133Y0068949D01*
X0381133Y0079933D02*
X0341653Y0079933D01*
X0342652Y0078934D02*
X0343577Y0078934D01*
X0340654Y0080932D02*
X0381133Y0080932D01*
X0381133Y0081930D02*
X0339656Y0081930D01*
X0338657Y0082929D02*
X0381133Y0082929D01*
X0381133Y0083927D02*
X0337659Y0083927D01*
X0336660Y0084926D02*
X0380296Y0084926D01*
X0379298Y0085924D02*
X0335662Y0085924D01*
X0334663Y0086923D02*
X0378299Y0086923D01*
X0377301Y0087921D02*
X0253665Y0087921D01*
X0254663Y0086923D02*
X0285303Y0086923D01*
X0284305Y0085924D02*
X0255662Y0085924D01*
X0256660Y0084926D02*
X0283306Y0084926D01*
X0282308Y0083927D02*
X0257659Y0083927D01*
X0258657Y0082929D02*
X0281309Y0082929D01*
X0280311Y0081930D02*
X0259656Y0081930D01*
X0260654Y0080932D02*
X0279312Y0080932D01*
X0278314Y0079933D02*
X0261653Y0079933D01*
X0262652Y0078934D02*
X0273577Y0078934D01*
X0271933Y0077936D02*
X0263650Y0077936D01*
X0264649Y0076937D02*
X0270947Y0076937D01*
X0270533Y0075939D02*
X0265647Y0075939D01*
X0266646Y0074940D02*
X0270133Y0074940D01*
X0270133Y0073942D02*
X0267644Y0073942D01*
X0268643Y0072943D02*
X0270133Y0072943D01*
X0266131Y0068949D02*
X0203424Y0068949D01*
X0203486Y0069011D02*
X0204034Y0069766D01*
X0204458Y0070598D01*
X0204746Y0071486D01*
X0204887Y0072374D01*
X0199463Y0072374D01*
X0199463Y0066950D01*
X0200352Y0067091D01*
X0201239Y0067379D01*
X0202071Y0067803D01*
X0202826Y0068352D01*
X0203486Y0069011D01*
X0204127Y0069948D02*
X0265133Y0069948D01*
X0264134Y0070946D02*
X0204571Y0070946D01*
X0204819Y0071945D02*
X0263136Y0071945D01*
X0262137Y0072943D02*
X0199463Y0072943D01*
X0199463Y0073374D02*
X0204887Y0073374D01*
X0204746Y0074262D01*
X0204458Y0075150D01*
X0204034Y0075982D01*
X0203486Y0076737D01*
X0202826Y0077396D01*
X0202071Y0077945D01*
X0201239Y0078369D01*
X0200352Y0078657D01*
X0199463Y0078798D01*
X0199463Y0073374D01*
X0198463Y0073374D01*
X0198463Y0072374D01*
X0199463Y0072374D01*
X0199463Y0073374D01*
X0199463Y0073942D02*
X0198463Y0073942D01*
X0198463Y0073374D02*
X0198463Y0078798D01*
X0197575Y0078657D01*
X0196687Y0078369D01*
X0195856Y0077945D01*
X0195101Y0077396D01*
X0194441Y0076737D01*
X0193892Y0075982D01*
X0193469Y0075150D01*
X0193180Y0074262D01*
X0193039Y0073374D01*
X0198463Y0073374D01*
X0198463Y0072943D02*
X0054529Y0072943D01*
X0053531Y0071945D02*
X0193107Y0071945D01*
X0193355Y0070946D02*
X0052532Y0070946D01*
X0051534Y0069948D02*
X0193800Y0069948D01*
X0194503Y0068949D02*
X0050535Y0068949D01*
X0049537Y0067951D02*
X0195652Y0067951D01*
X0198463Y0067951D02*
X0199463Y0067951D01*
X0199463Y0068949D02*
X0198463Y0068949D01*
X0198463Y0069948D02*
X0199463Y0069948D01*
X0199463Y0070946D02*
X0198463Y0070946D01*
X0198463Y0071945D02*
X0199463Y0071945D01*
X0199463Y0074940D02*
X0198463Y0074940D01*
X0198463Y0075939D02*
X0199463Y0075939D01*
X0199463Y0076937D02*
X0198463Y0076937D01*
X0198463Y0077936D02*
X0199463Y0077936D01*
X0202083Y0077936D02*
X0257145Y0077936D01*
X0258143Y0076937D02*
X0203285Y0076937D01*
X0204056Y0075939D02*
X0259142Y0075939D01*
X0260140Y0074940D02*
X0204526Y0074940D01*
X0204797Y0073942D02*
X0261139Y0073942D01*
X0256146Y0078934D02*
X0060521Y0078934D01*
X0061519Y0079933D02*
X0255148Y0079933D01*
X0254149Y0080932D02*
X0062518Y0080932D01*
X0063516Y0081930D02*
X0253151Y0081930D01*
X0252666Y0088920D02*
X0376302Y0088920D01*
X0375304Y0089918D02*
X0375175Y0089918D01*
X0371491Y0089918D02*
X0344488Y0089918D01*
X0344551Y0089928D02*
X0345329Y0090181D01*
X0346059Y0090553D01*
X0346721Y0091034D01*
X0347300Y0091612D01*
X0347781Y0092275D01*
X0348152Y0093004D01*
X0348405Y0093782D01*
X0348533Y0094591D01*
X0348533Y0094614D01*
X0343719Y0094614D01*
X0343719Y0089800D01*
X0343743Y0089800D01*
X0344551Y0089928D01*
X0343719Y0089918D02*
X0342947Y0089918D01*
X0342947Y0089800D02*
X0342947Y0094614D01*
X0338133Y0094614D01*
X0338133Y0094591D01*
X0338261Y0093782D01*
X0338514Y0093004D01*
X0338886Y0092275D01*
X0339367Y0091612D01*
X0339946Y0091034D01*
X0340608Y0090553D01*
X0341337Y0090181D01*
X0342116Y0089928D01*
X0342924Y0089800D01*
X0342947Y0089800D01*
X0342178Y0089918D02*
X0304488Y0089918D01*
X0304551Y0089928D02*
X0305329Y0090181D01*
X0306059Y0090553D01*
X0306721Y0091034D01*
X0307300Y0091612D01*
X0307781Y0092275D01*
X0308152Y0093004D01*
X0308405Y0093782D01*
X0308533Y0094591D01*
X0308533Y0094614D01*
X0303719Y0094614D01*
X0303719Y0089800D01*
X0303743Y0089800D01*
X0304551Y0089928D01*
X0303719Y0089918D02*
X0302947Y0089918D01*
X0302947Y0089800D02*
X0302947Y0094614D01*
X0298133Y0094614D01*
X0298133Y0094591D01*
X0298261Y0093782D01*
X0298514Y0093004D01*
X0298886Y0092275D01*
X0299367Y0091612D01*
X0299946Y0091034D01*
X0300608Y0090553D01*
X0301337Y0090181D01*
X0302116Y0089928D01*
X0302924Y0089800D01*
X0302947Y0089800D01*
X0302178Y0089918D02*
X0275175Y0089918D01*
X0276887Y0090917D02*
X0300107Y0090917D01*
X0299147Y0091915D02*
X0277885Y0091915D01*
X0278314Y0092914D02*
X0298560Y0092914D01*
X0298241Y0093912D02*
X0278728Y0093912D01*
X0278733Y0094911D02*
X0302947Y0094911D01*
X0302947Y0094614D02*
X0302947Y0095386D01*
X0298133Y0095386D01*
X0298133Y0095409D01*
X0298261Y0096218D01*
X0298514Y0096996D01*
X0298886Y0097725D01*
X0299367Y0098388D01*
X0299946Y0098966D01*
X0300608Y0099447D01*
X0301337Y0099819D01*
X0302116Y0100072D01*
X0302924Y0100200D01*
X0302947Y0100200D01*
X0302947Y0095386D01*
X0303719Y0095386D01*
X0303719Y0100200D01*
X0303743Y0100200D01*
X0304551Y0100072D01*
X0305329Y0099819D01*
X0306059Y0099447D01*
X0306721Y0098966D01*
X0307300Y0098388D01*
X0307781Y0097725D01*
X0308152Y0096996D01*
X0308405Y0096218D01*
X0308533Y0095409D01*
X0308533Y0095386D01*
X0303719Y0095386D01*
X0303719Y0094614D01*
X0302947Y0094614D01*
X0302947Y0093912D02*
X0303719Y0093912D01*
X0303719Y0092914D02*
X0302947Y0092914D01*
X0302947Y0091915D02*
X0303719Y0091915D01*
X0303719Y0090917D02*
X0302947Y0090917D01*
X0306560Y0090917D02*
X0340107Y0090917D01*
X0339147Y0091915D02*
X0307520Y0091915D01*
X0308106Y0092914D02*
X0338560Y0092914D01*
X0338241Y0093912D02*
X0308426Y0093912D01*
X0308454Y0095909D02*
X0338213Y0095909D01*
X0338261Y0096218D02*
X0338133Y0095409D01*
X0338133Y0095386D01*
X0342947Y0095386D01*
X0342947Y0094614D01*
X0343719Y0094614D01*
X0343719Y0095386D01*
X0342947Y0095386D01*
X0342947Y0100200D01*
X0342924Y0100200D01*
X0342116Y0100072D01*
X0341337Y0099819D01*
X0340608Y0099447D01*
X0339946Y0098966D01*
X0339367Y0098388D01*
X0338886Y0097725D01*
X0338514Y0096996D01*
X0338261Y0096218D01*
X0338486Y0096908D02*
X0308181Y0096908D01*
X0307649Y0097906D02*
X0339017Y0097906D01*
X0339884Y0098905D02*
X0306782Y0098905D01*
X0305070Y0099903D02*
X0326527Y0099903D01*
X0324795Y0100902D02*
X0261872Y0100902D01*
X0261392Y0100422D02*
X0262911Y0101941D01*
X0263733Y0103926D01*
X0263733Y0106074D01*
X0262911Y0108059D01*
X0261392Y0109578D01*
X0259407Y0110400D01*
X0257259Y0110400D01*
X0255274Y0109578D01*
X0253755Y0108059D01*
X0252933Y0106074D01*
X0252933Y0103926D01*
X0253755Y0101941D01*
X0255274Y0100422D01*
X0257259Y0099600D01*
X0259407Y0099600D01*
X0261392Y0100422D01*
X0260140Y0099903D02*
X0271060Y0099903D01*
X0269601Y0098905D02*
X0252540Y0098905D01*
X0251541Y0099903D02*
X0256527Y0099903D01*
X0254795Y0100902D02*
X0250543Y0100902D01*
X0250533Y0101900D02*
X0253796Y0101900D01*
X0253359Y0102899D02*
X0250533Y0102899D01*
X0250533Y0103897D02*
X0252945Y0103897D01*
X0252933Y0104896D02*
X0250533Y0104896D01*
X0250533Y0105894D02*
X0252933Y0105894D01*
X0253272Y0106893D02*
X0250533Y0106893D01*
X0250533Y0107891D02*
X0253686Y0107891D01*
X0254586Y0108890D02*
X0250533Y0108890D01*
X0250533Y0109888D02*
X0256024Y0109888D01*
X0260643Y0109888D02*
X0326024Y0109888D01*
X0324586Y0108890D02*
X0262080Y0108890D01*
X0262981Y0107891D02*
X0323686Y0107891D01*
X0323272Y0106893D02*
X0263394Y0106893D01*
X0263733Y0105894D02*
X0322933Y0105894D01*
X0322933Y0104896D02*
X0263733Y0104896D01*
X0263721Y0103897D02*
X0322945Y0103897D01*
X0323359Y0102899D02*
X0263308Y0102899D01*
X0262870Y0101900D02*
X0323796Y0101900D01*
X0328333Y0105000D02*
X0338333Y0105000D01*
X0353333Y0120000D01*
X0349564Y0123868D02*
X0296820Y0123868D01*
X0296721Y0123966D02*
X0296059Y0124447D01*
X0295329Y0124819D01*
X0294551Y0125072D01*
X0293743Y0125200D01*
X0293633Y0125200D01*
X0293633Y0120300D01*
X0298533Y0120300D01*
X0298533Y0120409D01*
X0298405Y0121218D01*
X0298152Y0121996D01*
X0297781Y0122725D01*
X0297300Y0123388D01*
X0296721Y0123966D01*
X0297676Y0122869D02*
X0348677Y0122869D01*
X0348263Y0121870D02*
X0298193Y0121870D01*
X0298460Y0120872D02*
X0347933Y0120872D01*
X0347933Y0119873D02*
X0293633Y0119873D01*
X0293633Y0118875D02*
X0293033Y0118875D01*
X0293033Y0117876D02*
X0293633Y0117876D01*
X0293633Y0116878D02*
X0293033Y0116878D01*
X0293033Y0115879D02*
X0293633Y0115879D01*
X0293633Y0114881D02*
X0293033Y0114881D01*
X0292413Y0114881D02*
X0285086Y0114881D01*
X0286849Y0115879D02*
X0290158Y0115879D01*
X0289174Y0116878D02*
X0287848Y0116878D01*
X0288299Y0117876D02*
X0288579Y0117876D01*
X0288473Y0121870D02*
X0288403Y0121870D01*
X0287990Y0122869D02*
X0288990Y0122869D01*
X0289847Y0123868D02*
X0287103Y0123868D01*
X0285697Y0124866D02*
X0291482Y0124866D01*
X0293033Y0124866D02*
X0293633Y0124866D01*
X0293633Y0123868D02*
X0293033Y0123868D01*
X0293033Y0122869D02*
X0293633Y0122869D01*
X0293633Y0121870D02*
X0293033Y0121870D01*
X0293033Y0120872D02*
X0293633Y0120872D01*
X0295185Y0124866D02*
X0350970Y0124866D01*
X0347954Y0118875D02*
X0298420Y0118875D01*
X0298087Y0117876D02*
X0348098Y0117876D01*
X0347100Y0116878D02*
X0297493Y0116878D01*
X0296509Y0115879D02*
X0346101Y0115879D01*
X0345103Y0114881D02*
X0294253Y0114881D01*
X0283333Y0120000D02*
X0268333Y0135000D01*
X0258333Y0135000D01*
X0254542Y0138845D02*
X0250533Y0138845D01*
X0250533Y0137847D02*
X0253668Y0137847D01*
X0253254Y0136848D02*
X0250533Y0136848D01*
X0250533Y0135850D02*
X0252933Y0135850D01*
X0252933Y0134851D02*
X0250533Y0134851D01*
X0250533Y0133853D02*
X0252964Y0133853D01*
X0253377Y0132854D02*
X0250533Y0132854D01*
X0250533Y0131856D02*
X0253841Y0131856D01*
X0254839Y0130857D02*
X0250533Y0130857D01*
X0250533Y0129859D02*
X0256635Y0129859D01*
X0260032Y0129859D02*
X0270363Y0129859D01*
X0269365Y0130857D02*
X0261827Y0130857D01*
X0262826Y0131856D02*
X0268366Y0131856D01*
X0271362Y0128860D02*
X0250533Y0128860D01*
X0250533Y0127862D02*
X0272360Y0127862D01*
X0273359Y0126863D02*
X0250533Y0126863D01*
X0250533Y0125865D02*
X0274358Y0125865D01*
X0275356Y0124866D02*
X0250533Y0124866D01*
X0250533Y0123868D02*
X0276355Y0123868D01*
X0277353Y0122869D02*
X0250533Y0122869D01*
X0250533Y0121870D02*
X0278263Y0121870D01*
X0277933Y0120872D02*
X0250533Y0120872D01*
X0250533Y0119873D02*
X0277933Y0119873D01*
X0277954Y0118875D02*
X0250533Y0118875D01*
X0250533Y0117876D02*
X0278368Y0117876D01*
X0278819Y0116878D02*
X0250533Y0116878D01*
X0250533Y0115879D02*
X0279817Y0115879D01*
X0281581Y0114881D02*
X0250533Y0114881D01*
X0250533Y0113882D02*
X0344104Y0113882D01*
X0343106Y0112884D02*
X0250533Y0112884D01*
X0250533Y0111885D02*
X0342107Y0111885D01*
X0341109Y0110887D02*
X0250533Y0110887D01*
X0246133Y0110887D02*
X0245633Y0110887D01*
X0245633Y0111885D02*
X0246133Y0111885D01*
X0246133Y0112884D02*
X0245633Y0112884D01*
X0245633Y0113882D02*
X0246133Y0113882D01*
X0246133Y0114881D02*
X0245633Y0114881D01*
X0245633Y0115879D02*
X0246133Y0115879D01*
X0246133Y0116878D02*
X0245633Y0116878D01*
X0245633Y0117876D02*
X0246133Y0117876D01*
X0246133Y0118875D02*
X0245633Y0118875D01*
X0245633Y0119873D02*
X0246133Y0119873D01*
X0246133Y0120872D02*
X0245633Y0120872D01*
X0245633Y0121870D02*
X0246133Y0121870D01*
X0246133Y0122869D02*
X0245633Y0122869D01*
X0245633Y0123868D02*
X0246133Y0123868D01*
X0246133Y0124866D02*
X0245633Y0124866D01*
X0245633Y0125865D02*
X0246133Y0125865D01*
X0246133Y0126863D02*
X0245633Y0126863D01*
X0245633Y0127862D02*
X0246133Y0127862D01*
X0246133Y0128860D02*
X0245633Y0128860D01*
X0245633Y0129859D02*
X0246133Y0129859D01*
X0246133Y0130857D02*
X0245633Y0130857D01*
X0245633Y0131856D02*
X0246133Y0131856D01*
X0246133Y0132854D02*
X0245633Y0132854D01*
X0245633Y0133853D02*
X0246133Y0133853D01*
X0246133Y0134851D02*
X0245633Y0134851D01*
X0245633Y0135850D02*
X0246133Y0135850D01*
X0246133Y0136848D02*
X0245633Y0136848D01*
X0245633Y0137847D02*
X0246133Y0137847D01*
X0246133Y0138845D02*
X0245633Y0138845D01*
X0245633Y0139844D02*
X0246133Y0139844D01*
X0246133Y0140842D02*
X0245633Y0140842D01*
X0245633Y0141841D02*
X0247063Y0141841D01*
X0248061Y0142839D02*
X0245633Y0142839D01*
X0245633Y0143838D02*
X0249060Y0143838D01*
X0250058Y0144836D02*
X0245633Y0144836D01*
X0245633Y0145835D02*
X0251057Y0145835D01*
X0251133Y0146833D02*
X0245633Y0146833D01*
X0245633Y0147832D02*
X0251133Y0147832D01*
X0251133Y0148830D02*
X0245633Y0148830D01*
X0245633Y0149829D02*
X0251133Y0149829D01*
X0251133Y0150827D02*
X0245633Y0150827D01*
X0245633Y0151826D02*
X0251133Y0151826D01*
X0251133Y0152824D02*
X0245633Y0152824D01*
X0245633Y0153823D02*
X0251133Y0153823D01*
X0251133Y0154821D02*
X0245633Y0154821D01*
X0245633Y0155820D02*
X0251133Y0155820D01*
X0251133Y0156818D02*
X0245633Y0156818D01*
X0245633Y0157817D02*
X0250284Y0157817D01*
X0249819Y0158815D02*
X0245633Y0158815D01*
X0246400Y0159814D02*
X0249633Y0159814D01*
X0249665Y0160812D02*
X0247398Y0160812D01*
X0248397Y0161811D02*
X0250079Y0161811D01*
X0253333Y0160000D02*
X0253333Y0145000D01*
X0248333Y0140000D01*
X0248333Y0100000D01*
X0253333Y0095000D01*
X0273333Y0095000D01*
X0277065Y0098905D02*
X0299884Y0098905D01*
X0299017Y0097906D02*
X0277974Y0097906D01*
X0278388Y0096908D02*
X0298486Y0096908D01*
X0298213Y0095909D02*
X0278733Y0095909D01*
X0275607Y0099903D02*
X0301596Y0099903D01*
X0302947Y0099903D02*
X0303719Y0099903D01*
X0303719Y0098905D02*
X0302947Y0098905D01*
X0302947Y0097906D02*
X0303719Y0097906D01*
X0303719Y0096908D02*
X0302947Y0096908D01*
X0302947Y0095909D02*
X0303719Y0095909D01*
X0303719Y0094911D02*
X0342947Y0094911D01*
X0343719Y0094911D02*
X0367933Y0094911D01*
X0367933Y0095909D02*
X0348454Y0095909D01*
X0348405Y0096218D02*
X0348152Y0096996D01*
X0347781Y0097725D01*
X0347300Y0098388D01*
X0346721Y0098966D01*
X0346059Y0099447D01*
X0345329Y0099819D01*
X0344551Y0100072D01*
X0343743Y0100200D01*
X0343719Y0100200D01*
X0343719Y0095386D01*
X0348533Y0095386D01*
X0348533Y0095409D01*
X0348405Y0096218D01*
X0348181Y0096908D02*
X0368279Y0096908D01*
X0368692Y0097906D02*
X0347649Y0097906D01*
X0346782Y0098905D02*
X0369601Y0098905D01*
X0371060Y0099903D02*
X0345070Y0099903D01*
X0343719Y0099903D02*
X0342947Y0099903D01*
X0342947Y0098905D02*
X0343719Y0098905D01*
X0343719Y0097906D02*
X0342947Y0097906D01*
X0342947Y0096908D02*
X0343719Y0096908D01*
X0343719Y0095909D02*
X0342947Y0095909D01*
X0342947Y0093912D02*
X0343719Y0093912D01*
X0343719Y0092914D02*
X0342947Y0092914D01*
X0342947Y0091915D02*
X0343719Y0091915D01*
X0343719Y0090917D02*
X0342947Y0090917D01*
X0346560Y0090917D02*
X0369780Y0090917D01*
X0368781Y0091915D02*
X0347520Y0091915D01*
X0348106Y0092914D02*
X0368353Y0092914D01*
X0367939Y0093912D02*
X0348426Y0093912D01*
X0341596Y0099903D02*
X0330140Y0099903D01*
X0332981Y0107891D02*
X0338113Y0107891D01*
X0339112Y0108890D02*
X0332080Y0108890D01*
X0330643Y0109888D02*
X0340110Y0109888D01*
X0351326Y0114881D02*
X0351581Y0114881D01*
X0373333Y0095000D02*
X0383333Y0085000D01*
X0383333Y0050000D01*
X0378333Y0045000D01*
X0356633Y0045000D01*
X0345533Y0056100D01*
X0347274Y0050976D02*
X0347546Y0050976D01*
X0354767Y0049978D02*
X0380200Y0049978D01*
X0379201Y0048979D02*
X0355765Y0048979D01*
X0356764Y0047981D02*
X0378203Y0047981D01*
X0411233Y0037100D02*
X0015433Y0037100D01*
X0015433Y0407900D01*
X0411233Y0407900D01*
X0411233Y0037100D01*
X0335148Y0079933D02*
X0284819Y0079933D01*
X0285818Y0080932D02*
X0334149Y0080932D01*
X0333151Y0081930D02*
X0286816Y0081930D01*
X0271491Y0089918D02*
X0251668Y0089918D01*
X0250669Y0090917D02*
X0269780Y0090917D01*
X0268781Y0091915D02*
X0249671Y0091915D01*
X0248672Y0092914D02*
X0252308Y0092914D01*
X0251310Y0093912D02*
X0247674Y0093912D01*
X0246675Y0094911D02*
X0250311Y0094911D01*
X0249313Y0095909D02*
X0245677Y0095909D01*
X0245633Y0096908D02*
X0248314Y0096908D01*
X0247316Y0097906D02*
X0245633Y0097906D01*
X0245633Y0098905D02*
X0246317Y0098905D01*
X0246133Y0099903D02*
X0245633Y0099903D01*
X0245633Y0100902D02*
X0246133Y0100902D01*
X0246133Y0101900D02*
X0245633Y0101900D01*
X0245633Y0102899D02*
X0246133Y0102899D01*
X0246133Y0103897D02*
X0245633Y0103897D01*
X0245633Y0104896D02*
X0246133Y0104896D01*
X0246133Y0105894D02*
X0245633Y0105894D01*
X0245633Y0106893D02*
X0246133Y0106893D01*
X0246133Y0107891D02*
X0245633Y0107891D01*
X0245633Y0108890D02*
X0246133Y0108890D01*
X0246133Y0109888D02*
X0245633Y0109888D01*
X0241033Y0110887D02*
X0218974Y0110887D01*
X0220046Y0111885D02*
X0241033Y0111885D01*
X0241033Y0112884D02*
X0220662Y0112884D01*
X0221014Y0113882D02*
X0241033Y0113882D01*
X0253538Y0097906D02*
X0268692Y0097906D01*
X0247160Y0087921D02*
X0020633Y0087921D01*
X0016033Y0087921D02*
X0015433Y0087921D01*
X0015433Y0086923D02*
X0016033Y0086923D01*
X0016033Y0085924D02*
X0015433Y0085924D01*
X0015433Y0084926D02*
X0016033Y0084926D01*
X0016033Y0083927D02*
X0015433Y0083927D01*
X0015433Y0082929D02*
X0016033Y0082929D01*
X0016033Y0081930D02*
X0015433Y0081930D01*
X0015433Y0080932D02*
X0016393Y0080932D01*
X0015433Y0079933D02*
X0017392Y0079933D01*
X0018390Y0078934D02*
X0015433Y0078934D01*
X0015433Y0077936D02*
X0019389Y0077936D01*
X0020387Y0076937D02*
X0015433Y0076937D01*
X0015433Y0075939D02*
X0021386Y0075939D01*
X0024896Y0078934D02*
X0026319Y0078934D01*
X0016033Y0088920D02*
X0015433Y0088920D01*
X0015433Y0089918D02*
X0016033Y0089918D01*
X0016033Y0090917D02*
X0015433Y0090917D01*
X0015433Y0091915D02*
X0016033Y0091915D01*
X0016033Y0092914D02*
X0015433Y0092914D01*
X0015433Y0093912D02*
X0016033Y0093912D01*
X0016033Y0094911D02*
X0015433Y0094911D01*
X0015433Y0095909D02*
X0016033Y0095909D01*
X0016033Y0096908D02*
X0015433Y0096908D01*
X0015433Y0097906D02*
X0016033Y0097906D01*
X0016033Y0098905D02*
X0015433Y0098905D01*
X0015433Y0099903D02*
X0016033Y0099903D01*
X0016033Y0100902D02*
X0015433Y0100902D01*
X0015433Y0101900D02*
X0016033Y0101900D01*
X0016033Y0102899D02*
X0015433Y0102899D01*
X0015433Y0103897D02*
X0016033Y0103897D01*
X0016033Y0104896D02*
X0015433Y0104896D01*
X0015433Y0105894D02*
X0016033Y0105894D01*
X0016033Y0106893D02*
X0015433Y0106893D01*
X0015433Y0107891D02*
X0016033Y0107891D01*
X0016033Y0108890D02*
X0015433Y0108890D01*
X0015433Y0109888D02*
X0016033Y0109888D01*
X0016033Y0110887D02*
X0015433Y0110887D01*
X0015433Y0111885D02*
X0016033Y0111885D01*
X0016033Y0112884D02*
X0015433Y0112884D01*
X0015433Y0113882D02*
X0016033Y0113882D01*
X0016033Y0114881D02*
X0015433Y0114881D01*
X0015433Y0115879D02*
X0016033Y0115879D01*
X0016033Y0116878D02*
X0015433Y0116878D01*
X0015433Y0117876D02*
X0016033Y0117876D01*
X0016033Y0118875D02*
X0015433Y0118875D01*
X0015433Y0119873D02*
X0016033Y0119873D01*
X0016033Y0120872D02*
X0015433Y0120872D01*
X0015433Y0121870D02*
X0016033Y0121870D01*
X0016033Y0122869D02*
X0015433Y0122869D01*
X0015433Y0123868D02*
X0016033Y0123868D01*
X0016033Y0124866D02*
X0015433Y0124866D01*
X0015433Y0125865D02*
X0016033Y0125865D01*
X0016033Y0126863D02*
X0015433Y0126863D01*
X0015433Y0127862D02*
X0016033Y0127862D01*
X0016033Y0128860D02*
X0015433Y0128860D01*
X0015433Y0129859D02*
X0016033Y0129859D01*
X0016033Y0130857D02*
X0015433Y0130857D01*
X0015433Y0131856D02*
X0016033Y0131856D01*
X0016033Y0132854D02*
X0015433Y0132854D01*
X0015433Y0133853D02*
X0016033Y0133853D01*
X0016033Y0134851D02*
X0015433Y0134851D01*
X0015433Y0135850D02*
X0016033Y0135850D01*
X0016033Y0136848D02*
X0015433Y0136848D01*
X0015433Y0137847D02*
X0016033Y0137847D01*
X0016033Y0138845D02*
X0015433Y0138845D01*
X0015433Y0139844D02*
X0016033Y0139844D01*
X0016033Y0140842D02*
X0015433Y0140842D01*
X0015433Y0141841D02*
X0016033Y0141841D01*
X0016033Y0142839D02*
X0015433Y0142839D01*
X0015433Y0143838D02*
X0016033Y0143838D01*
X0016033Y0144836D02*
X0015433Y0144836D01*
X0015433Y0145835D02*
X0016033Y0145835D01*
X0016033Y0146833D02*
X0015433Y0146833D01*
X0015433Y0147832D02*
X0016033Y0147832D01*
X0016033Y0148830D02*
X0015433Y0148830D01*
X0015433Y0149829D02*
X0016033Y0149829D01*
X0016033Y0150827D02*
X0015433Y0150827D01*
X0015433Y0151826D02*
X0016033Y0151826D01*
X0016033Y0152824D02*
X0015433Y0152824D01*
X0015433Y0153823D02*
X0016033Y0153823D01*
X0016033Y0154821D02*
X0015433Y0154821D01*
X0015433Y0155820D02*
X0016033Y0155820D01*
X0016033Y0156818D02*
X0015433Y0156818D01*
X0015433Y0157817D02*
X0016033Y0157817D01*
X0016033Y0158815D02*
X0015433Y0158815D01*
X0015433Y0159814D02*
X0016033Y0159814D01*
X0016033Y0160812D02*
X0015433Y0160812D01*
X0015433Y0161811D02*
X0016033Y0161811D01*
X0016033Y0162809D02*
X0015433Y0162809D01*
X0015433Y0163808D02*
X0016033Y0163808D01*
X0016033Y0164806D02*
X0015433Y0164806D01*
X0015433Y0165805D02*
X0016033Y0165805D01*
X0016033Y0166803D02*
X0015433Y0166803D01*
X0015433Y0167802D02*
X0016033Y0167802D01*
X0016033Y0168801D02*
X0015433Y0168801D01*
X0015433Y0169799D02*
X0016033Y0169799D01*
X0016033Y0170798D02*
X0015433Y0170798D01*
X0015433Y0171796D02*
X0016033Y0171796D01*
X0016033Y0172795D02*
X0015433Y0172795D01*
X0015433Y0173793D02*
X0016033Y0173793D01*
X0016033Y0174792D02*
X0015433Y0174792D01*
X0015433Y0175790D02*
X0016033Y0175790D01*
X0016033Y0176789D02*
X0015433Y0176789D01*
X0015433Y0177787D02*
X0016033Y0177787D01*
X0016033Y0178786D02*
X0015433Y0178786D01*
X0015433Y0179784D02*
X0016033Y0179784D01*
X0016033Y0180783D02*
X0015433Y0180783D01*
X0015433Y0181781D02*
X0016033Y0181781D01*
X0016033Y0182780D02*
X0015433Y0182780D01*
X0015433Y0183778D02*
X0016033Y0183778D01*
X0016033Y0184777D02*
X0015433Y0184777D01*
X0015433Y0185775D02*
X0016033Y0185775D01*
X0016033Y0186774D02*
X0015433Y0186774D01*
X0015433Y0187772D02*
X0016033Y0187772D01*
X0016033Y0188771D02*
X0015433Y0188771D01*
X0015433Y0189769D02*
X0016033Y0189769D01*
X0016033Y0190768D02*
X0015433Y0190768D01*
X0015433Y0191766D02*
X0016033Y0191766D01*
X0016033Y0192765D02*
X0015433Y0192765D01*
X0015433Y0193763D02*
X0016033Y0193763D01*
X0016033Y0194762D02*
X0015433Y0194762D01*
X0015433Y0195760D02*
X0016033Y0195760D01*
X0016033Y0196759D02*
X0015433Y0196759D01*
X0015433Y0197757D02*
X0016033Y0197757D01*
X0016033Y0198756D02*
X0015433Y0198756D01*
X0015433Y0199754D02*
X0016033Y0199754D01*
X0016033Y0200753D02*
X0015433Y0200753D01*
X0015433Y0201751D02*
X0016033Y0201751D01*
X0016033Y0202750D02*
X0015433Y0202750D01*
X0015433Y0203748D02*
X0016033Y0203748D01*
X0016033Y0204747D02*
X0015433Y0204747D01*
X0015433Y0205745D02*
X0016033Y0205745D01*
X0016033Y0206744D02*
X0015433Y0206744D01*
X0015433Y0207742D02*
X0016033Y0207742D01*
X0016033Y0208741D02*
X0015433Y0208741D01*
X0015433Y0209739D02*
X0016033Y0209739D01*
X0016033Y0210738D02*
X0015433Y0210738D01*
X0015433Y0211737D02*
X0016033Y0211737D01*
X0016033Y0212735D02*
X0015433Y0212735D01*
X0015433Y0213734D02*
X0016033Y0213734D01*
X0016033Y0214732D02*
X0015433Y0214732D01*
X0015433Y0215731D02*
X0016033Y0215731D01*
X0016033Y0216729D02*
X0015433Y0216729D01*
X0015433Y0217728D02*
X0016033Y0217728D01*
X0016033Y0218726D02*
X0015433Y0218726D01*
X0015433Y0219725D02*
X0016033Y0219725D01*
X0016033Y0220723D02*
X0015433Y0220723D01*
X0015433Y0221722D02*
X0016033Y0221722D01*
X0016033Y0222720D02*
X0015433Y0222720D01*
X0015433Y0223719D02*
X0016033Y0223719D01*
X0016033Y0224717D02*
X0015433Y0224717D01*
X0015433Y0225716D02*
X0016033Y0225716D01*
X0016033Y0226714D02*
X0015433Y0226714D01*
X0015433Y0227713D02*
X0016033Y0227713D01*
X0016033Y0228711D02*
X0015433Y0228711D01*
X0015433Y0229710D02*
X0016033Y0229710D01*
X0016033Y0230708D02*
X0015433Y0230708D01*
X0015433Y0231707D02*
X0016033Y0231707D01*
X0016033Y0232705D02*
X0015433Y0232705D01*
X0015433Y0233704D02*
X0016033Y0233704D01*
X0016033Y0234702D02*
X0015433Y0234702D01*
X0015433Y0235701D02*
X0016033Y0235701D01*
X0016033Y0236699D02*
X0015433Y0236699D01*
X0015433Y0237698D02*
X0016033Y0237698D01*
X0016033Y0238696D02*
X0015433Y0238696D01*
X0015433Y0239695D02*
X0016033Y0239695D01*
X0016033Y0240693D02*
X0015433Y0240693D01*
X0015433Y0241692D02*
X0016033Y0241692D01*
X0016033Y0242690D02*
X0015433Y0242690D01*
X0015433Y0243689D02*
X0016033Y0243689D01*
X0016033Y0244687D02*
X0015433Y0244687D01*
X0015433Y0245686D02*
X0016033Y0245686D01*
X0016033Y0246684D02*
X0015433Y0246684D01*
X0015433Y0247683D02*
X0016033Y0247683D01*
X0016033Y0248681D02*
X0015433Y0248681D01*
X0015433Y0249680D02*
X0016033Y0249680D01*
X0016033Y0250678D02*
X0015433Y0250678D01*
X0015433Y0251677D02*
X0016033Y0251677D01*
X0016033Y0252675D02*
X0015433Y0252675D01*
X0015433Y0253674D02*
X0016033Y0253674D01*
X0016033Y0254672D02*
X0015433Y0254672D01*
X0015433Y0255671D02*
X0016033Y0255671D01*
X0016033Y0256670D02*
X0015433Y0256670D01*
X0015433Y0257668D02*
X0016033Y0257668D01*
X0016033Y0258667D02*
X0015433Y0258667D01*
X0015433Y0259665D02*
X0016033Y0259665D01*
X0016033Y0260664D02*
X0015433Y0260664D01*
X0015433Y0261662D02*
X0016033Y0261662D01*
X0016033Y0262661D02*
X0015433Y0262661D01*
X0015433Y0263659D02*
X0016033Y0263659D01*
X0016033Y0264658D02*
X0015433Y0264658D01*
X0015433Y0265656D02*
X0016033Y0265656D01*
X0016033Y0266655D02*
X0015433Y0266655D01*
X0015433Y0267653D02*
X0016033Y0267653D01*
X0016033Y0268652D02*
X0015433Y0268652D01*
X0015433Y0269650D02*
X0016033Y0269650D01*
X0016033Y0270649D02*
X0015433Y0270649D01*
X0015433Y0271647D02*
X0016033Y0271647D01*
X0016033Y0272646D02*
X0015433Y0272646D01*
X0015433Y0273644D02*
X0016033Y0273644D01*
X0016033Y0274643D02*
X0015433Y0274643D01*
X0015433Y0275641D02*
X0016033Y0275641D01*
X0016033Y0276640D02*
X0015433Y0276640D01*
X0015433Y0277638D02*
X0016033Y0277638D01*
X0016033Y0278637D02*
X0015433Y0278637D01*
X0015433Y0279635D02*
X0016033Y0279635D01*
X0016033Y0280634D02*
X0015433Y0280634D01*
X0015433Y0281632D02*
X0016713Y0281632D01*
X0017711Y0282631D02*
X0015433Y0282631D01*
X0015433Y0283629D02*
X0018710Y0283629D01*
X0019708Y0284628D02*
X0015433Y0284628D01*
X0015433Y0285626D02*
X0020707Y0285626D01*
X0021705Y0286625D02*
X0015433Y0286625D01*
X0015433Y0287623D02*
X0028575Y0287623D01*
X0029318Y0288622D02*
X0015433Y0288622D01*
X0015433Y0289620D02*
X0030377Y0289620D01*
X0032465Y0292616D02*
X0015433Y0292616D01*
X0015433Y0293614D02*
X0031466Y0293614D01*
X0030468Y0294613D02*
X0015433Y0294613D01*
X0015433Y0295611D02*
X0029469Y0295611D01*
X0028471Y0296610D02*
X0015433Y0296610D01*
X0015433Y0297608D02*
X0027472Y0297608D01*
X0026474Y0298607D02*
X0015433Y0298607D01*
X0015433Y0299605D02*
X0025475Y0299605D01*
X0024477Y0300604D02*
X0015433Y0300604D01*
X0015433Y0301603D02*
X0023478Y0301603D01*
X0022480Y0302601D02*
X0015433Y0302601D01*
X0015433Y0303600D02*
X0021481Y0303600D01*
X0020483Y0304598D02*
X0015433Y0304598D01*
X0015433Y0305597D02*
X0019484Y0305597D01*
X0018486Y0306595D02*
X0015433Y0306595D01*
X0015433Y0307594D02*
X0017487Y0307594D01*
X0016489Y0308592D02*
X0015433Y0308592D01*
X0015433Y0309591D02*
X0016033Y0309591D01*
X0016033Y0310589D02*
X0015433Y0310589D01*
X0015433Y0311588D02*
X0016033Y0311588D01*
X0016033Y0312586D02*
X0015433Y0312586D01*
X0015433Y0313585D02*
X0016033Y0313585D01*
X0016033Y0314583D02*
X0015433Y0314583D01*
X0015433Y0315582D02*
X0016033Y0315582D01*
X0016033Y0316580D02*
X0015433Y0316580D01*
X0015433Y0317579D02*
X0016033Y0317579D01*
X0016033Y0318577D02*
X0015433Y0318577D01*
X0015433Y0319576D02*
X0016033Y0319576D01*
X0016033Y0320574D02*
X0015433Y0320574D01*
X0015433Y0321573D02*
X0016033Y0321573D01*
X0016033Y0322571D02*
X0015433Y0322571D01*
X0015433Y0323570D02*
X0016033Y0323570D01*
X0016033Y0324568D02*
X0015433Y0324568D01*
X0015433Y0325567D02*
X0016033Y0325567D01*
X0016033Y0326565D02*
X0015433Y0326565D01*
X0015433Y0327564D02*
X0016033Y0327564D01*
X0016033Y0328562D02*
X0015433Y0328562D01*
X0015433Y0329561D02*
X0016033Y0329561D01*
X0016033Y0330559D02*
X0015433Y0330559D01*
X0015433Y0331558D02*
X0016033Y0331558D01*
X0016033Y0332556D02*
X0015433Y0332556D01*
X0015433Y0333555D02*
X0016033Y0333555D01*
X0016033Y0334553D02*
X0015433Y0334553D01*
X0015433Y0335552D02*
X0016033Y0335552D01*
X0016033Y0336550D02*
X0015433Y0336550D01*
X0015433Y0337549D02*
X0016033Y0337549D01*
X0016033Y0338547D02*
X0015433Y0338547D01*
X0015433Y0339546D02*
X0016033Y0339546D01*
X0016033Y0340544D02*
X0015433Y0340544D01*
X0015433Y0341543D02*
X0016033Y0341543D01*
X0016033Y0342541D02*
X0015433Y0342541D01*
X0015433Y0343540D02*
X0016033Y0343540D01*
X0016033Y0344539D02*
X0015433Y0344539D01*
X0015433Y0345537D02*
X0016033Y0345537D01*
X0016033Y0346536D02*
X0015433Y0346536D01*
X0015433Y0347534D02*
X0016033Y0347534D01*
X0016033Y0348533D02*
X0015433Y0348533D01*
X0015433Y0349531D02*
X0016033Y0349531D01*
X0016033Y0350530D02*
X0015433Y0350530D01*
X0015433Y0351528D02*
X0016033Y0351528D01*
X0016033Y0352527D02*
X0015433Y0352527D01*
X0015433Y0353525D02*
X0016033Y0353525D01*
X0016033Y0354524D02*
X0015433Y0354524D01*
X0015433Y0355522D02*
X0016033Y0355522D01*
X0016033Y0356521D02*
X0015433Y0356521D01*
X0015433Y0357519D02*
X0016033Y0357519D01*
X0016033Y0358518D02*
X0015433Y0358518D01*
X0015433Y0359516D02*
X0016033Y0359516D01*
X0016033Y0360515D02*
X0015433Y0360515D01*
X0015433Y0361513D02*
X0016033Y0361513D01*
X0016033Y0362512D02*
X0015433Y0362512D01*
X0015433Y0363510D02*
X0016033Y0363510D01*
X0016033Y0364509D02*
X0015433Y0364509D01*
X0015433Y0365507D02*
X0016033Y0365507D01*
X0016033Y0366506D02*
X0015433Y0366506D01*
X0015433Y0367504D02*
X0016033Y0367504D01*
X0016033Y0368503D02*
X0015433Y0368503D01*
X0015433Y0369501D02*
X0016033Y0369501D01*
X0016033Y0370500D02*
X0015433Y0370500D01*
X0015433Y0371498D02*
X0016033Y0371498D01*
X0016033Y0372497D02*
X0015433Y0372497D01*
X0015433Y0373495D02*
X0016033Y0373495D01*
X0016033Y0374494D02*
X0015433Y0374494D01*
X0015433Y0375492D02*
X0016033Y0375492D01*
X0016033Y0376491D02*
X0015433Y0376491D01*
X0015433Y0377489D02*
X0016033Y0377489D01*
X0016033Y0378488D02*
X0015433Y0378488D01*
X0015433Y0379486D02*
X0016033Y0379486D01*
X0016033Y0380485D02*
X0015433Y0380485D01*
X0015433Y0381483D02*
X0016564Y0381483D01*
X0017563Y0382482D02*
X0015433Y0382482D01*
X0015433Y0383480D02*
X0018561Y0383480D01*
X0019560Y0384479D02*
X0015433Y0384479D01*
X0015433Y0385477D02*
X0020558Y0385477D01*
X0021557Y0386476D02*
X0015433Y0386476D01*
X0015433Y0387474D02*
X0075472Y0387474D01*
X0074092Y0388473D02*
X0015433Y0388473D01*
X0015433Y0389472D02*
X0073094Y0389472D01*
X0072670Y0390470D02*
X0015433Y0390470D01*
X0015433Y0391469D02*
X0072257Y0391469D01*
X0072133Y0392467D02*
X0015433Y0392467D01*
X0015433Y0393466D02*
X0072133Y0393466D01*
X0072229Y0394464D02*
X0015433Y0394464D01*
X0015433Y0395463D02*
X0072643Y0395463D01*
X0073056Y0396461D02*
X0015433Y0396461D01*
X0015433Y0397460D02*
X0074025Y0397460D01*
X0075309Y0398458D02*
X0015433Y0398458D01*
X0015433Y0399457D02*
X0411233Y0399457D01*
X0411233Y0400455D02*
X0015433Y0400455D01*
X0015433Y0401454D02*
X0411233Y0401454D01*
X0411233Y0402452D02*
X0015433Y0402452D01*
X0015433Y0403451D02*
X0411233Y0403451D01*
X0411233Y0404449D02*
X0015433Y0404449D01*
X0015433Y0405448D02*
X0411233Y0405448D01*
X0411233Y0406446D02*
X0015433Y0406446D01*
X0015433Y0407445D02*
X0411233Y0407445D01*
X0411233Y0398458D02*
X0187358Y0398458D01*
X0187845Y0398256D02*
X0185567Y0399200D01*
X0183100Y0399200D01*
X0180821Y0398256D01*
X0179077Y0396512D01*
X0178133Y0394233D01*
X0178133Y0391767D01*
X0179077Y0389488D01*
X0180821Y0387744D01*
X0183100Y0386800D01*
X0185567Y0386800D01*
X0187845Y0387744D01*
X0189589Y0389488D01*
X0190533Y0391767D01*
X0190533Y0394233D01*
X0189589Y0396512D01*
X0187845Y0398256D01*
X0188642Y0397460D02*
X0411233Y0397460D01*
X0411233Y0396461D02*
X0189611Y0396461D01*
X0190024Y0395463D02*
X0411233Y0395463D01*
X0411233Y0394464D02*
X0190438Y0394464D01*
X0190533Y0393466D02*
X0411233Y0393466D01*
X0411233Y0392467D02*
X0190533Y0392467D01*
X0190410Y0391469D02*
X0411233Y0391469D01*
X0411233Y0390470D02*
X0189996Y0390470D01*
X0189573Y0389472D02*
X0411233Y0389472D01*
X0411233Y0388473D02*
X0188574Y0388473D01*
X0187195Y0387474D02*
X0411233Y0387474D01*
X0411233Y0386476D02*
X0120110Y0386476D01*
X0121109Y0385477D02*
X0411233Y0385477D01*
X0411233Y0384479D02*
X0122107Y0384479D01*
X0123106Y0383480D02*
X0411233Y0383480D01*
X0411233Y0382482D02*
X0124104Y0382482D01*
X0125103Y0381483D02*
X0411233Y0381483D01*
X0411233Y0380485D02*
X0161193Y0380485D01*
X0162408Y0379486D02*
X0411233Y0379486D01*
X0411233Y0378488D02*
X0163265Y0378488D01*
X0163679Y0377489D02*
X0411233Y0377489D01*
X0411233Y0376491D02*
X0164033Y0376491D01*
X0164033Y0375492D02*
X0411233Y0375492D01*
X0411233Y0374494D02*
X0164033Y0374494D01*
X0163673Y0373495D02*
X0411233Y0373495D01*
X0411233Y0372497D02*
X0163259Y0372497D01*
X0162393Y0371498D02*
X0411233Y0371498D01*
X0411233Y0370500D02*
X0161157Y0370500D01*
X0160633Y0369501D02*
X0411233Y0369501D01*
X0411233Y0368503D02*
X0162109Y0368503D01*
X0162949Y0367504D02*
X0411233Y0367504D01*
X0411233Y0366506D02*
X0163465Y0366506D01*
X0163742Y0365507D02*
X0411233Y0365507D01*
X0411233Y0364509D02*
X0158833Y0364509D01*
X0158833Y0363510D02*
X0157833Y0363510D01*
X0157833Y0362512D02*
X0158833Y0362512D01*
X0158833Y0361513D02*
X0157833Y0361513D01*
X0157833Y0360515D02*
X0158833Y0360515D01*
X0158833Y0359516D02*
X0157833Y0359516D01*
X0156000Y0359516D02*
X0131433Y0359516D01*
X0131433Y0360515D02*
X0154540Y0360515D01*
X0153705Y0361513D02*
X0131210Y0361513D01*
X0130797Y0362512D02*
X0153196Y0362512D01*
X0152922Y0363510D02*
X0130096Y0363510D01*
X0131095Y0364509D02*
X0157833Y0364509D01*
X0152924Y0365507D02*
X0132093Y0365507D01*
X0133092Y0366506D02*
X0153202Y0366506D01*
X0153718Y0367504D02*
X0134090Y0367504D01*
X0135089Y0368503D02*
X0154558Y0368503D01*
X0156034Y0369501D02*
X0136087Y0369501D01*
X0137086Y0370500D02*
X0155510Y0370500D01*
X0154274Y0371498D02*
X0138084Y0371498D01*
X0139083Y0372497D02*
X0153408Y0372497D01*
X0153401Y0378488D02*
X0125633Y0378488D01*
X0125633Y0379486D02*
X0154259Y0379486D01*
X0155473Y0380485D02*
X0125633Y0380485D01*
X0125633Y0377489D02*
X0137570Y0377489D01*
X0136572Y0376491D02*
X0125633Y0376491D01*
X0125633Y0375492D02*
X0135573Y0375492D01*
X0134575Y0374494D02*
X0125633Y0374494D01*
X0125633Y0373495D02*
X0133576Y0373495D01*
X0132577Y0372497D02*
X0125633Y0372497D01*
X0125633Y0371498D02*
X0131579Y0371498D01*
X0130580Y0370500D02*
X0125633Y0370500D01*
X0125633Y0369501D02*
X0129582Y0369501D01*
X0128583Y0368503D02*
X0125633Y0368503D01*
X0125633Y0367504D02*
X0127585Y0367504D01*
X0126586Y0366506D02*
X0125633Y0366506D01*
X0121033Y0366506D02*
X0065080Y0366506D01*
X0064082Y0367504D02*
X0121033Y0367504D01*
X0121033Y0368503D02*
X0063083Y0368503D01*
X0062085Y0369501D02*
X0121033Y0369501D01*
X0121033Y0370500D02*
X0061086Y0370500D01*
X0060088Y0371498D02*
X0121033Y0371498D01*
X0121033Y0372497D02*
X0059089Y0372497D01*
X0058091Y0373495D02*
X0121033Y0373495D01*
X0121033Y0374494D02*
X0057092Y0374494D01*
X0056094Y0375492D02*
X0121033Y0375492D01*
X0121033Y0376491D02*
X0036636Y0376491D01*
X0036715Y0376300D02*
X0035861Y0378362D01*
X0033695Y0380528D01*
X0030865Y0381700D01*
X0027802Y0381700D01*
X0024972Y0380528D01*
X0022806Y0378362D01*
X0021633Y0375532D01*
X0021633Y0372468D01*
X0022806Y0369638D01*
X0024972Y0367472D01*
X0027802Y0366300D01*
X0030865Y0366300D01*
X0033695Y0367472D01*
X0035861Y0369638D01*
X0036715Y0371700D01*
X0053381Y0371700D01*
X0067529Y0357552D01*
X0065964Y0358200D01*
X0062702Y0358200D01*
X0059688Y0356952D01*
X0057382Y0354645D01*
X0056133Y0351631D01*
X0056133Y0348369D01*
X0057382Y0345355D01*
X0059688Y0343048D01*
X0062702Y0341800D01*
X0065964Y0341800D01*
X0068978Y0343048D01*
X0071285Y0345355D01*
X0072533Y0348369D01*
X0072533Y0351631D01*
X0071885Y0353195D01*
X0086033Y0339047D01*
X0087381Y0337700D01*
X0115782Y0337700D01*
X0115979Y0337224D01*
X0117358Y0335846D01*
X0119159Y0335100D01*
X0124981Y0335100D01*
X0136533Y0323547D01*
X0137881Y0322200D01*
X0153116Y0322200D01*
X0153501Y0321271D01*
X0155105Y0319668D01*
X0157200Y0318800D01*
X0159467Y0318800D01*
X0161562Y0319668D01*
X0163166Y0321271D01*
X0164033Y0323366D01*
X0164033Y0325634D01*
X0163166Y0327729D01*
X0161562Y0329332D01*
X0159622Y0330136D01*
X0160445Y0330403D01*
X0161216Y0330796D01*
X0161916Y0331305D01*
X0162528Y0331917D01*
X0163037Y0332617D01*
X0163430Y0333389D01*
X0163698Y0334212D01*
X0163823Y0335000D01*
X0158833Y0335000D01*
X0158833Y0336000D01*
X0157833Y0336000D01*
X0157833Y0335000D01*
X0152844Y0335000D01*
X0152969Y0334212D01*
X0153236Y0333389D01*
X0153629Y0332617D01*
X0154138Y0331917D01*
X0154750Y0331305D01*
X0155451Y0330796D01*
X0156222Y0330403D01*
X0157044Y0330136D01*
X0155105Y0329332D01*
X0153501Y0327729D01*
X0153116Y0326800D01*
X0139786Y0326800D01*
X0130024Y0336562D01*
X0130687Y0337224D01*
X0131433Y0339025D01*
X0131433Y0340975D01*
X0130687Y0342776D01*
X0129309Y0344154D01*
X0127508Y0344900D01*
X0119159Y0344900D01*
X0117358Y0344154D01*
X0115979Y0342776D01*
X0115782Y0342300D01*
X0089286Y0342300D01*
X0055286Y0376300D01*
X0036715Y0376300D01*
X0036222Y0377489D02*
X0121033Y0377489D01*
X0121033Y0378488D02*
X0035735Y0378488D01*
X0034736Y0379486D02*
X0120594Y0379486D01*
X0119596Y0380485D02*
X0033738Y0380485D01*
X0031388Y0381483D02*
X0118597Y0381483D01*
X0117599Y0382482D02*
X0024068Y0382482D01*
X0023069Y0381483D02*
X0027279Y0381483D01*
X0024929Y0380485D02*
X0022071Y0380485D01*
X0021072Y0379486D02*
X0023930Y0379486D01*
X0022932Y0378488D02*
X0020633Y0378488D01*
X0020633Y0377489D02*
X0022444Y0377489D01*
X0022031Y0376491D02*
X0020633Y0376491D01*
X0020633Y0375492D02*
X0021633Y0375492D01*
X0021633Y0374494D02*
X0020633Y0374494D01*
X0020633Y0373495D02*
X0021633Y0373495D01*
X0021633Y0372497D02*
X0020633Y0372497D01*
X0020633Y0371498D02*
X0022035Y0371498D01*
X0022449Y0370500D02*
X0020633Y0370500D01*
X0020633Y0369501D02*
X0022943Y0369501D01*
X0023941Y0368503D02*
X0020633Y0368503D01*
X0020633Y0367504D02*
X0024940Y0367504D01*
X0027305Y0366506D02*
X0020633Y0366506D01*
X0020633Y0365507D02*
X0059573Y0365507D01*
X0058575Y0366506D02*
X0031362Y0366506D01*
X0033727Y0367504D02*
X0057576Y0367504D01*
X0056578Y0368503D02*
X0034726Y0368503D01*
X0035724Y0369501D02*
X0055579Y0369501D01*
X0054581Y0370500D02*
X0036218Y0370500D01*
X0036631Y0371498D02*
X0053582Y0371498D01*
X0060572Y0364509D02*
X0020633Y0364509D01*
X0020633Y0363510D02*
X0061570Y0363510D01*
X0062569Y0362512D02*
X0020633Y0362512D01*
X0020633Y0361513D02*
X0063567Y0361513D01*
X0064566Y0360515D02*
X0020633Y0360515D01*
X0020633Y0359516D02*
X0065564Y0359516D01*
X0066563Y0358518D02*
X0020633Y0358518D01*
X0020633Y0357519D02*
X0061059Y0357519D01*
X0059257Y0356521D02*
X0020633Y0356521D01*
X0020633Y0355522D02*
X0058259Y0355522D01*
X0057331Y0354524D02*
X0020633Y0354524D01*
X0020633Y0353525D02*
X0056918Y0353525D01*
X0056504Y0352527D02*
X0020633Y0352527D01*
X0020633Y0351528D02*
X0056133Y0351528D01*
X0056133Y0350530D02*
X0020633Y0350530D01*
X0020633Y0349531D02*
X0056133Y0349531D01*
X0056133Y0348533D02*
X0020633Y0348533D01*
X0020633Y0347534D02*
X0056479Y0347534D01*
X0056893Y0346536D02*
X0020633Y0346536D01*
X0020633Y0345537D02*
X0057306Y0345537D01*
X0058198Y0344539D02*
X0020633Y0344539D01*
X0020633Y0343540D02*
X0059197Y0343540D01*
X0060912Y0342541D02*
X0020633Y0342541D01*
X0020633Y0341543D02*
X0083538Y0341543D01*
X0084536Y0340544D02*
X0020633Y0340544D01*
X0020633Y0339546D02*
X0085535Y0339546D01*
X0086533Y0338547D02*
X0020633Y0338547D01*
X0020633Y0337549D02*
X0115845Y0337549D01*
X0116653Y0336550D02*
X0020633Y0336550D01*
X0020633Y0335552D02*
X0118068Y0335552D01*
X0115882Y0342541D02*
X0089045Y0342541D01*
X0088046Y0343540D02*
X0116744Y0343540D01*
X0118286Y0344539D02*
X0087047Y0344539D01*
X0086049Y0345537D02*
X0118659Y0345537D01*
X0118329Y0345644D02*
X0119033Y0345416D01*
X0119763Y0345300D01*
X0122833Y0345300D01*
X0122833Y0349500D01*
X0115454Y0349500D01*
X0115549Y0348899D01*
X0115778Y0348196D01*
X0116114Y0347537D01*
X0116548Y0346938D01*
X0117071Y0346415D01*
X0117670Y0345980D01*
X0118329Y0345644D01*
X0116951Y0346536D02*
X0085050Y0346536D01*
X0084052Y0347534D02*
X0116115Y0347534D01*
X0115668Y0348533D02*
X0083053Y0348533D01*
X0082055Y0349531D02*
X0122833Y0349531D01*
X0122833Y0349500D02*
X0122833Y0350500D01*
X0115454Y0350500D01*
X0115549Y0351101D01*
X0115778Y0351804D01*
X0116114Y0352463D01*
X0116548Y0353062D01*
X0117071Y0353585D01*
X0117670Y0354020D01*
X0118329Y0354356D01*
X0119033Y0354584D01*
X0119763Y0354700D01*
X0122833Y0354700D01*
X0122833Y0350500D01*
X0123833Y0350500D01*
X0123833Y0354700D01*
X0126903Y0354700D01*
X0127634Y0354584D01*
X0128337Y0354356D01*
X0128997Y0354020D01*
X0129595Y0353585D01*
X0130118Y0353062D01*
X0130553Y0352463D01*
X0130889Y0351804D01*
X0131118Y0351101D01*
X0131213Y0350500D01*
X0123833Y0350500D01*
X0123833Y0349500D01*
X0123833Y0345300D01*
X0126903Y0345300D01*
X0127634Y0345416D01*
X0128337Y0345644D01*
X0128997Y0345980D01*
X0129595Y0346415D01*
X0130118Y0346938D01*
X0130553Y0347537D01*
X0130889Y0348196D01*
X0131118Y0348899D01*
X0131213Y0349500D01*
X0123833Y0349500D01*
X0122833Y0349500D01*
X0122833Y0348533D02*
X0123833Y0348533D01*
X0123833Y0349531D02*
X0411233Y0349531D01*
X0411233Y0348533D02*
X0130998Y0348533D01*
X0130551Y0347534D02*
X0411233Y0347534D01*
X0411233Y0346536D02*
X0129716Y0346536D01*
X0128007Y0345537D02*
X0411233Y0345537D01*
X0411233Y0344539D02*
X0128381Y0344539D01*
X0129923Y0343540D02*
X0411233Y0343540D01*
X0411233Y0342541D02*
X0130784Y0342541D01*
X0131198Y0341543D02*
X0411233Y0341543D01*
X0411233Y0340544D02*
X0160548Y0340544D01*
X0160445Y0340597D02*
X0159621Y0340865D01*
X0158833Y0340989D01*
X0158833Y0336000D01*
X0163823Y0336000D01*
X0163698Y0336788D01*
X0163430Y0337611D01*
X0163037Y0338383D01*
X0162528Y0339083D01*
X0161916Y0339695D01*
X0161216Y0340204D01*
X0160445Y0340597D01*
X0158833Y0340544D02*
X0157833Y0340544D01*
X0157833Y0340989D02*
X0157045Y0340865D01*
X0156222Y0340597D01*
X0155451Y0340204D01*
X0154750Y0339695D01*
X0154138Y0339083D01*
X0153629Y0338383D01*
X0153236Y0337611D01*
X0152969Y0336788D01*
X0152844Y0336000D01*
X0157833Y0336000D01*
X0157833Y0340989D01*
X0157833Y0339546D02*
X0158833Y0339546D01*
X0158833Y0338547D02*
X0157833Y0338547D01*
X0157833Y0337549D02*
X0158833Y0337549D01*
X0158833Y0336550D02*
X0157833Y0336550D01*
X0157833Y0335552D02*
X0131034Y0335552D01*
X0130036Y0336550D02*
X0152931Y0336550D01*
X0153216Y0337549D02*
X0130822Y0337549D01*
X0131235Y0338547D02*
X0153749Y0338547D01*
X0154601Y0339546D02*
X0131433Y0339546D01*
X0131433Y0340544D02*
X0156119Y0340544D01*
X0158833Y0335552D02*
X0411233Y0335552D01*
X0411233Y0336550D02*
X0163736Y0336550D01*
X0163451Y0337549D02*
X0411233Y0337549D01*
X0411233Y0338547D02*
X0162918Y0338547D01*
X0162066Y0339546D02*
X0411233Y0339546D01*
X0411233Y0334553D02*
X0163752Y0334553D01*
X0163484Y0333555D02*
X0411233Y0333555D01*
X0411233Y0332556D02*
X0162993Y0332556D01*
X0162169Y0331558D02*
X0411233Y0331558D01*
X0411233Y0330559D02*
X0160752Y0330559D01*
X0161010Y0329561D02*
X0411233Y0329561D01*
X0411233Y0328562D02*
X0162332Y0328562D01*
X0163234Y0327564D02*
X0411233Y0327564D01*
X0411233Y0350530D02*
X0131208Y0350530D01*
X0130979Y0351528D02*
X0411233Y0351528D01*
X0411233Y0352527D02*
X0130507Y0352527D01*
X0129655Y0353525D02*
X0411233Y0353525D01*
X0411233Y0354524D02*
X0127821Y0354524D01*
X0128527Y0355522D02*
X0411233Y0355522D01*
X0411233Y0356521D02*
X0129984Y0356521D01*
X0130809Y0357519D02*
X0411233Y0357519D01*
X0411233Y0358518D02*
X0131223Y0358518D01*
X0123833Y0354524D02*
X0122833Y0354524D01*
X0122833Y0353525D02*
X0123833Y0353525D01*
X0123833Y0352527D02*
X0122833Y0352527D01*
X0122833Y0351528D02*
X0123833Y0351528D01*
X0123833Y0350530D02*
X0122833Y0350530D01*
X0122833Y0347534D02*
X0123833Y0347534D01*
X0123833Y0346536D02*
X0122833Y0346536D01*
X0122833Y0345537D02*
X0123833Y0345537D01*
X0115459Y0350530D02*
X0081056Y0350530D01*
X0080058Y0351528D02*
X0115688Y0351528D01*
X0116159Y0352527D02*
X0079059Y0352527D01*
X0078061Y0353525D02*
X0117012Y0353525D01*
X0118846Y0354524D02*
X0077062Y0354524D01*
X0076064Y0355522D02*
X0118140Y0355522D01*
X0116683Y0356521D02*
X0075065Y0356521D01*
X0074067Y0357519D02*
X0115857Y0357519D01*
X0115444Y0358518D02*
X0073068Y0358518D01*
X0072070Y0359516D02*
X0115233Y0359516D01*
X0115233Y0360515D02*
X0071071Y0360515D01*
X0070073Y0361513D02*
X0115456Y0361513D01*
X0115870Y0362512D02*
X0069074Y0362512D01*
X0068076Y0363510D02*
X0116714Y0363510D01*
X0118214Y0364509D02*
X0067077Y0364509D01*
X0066079Y0365507D02*
X0121033Y0365507D01*
X0125527Y0334553D02*
X0020633Y0334553D01*
X0020633Y0333555D02*
X0126526Y0333555D01*
X0127524Y0332556D02*
X0020633Y0332556D01*
X0020633Y0331558D02*
X0128523Y0331558D01*
X0129521Y0330559D02*
X0020633Y0330559D01*
X0020633Y0329561D02*
X0025697Y0329561D01*
X0026009Y0329741D02*
X0025158Y0329249D01*
X0024378Y0328651D01*
X0023682Y0327956D01*
X0023084Y0327176D01*
X0022592Y0326324D01*
X0022216Y0325416D01*
X0021962Y0324466D01*
X0021834Y0323500D01*
X0028833Y0323500D01*
X0028833Y0322500D01*
X0021834Y0322500D01*
X0021962Y0321534D01*
X0022216Y0320584D01*
X0022592Y0319676D01*
X0023084Y0318824D01*
X0023682Y0318044D01*
X0024378Y0317349D01*
X0025158Y0316751D01*
X0026009Y0316259D01*
X0026917Y0315883D01*
X0027867Y0315628D01*
X0028833Y0315501D01*
X0028833Y0322500D01*
X0029833Y0322500D01*
X0029833Y0315501D01*
X0030800Y0315628D01*
X0031749Y0315883D01*
X0032658Y0316259D01*
X0033509Y0316751D01*
X0034289Y0317349D01*
X0034984Y0318044D01*
X0035583Y0318824D01*
X0036074Y0319676D01*
X0036451Y0320584D01*
X0036705Y0321534D01*
X0036832Y0322500D01*
X0029833Y0322500D01*
X0029833Y0323500D01*
X0028833Y0323500D01*
X0028833Y0330499D01*
X0027867Y0330372D01*
X0026917Y0330117D01*
X0026009Y0329741D01*
X0024289Y0328562D02*
X0020633Y0328562D01*
X0020633Y0327564D02*
X0023382Y0327564D01*
X0022732Y0326565D02*
X0020633Y0326565D01*
X0020633Y0325567D02*
X0022279Y0325567D01*
X0021989Y0324568D02*
X0020633Y0324568D01*
X0020633Y0323570D02*
X0021844Y0323570D01*
X0020633Y0322571D02*
X0028833Y0322571D01*
X0029333Y0323000D02*
X0056333Y0323000D01*
X0073333Y0306000D01*
X0073333Y0295000D01*
X0053333Y0275000D01*
X0043333Y0275000D01*
X0043833Y0274643D02*
X0144865Y0274643D01*
X0145863Y0275641D02*
X0048497Y0275641D01*
X0048268Y0276640D02*
X0146862Y0276640D01*
X0147860Y0277638D02*
X0047825Y0277638D01*
X0047050Y0278637D02*
X0148859Y0278637D01*
X0149857Y0279635D02*
X0045690Y0279635D01*
X0046604Y0280634D02*
X0150856Y0280634D01*
X0151854Y0281632D02*
X0047602Y0281632D01*
X0048197Y0282631D02*
X0152853Y0282631D01*
X0153851Y0283629D02*
X0048610Y0283629D01*
X0048733Y0284628D02*
X0154850Y0284628D01*
X0155848Y0285626D02*
X0048733Y0285626D01*
X0048505Y0286625D02*
X0156847Y0286625D01*
X0157845Y0287623D02*
X0048092Y0287623D01*
X0047348Y0288622D02*
X0158844Y0288622D01*
X0159842Y0289620D02*
X0046290Y0289620D01*
X0040967Y0290619D02*
X0160841Y0290619D01*
X0161839Y0291617D02*
X0039969Y0291617D01*
X0038970Y0292616D02*
X0162838Y0292616D01*
X0163836Y0293614D02*
X0037972Y0293614D01*
X0036973Y0294613D02*
X0164835Y0294613D01*
X0165834Y0295611D02*
X0035975Y0295611D01*
X0034976Y0296610D02*
X0166832Y0296610D01*
X0167831Y0297608D02*
X0033978Y0297608D01*
X0032979Y0298607D02*
X0168829Y0298607D01*
X0169828Y0299605D02*
X0134511Y0299605D01*
X0134845Y0299744D02*
X0136589Y0301488D01*
X0137533Y0303767D01*
X0137533Y0306233D01*
X0136589Y0308512D01*
X0134845Y0310256D01*
X0132567Y0311200D01*
X0130100Y0311200D01*
X0127821Y0310256D01*
X0126077Y0308512D01*
X0125133Y0306233D01*
X0125133Y0303767D01*
X0126077Y0301488D01*
X0127821Y0299744D01*
X0130100Y0298800D01*
X0132567Y0298800D01*
X0134845Y0299744D01*
X0135705Y0300604D02*
X0170826Y0300604D01*
X0171825Y0301603D02*
X0136637Y0301603D01*
X0137050Y0302601D02*
X0172823Y0302601D01*
X0173822Y0303600D02*
X0137464Y0303600D01*
X0137533Y0304598D02*
X0174820Y0304598D01*
X0175819Y0305597D02*
X0137533Y0305597D01*
X0137383Y0306595D02*
X0176817Y0306595D01*
X0177816Y0307594D02*
X0136970Y0307594D01*
X0136509Y0308592D02*
X0178814Y0308592D01*
X0179813Y0309591D02*
X0135511Y0309591D01*
X0134041Y0310589D02*
X0180811Y0310589D01*
X0181810Y0311588D02*
X0020633Y0311588D01*
X0020633Y0312586D02*
X0182808Y0312586D01*
X0183807Y0313585D02*
X0020633Y0313585D01*
X0020633Y0314583D02*
X0184805Y0314583D01*
X0185804Y0315582D02*
X0030445Y0315582D01*
X0029833Y0315582D02*
X0028833Y0315582D01*
X0028221Y0315582D02*
X0020633Y0315582D01*
X0020633Y0316580D02*
X0025453Y0316580D01*
X0024148Y0317579D02*
X0020633Y0317579D01*
X0020633Y0318577D02*
X0023273Y0318577D01*
X0022650Y0319576D02*
X0020633Y0319576D01*
X0020633Y0320574D02*
X0022220Y0320574D01*
X0021956Y0321573D02*
X0020633Y0321573D01*
X0028833Y0321573D02*
X0029833Y0321573D01*
X0029833Y0322571D02*
X0137509Y0322571D01*
X0136511Y0323570D02*
X0036823Y0323570D01*
X0036832Y0323500D02*
X0036705Y0324466D01*
X0036451Y0325416D01*
X0036074Y0326324D01*
X0035583Y0327176D01*
X0034984Y0327956D01*
X0034289Y0328651D01*
X0033509Y0329249D01*
X0032658Y0329741D01*
X0031749Y0330117D01*
X0030800Y0330372D01*
X0029833Y0330499D01*
X0029833Y0323500D01*
X0036832Y0323500D01*
X0036678Y0324568D02*
X0135512Y0324568D01*
X0134514Y0325567D02*
X0036388Y0325567D01*
X0035935Y0326565D02*
X0133515Y0326565D01*
X0132517Y0327564D02*
X0035285Y0327564D01*
X0034378Y0328562D02*
X0131518Y0328562D01*
X0130520Y0329561D02*
X0032970Y0329561D01*
X0029833Y0329561D02*
X0028833Y0329561D01*
X0028833Y0328562D02*
X0029833Y0328562D01*
X0029833Y0327564D02*
X0028833Y0327564D01*
X0028833Y0326565D02*
X0029833Y0326565D01*
X0029833Y0325567D02*
X0028833Y0325567D01*
X0028833Y0324568D02*
X0029833Y0324568D01*
X0029833Y0323570D02*
X0028833Y0323570D01*
X0028833Y0320574D02*
X0029833Y0320574D01*
X0029833Y0319576D02*
X0028833Y0319576D01*
X0028833Y0318577D02*
X0029833Y0318577D01*
X0029833Y0317579D02*
X0028833Y0317579D01*
X0028833Y0316580D02*
X0029833Y0316580D01*
X0033214Y0316580D02*
X0186802Y0316580D01*
X0187801Y0317579D02*
X0034519Y0317579D01*
X0035393Y0318577D02*
X0188799Y0318577D01*
X0189798Y0319576D02*
X0161340Y0319576D01*
X0162469Y0320574D02*
X0190796Y0320574D01*
X0191795Y0321573D02*
X0163290Y0321573D01*
X0163704Y0322571D02*
X0192793Y0322571D01*
X0193792Y0323570D02*
X0164033Y0323570D01*
X0164033Y0324568D02*
X0194790Y0324568D01*
X0195789Y0325567D02*
X0164033Y0325567D01*
X0163647Y0326565D02*
X0196787Y0326565D01*
X0162126Y0360515D02*
X0411233Y0360515D01*
X0411233Y0361513D02*
X0162962Y0361513D01*
X0163470Y0362512D02*
X0411233Y0362512D01*
X0411233Y0363510D02*
X0163745Y0363510D01*
X0160667Y0359516D02*
X0411233Y0359516D01*
X0213833Y0289620D02*
X0212833Y0289620D01*
X0212833Y0288622D02*
X0213833Y0288622D01*
X0213833Y0287623D02*
X0212833Y0287623D01*
X0212833Y0286625D02*
X0213833Y0286625D01*
X0213833Y0285626D02*
X0212833Y0285626D01*
X0209601Y0288622D02*
X0207348Y0288622D01*
X0208092Y0287623D02*
X0208834Y0287623D01*
X0210947Y0289620D02*
X0206290Y0289620D01*
X0155327Y0319576D02*
X0036017Y0319576D01*
X0036446Y0320574D02*
X0154198Y0320574D01*
X0153376Y0321573D02*
X0036710Y0321573D01*
X0021995Y0309591D02*
X0127156Y0309591D01*
X0126157Y0308592D02*
X0022994Y0308592D01*
X0023992Y0307594D02*
X0125697Y0307594D01*
X0125283Y0306595D02*
X0024991Y0306595D01*
X0025989Y0305597D02*
X0125133Y0305597D01*
X0125133Y0304598D02*
X0026988Y0304598D01*
X0027986Y0303600D02*
X0125203Y0303600D01*
X0125616Y0302601D02*
X0028985Y0302601D01*
X0029983Y0301603D02*
X0126030Y0301603D01*
X0126961Y0300604D02*
X0030982Y0300604D01*
X0031980Y0299605D02*
X0128155Y0299605D01*
X0128625Y0310589D02*
X0020997Y0310589D01*
X0015433Y0291617D02*
X0033463Y0291617D01*
X0034462Y0290619D02*
X0015433Y0290619D01*
X0025833Y0280000D02*
X0023333Y0277500D01*
X0023333Y0267500D01*
X0020943Y0264658D02*
X0020633Y0264658D01*
X0020633Y0263659D02*
X0023881Y0263659D01*
X0022883Y0262661D02*
X0020633Y0262661D01*
X0020633Y0261662D02*
X0021884Y0261662D01*
X0021133Y0260664D02*
X0020633Y0260664D01*
X0020633Y0259665D02*
X0021133Y0259665D01*
X0021133Y0258667D02*
X0020633Y0258667D01*
X0020633Y0257668D02*
X0021133Y0257668D01*
X0021133Y0256670D02*
X0020633Y0256670D01*
X0020633Y0255671D02*
X0021133Y0255671D01*
X0021133Y0254672D02*
X0020633Y0254672D01*
X0020633Y0253674D02*
X0021133Y0253674D01*
X0021133Y0252675D02*
X0020633Y0252675D01*
X0020633Y0251677D02*
X0021133Y0251677D01*
X0021133Y0250678D02*
X0020633Y0250678D01*
X0020633Y0249680D02*
X0021133Y0249680D01*
X0021133Y0248681D02*
X0020633Y0248681D01*
X0020633Y0247683D02*
X0021133Y0247683D01*
X0021133Y0246684D02*
X0020633Y0246684D01*
X0020633Y0245686D02*
X0021133Y0245686D01*
X0021133Y0244687D02*
X0020633Y0244687D01*
X0020633Y0243689D02*
X0021133Y0243689D01*
X0021133Y0242690D02*
X0020633Y0242690D01*
X0020633Y0241692D02*
X0021133Y0241692D01*
X0021133Y0240693D02*
X0020633Y0240693D01*
X0020633Y0239695D02*
X0021133Y0239695D01*
X0021133Y0238696D02*
X0020633Y0238696D01*
X0020633Y0237698D02*
X0021133Y0237698D01*
X0021133Y0236699D02*
X0020633Y0236699D01*
X0020633Y0235701D02*
X0021133Y0235701D01*
X0021133Y0234702D02*
X0020633Y0234702D01*
X0020633Y0233704D02*
X0021133Y0233704D01*
X0021133Y0232705D02*
X0020633Y0232705D01*
X0020633Y0231707D02*
X0021133Y0231707D01*
X0021133Y0230708D02*
X0020633Y0230708D01*
X0020633Y0229710D02*
X0021133Y0229710D01*
X0021133Y0228711D02*
X0020633Y0228711D01*
X0020633Y0227713D02*
X0021133Y0227713D01*
X0021133Y0226714D02*
X0020633Y0226714D01*
X0020633Y0225716D02*
X0021133Y0225716D01*
X0021133Y0224717D02*
X0020633Y0224717D01*
X0020633Y0223719D02*
X0021133Y0223719D01*
X0021133Y0222720D02*
X0020633Y0222720D01*
X0020633Y0221722D02*
X0021133Y0221722D01*
X0021133Y0220723D02*
X0020633Y0220723D01*
X0020633Y0219725D02*
X0021133Y0219725D01*
X0021133Y0218726D02*
X0020633Y0218726D01*
X0020633Y0217728D02*
X0021133Y0217728D01*
X0021133Y0216729D02*
X0020633Y0216729D01*
X0020633Y0215731D02*
X0021133Y0215731D01*
X0021133Y0214732D02*
X0020633Y0214732D01*
X0020633Y0213734D02*
X0021133Y0213734D01*
X0021133Y0212735D02*
X0020633Y0212735D01*
X0020633Y0211737D02*
X0021133Y0211737D01*
X0021133Y0210738D02*
X0020633Y0210738D01*
X0020633Y0209739D02*
X0021133Y0209739D01*
X0021133Y0208741D02*
X0020633Y0208741D01*
X0020633Y0207742D02*
X0021133Y0207742D01*
X0021133Y0206744D02*
X0020633Y0206744D01*
X0020633Y0205745D02*
X0021133Y0205745D01*
X0021133Y0204747D02*
X0020633Y0204747D01*
X0020633Y0203748D02*
X0021133Y0203748D01*
X0021133Y0202750D02*
X0020633Y0202750D01*
X0020633Y0201751D02*
X0021133Y0201751D01*
X0021133Y0200753D02*
X0020633Y0200753D01*
X0020633Y0199754D02*
X0021133Y0199754D01*
X0021133Y0198756D02*
X0020633Y0198756D01*
X0020633Y0197757D02*
X0021133Y0197757D01*
X0021133Y0196759D02*
X0020633Y0196759D01*
X0020633Y0195760D02*
X0021133Y0195760D01*
X0021133Y0194762D02*
X0020633Y0194762D01*
X0020633Y0193763D02*
X0021133Y0193763D01*
X0021133Y0192765D02*
X0020633Y0192765D01*
X0020633Y0191766D02*
X0021133Y0191766D01*
X0021133Y0190768D02*
X0020633Y0190768D01*
X0020633Y0189769D02*
X0021133Y0189769D01*
X0021451Y0188771D02*
X0020633Y0188771D01*
X0020633Y0187772D02*
X0022450Y0187772D01*
X0023448Y0186774D02*
X0020633Y0186774D01*
X0020633Y0185775D02*
X0024447Y0185775D01*
X0025445Y0184777D02*
X0020633Y0184777D01*
X0020633Y0183778D02*
X0026444Y0183778D01*
X0027442Y0182780D02*
X0020633Y0182780D01*
X0020633Y0181781D02*
X0028441Y0181781D01*
X0029439Y0180783D02*
X0020633Y0180783D01*
X0020633Y0179784D02*
X0030438Y0179784D01*
X0031436Y0178786D02*
X0020633Y0178786D01*
X0028333Y0185000D02*
X0023333Y0190000D01*
X0023333Y0250000D01*
X0028333Y0255000D01*
X0033333Y0255000D01*
X0023333Y0250000D02*
X0023333Y0260000D01*
X0028333Y0265000D01*
X0033333Y0265000D01*
X0046218Y0269650D02*
X0139872Y0269650D01*
X0138874Y0268652D02*
X0047318Y0268652D01*
X0048079Y0267653D02*
X0137875Y0267653D01*
X0136877Y0266655D02*
X0048493Y0266655D01*
X0048733Y0265656D02*
X0135878Y0265656D01*
X0134880Y0264658D02*
X0048733Y0264658D01*
X0048623Y0263659D02*
X0133881Y0263659D01*
X0132883Y0262661D02*
X0048209Y0262661D01*
X0047632Y0261662D02*
X0131884Y0261662D01*
X0130886Y0260664D02*
X0046634Y0260664D01*
X0046182Y0259665D02*
X0129887Y0259665D01*
X0128889Y0258667D02*
X0047304Y0258667D01*
X0048073Y0257668D02*
X0127890Y0257668D01*
X0126892Y0256670D02*
X0048487Y0256670D01*
X0048733Y0255671D02*
X0125893Y0255671D01*
X0124895Y0254672D02*
X0048733Y0254672D01*
X0048629Y0253674D02*
X0123896Y0253674D01*
X0122898Y0252675D02*
X0048215Y0252675D01*
X0047647Y0251677D02*
X0121899Y0251677D01*
X0120901Y0250678D02*
X0046649Y0250678D01*
X0046146Y0249680D02*
X0119902Y0249680D01*
X0118903Y0248681D02*
X0047289Y0248681D01*
X0048067Y0247683D02*
X0117905Y0247683D01*
X0116906Y0246684D02*
X0048481Y0246684D01*
X0048733Y0245686D02*
X0115908Y0245686D01*
X0114909Y0244687D02*
X0048733Y0244687D01*
X0048635Y0243689D02*
X0113911Y0243689D01*
X0112912Y0242690D02*
X0048222Y0242690D01*
X0047662Y0241692D02*
X0111914Y0241692D01*
X0110915Y0240693D02*
X0046663Y0240693D01*
X0046110Y0239695D02*
X0109917Y0239695D01*
X0108918Y0238696D02*
X0047274Y0238696D01*
X0048061Y0237698D02*
X0107920Y0237698D01*
X0106921Y0236699D02*
X0048474Y0236699D01*
X0048733Y0235701D02*
X0105923Y0235701D01*
X0104924Y0234702D02*
X0048733Y0234702D01*
X0048641Y0233704D02*
X0103926Y0233704D01*
X0102927Y0232705D02*
X0048228Y0232705D01*
X0047677Y0231707D02*
X0101929Y0231707D01*
X0100930Y0230708D02*
X0046678Y0230708D01*
X0046074Y0229710D02*
X0099932Y0229710D01*
X0098933Y0228711D02*
X0047259Y0228711D01*
X0048055Y0227713D02*
X0097935Y0227713D01*
X0096936Y0226714D02*
X0048468Y0226714D01*
X0048733Y0225716D02*
X0095938Y0225716D01*
X0094939Y0224717D02*
X0048733Y0224717D01*
X0048647Y0223719D02*
X0093941Y0223719D01*
X0092942Y0222720D02*
X0048234Y0222720D01*
X0047692Y0221722D02*
X0091944Y0221722D01*
X0090945Y0220723D02*
X0046693Y0220723D01*
X0046038Y0219725D02*
X0089947Y0219725D01*
X0088948Y0218726D02*
X0047244Y0218726D01*
X0048048Y0217728D02*
X0087950Y0217728D01*
X0086951Y0216729D02*
X0048462Y0216729D01*
X0048733Y0215731D02*
X0085953Y0215731D01*
X0084954Y0214732D02*
X0048733Y0214732D01*
X0048654Y0213734D02*
X0083956Y0213734D01*
X0082957Y0212735D02*
X0048240Y0212735D01*
X0047707Y0211737D02*
X0081959Y0211737D01*
X0080960Y0210738D02*
X0046708Y0210738D01*
X0046002Y0209739D02*
X0079962Y0209739D01*
X0078963Y0208741D02*
X0047229Y0208741D01*
X0048042Y0207742D02*
X0077965Y0207742D01*
X0076966Y0206744D02*
X0048456Y0206744D01*
X0048733Y0205745D02*
X0075967Y0205745D01*
X0074969Y0204747D02*
X0048733Y0204747D01*
X0048660Y0203748D02*
X0073970Y0203748D01*
X0072972Y0202750D02*
X0048246Y0202750D01*
X0047721Y0201751D02*
X0071973Y0201751D01*
X0070975Y0200753D02*
X0046723Y0200753D01*
X0045966Y0199754D02*
X0069976Y0199754D01*
X0068978Y0198756D02*
X0047214Y0198756D01*
X0048036Y0197757D02*
X0067979Y0197757D01*
X0066981Y0196759D02*
X0048450Y0196759D01*
X0048733Y0195760D02*
X0065982Y0195760D01*
X0064984Y0194762D02*
X0048733Y0194762D01*
X0048666Y0193763D02*
X0063985Y0193763D01*
X0062987Y0192765D02*
X0048252Y0192765D01*
X0047736Y0191766D02*
X0061988Y0191766D01*
X0060990Y0190768D02*
X0046738Y0190768D01*
X0044816Y0189769D02*
X0059991Y0189769D01*
X0060833Y0187500D02*
X0035833Y0187500D01*
X0033333Y0190000D01*
X0033333Y0195000D01*
X0046191Y0270649D02*
X0140871Y0270649D01*
X0141869Y0271647D02*
X0047325Y0271647D01*
X0047970Y0272646D02*
X0142868Y0272646D01*
X0143866Y0273644D02*
X0048360Y0273644D01*
X0067755Y0342541D02*
X0082539Y0342541D01*
X0081541Y0343540D02*
X0069470Y0343540D01*
X0070468Y0344539D02*
X0080542Y0344539D01*
X0079544Y0345537D02*
X0071360Y0345537D01*
X0071774Y0346536D02*
X0078545Y0346536D01*
X0077547Y0347534D02*
X0072188Y0347534D01*
X0072533Y0348533D02*
X0076548Y0348533D01*
X0075550Y0349531D02*
X0072533Y0349531D01*
X0072533Y0350530D02*
X0074551Y0350530D01*
X0073553Y0351528D02*
X0072533Y0351528D01*
X0072554Y0352527D02*
X0072162Y0352527D01*
X0081195Y0387474D02*
X0181472Y0387474D01*
X0180092Y0388473D02*
X0082574Y0388473D01*
X0083573Y0389472D02*
X0179094Y0389472D01*
X0178670Y0390470D02*
X0083996Y0390470D01*
X0084410Y0391469D02*
X0178257Y0391469D01*
X0178133Y0392467D02*
X0084533Y0392467D01*
X0084533Y0393466D02*
X0178133Y0393466D01*
X0178229Y0394464D02*
X0084438Y0394464D01*
X0084024Y0395463D02*
X0178643Y0395463D01*
X0179056Y0396461D02*
X0083611Y0396461D01*
X0082642Y0397460D02*
X0180025Y0397460D01*
X0181309Y0398458D02*
X0081358Y0398458D01*
X0132033Y0334553D02*
X0152915Y0334553D01*
X0153182Y0333555D02*
X0133031Y0333555D01*
X0134030Y0332556D02*
X0153674Y0332556D01*
X0154497Y0331558D02*
X0135028Y0331558D01*
X0136027Y0330559D02*
X0155915Y0330559D01*
X0155656Y0329561D02*
X0137025Y0329561D01*
X0138024Y0328562D02*
X0154335Y0328562D01*
X0153433Y0327564D02*
X0139022Y0327564D01*
X0256588Y0161811D02*
X0278270Y0161811D01*
X0279268Y0160812D02*
X0257002Y0160812D01*
X0257033Y0159814D02*
X0280267Y0159814D01*
X0279512Y0158815D02*
X0256847Y0158815D01*
X0256383Y0157817D02*
X0278655Y0157817D01*
X0278242Y0156818D02*
X0255533Y0156818D01*
X0255533Y0155820D02*
X0277933Y0155820D01*
X0277933Y0154821D02*
X0255533Y0154821D01*
X0255533Y0153823D02*
X0277976Y0153823D01*
X0278390Y0152824D02*
X0255533Y0152824D01*
X0255533Y0151826D02*
X0278871Y0151826D01*
X0279869Y0150827D02*
X0255533Y0150827D01*
X0255533Y0149829D02*
X0281707Y0149829D01*
X0284960Y0149829D02*
X0292742Y0149829D01*
X0292833Y0149829D02*
X0293833Y0149829D01*
X0293924Y0149829D02*
X0301707Y0149829D01*
X0299869Y0150827D02*
X0296437Y0150827D01*
X0297455Y0151826D02*
X0298871Y0151826D01*
X0298390Y0152824D02*
X0298061Y0152824D01*
X0293833Y0152824D02*
X0292833Y0152824D01*
X0292833Y0151826D02*
X0293833Y0151826D01*
X0293833Y0150827D02*
X0292833Y0150827D01*
X0290230Y0150827D02*
X0286797Y0150827D01*
X0287796Y0151826D02*
X0289212Y0151826D01*
X0288606Y0152824D02*
X0288277Y0152824D01*
X0288425Y0156818D02*
X0288457Y0156818D01*
X0288011Y0157817D02*
X0288952Y0157817D01*
X0289795Y0158815D02*
X0287155Y0158815D01*
X0285822Y0159814D02*
X0291327Y0159814D01*
X0285633Y0160812D02*
X0301133Y0160812D01*
X0301133Y0161811D02*
X0284775Y0161811D01*
X0283777Y0162809D02*
X0301133Y0162809D01*
X0293833Y0153823D02*
X0292833Y0153823D01*
X0272592Y0133853D02*
X0322964Y0133853D01*
X0322933Y0134851D02*
X0271593Y0134851D01*
X0270595Y0135850D02*
X0322933Y0135850D01*
X0323254Y0136848D02*
X0269596Y0136848D01*
X0273590Y0132854D02*
X0323377Y0132854D01*
X0323841Y0131856D02*
X0274589Y0131856D01*
X0275588Y0130857D02*
X0324839Y0130857D01*
X0326635Y0129859D02*
X0276586Y0129859D01*
X0262999Y0137847D02*
X0323668Y0137847D01*
X0324542Y0138845D02*
X0262125Y0138845D01*
X0260750Y0139844D02*
X0325916Y0139844D01*
X0330750Y0139844D02*
X0375066Y0139844D01*
X0376064Y0140842D02*
X0252287Y0140842D01*
X0253285Y0141841D02*
X0376133Y0141841D01*
X0376133Y0142839D02*
X0254284Y0142839D01*
X0255282Y0143838D02*
X0376133Y0143838D01*
X0376133Y0144836D02*
X0255533Y0144836D01*
X0255533Y0145835D02*
X0376133Y0145835D01*
X0376133Y0146833D02*
X0255533Y0146833D01*
X0255533Y0147832D02*
X0376133Y0147832D01*
X0376133Y0148830D02*
X0255533Y0148830D01*
X0255916Y0139844D02*
X0251288Y0139844D01*
X0216514Y0118875D02*
X0215743Y0118875D01*
X0215743Y0117876D02*
X0216514Y0117876D01*
X0216514Y0116878D02*
X0215743Y0116878D01*
X0215743Y0115879D02*
X0216514Y0115879D01*
X0216514Y0113882D02*
X0215743Y0113882D01*
X0215743Y0112884D02*
X0216514Y0112884D01*
X0216514Y0111885D02*
X0215743Y0111885D01*
X0215743Y0110887D02*
X0216514Y0110887D01*
X0189290Y0109888D02*
X0070533Y0109888D01*
X0071857Y0110887D02*
X0187297Y0110887D01*
X0195843Y0077936D02*
X0059522Y0077936D01*
X0058523Y0076937D02*
X0194642Y0076937D01*
X0193871Y0075939D02*
X0057525Y0075939D01*
X0056526Y0074940D02*
X0193400Y0074940D01*
X0193129Y0073942D02*
X0055528Y0073942D01*
X0056066Y0057966D02*
X0015433Y0057966D01*
X0015433Y0058964D02*
X0193091Y0058964D01*
X0192834Y0057966D02*
X0060600Y0057966D01*
X0061523Y0056967D02*
X0192834Y0056967D01*
X0192834Y0055969D02*
X0061937Y0055969D01*
X0062033Y0054970D02*
X0193222Y0054970D01*
X0193636Y0053972D02*
X0062473Y0053972D01*
X0063471Y0052973D02*
X0194448Y0052973D01*
X0195447Y0051975D02*
X0064470Y0051975D01*
X0054730Y0055969D02*
X0015433Y0055969D01*
X0015433Y0056967D02*
X0055143Y0056967D01*
X0015433Y0059963D02*
X0193504Y0059963D01*
X0194131Y0060961D02*
X0015433Y0060961D01*
X0015433Y0061960D02*
X0195129Y0061960D01*
X0197028Y0062958D02*
X0015433Y0062958D01*
X0202274Y0067951D02*
X0267130Y0067951D01*
X0332999Y0137847D02*
X0373069Y0137847D01*
X0374067Y0138845D02*
X0332125Y0138845D01*
D19*
X0378333Y0160000D03*
X0258333Y0195000D03*
X0253333Y0160000D03*
X0058333Y0055000D03*
X0023333Y0267500D03*
X0025833Y0280000D03*
D20*
X0023333Y0285000D02*
X0018333Y0280000D01*
X0018333Y0082244D01*
X0027703Y0072874D01*
X0030577Y0070000D01*
X0048333Y0070000D01*
X0063333Y0085000D01*
X0253333Y0085000D01*
X0243333Y0095000D02*
X0268333Y0070000D01*
X0271633Y0070000D01*
X0275533Y0073900D01*
X0286633Y0085000D01*
X0333333Y0085000D01*
X0344433Y0073900D01*
X0345533Y0073900D01*
X0283333Y0155000D02*
X0283333Y0160000D01*
X0278333Y0165000D01*
X0248333Y0165000D01*
X0243333Y0160000D01*
X0243333Y0150000D01*
X0243333Y0095000D01*
X0043333Y0285000D02*
X0018333Y0310000D01*
X0018333Y0380000D01*
X0023333Y0385000D01*
X0118333Y0385000D01*
X0123333Y0380000D01*
X0123333Y0360000D01*
X0138833Y0375500D01*
X0158333Y0375500D01*
X0123333Y0340000D02*
X0138833Y0324500D01*
X0158333Y0324500D01*
X0123333Y0340000D02*
X0088333Y0340000D01*
X0054333Y0374000D01*
X0029333Y0374000D01*
X0033333Y0285000D02*
X0023333Y0285000D01*
M02*
