G75*
%MOIN*%
%OFA0B0*%
%FSLAX25Y25*%
%IPPOS*%
%LPD*%
%AMOC8*
5,1,8,0,0,1.08239X$1,22.5*
%
%ADD10C,0.07400*%
%ADD11C,0.07000*%
%ADD12C,0.08858*%
%ADD13C,0.08000*%
%ADD14C,0.06000*%
%ADD15OC8,0.12400*%
%ADD16C,0.01000*%
%ADD17C,0.04000*%
D10*
X0033333Y0145000D03*
X0033333Y0155000D03*
X0043333Y0155000D03*
X0043333Y0145000D03*
X0053333Y0145000D03*
X0053333Y0155000D03*
X0063333Y0155000D03*
X0063333Y0145000D03*
X0073333Y0145000D03*
X0073333Y0155000D03*
X0083333Y0155000D03*
X0083333Y0145000D03*
X0093333Y0145000D03*
X0093333Y0155000D03*
X0103333Y0155000D03*
X0103333Y0145000D03*
X0113333Y0145000D03*
X0113333Y0155000D03*
X0123333Y0155000D03*
X0123333Y0145000D03*
X0103333Y0205000D03*
X0103333Y0220000D03*
X0103333Y0235000D03*
X0103333Y0250000D03*
X0113333Y0250000D03*
X0103333Y0265000D03*
X0073333Y0265000D03*
X0073333Y0250000D03*
X0073333Y0235000D03*
X0073333Y0220000D03*
X0073333Y0205000D03*
X0143333Y0250000D03*
X0123333Y0315000D03*
X0113333Y0315000D03*
X0103333Y0315000D03*
X0093333Y0315000D03*
X0083333Y0315000D03*
X0073333Y0315000D03*
X0063333Y0315000D03*
X0053333Y0315000D03*
X0043333Y0315000D03*
X0033333Y0315000D03*
X0033333Y0325000D03*
X0043333Y0325000D03*
X0053333Y0325000D03*
X0063333Y0325000D03*
X0073333Y0325000D03*
X0083333Y0325000D03*
X0093333Y0325000D03*
X0103333Y0325000D03*
X0113333Y0325000D03*
X0123333Y0325000D03*
X0243333Y0315000D03*
X0253333Y0315000D03*
X0263333Y0315000D03*
X0273333Y0315000D03*
X0283333Y0315000D03*
X0293333Y0315000D03*
X0303333Y0315000D03*
X0313333Y0315000D03*
X0293333Y0335000D03*
X0263333Y0335000D03*
X0263333Y0155000D03*
X0273333Y0155000D03*
X0283333Y0155000D03*
X0293333Y0155000D03*
X0303333Y0155000D03*
X0313333Y0155000D03*
X0278333Y0125000D03*
X0268333Y0125000D03*
X0258333Y0105000D03*
X0248333Y0105000D03*
X0238333Y0125000D03*
X0228333Y0125000D03*
X0218333Y0105000D03*
X0243333Y0155000D03*
X0253333Y0155000D03*
X0288333Y0105000D03*
X0278333Y0090000D03*
X0280533Y0073900D03*
X0280533Y0056100D03*
X0306133Y0056100D03*
X0306133Y0073900D03*
X0308333Y0090000D03*
X0343333Y0090000D03*
X0345533Y0073900D03*
X0345533Y0056100D03*
X0371133Y0056100D03*
X0371133Y0073900D03*
X0373333Y0090000D03*
D11*
X0339129Y0116000D03*
X0313538Y0116000D03*
D12*
X0213963Y0077874D03*
X0213963Y0062126D03*
X0042703Y0077874D03*
D13*
X0042833Y0105000D03*
X0053833Y0105000D03*
X0102833Y0105000D03*
X0113833Y0105000D03*
D14*
X0202333Y0104500D02*
X0208333Y0104500D01*
X0208333Y0114500D02*
X0202333Y0114500D01*
X0202333Y0124500D02*
X0208333Y0124500D01*
D15*
X0349333Y0342000D03*
X0369333Y0342000D03*
D16*
X0042703Y0077874D02*
X0042933Y0077000D01*
X0190533Y0077000D01*
X0216633Y0050900D01*
X0283233Y0050900D01*
X0305733Y0073400D01*
X0306133Y0073900D01*
X0294033Y0079700D02*
X0294033Y0106700D01*
X0283233Y0117500D01*
X0256233Y0117500D01*
X0211233Y0162500D01*
X0100533Y0162500D01*
X0093333Y0155300D01*
X0093333Y0155000D01*
X0093333Y0145000D02*
X0093333Y0144500D01*
X0100533Y0137300D01*
X0233733Y0137300D01*
X0265233Y0105800D01*
X0287733Y0105800D01*
X0288333Y0105000D01*
X0294033Y0116600D02*
X0276933Y0133700D01*
X0257133Y0133700D01*
X0143733Y0247100D01*
X0143733Y0249800D01*
X0143333Y0250000D01*
X0073333Y0205000D02*
X0072633Y0204800D01*
X0048333Y0180500D01*
X0048333Y0152600D01*
X0052833Y0148100D01*
X0052833Y0145400D01*
X0053333Y0145000D01*
X0048333Y0147200D02*
X0048333Y0111200D01*
X0053733Y0105800D01*
X0053833Y0105000D01*
X0054633Y0104900D01*
X0095133Y0104900D01*
X0100533Y0099500D01*
X0107733Y0099500D01*
X0113133Y0104900D01*
X0113833Y0105000D01*
X0114033Y0104900D01*
X0117633Y0101300D01*
X0150933Y0101300D01*
X0163533Y0113900D01*
X0204933Y0113900D01*
X0205333Y0114500D01*
X0205333Y0104500D02*
X0204933Y0104000D01*
X0156333Y0104000D01*
X0150033Y0097700D01*
X0050133Y0097700D01*
X0042833Y0105000D01*
X0037533Y0102200D02*
X0037533Y0139100D01*
X0042933Y0144500D01*
X0043333Y0145000D01*
X0048333Y0147200D02*
X0043833Y0151700D01*
X0043833Y0154400D01*
X0043333Y0155000D01*
X0037533Y0102200D02*
X0043833Y0095900D01*
X0216633Y0095900D01*
X0225633Y0104900D01*
X0248133Y0104900D01*
X0248333Y0105000D01*
X0257133Y0119300D02*
X0067233Y0309200D01*
X0051933Y0309200D01*
X0048333Y0312800D01*
X0048333Y0320000D01*
X0053333Y0325000D01*
X0042033Y0330800D02*
X0144633Y0330800D01*
X0339033Y0136400D01*
X0339033Y0116600D01*
X0339129Y0116000D01*
X0313538Y0116000D02*
X0312933Y0116600D01*
X0294033Y0116600D01*
X0286833Y0119300D02*
X0257133Y0119300D01*
X0265233Y0135500D02*
X0309333Y0135500D01*
X0370533Y0074300D01*
X0371133Y0073900D01*
X0345333Y0060800D02*
X0345333Y0056300D01*
X0345533Y0056100D01*
X0345333Y0060800D02*
X0286833Y0119300D01*
X0265233Y0135500D02*
X0246333Y0154400D01*
X0243633Y0154400D01*
X0243333Y0155000D01*
X0262533Y0155300D02*
X0263333Y0155000D01*
X0262533Y0155300D02*
X0262533Y0183200D01*
X0125733Y0320000D01*
X0121233Y0320000D01*
X0116733Y0324500D01*
X0114033Y0324500D01*
X0113333Y0325000D01*
X0123333Y0325000D02*
X0123933Y0324500D01*
X0131133Y0324500D01*
X0300333Y0155300D01*
X0303033Y0155300D01*
X0303333Y0155000D01*
X0294033Y0079700D02*
X0280533Y0066200D01*
X0280533Y0056100D01*
X0205333Y0124500D02*
X0204933Y0124700D01*
X0154533Y0124700D01*
X0151833Y0127400D01*
X0124833Y0127400D01*
X0103233Y0105800D01*
X0102833Y0105000D01*
X0144633Y0140900D02*
X0124833Y0160700D01*
X0111333Y0160700D01*
X0105933Y0155300D01*
X0104133Y0155300D01*
X0103333Y0155000D01*
X0242733Y0251600D02*
X0242733Y0314600D01*
X0243333Y0315000D01*
X0042033Y0330800D02*
X0036633Y0325400D01*
X0033933Y0325400D01*
X0033333Y0325000D01*
D17*
X0242733Y0251600D03*
X0144633Y0140900D03*
M02*
