%
M48
M72
T01C0.02000
T02C0.03200
T03C0.03543
T04C0.04000
T05C0.05906
T06C0.08000
T07C0.09000
T08C0.13000
%
T01
X64000Y202500
X101500Y397500
T02
X366500Y190000
X376500Y190000
X441500Y190000
X451500Y190000
T03
X461500Y150000
X461500Y120000
X431500Y120000
X431500Y150000
X386500Y150000
X386500Y120000
X356500Y120000
X356500Y150000
X324295Y140000
X298705Y140000
X251500Y145000
X251500Y120000
X221500Y120000
X221500Y145000
X221500Y170000
X221500Y195000
X221500Y220000
X251500Y220000
X251500Y195000
X271500Y195000
X301500Y195000
X251500Y170000
X296500Y355000
X326500Y355000
T04
X326500Y410000
X316500Y410000
X306500Y410000
X296500Y410000
X286500Y410000
X276500Y410000
X336500Y410000
X346500Y410000
X426500Y325000
X436500Y325000
X446500Y325000
X456000Y290000
X467000Y290000
X427000Y290000
X416000Y290000
X346500Y250000
X336500Y250000
X326500Y250000
X316500Y250000
X306500Y250000
X296500Y250000
X286500Y250000
X276500Y250000
X201500Y250000
X201500Y240000
X201500Y230000
X191500Y230000
X191500Y240000
X191500Y250000
X191500Y260000
X201500Y260000
X201500Y270000
X201500Y280000
X201500Y290000
X201500Y300000
X191500Y300000
X191500Y290000
X191500Y280000
X191500Y270000
X191500Y220000
X191500Y210000
X201500Y210000
X201500Y220000
X358700Y88900
X358700Y71100
X384300Y71100
X384300Y88900
X433700Y88900
X433700Y71100
X459300Y71100
X459300Y88900
X31500Y210000
X31500Y220000
X21500Y220000
X21500Y210000
X21500Y230000
X21500Y240000
X21500Y250000
X21500Y260000
X31500Y260000
X31500Y250000
X31500Y240000
X31500Y230000
X31500Y270000
X31500Y280000
X31500Y290000
X31500Y300000
X21500Y300000
X21500Y290000
X21500Y280000
X21500Y270000
T05
X90870Y87874
X262130Y87874
X262130Y72126
T06
X409500Y414000
X460500Y414000
T07
X479500Y365000
X391500Y312000
X479500Y259000
T08
X436500Y384000
M30
