G75*
%MOIN*%
%OFA0B0*%
%FSLAX25Y25*%
%IPPOS*%
%LPD*%
%AMOC8*
5,1,8,0,0,1.08239X$1,22.5*
%
%ADD10C,0.00500*%
%ADD11R,0.05000X0.05000*%
%ADD12C,0.01000*%
%ADD13C,0.00400*%
%ADD14C,0.00600*%
%ADD15C,0.01200*%
%ADD16C,0.00800*%
%ADD17C,0.00100*%
%ADD18C,0.00200*%
%ADD19R,0.05000X0.03500*%
%ADD20C,0.01969*%
D10*
X0011500Y0160000D02*
X0211500Y0160000D01*
X0211500Y0420000D01*
X0011500Y0420000D01*
X0011500Y0160000D01*
X0221500Y0240000D02*
X0221500Y0420000D01*
X0401500Y0420000D01*
X0401500Y0240000D01*
X0221500Y0240000D01*
X0424715Y0340250D02*
X0426217Y0340250D01*
X0425466Y0340250D02*
X0425466Y0344754D01*
X0424715Y0344754D02*
X0426217Y0344754D01*
X0434948Y0342502D02*
X0437951Y0342502D01*
X0444948Y0344003D02*
X0445699Y0344754D01*
X0447200Y0344754D01*
X0447951Y0344003D01*
X0447951Y0341001D01*
X0447200Y0340250D01*
X0445699Y0340250D01*
X0444948Y0341001D01*
X0444948Y0344003D01*
D11*
X0326500Y0097500D03*
X0321500Y0092500D03*
X0321500Y0087500D03*
X0316500Y0087500D03*
X0316500Y0082500D03*
X0316500Y0077500D03*
X0316500Y0072500D03*
X0311500Y0072500D03*
X0311500Y0077500D03*
X0311500Y0082500D03*
X0311500Y0087500D03*
X0306500Y0087500D03*
X0306500Y0082500D03*
X0306500Y0077500D03*
X0306500Y0072500D03*
X0301500Y0072500D03*
X0301500Y0077500D03*
X0296500Y0077500D03*
X0296500Y0072500D03*
X0296500Y0067500D03*
X0301500Y0062500D03*
X0306500Y0062500D03*
X0316500Y0062500D03*
X0321500Y0062500D03*
X0326500Y0067500D03*
X0326500Y0072500D03*
X0326500Y0077500D03*
X0326500Y0082500D03*
X0326500Y0087500D03*
X0331500Y0082500D03*
X0331500Y0077500D03*
X0336500Y0077500D03*
X0336500Y0072500D03*
X0336500Y0067500D03*
X0321500Y0072500D03*
X0321500Y0077500D03*
X0301500Y0087500D03*
X0301500Y0092500D03*
X0296500Y0087500D03*
X0296500Y0082500D03*
X0291500Y0082500D03*
X0291500Y0077500D03*
X0286500Y0077500D03*
X0286500Y0072500D03*
X0286500Y0067500D03*
X0296500Y0097500D03*
D12*
X0017562Y0066769D02*
X0015438Y0066769D01*
X0017562Y0066769D02*
X0019685Y0068892D01*
X0019685Y0071015D01*
X0018623Y0072076D01*
X0016500Y0072076D01*
X0014377Y0069953D01*
X0012254Y0069953D01*
X0011192Y0071015D01*
X0011192Y0073138D01*
X0013315Y0075261D01*
X0015438Y0075261D01*
X0018765Y0076464D02*
X0021949Y0079649D01*
X0024073Y0079649D01*
X0026196Y0077526D01*
X0026196Y0075403D01*
X0023011Y0072218D01*
X0025134Y0070095D02*
X0018765Y0076464D01*
X0028460Y0079791D02*
X0028460Y0081914D01*
X0031645Y0085098D01*
X0030583Y0086160D02*
X0033768Y0082975D01*
X0030583Y0079791D01*
X0028460Y0079791D01*
X0026337Y0084037D02*
X0028460Y0086160D01*
X0030583Y0086160D01*
X0032848Y0088425D02*
X0034971Y0086301D01*
X0037094Y0086301D01*
X0040279Y0089486D01*
X0041482Y0092812D02*
X0039359Y0094936D01*
X0039359Y0097059D01*
X0041482Y0099182D01*
X0043605Y0099182D01*
X0044667Y0098120D01*
X0040421Y0093874D01*
X0041482Y0092812D02*
X0043605Y0092812D01*
X0045728Y0094936D01*
X0036033Y0093732D02*
X0032848Y0090548D01*
X0032848Y0088425D01*
X0049196Y0111142D02*
X0051319Y0113265D01*
X0050258Y0112204D02*
X0056627Y0105834D01*
X0055566Y0104773D02*
X0057689Y0106896D01*
X0059906Y0109113D02*
X0055660Y0113360D01*
X0058845Y0116544D01*
X0060968Y0116544D01*
X0064152Y0113360D01*
X0068540Y0117747D02*
X0066417Y0124117D01*
X0069743Y0127443D02*
X0071867Y0129566D01*
X0073990Y0129566D01*
X0077174Y0126381D01*
X0073990Y0123197D01*
X0071867Y0123197D01*
X0071867Y0125320D01*
X0075051Y0128505D01*
X0076254Y0131831D02*
X0076254Y0133954D01*
X0079439Y0137139D01*
X0077316Y0139262D02*
X0083685Y0132892D01*
X0080501Y0129708D01*
X0078377Y0129708D01*
X0076254Y0131831D01*
X0082765Y0138342D02*
X0084888Y0136219D01*
X0087012Y0136219D01*
X0089135Y0138342D01*
X0088073Y0141526D02*
X0083827Y0137280D01*
X0082765Y0138342D02*
X0082765Y0140465D01*
X0084888Y0142588D01*
X0087012Y0142588D01*
X0088073Y0141526D01*
X0090338Y0143791D02*
X0090338Y0148037D01*
X0091399Y0149099D01*
X0094702Y0150278D02*
X0094702Y0152402D01*
X0097887Y0155586D01*
X0098948Y0152402D02*
X0096825Y0150278D01*
X0094702Y0150278D01*
X0097887Y0147094D02*
X0101071Y0150278D01*
X0101071Y0152402D01*
X0098948Y0152402D01*
X0102685Y0141754D02*
X0103747Y0140693D01*
X0105870Y0138570D02*
X0104808Y0137508D01*
X0105870Y0138570D02*
X0110116Y0134323D01*
X0109055Y0133262D02*
X0111178Y0135385D01*
X0113395Y0137602D02*
X0117642Y0141849D01*
X0113395Y0137602D02*
X0107026Y0143972D01*
X0103605Y0134182D02*
X0106790Y0130997D01*
X0103605Y0134182D02*
X0101482Y0134182D01*
X0099359Y0132059D01*
X0099359Y0129936D01*
X0097094Y0127671D02*
X0097094Y0125548D01*
X0093910Y0122363D01*
X0096033Y0120240D02*
X0089663Y0126609D01*
X0092848Y0129794D01*
X0094971Y0129794D01*
X0097094Y0127671D01*
X0096174Y0133120D02*
X0102544Y0126751D01*
X0087257Y0111464D02*
X0084072Y0108280D01*
X0081949Y0108280D01*
X0078765Y0111464D01*
X0077562Y0108138D02*
X0075438Y0108138D01*
X0072254Y0104953D01*
X0070131Y0107076D02*
X0076500Y0100707D01*
X0079685Y0103892D01*
X0079685Y0106015D01*
X0077562Y0108138D01*
X0083011Y0115711D02*
X0088319Y0110403D01*
X0088319Y0108280D01*
X0087257Y0107218D01*
X0068540Y0117747D02*
X0062171Y0119871D01*
X0088215Y0145914D02*
X0092461Y0141668D01*
X0106992Y0209461D02*
X0106992Y0215466D01*
X0106992Y0212463D02*
X0116000Y0212463D01*
X0116000Y0218669D02*
X0106992Y0218669D01*
X0109995Y0221671D01*
X0106992Y0224674D01*
X0116000Y0224674D01*
X0111496Y0227876D02*
X0111496Y0233882D01*
X0108494Y0237084D02*
X0114499Y0237084D01*
X0116000Y0238586D01*
X0116000Y0241588D01*
X0114499Y0243089D01*
X0116000Y0246292D02*
X0116000Y0252297D01*
X0116000Y0249295D02*
X0106992Y0249295D01*
X0109995Y0246292D01*
X0108494Y0243089D02*
X0106992Y0241588D01*
X0106992Y0238586D01*
X0108494Y0237084D01*
X0106992Y0232380D02*
X0111496Y0227876D01*
X0116000Y0232380D02*
X0106992Y0232380D01*
X0108494Y0255500D02*
X0106992Y0257001D01*
X0106992Y0260004D01*
X0108494Y0261505D01*
X0109995Y0261505D01*
X0116000Y0255500D01*
X0116000Y0261505D01*
X0114499Y0264708D02*
X0116000Y0266209D01*
X0116000Y0269212D01*
X0114499Y0270713D01*
X0112997Y0270713D01*
X0111496Y0269212D01*
X0111496Y0267710D01*
X0111496Y0269212D02*
X0109995Y0270713D01*
X0108494Y0270713D01*
X0106992Y0269212D01*
X0106992Y0266209D01*
X0108494Y0264708D01*
X0108494Y0273916D02*
X0114499Y0273916D01*
X0116000Y0275417D01*
X0116000Y0278420D01*
X0114499Y0279921D01*
X0111496Y0279921D01*
X0111496Y0276918D01*
X0108494Y0273916D02*
X0106992Y0275417D01*
X0106992Y0278420D01*
X0108494Y0279921D01*
X0106992Y0283124D02*
X0116000Y0289129D01*
X0116000Y0292331D02*
X0116000Y0298337D01*
X0116000Y0292331D02*
X0106992Y0292331D01*
X0106992Y0289129D02*
X0116000Y0283124D01*
X0267495Y0325500D02*
X0267495Y0334508D01*
X0273500Y0325500D01*
X0273500Y0334508D01*
X0276703Y0333006D02*
X0276703Y0327001D01*
X0278204Y0325500D01*
X0281207Y0325500D01*
X0282708Y0327001D01*
X0282708Y0333006D01*
X0281207Y0334508D01*
X0278204Y0334508D01*
X0276703Y0333006D01*
X0285911Y0334508D02*
X0285911Y0325500D01*
X0285911Y0328503D02*
X0291916Y0334508D01*
X0295119Y0334508D02*
X0298121Y0334508D01*
X0296620Y0334508D02*
X0296620Y0325500D01*
X0295119Y0325500D02*
X0298121Y0325500D01*
X0301257Y0325500D02*
X0301257Y0331505D01*
X0304260Y0334508D01*
X0307263Y0331505D01*
X0307263Y0325500D01*
X0307263Y0330004D02*
X0301257Y0330004D01*
X0291916Y0325500D02*
X0287412Y0330004D01*
X0319673Y0330004D02*
X0322676Y0331505D01*
X0324177Y0331505D01*
X0325678Y0330004D01*
X0325678Y0327001D01*
X0324177Y0325500D01*
X0321174Y0325500D01*
X0319673Y0327001D01*
X0319673Y0330004D02*
X0319673Y0334508D01*
X0325678Y0334508D01*
X0328881Y0331505D02*
X0331884Y0334508D01*
X0331884Y0325500D01*
X0334886Y0325500D02*
X0328881Y0325500D01*
X0338089Y0325500D02*
X0344094Y0325500D01*
X0341091Y0325500D02*
X0341091Y0334508D01*
X0338089Y0331505D01*
X0347297Y0333006D02*
X0347297Y0327001D01*
X0353302Y0333006D01*
X0353302Y0327001D01*
X0351801Y0325500D01*
X0348798Y0325500D01*
X0347297Y0327001D01*
X0347297Y0333006D02*
X0348798Y0334508D01*
X0351801Y0334508D01*
X0353302Y0333006D01*
X0411000Y0295000D02*
X0411000Y0285000D01*
X0432000Y0285000D01*
X0432000Y0295000D01*
X0411000Y0295000D01*
X0421500Y0292500D02*
X0421500Y0287500D01*
X0451000Y0285000D02*
X0451000Y0295000D01*
X0472000Y0295000D01*
X0472000Y0285000D01*
X0451000Y0285000D01*
X0461500Y0287500D02*
X0461500Y0292500D01*
D13*
X0461316Y0296700D02*
X0458247Y0296700D01*
X0456712Y0296700D02*
X0455945Y0296700D01*
X0455945Y0297467D01*
X0456712Y0297467D01*
X0456712Y0296700D01*
X0454410Y0297467D02*
X0453643Y0296700D01*
X0452108Y0296700D01*
X0451341Y0297467D01*
X0454410Y0300537D01*
X0454410Y0297467D01*
X0451341Y0297467D02*
X0451341Y0300537D01*
X0452108Y0301304D01*
X0453643Y0301304D01*
X0454410Y0300537D01*
X0458247Y0299769D02*
X0459782Y0301304D01*
X0459782Y0296700D01*
X0462851Y0297467D02*
X0463618Y0296700D01*
X0465920Y0296700D01*
X0465920Y0299769D01*
X0467455Y0299002D02*
X0468990Y0299002D01*
X0467455Y0301304D02*
X0470524Y0301304D01*
X0467455Y0301304D02*
X0467455Y0296700D01*
X0462851Y0297467D02*
X0462851Y0299769D01*
X0432826Y0301304D02*
X0429757Y0301304D01*
X0429757Y0296700D01*
X0428222Y0296700D02*
X0428222Y0299769D01*
X0429757Y0299002D02*
X0431291Y0299002D01*
X0428222Y0296700D02*
X0425920Y0296700D01*
X0425153Y0297467D01*
X0425153Y0299769D01*
X0423618Y0299769D02*
X0422851Y0299002D01*
X0423618Y0298235D01*
X0423618Y0297467D01*
X0422851Y0296700D01*
X0421316Y0296700D01*
X0420549Y0297467D01*
X0419014Y0297467D02*
X0418247Y0296700D01*
X0416712Y0296700D01*
X0415945Y0297467D01*
X0414410Y0297467D02*
X0414410Y0296700D01*
X0413643Y0296700D01*
X0413643Y0297467D01*
X0414410Y0297467D01*
X0412108Y0297467D02*
X0412108Y0300537D01*
X0409039Y0297467D01*
X0409806Y0296700D01*
X0411341Y0296700D01*
X0412108Y0297467D01*
X0409039Y0297467D02*
X0409039Y0300537D01*
X0409806Y0301304D01*
X0411341Y0301304D01*
X0412108Y0300537D01*
X0415945Y0300537D02*
X0416712Y0301304D01*
X0418247Y0301304D01*
X0419014Y0300537D01*
X0419014Y0299769D01*
X0418247Y0299002D01*
X0419014Y0298235D01*
X0419014Y0297467D01*
X0418247Y0299002D02*
X0417480Y0299002D01*
X0420549Y0300537D02*
X0421316Y0301304D01*
X0422851Y0301304D01*
X0423618Y0300537D01*
X0423618Y0299769D01*
X0422851Y0299002D02*
X0422084Y0299002D01*
X0348800Y0272710D02*
X0348033Y0273477D01*
X0344963Y0273477D01*
X0344196Y0272710D01*
X0344196Y0270408D01*
X0348800Y0270408D01*
X0348800Y0272710D01*
X0348800Y0268873D02*
X0348800Y0265804D01*
X0344196Y0265804D01*
X0344196Y0268873D01*
X0346498Y0267339D02*
X0346498Y0265804D01*
X0348800Y0264269D02*
X0348800Y0261200D01*
X0344196Y0261200D01*
X0338800Y0261967D02*
X0338033Y0261200D01*
X0338800Y0261967D02*
X0338800Y0263502D01*
X0338033Y0264269D01*
X0337265Y0264269D01*
X0336498Y0263502D01*
X0336498Y0261967D01*
X0335731Y0261200D01*
X0334963Y0261200D01*
X0334196Y0261967D01*
X0334196Y0263502D01*
X0334963Y0264269D01*
X0334963Y0265804D02*
X0338033Y0265804D01*
X0338800Y0266571D01*
X0338800Y0268106D01*
X0338033Y0268873D01*
X0338800Y0270408D02*
X0334196Y0270408D01*
X0334963Y0268873D02*
X0334196Y0268106D01*
X0334196Y0266571D01*
X0334963Y0265804D01*
X0338800Y0270408D02*
X0338800Y0273477D01*
X0338800Y0275012D02*
X0334196Y0275012D01*
X0336498Y0275779D02*
X0338800Y0278081D01*
X0337265Y0275012D02*
X0334196Y0278081D01*
X0328800Y0278081D02*
X0324196Y0278081D01*
X0325731Y0276546D01*
X0324196Y0275012D01*
X0328800Y0275012D01*
X0328800Y0273477D02*
X0326498Y0270408D01*
X0324196Y0273477D01*
X0324196Y0268873D02*
X0328800Y0268873D01*
X0324196Y0265804D01*
X0328800Y0265804D01*
X0328033Y0264269D02*
X0324963Y0264269D01*
X0324196Y0263502D01*
X0324196Y0261200D01*
X0328800Y0261200D01*
X0328800Y0263502D01*
X0328033Y0264269D01*
X0318800Y0263502D02*
X0318033Y0264269D01*
X0314963Y0264269D01*
X0314196Y0263502D01*
X0314196Y0261200D01*
X0318800Y0261200D01*
X0318800Y0263502D01*
X0318800Y0265804D02*
X0314196Y0268873D01*
X0314963Y0270408D02*
X0318033Y0270408D01*
X0318800Y0271175D01*
X0318800Y0272710D01*
X0318033Y0273477D01*
X0314963Y0273477D02*
X0314196Y0272710D01*
X0314196Y0271175D01*
X0314963Y0270408D01*
X0308800Y0271942D02*
X0304196Y0271942D01*
X0304196Y0270408D02*
X0304196Y0273477D01*
X0304963Y0268873D02*
X0304196Y0268106D01*
X0304196Y0266571D01*
X0304963Y0265804D01*
X0305731Y0265804D01*
X0306498Y0266571D01*
X0306498Y0268106D01*
X0307265Y0268873D01*
X0308033Y0268873D01*
X0308800Y0268106D01*
X0308800Y0266571D01*
X0308033Y0265804D01*
X0308800Y0264269D02*
X0307265Y0262735D01*
X0307265Y0263502D02*
X0307265Y0261200D01*
X0308800Y0261200D02*
X0304196Y0261200D01*
X0304196Y0263502D01*
X0304963Y0264269D01*
X0306498Y0264269D01*
X0307265Y0263502D01*
X0298800Y0263502D02*
X0298800Y0261967D01*
X0298033Y0261200D01*
X0296498Y0261967D02*
X0296498Y0263502D01*
X0297265Y0264269D01*
X0298033Y0264269D01*
X0298800Y0263502D01*
X0298033Y0265804D02*
X0294963Y0265804D01*
X0294196Y0266571D01*
X0294196Y0268106D01*
X0294963Y0268873D01*
X0294196Y0270408D02*
X0298800Y0270408D01*
X0298800Y0273477D01*
X0296498Y0271942D02*
X0296498Y0270408D01*
X0298033Y0268873D02*
X0298800Y0268106D01*
X0298800Y0266571D01*
X0298033Y0265804D01*
X0294963Y0264269D02*
X0294196Y0263502D01*
X0294196Y0261967D01*
X0294963Y0261200D01*
X0295731Y0261200D01*
X0296498Y0261967D01*
X0288800Y0261967D02*
X0288800Y0263502D01*
X0288033Y0264269D01*
X0286498Y0264269D01*
X0286498Y0262735D01*
X0284963Y0264269D02*
X0284196Y0263502D01*
X0284196Y0261967D01*
X0284963Y0261200D01*
X0288033Y0261200D01*
X0288800Y0261967D01*
X0288800Y0265804D02*
X0284196Y0265804D01*
X0288800Y0268873D01*
X0284196Y0268873D01*
X0284196Y0270408D02*
X0284196Y0272710D01*
X0284963Y0273477D01*
X0288033Y0273477D01*
X0288800Y0272710D01*
X0288800Y0270408D01*
X0284196Y0270408D01*
X0278800Y0271175D02*
X0278800Y0272710D01*
X0278033Y0273477D01*
X0278800Y0271175D02*
X0278033Y0270408D01*
X0274963Y0270408D01*
X0274196Y0271175D01*
X0274196Y0272710D01*
X0274963Y0273477D01*
X0274963Y0268873D02*
X0274196Y0268106D01*
X0274196Y0266571D01*
X0274963Y0265804D01*
X0278033Y0265804D01*
X0278800Y0266571D01*
X0278800Y0268106D01*
X0278033Y0268873D01*
X0277265Y0264269D02*
X0274196Y0264269D01*
X0274196Y0261200D02*
X0277265Y0261200D01*
X0278800Y0262735D01*
X0277265Y0264269D01*
X0294196Y0270408D02*
X0294196Y0273477D01*
X0324196Y0280383D02*
X0324963Y0279616D01*
X0328033Y0279616D01*
X0328800Y0280383D01*
X0328800Y0281918D01*
X0328033Y0282685D01*
X0324963Y0282685D01*
X0324196Y0281918D01*
X0324196Y0280383D01*
X0324963Y0284220D02*
X0325731Y0284220D01*
X0326498Y0284987D01*
X0326498Y0286522D01*
X0327265Y0287289D01*
X0328033Y0287289D01*
X0328800Y0286522D01*
X0328800Y0284987D01*
X0328033Y0284220D01*
X0324963Y0284220D02*
X0324196Y0284987D01*
X0324196Y0286522D01*
X0324963Y0287289D01*
X0324196Y0288824D02*
X0324196Y0290358D01*
X0324196Y0289591D02*
X0328800Y0289591D01*
X0328800Y0288824D02*
X0328800Y0290358D01*
X0328800Y0291893D02*
X0326498Y0294962D01*
X0324196Y0291893D01*
X0316304Y0360200D02*
X0314769Y0360200D01*
X0314002Y0360967D01*
X0317071Y0364037D01*
X0317071Y0360967D01*
X0316304Y0360200D01*
X0314002Y0360967D02*
X0314002Y0364037D01*
X0314769Y0364804D01*
X0316304Y0364804D01*
X0317071Y0364037D01*
X0312467Y0364037D02*
X0311700Y0364804D01*
X0310165Y0364804D01*
X0309398Y0364037D01*
X0307863Y0364037D02*
X0307096Y0364804D01*
X0305561Y0364804D01*
X0304794Y0364037D01*
X0307863Y0364037D02*
X0307863Y0363269D01*
X0304794Y0360200D01*
X0307863Y0360200D01*
X0309398Y0360200D02*
X0312467Y0363269D01*
X0312467Y0364037D01*
X0312467Y0360200D02*
X0309398Y0360200D01*
X0324196Y0364903D02*
X0324196Y0367205D01*
X0324963Y0367972D01*
X0328033Y0367972D01*
X0328800Y0367205D01*
X0328800Y0364903D01*
X0324196Y0364903D01*
X0324196Y0369507D02*
X0328800Y0372576D01*
X0324196Y0372576D01*
X0326498Y0374111D02*
X0328800Y0377180D01*
X0328800Y0378715D02*
X0324196Y0378715D01*
X0325731Y0380250D01*
X0324196Y0381784D01*
X0328800Y0381784D01*
X0328033Y0383319D02*
X0328800Y0384086D01*
X0328800Y0385621D01*
X0328033Y0386388D01*
X0324963Y0386388D01*
X0324196Y0385621D01*
X0324196Y0384086D01*
X0324963Y0383319D01*
X0328033Y0383319D01*
X0328033Y0387923D02*
X0328800Y0388690D01*
X0328800Y0390225D01*
X0328033Y0390992D01*
X0327265Y0390992D01*
X0326498Y0390225D01*
X0326498Y0388690D01*
X0325731Y0387923D01*
X0324963Y0387923D01*
X0324196Y0388690D01*
X0324196Y0390225D01*
X0324963Y0390992D01*
X0324196Y0392527D02*
X0324196Y0394061D01*
X0324196Y0393294D02*
X0328800Y0393294D01*
X0328800Y0392527D02*
X0328800Y0394061D01*
X0328800Y0395596D02*
X0326498Y0398665D01*
X0324196Y0395596D01*
X0318800Y0396363D02*
X0318800Y0397898D01*
X0318033Y0398665D01*
X0318800Y0396363D02*
X0318033Y0395596D01*
X0314963Y0395596D01*
X0314196Y0396363D01*
X0314196Y0397898D01*
X0314963Y0398665D01*
X0314196Y0394061D02*
X0318800Y0390992D01*
X0318033Y0389457D02*
X0314963Y0389457D01*
X0314196Y0388690D01*
X0314196Y0386388D01*
X0318800Y0386388D01*
X0318800Y0388690D01*
X0318033Y0389457D01*
X0308800Y0389457D02*
X0307265Y0387923D01*
X0307265Y0388690D02*
X0307265Y0386388D01*
X0308800Y0386388D02*
X0304196Y0386388D01*
X0304196Y0388690D01*
X0304963Y0389457D01*
X0306498Y0389457D01*
X0307265Y0388690D01*
X0308033Y0390992D02*
X0308800Y0391759D01*
X0308800Y0393294D01*
X0308033Y0394061D01*
X0307265Y0394061D01*
X0306498Y0393294D01*
X0306498Y0391759D01*
X0305731Y0390992D01*
X0304963Y0390992D01*
X0304196Y0391759D01*
X0304196Y0393294D01*
X0304963Y0394061D01*
X0304196Y0395596D02*
X0304196Y0398665D01*
X0304196Y0397131D02*
X0308800Y0397131D01*
X0298800Y0398665D02*
X0298800Y0395596D01*
X0294196Y0395596D01*
X0294196Y0398665D01*
X0296498Y0397131D02*
X0296498Y0395596D01*
X0294963Y0394061D02*
X0294196Y0393294D01*
X0294196Y0391759D01*
X0294963Y0390992D01*
X0298033Y0390992D01*
X0298800Y0391759D01*
X0298800Y0393294D01*
X0298033Y0394061D01*
X0298033Y0389457D02*
X0298800Y0388690D01*
X0298800Y0387156D01*
X0298033Y0386388D01*
X0296498Y0387156D02*
X0296498Y0388690D01*
X0297265Y0389457D01*
X0298033Y0389457D01*
X0296498Y0387156D02*
X0295731Y0386388D01*
X0294963Y0386388D01*
X0294196Y0387156D01*
X0294196Y0388690D01*
X0294963Y0389457D01*
X0288800Y0388690D02*
X0288800Y0387156D01*
X0288033Y0386388D01*
X0284963Y0386388D01*
X0284196Y0387156D01*
X0284196Y0388690D01*
X0284963Y0389457D01*
X0286498Y0389457D02*
X0286498Y0387923D01*
X0286498Y0389457D02*
X0288033Y0389457D01*
X0288800Y0388690D01*
X0288800Y0390992D02*
X0284196Y0390992D01*
X0288800Y0394061D01*
X0284196Y0394061D01*
X0284196Y0395596D02*
X0284196Y0397898D01*
X0284963Y0398665D01*
X0288033Y0398665D01*
X0288800Y0397898D01*
X0288800Y0395596D01*
X0284196Y0395596D01*
X0278800Y0396363D02*
X0278800Y0397898D01*
X0278033Y0398665D01*
X0278800Y0396363D02*
X0278033Y0395596D01*
X0274963Y0395596D01*
X0274196Y0396363D01*
X0274196Y0397898D01*
X0274963Y0398665D01*
X0274963Y0394061D02*
X0274196Y0393294D01*
X0274196Y0391759D01*
X0274963Y0390992D01*
X0278033Y0390992D01*
X0278800Y0391759D01*
X0278800Y0393294D01*
X0278033Y0394061D01*
X0277265Y0389457D02*
X0274196Y0389457D01*
X0274196Y0386388D02*
X0277265Y0386388D01*
X0278800Y0387923D01*
X0277265Y0389457D01*
X0324196Y0377180D02*
X0326498Y0374111D01*
X0328800Y0369507D02*
X0324196Y0369507D01*
X0334963Y0381784D02*
X0335731Y0381784D01*
X0336498Y0382552D01*
X0336498Y0384086D01*
X0337265Y0384854D01*
X0338033Y0384854D01*
X0338800Y0384086D01*
X0338800Y0382552D01*
X0338033Y0381784D01*
X0334963Y0381784D02*
X0334196Y0382552D01*
X0334196Y0384086D01*
X0334963Y0384854D01*
X0334963Y0386388D02*
X0338033Y0386388D01*
X0338800Y0387155D01*
X0338800Y0388690D01*
X0338033Y0389457D01*
X0338800Y0390992D02*
X0338800Y0394061D01*
X0338800Y0395596D02*
X0334196Y0395596D01*
X0336498Y0396363D02*
X0338800Y0398665D01*
X0337265Y0395596D02*
X0334196Y0398665D01*
X0334196Y0390992D02*
X0338800Y0390992D01*
X0334963Y0389457D02*
X0334196Y0388690D01*
X0334196Y0387155D01*
X0334963Y0386388D01*
X0344196Y0386388D02*
X0348800Y0386388D01*
X0348800Y0389457D01*
X0348800Y0390992D02*
X0348800Y0394061D01*
X0348800Y0395596D02*
X0348800Y0397898D01*
X0348033Y0398665D01*
X0344963Y0398665D01*
X0344196Y0397898D01*
X0344196Y0395596D01*
X0348800Y0395596D01*
X0346498Y0392527D02*
X0346498Y0390992D01*
X0344196Y0390992D02*
X0348800Y0390992D01*
X0344196Y0390992D02*
X0344196Y0394061D01*
X0181477Y0301537D02*
X0181477Y0298467D01*
X0180710Y0297700D01*
X0178408Y0297700D01*
X0178408Y0302304D01*
X0180710Y0302304D01*
X0181477Y0301537D01*
X0176873Y0302304D02*
X0176873Y0297700D01*
X0173804Y0302304D01*
X0173804Y0297700D01*
X0172269Y0298467D02*
X0172269Y0300002D01*
X0170735Y0300002D01*
X0172269Y0301537D02*
X0171502Y0302304D01*
X0169967Y0302304D01*
X0169200Y0301537D01*
X0169200Y0298467D01*
X0169967Y0297700D01*
X0171502Y0297700D01*
X0172269Y0298467D01*
X0171502Y0292304D02*
X0169200Y0292304D01*
X0169200Y0287700D01*
X0169200Y0289235D02*
X0171502Y0289235D01*
X0172269Y0290002D01*
X0172269Y0291537D01*
X0171502Y0292304D01*
X0173804Y0292304D02*
X0176106Y0292304D01*
X0176873Y0291537D01*
X0176873Y0290769D01*
X0176106Y0290002D01*
X0173804Y0290002D01*
X0176106Y0290002D02*
X0176873Y0289235D01*
X0176873Y0288467D01*
X0176106Y0287700D01*
X0173804Y0287700D01*
X0173804Y0292304D01*
X0178408Y0291537D02*
X0179175Y0292304D01*
X0180710Y0292304D01*
X0181477Y0291537D01*
X0181477Y0290769D01*
X0178408Y0287700D01*
X0181477Y0287700D01*
X0180710Y0282304D02*
X0181477Y0281537D01*
X0178408Y0278467D01*
X0179175Y0277700D01*
X0180710Y0277700D01*
X0181477Y0278467D01*
X0181477Y0281537D01*
X0180710Y0282304D02*
X0179175Y0282304D01*
X0178408Y0281537D01*
X0178408Y0278467D01*
X0176873Y0277700D02*
X0173804Y0277700D01*
X0173804Y0282304D01*
X0176873Y0282304D01*
X0175339Y0280002D02*
X0173804Y0280002D01*
X0172269Y0280002D02*
X0171502Y0279235D01*
X0169200Y0279235D01*
X0169200Y0277700D02*
X0169200Y0282304D01*
X0171502Y0282304D01*
X0172269Y0281537D01*
X0172269Y0280002D01*
X0171502Y0272304D02*
X0169200Y0272304D01*
X0169200Y0267700D01*
X0169200Y0269235D02*
X0171502Y0269235D01*
X0172269Y0270002D01*
X0172269Y0271537D01*
X0171502Y0272304D01*
X0173804Y0272304D02*
X0176873Y0272304D01*
X0178408Y0271537D02*
X0179175Y0272304D01*
X0180710Y0272304D01*
X0181477Y0271537D01*
X0178408Y0268467D01*
X0179175Y0267700D01*
X0180710Y0267700D01*
X0181477Y0268467D01*
X0181477Y0271537D01*
X0178408Y0271537D02*
X0178408Y0268467D01*
X0175339Y0270002D02*
X0173804Y0270002D01*
X0173804Y0267700D02*
X0173804Y0272304D01*
X0174571Y0262304D02*
X0173804Y0261537D01*
X0173804Y0260769D01*
X0174571Y0260002D01*
X0176106Y0260002D01*
X0176873Y0259235D01*
X0176873Y0258467D01*
X0176106Y0257700D01*
X0174571Y0257700D01*
X0173804Y0258467D01*
X0172269Y0257700D02*
X0170735Y0259235D01*
X0171502Y0259235D02*
X0169200Y0259235D01*
X0169200Y0257700D02*
X0169200Y0262304D01*
X0171502Y0262304D01*
X0172269Y0261537D01*
X0172269Y0260002D01*
X0171502Y0259235D01*
X0174571Y0262304D02*
X0176106Y0262304D01*
X0176873Y0261537D01*
X0178408Y0262304D02*
X0181477Y0262304D01*
X0179942Y0262304D02*
X0179942Y0257700D01*
X0178408Y0252304D02*
X0181477Y0252304D01*
X0181477Y0251537D01*
X0178408Y0248467D01*
X0178408Y0247700D01*
X0176873Y0248467D02*
X0176106Y0247700D01*
X0173804Y0247700D01*
X0173804Y0252304D01*
X0176106Y0252304D01*
X0176873Y0251537D01*
X0176873Y0250769D01*
X0176106Y0250002D01*
X0173804Y0250002D01*
X0172269Y0250002D02*
X0171502Y0249235D01*
X0169200Y0249235D01*
X0169200Y0247700D02*
X0169200Y0252304D01*
X0171502Y0252304D01*
X0172269Y0251537D01*
X0172269Y0250002D01*
X0176106Y0250002D02*
X0176873Y0249235D01*
X0176873Y0248467D01*
X0176106Y0242304D02*
X0173804Y0242304D01*
X0173804Y0237700D01*
X0176106Y0237700D01*
X0176873Y0238467D01*
X0176873Y0239235D01*
X0176106Y0240002D01*
X0173804Y0240002D01*
X0172269Y0240002D02*
X0171502Y0239235D01*
X0169200Y0239235D01*
X0169200Y0237700D02*
X0169200Y0242304D01*
X0171502Y0242304D01*
X0172269Y0241537D01*
X0172269Y0240002D01*
X0176106Y0240002D02*
X0176873Y0240769D01*
X0176873Y0241537D01*
X0176106Y0242304D01*
X0178408Y0240002D02*
X0180710Y0240002D01*
X0181477Y0239235D01*
X0181477Y0238467D01*
X0180710Y0237700D01*
X0179175Y0237700D01*
X0178408Y0238467D01*
X0178408Y0240002D01*
X0179942Y0241537D01*
X0181477Y0242304D01*
X0180710Y0232304D02*
X0178408Y0230002D01*
X0181477Y0230002D01*
X0180710Y0227700D02*
X0180710Y0232304D01*
X0176873Y0230769D02*
X0176873Y0227700D01*
X0176873Y0230002D02*
X0173804Y0230002D01*
X0173804Y0230769D02*
X0175339Y0232304D01*
X0176873Y0230769D01*
X0173804Y0230769D02*
X0173804Y0227700D01*
X0172269Y0230002D02*
X0171502Y0229235D01*
X0169200Y0229235D01*
X0169200Y0227700D02*
X0169200Y0232304D01*
X0171502Y0232304D01*
X0172269Y0231537D01*
X0172269Y0230002D01*
X0171502Y0222304D02*
X0169200Y0222304D01*
X0169200Y0217700D01*
X0169200Y0219235D02*
X0171502Y0219235D01*
X0172269Y0220002D01*
X0172269Y0221537D01*
X0171502Y0222304D01*
X0173804Y0220769D02*
X0175339Y0222304D01*
X0176873Y0220769D01*
X0176873Y0217700D01*
X0178408Y0218467D02*
X0179175Y0217700D01*
X0180710Y0217700D01*
X0181477Y0218467D01*
X0181477Y0219235D01*
X0180710Y0220002D01*
X0179942Y0220002D01*
X0180710Y0220002D02*
X0181477Y0220769D01*
X0181477Y0221537D01*
X0180710Y0222304D01*
X0179175Y0222304D01*
X0178408Y0221537D01*
X0176873Y0220002D02*
X0173804Y0220002D01*
X0173804Y0220769D02*
X0173804Y0217700D01*
X0175339Y0212304D02*
X0176873Y0210769D01*
X0176873Y0207700D01*
X0178408Y0207700D02*
X0181477Y0210769D01*
X0181477Y0211537D01*
X0180710Y0212304D01*
X0179175Y0212304D01*
X0178408Y0211537D01*
X0176873Y0210002D02*
X0173804Y0210002D01*
X0173804Y0210769D02*
X0175339Y0212304D01*
X0173804Y0210769D02*
X0173804Y0207700D01*
X0172269Y0210002D02*
X0171502Y0209235D01*
X0169200Y0209235D01*
X0169200Y0207700D02*
X0169200Y0212304D01*
X0171502Y0212304D01*
X0172269Y0211537D01*
X0172269Y0210002D01*
X0178408Y0207700D02*
X0181477Y0207700D01*
X0162665Y0210002D02*
X0159596Y0210002D01*
X0161898Y0212304D01*
X0161898Y0207700D01*
X0156527Y0210002D02*
X0154992Y0210002D01*
X0153457Y0210002D02*
X0152690Y0209235D01*
X0150388Y0209235D01*
X0150388Y0207700D02*
X0150388Y0212304D01*
X0152690Y0212304D01*
X0153457Y0211537D01*
X0153457Y0210002D01*
X0154992Y0207700D02*
X0154992Y0212304D01*
X0158061Y0212304D01*
X0157294Y0217700D02*
X0154992Y0217700D01*
X0154992Y0222304D01*
X0157294Y0222304D01*
X0158061Y0221537D01*
X0158061Y0218467D01*
X0157294Y0217700D01*
X0159596Y0217700D02*
X0159596Y0218467D01*
X0162665Y0221537D01*
X0162665Y0222304D01*
X0159596Y0222304D01*
X0160363Y0227700D02*
X0161898Y0227700D01*
X0162665Y0228467D01*
X0162665Y0229235D01*
X0161898Y0230002D01*
X0159596Y0230002D01*
X0159596Y0228467D01*
X0160363Y0227700D01*
X0158061Y0228467D02*
X0158061Y0231537D01*
X0157294Y0232304D01*
X0154992Y0232304D01*
X0154992Y0227700D01*
X0157294Y0227700D01*
X0158061Y0228467D01*
X0159596Y0230002D02*
X0161131Y0231537D01*
X0162665Y0232304D01*
X0159596Y0237700D02*
X0159596Y0238467D01*
X0162665Y0241537D01*
X0162665Y0242304D01*
X0159596Y0242304D01*
X0158061Y0241537D02*
X0157294Y0242304D01*
X0155759Y0242304D01*
X0154992Y0241537D01*
X0154992Y0238467D01*
X0155759Y0237700D01*
X0157294Y0237700D01*
X0158061Y0238467D01*
X0153457Y0240002D02*
X0152690Y0239235D01*
X0150388Y0239235D01*
X0150388Y0237700D02*
X0150388Y0242304D01*
X0152690Y0242304D01*
X0153457Y0241537D01*
X0153457Y0240002D01*
X0152690Y0232304D02*
X0150388Y0232304D01*
X0150388Y0227700D01*
X0150388Y0229235D02*
X0152690Y0229235D01*
X0153457Y0230002D01*
X0153457Y0231537D01*
X0152690Y0232304D01*
X0152690Y0222304D02*
X0150388Y0222304D01*
X0150388Y0217700D01*
X0150388Y0219235D02*
X0152690Y0219235D01*
X0153457Y0220002D01*
X0153457Y0221537D01*
X0152690Y0222304D01*
X0150388Y0247700D02*
X0150388Y0252304D01*
X0152690Y0252304D01*
X0153457Y0251537D01*
X0153457Y0250002D01*
X0152690Y0249235D01*
X0150388Y0249235D01*
X0154992Y0248467D02*
X0155759Y0247700D01*
X0157294Y0247700D01*
X0158061Y0248467D01*
X0159596Y0248467D02*
X0160363Y0247700D01*
X0161898Y0247700D01*
X0162665Y0248467D01*
X0162665Y0249235D01*
X0161898Y0250002D01*
X0159596Y0250002D01*
X0159596Y0248467D01*
X0159596Y0250002D02*
X0161131Y0251537D01*
X0162665Y0252304D01*
X0158061Y0251537D02*
X0157294Y0252304D01*
X0155759Y0252304D01*
X0154992Y0251537D01*
X0154992Y0248467D01*
X0155759Y0257700D02*
X0157294Y0257700D01*
X0158061Y0258467D01*
X0159596Y0258467D02*
X0160363Y0257700D01*
X0161898Y0257700D01*
X0162665Y0258467D01*
X0162665Y0260002D01*
X0161898Y0260769D01*
X0161131Y0260769D01*
X0159596Y0260002D01*
X0159596Y0262304D01*
X0162665Y0262304D01*
X0158061Y0261537D02*
X0157294Y0262304D01*
X0155759Y0262304D01*
X0154992Y0261537D01*
X0154992Y0258467D01*
X0155759Y0257700D01*
X0153457Y0260002D02*
X0152690Y0259235D01*
X0150388Y0259235D01*
X0150388Y0257700D02*
X0150388Y0262304D01*
X0152690Y0262304D01*
X0153457Y0261537D01*
X0153457Y0260002D01*
X0155759Y0267700D02*
X0157294Y0267700D01*
X0158061Y0268467D01*
X0159596Y0270002D02*
X0162665Y0270002D01*
X0161898Y0272304D02*
X0159596Y0270002D01*
X0158061Y0271537D02*
X0157294Y0272304D01*
X0155759Y0272304D01*
X0154992Y0271537D01*
X0154992Y0268467D01*
X0155759Y0267700D01*
X0153457Y0270002D02*
X0152690Y0269235D01*
X0150388Y0269235D01*
X0150388Y0267700D02*
X0150388Y0272304D01*
X0152690Y0272304D01*
X0153457Y0271537D01*
X0153457Y0270002D01*
X0154992Y0277700D02*
X0157294Y0277700D01*
X0158061Y0278467D01*
X0158061Y0279235D01*
X0157294Y0280002D01*
X0154992Y0280002D01*
X0153457Y0280002D02*
X0152690Y0279235D01*
X0150388Y0279235D01*
X0150388Y0277700D02*
X0150388Y0282304D01*
X0152690Y0282304D01*
X0153457Y0281537D01*
X0153457Y0280002D01*
X0154992Y0282304D02*
X0157294Y0282304D01*
X0158061Y0281537D01*
X0158061Y0280769D01*
X0157294Y0280002D01*
X0159596Y0281537D02*
X0160363Y0282304D01*
X0161898Y0282304D01*
X0162665Y0281537D01*
X0162665Y0280769D01*
X0161898Y0280002D01*
X0162665Y0279235D01*
X0162665Y0278467D01*
X0161898Y0277700D01*
X0160363Y0277700D01*
X0159596Y0278467D01*
X0161131Y0280002D02*
X0161898Y0280002D01*
X0154992Y0277700D02*
X0154992Y0282304D01*
X0154992Y0287700D02*
X0154992Y0292304D01*
X0158061Y0292304D01*
X0159596Y0291537D02*
X0160363Y0292304D01*
X0161898Y0292304D01*
X0162665Y0291537D01*
X0162665Y0290769D01*
X0161898Y0290002D01*
X0162665Y0289235D01*
X0162665Y0288467D01*
X0161898Y0287700D01*
X0160363Y0287700D01*
X0159596Y0288467D01*
X0161131Y0290002D02*
X0161898Y0290002D01*
X0156527Y0290002D02*
X0154992Y0290002D01*
X0153457Y0290002D02*
X0152690Y0289235D01*
X0150388Y0289235D01*
X0150388Y0287700D02*
X0150388Y0292304D01*
X0152690Y0292304D01*
X0153457Y0291537D01*
X0153457Y0290002D01*
X0154992Y0297700D02*
X0154992Y0302304D01*
X0158061Y0302304D01*
X0159596Y0301537D02*
X0160363Y0302304D01*
X0161898Y0302304D01*
X0162665Y0301537D01*
X0162665Y0300769D01*
X0159596Y0297700D01*
X0162665Y0297700D01*
X0156527Y0300002D02*
X0154992Y0300002D01*
X0153457Y0300002D02*
X0152690Y0299235D01*
X0150388Y0299235D01*
X0150388Y0297700D02*
X0150388Y0302304D01*
X0152690Y0302304D01*
X0153457Y0301537D01*
X0153457Y0300002D01*
X0161898Y0272304D02*
X0161898Y0267700D01*
X0229027Y0213269D02*
X0230561Y0214804D01*
X0230561Y0210200D01*
X0229027Y0210200D02*
X0232096Y0210200D01*
X0233631Y0210200D02*
X0234398Y0210200D01*
X0234398Y0210967D01*
X0233631Y0210967D01*
X0233631Y0210200D01*
X0235933Y0210967D02*
X0236700Y0210200D01*
X0238235Y0210200D01*
X0239002Y0210967D01*
X0239002Y0212502D01*
X0238235Y0213269D01*
X0237467Y0213269D01*
X0235933Y0212502D01*
X0235933Y0214804D01*
X0239002Y0214804D01*
X0240537Y0214804D02*
X0240537Y0210200D01*
X0240537Y0211735D02*
X0242839Y0213269D01*
X0240537Y0211735D02*
X0242839Y0210200D01*
X0240537Y0189804D02*
X0240537Y0185200D01*
X0240537Y0186735D02*
X0242839Y0188269D01*
X0240537Y0186735D02*
X0242839Y0185200D01*
X0239002Y0185967D02*
X0238235Y0185200D01*
X0236700Y0185200D01*
X0235933Y0185967D01*
X0235933Y0187502D02*
X0237467Y0188269D01*
X0238235Y0188269D01*
X0239002Y0187502D01*
X0239002Y0185967D01*
X0235933Y0187502D02*
X0235933Y0189804D01*
X0239002Y0189804D01*
X0234398Y0185967D02*
X0234398Y0185200D01*
X0233631Y0185200D01*
X0233631Y0185967D01*
X0234398Y0185967D01*
X0232096Y0185200D02*
X0229027Y0185200D01*
X0230561Y0185200D02*
X0230561Y0189804D01*
X0229027Y0188269D01*
X0231712Y0164804D02*
X0231712Y0160200D01*
X0230178Y0160200D02*
X0233247Y0160200D01*
X0234782Y0160200D02*
X0237851Y0163269D01*
X0237851Y0164037D01*
X0237084Y0164804D01*
X0235549Y0164804D01*
X0234782Y0164037D01*
X0231712Y0164804D02*
X0230178Y0163269D01*
X0234782Y0160200D02*
X0237851Y0160200D01*
X0239386Y0160200D02*
X0239386Y0164804D01*
X0241688Y0163269D02*
X0239386Y0161735D01*
X0241688Y0160200D01*
X0239386Y0139804D02*
X0239386Y0135200D01*
X0239386Y0136735D02*
X0241688Y0138269D01*
X0239386Y0136735D02*
X0241688Y0135200D01*
X0237851Y0135200D02*
X0234782Y0135200D01*
X0237851Y0138269D01*
X0237851Y0139037D01*
X0237084Y0139804D01*
X0235549Y0139804D01*
X0234782Y0139037D01*
X0231712Y0139804D02*
X0231712Y0135200D01*
X0230178Y0135200D02*
X0233247Y0135200D01*
X0230178Y0138269D02*
X0231712Y0139804D01*
X0231712Y0114804D02*
X0231712Y0110200D01*
X0230178Y0110200D02*
X0233247Y0110200D01*
X0234782Y0110200D02*
X0237851Y0113269D01*
X0237851Y0114037D01*
X0237084Y0114804D01*
X0235549Y0114804D01*
X0234782Y0114037D01*
X0231712Y0114804D02*
X0230178Y0113269D01*
X0234782Y0110200D02*
X0237851Y0110200D01*
X0239386Y0110200D02*
X0239386Y0114804D01*
X0241688Y0113269D02*
X0239386Y0111735D01*
X0241688Y0110200D01*
X0242967Y0089804D02*
X0242200Y0089037D01*
X0242200Y0085967D01*
X0242967Y0085200D01*
X0244502Y0085200D01*
X0245269Y0085967D01*
X0245269Y0087502D01*
X0243735Y0087502D01*
X0245269Y0089037D02*
X0244502Y0089804D01*
X0242967Y0089804D01*
X0246804Y0089804D02*
X0249873Y0085200D01*
X0249873Y0089804D01*
X0251408Y0089804D02*
X0253710Y0089804D01*
X0254477Y0089037D01*
X0254477Y0085967D01*
X0253710Y0085200D01*
X0251408Y0085200D01*
X0251408Y0089804D01*
X0246804Y0089804D02*
X0246804Y0085200D01*
X0247477Y0074804D02*
X0247477Y0070200D01*
X0250546Y0070200D01*
X0252081Y0070200D02*
X0252081Y0074804D01*
X0254383Y0074804D01*
X0255150Y0074037D01*
X0255150Y0072502D01*
X0254383Y0071735D01*
X0252081Y0071735D01*
X0253616Y0071735D02*
X0255150Y0070200D01*
X0250546Y0074804D02*
X0247477Y0074804D01*
X0245942Y0074037D02*
X0245942Y0072502D01*
X0245175Y0071735D01*
X0242873Y0071735D01*
X0242873Y0070200D02*
X0242873Y0074804D01*
X0245175Y0074804D01*
X0245942Y0074037D01*
X0247477Y0072502D02*
X0249012Y0072502D01*
X0241339Y0074804D02*
X0239804Y0074804D01*
X0240571Y0074804D02*
X0240571Y0070200D01*
X0239804Y0070200D02*
X0241339Y0070200D01*
X0238269Y0070200D02*
X0238269Y0074804D01*
X0235200Y0074804D02*
X0235200Y0070200D01*
X0236735Y0071735D01*
X0238269Y0070200D01*
X0182071Y0100200D02*
X0179769Y0102502D01*
X0179002Y0101735D02*
X0182071Y0104804D01*
X0179002Y0104804D02*
X0179002Y0100200D01*
X0177467Y0100967D02*
X0176700Y0100200D01*
X0175165Y0100200D01*
X0174398Y0100967D01*
X0177467Y0104037D01*
X0177467Y0100967D01*
X0174398Y0100967D02*
X0174398Y0104037D01*
X0175165Y0104804D01*
X0176700Y0104804D01*
X0177467Y0104037D01*
X0172863Y0100200D02*
X0169794Y0100200D01*
X0171329Y0100200D02*
X0171329Y0104804D01*
X0169794Y0103269D01*
X0110977Y0089537D02*
X0110210Y0090304D01*
X0108675Y0090304D01*
X0107908Y0089537D01*
X0107908Y0086467D01*
X0108675Y0085700D01*
X0110210Y0085700D01*
X0110977Y0086467D01*
X0106373Y0086467D02*
X0105606Y0085700D01*
X0104071Y0085700D01*
X0103304Y0086467D01*
X0103304Y0089537D01*
X0104071Y0090304D01*
X0105606Y0090304D01*
X0106373Y0089537D01*
X0101769Y0090304D02*
X0101769Y0087235D01*
X0100235Y0085700D01*
X0098700Y0087235D01*
X0098700Y0090304D01*
X0072477Y0207700D02*
X0069408Y0207700D01*
X0070942Y0207700D02*
X0070942Y0212304D01*
X0069408Y0210769D01*
X0067873Y0212304D02*
X0064804Y0212304D01*
X0064804Y0207700D01*
X0064804Y0210002D02*
X0066339Y0210002D01*
X0063269Y0210002D02*
X0062502Y0209235D01*
X0060200Y0209235D01*
X0060200Y0207700D02*
X0060200Y0212304D01*
X0062502Y0212304D01*
X0063269Y0211537D01*
X0063269Y0210002D01*
X0064804Y0217700D02*
X0067873Y0217700D01*
X0069408Y0218467D02*
X0070175Y0217700D01*
X0071710Y0217700D01*
X0072477Y0218467D01*
X0072477Y0219235D01*
X0071710Y0220002D01*
X0070942Y0220002D01*
X0071710Y0220002D02*
X0072477Y0220769D01*
X0072477Y0221537D01*
X0071710Y0222304D01*
X0070175Y0222304D01*
X0069408Y0221537D01*
X0067873Y0222304D02*
X0064804Y0222304D01*
X0064804Y0217700D01*
X0064804Y0220002D02*
X0066339Y0220002D01*
X0063269Y0220002D02*
X0063269Y0221537D01*
X0062502Y0222304D01*
X0060200Y0222304D01*
X0060200Y0217700D01*
X0060200Y0219235D02*
X0062502Y0219235D01*
X0063269Y0220002D01*
X0064804Y0227700D02*
X0067873Y0227700D01*
X0069408Y0227700D02*
X0072477Y0230769D01*
X0072477Y0231537D01*
X0071710Y0232304D01*
X0070175Y0232304D01*
X0069408Y0231537D01*
X0067873Y0232304D02*
X0064804Y0232304D01*
X0064804Y0227700D01*
X0064804Y0230002D02*
X0066339Y0230002D01*
X0063269Y0230002D02*
X0062502Y0229235D01*
X0060200Y0229235D01*
X0060200Y0227700D02*
X0060200Y0232304D01*
X0062502Y0232304D01*
X0063269Y0231537D01*
X0063269Y0230002D01*
X0069408Y0227700D02*
X0072477Y0227700D01*
X0072477Y0237700D02*
X0069408Y0237700D01*
X0070942Y0237700D02*
X0070942Y0242304D01*
X0069408Y0240769D01*
X0067873Y0242304D02*
X0064804Y0242304D01*
X0064804Y0237700D01*
X0067873Y0237700D01*
X0066339Y0240002D02*
X0064804Y0240002D01*
X0063269Y0240002D02*
X0062502Y0239235D01*
X0060200Y0239235D01*
X0060200Y0237700D02*
X0060200Y0242304D01*
X0062502Y0242304D01*
X0063269Y0241537D01*
X0063269Y0240002D01*
X0064804Y0247700D02*
X0067106Y0247700D01*
X0067873Y0248467D01*
X0067873Y0251537D01*
X0067106Y0252304D01*
X0064804Y0252304D01*
X0064804Y0247700D01*
X0063269Y0250002D02*
X0062502Y0249235D01*
X0060200Y0249235D01*
X0060200Y0247700D02*
X0060200Y0252304D01*
X0062502Y0252304D01*
X0063269Y0251537D01*
X0063269Y0250002D01*
X0069408Y0251537D02*
X0070175Y0252304D01*
X0071710Y0252304D01*
X0072477Y0251537D01*
X0072477Y0250769D01*
X0071710Y0250002D01*
X0072477Y0249235D01*
X0072477Y0248467D01*
X0071710Y0247700D01*
X0070175Y0247700D01*
X0069408Y0248467D01*
X0070942Y0250002D02*
X0071710Y0250002D01*
X0072477Y0257700D02*
X0069408Y0257700D01*
X0072477Y0260769D01*
X0072477Y0261537D01*
X0071710Y0262304D01*
X0070175Y0262304D01*
X0069408Y0261537D01*
X0067873Y0261537D02*
X0067106Y0262304D01*
X0064804Y0262304D01*
X0064804Y0257700D01*
X0067106Y0257700D01*
X0067873Y0258467D01*
X0067873Y0261537D01*
X0063269Y0261537D02*
X0063269Y0260002D01*
X0062502Y0259235D01*
X0060200Y0259235D01*
X0060200Y0257700D02*
X0060200Y0262304D01*
X0062502Y0262304D01*
X0063269Y0261537D01*
X0064804Y0267700D02*
X0067106Y0267700D01*
X0067873Y0268467D01*
X0067873Y0271537D01*
X0067106Y0272304D01*
X0064804Y0272304D01*
X0064804Y0267700D01*
X0063269Y0270002D02*
X0062502Y0269235D01*
X0060200Y0269235D01*
X0060200Y0267700D02*
X0060200Y0272304D01*
X0062502Y0272304D01*
X0063269Y0271537D01*
X0063269Y0270002D01*
X0069408Y0270769D02*
X0070942Y0272304D01*
X0070942Y0267700D01*
X0069408Y0267700D02*
X0072477Y0267700D01*
X0071710Y0277700D02*
X0070175Y0277700D01*
X0069408Y0278467D01*
X0072477Y0281537D01*
X0072477Y0278467D01*
X0071710Y0277700D01*
X0069408Y0278467D02*
X0069408Y0281537D01*
X0070175Y0282304D01*
X0071710Y0282304D01*
X0072477Y0281537D01*
X0067873Y0281537D02*
X0067106Y0282304D01*
X0064804Y0282304D01*
X0064804Y0277700D01*
X0067106Y0277700D01*
X0067873Y0278467D01*
X0067873Y0281537D01*
X0063269Y0281537D02*
X0063269Y0280002D01*
X0062502Y0279235D01*
X0060200Y0279235D01*
X0060200Y0277700D02*
X0060200Y0282304D01*
X0062502Y0282304D01*
X0063269Y0281537D01*
X0062502Y0287700D02*
X0063269Y0288467D01*
X0063269Y0290002D01*
X0061735Y0290002D01*
X0063269Y0291537D02*
X0062502Y0292304D01*
X0060967Y0292304D01*
X0060200Y0291537D01*
X0060200Y0288467D01*
X0060967Y0287700D01*
X0062502Y0287700D01*
X0064804Y0287700D02*
X0064804Y0292304D01*
X0067873Y0287700D01*
X0067873Y0292304D01*
X0069408Y0292304D02*
X0071710Y0292304D01*
X0072477Y0291537D01*
X0072477Y0288467D01*
X0071710Y0287700D01*
X0069408Y0287700D01*
X0069408Y0292304D01*
X0070175Y0297700D02*
X0071710Y0297700D01*
X0072477Y0298467D01*
X0072477Y0302304D01*
X0074012Y0301537D02*
X0074012Y0300769D01*
X0074779Y0300002D01*
X0076314Y0300002D01*
X0077081Y0299235D01*
X0077081Y0298467D01*
X0076314Y0297700D01*
X0074779Y0297700D01*
X0074012Y0298467D01*
X0074012Y0301537D02*
X0074779Y0302304D01*
X0076314Y0302304D01*
X0077081Y0301537D01*
X0069408Y0302304D02*
X0069408Y0298467D01*
X0070175Y0297700D01*
X0067873Y0298467D02*
X0067106Y0297700D01*
X0064804Y0297700D01*
X0064804Y0302304D01*
X0067106Y0302304D01*
X0067873Y0301537D01*
X0067873Y0300769D01*
X0067106Y0300002D01*
X0064804Y0300002D01*
X0063269Y0299235D02*
X0063269Y0302304D01*
X0060200Y0302304D02*
X0060200Y0299235D01*
X0061735Y0297700D01*
X0063269Y0299235D01*
X0067106Y0300002D02*
X0067873Y0299235D01*
X0067873Y0298467D01*
X0056165Y0299235D02*
X0056165Y0302304D01*
X0053096Y0302304D02*
X0053096Y0299235D01*
X0054631Y0297700D01*
X0056165Y0299235D01*
X0051561Y0299235D02*
X0051561Y0298467D01*
X0050794Y0297700D01*
X0049259Y0297700D01*
X0048492Y0298467D01*
X0046957Y0298467D02*
X0046957Y0297700D01*
X0046190Y0297700D01*
X0046190Y0298467D01*
X0046957Y0298467D01*
X0044656Y0298467D02*
X0043888Y0297700D01*
X0042354Y0297700D01*
X0041586Y0298467D01*
X0043121Y0300002D02*
X0043888Y0300002D01*
X0044656Y0299235D01*
X0044656Y0298467D01*
X0043888Y0300002D02*
X0044656Y0300769D01*
X0044656Y0301537D01*
X0043888Y0302304D01*
X0042354Y0302304D01*
X0041586Y0301537D01*
X0048492Y0301537D02*
X0049259Y0302304D01*
X0050794Y0302304D01*
X0051561Y0301537D01*
X0051561Y0300769D01*
X0050794Y0300002D01*
X0051561Y0299235D01*
X0050794Y0300002D02*
X0050027Y0300002D01*
X0050596Y0292304D02*
X0050596Y0290002D01*
X0052131Y0290769D01*
X0052898Y0290769D01*
X0053665Y0290002D01*
X0053665Y0288467D01*
X0052898Y0287700D01*
X0051363Y0287700D01*
X0050596Y0288467D01*
X0049061Y0288467D02*
X0048294Y0287700D01*
X0045992Y0287700D01*
X0045992Y0292304D01*
X0048294Y0292304D01*
X0049061Y0291537D01*
X0049061Y0290769D01*
X0048294Y0290002D01*
X0045992Y0290002D01*
X0044457Y0290002D02*
X0044457Y0291537D01*
X0043690Y0292304D01*
X0041388Y0292304D01*
X0041388Y0287700D01*
X0041388Y0289235D02*
X0043690Y0289235D01*
X0044457Y0290002D01*
X0048294Y0290002D02*
X0049061Y0289235D01*
X0049061Y0288467D01*
X0050596Y0292304D02*
X0053665Y0292304D01*
X0052898Y0282304D02*
X0053665Y0281537D01*
X0050596Y0278467D01*
X0051363Y0277700D01*
X0052898Y0277700D01*
X0053665Y0278467D01*
X0053665Y0281537D01*
X0052898Y0282304D02*
X0051363Y0282304D01*
X0050596Y0281537D01*
X0050596Y0278467D01*
X0049061Y0278467D02*
X0048294Y0277700D01*
X0045992Y0277700D01*
X0045992Y0282304D01*
X0048294Y0282304D01*
X0049061Y0281537D01*
X0049061Y0280769D01*
X0048294Y0280002D01*
X0045992Y0280002D01*
X0044457Y0280002D02*
X0043690Y0279235D01*
X0041388Y0279235D01*
X0041388Y0277700D02*
X0041388Y0282304D01*
X0043690Y0282304D01*
X0044457Y0281537D01*
X0044457Y0280002D01*
X0048294Y0280002D02*
X0049061Y0279235D01*
X0049061Y0278467D01*
X0048294Y0272304D02*
X0049061Y0271537D01*
X0049061Y0270769D01*
X0048294Y0270002D01*
X0045992Y0270002D01*
X0044457Y0270002D02*
X0043690Y0269235D01*
X0041388Y0269235D01*
X0041388Y0267700D02*
X0041388Y0272304D01*
X0043690Y0272304D01*
X0044457Y0271537D01*
X0044457Y0270002D01*
X0045992Y0267700D02*
X0045992Y0272304D01*
X0048294Y0272304D01*
X0048294Y0270002D02*
X0049061Y0269235D01*
X0049061Y0268467D01*
X0048294Y0267700D01*
X0045992Y0267700D01*
X0050596Y0267700D02*
X0053665Y0267700D01*
X0052131Y0267700D02*
X0052131Y0272304D01*
X0050596Y0270769D01*
X0049061Y0262304D02*
X0045992Y0262304D01*
X0045992Y0257700D01*
X0049061Y0257700D01*
X0047527Y0260002D02*
X0045992Y0260002D01*
X0044457Y0260002D02*
X0044457Y0261537D01*
X0043690Y0262304D01*
X0041388Y0262304D01*
X0041388Y0257700D01*
X0041388Y0259235D02*
X0043690Y0259235D01*
X0044457Y0260002D01*
X0043690Y0252304D02*
X0044457Y0251537D01*
X0044457Y0250002D01*
X0043690Y0249235D01*
X0041388Y0249235D01*
X0041388Y0247700D02*
X0041388Y0252304D01*
X0043690Y0252304D01*
X0045992Y0252304D02*
X0045992Y0247700D01*
X0049061Y0247700D01*
X0050596Y0248467D02*
X0051363Y0247700D01*
X0052898Y0247700D01*
X0053665Y0248467D01*
X0053665Y0250002D01*
X0052898Y0250769D01*
X0052131Y0250769D01*
X0050596Y0250002D01*
X0050596Y0252304D01*
X0053665Y0252304D01*
X0049061Y0252304D02*
X0045992Y0252304D01*
X0045992Y0250002D02*
X0047527Y0250002D01*
X0048294Y0242304D02*
X0049061Y0241537D01*
X0049061Y0240769D01*
X0048294Y0240002D01*
X0045992Y0240002D01*
X0044457Y0240002D02*
X0043690Y0239235D01*
X0041388Y0239235D01*
X0041388Y0237700D02*
X0041388Y0242304D01*
X0043690Y0242304D01*
X0044457Y0241537D01*
X0044457Y0240002D01*
X0045992Y0237700D02*
X0045992Y0242304D01*
X0048294Y0242304D01*
X0048294Y0240002D02*
X0049061Y0239235D01*
X0049061Y0238467D01*
X0048294Y0237700D01*
X0045992Y0237700D01*
X0050596Y0240002D02*
X0053665Y0240002D01*
X0052898Y0242304D02*
X0050596Y0240002D01*
X0052898Y0237700D02*
X0052898Y0242304D01*
X0053665Y0232304D02*
X0050596Y0232304D01*
X0050596Y0230002D01*
X0052131Y0230769D01*
X0052898Y0230769D01*
X0053665Y0230002D01*
X0053665Y0228467D01*
X0052898Y0227700D01*
X0051363Y0227700D01*
X0050596Y0228467D01*
X0049061Y0227700D02*
X0049061Y0230769D01*
X0047527Y0232304D01*
X0045992Y0230769D01*
X0045992Y0227700D01*
X0045992Y0230002D02*
X0049061Y0230002D01*
X0044457Y0230002D02*
X0043690Y0229235D01*
X0041388Y0229235D01*
X0041388Y0227700D02*
X0041388Y0232304D01*
X0043690Y0232304D01*
X0044457Y0231537D01*
X0044457Y0230002D01*
X0043690Y0222304D02*
X0044457Y0221537D01*
X0044457Y0220002D01*
X0043690Y0219235D01*
X0041388Y0219235D01*
X0041388Y0217700D02*
X0041388Y0222304D01*
X0043690Y0222304D01*
X0045992Y0220769D02*
X0045992Y0217700D01*
X0045992Y0220002D02*
X0049061Y0220002D01*
X0049061Y0220769D02*
X0049061Y0217700D01*
X0050596Y0218467D02*
X0051363Y0217700D01*
X0052898Y0217700D01*
X0053665Y0218467D01*
X0053665Y0219235D01*
X0052898Y0220002D01*
X0050596Y0220002D01*
X0050596Y0218467D01*
X0050596Y0220002D02*
X0052131Y0221537D01*
X0053665Y0222304D01*
X0049061Y0220769D02*
X0047527Y0222304D01*
X0045992Y0220769D01*
X0047527Y0212304D02*
X0049061Y0210769D01*
X0049061Y0207700D01*
X0050596Y0207700D02*
X0050596Y0208467D01*
X0053665Y0211537D01*
X0053665Y0212304D01*
X0050596Y0212304D01*
X0049061Y0210002D02*
X0045992Y0210002D01*
X0045992Y0210769D02*
X0047527Y0212304D01*
X0045992Y0210769D02*
X0045992Y0207700D01*
X0043690Y0209235D02*
X0041388Y0209235D01*
X0041388Y0207700D02*
X0041388Y0212304D01*
X0043690Y0212304D01*
X0044457Y0211537D01*
X0044457Y0210002D01*
X0043690Y0209235D01*
X0052898Y0257700D02*
X0052898Y0262304D01*
X0050596Y0260002D01*
X0053665Y0260002D01*
X0279027Y0188269D02*
X0280561Y0189804D01*
X0280561Y0185200D01*
X0279027Y0185200D02*
X0282096Y0185200D01*
X0283631Y0185200D02*
X0284398Y0185200D01*
X0284398Y0185967D01*
X0283631Y0185967D01*
X0283631Y0185200D01*
X0285933Y0185967D02*
X0286700Y0185200D01*
X0288235Y0185200D01*
X0289002Y0185967D01*
X0289002Y0187502D01*
X0288235Y0188269D01*
X0287467Y0188269D01*
X0285933Y0187502D01*
X0285933Y0189804D01*
X0289002Y0189804D01*
X0290537Y0189804D02*
X0290537Y0185200D01*
X0290537Y0186735D02*
X0292839Y0188269D01*
X0290537Y0186735D02*
X0292839Y0185200D01*
X0364794Y0159037D02*
X0365561Y0159804D01*
X0367096Y0159804D01*
X0367863Y0159037D01*
X0367863Y0158269D01*
X0367096Y0157502D01*
X0367863Y0156735D01*
X0367863Y0155967D01*
X0367096Y0155200D01*
X0365561Y0155200D01*
X0364794Y0155967D01*
X0366329Y0157502D02*
X0367096Y0157502D01*
X0369398Y0159037D02*
X0370165Y0159804D01*
X0371700Y0159804D01*
X0372467Y0159037D01*
X0369398Y0155967D01*
X0370165Y0155200D01*
X0371700Y0155200D01*
X0372467Y0155967D01*
X0372467Y0159037D01*
X0374002Y0159037D02*
X0374769Y0159804D01*
X0376304Y0159804D01*
X0377071Y0159037D01*
X0374002Y0155967D01*
X0374769Y0155200D01*
X0376304Y0155200D01*
X0377071Y0155967D01*
X0377071Y0159037D01*
X0374002Y0159037D02*
X0374002Y0155967D01*
X0369398Y0155967D02*
X0369398Y0159037D01*
X0370549Y0129804D02*
X0372084Y0129804D01*
X0372851Y0129037D01*
X0369782Y0125967D01*
X0370549Y0125200D01*
X0372084Y0125200D01*
X0372851Y0125967D01*
X0372851Y0129037D01*
X0374386Y0129804D02*
X0374386Y0125200D01*
X0374386Y0126735D02*
X0376688Y0128269D01*
X0374386Y0126735D02*
X0376688Y0125200D01*
X0369782Y0125967D02*
X0369782Y0129037D01*
X0370549Y0129804D01*
X0366712Y0129804D02*
X0366712Y0125200D01*
X0365178Y0125200D02*
X0368247Y0125200D01*
X0365178Y0128269D02*
X0366712Y0129804D01*
X0440178Y0113269D02*
X0441712Y0114804D01*
X0441712Y0110200D01*
X0440178Y0110200D02*
X0443247Y0110200D01*
X0444782Y0110967D02*
X0445549Y0110200D01*
X0447084Y0110200D01*
X0447851Y0110967D01*
X0447851Y0114037D01*
X0444782Y0110967D01*
X0444782Y0114037D01*
X0445549Y0114804D01*
X0447084Y0114804D01*
X0447851Y0114037D01*
X0449386Y0114804D02*
X0449386Y0110200D01*
X0449386Y0111735D02*
X0451688Y0110200D01*
X0449386Y0111735D02*
X0451688Y0113269D01*
X0451304Y0155200D02*
X0449769Y0155200D01*
X0449002Y0155967D01*
X0452071Y0159037D01*
X0452071Y0155967D01*
X0451304Y0155200D01*
X0449002Y0155967D02*
X0449002Y0159037D01*
X0449769Y0159804D01*
X0451304Y0159804D01*
X0452071Y0159037D01*
X0447467Y0159037D02*
X0444398Y0155967D01*
X0445165Y0155200D01*
X0446700Y0155200D01*
X0447467Y0155967D01*
X0447467Y0159037D01*
X0446700Y0159804D01*
X0445165Y0159804D01*
X0444398Y0159037D01*
X0444398Y0155967D01*
X0442863Y0155967D02*
X0442096Y0155200D01*
X0440561Y0155200D01*
X0439794Y0155967D01*
X0441329Y0157502D02*
X0442096Y0157502D01*
X0442863Y0156735D01*
X0442863Y0155967D01*
X0442096Y0157502D02*
X0442863Y0158269D01*
X0442863Y0159037D01*
X0442096Y0159804D01*
X0440561Y0159804D01*
X0439794Y0159037D01*
D14*
X0436500Y0190000D02*
X0436503Y0190245D01*
X0436512Y0190491D01*
X0436527Y0190736D01*
X0436548Y0190980D01*
X0436575Y0191224D01*
X0436608Y0191467D01*
X0436647Y0191710D01*
X0436692Y0191951D01*
X0436743Y0192191D01*
X0436800Y0192430D01*
X0436862Y0192667D01*
X0436931Y0192903D01*
X0437005Y0193137D01*
X0437085Y0193369D01*
X0437170Y0193599D01*
X0437261Y0193827D01*
X0437358Y0194052D01*
X0437460Y0194276D01*
X0437568Y0194496D01*
X0437681Y0194714D01*
X0437799Y0194929D01*
X0437923Y0195141D01*
X0438051Y0195350D01*
X0438185Y0195556D01*
X0438324Y0195758D01*
X0438468Y0195957D01*
X0438617Y0196152D01*
X0438770Y0196344D01*
X0438928Y0196532D01*
X0439090Y0196716D01*
X0439258Y0196895D01*
X0439429Y0197071D01*
X0439605Y0197242D01*
X0439784Y0197410D01*
X0439968Y0197572D01*
X0440156Y0197730D01*
X0440348Y0197883D01*
X0440543Y0198032D01*
X0440742Y0198176D01*
X0440944Y0198315D01*
X0441150Y0198449D01*
X0441359Y0198577D01*
X0441571Y0198701D01*
X0441786Y0198819D01*
X0442004Y0198932D01*
X0442224Y0199040D01*
X0442448Y0199142D01*
X0442673Y0199239D01*
X0442901Y0199330D01*
X0443131Y0199415D01*
X0443363Y0199495D01*
X0443597Y0199569D01*
X0443833Y0199638D01*
X0444070Y0199700D01*
X0444309Y0199757D01*
X0444549Y0199808D01*
X0444790Y0199853D01*
X0445033Y0199892D01*
X0445276Y0199925D01*
X0445520Y0199952D01*
X0445764Y0199973D01*
X0446009Y0199988D01*
X0446255Y0199997D01*
X0446500Y0200000D01*
X0446745Y0199997D01*
X0446991Y0199988D01*
X0447236Y0199973D01*
X0447480Y0199952D01*
X0447724Y0199925D01*
X0447967Y0199892D01*
X0448210Y0199853D01*
X0448451Y0199808D01*
X0448691Y0199757D01*
X0448930Y0199700D01*
X0449167Y0199638D01*
X0449403Y0199569D01*
X0449637Y0199495D01*
X0449869Y0199415D01*
X0450099Y0199330D01*
X0450327Y0199239D01*
X0450552Y0199142D01*
X0450776Y0199040D01*
X0450996Y0198932D01*
X0451214Y0198819D01*
X0451429Y0198701D01*
X0451641Y0198577D01*
X0451850Y0198449D01*
X0452056Y0198315D01*
X0452258Y0198176D01*
X0452457Y0198032D01*
X0452652Y0197883D01*
X0452844Y0197730D01*
X0453032Y0197572D01*
X0453216Y0197410D01*
X0453395Y0197242D01*
X0453571Y0197071D01*
X0453742Y0196895D01*
X0453910Y0196716D01*
X0454072Y0196532D01*
X0454230Y0196344D01*
X0454383Y0196152D01*
X0454532Y0195957D01*
X0454676Y0195758D01*
X0454815Y0195556D01*
X0454949Y0195350D01*
X0455077Y0195141D01*
X0455201Y0194929D01*
X0455319Y0194714D01*
X0455432Y0194496D01*
X0455540Y0194276D01*
X0455642Y0194052D01*
X0455739Y0193827D01*
X0455830Y0193599D01*
X0455915Y0193369D01*
X0455995Y0193137D01*
X0456069Y0192903D01*
X0456138Y0192667D01*
X0456200Y0192430D01*
X0456257Y0192191D01*
X0456308Y0191951D01*
X0456353Y0191710D01*
X0456392Y0191467D01*
X0456425Y0191224D01*
X0456452Y0190980D01*
X0456473Y0190736D01*
X0456488Y0190491D01*
X0456497Y0190245D01*
X0456500Y0190000D01*
X0456497Y0189755D01*
X0456488Y0189509D01*
X0456473Y0189264D01*
X0456452Y0189020D01*
X0456425Y0188776D01*
X0456392Y0188533D01*
X0456353Y0188290D01*
X0456308Y0188049D01*
X0456257Y0187809D01*
X0456200Y0187570D01*
X0456138Y0187333D01*
X0456069Y0187097D01*
X0455995Y0186863D01*
X0455915Y0186631D01*
X0455830Y0186401D01*
X0455739Y0186173D01*
X0455642Y0185948D01*
X0455540Y0185724D01*
X0455432Y0185504D01*
X0455319Y0185286D01*
X0455201Y0185071D01*
X0455077Y0184859D01*
X0454949Y0184650D01*
X0454815Y0184444D01*
X0454676Y0184242D01*
X0454532Y0184043D01*
X0454383Y0183848D01*
X0454230Y0183656D01*
X0454072Y0183468D01*
X0453910Y0183284D01*
X0453742Y0183105D01*
X0453571Y0182929D01*
X0453395Y0182758D01*
X0453216Y0182590D01*
X0453032Y0182428D01*
X0452844Y0182270D01*
X0452652Y0182117D01*
X0452457Y0181968D01*
X0452258Y0181824D01*
X0452056Y0181685D01*
X0451850Y0181551D01*
X0451641Y0181423D01*
X0451429Y0181299D01*
X0451214Y0181181D01*
X0450996Y0181068D01*
X0450776Y0180960D01*
X0450552Y0180858D01*
X0450327Y0180761D01*
X0450099Y0180670D01*
X0449869Y0180585D01*
X0449637Y0180505D01*
X0449403Y0180431D01*
X0449167Y0180362D01*
X0448930Y0180300D01*
X0448691Y0180243D01*
X0448451Y0180192D01*
X0448210Y0180147D01*
X0447967Y0180108D01*
X0447724Y0180075D01*
X0447480Y0180048D01*
X0447236Y0180027D01*
X0446991Y0180012D01*
X0446745Y0180003D01*
X0446500Y0180000D01*
X0446255Y0180003D01*
X0446009Y0180012D01*
X0445764Y0180027D01*
X0445520Y0180048D01*
X0445276Y0180075D01*
X0445033Y0180108D01*
X0444790Y0180147D01*
X0444549Y0180192D01*
X0444309Y0180243D01*
X0444070Y0180300D01*
X0443833Y0180362D01*
X0443597Y0180431D01*
X0443363Y0180505D01*
X0443131Y0180585D01*
X0442901Y0180670D01*
X0442673Y0180761D01*
X0442448Y0180858D01*
X0442224Y0180960D01*
X0442004Y0181068D01*
X0441786Y0181181D01*
X0441571Y0181299D01*
X0441359Y0181423D01*
X0441150Y0181551D01*
X0440944Y0181685D01*
X0440742Y0181824D01*
X0440543Y0181968D01*
X0440348Y0182117D01*
X0440156Y0182270D01*
X0439968Y0182428D01*
X0439784Y0182590D01*
X0439605Y0182758D01*
X0439429Y0182929D01*
X0439258Y0183105D01*
X0439090Y0183284D01*
X0438928Y0183468D01*
X0438770Y0183656D01*
X0438617Y0183848D01*
X0438468Y0184043D01*
X0438324Y0184242D01*
X0438185Y0184444D01*
X0438051Y0184650D01*
X0437923Y0184859D01*
X0437799Y0185071D01*
X0437681Y0185286D01*
X0437568Y0185504D01*
X0437460Y0185724D01*
X0437358Y0185948D01*
X0437261Y0186173D01*
X0437170Y0186401D01*
X0437085Y0186631D01*
X0437005Y0186863D01*
X0436931Y0187097D01*
X0436862Y0187333D01*
X0436800Y0187570D01*
X0436743Y0187809D01*
X0436692Y0188049D01*
X0436647Y0188290D01*
X0436608Y0188533D01*
X0436575Y0188776D01*
X0436548Y0189020D01*
X0436527Y0189264D01*
X0436512Y0189509D01*
X0436503Y0189755D01*
X0436500Y0190000D01*
X0361500Y0190000D02*
X0361503Y0190245D01*
X0361512Y0190491D01*
X0361527Y0190736D01*
X0361548Y0190980D01*
X0361575Y0191224D01*
X0361608Y0191467D01*
X0361647Y0191710D01*
X0361692Y0191951D01*
X0361743Y0192191D01*
X0361800Y0192430D01*
X0361862Y0192667D01*
X0361931Y0192903D01*
X0362005Y0193137D01*
X0362085Y0193369D01*
X0362170Y0193599D01*
X0362261Y0193827D01*
X0362358Y0194052D01*
X0362460Y0194276D01*
X0362568Y0194496D01*
X0362681Y0194714D01*
X0362799Y0194929D01*
X0362923Y0195141D01*
X0363051Y0195350D01*
X0363185Y0195556D01*
X0363324Y0195758D01*
X0363468Y0195957D01*
X0363617Y0196152D01*
X0363770Y0196344D01*
X0363928Y0196532D01*
X0364090Y0196716D01*
X0364258Y0196895D01*
X0364429Y0197071D01*
X0364605Y0197242D01*
X0364784Y0197410D01*
X0364968Y0197572D01*
X0365156Y0197730D01*
X0365348Y0197883D01*
X0365543Y0198032D01*
X0365742Y0198176D01*
X0365944Y0198315D01*
X0366150Y0198449D01*
X0366359Y0198577D01*
X0366571Y0198701D01*
X0366786Y0198819D01*
X0367004Y0198932D01*
X0367224Y0199040D01*
X0367448Y0199142D01*
X0367673Y0199239D01*
X0367901Y0199330D01*
X0368131Y0199415D01*
X0368363Y0199495D01*
X0368597Y0199569D01*
X0368833Y0199638D01*
X0369070Y0199700D01*
X0369309Y0199757D01*
X0369549Y0199808D01*
X0369790Y0199853D01*
X0370033Y0199892D01*
X0370276Y0199925D01*
X0370520Y0199952D01*
X0370764Y0199973D01*
X0371009Y0199988D01*
X0371255Y0199997D01*
X0371500Y0200000D01*
X0371745Y0199997D01*
X0371991Y0199988D01*
X0372236Y0199973D01*
X0372480Y0199952D01*
X0372724Y0199925D01*
X0372967Y0199892D01*
X0373210Y0199853D01*
X0373451Y0199808D01*
X0373691Y0199757D01*
X0373930Y0199700D01*
X0374167Y0199638D01*
X0374403Y0199569D01*
X0374637Y0199495D01*
X0374869Y0199415D01*
X0375099Y0199330D01*
X0375327Y0199239D01*
X0375552Y0199142D01*
X0375776Y0199040D01*
X0375996Y0198932D01*
X0376214Y0198819D01*
X0376429Y0198701D01*
X0376641Y0198577D01*
X0376850Y0198449D01*
X0377056Y0198315D01*
X0377258Y0198176D01*
X0377457Y0198032D01*
X0377652Y0197883D01*
X0377844Y0197730D01*
X0378032Y0197572D01*
X0378216Y0197410D01*
X0378395Y0197242D01*
X0378571Y0197071D01*
X0378742Y0196895D01*
X0378910Y0196716D01*
X0379072Y0196532D01*
X0379230Y0196344D01*
X0379383Y0196152D01*
X0379532Y0195957D01*
X0379676Y0195758D01*
X0379815Y0195556D01*
X0379949Y0195350D01*
X0380077Y0195141D01*
X0380201Y0194929D01*
X0380319Y0194714D01*
X0380432Y0194496D01*
X0380540Y0194276D01*
X0380642Y0194052D01*
X0380739Y0193827D01*
X0380830Y0193599D01*
X0380915Y0193369D01*
X0380995Y0193137D01*
X0381069Y0192903D01*
X0381138Y0192667D01*
X0381200Y0192430D01*
X0381257Y0192191D01*
X0381308Y0191951D01*
X0381353Y0191710D01*
X0381392Y0191467D01*
X0381425Y0191224D01*
X0381452Y0190980D01*
X0381473Y0190736D01*
X0381488Y0190491D01*
X0381497Y0190245D01*
X0381500Y0190000D01*
X0381497Y0189755D01*
X0381488Y0189509D01*
X0381473Y0189264D01*
X0381452Y0189020D01*
X0381425Y0188776D01*
X0381392Y0188533D01*
X0381353Y0188290D01*
X0381308Y0188049D01*
X0381257Y0187809D01*
X0381200Y0187570D01*
X0381138Y0187333D01*
X0381069Y0187097D01*
X0380995Y0186863D01*
X0380915Y0186631D01*
X0380830Y0186401D01*
X0380739Y0186173D01*
X0380642Y0185948D01*
X0380540Y0185724D01*
X0380432Y0185504D01*
X0380319Y0185286D01*
X0380201Y0185071D01*
X0380077Y0184859D01*
X0379949Y0184650D01*
X0379815Y0184444D01*
X0379676Y0184242D01*
X0379532Y0184043D01*
X0379383Y0183848D01*
X0379230Y0183656D01*
X0379072Y0183468D01*
X0378910Y0183284D01*
X0378742Y0183105D01*
X0378571Y0182929D01*
X0378395Y0182758D01*
X0378216Y0182590D01*
X0378032Y0182428D01*
X0377844Y0182270D01*
X0377652Y0182117D01*
X0377457Y0181968D01*
X0377258Y0181824D01*
X0377056Y0181685D01*
X0376850Y0181551D01*
X0376641Y0181423D01*
X0376429Y0181299D01*
X0376214Y0181181D01*
X0375996Y0181068D01*
X0375776Y0180960D01*
X0375552Y0180858D01*
X0375327Y0180761D01*
X0375099Y0180670D01*
X0374869Y0180585D01*
X0374637Y0180505D01*
X0374403Y0180431D01*
X0374167Y0180362D01*
X0373930Y0180300D01*
X0373691Y0180243D01*
X0373451Y0180192D01*
X0373210Y0180147D01*
X0372967Y0180108D01*
X0372724Y0180075D01*
X0372480Y0180048D01*
X0372236Y0180027D01*
X0371991Y0180012D01*
X0371745Y0180003D01*
X0371500Y0180000D01*
X0371255Y0180003D01*
X0371009Y0180012D01*
X0370764Y0180027D01*
X0370520Y0180048D01*
X0370276Y0180075D01*
X0370033Y0180108D01*
X0369790Y0180147D01*
X0369549Y0180192D01*
X0369309Y0180243D01*
X0369070Y0180300D01*
X0368833Y0180362D01*
X0368597Y0180431D01*
X0368363Y0180505D01*
X0368131Y0180585D01*
X0367901Y0180670D01*
X0367673Y0180761D01*
X0367448Y0180858D01*
X0367224Y0180960D01*
X0367004Y0181068D01*
X0366786Y0181181D01*
X0366571Y0181299D01*
X0366359Y0181423D01*
X0366150Y0181551D01*
X0365944Y0181685D01*
X0365742Y0181824D01*
X0365543Y0181968D01*
X0365348Y0182117D01*
X0365156Y0182270D01*
X0364968Y0182428D01*
X0364784Y0182590D01*
X0364605Y0182758D01*
X0364429Y0182929D01*
X0364258Y0183105D01*
X0364090Y0183284D01*
X0363928Y0183468D01*
X0363770Y0183656D01*
X0363617Y0183848D01*
X0363468Y0184043D01*
X0363324Y0184242D01*
X0363185Y0184444D01*
X0363051Y0184650D01*
X0362923Y0184859D01*
X0362799Y0185071D01*
X0362681Y0185286D01*
X0362568Y0185504D01*
X0362460Y0185724D01*
X0362358Y0185948D01*
X0362261Y0186173D01*
X0362170Y0186401D01*
X0362085Y0186631D01*
X0362005Y0186863D01*
X0361931Y0187097D01*
X0361862Y0187333D01*
X0361800Y0187570D01*
X0361743Y0187809D01*
X0361692Y0188049D01*
X0361647Y0188290D01*
X0361608Y0188533D01*
X0361575Y0188776D01*
X0361548Y0189020D01*
X0361527Y0189264D01*
X0361512Y0189509D01*
X0361503Y0189755D01*
X0361500Y0190000D01*
X0326848Y0132503D02*
X0322577Y0132503D01*
X0300348Y0132503D02*
X0296077Y0132503D01*
X0298212Y0134638D02*
X0298212Y0130368D01*
X0268166Y0245144D02*
X0269000Y0245978D01*
X0269000Y0246812D01*
X0268166Y0247646D01*
X0263996Y0247646D01*
X0263996Y0246812D02*
X0263996Y0248480D01*
X0266498Y0250300D02*
X0266498Y0252802D01*
X0267332Y0253636D01*
X0268166Y0253636D01*
X0269000Y0252802D01*
X0269000Y0251134D01*
X0268166Y0250300D01*
X0266498Y0250300D01*
X0264830Y0251968D01*
X0263996Y0253636D01*
X0205136Y0307500D02*
X0201800Y0307500D01*
X0205136Y0310836D01*
X0205136Y0311670D01*
X0204302Y0312504D01*
X0202634Y0312504D01*
X0201800Y0311670D01*
X0199980Y0312504D02*
X0198312Y0312504D01*
X0199146Y0312504D02*
X0199146Y0308334D01*
X0198312Y0307500D01*
X0197478Y0307500D01*
X0196644Y0308334D01*
X0195136Y0310002D02*
X0191800Y0310002D01*
X0194302Y0312504D01*
X0194302Y0307500D01*
X0189146Y0308334D02*
X0189146Y0312504D01*
X0188312Y0312504D02*
X0189980Y0312504D01*
X0189146Y0308334D02*
X0188312Y0307500D01*
X0187478Y0307500D01*
X0186644Y0308334D01*
X0268166Y0405144D02*
X0269000Y0405978D01*
X0269000Y0406812D01*
X0268166Y0407646D01*
X0263996Y0407646D01*
X0263996Y0406812D02*
X0263996Y0408480D01*
X0263996Y0410300D02*
X0266498Y0410300D01*
X0265664Y0411968D01*
X0265664Y0412802D01*
X0266498Y0413636D01*
X0268166Y0413636D01*
X0269000Y0412802D01*
X0269000Y0411134D01*
X0268166Y0410300D01*
X0263996Y0410300D02*
X0263996Y0413636D01*
X0416000Y0397500D02*
X0416000Y0390000D01*
X0419500Y0390000D01*
X0419500Y0384000D01*
X0416000Y0384000D01*
X0416000Y0335000D01*
X0457000Y0335000D01*
X0457000Y0384000D01*
X0453500Y0384000D01*
X0453500Y0390000D01*
X0457000Y0390000D01*
X0457000Y0397500D01*
X0416000Y0397500D01*
X0429400Y0384000D02*
X0429402Y0384174D01*
X0429409Y0384348D01*
X0429419Y0384522D01*
X0429434Y0384696D01*
X0429453Y0384869D01*
X0429477Y0385042D01*
X0429505Y0385214D01*
X0429536Y0385385D01*
X0429573Y0385556D01*
X0429613Y0385725D01*
X0429657Y0385894D01*
X0429706Y0386061D01*
X0429758Y0386227D01*
X0429815Y0386392D01*
X0429876Y0386555D01*
X0429940Y0386717D01*
X0430009Y0386877D01*
X0430082Y0387036D01*
X0430158Y0387192D01*
X0430238Y0387347D01*
X0430322Y0387500D01*
X0430410Y0387650D01*
X0430502Y0387798D01*
X0430597Y0387945D01*
X0430695Y0388088D01*
X0430797Y0388229D01*
X0430903Y0388368D01*
X0431012Y0388504D01*
X0431124Y0388638D01*
X0431239Y0388768D01*
X0431358Y0388896D01*
X0431480Y0389020D01*
X0431604Y0389142D01*
X0431732Y0389261D01*
X0431862Y0389376D01*
X0431996Y0389488D01*
X0432132Y0389597D01*
X0432271Y0389703D01*
X0432412Y0389805D01*
X0432555Y0389903D01*
X0432702Y0389998D01*
X0432850Y0390090D01*
X0433000Y0390178D01*
X0433153Y0390262D01*
X0433308Y0390342D01*
X0433464Y0390418D01*
X0433623Y0390491D01*
X0433783Y0390560D01*
X0433945Y0390624D01*
X0434108Y0390685D01*
X0434273Y0390742D01*
X0434439Y0390794D01*
X0434606Y0390843D01*
X0434775Y0390887D01*
X0434944Y0390927D01*
X0435115Y0390964D01*
X0435286Y0390995D01*
X0435458Y0391023D01*
X0435631Y0391047D01*
X0435804Y0391066D01*
X0435978Y0391081D01*
X0436152Y0391091D01*
X0436326Y0391098D01*
X0436500Y0391100D01*
X0436674Y0391098D01*
X0436848Y0391091D01*
X0437022Y0391081D01*
X0437196Y0391066D01*
X0437369Y0391047D01*
X0437542Y0391023D01*
X0437714Y0390995D01*
X0437885Y0390964D01*
X0438056Y0390927D01*
X0438225Y0390887D01*
X0438394Y0390843D01*
X0438561Y0390794D01*
X0438727Y0390742D01*
X0438892Y0390685D01*
X0439055Y0390624D01*
X0439217Y0390560D01*
X0439377Y0390491D01*
X0439536Y0390418D01*
X0439692Y0390342D01*
X0439847Y0390262D01*
X0440000Y0390178D01*
X0440150Y0390090D01*
X0440298Y0389998D01*
X0440445Y0389903D01*
X0440588Y0389805D01*
X0440729Y0389703D01*
X0440868Y0389597D01*
X0441004Y0389488D01*
X0441138Y0389376D01*
X0441268Y0389261D01*
X0441396Y0389142D01*
X0441520Y0389020D01*
X0441642Y0388896D01*
X0441761Y0388768D01*
X0441876Y0388638D01*
X0441988Y0388504D01*
X0442097Y0388368D01*
X0442203Y0388229D01*
X0442305Y0388088D01*
X0442403Y0387945D01*
X0442498Y0387798D01*
X0442590Y0387650D01*
X0442678Y0387500D01*
X0442762Y0387347D01*
X0442842Y0387192D01*
X0442918Y0387036D01*
X0442991Y0386877D01*
X0443060Y0386717D01*
X0443124Y0386555D01*
X0443185Y0386392D01*
X0443242Y0386227D01*
X0443294Y0386061D01*
X0443343Y0385894D01*
X0443387Y0385725D01*
X0443427Y0385556D01*
X0443464Y0385385D01*
X0443495Y0385214D01*
X0443523Y0385042D01*
X0443547Y0384869D01*
X0443566Y0384696D01*
X0443581Y0384522D01*
X0443591Y0384348D01*
X0443598Y0384174D01*
X0443600Y0384000D01*
X0443598Y0383826D01*
X0443591Y0383652D01*
X0443581Y0383478D01*
X0443566Y0383304D01*
X0443547Y0383131D01*
X0443523Y0382958D01*
X0443495Y0382786D01*
X0443464Y0382615D01*
X0443427Y0382444D01*
X0443387Y0382275D01*
X0443343Y0382106D01*
X0443294Y0381939D01*
X0443242Y0381773D01*
X0443185Y0381608D01*
X0443124Y0381445D01*
X0443060Y0381283D01*
X0442991Y0381123D01*
X0442918Y0380964D01*
X0442842Y0380808D01*
X0442762Y0380653D01*
X0442678Y0380500D01*
X0442590Y0380350D01*
X0442498Y0380202D01*
X0442403Y0380055D01*
X0442305Y0379912D01*
X0442203Y0379771D01*
X0442097Y0379632D01*
X0441988Y0379496D01*
X0441876Y0379362D01*
X0441761Y0379232D01*
X0441642Y0379104D01*
X0441520Y0378980D01*
X0441396Y0378858D01*
X0441268Y0378739D01*
X0441138Y0378624D01*
X0441004Y0378512D01*
X0440868Y0378403D01*
X0440729Y0378297D01*
X0440588Y0378195D01*
X0440445Y0378097D01*
X0440298Y0378002D01*
X0440150Y0377910D01*
X0440000Y0377822D01*
X0439847Y0377738D01*
X0439692Y0377658D01*
X0439536Y0377582D01*
X0439377Y0377509D01*
X0439217Y0377440D01*
X0439055Y0377376D01*
X0438892Y0377315D01*
X0438727Y0377258D01*
X0438561Y0377206D01*
X0438394Y0377157D01*
X0438225Y0377113D01*
X0438056Y0377073D01*
X0437885Y0377036D01*
X0437714Y0377005D01*
X0437542Y0376977D01*
X0437369Y0376953D01*
X0437196Y0376934D01*
X0437022Y0376919D01*
X0436848Y0376909D01*
X0436674Y0376902D01*
X0436500Y0376900D01*
X0436326Y0376902D01*
X0436152Y0376909D01*
X0435978Y0376919D01*
X0435804Y0376934D01*
X0435631Y0376953D01*
X0435458Y0376977D01*
X0435286Y0377005D01*
X0435115Y0377036D01*
X0434944Y0377073D01*
X0434775Y0377113D01*
X0434606Y0377157D01*
X0434439Y0377206D01*
X0434273Y0377258D01*
X0434108Y0377315D01*
X0433945Y0377376D01*
X0433783Y0377440D01*
X0433623Y0377509D01*
X0433464Y0377582D01*
X0433308Y0377658D01*
X0433153Y0377738D01*
X0433000Y0377822D01*
X0432850Y0377910D01*
X0432702Y0378002D01*
X0432555Y0378097D01*
X0432412Y0378195D01*
X0432271Y0378297D01*
X0432132Y0378403D01*
X0431996Y0378512D01*
X0431862Y0378624D01*
X0431732Y0378739D01*
X0431604Y0378858D01*
X0431480Y0378980D01*
X0431358Y0379104D01*
X0431239Y0379232D01*
X0431124Y0379362D01*
X0431012Y0379496D01*
X0430903Y0379632D01*
X0430797Y0379771D01*
X0430695Y0379912D01*
X0430597Y0380055D01*
X0430502Y0380202D01*
X0430410Y0380350D01*
X0430322Y0380500D01*
X0430238Y0380653D01*
X0430158Y0380808D01*
X0430082Y0380964D01*
X0430009Y0381123D01*
X0429940Y0381283D01*
X0429876Y0381445D01*
X0429815Y0381608D01*
X0429758Y0381773D01*
X0429706Y0381939D01*
X0429657Y0382106D01*
X0429613Y0382275D01*
X0429573Y0382444D01*
X0429536Y0382615D01*
X0429505Y0382786D01*
X0429477Y0382958D01*
X0429453Y0383131D01*
X0429434Y0383304D01*
X0429419Y0383478D01*
X0429409Y0383652D01*
X0429402Y0383826D01*
X0429400Y0384000D01*
X0035136Y0311670D02*
X0035136Y0310836D01*
X0034302Y0310002D01*
X0035136Y0309168D01*
X0035136Y0308334D01*
X0034302Y0307500D01*
X0032634Y0307500D01*
X0031800Y0308334D01*
X0033468Y0310002D02*
X0034302Y0310002D01*
X0035136Y0311670D02*
X0034302Y0312504D01*
X0032634Y0312504D01*
X0031800Y0311670D01*
X0029980Y0312504D02*
X0028312Y0312504D01*
X0029146Y0312504D02*
X0029146Y0308334D01*
X0028312Y0307500D01*
X0027478Y0307500D01*
X0026644Y0308334D01*
X0025136Y0307500D02*
X0021800Y0307500D01*
X0023468Y0307500D02*
X0023468Y0312504D01*
X0021800Y0310836D01*
X0019980Y0312504D02*
X0018312Y0312504D01*
X0019146Y0312504D02*
X0019146Y0308334D01*
X0018312Y0307500D01*
X0017478Y0307500D01*
X0016644Y0308334D01*
D15*
X0361500Y0085000D02*
X0361500Y0082000D01*
X0363000Y0078500D01*
X0361500Y0078000D02*
X0361500Y0075000D01*
X0436500Y0075000D02*
X0436500Y0078000D01*
X0438000Y0078500D02*
X0436500Y0082000D01*
X0436500Y0085000D01*
D16*
X0434500Y0084047D02*
X0434500Y0076000D01*
X0438000Y0068000D02*
X0455000Y0068000D01*
X0458500Y0076000D02*
X0458500Y0083929D01*
X0455000Y0092000D02*
X0438000Y0092000D01*
X0439500Y0080000D02*
X0439502Y0080172D01*
X0439508Y0080343D01*
X0439519Y0080515D01*
X0439534Y0080686D01*
X0439553Y0080857D01*
X0439576Y0081027D01*
X0439603Y0081197D01*
X0439635Y0081366D01*
X0439670Y0081534D01*
X0439710Y0081701D01*
X0439754Y0081867D01*
X0439801Y0082032D01*
X0439853Y0082196D01*
X0439909Y0082358D01*
X0439969Y0082519D01*
X0440033Y0082679D01*
X0440101Y0082837D01*
X0440172Y0082993D01*
X0440247Y0083147D01*
X0440327Y0083300D01*
X0440409Y0083450D01*
X0440496Y0083599D01*
X0440586Y0083745D01*
X0440680Y0083889D01*
X0440777Y0084031D01*
X0440878Y0084170D01*
X0440982Y0084307D01*
X0441089Y0084441D01*
X0441200Y0084572D01*
X0441313Y0084701D01*
X0441430Y0084827D01*
X0441550Y0084950D01*
X0441673Y0085070D01*
X0441799Y0085187D01*
X0441928Y0085300D01*
X0442059Y0085411D01*
X0442193Y0085518D01*
X0442330Y0085622D01*
X0442469Y0085723D01*
X0442611Y0085820D01*
X0442755Y0085914D01*
X0442901Y0086004D01*
X0443050Y0086091D01*
X0443200Y0086173D01*
X0443353Y0086253D01*
X0443507Y0086328D01*
X0443663Y0086399D01*
X0443821Y0086467D01*
X0443981Y0086531D01*
X0444142Y0086591D01*
X0444304Y0086647D01*
X0444468Y0086699D01*
X0444633Y0086746D01*
X0444799Y0086790D01*
X0444966Y0086830D01*
X0445134Y0086865D01*
X0445303Y0086897D01*
X0445473Y0086924D01*
X0445643Y0086947D01*
X0445814Y0086966D01*
X0445985Y0086981D01*
X0446157Y0086992D01*
X0446328Y0086998D01*
X0446500Y0087000D01*
X0446672Y0086998D01*
X0446843Y0086992D01*
X0447015Y0086981D01*
X0447186Y0086966D01*
X0447357Y0086947D01*
X0447527Y0086924D01*
X0447697Y0086897D01*
X0447866Y0086865D01*
X0448034Y0086830D01*
X0448201Y0086790D01*
X0448367Y0086746D01*
X0448532Y0086699D01*
X0448696Y0086647D01*
X0448858Y0086591D01*
X0449019Y0086531D01*
X0449179Y0086467D01*
X0449337Y0086399D01*
X0449493Y0086328D01*
X0449647Y0086253D01*
X0449800Y0086173D01*
X0449950Y0086091D01*
X0450099Y0086004D01*
X0450245Y0085914D01*
X0450389Y0085820D01*
X0450531Y0085723D01*
X0450670Y0085622D01*
X0450807Y0085518D01*
X0450941Y0085411D01*
X0451072Y0085300D01*
X0451201Y0085187D01*
X0451327Y0085070D01*
X0451450Y0084950D01*
X0451570Y0084827D01*
X0451687Y0084701D01*
X0451800Y0084572D01*
X0451911Y0084441D01*
X0452018Y0084307D01*
X0452122Y0084170D01*
X0452223Y0084031D01*
X0452320Y0083889D01*
X0452414Y0083745D01*
X0452504Y0083599D01*
X0452591Y0083450D01*
X0452673Y0083300D01*
X0452753Y0083147D01*
X0452828Y0082993D01*
X0452899Y0082837D01*
X0452967Y0082679D01*
X0453031Y0082519D01*
X0453091Y0082358D01*
X0453147Y0082196D01*
X0453199Y0082032D01*
X0453246Y0081867D01*
X0453290Y0081701D01*
X0453330Y0081534D01*
X0453365Y0081366D01*
X0453397Y0081197D01*
X0453424Y0081027D01*
X0453447Y0080857D01*
X0453466Y0080686D01*
X0453481Y0080515D01*
X0453492Y0080343D01*
X0453498Y0080172D01*
X0453500Y0080000D01*
X0453498Y0079828D01*
X0453492Y0079657D01*
X0453481Y0079485D01*
X0453466Y0079314D01*
X0453447Y0079143D01*
X0453424Y0078973D01*
X0453397Y0078803D01*
X0453365Y0078634D01*
X0453330Y0078466D01*
X0453290Y0078299D01*
X0453246Y0078133D01*
X0453199Y0077968D01*
X0453147Y0077804D01*
X0453091Y0077642D01*
X0453031Y0077481D01*
X0452967Y0077321D01*
X0452899Y0077163D01*
X0452828Y0077007D01*
X0452753Y0076853D01*
X0452673Y0076700D01*
X0452591Y0076550D01*
X0452504Y0076401D01*
X0452414Y0076255D01*
X0452320Y0076111D01*
X0452223Y0075969D01*
X0452122Y0075830D01*
X0452018Y0075693D01*
X0451911Y0075559D01*
X0451800Y0075428D01*
X0451687Y0075299D01*
X0451570Y0075173D01*
X0451450Y0075050D01*
X0451327Y0074930D01*
X0451201Y0074813D01*
X0451072Y0074700D01*
X0450941Y0074589D01*
X0450807Y0074482D01*
X0450670Y0074378D01*
X0450531Y0074277D01*
X0450389Y0074180D01*
X0450245Y0074086D01*
X0450099Y0073996D01*
X0449950Y0073909D01*
X0449800Y0073827D01*
X0449647Y0073747D01*
X0449493Y0073672D01*
X0449337Y0073601D01*
X0449179Y0073533D01*
X0449019Y0073469D01*
X0448858Y0073409D01*
X0448696Y0073353D01*
X0448532Y0073301D01*
X0448367Y0073254D01*
X0448201Y0073210D01*
X0448034Y0073170D01*
X0447866Y0073135D01*
X0447697Y0073103D01*
X0447527Y0073076D01*
X0447357Y0073053D01*
X0447186Y0073034D01*
X0447015Y0073019D01*
X0446843Y0073008D01*
X0446672Y0073002D01*
X0446500Y0073000D01*
X0446328Y0073002D01*
X0446157Y0073008D01*
X0445985Y0073019D01*
X0445814Y0073034D01*
X0445643Y0073053D01*
X0445473Y0073076D01*
X0445303Y0073103D01*
X0445134Y0073135D01*
X0444966Y0073170D01*
X0444799Y0073210D01*
X0444633Y0073254D01*
X0444468Y0073301D01*
X0444304Y0073353D01*
X0444142Y0073409D01*
X0443981Y0073469D01*
X0443821Y0073533D01*
X0443663Y0073601D01*
X0443507Y0073672D01*
X0443353Y0073747D01*
X0443200Y0073827D01*
X0443050Y0073909D01*
X0442901Y0073996D01*
X0442755Y0074086D01*
X0442611Y0074180D01*
X0442469Y0074277D01*
X0442330Y0074378D01*
X0442193Y0074482D01*
X0442059Y0074589D01*
X0441928Y0074700D01*
X0441799Y0074813D01*
X0441673Y0074930D01*
X0441550Y0075050D01*
X0441430Y0075173D01*
X0441313Y0075299D01*
X0441200Y0075428D01*
X0441089Y0075559D01*
X0440982Y0075693D01*
X0440878Y0075830D01*
X0440777Y0075969D01*
X0440680Y0076111D01*
X0440586Y0076255D01*
X0440496Y0076401D01*
X0440409Y0076550D01*
X0440327Y0076700D01*
X0440247Y0076853D01*
X0440172Y0077007D01*
X0440101Y0077163D01*
X0440033Y0077321D01*
X0439969Y0077481D01*
X0439909Y0077642D01*
X0439853Y0077804D01*
X0439801Y0077968D01*
X0439754Y0078133D01*
X0439710Y0078299D01*
X0439670Y0078466D01*
X0439635Y0078634D01*
X0439603Y0078803D01*
X0439576Y0078973D01*
X0439553Y0079143D01*
X0439534Y0079314D01*
X0439519Y0079485D01*
X0439508Y0079657D01*
X0439502Y0079828D01*
X0439500Y0080000D01*
X0436500Y0117000D02*
X0436500Y0120000D01*
X0435500Y0120000D01*
X0436500Y0120000D02*
X0436500Y0123000D01*
X0456500Y0123000D01*
X0456500Y0120000D01*
X0457500Y0120000D01*
X0456500Y0120000D02*
X0456500Y0117000D01*
X0436500Y0117000D01*
X0436500Y0147000D02*
X0436500Y0150000D01*
X0435500Y0150000D01*
X0436500Y0150000D02*
X0436500Y0153000D01*
X0456500Y0153000D01*
X0456500Y0150000D01*
X0457500Y0150000D01*
X0456500Y0150000D02*
X0456500Y0147000D01*
X0436500Y0147000D01*
X0456500Y0182500D02*
X0456500Y0197500D01*
X0382500Y0150000D02*
X0381500Y0150000D01*
X0381500Y0147000D01*
X0361500Y0147000D01*
X0361500Y0150000D01*
X0360500Y0150000D01*
X0361500Y0150000D02*
X0361500Y0153000D01*
X0381500Y0153000D01*
X0381500Y0150000D01*
X0381500Y0123000D02*
X0361500Y0123000D01*
X0361500Y0120000D01*
X0360500Y0120000D01*
X0361500Y0120000D02*
X0361500Y0117000D01*
X0381500Y0117000D01*
X0381500Y0120000D01*
X0382500Y0120000D01*
X0381500Y0120000D02*
X0381500Y0123000D01*
X0380000Y0092000D02*
X0363000Y0092000D01*
X0359500Y0084047D02*
X0359500Y0076000D01*
X0363000Y0068000D02*
X0380000Y0068000D01*
X0383500Y0076000D02*
X0383500Y0083929D01*
X0364500Y0080000D02*
X0364502Y0080172D01*
X0364508Y0080343D01*
X0364519Y0080515D01*
X0364534Y0080686D01*
X0364553Y0080857D01*
X0364576Y0081027D01*
X0364603Y0081197D01*
X0364635Y0081366D01*
X0364670Y0081534D01*
X0364710Y0081701D01*
X0364754Y0081867D01*
X0364801Y0082032D01*
X0364853Y0082196D01*
X0364909Y0082358D01*
X0364969Y0082519D01*
X0365033Y0082679D01*
X0365101Y0082837D01*
X0365172Y0082993D01*
X0365247Y0083147D01*
X0365327Y0083300D01*
X0365409Y0083450D01*
X0365496Y0083599D01*
X0365586Y0083745D01*
X0365680Y0083889D01*
X0365777Y0084031D01*
X0365878Y0084170D01*
X0365982Y0084307D01*
X0366089Y0084441D01*
X0366200Y0084572D01*
X0366313Y0084701D01*
X0366430Y0084827D01*
X0366550Y0084950D01*
X0366673Y0085070D01*
X0366799Y0085187D01*
X0366928Y0085300D01*
X0367059Y0085411D01*
X0367193Y0085518D01*
X0367330Y0085622D01*
X0367469Y0085723D01*
X0367611Y0085820D01*
X0367755Y0085914D01*
X0367901Y0086004D01*
X0368050Y0086091D01*
X0368200Y0086173D01*
X0368353Y0086253D01*
X0368507Y0086328D01*
X0368663Y0086399D01*
X0368821Y0086467D01*
X0368981Y0086531D01*
X0369142Y0086591D01*
X0369304Y0086647D01*
X0369468Y0086699D01*
X0369633Y0086746D01*
X0369799Y0086790D01*
X0369966Y0086830D01*
X0370134Y0086865D01*
X0370303Y0086897D01*
X0370473Y0086924D01*
X0370643Y0086947D01*
X0370814Y0086966D01*
X0370985Y0086981D01*
X0371157Y0086992D01*
X0371328Y0086998D01*
X0371500Y0087000D01*
X0371672Y0086998D01*
X0371843Y0086992D01*
X0372015Y0086981D01*
X0372186Y0086966D01*
X0372357Y0086947D01*
X0372527Y0086924D01*
X0372697Y0086897D01*
X0372866Y0086865D01*
X0373034Y0086830D01*
X0373201Y0086790D01*
X0373367Y0086746D01*
X0373532Y0086699D01*
X0373696Y0086647D01*
X0373858Y0086591D01*
X0374019Y0086531D01*
X0374179Y0086467D01*
X0374337Y0086399D01*
X0374493Y0086328D01*
X0374647Y0086253D01*
X0374800Y0086173D01*
X0374950Y0086091D01*
X0375099Y0086004D01*
X0375245Y0085914D01*
X0375389Y0085820D01*
X0375531Y0085723D01*
X0375670Y0085622D01*
X0375807Y0085518D01*
X0375941Y0085411D01*
X0376072Y0085300D01*
X0376201Y0085187D01*
X0376327Y0085070D01*
X0376450Y0084950D01*
X0376570Y0084827D01*
X0376687Y0084701D01*
X0376800Y0084572D01*
X0376911Y0084441D01*
X0377018Y0084307D01*
X0377122Y0084170D01*
X0377223Y0084031D01*
X0377320Y0083889D01*
X0377414Y0083745D01*
X0377504Y0083599D01*
X0377591Y0083450D01*
X0377673Y0083300D01*
X0377753Y0083147D01*
X0377828Y0082993D01*
X0377899Y0082837D01*
X0377967Y0082679D01*
X0378031Y0082519D01*
X0378091Y0082358D01*
X0378147Y0082196D01*
X0378199Y0082032D01*
X0378246Y0081867D01*
X0378290Y0081701D01*
X0378330Y0081534D01*
X0378365Y0081366D01*
X0378397Y0081197D01*
X0378424Y0081027D01*
X0378447Y0080857D01*
X0378466Y0080686D01*
X0378481Y0080515D01*
X0378492Y0080343D01*
X0378498Y0080172D01*
X0378500Y0080000D01*
X0378498Y0079828D01*
X0378492Y0079657D01*
X0378481Y0079485D01*
X0378466Y0079314D01*
X0378447Y0079143D01*
X0378424Y0078973D01*
X0378397Y0078803D01*
X0378365Y0078634D01*
X0378330Y0078466D01*
X0378290Y0078299D01*
X0378246Y0078133D01*
X0378199Y0077968D01*
X0378147Y0077804D01*
X0378091Y0077642D01*
X0378031Y0077481D01*
X0377967Y0077321D01*
X0377899Y0077163D01*
X0377828Y0077007D01*
X0377753Y0076853D01*
X0377673Y0076700D01*
X0377591Y0076550D01*
X0377504Y0076401D01*
X0377414Y0076255D01*
X0377320Y0076111D01*
X0377223Y0075969D01*
X0377122Y0075830D01*
X0377018Y0075693D01*
X0376911Y0075559D01*
X0376800Y0075428D01*
X0376687Y0075299D01*
X0376570Y0075173D01*
X0376450Y0075050D01*
X0376327Y0074930D01*
X0376201Y0074813D01*
X0376072Y0074700D01*
X0375941Y0074589D01*
X0375807Y0074482D01*
X0375670Y0074378D01*
X0375531Y0074277D01*
X0375389Y0074180D01*
X0375245Y0074086D01*
X0375099Y0073996D01*
X0374950Y0073909D01*
X0374800Y0073827D01*
X0374647Y0073747D01*
X0374493Y0073672D01*
X0374337Y0073601D01*
X0374179Y0073533D01*
X0374019Y0073469D01*
X0373858Y0073409D01*
X0373696Y0073353D01*
X0373532Y0073301D01*
X0373367Y0073254D01*
X0373201Y0073210D01*
X0373034Y0073170D01*
X0372866Y0073135D01*
X0372697Y0073103D01*
X0372527Y0073076D01*
X0372357Y0073053D01*
X0372186Y0073034D01*
X0372015Y0073019D01*
X0371843Y0073008D01*
X0371672Y0073002D01*
X0371500Y0073000D01*
X0371328Y0073002D01*
X0371157Y0073008D01*
X0370985Y0073019D01*
X0370814Y0073034D01*
X0370643Y0073053D01*
X0370473Y0073076D01*
X0370303Y0073103D01*
X0370134Y0073135D01*
X0369966Y0073170D01*
X0369799Y0073210D01*
X0369633Y0073254D01*
X0369468Y0073301D01*
X0369304Y0073353D01*
X0369142Y0073409D01*
X0368981Y0073469D01*
X0368821Y0073533D01*
X0368663Y0073601D01*
X0368507Y0073672D01*
X0368353Y0073747D01*
X0368200Y0073827D01*
X0368050Y0073909D01*
X0367901Y0073996D01*
X0367755Y0074086D01*
X0367611Y0074180D01*
X0367469Y0074277D01*
X0367330Y0074378D01*
X0367193Y0074482D01*
X0367059Y0074589D01*
X0366928Y0074700D01*
X0366799Y0074813D01*
X0366673Y0074930D01*
X0366550Y0075050D01*
X0366430Y0075173D01*
X0366313Y0075299D01*
X0366200Y0075428D01*
X0366089Y0075559D01*
X0365982Y0075693D01*
X0365878Y0075830D01*
X0365777Y0075969D01*
X0365680Y0076111D01*
X0365586Y0076255D01*
X0365496Y0076401D01*
X0365409Y0076550D01*
X0365327Y0076700D01*
X0365247Y0076853D01*
X0365172Y0077007D01*
X0365101Y0077163D01*
X0365033Y0077321D01*
X0364969Y0077481D01*
X0364909Y0077642D01*
X0364853Y0077804D01*
X0364801Y0077968D01*
X0364754Y0078133D01*
X0364710Y0078299D01*
X0364670Y0078466D01*
X0364635Y0078634D01*
X0364603Y0078803D01*
X0364576Y0078973D01*
X0364553Y0079143D01*
X0364534Y0079314D01*
X0364519Y0079485D01*
X0364508Y0079657D01*
X0364502Y0079828D01*
X0364500Y0080000D01*
X0288272Y0140000D02*
X0288279Y0140570D01*
X0288300Y0141140D01*
X0288335Y0141709D01*
X0288384Y0142277D01*
X0288447Y0142843D01*
X0288523Y0143408D01*
X0288614Y0143971D01*
X0288718Y0144532D01*
X0288836Y0145089D01*
X0288968Y0145644D01*
X0289113Y0146195D01*
X0289272Y0146743D01*
X0289444Y0147286D01*
X0289630Y0147825D01*
X0289828Y0148360D01*
X0290040Y0148889D01*
X0290265Y0149413D01*
X0290502Y0149931D01*
X0290752Y0150444D01*
X0291015Y0150950D01*
X0291290Y0151449D01*
X0291577Y0151942D01*
X0291876Y0152427D01*
X0292187Y0152905D01*
X0292509Y0153375D01*
X0292843Y0153837D01*
X0293188Y0154291D01*
X0293545Y0154736D01*
X0293912Y0155172D01*
X0294289Y0155599D01*
X0294677Y0156017D01*
X0295075Y0156425D01*
X0295483Y0156823D01*
X0295901Y0157211D01*
X0296328Y0157588D01*
X0296764Y0157955D01*
X0297209Y0158312D01*
X0297663Y0158657D01*
X0298125Y0158991D01*
X0298595Y0159313D01*
X0299073Y0159624D01*
X0299558Y0159923D01*
X0300051Y0160210D01*
X0300550Y0160485D01*
X0301056Y0160748D01*
X0301569Y0160998D01*
X0302087Y0161235D01*
X0302611Y0161460D01*
X0303140Y0161672D01*
X0303675Y0161870D01*
X0304214Y0162056D01*
X0304757Y0162228D01*
X0305305Y0162387D01*
X0305856Y0162532D01*
X0306411Y0162664D01*
X0306968Y0162782D01*
X0307529Y0162886D01*
X0308092Y0162977D01*
X0308657Y0163053D01*
X0309223Y0163116D01*
X0309791Y0163165D01*
X0310360Y0163200D01*
X0310930Y0163221D01*
X0311500Y0163228D01*
X0312070Y0163221D01*
X0312640Y0163200D01*
X0313209Y0163165D01*
X0313777Y0163116D01*
X0314343Y0163053D01*
X0314908Y0162977D01*
X0315471Y0162886D01*
X0316032Y0162782D01*
X0316589Y0162664D01*
X0317144Y0162532D01*
X0317695Y0162387D01*
X0318243Y0162228D01*
X0318786Y0162056D01*
X0319325Y0161870D01*
X0319860Y0161672D01*
X0320389Y0161460D01*
X0320913Y0161235D01*
X0321431Y0160998D01*
X0321944Y0160748D01*
X0322450Y0160485D01*
X0322949Y0160210D01*
X0323442Y0159923D01*
X0323927Y0159624D01*
X0324405Y0159313D01*
X0324875Y0158991D01*
X0325337Y0158657D01*
X0325791Y0158312D01*
X0326236Y0157955D01*
X0326672Y0157588D01*
X0327099Y0157211D01*
X0327517Y0156823D01*
X0327925Y0156425D01*
X0328323Y0156017D01*
X0328711Y0155599D01*
X0329088Y0155172D01*
X0329455Y0154736D01*
X0329812Y0154291D01*
X0330157Y0153837D01*
X0330491Y0153375D01*
X0330813Y0152905D01*
X0331124Y0152427D01*
X0331423Y0151942D01*
X0331710Y0151449D01*
X0331985Y0150950D01*
X0332248Y0150444D01*
X0332498Y0149931D01*
X0332735Y0149413D01*
X0332960Y0148889D01*
X0333172Y0148360D01*
X0333370Y0147825D01*
X0333556Y0147286D01*
X0333728Y0146743D01*
X0333887Y0146195D01*
X0334032Y0145644D01*
X0334164Y0145089D01*
X0334282Y0144532D01*
X0334386Y0143971D01*
X0334477Y0143408D01*
X0334553Y0142843D01*
X0334616Y0142277D01*
X0334665Y0141709D01*
X0334700Y0141140D01*
X0334721Y0140570D01*
X0334728Y0140000D01*
X0334721Y0139430D01*
X0334700Y0138860D01*
X0334665Y0138291D01*
X0334616Y0137723D01*
X0334553Y0137157D01*
X0334477Y0136592D01*
X0334386Y0136029D01*
X0334282Y0135468D01*
X0334164Y0134911D01*
X0334032Y0134356D01*
X0333887Y0133805D01*
X0333728Y0133257D01*
X0333556Y0132714D01*
X0333370Y0132175D01*
X0333172Y0131640D01*
X0332960Y0131111D01*
X0332735Y0130587D01*
X0332498Y0130069D01*
X0332248Y0129556D01*
X0331985Y0129050D01*
X0331710Y0128551D01*
X0331423Y0128058D01*
X0331124Y0127573D01*
X0330813Y0127095D01*
X0330491Y0126625D01*
X0330157Y0126163D01*
X0329812Y0125709D01*
X0329455Y0125264D01*
X0329088Y0124828D01*
X0328711Y0124401D01*
X0328323Y0123983D01*
X0327925Y0123575D01*
X0327517Y0123177D01*
X0327099Y0122789D01*
X0326672Y0122412D01*
X0326236Y0122045D01*
X0325791Y0121688D01*
X0325337Y0121343D01*
X0324875Y0121009D01*
X0324405Y0120687D01*
X0323927Y0120376D01*
X0323442Y0120077D01*
X0322949Y0119790D01*
X0322450Y0119515D01*
X0321944Y0119252D01*
X0321431Y0119002D01*
X0320913Y0118765D01*
X0320389Y0118540D01*
X0319860Y0118328D01*
X0319325Y0118130D01*
X0318786Y0117944D01*
X0318243Y0117772D01*
X0317695Y0117613D01*
X0317144Y0117468D01*
X0316589Y0117336D01*
X0316032Y0117218D01*
X0315471Y0117114D01*
X0314908Y0117023D01*
X0314343Y0116947D01*
X0313777Y0116884D01*
X0313209Y0116835D01*
X0312640Y0116800D01*
X0312070Y0116779D01*
X0311500Y0116772D01*
X0310930Y0116779D01*
X0310360Y0116800D01*
X0309791Y0116835D01*
X0309223Y0116884D01*
X0308657Y0116947D01*
X0308092Y0117023D01*
X0307529Y0117114D01*
X0306968Y0117218D01*
X0306411Y0117336D01*
X0305856Y0117468D01*
X0305305Y0117613D01*
X0304757Y0117772D01*
X0304214Y0117944D01*
X0303675Y0118130D01*
X0303140Y0118328D01*
X0302611Y0118540D01*
X0302087Y0118765D01*
X0301569Y0119002D01*
X0301056Y0119252D01*
X0300550Y0119515D01*
X0300051Y0119790D01*
X0299558Y0120077D01*
X0299073Y0120376D01*
X0298595Y0120687D01*
X0298125Y0121009D01*
X0297663Y0121343D01*
X0297209Y0121688D01*
X0296764Y0122045D01*
X0296328Y0122412D01*
X0295901Y0122789D01*
X0295483Y0123177D01*
X0295075Y0123575D01*
X0294677Y0123983D01*
X0294289Y0124401D01*
X0293912Y0124828D01*
X0293545Y0125264D01*
X0293188Y0125709D01*
X0292843Y0126163D01*
X0292509Y0126625D01*
X0292187Y0127095D01*
X0291876Y0127573D01*
X0291577Y0128058D01*
X0291290Y0128551D01*
X0291015Y0129050D01*
X0290752Y0129556D01*
X0290502Y0130069D01*
X0290265Y0130587D01*
X0290040Y0131111D01*
X0289828Y0131640D01*
X0289630Y0132175D01*
X0289444Y0132714D01*
X0289272Y0133257D01*
X0289113Y0133805D01*
X0288968Y0134356D01*
X0288836Y0134911D01*
X0288718Y0135468D01*
X0288614Y0136029D01*
X0288523Y0136592D01*
X0288447Y0137157D01*
X0288384Y0137723D01*
X0288335Y0138291D01*
X0288300Y0138860D01*
X0288279Y0139430D01*
X0288272Y0140000D01*
X0247500Y0145000D02*
X0246500Y0145000D01*
X0246500Y0142000D01*
X0226500Y0142000D01*
X0226500Y0145000D01*
X0225500Y0145000D01*
X0226500Y0145000D02*
X0226500Y0148000D01*
X0246500Y0148000D01*
X0246500Y0145000D01*
X0246500Y0123000D02*
X0226500Y0123000D01*
X0226500Y0120000D01*
X0225500Y0120000D01*
X0226500Y0120000D02*
X0226500Y0117000D01*
X0246500Y0117000D01*
X0246500Y0120000D01*
X0247500Y0120000D01*
X0246500Y0120000D02*
X0246500Y0123000D01*
X0265083Y0098701D02*
X0265083Y0061299D01*
X0087917Y0061299D01*
X0087917Y0098701D01*
X0265083Y0098701D01*
X0246500Y0167000D02*
X0226500Y0167000D01*
X0226500Y0170000D01*
X0225500Y0170000D01*
X0226500Y0170000D02*
X0226500Y0173000D01*
X0246500Y0173000D01*
X0246500Y0170000D01*
X0247500Y0170000D01*
X0246500Y0170000D02*
X0246500Y0167000D01*
X0246500Y0192000D02*
X0226500Y0192000D01*
X0226500Y0195000D01*
X0225500Y0195000D01*
X0226500Y0195000D02*
X0226500Y0198000D01*
X0246500Y0198000D01*
X0246500Y0195000D01*
X0247500Y0195000D01*
X0246500Y0195000D02*
X0246500Y0192000D01*
X0275500Y0195000D02*
X0276500Y0195000D01*
X0276500Y0198000D01*
X0296500Y0198000D01*
X0296500Y0195000D01*
X0297500Y0195000D01*
X0296500Y0195000D02*
X0296500Y0192000D01*
X0276500Y0192000D01*
X0276500Y0195000D01*
X0246500Y0217000D02*
X0226500Y0217000D01*
X0226500Y0220000D01*
X0225500Y0220000D01*
X0226500Y0220000D02*
X0226500Y0223000D01*
X0246500Y0223000D01*
X0246500Y0220000D01*
X0247500Y0220000D01*
X0246500Y0220000D02*
X0246500Y0217000D01*
X0274000Y0245000D02*
X0279000Y0245000D01*
X0281500Y0247500D01*
X0284000Y0245000D01*
X0289000Y0245000D01*
X0291500Y0247500D01*
X0294000Y0245000D01*
X0299000Y0245000D01*
X0301500Y0247500D01*
X0304000Y0245000D01*
X0309000Y0245000D01*
X0311500Y0247500D01*
X0314000Y0245000D01*
X0319000Y0245000D01*
X0321500Y0247500D01*
X0324000Y0245000D01*
X0329000Y0245000D01*
X0331500Y0247500D01*
X0334000Y0245000D01*
X0339000Y0245000D01*
X0341500Y0247500D01*
X0344000Y0245000D01*
X0349000Y0245000D01*
X0351500Y0247500D01*
X0351500Y0252500D01*
X0349000Y0255000D01*
X0344000Y0255000D01*
X0341500Y0252500D01*
X0339000Y0255000D01*
X0334000Y0255000D01*
X0331500Y0252500D01*
X0329000Y0255000D01*
X0324000Y0255000D01*
X0321500Y0252500D01*
X0319000Y0255000D01*
X0314000Y0255000D01*
X0311500Y0252500D01*
X0309000Y0255000D01*
X0304000Y0255000D01*
X0301500Y0252500D01*
X0299000Y0255000D01*
X0294000Y0255000D01*
X0291500Y0252500D01*
X0289000Y0255000D01*
X0284000Y0255000D01*
X0281500Y0252500D01*
X0279000Y0255000D01*
X0274000Y0255000D01*
X0271500Y0252500D01*
X0271500Y0247500D01*
X0274000Y0245000D01*
X0206500Y0242500D02*
X0206500Y0237500D01*
X0204000Y0235000D01*
X0189000Y0235000D01*
X0186500Y0237500D01*
X0186500Y0242500D01*
X0189000Y0245000D01*
X0204000Y0245000D01*
X0206500Y0242500D01*
X0204000Y0245000D02*
X0206500Y0247500D01*
X0206500Y0252500D01*
X0204000Y0255000D01*
X0189000Y0255000D01*
X0186500Y0252500D01*
X0186500Y0247500D01*
X0189000Y0245000D01*
X0189000Y0235000D02*
X0186500Y0232500D01*
X0186500Y0227500D01*
X0189000Y0225000D01*
X0204000Y0225000D01*
X0206500Y0222500D01*
X0206500Y0217500D01*
X0204000Y0215000D01*
X0206500Y0212500D01*
X0206500Y0207500D01*
X0204000Y0205000D01*
X0189000Y0205000D01*
X0186500Y0207500D01*
X0186500Y0212500D01*
X0189000Y0215000D01*
X0204000Y0215000D01*
X0204000Y0225000D02*
X0206500Y0227500D01*
X0206500Y0232500D01*
X0204000Y0235000D01*
X0189000Y0225000D02*
X0186500Y0222500D01*
X0186500Y0217500D01*
X0189000Y0215000D01*
X0189000Y0255000D02*
X0186500Y0257500D01*
X0186500Y0262500D01*
X0189000Y0265000D01*
X0204000Y0265000D01*
X0206500Y0262500D01*
X0206500Y0257500D01*
X0204000Y0255000D01*
X0204000Y0265000D02*
X0206500Y0267500D01*
X0206500Y0272500D01*
X0204000Y0275000D01*
X0189000Y0275000D01*
X0186500Y0272500D01*
X0186500Y0267500D01*
X0189000Y0265000D01*
X0189000Y0275000D02*
X0186500Y0277500D01*
X0186500Y0282500D01*
X0189000Y0285000D01*
X0204000Y0285000D01*
X0206500Y0282500D01*
X0206500Y0277500D01*
X0204000Y0275000D01*
X0204000Y0285000D02*
X0206500Y0287500D01*
X0206500Y0292500D01*
X0204000Y0295000D01*
X0189000Y0295000D01*
X0186500Y0292500D01*
X0186500Y0287500D01*
X0189000Y0285000D01*
X0189000Y0295000D02*
X0186500Y0297500D01*
X0186500Y0302500D01*
X0189000Y0305000D01*
X0204000Y0305000D01*
X0206500Y0302500D01*
X0206500Y0297500D01*
X0204000Y0295000D01*
X0185000Y0297500D02*
X0185000Y0302500D01*
X0301500Y0352000D02*
X0301500Y0355000D01*
X0300500Y0355000D01*
X0301500Y0355000D02*
X0301500Y0358000D01*
X0321500Y0358000D01*
X0321500Y0355000D01*
X0322500Y0355000D01*
X0321500Y0355000D02*
X0321500Y0352000D01*
X0301500Y0352000D01*
X0299000Y0405000D02*
X0294000Y0405000D01*
X0291500Y0407500D01*
X0289000Y0405000D01*
X0284000Y0405000D01*
X0281500Y0407500D01*
X0279000Y0405000D01*
X0274000Y0405000D01*
X0271500Y0407500D01*
X0271500Y0412500D01*
X0274000Y0415000D01*
X0279000Y0415000D01*
X0281500Y0412500D01*
X0284000Y0415000D01*
X0289000Y0415000D01*
X0291500Y0412500D01*
X0294000Y0415000D01*
X0299000Y0415000D01*
X0301500Y0412500D01*
X0304000Y0415000D01*
X0309000Y0415000D01*
X0311500Y0412500D01*
X0314000Y0415000D01*
X0319000Y0415000D01*
X0321500Y0412500D01*
X0324000Y0415000D01*
X0329000Y0415000D01*
X0331500Y0412500D01*
X0334000Y0415000D01*
X0339000Y0415000D01*
X0341500Y0412500D01*
X0344000Y0415000D01*
X0349000Y0415000D01*
X0351500Y0412500D01*
X0351500Y0407500D01*
X0349000Y0405000D01*
X0344000Y0405000D01*
X0341500Y0407500D01*
X0339000Y0405000D01*
X0334000Y0405000D01*
X0331500Y0407500D01*
X0329000Y0405000D01*
X0324000Y0405000D01*
X0321500Y0407500D01*
X0319000Y0405000D01*
X0314000Y0405000D01*
X0311500Y0407500D01*
X0309000Y0405000D01*
X0304000Y0405000D01*
X0301500Y0407500D01*
X0299000Y0405000D01*
X0381500Y0197500D02*
X0381500Y0182500D01*
X0038000Y0207500D02*
X0038000Y0212500D01*
X0036500Y0212500D02*
X0036500Y0207500D01*
X0034000Y0205000D01*
X0019000Y0205000D01*
X0016500Y0207500D01*
X0016500Y0212500D01*
X0019000Y0215000D01*
X0034000Y0215000D01*
X0036500Y0217500D01*
X0036500Y0222500D01*
X0034000Y0225000D01*
X0019000Y0225000D01*
X0016500Y0227500D01*
X0016500Y0232500D01*
X0019000Y0235000D01*
X0034000Y0235000D01*
X0036500Y0237500D01*
X0036500Y0242500D01*
X0034000Y0245000D01*
X0019000Y0245000D01*
X0016500Y0247500D01*
X0016500Y0252500D01*
X0019000Y0255000D01*
X0034000Y0255000D01*
X0036500Y0257500D01*
X0036500Y0262500D01*
X0034000Y0265000D01*
X0019000Y0265000D01*
X0016500Y0267500D01*
X0016500Y0272500D01*
X0019000Y0275000D01*
X0034000Y0275000D01*
X0036500Y0272500D01*
X0036500Y0267500D01*
X0034000Y0265000D01*
X0034000Y0275000D02*
X0036500Y0277500D01*
X0036500Y0282500D01*
X0034000Y0285000D01*
X0019000Y0285000D01*
X0016500Y0287500D01*
X0016500Y0292500D01*
X0019000Y0295000D01*
X0016500Y0297500D01*
X0016500Y0302500D01*
X0019000Y0305000D01*
X0034000Y0305000D01*
X0036500Y0302500D01*
X0036500Y0297500D01*
X0034000Y0295000D01*
X0019000Y0295000D01*
X0019000Y0285000D02*
X0016500Y0282500D01*
X0016500Y0277500D01*
X0019000Y0275000D01*
X0019000Y0265000D02*
X0016500Y0262500D01*
X0016500Y0257500D01*
X0019000Y0255000D01*
X0019000Y0245000D02*
X0016500Y0242500D01*
X0016500Y0237500D01*
X0019000Y0235000D01*
X0019000Y0225000D02*
X0016500Y0222500D01*
X0016500Y0217500D01*
X0019000Y0215000D01*
X0034000Y0215000D02*
X0036500Y0212500D01*
X0034000Y0225000D02*
X0036500Y0227500D01*
X0036500Y0232500D01*
X0034000Y0235000D01*
X0034000Y0245000D02*
X0036500Y0247500D01*
X0036500Y0252500D01*
X0034000Y0255000D01*
X0034000Y0285000D02*
X0036500Y0287500D01*
X0036500Y0292500D01*
X0034000Y0295000D01*
D17*
X0381829Y0197809D02*
X0381109Y0197269D01*
X0381110Y0197270D02*
X0380929Y0197503D01*
X0380743Y0197731D01*
X0380551Y0197955D01*
X0380354Y0198174D01*
X0380152Y0198388D01*
X0379944Y0198597D01*
X0379731Y0198800D01*
X0379514Y0198999D01*
X0379291Y0199192D01*
X0379064Y0199380D01*
X0378833Y0199562D01*
X0378597Y0199739D01*
X0378356Y0199909D01*
X0378112Y0200074D01*
X0377864Y0200232D01*
X0377612Y0200385D01*
X0377356Y0200531D01*
X0377097Y0200671D01*
X0376834Y0200805D01*
X0376569Y0200932D01*
X0376300Y0201053D01*
X0376028Y0201167D01*
X0375754Y0201274D01*
X0375477Y0201375D01*
X0375198Y0201469D01*
X0374916Y0201556D01*
X0374633Y0201636D01*
X0374347Y0201709D01*
X0374060Y0201775D01*
X0373771Y0201834D01*
X0373481Y0201886D01*
X0373190Y0201931D01*
X0372898Y0201969D01*
X0372605Y0201999D01*
X0372311Y0202023D01*
X0372017Y0202039D01*
X0371723Y0202048D01*
X0371428Y0202050D01*
X0371133Y0202044D01*
X0370839Y0202032D01*
X0370545Y0202012D01*
X0370252Y0201985D01*
X0369959Y0201951D01*
X0369667Y0201910D01*
X0369377Y0201861D01*
X0369087Y0201806D01*
X0368800Y0201744D01*
X0368513Y0201674D01*
X0368229Y0201597D01*
X0367946Y0201514D01*
X0367666Y0201424D01*
X0367388Y0201327D01*
X0367112Y0201223D01*
X0366839Y0201112D01*
X0366569Y0200995D01*
X0366301Y0200871D01*
X0366037Y0200741D01*
X0365776Y0200604D01*
X0365519Y0200461D01*
X0365265Y0200311D01*
X0365014Y0200156D01*
X0364768Y0199994D01*
X0364526Y0199827D01*
X0364288Y0199653D01*
X0364054Y0199474D01*
X0363824Y0199289D01*
X0363600Y0199099D01*
X0363379Y0198903D01*
X0363164Y0198702D01*
X0362954Y0198495D01*
X0362749Y0198284D01*
X0362549Y0198067D01*
X0362354Y0197846D01*
X0362165Y0197620D01*
X0361982Y0197390D01*
X0361804Y0197155D01*
X0361632Y0196915D01*
X0361466Y0196672D01*
X0361306Y0196425D01*
X0361152Y0196174D01*
X0361004Y0195919D01*
X0360862Y0195660D01*
X0360727Y0195399D01*
X0360598Y0195134D01*
X0360476Y0194866D01*
X0360360Y0194595D01*
X0360251Y0194321D01*
X0360149Y0194045D01*
X0360054Y0193766D01*
X0359965Y0193485D01*
X0359883Y0193202D01*
X0359808Y0192917D01*
X0359741Y0192630D01*
X0359680Y0192342D01*
X0359626Y0192052D01*
X0359579Y0191761D01*
X0359540Y0191469D01*
X0359508Y0191177D01*
X0359482Y0190883D01*
X0359464Y0190589D01*
X0359454Y0190295D01*
X0359450Y0190000D01*
X0359454Y0189705D01*
X0359464Y0189411D01*
X0359482Y0189117D01*
X0359508Y0188823D01*
X0359540Y0188531D01*
X0359579Y0188239D01*
X0359626Y0187948D01*
X0359680Y0187658D01*
X0359741Y0187370D01*
X0359808Y0187083D01*
X0359883Y0186798D01*
X0359965Y0186515D01*
X0360054Y0186234D01*
X0360149Y0185955D01*
X0360251Y0185679D01*
X0360360Y0185405D01*
X0360476Y0185134D01*
X0360598Y0184866D01*
X0360727Y0184601D01*
X0360862Y0184340D01*
X0361004Y0184081D01*
X0361152Y0183826D01*
X0361306Y0183575D01*
X0361466Y0183328D01*
X0361632Y0183085D01*
X0361804Y0182845D01*
X0361982Y0182610D01*
X0362165Y0182380D01*
X0362354Y0182154D01*
X0362549Y0181933D01*
X0362749Y0181716D01*
X0362954Y0181505D01*
X0363164Y0181298D01*
X0363379Y0181097D01*
X0363600Y0180901D01*
X0363824Y0180711D01*
X0364054Y0180526D01*
X0364288Y0180347D01*
X0364526Y0180173D01*
X0364768Y0180006D01*
X0365014Y0179844D01*
X0365265Y0179689D01*
X0365519Y0179539D01*
X0365776Y0179396D01*
X0366037Y0179259D01*
X0366301Y0179129D01*
X0366569Y0179005D01*
X0366839Y0178888D01*
X0367112Y0178777D01*
X0367388Y0178673D01*
X0367666Y0178576D01*
X0367946Y0178486D01*
X0368229Y0178403D01*
X0368513Y0178326D01*
X0368800Y0178256D01*
X0369087Y0178194D01*
X0369377Y0178139D01*
X0369667Y0178090D01*
X0369959Y0178049D01*
X0370252Y0178015D01*
X0370545Y0177988D01*
X0370839Y0177968D01*
X0371133Y0177956D01*
X0371428Y0177950D01*
X0371723Y0177952D01*
X0372017Y0177961D01*
X0372311Y0177977D01*
X0372605Y0178001D01*
X0372898Y0178031D01*
X0373190Y0178069D01*
X0373481Y0178114D01*
X0373771Y0178166D01*
X0374060Y0178225D01*
X0374347Y0178291D01*
X0374633Y0178364D01*
X0374916Y0178444D01*
X0375198Y0178531D01*
X0375477Y0178625D01*
X0375754Y0178726D01*
X0376028Y0178833D01*
X0376300Y0178947D01*
X0376569Y0179068D01*
X0376834Y0179195D01*
X0377097Y0179329D01*
X0377356Y0179469D01*
X0377612Y0179615D01*
X0377864Y0179768D01*
X0378112Y0179926D01*
X0378356Y0180091D01*
X0378597Y0180261D01*
X0378833Y0180438D01*
X0379064Y0180620D01*
X0379291Y0180808D01*
X0379514Y0181001D01*
X0379731Y0181200D01*
X0379944Y0181403D01*
X0380152Y0181612D01*
X0380354Y0181826D01*
X0380551Y0182045D01*
X0380743Y0182269D01*
X0380929Y0182497D01*
X0381110Y0182730D01*
X0381829Y0182191D01*
X0381830Y0182190D01*
X0381636Y0181940D01*
X0381436Y0181694D01*
X0381230Y0181454D01*
X0381018Y0181219D01*
X0380800Y0180989D01*
X0380577Y0180764D01*
X0380349Y0180545D01*
X0380115Y0180331D01*
X0379876Y0180123D01*
X0379632Y0179921D01*
X0379383Y0179726D01*
X0379129Y0179536D01*
X0378871Y0179353D01*
X0378609Y0179176D01*
X0378342Y0179005D01*
X0378071Y0178841D01*
X0377796Y0178684D01*
X0377518Y0178533D01*
X0377235Y0178389D01*
X0376950Y0178253D01*
X0376661Y0178123D01*
X0376369Y0178000D01*
X0376074Y0177885D01*
X0375777Y0177777D01*
X0375476Y0177676D01*
X0375174Y0177582D01*
X0374869Y0177496D01*
X0374562Y0177417D01*
X0374254Y0177346D01*
X0373944Y0177283D01*
X0373632Y0177227D01*
X0373319Y0177178D01*
X0373005Y0177138D01*
X0372690Y0177105D01*
X0372374Y0177080D01*
X0372058Y0177062D01*
X0371742Y0177052D01*
X0371425Y0177050D01*
X0371108Y0177056D01*
X0370792Y0177069D01*
X0370476Y0177091D01*
X0370161Y0177119D01*
X0369846Y0177156D01*
X0369533Y0177200D01*
X0369220Y0177252D01*
X0368909Y0177312D01*
X0368600Y0177379D01*
X0368292Y0177454D01*
X0367986Y0177536D01*
X0367683Y0177625D01*
X0367381Y0177722D01*
X0367082Y0177827D01*
X0366786Y0177939D01*
X0366492Y0178057D01*
X0366202Y0178183D01*
X0365915Y0178316D01*
X0365630Y0178457D01*
X0365350Y0178604D01*
X0365073Y0178757D01*
X0364800Y0178918D01*
X0364531Y0179085D01*
X0364266Y0179259D01*
X0364006Y0179439D01*
X0363750Y0179625D01*
X0363499Y0179818D01*
X0363252Y0180016D01*
X0363010Y0180221D01*
X0362774Y0180431D01*
X0362542Y0180648D01*
X0362317Y0180870D01*
X0362096Y0181097D01*
X0361881Y0181329D01*
X0361672Y0181567D01*
X0361469Y0181810D01*
X0361271Y0182058D01*
X0361080Y0182310D01*
X0360895Y0182567D01*
X0360717Y0182829D01*
X0360545Y0183095D01*
X0360379Y0183364D01*
X0360220Y0183638D01*
X0360068Y0183916D01*
X0359923Y0184197D01*
X0359784Y0184482D01*
X0359653Y0184770D01*
X0359529Y0185062D01*
X0359411Y0185356D01*
X0359301Y0185653D01*
X0359199Y0185952D01*
X0359104Y0186254D01*
X0359016Y0186558D01*
X0358935Y0186865D01*
X0358862Y0187173D01*
X0358797Y0187483D01*
X0358739Y0187794D01*
X0358689Y0188107D01*
X0358647Y0188421D01*
X0358612Y0188735D01*
X0358585Y0189051D01*
X0358565Y0189367D01*
X0358554Y0189683D01*
X0358550Y0190000D01*
X0358554Y0190317D01*
X0358565Y0190633D01*
X0358585Y0190949D01*
X0358612Y0191265D01*
X0358647Y0191579D01*
X0358689Y0191893D01*
X0358739Y0192206D01*
X0358797Y0192517D01*
X0358862Y0192827D01*
X0358935Y0193135D01*
X0359016Y0193442D01*
X0359104Y0193746D01*
X0359199Y0194048D01*
X0359301Y0194347D01*
X0359411Y0194644D01*
X0359529Y0194938D01*
X0359653Y0195230D01*
X0359784Y0195518D01*
X0359923Y0195803D01*
X0360068Y0196084D01*
X0360220Y0196362D01*
X0360379Y0196636D01*
X0360545Y0196905D01*
X0360717Y0197171D01*
X0360895Y0197433D01*
X0361080Y0197690D01*
X0361271Y0197942D01*
X0361469Y0198190D01*
X0361672Y0198433D01*
X0361881Y0198671D01*
X0362096Y0198903D01*
X0362317Y0199130D01*
X0362542Y0199352D01*
X0362774Y0199569D01*
X0363010Y0199779D01*
X0363252Y0199984D01*
X0363499Y0200182D01*
X0363750Y0200375D01*
X0364006Y0200561D01*
X0364266Y0200741D01*
X0364531Y0200915D01*
X0364800Y0201082D01*
X0365073Y0201243D01*
X0365350Y0201396D01*
X0365630Y0201543D01*
X0365915Y0201684D01*
X0366202Y0201817D01*
X0366492Y0201943D01*
X0366786Y0202061D01*
X0367082Y0202173D01*
X0367381Y0202278D01*
X0367683Y0202375D01*
X0367986Y0202464D01*
X0368292Y0202546D01*
X0368600Y0202621D01*
X0368909Y0202688D01*
X0369220Y0202748D01*
X0369533Y0202800D01*
X0369846Y0202844D01*
X0370161Y0202881D01*
X0370476Y0202909D01*
X0370792Y0202931D01*
X0371108Y0202944D01*
X0371425Y0202950D01*
X0371742Y0202948D01*
X0372058Y0202938D01*
X0372374Y0202920D01*
X0372690Y0202895D01*
X0373005Y0202862D01*
X0373319Y0202822D01*
X0373632Y0202773D01*
X0373944Y0202717D01*
X0374254Y0202654D01*
X0374562Y0202583D01*
X0374869Y0202504D01*
X0375174Y0202418D01*
X0375476Y0202324D01*
X0375777Y0202223D01*
X0376074Y0202115D01*
X0376369Y0202000D01*
X0376661Y0201877D01*
X0376950Y0201747D01*
X0377235Y0201611D01*
X0377518Y0201467D01*
X0377796Y0201316D01*
X0378071Y0201159D01*
X0378342Y0200995D01*
X0378609Y0200824D01*
X0378871Y0200647D01*
X0379129Y0200464D01*
X0379383Y0200274D01*
X0379632Y0200079D01*
X0379876Y0199877D01*
X0380115Y0199669D01*
X0380349Y0199455D01*
X0380577Y0199236D01*
X0380800Y0199011D01*
X0381018Y0198781D01*
X0381230Y0198546D01*
X0381436Y0198306D01*
X0381636Y0198060D01*
X0381830Y0197810D01*
X0381755Y0197754D01*
X0381562Y0198002D01*
X0381363Y0198246D01*
X0381159Y0198484D01*
X0380949Y0198718D01*
X0380733Y0198946D01*
X0380511Y0199169D01*
X0380284Y0199387D01*
X0380052Y0199599D01*
X0379815Y0199805D01*
X0379573Y0200006D01*
X0379325Y0200200D01*
X0379074Y0200388D01*
X0378817Y0200570D01*
X0378557Y0200746D01*
X0378292Y0200915D01*
X0378023Y0201078D01*
X0377750Y0201234D01*
X0377474Y0201384D01*
X0377194Y0201526D01*
X0376910Y0201662D01*
X0376623Y0201791D01*
X0376333Y0201913D01*
X0376041Y0202027D01*
X0375745Y0202135D01*
X0375447Y0202235D01*
X0375147Y0202328D01*
X0374844Y0202413D01*
X0374540Y0202491D01*
X0374234Y0202562D01*
X0373926Y0202625D01*
X0373616Y0202681D01*
X0373306Y0202729D01*
X0372994Y0202769D01*
X0372681Y0202802D01*
X0372368Y0202827D01*
X0372054Y0202844D01*
X0371740Y0202854D01*
X0371425Y0202856D01*
X0371111Y0202850D01*
X0370797Y0202837D01*
X0370483Y0202816D01*
X0370170Y0202787D01*
X0369858Y0202751D01*
X0369547Y0202707D01*
X0369237Y0202655D01*
X0368928Y0202596D01*
X0368621Y0202529D01*
X0368315Y0202455D01*
X0368012Y0202374D01*
X0367710Y0202285D01*
X0367411Y0202188D01*
X0367114Y0202085D01*
X0366820Y0201974D01*
X0366529Y0201856D01*
X0366240Y0201731D01*
X0365955Y0201599D01*
X0365673Y0201460D01*
X0365395Y0201314D01*
X0365120Y0201161D01*
X0364849Y0201002D01*
X0364582Y0200836D01*
X0364319Y0200663D01*
X0364060Y0200485D01*
X0363806Y0200300D01*
X0363557Y0200108D01*
X0363312Y0199911D01*
X0363072Y0199708D01*
X0362837Y0199499D01*
X0362607Y0199284D01*
X0362383Y0199064D01*
X0362164Y0198839D01*
X0361951Y0198608D01*
X0361743Y0198372D01*
X0361541Y0198130D01*
X0361346Y0197885D01*
X0361156Y0197634D01*
X0360972Y0197379D01*
X0360795Y0197119D01*
X0360624Y0196855D01*
X0360460Y0196587D01*
X0360302Y0196315D01*
X0360151Y0196040D01*
X0360007Y0195760D01*
X0359869Y0195478D01*
X0359739Y0195192D01*
X0359615Y0194903D01*
X0359499Y0194610D01*
X0359390Y0194316D01*
X0359288Y0194018D01*
X0359194Y0193719D01*
X0359106Y0193416D01*
X0359026Y0193112D01*
X0358954Y0192807D01*
X0358889Y0192499D01*
X0358832Y0192190D01*
X0358782Y0191879D01*
X0358740Y0191568D01*
X0358705Y0191255D01*
X0358679Y0190942D01*
X0358659Y0190628D01*
X0358648Y0190314D01*
X0358644Y0190000D01*
X0358648Y0189686D01*
X0358659Y0189372D01*
X0358679Y0189058D01*
X0358705Y0188745D01*
X0358740Y0188432D01*
X0358782Y0188121D01*
X0358832Y0187810D01*
X0358889Y0187501D01*
X0358954Y0187193D01*
X0359026Y0186888D01*
X0359106Y0186584D01*
X0359194Y0186281D01*
X0359288Y0185982D01*
X0359390Y0185684D01*
X0359499Y0185390D01*
X0359615Y0185097D01*
X0359739Y0184808D01*
X0359869Y0184522D01*
X0360007Y0184240D01*
X0360151Y0183960D01*
X0360302Y0183685D01*
X0360460Y0183413D01*
X0360624Y0183145D01*
X0360795Y0182881D01*
X0360972Y0182621D01*
X0361156Y0182366D01*
X0361346Y0182115D01*
X0361541Y0181870D01*
X0361743Y0181628D01*
X0361951Y0181392D01*
X0362164Y0181161D01*
X0362383Y0180936D01*
X0362607Y0180716D01*
X0362837Y0180501D01*
X0363072Y0180292D01*
X0363312Y0180089D01*
X0363557Y0179892D01*
X0363806Y0179700D01*
X0364060Y0179515D01*
X0364319Y0179337D01*
X0364582Y0179164D01*
X0364849Y0178998D01*
X0365120Y0178839D01*
X0365395Y0178686D01*
X0365673Y0178540D01*
X0365955Y0178401D01*
X0366240Y0178269D01*
X0366529Y0178144D01*
X0366820Y0178026D01*
X0367114Y0177915D01*
X0367411Y0177812D01*
X0367710Y0177715D01*
X0368012Y0177626D01*
X0368315Y0177545D01*
X0368621Y0177471D01*
X0368928Y0177404D01*
X0369237Y0177345D01*
X0369547Y0177293D01*
X0369858Y0177249D01*
X0370170Y0177213D01*
X0370483Y0177184D01*
X0370797Y0177163D01*
X0371111Y0177150D01*
X0371425Y0177144D01*
X0371740Y0177146D01*
X0372054Y0177156D01*
X0372368Y0177173D01*
X0372681Y0177198D01*
X0372994Y0177231D01*
X0373306Y0177271D01*
X0373616Y0177319D01*
X0373926Y0177375D01*
X0374234Y0177438D01*
X0374540Y0177509D01*
X0374844Y0177587D01*
X0375147Y0177672D01*
X0375447Y0177765D01*
X0375745Y0177865D01*
X0376041Y0177973D01*
X0376333Y0178087D01*
X0376623Y0178209D01*
X0376910Y0178338D01*
X0377194Y0178474D01*
X0377474Y0178616D01*
X0377750Y0178766D01*
X0378023Y0178922D01*
X0378292Y0179085D01*
X0378557Y0179254D01*
X0378817Y0179430D01*
X0379074Y0179612D01*
X0379325Y0179800D01*
X0379573Y0179994D01*
X0379815Y0180195D01*
X0380052Y0180401D01*
X0380284Y0180613D01*
X0380511Y0180831D01*
X0380733Y0181054D01*
X0380949Y0181282D01*
X0381159Y0181516D01*
X0381363Y0181754D01*
X0381562Y0181998D01*
X0381755Y0182246D01*
X0381680Y0182303D01*
X0381488Y0182056D01*
X0381291Y0181814D01*
X0381088Y0181577D01*
X0380879Y0181346D01*
X0380665Y0181119D01*
X0380445Y0180897D01*
X0380220Y0180681D01*
X0379989Y0180471D01*
X0379754Y0180266D01*
X0379513Y0180067D01*
X0379268Y0179874D01*
X0379018Y0179688D01*
X0378764Y0179507D01*
X0378505Y0179332D01*
X0378242Y0179164D01*
X0377975Y0179003D01*
X0377704Y0178848D01*
X0377430Y0178699D01*
X0377152Y0178558D01*
X0376870Y0178423D01*
X0376586Y0178295D01*
X0376298Y0178174D01*
X0376007Y0178060D01*
X0375714Y0177954D01*
X0375418Y0177854D01*
X0375120Y0177762D01*
X0374820Y0177677D01*
X0374517Y0177600D01*
X0374213Y0177530D01*
X0373908Y0177467D01*
X0373601Y0177412D01*
X0373292Y0177364D01*
X0372983Y0177324D01*
X0372672Y0177292D01*
X0372361Y0177267D01*
X0372050Y0177250D01*
X0371738Y0177240D01*
X0371426Y0177238D01*
X0371114Y0177244D01*
X0370802Y0177257D01*
X0370491Y0177278D01*
X0370180Y0177306D01*
X0369870Y0177343D01*
X0369561Y0177386D01*
X0369253Y0177437D01*
X0368946Y0177496D01*
X0368642Y0177562D01*
X0368338Y0177636D01*
X0368037Y0177717D01*
X0367738Y0177805D01*
X0367441Y0177901D01*
X0367146Y0178004D01*
X0366854Y0178114D01*
X0366565Y0178231D01*
X0366278Y0178355D01*
X0365995Y0178486D01*
X0365715Y0178624D01*
X0365439Y0178769D01*
X0365166Y0178921D01*
X0364897Y0179079D01*
X0364632Y0179244D01*
X0364371Y0179415D01*
X0364115Y0179592D01*
X0363862Y0179776D01*
X0363615Y0179966D01*
X0363372Y0180161D01*
X0363133Y0180363D01*
X0362900Y0180571D01*
X0362672Y0180784D01*
X0362450Y0181002D01*
X0362232Y0181226D01*
X0362021Y0181455D01*
X0361815Y0181690D01*
X0361614Y0181929D01*
X0361420Y0182173D01*
X0361232Y0182422D01*
X0361049Y0182675D01*
X0360873Y0182933D01*
X0360704Y0183195D01*
X0360541Y0183461D01*
X0360384Y0183731D01*
X0360234Y0184005D01*
X0360091Y0184282D01*
X0359954Y0184562D01*
X0359825Y0184846D01*
X0359702Y0185133D01*
X0359587Y0185423D01*
X0359479Y0185716D01*
X0359377Y0186011D01*
X0359283Y0186309D01*
X0359197Y0186609D01*
X0359118Y0186910D01*
X0359046Y0187214D01*
X0358981Y0187519D01*
X0358924Y0187826D01*
X0358875Y0188134D01*
X0358833Y0188444D01*
X0358799Y0188754D01*
X0358772Y0189065D01*
X0358753Y0189376D01*
X0358742Y0189688D01*
X0358738Y0190000D01*
X0358742Y0190312D01*
X0358753Y0190624D01*
X0358772Y0190935D01*
X0358799Y0191246D01*
X0358833Y0191556D01*
X0358875Y0191866D01*
X0358924Y0192174D01*
X0358981Y0192481D01*
X0359046Y0192786D01*
X0359118Y0193090D01*
X0359197Y0193391D01*
X0359283Y0193691D01*
X0359377Y0193989D01*
X0359479Y0194284D01*
X0359587Y0194577D01*
X0359702Y0194867D01*
X0359825Y0195154D01*
X0359954Y0195438D01*
X0360091Y0195718D01*
X0360234Y0195995D01*
X0360384Y0196269D01*
X0360541Y0196539D01*
X0360704Y0196805D01*
X0360873Y0197067D01*
X0361049Y0197325D01*
X0361232Y0197578D01*
X0361420Y0197827D01*
X0361614Y0198071D01*
X0361815Y0198310D01*
X0362021Y0198545D01*
X0362232Y0198774D01*
X0362450Y0198998D01*
X0362672Y0199216D01*
X0362900Y0199429D01*
X0363133Y0199637D01*
X0363372Y0199839D01*
X0363615Y0200034D01*
X0363862Y0200224D01*
X0364115Y0200408D01*
X0364371Y0200585D01*
X0364632Y0200756D01*
X0364897Y0200921D01*
X0365166Y0201079D01*
X0365439Y0201231D01*
X0365715Y0201376D01*
X0365995Y0201514D01*
X0366278Y0201645D01*
X0366565Y0201769D01*
X0366854Y0201886D01*
X0367146Y0201996D01*
X0367441Y0202099D01*
X0367738Y0202195D01*
X0368037Y0202283D01*
X0368338Y0202364D01*
X0368642Y0202438D01*
X0368946Y0202504D01*
X0369253Y0202563D01*
X0369561Y0202614D01*
X0369870Y0202657D01*
X0370180Y0202694D01*
X0370491Y0202722D01*
X0370802Y0202743D01*
X0371114Y0202756D01*
X0371426Y0202762D01*
X0371738Y0202760D01*
X0372050Y0202750D01*
X0372361Y0202733D01*
X0372672Y0202708D01*
X0372983Y0202676D01*
X0373292Y0202636D01*
X0373601Y0202588D01*
X0373908Y0202533D01*
X0374213Y0202470D01*
X0374517Y0202400D01*
X0374820Y0202323D01*
X0375120Y0202238D01*
X0375418Y0202146D01*
X0375714Y0202046D01*
X0376007Y0201940D01*
X0376298Y0201826D01*
X0376586Y0201705D01*
X0376870Y0201577D01*
X0377152Y0201442D01*
X0377430Y0201301D01*
X0377704Y0201152D01*
X0377975Y0200997D01*
X0378242Y0200836D01*
X0378505Y0200668D01*
X0378764Y0200493D01*
X0379018Y0200312D01*
X0379268Y0200126D01*
X0379513Y0199933D01*
X0379754Y0199734D01*
X0379989Y0199529D01*
X0380220Y0199319D01*
X0380445Y0199103D01*
X0380665Y0198881D01*
X0380879Y0198654D01*
X0381088Y0198423D01*
X0381291Y0198186D01*
X0381488Y0197944D01*
X0381680Y0197697D01*
X0381604Y0197641D01*
X0381414Y0197886D01*
X0381219Y0198126D01*
X0381017Y0198361D01*
X0380810Y0198591D01*
X0380597Y0198816D01*
X0380379Y0199036D01*
X0380155Y0199250D01*
X0379926Y0199459D01*
X0379693Y0199662D01*
X0379454Y0199860D01*
X0379211Y0200051D01*
X0378962Y0200237D01*
X0378710Y0200416D01*
X0378453Y0200589D01*
X0378192Y0200756D01*
X0377927Y0200917D01*
X0377658Y0201070D01*
X0377386Y0201218D01*
X0377110Y0201358D01*
X0376830Y0201492D01*
X0376548Y0201619D01*
X0376262Y0201739D01*
X0375974Y0201852D01*
X0375683Y0201958D01*
X0375389Y0202056D01*
X0375093Y0202148D01*
X0374795Y0202232D01*
X0374495Y0202309D01*
X0374193Y0202378D01*
X0373890Y0202441D01*
X0373585Y0202495D01*
X0373279Y0202543D01*
X0372971Y0202582D01*
X0372663Y0202614D01*
X0372355Y0202639D01*
X0372045Y0202656D01*
X0371736Y0202666D01*
X0371426Y0202668D01*
X0371116Y0202662D01*
X0370807Y0202649D01*
X0370498Y0202628D01*
X0370189Y0202600D01*
X0369882Y0202564D01*
X0369575Y0202521D01*
X0369269Y0202470D01*
X0368965Y0202412D01*
X0368662Y0202346D01*
X0368361Y0202273D01*
X0368062Y0202193D01*
X0367765Y0202105D01*
X0367470Y0202010D01*
X0367178Y0201908D01*
X0366888Y0201799D01*
X0366601Y0201682D01*
X0366317Y0201559D01*
X0366036Y0201429D01*
X0365758Y0201292D01*
X0365484Y0201148D01*
X0365213Y0200998D01*
X0364946Y0200841D01*
X0364683Y0200677D01*
X0364424Y0200507D01*
X0364169Y0200331D01*
X0363918Y0200149D01*
X0363673Y0199960D01*
X0363431Y0199766D01*
X0363195Y0199566D01*
X0362964Y0199360D01*
X0362737Y0199148D01*
X0362516Y0198931D01*
X0362301Y0198709D01*
X0362090Y0198482D01*
X0361886Y0198249D01*
X0361687Y0198011D01*
X0361494Y0197769D01*
X0361307Y0197522D01*
X0361126Y0197271D01*
X0360952Y0197015D01*
X0360783Y0196755D01*
X0360621Y0196491D01*
X0360466Y0196223D01*
X0360317Y0195951D01*
X0360175Y0195676D01*
X0360039Y0195397D01*
X0359911Y0195116D01*
X0359789Y0194831D01*
X0359675Y0194543D01*
X0359567Y0194252D01*
X0359467Y0193959D01*
X0359373Y0193664D01*
X0359287Y0193366D01*
X0359209Y0193067D01*
X0359138Y0192765D01*
X0359074Y0192462D01*
X0359017Y0192158D01*
X0358968Y0191852D01*
X0358927Y0191545D01*
X0358893Y0191237D01*
X0358866Y0190928D01*
X0358847Y0190619D01*
X0358836Y0190310D01*
X0358832Y0190000D01*
X0358836Y0189690D01*
X0358847Y0189381D01*
X0358866Y0189072D01*
X0358893Y0188763D01*
X0358927Y0188455D01*
X0358968Y0188148D01*
X0359017Y0187842D01*
X0359074Y0187538D01*
X0359138Y0187235D01*
X0359209Y0186933D01*
X0359287Y0186634D01*
X0359373Y0186336D01*
X0359467Y0186041D01*
X0359567Y0185748D01*
X0359675Y0185457D01*
X0359789Y0185169D01*
X0359911Y0184884D01*
X0360039Y0184603D01*
X0360175Y0184324D01*
X0360317Y0184049D01*
X0360466Y0183777D01*
X0360621Y0183509D01*
X0360783Y0183245D01*
X0360952Y0182985D01*
X0361126Y0182729D01*
X0361307Y0182478D01*
X0361494Y0182231D01*
X0361687Y0181989D01*
X0361886Y0181751D01*
X0362090Y0181518D01*
X0362301Y0181291D01*
X0362516Y0181069D01*
X0362737Y0180852D01*
X0362964Y0180640D01*
X0363195Y0180434D01*
X0363431Y0180234D01*
X0363673Y0180040D01*
X0363918Y0179851D01*
X0364169Y0179669D01*
X0364424Y0179493D01*
X0364683Y0179323D01*
X0364946Y0179159D01*
X0365213Y0179002D01*
X0365484Y0178852D01*
X0365758Y0178708D01*
X0366036Y0178571D01*
X0366317Y0178441D01*
X0366601Y0178318D01*
X0366888Y0178201D01*
X0367178Y0178092D01*
X0367470Y0177990D01*
X0367765Y0177895D01*
X0368062Y0177807D01*
X0368361Y0177727D01*
X0368662Y0177654D01*
X0368965Y0177588D01*
X0369269Y0177530D01*
X0369575Y0177479D01*
X0369882Y0177436D01*
X0370189Y0177400D01*
X0370498Y0177372D01*
X0370807Y0177351D01*
X0371116Y0177338D01*
X0371426Y0177332D01*
X0371736Y0177334D01*
X0372045Y0177344D01*
X0372355Y0177361D01*
X0372663Y0177386D01*
X0372971Y0177418D01*
X0373279Y0177457D01*
X0373585Y0177505D01*
X0373890Y0177559D01*
X0374193Y0177622D01*
X0374495Y0177691D01*
X0374795Y0177768D01*
X0375093Y0177852D01*
X0375389Y0177944D01*
X0375683Y0178042D01*
X0375974Y0178148D01*
X0376262Y0178261D01*
X0376548Y0178381D01*
X0376830Y0178508D01*
X0377110Y0178642D01*
X0377386Y0178782D01*
X0377658Y0178930D01*
X0377927Y0179083D01*
X0378192Y0179244D01*
X0378453Y0179411D01*
X0378710Y0179584D01*
X0378962Y0179763D01*
X0379211Y0179949D01*
X0379454Y0180140D01*
X0379693Y0180338D01*
X0379926Y0180541D01*
X0380155Y0180750D01*
X0380379Y0180964D01*
X0380597Y0181184D01*
X0380810Y0181409D01*
X0381017Y0181639D01*
X0381219Y0181874D01*
X0381414Y0182114D01*
X0381604Y0182359D01*
X0381529Y0182416D01*
X0381341Y0182173D01*
X0381146Y0181934D01*
X0380946Y0181701D01*
X0380741Y0181473D01*
X0380529Y0181249D01*
X0380313Y0181031D01*
X0380091Y0180818D01*
X0379864Y0180611D01*
X0379632Y0180409D01*
X0379395Y0180213D01*
X0379153Y0180023D01*
X0378907Y0179839D01*
X0378656Y0179661D01*
X0378401Y0179489D01*
X0378142Y0179324D01*
X0377879Y0179164D01*
X0377612Y0179012D01*
X0377342Y0178865D01*
X0377068Y0178726D01*
X0376791Y0178593D01*
X0376510Y0178467D01*
X0376227Y0178348D01*
X0375940Y0178236D01*
X0375651Y0178131D01*
X0375360Y0178033D01*
X0375066Y0177942D01*
X0374770Y0177859D01*
X0374473Y0177782D01*
X0374173Y0177713D01*
X0373872Y0177652D01*
X0373569Y0177597D01*
X0373265Y0177551D01*
X0372960Y0177511D01*
X0372655Y0177479D01*
X0372348Y0177455D01*
X0372041Y0177438D01*
X0371734Y0177428D01*
X0371426Y0177426D01*
X0371119Y0177432D01*
X0370812Y0177445D01*
X0370505Y0177465D01*
X0370199Y0177494D01*
X0369893Y0177529D01*
X0369589Y0177572D01*
X0369286Y0177623D01*
X0368984Y0177680D01*
X0368683Y0177746D01*
X0368384Y0177818D01*
X0368088Y0177898D01*
X0367793Y0177985D01*
X0367500Y0178079D01*
X0367210Y0178181D01*
X0366922Y0178289D01*
X0366637Y0178404D01*
X0366355Y0178527D01*
X0366076Y0178656D01*
X0365800Y0178792D01*
X0365528Y0178935D01*
X0365259Y0179084D01*
X0364994Y0179240D01*
X0364733Y0179402D01*
X0364476Y0179571D01*
X0364223Y0179746D01*
X0363975Y0179927D01*
X0363731Y0180114D01*
X0363491Y0180307D01*
X0363257Y0180505D01*
X0363027Y0180710D01*
X0362802Y0180920D01*
X0362583Y0181135D01*
X0362369Y0181356D01*
X0362160Y0181581D01*
X0361957Y0181812D01*
X0361760Y0182048D01*
X0361568Y0182289D01*
X0361383Y0182534D01*
X0361203Y0182783D01*
X0361030Y0183037D01*
X0360863Y0183295D01*
X0360702Y0183557D01*
X0360548Y0183823D01*
X0360400Y0184093D01*
X0360259Y0184366D01*
X0360124Y0184643D01*
X0359997Y0184922D01*
X0359876Y0185205D01*
X0359762Y0185491D01*
X0359656Y0185779D01*
X0359556Y0186070D01*
X0359463Y0186363D01*
X0359378Y0186659D01*
X0359300Y0186956D01*
X0359229Y0187255D01*
X0359166Y0187556D01*
X0359110Y0187858D01*
X0359061Y0188162D01*
X0359020Y0188467D01*
X0358986Y0188772D01*
X0358960Y0189078D01*
X0358941Y0189385D01*
X0358930Y0189693D01*
X0358926Y0190000D01*
X0358930Y0190307D01*
X0358941Y0190615D01*
X0358960Y0190922D01*
X0358986Y0191228D01*
X0359020Y0191533D01*
X0359061Y0191838D01*
X0359110Y0192142D01*
X0359166Y0192444D01*
X0359229Y0192745D01*
X0359300Y0193044D01*
X0359378Y0193341D01*
X0359463Y0193637D01*
X0359556Y0193930D01*
X0359656Y0194221D01*
X0359762Y0194509D01*
X0359876Y0194795D01*
X0359997Y0195078D01*
X0360124Y0195357D01*
X0360259Y0195634D01*
X0360400Y0195907D01*
X0360548Y0196177D01*
X0360702Y0196443D01*
X0360863Y0196705D01*
X0361030Y0196963D01*
X0361203Y0197217D01*
X0361383Y0197466D01*
X0361568Y0197711D01*
X0361760Y0197952D01*
X0361957Y0198188D01*
X0362160Y0198419D01*
X0362369Y0198644D01*
X0362583Y0198865D01*
X0362802Y0199080D01*
X0363027Y0199290D01*
X0363257Y0199495D01*
X0363491Y0199693D01*
X0363731Y0199886D01*
X0363975Y0200073D01*
X0364223Y0200254D01*
X0364476Y0200429D01*
X0364733Y0200598D01*
X0364994Y0200760D01*
X0365259Y0200916D01*
X0365528Y0201065D01*
X0365800Y0201208D01*
X0366076Y0201344D01*
X0366355Y0201473D01*
X0366637Y0201596D01*
X0366922Y0201711D01*
X0367210Y0201819D01*
X0367500Y0201921D01*
X0367793Y0202015D01*
X0368088Y0202102D01*
X0368384Y0202182D01*
X0368683Y0202254D01*
X0368984Y0202320D01*
X0369286Y0202377D01*
X0369589Y0202428D01*
X0369893Y0202471D01*
X0370199Y0202506D01*
X0370505Y0202535D01*
X0370812Y0202555D01*
X0371119Y0202568D01*
X0371426Y0202574D01*
X0371734Y0202572D01*
X0372041Y0202562D01*
X0372348Y0202545D01*
X0372655Y0202521D01*
X0372960Y0202489D01*
X0373265Y0202449D01*
X0373569Y0202403D01*
X0373872Y0202348D01*
X0374173Y0202287D01*
X0374473Y0202218D01*
X0374770Y0202141D01*
X0375066Y0202058D01*
X0375360Y0201967D01*
X0375651Y0201869D01*
X0375940Y0201764D01*
X0376227Y0201652D01*
X0376510Y0201533D01*
X0376791Y0201407D01*
X0377068Y0201274D01*
X0377342Y0201135D01*
X0377612Y0200988D01*
X0377879Y0200836D01*
X0378142Y0200676D01*
X0378401Y0200511D01*
X0378656Y0200339D01*
X0378907Y0200161D01*
X0379153Y0199977D01*
X0379395Y0199787D01*
X0379632Y0199591D01*
X0379864Y0199389D01*
X0380091Y0199182D01*
X0380313Y0198969D01*
X0380529Y0198751D01*
X0380741Y0198527D01*
X0380946Y0198299D01*
X0381146Y0198066D01*
X0381341Y0197827D01*
X0381529Y0197584D01*
X0381454Y0197528D01*
X0381267Y0197769D01*
X0381074Y0198006D01*
X0380875Y0198237D01*
X0380671Y0198464D01*
X0380462Y0198686D01*
X0380247Y0198902D01*
X0380026Y0199113D01*
X0379801Y0199319D01*
X0379571Y0199519D01*
X0379335Y0199714D01*
X0379096Y0199902D01*
X0378851Y0200085D01*
X0378602Y0200262D01*
X0378349Y0200432D01*
X0378092Y0200597D01*
X0377831Y0200755D01*
X0377566Y0200906D01*
X0377298Y0201051D01*
X0377026Y0201190D01*
X0376751Y0201322D01*
X0376472Y0201447D01*
X0376191Y0201565D01*
X0375907Y0201676D01*
X0375620Y0201780D01*
X0375331Y0201878D01*
X0375039Y0201968D01*
X0374746Y0202051D01*
X0374450Y0202126D01*
X0374153Y0202195D01*
X0373854Y0202256D01*
X0373553Y0202310D01*
X0373252Y0202356D01*
X0372949Y0202396D01*
X0372646Y0202427D01*
X0372341Y0202452D01*
X0372037Y0202468D01*
X0371732Y0202478D01*
X0371427Y0202480D01*
X0371122Y0202474D01*
X0370817Y0202461D01*
X0370512Y0202441D01*
X0370208Y0202413D01*
X0369905Y0202378D01*
X0369603Y0202335D01*
X0369302Y0202285D01*
X0369002Y0202228D01*
X0368704Y0202163D01*
X0368408Y0202091D01*
X0368113Y0202012D01*
X0367820Y0201925D01*
X0367530Y0201832D01*
X0367242Y0201731D01*
X0366956Y0201623D01*
X0366673Y0201509D01*
X0366393Y0201387D01*
X0366116Y0201259D01*
X0365843Y0201124D01*
X0365573Y0200983D01*
X0365306Y0200834D01*
X0365043Y0200680D01*
X0364784Y0200519D01*
X0364528Y0200351D01*
X0364277Y0200178D01*
X0364031Y0199998D01*
X0363789Y0199812D01*
X0363551Y0199621D01*
X0363318Y0199424D01*
X0363090Y0199221D01*
X0362867Y0199012D01*
X0362649Y0198799D01*
X0362437Y0198580D01*
X0362230Y0198356D01*
X0362028Y0198126D01*
X0361832Y0197892D01*
X0361642Y0197654D01*
X0361458Y0197410D01*
X0361280Y0197163D01*
X0361108Y0196911D01*
X0360942Y0196654D01*
X0360783Y0196394D01*
X0360629Y0196130D01*
X0360483Y0195863D01*
X0360343Y0195592D01*
X0360209Y0195317D01*
X0360083Y0195040D01*
X0359963Y0194759D01*
X0359850Y0194475D01*
X0359744Y0194189D01*
X0359645Y0193901D01*
X0359553Y0193610D01*
X0359469Y0193316D01*
X0359391Y0193021D01*
X0359321Y0192724D01*
X0359258Y0192426D01*
X0359202Y0192126D01*
X0359154Y0191824D01*
X0359113Y0191522D01*
X0359080Y0191219D01*
X0359054Y0190915D01*
X0359035Y0190610D01*
X0359024Y0190305D01*
X0359020Y0190000D01*
X0359024Y0189695D01*
X0359035Y0189390D01*
X0359054Y0189085D01*
X0359080Y0188781D01*
X0359113Y0188478D01*
X0359154Y0188176D01*
X0359202Y0187874D01*
X0359258Y0187574D01*
X0359321Y0187276D01*
X0359391Y0186979D01*
X0359469Y0186684D01*
X0359553Y0186390D01*
X0359645Y0186099D01*
X0359744Y0185811D01*
X0359850Y0185525D01*
X0359963Y0185241D01*
X0360083Y0184960D01*
X0360209Y0184683D01*
X0360343Y0184408D01*
X0360483Y0184137D01*
X0360629Y0183870D01*
X0360783Y0183606D01*
X0360942Y0183346D01*
X0361108Y0183089D01*
X0361280Y0182837D01*
X0361458Y0182590D01*
X0361642Y0182346D01*
X0361832Y0182108D01*
X0362028Y0181874D01*
X0362230Y0181644D01*
X0362437Y0181420D01*
X0362649Y0181201D01*
X0362867Y0180988D01*
X0363090Y0180779D01*
X0363318Y0180576D01*
X0363551Y0180379D01*
X0363789Y0180188D01*
X0364031Y0180002D01*
X0364277Y0179822D01*
X0364528Y0179649D01*
X0364784Y0179481D01*
X0365043Y0179320D01*
X0365306Y0179166D01*
X0365573Y0179017D01*
X0365843Y0178876D01*
X0366116Y0178741D01*
X0366393Y0178613D01*
X0366673Y0178491D01*
X0366956Y0178377D01*
X0367242Y0178269D01*
X0367530Y0178168D01*
X0367820Y0178075D01*
X0368113Y0177988D01*
X0368408Y0177909D01*
X0368704Y0177837D01*
X0369002Y0177772D01*
X0369302Y0177715D01*
X0369603Y0177665D01*
X0369905Y0177622D01*
X0370208Y0177587D01*
X0370512Y0177559D01*
X0370817Y0177539D01*
X0371122Y0177526D01*
X0371427Y0177520D01*
X0371732Y0177522D01*
X0372037Y0177532D01*
X0372341Y0177548D01*
X0372646Y0177573D01*
X0372949Y0177604D01*
X0373252Y0177644D01*
X0373553Y0177690D01*
X0373854Y0177744D01*
X0374153Y0177805D01*
X0374450Y0177874D01*
X0374746Y0177949D01*
X0375039Y0178032D01*
X0375331Y0178122D01*
X0375620Y0178220D01*
X0375907Y0178324D01*
X0376191Y0178435D01*
X0376472Y0178553D01*
X0376751Y0178678D01*
X0377026Y0178810D01*
X0377298Y0178949D01*
X0377566Y0179094D01*
X0377831Y0179245D01*
X0378092Y0179403D01*
X0378349Y0179568D01*
X0378602Y0179738D01*
X0378851Y0179915D01*
X0379096Y0180098D01*
X0379335Y0180286D01*
X0379571Y0180481D01*
X0379801Y0180681D01*
X0380026Y0180887D01*
X0380247Y0181098D01*
X0380462Y0181314D01*
X0380671Y0181536D01*
X0380875Y0181763D01*
X0381074Y0181994D01*
X0381267Y0182231D01*
X0381454Y0182472D01*
X0381379Y0182528D01*
X0381193Y0182289D01*
X0381002Y0182054D01*
X0380805Y0181825D01*
X0380602Y0181600D01*
X0380394Y0181379D01*
X0380180Y0181165D01*
X0379962Y0180955D01*
X0379738Y0180751D01*
X0379510Y0180552D01*
X0379276Y0180359D01*
X0379038Y0180172D01*
X0378796Y0179991D01*
X0378549Y0179815D01*
X0378298Y0179646D01*
X0378042Y0179483D01*
X0377783Y0179326D01*
X0377520Y0179176D01*
X0377254Y0179032D01*
X0376984Y0178894D01*
X0376711Y0178763D01*
X0376435Y0178639D01*
X0376155Y0178522D01*
X0375873Y0178412D01*
X0375589Y0178308D01*
X0375302Y0178212D01*
X0375012Y0178122D01*
X0374721Y0178040D01*
X0374428Y0177965D01*
X0374132Y0177897D01*
X0373836Y0177836D01*
X0373538Y0177783D01*
X0373238Y0177737D01*
X0372938Y0177698D01*
X0372637Y0177666D01*
X0372335Y0177642D01*
X0372032Y0177625D01*
X0371730Y0177616D01*
X0371427Y0177614D01*
X0371124Y0177620D01*
X0370822Y0177633D01*
X0370519Y0177653D01*
X0370218Y0177681D01*
X0369917Y0177716D01*
X0369617Y0177758D01*
X0369318Y0177808D01*
X0369021Y0177865D01*
X0368725Y0177929D01*
X0368431Y0178000D01*
X0368138Y0178079D01*
X0367848Y0178165D01*
X0367559Y0178258D01*
X0367274Y0178357D01*
X0366990Y0178464D01*
X0366710Y0178578D01*
X0366432Y0178698D01*
X0366157Y0178826D01*
X0365885Y0178960D01*
X0365617Y0179100D01*
X0365352Y0179247D01*
X0365091Y0179401D01*
X0364834Y0179561D01*
X0364581Y0179727D01*
X0364332Y0179899D01*
X0364087Y0180077D01*
X0363846Y0180262D01*
X0363611Y0180452D01*
X0363380Y0180647D01*
X0363153Y0180849D01*
X0362932Y0181055D01*
X0362716Y0181268D01*
X0362505Y0181485D01*
X0362300Y0181707D01*
X0362100Y0181935D01*
X0361905Y0182167D01*
X0361717Y0182404D01*
X0361534Y0182646D01*
X0361357Y0182891D01*
X0361186Y0183142D01*
X0361022Y0183396D01*
X0360863Y0183654D01*
X0360711Y0183916D01*
X0360566Y0184181D01*
X0360427Y0184450D01*
X0360294Y0184723D01*
X0360169Y0184998D01*
X0360050Y0185277D01*
X0359938Y0185558D01*
X0359833Y0185842D01*
X0359734Y0186129D01*
X0359643Y0186418D01*
X0359559Y0186709D01*
X0359482Y0187002D01*
X0359413Y0187296D01*
X0359350Y0187593D01*
X0359295Y0187890D01*
X0359247Y0188189D01*
X0359206Y0188489D01*
X0359173Y0188791D01*
X0359147Y0189092D01*
X0359129Y0189395D01*
X0359118Y0189697D01*
X0359114Y0190000D01*
X0359118Y0190303D01*
X0359129Y0190605D01*
X0359147Y0190908D01*
X0359173Y0191209D01*
X0359206Y0191511D01*
X0359247Y0191811D01*
X0359295Y0192110D01*
X0359350Y0192407D01*
X0359413Y0192704D01*
X0359482Y0192998D01*
X0359559Y0193291D01*
X0359643Y0193582D01*
X0359734Y0193871D01*
X0359833Y0194158D01*
X0359938Y0194442D01*
X0360050Y0194723D01*
X0360169Y0195002D01*
X0360294Y0195277D01*
X0360427Y0195550D01*
X0360566Y0195819D01*
X0360711Y0196084D01*
X0360863Y0196346D01*
X0361022Y0196604D01*
X0361186Y0196858D01*
X0361357Y0197109D01*
X0361534Y0197354D01*
X0361717Y0197596D01*
X0361905Y0197833D01*
X0362100Y0198065D01*
X0362300Y0198293D01*
X0362505Y0198515D01*
X0362716Y0198732D01*
X0362932Y0198945D01*
X0363153Y0199151D01*
X0363380Y0199353D01*
X0363611Y0199548D01*
X0363846Y0199738D01*
X0364087Y0199923D01*
X0364332Y0200101D01*
X0364581Y0200273D01*
X0364834Y0200439D01*
X0365091Y0200599D01*
X0365352Y0200753D01*
X0365617Y0200900D01*
X0365885Y0201040D01*
X0366157Y0201174D01*
X0366432Y0201302D01*
X0366710Y0201422D01*
X0366990Y0201536D01*
X0367274Y0201643D01*
X0367559Y0201742D01*
X0367848Y0201835D01*
X0368138Y0201921D01*
X0368431Y0202000D01*
X0368725Y0202071D01*
X0369021Y0202135D01*
X0369318Y0202192D01*
X0369617Y0202242D01*
X0369917Y0202284D01*
X0370218Y0202319D01*
X0370519Y0202347D01*
X0370822Y0202367D01*
X0371124Y0202380D01*
X0371427Y0202386D01*
X0371730Y0202384D01*
X0372032Y0202375D01*
X0372335Y0202358D01*
X0372637Y0202334D01*
X0372938Y0202302D01*
X0373238Y0202263D01*
X0373538Y0202217D01*
X0373836Y0202164D01*
X0374132Y0202103D01*
X0374428Y0202035D01*
X0374721Y0201960D01*
X0375012Y0201878D01*
X0375302Y0201788D01*
X0375589Y0201692D01*
X0375873Y0201588D01*
X0376155Y0201478D01*
X0376435Y0201361D01*
X0376711Y0201237D01*
X0376984Y0201106D01*
X0377254Y0200968D01*
X0377520Y0200824D01*
X0377783Y0200674D01*
X0378042Y0200517D01*
X0378298Y0200354D01*
X0378549Y0200185D01*
X0378796Y0200009D01*
X0379038Y0199828D01*
X0379276Y0199641D01*
X0379510Y0199448D01*
X0379738Y0199249D01*
X0379962Y0199045D01*
X0380180Y0198835D01*
X0380394Y0198621D01*
X0380602Y0198400D01*
X0380805Y0198175D01*
X0381002Y0197946D01*
X0381193Y0197711D01*
X0381379Y0197472D01*
X0381304Y0197415D01*
X0381119Y0197653D01*
X0380929Y0197885D01*
X0380734Y0198114D01*
X0380533Y0198337D01*
X0380326Y0198555D01*
X0380114Y0198769D01*
X0379897Y0198977D01*
X0379675Y0199179D01*
X0379448Y0199376D01*
X0379217Y0199568D01*
X0378981Y0199754D01*
X0378740Y0199934D01*
X0378495Y0200108D01*
X0378246Y0200276D01*
X0377992Y0200438D01*
X0377735Y0200593D01*
X0377474Y0200742D01*
X0377210Y0200885D01*
X0376942Y0201022D01*
X0376671Y0201151D01*
X0376397Y0201274D01*
X0376120Y0201391D01*
X0375840Y0201500D01*
X0375557Y0201603D01*
X0375273Y0201699D01*
X0374985Y0201787D01*
X0374696Y0201869D01*
X0374405Y0201944D01*
X0374112Y0202011D01*
X0373818Y0202072D01*
X0373522Y0202125D01*
X0373225Y0202170D01*
X0372927Y0202209D01*
X0372628Y0202240D01*
X0372328Y0202264D01*
X0372028Y0202281D01*
X0371728Y0202290D01*
X0371427Y0202292D01*
X0371127Y0202286D01*
X0370826Y0202274D01*
X0370527Y0202253D01*
X0370227Y0202226D01*
X0369929Y0202191D01*
X0369631Y0202149D01*
X0369335Y0202100D01*
X0369040Y0202043D01*
X0368746Y0201979D01*
X0368454Y0201909D01*
X0368164Y0201831D01*
X0367875Y0201745D01*
X0367589Y0201653D01*
X0367305Y0201554D01*
X0367024Y0201448D01*
X0366746Y0201335D01*
X0366470Y0201216D01*
X0366197Y0201089D01*
X0365928Y0200956D01*
X0365662Y0200817D01*
X0365399Y0200671D01*
X0365140Y0200519D01*
X0364884Y0200360D01*
X0364633Y0200195D01*
X0364386Y0200024D01*
X0364143Y0199847D01*
X0363904Y0199664D01*
X0363670Y0199476D01*
X0363441Y0199282D01*
X0363217Y0199082D01*
X0362997Y0198877D01*
X0362783Y0198666D01*
X0362573Y0198450D01*
X0362369Y0198230D01*
X0362171Y0198004D01*
X0361978Y0197773D01*
X0361791Y0197538D01*
X0361609Y0197299D01*
X0361434Y0197055D01*
X0361264Y0196806D01*
X0361101Y0196554D01*
X0360944Y0196298D01*
X0360793Y0196038D01*
X0360649Y0195774D01*
X0360511Y0195507D01*
X0360379Y0195237D01*
X0360255Y0194964D01*
X0360137Y0194687D01*
X0360026Y0194408D01*
X0359921Y0194126D01*
X0359824Y0193842D01*
X0359733Y0193555D01*
X0359650Y0193266D01*
X0359574Y0192976D01*
X0359504Y0192683D01*
X0359442Y0192389D01*
X0359388Y0192094D01*
X0359340Y0191797D01*
X0359300Y0191499D01*
X0359267Y0191200D01*
X0359241Y0190901D01*
X0359223Y0190601D01*
X0359212Y0190301D01*
X0359208Y0190000D01*
X0359212Y0189699D01*
X0359223Y0189399D01*
X0359241Y0189099D01*
X0359267Y0188800D01*
X0359300Y0188501D01*
X0359340Y0188203D01*
X0359388Y0187906D01*
X0359442Y0187611D01*
X0359504Y0187317D01*
X0359574Y0187024D01*
X0359650Y0186734D01*
X0359733Y0186445D01*
X0359824Y0186158D01*
X0359921Y0185874D01*
X0360026Y0185592D01*
X0360137Y0185313D01*
X0360255Y0185036D01*
X0360379Y0184763D01*
X0360511Y0184493D01*
X0360649Y0184226D01*
X0360793Y0183962D01*
X0360944Y0183702D01*
X0361101Y0183446D01*
X0361264Y0183194D01*
X0361434Y0182945D01*
X0361609Y0182701D01*
X0361791Y0182462D01*
X0361978Y0182227D01*
X0362171Y0181996D01*
X0362369Y0181770D01*
X0362573Y0181550D01*
X0362783Y0181334D01*
X0362997Y0181123D01*
X0363217Y0180918D01*
X0363441Y0180718D01*
X0363670Y0180524D01*
X0363904Y0180336D01*
X0364143Y0180153D01*
X0364386Y0179976D01*
X0364633Y0179805D01*
X0364884Y0179640D01*
X0365140Y0179481D01*
X0365399Y0179329D01*
X0365662Y0179183D01*
X0365928Y0179044D01*
X0366197Y0178911D01*
X0366470Y0178784D01*
X0366746Y0178665D01*
X0367024Y0178552D01*
X0367305Y0178446D01*
X0367589Y0178347D01*
X0367875Y0178255D01*
X0368164Y0178169D01*
X0368454Y0178091D01*
X0368746Y0178021D01*
X0369040Y0177957D01*
X0369335Y0177900D01*
X0369631Y0177851D01*
X0369929Y0177809D01*
X0370227Y0177774D01*
X0370527Y0177747D01*
X0370826Y0177726D01*
X0371127Y0177714D01*
X0371427Y0177708D01*
X0371728Y0177710D01*
X0372028Y0177719D01*
X0372328Y0177736D01*
X0372628Y0177760D01*
X0372927Y0177791D01*
X0373225Y0177830D01*
X0373522Y0177875D01*
X0373818Y0177928D01*
X0374112Y0177989D01*
X0374405Y0178056D01*
X0374696Y0178131D01*
X0374985Y0178213D01*
X0375273Y0178301D01*
X0375557Y0178397D01*
X0375840Y0178500D01*
X0376120Y0178609D01*
X0376397Y0178726D01*
X0376671Y0178849D01*
X0376942Y0178978D01*
X0377210Y0179115D01*
X0377474Y0179258D01*
X0377735Y0179407D01*
X0377992Y0179562D01*
X0378246Y0179724D01*
X0378495Y0179892D01*
X0378740Y0180066D01*
X0378981Y0180246D01*
X0379217Y0180432D01*
X0379448Y0180624D01*
X0379675Y0180821D01*
X0379897Y0181023D01*
X0380114Y0181231D01*
X0380326Y0181445D01*
X0380533Y0181663D01*
X0380734Y0181886D01*
X0380929Y0182115D01*
X0381119Y0182347D01*
X0381304Y0182585D01*
X0381228Y0182641D01*
X0381046Y0182406D01*
X0380857Y0182175D01*
X0380663Y0181948D01*
X0380463Y0181726D01*
X0380258Y0181510D01*
X0380048Y0181298D01*
X0379833Y0181092D01*
X0379613Y0180891D01*
X0379387Y0180695D01*
X0379158Y0180505D01*
X0378923Y0180321D01*
X0378684Y0180142D01*
X0378441Y0179969D01*
X0378194Y0179803D01*
X0377942Y0179642D01*
X0377687Y0179488D01*
X0377428Y0179340D01*
X0377166Y0179198D01*
X0376900Y0179063D01*
X0376631Y0178934D01*
X0376359Y0178812D01*
X0376084Y0178696D01*
X0375806Y0178587D01*
X0375526Y0178486D01*
X0375243Y0178391D01*
X0374958Y0178303D01*
X0374671Y0178222D01*
X0374383Y0178147D01*
X0374092Y0178081D01*
X0373800Y0178021D01*
X0373506Y0177968D01*
X0373211Y0177923D01*
X0372916Y0177884D01*
X0372619Y0177853D01*
X0372322Y0177830D01*
X0372024Y0177813D01*
X0371726Y0177804D01*
X0371428Y0177802D01*
X0371129Y0177808D01*
X0370831Y0177820D01*
X0370534Y0177840D01*
X0370237Y0177868D01*
X0369941Y0177902D01*
X0369645Y0177944D01*
X0369351Y0177993D01*
X0369058Y0178049D01*
X0368767Y0178112D01*
X0368477Y0178183D01*
X0368189Y0178260D01*
X0367903Y0178344D01*
X0367619Y0178436D01*
X0367337Y0178534D01*
X0367058Y0178639D01*
X0366782Y0178751D01*
X0366508Y0178870D01*
X0366238Y0178995D01*
X0365970Y0179127D01*
X0365706Y0179266D01*
X0365445Y0179411D01*
X0365188Y0179562D01*
X0364935Y0179719D01*
X0364686Y0179883D01*
X0364440Y0180053D01*
X0364199Y0180228D01*
X0363962Y0180410D01*
X0363730Y0180597D01*
X0363503Y0180789D01*
X0363280Y0180988D01*
X0363062Y0181191D01*
X0362849Y0181400D01*
X0362641Y0181614D01*
X0362439Y0181834D01*
X0362242Y0182057D01*
X0362051Y0182286D01*
X0361865Y0182520D01*
X0361685Y0182757D01*
X0361511Y0182999D01*
X0361343Y0183246D01*
X0361181Y0183496D01*
X0361025Y0183750D01*
X0360875Y0184008D01*
X0360732Y0184270D01*
X0360595Y0184535D01*
X0360464Y0184803D01*
X0360341Y0185074D01*
X0360224Y0185349D01*
X0360113Y0185626D01*
X0360010Y0185906D01*
X0359913Y0186188D01*
X0359823Y0186472D01*
X0359741Y0186759D01*
X0359665Y0187047D01*
X0359596Y0187337D01*
X0359535Y0187629D01*
X0359480Y0187922D01*
X0359433Y0188217D01*
X0359393Y0188512D01*
X0359360Y0188809D01*
X0359335Y0189106D01*
X0359317Y0189404D01*
X0359306Y0189702D01*
X0359302Y0190000D01*
X0359306Y0190298D01*
X0359317Y0190596D01*
X0359335Y0190894D01*
X0359360Y0191191D01*
X0359393Y0191488D01*
X0359433Y0191783D01*
X0359480Y0192078D01*
X0359535Y0192371D01*
X0359596Y0192663D01*
X0359665Y0192953D01*
X0359741Y0193241D01*
X0359823Y0193528D01*
X0359913Y0193812D01*
X0360010Y0194094D01*
X0360113Y0194374D01*
X0360224Y0194651D01*
X0360341Y0194926D01*
X0360464Y0195197D01*
X0360595Y0195465D01*
X0360732Y0195730D01*
X0360875Y0195992D01*
X0361025Y0196250D01*
X0361181Y0196504D01*
X0361343Y0196754D01*
X0361511Y0197001D01*
X0361685Y0197243D01*
X0361865Y0197480D01*
X0362051Y0197714D01*
X0362242Y0197943D01*
X0362439Y0198166D01*
X0362641Y0198386D01*
X0362849Y0198600D01*
X0363062Y0198809D01*
X0363280Y0199012D01*
X0363503Y0199211D01*
X0363730Y0199403D01*
X0363962Y0199590D01*
X0364199Y0199772D01*
X0364440Y0199947D01*
X0364686Y0200117D01*
X0364935Y0200281D01*
X0365188Y0200438D01*
X0365445Y0200589D01*
X0365706Y0200734D01*
X0365970Y0200873D01*
X0366238Y0201005D01*
X0366508Y0201130D01*
X0366782Y0201249D01*
X0367058Y0201361D01*
X0367337Y0201466D01*
X0367619Y0201564D01*
X0367903Y0201656D01*
X0368189Y0201740D01*
X0368477Y0201817D01*
X0368767Y0201888D01*
X0369058Y0201951D01*
X0369351Y0202007D01*
X0369645Y0202056D01*
X0369941Y0202098D01*
X0370237Y0202132D01*
X0370534Y0202160D01*
X0370831Y0202180D01*
X0371129Y0202192D01*
X0371428Y0202198D01*
X0371726Y0202196D01*
X0372024Y0202187D01*
X0372322Y0202170D01*
X0372619Y0202147D01*
X0372916Y0202116D01*
X0373211Y0202077D01*
X0373506Y0202032D01*
X0373800Y0201979D01*
X0374092Y0201919D01*
X0374383Y0201853D01*
X0374671Y0201778D01*
X0374958Y0201697D01*
X0375243Y0201609D01*
X0375526Y0201514D01*
X0375806Y0201413D01*
X0376084Y0201304D01*
X0376359Y0201188D01*
X0376631Y0201066D01*
X0376900Y0200937D01*
X0377166Y0200802D01*
X0377428Y0200660D01*
X0377687Y0200512D01*
X0377942Y0200358D01*
X0378194Y0200197D01*
X0378441Y0200031D01*
X0378684Y0199858D01*
X0378923Y0199679D01*
X0379158Y0199495D01*
X0379387Y0199305D01*
X0379613Y0199109D01*
X0379833Y0198908D01*
X0380048Y0198702D01*
X0380258Y0198490D01*
X0380463Y0198274D01*
X0380663Y0198052D01*
X0380857Y0197825D01*
X0381046Y0197594D01*
X0381228Y0197359D01*
X0381153Y0197302D01*
X0380972Y0197536D01*
X0380785Y0197765D01*
X0380592Y0197990D01*
X0380394Y0198210D01*
X0380191Y0198425D01*
X0379982Y0198635D01*
X0379768Y0198840D01*
X0379550Y0199039D01*
X0379326Y0199233D01*
X0379098Y0199422D01*
X0378866Y0199605D01*
X0378629Y0199782D01*
X0378387Y0199953D01*
X0378142Y0200119D01*
X0377893Y0200278D01*
X0377639Y0200431D01*
X0377383Y0200578D01*
X0377122Y0200719D01*
X0376858Y0200853D01*
X0376591Y0200981D01*
X0376321Y0201102D01*
X0376049Y0201217D01*
X0375773Y0201325D01*
X0375495Y0201426D01*
X0375214Y0201520D01*
X0374932Y0201607D01*
X0374647Y0201688D01*
X0374360Y0201761D01*
X0374072Y0201828D01*
X0373782Y0201887D01*
X0373490Y0201939D01*
X0373198Y0201984D01*
X0372904Y0202022D01*
X0372610Y0202053D01*
X0372315Y0202077D01*
X0372020Y0202093D01*
X0371724Y0202102D01*
X0371428Y0202104D01*
X0371132Y0202098D01*
X0370836Y0202086D01*
X0370541Y0202066D01*
X0370246Y0202039D01*
X0369952Y0202005D01*
X0369659Y0201963D01*
X0369367Y0201915D01*
X0369077Y0201859D01*
X0368788Y0201796D01*
X0368500Y0201726D01*
X0368214Y0201649D01*
X0367930Y0201566D01*
X0367649Y0201475D01*
X0367369Y0201377D01*
X0367092Y0201273D01*
X0366818Y0201162D01*
X0366547Y0201044D01*
X0366278Y0200920D01*
X0366013Y0200789D01*
X0365751Y0200651D01*
X0365492Y0200508D01*
X0365237Y0200358D01*
X0364985Y0200201D01*
X0364738Y0200039D01*
X0364495Y0199871D01*
X0364255Y0199696D01*
X0364020Y0199516D01*
X0363790Y0199331D01*
X0363564Y0199139D01*
X0363343Y0198943D01*
X0363127Y0198741D01*
X0362916Y0198533D01*
X0362710Y0198321D01*
X0362509Y0198103D01*
X0362313Y0197881D01*
X0362123Y0197654D01*
X0361939Y0197423D01*
X0361761Y0197187D01*
X0361588Y0196947D01*
X0361421Y0196702D01*
X0361260Y0196454D01*
X0361105Y0196201D01*
X0360957Y0195945D01*
X0360815Y0195686D01*
X0360679Y0195423D01*
X0360549Y0195157D01*
X0360427Y0194888D01*
X0360310Y0194615D01*
X0360201Y0194340D01*
X0360098Y0194063D01*
X0360002Y0193783D01*
X0359913Y0193501D01*
X0359831Y0193216D01*
X0359756Y0192930D01*
X0359688Y0192642D01*
X0359627Y0192353D01*
X0359573Y0192062D01*
X0359526Y0191769D01*
X0359486Y0191476D01*
X0359454Y0191182D01*
X0359429Y0190887D01*
X0359410Y0190592D01*
X0359400Y0190296D01*
X0359396Y0190000D01*
X0359400Y0189704D01*
X0359410Y0189408D01*
X0359429Y0189113D01*
X0359454Y0188818D01*
X0359486Y0188524D01*
X0359526Y0188231D01*
X0359573Y0187938D01*
X0359627Y0187647D01*
X0359688Y0187358D01*
X0359756Y0187070D01*
X0359831Y0186784D01*
X0359913Y0186499D01*
X0360002Y0186217D01*
X0360098Y0185937D01*
X0360201Y0185660D01*
X0360310Y0185385D01*
X0360427Y0185112D01*
X0360549Y0184843D01*
X0360679Y0184577D01*
X0360815Y0184314D01*
X0360957Y0184055D01*
X0361105Y0183799D01*
X0361260Y0183546D01*
X0361421Y0183298D01*
X0361588Y0183053D01*
X0361761Y0182813D01*
X0361939Y0182577D01*
X0362123Y0182346D01*
X0362313Y0182119D01*
X0362509Y0181897D01*
X0362710Y0181679D01*
X0362916Y0181467D01*
X0363127Y0181259D01*
X0363343Y0181057D01*
X0363564Y0180861D01*
X0363790Y0180669D01*
X0364020Y0180484D01*
X0364255Y0180304D01*
X0364495Y0180129D01*
X0364738Y0179961D01*
X0364985Y0179799D01*
X0365237Y0179642D01*
X0365492Y0179492D01*
X0365751Y0179349D01*
X0366013Y0179211D01*
X0366278Y0179080D01*
X0366547Y0178956D01*
X0366818Y0178838D01*
X0367092Y0178727D01*
X0367369Y0178623D01*
X0367649Y0178525D01*
X0367930Y0178434D01*
X0368214Y0178351D01*
X0368500Y0178274D01*
X0368788Y0178204D01*
X0369077Y0178141D01*
X0369367Y0178085D01*
X0369659Y0178037D01*
X0369952Y0177995D01*
X0370246Y0177961D01*
X0370541Y0177934D01*
X0370836Y0177914D01*
X0371132Y0177902D01*
X0371428Y0177896D01*
X0371724Y0177898D01*
X0372020Y0177907D01*
X0372315Y0177923D01*
X0372610Y0177947D01*
X0372904Y0177978D01*
X0373198Y0178016D01*
X0373490Y0178061D01*
X0373782Y0178113D01*
X0374072Y0178172D01*
X0374360Y0178239D01*
X0374647Y0178312D01*
X0374932Y0178393D01*
X0375214Y0178480D01*
X0375495Y0178574D01*
X0375773Y0178675D01*
X0376049Y0178783D01*
X0376321Y0178898D01*
X0376591Y0179019D01*
X0376858Y0179147D01*
X0377122Y0179281D01*
X0377383Y0179422D01*
X0377639Y0179569D01*
X0377893Y0179722D01*
X0378142Y0179881D01*
X0378387Y0180047D01*
X0378629Y0180218D01*
X0378866Y0180395D01*
X0379098Y0180578D01*
X0379326Y0180767D01*
X0379550Y0180961D01*
X0379768Y0181160D01*
X0379982Y0181365D01*
X0380191Y0181575D01*
X0380394Y0181790D01*
X0380592Y0182010D01*
X0380785Y0182235D01*
X0380972Y0182464D01*
X0381153Y0182698D01*
X0456829Y0197809D02*
X0456109Y0197269D01*
X0456110Y0197270D02*
X0455929Y0197503D01*
X0455743Y0197731D01*
X0455551Y0197955D01*
X0455354Y0198174D01*
X0455152Y0198388D01*
X0454944Y0198597D01*
X0454731Y0198800D01*
X0454514Y0198999D01*
X0454291Y0199192D01*
X0454064Y0199380D01*
X0453833Y0199562D01*
X0453597Y0199739D01*
X0453356Y0199909D01*
X0453112Y0200074D01*
X0452864Y0200232D01*
X0452612Y0200385D01*
X0452356Y0200531D01*
X0452097Y0200671D01*
X0451834Y0200805D01*
X0451569Y0200932D01*
X0451300Y0201053D01*
X0451028Y0201167D01*
X0450754Y0201274D01*
X0450477Y0201375D01*
X0450198Y0201469D01*
X0449916Y0201556D01*
X0449633Y0201636D01*
X0449347Y0201709D01*
X0449060Y0201775D01*
X0448771Y0201834D01*
X0448481Y0201886D01*
X0448190Y0201931D01*
X0447898Y0201969D01*
X0447605Y0201999D01*
X0447311Y0202023D01*
X0447017Y0202039D01*
X0446723Y0202048D01*
X0446428Y0202050D01*
X0446133Y0202044D01*
X0445839Y0202032D01*
X0445545Y0202012D01*
X0445252Y0201985D01*
X0444959Y0201951D01*
X0444667Y0201910D01*
X0444377Y0201861D01*
X0444087Y0201806D01*
X0443800Y0201744D01*
X0443513Y0201674D01*
X0443229Y0201597D01*
X0442946Y0201514D01*
X0442666Y0201424D01*
X0442388Y0201327D01*
X0442112Y0201223D01*
X0441839Y0201112D01*
X0441569Y0200995D01*
X0441301Y0200871D01*
X0441037Y0200741D01*
X0440776Y0200604D01*
X0440519Y0200461D01*
X0440265Y0200311D01*
X0440014Y0200156D01*
X0439768Y0199994D01*
X0439526Y0199827D01*
X0439288Y0199653D01*
X0439054Y0199474D01*
X0438824Y0199289D01*
X0438600Y0199099D01*
X0438379Y0198903D01*
X0438164Y0198702D01*
X0437954Y0198495D01*
X0437749Y0198284D01*
X0437549Y0198067D01*
X0437354Y0197846D01*
X0437165Y0197620D01*
X0436982Y0197390D01*
X0436804Y0197155D01*
X0436632Y0196915D01*
X0436466Y0196672D01*
X0436306Y0196425D01*
X0436152Y0196174D01*
X0436004Y0195919D01*
X0435862Y0195660D01*
X0435727Y0195399D01*
X0435598Y0195134D01*
X0435476Y0194866D01*
X0435360Y0194595D01*
X0435251Y0194321D01*
X0435149Y0194045D01*
X0435054Y0193766D01*
X0434965Y0193485D01*
X0434883Y0193202D01*
X0434808Y0192917D01*
X0434741Y0192630D01*
X0434680Y0192342D01*
X0434626Y0192052D01*
X0434579Y0191761D01*
X0434540Y0191469D01*
X0434508Y0191177D01*
X0434482Y0190883D01*
X0434464Y0190589D01*
X0434454Y0190295D01*
X0434450Y0190000D01*
X0434454Y0189705D01*
X0434464Y0189411D01*
X0434482Y0189117D01*
X0434508Y0188823D01*
X0434540Y0188531D01*
X0434579Y0188239D01*
X0434626Y0187948D01*
X0434680Y0187658D01*
X0434741Y0187370D01*
X0434808Y0187083D01*
X0434883Y0186798D01*
X0434965Y0186515D01*
X0435054Y0186234D01*
X0435149Y0185955D01*
X0435251Y0185679D01*
X0435360Y0185405D01*
X0435476Y0185134D01*
X0435598Y0184866D01*
X0435727Y0184601D01*
X0435862Y0184340D01*
X0436004Y0184081D01*
X0436152Y0183826D01*
X0436306Y0183575D01*
X0436466Y0183328D01*
X0436632Y0183085D01*
X0436804Y0182845D01*
X0436982Y0182610D01*
X0437165Y0182380D01*
X0437354Y0182154D01*
X0437549Y0181933D01*
X0437749Y0181716D01*
X0437954Y0181505D01*
X0438164Y0181298D01*
X0438379Y0181097D01*
X0438600Y0180901D01*
X0438824Y0180711D01*
X0439054Y0180526D01*
X0439288Y0180347D01*
X0439526Y0180173D01*
X0439768Y0180006D01*
X0440014Y0179844D01*
X0440265Y0179689D01*
X0440519Y0179539D01*
X0440776Y0179396D01*
X0441037Y0179259D01*
X0441301Y0179129D01*
X0441569Y0179005D01*
X0441839Y0178888D01*
X0442112Y0178777D01*
X0442388Y0178673D01*
X0442666Y0178576D01*
X0442946Y0178486D01*
X0443229Y0178403D01*
X0443513Y0178326D01*
X0443800Y0178256D01*
X0444087Y0178194D01*
X0444377Y0178139D01*
X0444667Y0178090D01*
X0444959Y0178049D01*
X0445252Y0178015D01*
X0445545Y0177988D01*
X0445839Y0177968D01*
X0446133Y0177956D01*
X0446428Y0177950D01*
X0446723Y0177952D01*
X0447017Y0177961D01*
X0447311Y0177977D01*
X0447605Y0178001D01*
X0447898Y0178031D01*
X0448190Y0178069D01*
X0448481Y0178114D01*
X0448771Y0178166D01*
X0449060Y0178225D01*
X0449347Y0178291D01*
X0449633Y0178364D01*
X0449916Y0178444D01*
X0450198Y0178531D01*
X0450477Y0178625D01*
X0450754Y0178726D01*
X0451028Y0178833D01*
X0451300Y0178947D01*
X0451569Y0179068D01*
X0451834Y0179195D01*
X0452097Y0179329D01*
X0452356Y0179469D01*
X0452612Y0179615D01*
X0452864Y0179768D01*
X0453112Y0179926D01*
X0453356Y0180091D01*
X0453597Y0180261D01*
X0453833Y0180438D01*
X0454064Y0180620D01*
X0454291Y0180808D01*
X0454514Y0181001D01*
X0454731Y0181200D01*
X0454944Y0181403D01*
X0455152Y0181612D01*
X0455354Y0181826D01*
X0455551Y0182045D01*
X0455743Y0182269D01*
X0455929Y0182497D01*
X0456110Y0182730D01*
X0456829Y0182191D01*
X0456830Y0182190D01*
X0456636Y0181940D01*
X0456436Y0181694D01*
X0456230Y0181454D01*
X0456018Y0181219D01*
X0455800Y0180989D01*
X0455577Y0180764D01*
X0455349Y0180545D01*
X0455115Y0180331D01*
X0454876Y0180123D01*
X0454632Y0179921D01*
X0454383Y0179726D01*
X0454129Y0179536D01*
X0453871Y0179353D01*
X0453609Y0179176D01*
X0453342Y0179005D01*
X0453071Y0178841D01*
X0452796Y0178684D01*
X0452518Y0178533D01*
X0452235Y0178389D01*
X0451950Y0178253D01*
X0451661Y0178123D01*
X0451369Y0178000D01*
X0451074Y0177885D01*
X0450777Y0177777D01*
X0450476Y0177676D01*
X0450174Y0177582D01*
X0449869Y0177496D01*
X0449562Y0177417D01*
X0449254Y0177346D01*
X0448944Y0177283D01*
X0448632Y0177227D01*
X0448319Y0177178D01*
X0448005Y0177138D01*
X0447690Y0177105D01*
X0447374Y0177080D01*
X0447058Y0177062D01*
X0446742Y0177052D01*
X0446425Y0177050D01*
X0446108Y0177056D01*
X0445792Y0177069D01*
X0445476Y0177091D01*
X0445161Y0177119D01*
X0444846Y0177156D01*
X0444533Y0177200D01*
X0444220Y0177252D01*
X0443909Y0177312D01*
X0443600Y0177379D01*
X0443292Y0177454D01*
X0442986Y0177536D01*
X0442683Y0177625D01*
X0442381Y0177722D01*
X0442082Y0177827D01*
X0441786Y0177939D01*
X0441492Y0178057D01*
X0441202Y0178183D01*
X0440915Y0178316D01*
X0440630Y0178457D01*
X0440350Y0178604D01*
X0440073Y0178757D01*
X0439800Y0178918D01*
X0439531Y0179085D01*
X0439266Y0179259D01*
X0439006Y0179439D01*
X0438750Y0179625D01*
X0438499Y0179818D01*
X0438252Y0180016D01*
X0438010Y0180221D01*
X0437774Y0180431D01*
X0437542Y0180648D01*
X0437317Y0180870D01*
X0437096Y0181097D01*
X0436881Y0181329D01*
X0436672Y0181567D01*
X0436469Y0181810D01*
X0436271Y0182058D01*
X0436080Y0182310D01*
X0435895Y0182567D01*
X0435717Y0182829D01*
X0435545Y0183095D01*
X0435379Y0183364D01*
X0435220Y0183638D01*
X0435068Y0183916D01*
X0434923Y0184197D01*
X0434784Y0184482D01*
X0434653Y0184770D01*
X0434529Y0185062D01*
X0434411Y0185356D01*
X0434301Y0185653D01*
X0434199Y0185952D01*
X0434104Y0186254D01*
X0434016Y0186558D01*
X0433935Y0186865D01*
X0433862Y0187173D01*
X0433797Y0187483D01*
X0433739Y0187794D01*
X0433689Y0188107D01*
X0433647Y0188421D01*
X0433612Y0188735D01*
X0433585Y0189051D01*
X0433565Y0189367D01*
X0433554Y0189683D01*
X0433550Y0190000D01*
X0433554Y0190317D01*
X0433565Y0190633D01*
X0433585Y0190949D01*
X0433612Y0191265D01*
X0433647Y0191579D01*
X0433689Y0191893D01*
X0433739Y0192206D01*
X0433797Y0192517D01*
X0433862Y0192827D01*
X0433935Y0193135D01*
X0434016Y0193442D01*
X0434104Y0193746D01*
X0434199Y0194048D01*
X0434301Y0194347D01*
X0434411Y0194644D01*
X0434529Y0194938D01*
X0434653Y0195230D01*
X0434784Y0195518D01*
X0434923Y0195803D01*
X0435068Y0196084D01*
X0435220Y0196362D01*
X0435379Y0196636D01*
X0435545Y0196905D01*
X0435717Y0197171D01*
X0435895Y0197433D01*
X0436080Y0197690D01*
X0436271Y0197942D01*
X0436469Y0198190D01*
X0436672Y0198433D01*
X0436881Y0198671D01*
X0437096Y0198903D01*
X0437317Y0199130D01*
X0437542Y0199352D01*
X0437774Y0199569D01*
X0438010Y0199779D01*
X0438252Y0199984D01*
X0438499Y0200182D01*
X0438750Y0200375D01*
X0439006Y0200561D01*
X0439266Y0200741D01*
X0439531Y0200915D01*
X0439800Y0201082D01*
X0440073Y0201243D01*
X0440350Y0201396D01*
X0440630Y0201543D01*
X0440915Y0201684D01*
X0441202Y0201817D01*
X0441492Y0201943D01*
X0441786Y0202061D01*
X0442082Y0202173D01*
X0442381Y0202278D01*
X0442683Y0202375D01*
X0442986Y0202464D01*
X0443292Y0202546D01*
X0443600Y0202621D01*
X0443909Y0202688D01*
X0444220Y0202748D01*
X0444533Y0202800D01*
X0444846Y0202844D01*
X0445161Y0202881D01*
X0445476Y0202909D01*
X0445792Y0202931D01*
X0446108Y0202944D01*
X0446425Y0202950D01*
X0446742Y0202948D01*
X0447058Y0202938D01*
X0447374Y0202920D01*
X0447690Y0202895D01*
X0448005Y0202862D01*
X0448319Y0202822D01*
X0448632Y0202773D01*
X0448944Y0202717D01*
X0449254Y0202654D01*
X0449562Y0202583D01*
X0449869Y0202504D01*
X0450174Y0202418D01*
X0450476Y0202324D01*
X0450777Y0202223D01*
X0451074Y0202115D01*
X0451369Y0202000D01*
X0451661Y0201877D01*
X0451950Y0201747D01*
X0452235Y0201611D01*
X0452518Y0201467D01*
X0452796Y0201316D01*
X0453071Y0201159D01*
X0453342Y0200995D01*
X0453609Y0200824D01*
X0453871Y0200647D01*
X0454129Y0200464D01*
X0454383Y0200274D01*
X0454632Y0200079D01*
X0454876Y0199877D01*
X0455115Y0199669D01*
X0455349Y0199455D01*
X0455577Y0199236D01*
X0455800Y0199011D01*
X0456018Y0198781D01*
X0456230Y0198546D01*
X0456436Y0198306D01*
X0456636Y0198060D01*
X0456830Y0197810D01*
X0456755Y0197754D01*
X0456562Y0198002D01*
X0456363Y0198246D01*
X0456159Y0198484D01*
X0455949Y0198718D01*
X0455733Y0198946D01*
X0455511Y0199169D01*
X0455284Y0199387D01*
X0455052Y0199599D01*
X0454815Y0199805D01*
X0454573Y0200006D01*
X0454325Y0200200D01*
X0454074Y0200388D01*
X0453817Y0200570D01*
X0453557Y0200746D01*
X0453292Y0200915D01*
X0453023Y0201078D01*
X0452750Y0201234D01*
X0452474Y0201384D01*
X0452194Y0201526D01*
X0451910Y0201662D01*
X0451623Y0201791D01*
X0451333Y0201913D01*
X0451041Y0202027D01*
X0450745Y0202135D01*
X0450447Y0202235D01*
X0450147Y0202328D01*
X0449844Y0202413D01*
X0449540Y0202491D01*
X0449234Y0202562D01*
X0448926Y0202625D01*
X0448616Y0202681D01*
X0448306Y0202729D01*
X0447994Y0202769D01*
X0447681Y0202802D01*
X0447368Y0202827D01*
X0447054Y0202844D01*
X0446740Y0202854D01*
X0446425Y0202856D01*
X0446111Y0202850D01*
X0445797Y0202837D01*
X0445483Y0202816D01*
X0445170Y0202787D01*
X0444858Y0202751D01*
X0444547Y0202707D01*
X0444237Y0202655D01*
X0443928Y0202596D01*
X0443621Y0202529D01*
X0443315Y0202455D01*
X0443012Y0202374D01*
X0442710Y0202285D01*
X0442411Y0202188D01*
X0442114Y0202085D01*
X0441820Y0201974D01*
X0441529Y0201856D01*
X0441240Y0201731D01*
X0440955Y0201599D01*
X0440673Y0201460D01*
X0440395Y0201314D01*
X0440120Y0201161D01*
X0439849Y0201002D01*
X0439582Y0200836D01*
X0439319Y0200663D01*
X0439060Y0200485D01*
X0438806Y0200300D01*
X0438557Y0200108D01*
X0438312Y0199911D01*
X0438072Y0199708D01*
X0437837Y0199499D01*
X0437607Y0199284D01*
X0437383Y0199064D01*
X0437164Y0198839D01*
X0436951Y0198608D01*
X0436743Y0198372D01*
X0436541Y0198130D01*
X0436346Y0197885D01*
X0436156Y0197634D01*
X0435972Y0197379D01*
X0435795Y0197119D01*
X0435624Y0196855D01*
X0435460Y0196587D01*
X0435302Y0196315D01*
X0435151Y0196040D01*
X0435007Y0195760D01*
X0434869Y0195478D01*
X0434739Y0195192D01*
X0434615Y0194903D01*
X0434499Y0194610D01*
X0434390Y0194316D01*
X0434288Y0194018D01*
X0434194Y0193719D01*
X0434106Y0193416D01*
X0434026Y0193112D01*
X0433954Y0192807D01*
X0433889Y0192499D01*
X0433832Y0192190D01*
X0433782Y0191879D01*
X0433740Y0191568D01*
X0433705Y0191255D01*
X0433679Y0190942D01*
X0433659Y0190628D01*
X0433648Y0190314D01*
X0433644Y0190000D01*
X0433648Y0189686D01*
X0433659Y0189372D01*
X0433679Y0189058D01*
X0433705Y0188745D01*
X0433740Y0188432D01*
X0433782Y0188121D01*
X0433832Y0187810D01*
X0433889Y0187501D01*
X0433954Y0187193D01*
X0434026Y0186888D01*
X0434106Y0186584D01*
X0434194Y0186281D01*
X0434288Y0185982D01*
X0434390Y0185684D01*
X0434499Y0185390D01*
X0434615Y0185097D01*
X0434739Y0184808D01*
X0434869Y0184522D01*
X0435007Y0184240D01*
X0435151Y0183960D01*
X0435302Y0183685D01*
X0435460Y0183413D01*
X0435624Y0183145D01*
X0435795Y0182881D01*
X0435972Y0182621D01*
X0436156Y0182366D01*
X0436346Y0182115D01*
X0436541Y0181870D01*
X0436743Y0181628D01*
X0436951Y0181392D01*
X0437164Y0181161D01*
X0437383Y0180936D01*
X0437607Y0180716D01*
X0437837Y0180501D01*
X0438072Y0180292D01*
X0438312Y0180089D01*
X0438557Y0179892D01*
X0438806Y0179700D01*
X0439060Y0179515D01*
X0439319Y0179337D01*
X0439582Y0179164D01*
X0439849Y0178998D01*
X0440120Y0178839D01*
X0440395Y0178686D01*
X0440673Y0178540D01*
X0440955Y0178401D01*
X0441240Y0178269D01*
X0441529Y0178144D01*
X0441820Y0178026D01*
X0442114Y0177915D01*
X0442411Y0177812D01*
X0442710Y0177715D01*
X0443012Y0177626D01*
X0443315Y0177545D01*
X0443621Y0177471D01*
X0443928Y0177404D01*
X0444237Y0177345D01*
X0444547Y0177293D01*
X0444858Y0177249D01*
X0445170Y0177213D01*
X0445483Y0177184D01*
X0445797Y0177163D01*
X0446111Y0177150D01*
X0446425Y0177144D01*
X0446740Y0177146D01*
X0447054Y0177156D01*
X0447368Y0177173D01*
X0447681Y0177198D01*
X0447994Y0177231D01*
X0448306Y0177271D01*
X0448616Y0177319D01*
X0448926Y0177375D01*
X0449234Y0177438D01*
X0449540Y0177509D01*
X0449844Y0177587D01*
X0450147Y0177672D01*
X0450447Y0177765D01*
X0450745Y0177865D01*
X0451041Y0177973D01*
X0451333Y0178087D01*
X0451623Y0178209D01*
X0451910Y0178338D01*
X0452194Y0178474D01*
X0452474Y0178616D01*
X0452750Y0178766D01*
X0453023Y0178922D01*
X0453292Y0179085D01*
X0453557Y0179254D01*
X0453817Y0179430D01*
X0454074Y0179612D01*
X0454325Y0179800D01*
X0454573Y0179994D01*
X0454815Y0180195D01*
X0455052Y0180401D01*
X0455284Y0180613D01*
X0455511Y0180831D01*
X0455733Y0181054D01*
X0455949Y0181282D01*
X0456159Y0181516D01*
X0456363Y0181754D01*
X0456562Y0181998D01*
X0456755Y0182246D01*
X0456680Y0182303D01*
X0456488Y0182056D01*
X0456291Y0181814D01*
X0456088Y0181577D01*
X0455879Y0181346D01*
X0455665Y0181119D01*
X0455445Y0180897D01*
X0455220Y0180681D01*
X0454989Y0180471D01*
X0454754Y0180266D01*
X0454513Y0180067D01*
X0454268Y0179874D01*
X0454018Y0179688D01*
X0453764Y0179507D01*
X0453505Y0179332D01*
X0453242Y0179164D01*
X0452975Y0179003D01*
X0452704Y0178848D01*
X0452430Y0178699D01*
X0452152Y0178558D01*
X0451870Y0178423D01*
X0451586Y0178295D01*
X0451298Y0178174D01*
X0451007Y0178060D01*
X0450714Y0177954D01*
X0450418Y0177854D01*
X0450120Y0177762D01*
X0449820Y0177677D01*
X0449517Y0177600D01*
X0449213Y0177530D01*
X0448908Y0177467D01*
X0448601Y0177412D01*
X0448292Y0177364D01*
X0447983Y0177324D01*
X0447672Y0177292D01*
X0447361Y0177267D01*
X0447050Y0177250D01*
X0446738Y0177240D01*
X0446426Y0177238D01*
X0446114Y0177244D01*
X0445802Y0177257D01*
X0445491Y0177278D01*
X0445180Y0177306D01*
X0444870Y0177343D01*
X0444561Y0177386D01*
X0444253Y0177437D01*
X0443946Y0177496D01*
X0443642Y0177562D01*
X0443338Y0177636D01*
X0443037Y0177717D01*
X0442738Y0177805D01*
X0442441Y0177901D01*
X0442146Y0178004D01*
X0441854Y0178114D01*
X0441565Y0178231D01*
X0441278Y0178355D01*
X0440995Y0178486D01*
X0440715Y0178624D01*
X0440439Y0178769D01*
X0440166Y0178921D01*
X0439897Y0179079D01*
X0439632Y0179244D01*
X0439371Y0179415D01*
X0439115Y0179592D01*
X0438862Y0179776D01*
X0438615Y0179966D01*
X0438372Y0180161D01*
X0438133Y0180363D01*
X0437900Y0180571D01*
X0437672Y0180784D01*
X0437450Y0181002D01*
X0437232Y0181226D01*
X0437021Y0181455D01*
X0436815Y0181690D01*
X0436614Y0181929D01*
X0436420Y0182173D01*
X0436232Y0182422D01*
X0436049Y0182675D01*
X0435873Y0182933D01*
X0435704Y0183195D01*
X0435541Y0183461D01*
X0435384Y0183731D01*
X0435234Y0184005D01*
X0435091Y0184282D01*
X0434954Y0184562D01*
X0434825Y0184846D01*
X0434702Y0185133D01*
X0434587Y0185423D01*
X0434479Y0185716D01*
X0434377Y0186011D01*
X0434283Y0186309D01*
X0434197Y0186609D01*
X0434118Y0186910D01*
X0434046Y0187214D01*
X0433981Y0187519D01*
X0433924Y0187826D01*
X0433875Y0188134D01*
X0433833Y0188444D01*
X0433799Y0188754D01*
X0433772Y0189065D01*
X0433753Y0189376D01*
X0433742Y0189688D01*
X0433738Y0190000D01*
X0433742Y0190312D01*
X0433753Y0190624D01*
X0433772Y0190935D01*
X0433799Y0191246D01*
X0433833Y0191556D01*
X0433875Y0191866D01*
X0433924Y0192174D01*
X0433981Y0192481D01*
X0434046Y0192786D01*
X0434118Y0193090D01*
X0434197Y0193391D01*
X0434283Y0193691D01*
X0434377Y0193989D01*
X0434479Y0194284D01*
X0434587Y0194577D01*
X0434702Y0194867D01*
X0434825Y0195154D01*
X0434954Y0195438D01*
X0435091Y0195718D01*
X0435234Y0195995D01*
X0435384Y0196269D01*
X0435541Y0196539D01*
X0435704Y0196805D01*
X0435873Y0197067D01*
X0436049Y0197325D01*
X0436232Y0197578D01*
X0436420Y0197827D01*
X0436614Y0198071D01*
X0436815Y0198310D01*
X0437021Y0198545D01*
X0437232Y0198774D01*
X0437450Y0198998D01*
X0437672Y0199216D01*
X0437900Y0199429D01*
X0438133Y0199637D01*
X0438372Y0199839D01*
X0438615Y0200034D01*
X0438862Y0200224D01*
X0439115Y0200408D01*
X0439371Y0200585D01*
X0439632Y0200756D01*
X0439897Y0200921D01*
X0440166Y0201079D01*
X0440439Y0201231D01*
X0440715Y0201376D01*
X0440995Y0201514D01*
X0441278Y0201645D01*
X0441565Y0201769D01*
X0441854Y0201886D01*
X0442146Y0201996D01*
X0442441Y0202099D01*
X0442738Y0202195D01*
X0443037Y0202283D01*
X0443338Y0202364D01*
X0443642Y0202438D01*
X0443946Y0202504D01*
X0444253Y0202563D01*
X0444561Y0202614D01*
X0444870Y0202657D01*
X0445180Y0202694D01*
X0445491Y0202722D01*
X0445802Y0202743D01*
X0446114Y0202756D01*
X0446426Y0202762D01*
X0446738Y0202760D01*
X0447050Y0202750D01*
X0447361Y0202733D01*
X0447672Y0202708D01*
X0447983Y0202676D01*
X0448292Y0202636D01*
X0448601Y0202588D01*
X0448908Y0202533D01*
X0449213Y0202470D01*
X0449517Y0202400D01*
X0449820Y0202323D01*
X0450120Y0202238D01*
X0450418Y0202146D01*
X0450714Y0202046D01*
X0451007Y0201940D01*
X0451298Y0201826D01*
X0451586Y0201705D01*
X0451870Y0201577D01*
X0452152Y0201442D01*
X0452430Y0201301D01*
X0452704Y0201152D01*
X0452975Y0200997D01*
X0453242Y0200836D01*
X0453505Y0200668D01*
X0453764Y0200493D01*
X0454018Y0200312D01*
X0454268Y0200126D01*
X0454513Y0199933D01*
X0454754Y0199734D01*
X0454989Y0199529D01*
X0455220Y0199319D01*
X0455445Y0199103D01*
X0455665Y0198881D01*
X0455879Y0198654D01*
X0456088Y0198423D01*
X0456291Y0198186D01*
X0456488Y0197944D01*
X0456680Y0197697D01*
X0456604Y0197641D01*
X0456414Y0197886D01*
X0456219Y0198126D01*
X0456017Y0198361D01*
X0455810Y0198591D01*
X0455597Y0198816D01*
X0455379Y0199036D01*
X0455155Y0199250D01*
X0454926Y0199459D01*
X0454693Y0199662D01*
X0454454Y0199860D01*
X0454211Y0200051D01*
X0453962Y0200237D01*
X0453710Y0200416D01*
X0453453Y0200589D01*
X0453192Y0200756D01*
X0452927Y0200917D01*
X0452658Y0201070D01*
X0452386Y0201218D01*
X0452110Y0201358D01*
X0451830Y0201492D01*
X0451548Y0201619D01*
X0451262Y0201739D01*
X0450974Y0201852D01*
X0450683Y0201958D01*
X0450389Y0202056D01*
X0450093Y0202148D01*
X0449795Y0202232D01*
X0449495Y0202309D01*
X0449193Y0202378D01*
X0448890Y0202441D01*
X0448585Y0202495D01*
X0448279Y0202543D01*
X0447971Y0202582D01*
X0447663Y0202614D01*
X0447355Y0202639D01*
X0447045Y0202656D01*
X0446736Y0202666D01*
X0446426Y0202668D01*
X0446116Y0202662D01*
X0445807Y0202649D01*
X0445498Y0202628D01*
X0445189Y0202600D01*
X0444882Y0202564D01*
X0444575Y0202521D01*
X0444269Y0202470D01*
X0443965Y0202412D01*
X0443662Y0202346D01*
X0443361Y0202273D01*
X0443062Y0202193D01*
X0442765Y0202105D01*
X0442470Y0202010D01*
X0442178Y0201908D01*
X0441888Y0201799D01*
X0441601Y0201682D01*
X0441317Y0201559D01*
X0441036Y0201429D01*
X0440758Y0201292D01*
X0440484Y0201148D01*
X0440213Y0200998D01*
X0439946Y0200841D01*
X0439683Y0200677D01*
X0439424Y0200507D01*
X0439169Y0200331D01*
X0438918Y0200149D01*
X0438673Y0199960D01*
X0438431Y0199766D01*
X0438195Y0199566D01*
X0437964Y0199360D01*
X0437737Y0199148D01*
X0437516Y0198931D01*
X0437301Y0198709D01*
X0437090Y0198482D01*
X0436886Y0198249D01*
X0436687Y0198011D01*
X0436494Y0197769D01*
X0436307Y0197522D01*
X0436126Y0197271D01*
X0435952Y0197015D01*
X0435783Y0196755D01*
X0435621Y0196491D01*
X0435466Y0196223D01*
X0435317Y0195951D01*
X0435175Y0195676D01*
X0435039Y0195397D01*
X0434911Y0195116D01*
X0434789Y0194831D01*
X0434675Y0194543D01*
X0434567Y0194252D01*
X0434467Y0193959D01*
X0434373Y0193664D01*
X0434287Y0193366D01*
X0434209Y0193067D01*
X0434138Y0192765D01*
X0434074Y0192462D01*
X0434017Y0192158D01*
X0433968Y0191852D01*
X0433927Y0191545D01*
X0433893Y0191237D01*
X0433866Y0190928D01*
X0433847Y0190619D01*
X0433836Y0190310D01*
X0433832Y0190000D01*
X0433836Y0189690D01*
X0433847Y0189381D01*
X0433866Y0189072D01*
X0433893Y0188763D01*
X0433927Y0188455D01*
X0433968Y0188148D01*
X0434017Y0187842D01*
X0434074Y0187538D01*
X0434138Y0187235D01*
X0434209Y0186933D01*
X0434287Y0186634D01*
X0434373Y0186336D01*
X0434467Y0186041D01*
X0434567Y0185748D01*
X0434675Y0185457D01*
X0434789Y0185169D01*
X0434911Y0184884D01*
X0435039Y0184603D01*
X0435175Y0184324D01*
X0435317Y0184049D01*
X0435466Y0183777D01*
X0435621Y0183509D01*
X0435783Y0183245D01*
X0435952Y0182985D01*
X0436126Y0182729D01*
X0436307Y0182478D01*
X0436494Y0182231D01*
X0436687Y0181989D01*
X0436886Y0181751D01*
X0437090Y0181518D01*
X0437301Y0181291D01*
X0437516Y0181069D01*
X0437737Y0180852D01*
X0437964Y0180640D01*
X0438195Y0180434D01*
X0438431Y0180234D01*
X0438673Y0180040D01*
X0438918Y0179851D01*
X0439169Y0179669D01*
X0439424Y0179493D01*
X0439683Y0179323D01*
X0439946Y0179159D01*
X0440213Y0179002D01*
X0440484Y0178852D01*
X0440758Y0178708D01*
X0441036Y0178571D01*
X0441317Y0178441D01*
X0441601Y0178318D01*
X0441888Y0178201D01*
X0442178Y0178092D01*
X0442470Y0177990D01*
X0442765Y0177895D01*
X0443062Y0177807D01*
X0443361Y0177727D01*
X0443662Y0177654D01*
X0443965Y0177588D01*
X0444269Y0177530D01*
X0444575Y0177479D01*
X0444882Y0177436D01*
X0445189Y0177400D01*
X0445498Y0177372D01*
X0445807Y0177351D01*
X0446116Y0177338D01*
X0446426Y0177332D01*
X0446736Y0177334D01*
X0447045Y0177344D01*
X0447355Y0177361D01*
X0447663Y0177386D01*
X0447971Y0177418D01*
X0448279Y0177457D01*
X0448585Y0177505D01*
X0448890Y0177559D01*
X0449193Y0177622D01*
X0449495Y0177691D01*
X0449795Y0177768D01*
X0450093Y0177852D01*
X0450389Y0177944D01*
X0450683Y0178042D01*
X0450974Y0178148D01*
X0451262Y0178261D01*
X0451548Y0178381D01*
X0451830Y0178508D01*
X0452110Y0178642D01*
X0452386Y0178782D01*
X0452658Y0178930D01*
X0452927Y0179083D01*
X0453192Y0179244D01*
X0453453Y0179411D01*
X0453710Y0179584D01*
X0453962Y0179763D01*
X0454211Y0179949D01*
X0454454Y0180140D01*
X0454693Y0180338D01*
X0454926Y0180541D01*
X0455155Y0180750D01*
X0455379Y0180964D01*
X0455597Y0181184D01*
X0455810Y0181409D01*
X0456017Y0181639D01*
X0456219Y0181874D01*
X0456414Y0182114D01*
X0456604Y0182359D01*
X0456529Y0182416D01*
X0456341Y0182173D01*
X0456146Y0181934D01*
X0455946Y0181701D01*
X0455741Y0181473D01*
X0455529Y0181249D01*
X0455313Y0181031D01*
X0455091Y0180818D01*
X0454864Y0180611D01*
X0454632Y0180409D01*
X0454395Y0180213D01*
X0454153Y0180023D01*
X0453907Y0179839D01*
X0453656Y0179661D01*
X0453401Y0179489D01*
X0453142Y0179324D01*
X0452879Y0179164D01*
X0452612Y0179012D01*
X0452342Y0178865D01*
X0452068Y0178726D01*
X0451791Y0178593D01*
X0451510Y0178467D01*
X0451227Y0178348D01*
X0450940Y0178236D01*
X0450651Y0178131D01*
X0450360Y0178033D01*
X0450066Y0177942D01*
X0449770Y0177859D01*
X0449473Y0177782D01*
X0449173Y0177713D01*
X0448872Y0177652D01*
X0448569Y0177597D01*
X0448265Y0177551D01*
X0447960Y0177511D01*
X0447655Y0177479D01*
X0447348Y0177455D01*
X0447041Y0177438D01*
X0446734Y0177428D01*
X0446426Y0177426D01*
X0446119Y0177432D01*
X0445812Y0177445D01*
X0445505Y0177465D01*
X0445199Y0177494D01*
X0444893Y0177529D01*
X0444589Y0177572D01*
X0444286Y0177623D01*
X0443984Y0177680D01*
X0443683Y0177746D01*
X0443384Y0177818D01*
X0443088Y0177898D01*
X0442793Y0177985D01*
X0442500Y0178079D01*
X0442210Y0178181D01*
X0441922Y0178289D01*
X0441637Y0178404D01*
X0441355Y0178527D01*
X0441076Y0178656D01*
X0440800Y0178792D01*
X0440528Y0178935D01*
X0440259Y0179084D01*
X0439994Y0179240D01*
X0439733Y0179402D01*
X0439476Y0179571D01*
X0439223Y0179746D01*
X0438975Y0179927D01*
X0438731Y0180114D01*
X0438491Y0180307D01*
X0438257Y0180505D01*
X0438027Y0180710D01*
X0437802Y0180920D01*
X0437583Y0181135D01*
X0437369Y0181356D01*
X0437160Y0181581D01*
X0436957Y0181812D01*
X0436760Y0182048D01*
X0436568Y0182289D01*
X0436383Y0182534D01*
X0436203Y0182783D01*
X0436030Y0183037D01*
X0435863Y0183295D01*
X0435702Y0183557D01*
X0435548Y0183823D01*
X0435400Y0184093D01*
X0435259Y0184366D01*
X0435124Y0184643D01*
X0434997Y0184922D01*
X0434876Y0185205D01*
X0434762Y0185491D01*
X0434656Y0185779D01*
X0434556Y0186070D01*
X0434463Y0186363D01*
X0434378Y0186659D01*
X0434300Y0186956D01*
X0434229Y0187255D01*
X0434166Y0187556D01*
X0434110Y0187858D01*
X0434061Y0188162D01*
X0434020Y0188467D01*
X0433986Y0188772D01*
X0433960Y0189078D01*
X0433941Y0189385D01*
X0433930Y0189693D01*
X0433926Y0190000D01*
X0433930Y0190307D01*
X0433941Y0190615D01*
X0433960Y0190922D01*
X0433986Y0191228D01*
X0434020Y0191533D01*
X0434061Y0191838D01*
X0434110Y0192142D01*
X0434166Y0192444D01*
X0434229Y0192745D01*
X0434300Y0193044D01*
X0434378Y0193341D01*
X0434463Y0193637D01*
X0434556Y0193930D01*
X0434656Y0194221D01*
X0434762Y0194509D01*
X0434876Y0194795D01*
X0434997Y0195078D01*
X0435124Y0195357D01*
X0435259Y0195634D01*
X0435400Y0195907D01*
X0435548Y0196177D01*
X0435702Y0196443D01*
X0435863Y0196705D01*
X0436030Y0196963D01*
X0436203Y0197217D01*
X0436383Y0197466D01*
X0436568Y0197711D01*
X0436760Y0197952D01*
X0436957Y0198188D01*
X0437160Y0198419D01*
X0437369Y0198644D01*
X0437583Y0198865D01*
X0437802Y0199080D01*
X0438027Y0199290D01*
X0438257Y0199495D01*
X0438491Y0199693D01*
X0438731Y0199886D01*
X0438975Y0200073D01*
X0439223Y0200254D01*
X0439476Y0200429D01*
X0439733Y0200598D01*
X0439994Y0200760D01*
X0440259Y0200916D01*
X0440528Y0201065D01*
X0440800Y0201208D01*
X0441076Y0201344D01*
X0441355Y0201473D01*
X0441637Y0201596D01*
X0441922Y0201711D01*
X0442210Y0201819D01*
X0442500Y0201921D01*
X0442793Y0202015D01*
X0443088Y0202102D01*
X0443384Y0202182D01*
X0443683Y0202254D01*
X0443984Y0202320D01*
X0444286Y0202377D01*
X0444589Y0202428D01*
X0444893Y0202471D01*
X0445199Y0202506D01*
X0445505Y0202535D01*
X0445812Y0202555D01*
X0446119Y0202568D01*
X0446426Y0202574D01*
X0446734Y0202572D01*
X0447041Y0202562D01*
X0447348Y0202545D01*
X0447655Y0202521D01*
X0447960Y0202489D01*
X0448265Y0202449D01*
X0448569Y0202403D01*
X0448872Y0202348D01*
X0449173Y0202287D01*
X0449473Y0202218D01*
X0449770Y0202141D01*
X0450066Y0202058D01*
X0450360Y0201967D01*
X0450651Y0201869D01*
X0450940Y0201764D01*
X0451227Y0201652D01*
X0451510Y0201533D01*
X0451791Y0201407D01*
X0452068Y0201274D01*
X0452342Y0201135D01*
X0452612Y0200988D01*
X0452879Y0200836D01*
X0453142Y0200676D01*
X0453401Y0200511D01*
X0453656Y0200339D01*
X0453907Y0200161D01*
X0454153Y0199977D01*
X0454395Y0199787D01*
X0454632Y0199591D01*
X0454864Y0199389D01*
X0455091Y0199182D01*
X0455313Y0198969D01*
X0455529Y0198751D01*
X0455741Y0198527D01*
X0455946Y0198299D01*
X0456146Y0198066D01*
X0456341Y0197827D01*
X0456529Y0197584D01*
X0456454Y0197528D01*
X0456267Y0197769D01*
X0456074Y0198006D01*
X0455875Y0198237D01*
X0455671Y0198464D01*
X0455462Y0198686D01*
X0455247Y0198902D01*
X0455026Y0199113D01*
X0454801Y0199319D01*
X0454571Y0199519D01*
X0454335Y0199714D01*
X0454096Y0199902D01*
X0453851Y0200085D01*
X0453602Y0200262D01*
X0453349Y0200432D01*
X0453092Y0200597D01*
X0452831Y0200755D01*
X0452566Y0200906D01*
X0452298Y0201051D01*
X0452026Y0201190D01*
X0451751Y0201322D01*
X0451472Y0201447D01*
X0451191Y0201565D01*
X0450907Y0201676D01*
X0450620Y0201780D01*
X0450331Y0201878D01*
X0450039Y0201968D01*
X0449746Y0202051D01*
X0449450Y0202126D01*
X0449153Y0202195D01*
X0448854Y0202256D01*
X0448553Y0202310D01*
X0448252Y0202356D01*
X0447949Y0202396D01*
X0447646Y0202427D01*
X0447341Y0202452D01*
X0447037Y0202468D01*
X0446732Y0202478D01*
X0446427Y0202480D01*
X0446122Y0202474D01*
X0445817Y0202461D01*
X0445512Y0202441D01*
X0445208Y0202413D01*
X0444905Y0202378D01*
X0444603Y0202335D01*
X0444302Y0202285D01*
X0444002Y0202228D01*
X0443704Y0202163D01*
X0443408Y0202091D01*
X0443113Y0202012D01*
X0442820Y0201925D01*
X0442530Y0201832D01*
X0442242Y0201731D01*
X0441956Y0201623D01*
X0441673Y0201509D01*
X0441393Y0201387D01*
X0441116Y0201259D01*
X0440843Y0201124D01*
X0440573Y0200983D01*
X0440306Y0200834D01*
X0440043Y0200680D01*
X0439784Y0200519D01*
X0439528Y0200351D01*
X0439277Y0200178D01*
X0439031Y0199998D01*
X0438789Y0199812D01*
X0438551Y0199621D01*
X0438318Y0199424D01*
X0438090Y0199221D01*
X0437867Y0199012D01*
X0437649Y0198799D01*
X0437437Y0198580D01*
X0437230Y0198356D01*
X0437028Y0198126D01*
X0436832Y0197892D01*
X0436642Y0197654D01*
X0436458Y0197410D01*
X0436280Y0197163D01*
X0436108Y0196911D01*
X0435942Y0196654D01*
X0435783Y0196394D01*
X0435629Y0196130D01*
X0435483Y0195863D01*
X0435343Y0195592D01*
X0435209Y0195317D01*
X0435083Y0195040D01*
X0434963Y0194759D01*
X0434850Y0194475D01*
X0434744Y0194189D01*
X0434645Y0193901D01*
X0434553Y0193610D01*
X0434469Y0193316D01*
X0434391Y0193021D01*
X0434321Y0192724D01*
X0434258Y0192426D01*
X0434202Y0192126D01*
X0434154Y0191824D01*
X0434113Y0191522D01*
X0434080Y0191219D01*
X0434054Y0190915D01*
X0434035Y0190610D01*
X0434024Y0190305D01*
X0434020Y0190000D01*
X0434024Y0189695D01*
X0434035Y0189390D01*
X0434054Y0189085D01*
X0434080Y0188781D01*
X0434113Y0188478D01*
X0434154Y0188176D01*
X0434202Y0187874D01*
X0434258Y0187574D01*
X0434321Y0187276D01*
X0434391Y0186979D01*
X0434469Y0186684D01*
X0434553Y0186390D01*
X0434645Y0186099D01*
X0434744Y0185811D01*
X0434850Y0185525D01*
X0434963Y0185241D01*
X0435083Y0184960D01*
X0435209Y0184683D01*
X0435343Y0184408D01*
X0435483Y0184137D01*
X0435629Y0183870D01*
X0435783Y0183606D01*
X0435942Y0183346D01*
X0436108Y0183089D01*
X0436280Y0182837D01*
X0436458Y0182590D01*
X0436642Y0182346D01*
X0436832Y0182108D01*
X0437028Y0181874D01*
X0437230Y0181644D01*
X0437437Y0181420D01*
X0437649Y0181201D01*
X0437867Y0180988D01*
X0438090Y0180779D01*
X0438318Y0180576D01*
X0438551Y0180379D01*
X0438789Y0180188D01*
X0439031Y0180002D01*
X0439277Y0179822D01*
X0439528Y0179649D01*
X0439784Y0179481D01*
X0440043Y0179320D01*
X0440306Y0179166D01*
X0440573Y0179017D01*
X0440843Y0178876D01*
X0441116Y0178741D01*
X0441393Y0178613D01*
X0441673Y0178491D01*
X0441956Y0178377D01*
X0442242Y0178269D01*
X0442530Y0178168D01*
X0442820Y0178075D01*
X0443113Y0177988D01*
X0443408Y0177909D01*
X0443704Y0177837D01*
X0444002Y0177772D01*
X0444302Y0177715D01*
X0444603Y0177665D01*
X0444905Y0177622D01*
X0445208Y0177587D01*
X0445512Y0177559D01*
X0445817Y0177539D01*
X0446122Y0177526D01*
X0446427Y0177520D01*
X0446732Y0177522D01*
X0447037Y0177532D01*
X0447341Y0177548D01*
X0447646Y0177573D01*
X0447949Y0177604D01*
X0448252Y0177644D01*
X0448553Y0177690D01*
X0448854Y0177744D01*
X0449153Y0177805D01*
X0449450Y0177874D01*
X0449746Y0177949D01*
X0450039Y0178032D01*
X0450331Y0178122D01*
X0450620Y0178220D01*
X0450907Y0178324D01*
X0451191Y0178435D01*
X0451472Y0178553D01*
X0451751Y0178678D01*
X0452026Y0178810D01*
X0452298Y0178949D01*
X0452566Y0179094D01*
X0452831Y0179245D01*
X0453092Y0179403D01*
X0453349Y0179568D01*
X0453602Y0179738D01*
X0453851Y0179915D01*
X0454096Y0180098D01*
X0454335Y0180286D01*
X0454571Y0180481D01*
X0454801Y0180681D01*
X0455026Y0180887D01*
X0455247Y0181098D01*
X0455462Y0181314D01*
X0455671Y0181536D01*
X0455875Y0181763D01*
X0456074Y0181994D01*
X0456267Y0182231D01*
X0456454Y0182472D01*
X0456379Y0182528D01*
X0456193Y0182289D01*
X0456002Y0182054D01*
X0455805Y0181825D01*
X0455602Y0181600D01*
X0455394Y0181379D01*
X0455180Y0181165D01*
X0454962Y0180955D01*
X0454738Y0180751D01*
X0454510Y0180552D01*
X0454276Y0180359D01*
X0454038Y0180172D01*
X0453796Y0179991D01*
X0453549Y0179815D01*
X0453298Y0179646D01*
X0453042Y0179483D01*
X0452783Y0179326D01*
X0452520Y0179176D01*
X0452254Y0179032D01*
X0451984Y0178894D01*
X0451711Y0178763D01*
X0451435Y0178639D01*
X0451155Y0178522D01*
X0450873Y0178412D01*
X0450589Y0178308D01*
X0450302Y0178212D01*
X0450012Y0178122D01*
X0449721Y0178040D01*
X0449428Y0177965D01*
X0449132Y0177897D01*
X0448836Y0177836D01*
X0448538Y0177783D01*
X0448238Y0177737D01*
X0447938Y0177698D01*
X0447637Y0177666D01*
X0447335Y0177642D01*
X0447032Y0177625D01*
X0446730Y0177616D01*
X0446427Y0177614D01*
X0446124Y0177620D01*
X0445822Y0177633D01*
X0445519Y0177653D01*
X0445218Y0177681D01*
X0444917Y0177716D01*
X0444617Y0177758D01*
X0444318Y0177808D01*
X0444021Y0177865D01*
X0443725Y0177929D01*
X0443431Y0178000D01*
X0443138Y0178079D01*
X0442848Y0178165D01*
X0442559Y0178258D01*
X0442274Y0178357D01*
X0441990Y0178464D01*
X0441710Y0178578D01*
X0441432Y0178698D01*
X0441157Y0178826D01*
X0440885Y0178960D01*
X0440617Y0179100D01*
X0440352Y0179247D01*
X0440091Y0179401D01*
X0439834Y0179561D01*
X0439581Y0179727D01*
X0439332Y0179899D01*
X0439087Y0180077D01*
X0438846Y0180262D01*
X0438611Y0180452D01*
X0438380Y0180647D01*
X0438153Y0180849D01*
X0437932Y0181055D01*
X0437716Y0181268D01*
X0437505Y0181485D01*
X0437300Y0181707D01*
X0437100Y0181935D01*
X0436905Y0182167D01*
X0436717Y0182404D01*
X0436534Y0182646D01*
X0436357Y0182891D01*
X0436186Y0183142D01*
X0436022Y0183396D01*
X0435863Y0183654D01*
X0435711Y0183916D01*
X0435566Y0184181D01*
X0435427Y0184450D01*
X0435294Y0184723D01*
X0435169Y0184998D01*
X0435050Y0185277D01*
X0434938Y0185558D01*
X0434833Y0185842D01*
X0434734Y0186129D01*
X0434643Y0186418D01*
X0434559Y0186709D01*
X0434482Y0187002D01*
X0434413Y0187296D01*
X0434350Y0187593D01*
X0434295Y0187890D01*
X0434247Y0188189D01*
X0434206Y0188489D01*
X0434173Y0188791D01*
X0434147Y0189092D01*
X0434129Y0189395D01*
X0434118Y0189697D01*
X0434114Y0190000D01*
X0434118Y0190303D01*
X0434129Y0190605D01*
X0434147Y0190908D01*
X0434173Y0191209D01*
X0434206Y0191511D01*
X0434247Y0191811D01*
X0434295Y0192110D01*
X0434350Y0192407D01*
X0434413Y0192704D01*
X0434482Y0192998D01*
X0434559Y0193291D01*
X0434643Y0193582D01*
X0434734Y0193871D01*
X0434833Y0194158D01*
X0434938Y0194442D01*
X0435050Y0194723D01*
X0435169Y0195002D01*
X0435294Y0195277D01*
X0435427Y0195550D01*
X0435566Y0195819D01*
X0435711Y0196084D01*
X0435863Y0196346D01*
X0436022Y0196604D01*
X0436186Y0196858D01*
X0436357Y0197109D01*
X0436534Y0197354D01*
X0436717Y0197596D01*
X0436905Y0197833D01*
X0437100Y0198065D01*
X0437300Y0198293D01*
X0437505Y0198515D01*
X0437716Y0198732D01*
X0437932Y0198945D01*
X0438153Y0199151D01*
X0438380Y0199353D01*
X0438611Y0199548D01*
X0438846Y0199738D01*
X0439087Y0199923D01*
X0439332Y0200101D01*
X0439581Y0200273D01*
X0439834Y0200439D01*
X0440091Y0200599D01*
X0440352Y0200753D01*
X0440617Y0200900D01*
X0440885Y0201040D01*
X0441157Y0201174D01*
X0441432Y0201302D01*
X0441710Y0201422D01*
X0441990Y0201536D01*
X0442274Y0201643D01*
X0442559Y0201742D01*
X0442848Y0201835D01*
X0443138Y0201921D01*
X0443431Y0202000D01*
X0443725Y0202071D01*
X0444021Y0202135D01*
X0444318Y0202192D01*
X0444617Y0202242D01*
X0444917Y0202284D01*
X0445218Y0202319D01*
X0445519Y0202347D01*
X0445822Y0202367D01*
X0446124Y0202380D01*
X0446427Y0202386D01*
X0446730Y0202384D01*
X0447032Y0202375D01*
X0447335Y0202358D01*
X0447637Y0202334D01*
X0447938Y0202302D01*
X0448238Y0202263D01*
X0448538Y0202217D01*
X0448836Y0202164D01*
X0449132Y0202103D01*
X0449428Y0202035D01*
X0449721Y0201960D01*
X0450012Y0201878D01*
X0450302Y0201788D01*
X0450589Y0201692D01*
X0450873Y0201588D01*
X0451155Y0201478D01*
X0451435Y0201361D01*
X0451711Y0201237D01*
X0451984Y0201106D01*
X0452254Y0200968D01*
X0452520Y0200824D01*
X0452783Y0200674D01*
X0453042Y0200517D01*
X0453298Y0200354D01*
X0453549Y0200185D01*
X0453796Y0200009D01*
X0454038Y0199828D01*
X0454276Y0199641D01*
X0454510Y0199448D01*
X0454738Y0199249D01*
X0454962Y0199045D01*
X0455180Y0198835D01*
X0455394Y0198621D01*
X0455602Y0198400D01*
X0455805Y0198175D01*
X0456002Y0197946D01*
X0456193Y0197711D01*
X0456379Y0197472D01*
X0456304Y0197415D01*
X0456119Y0197653D01*
X0455929Y0197885D01*
X0455734Y0198114D01*
X0455533Y0198337D01*
X0455326Y0198555D01*
X0455114Y0198769D01*
X0454897Y0198977D01*
X0454675Y0199179D01*
X0454448Y0199376D01*
X0454217Y0199568D01*
X0453981Y0199754D01*
X0453740Y0199934D01*
X0453495Y0200108D01*
X0453246Y0200276D01*
X0452992Y0200438D01*
X0452735Y0200593D01*
X0452474Y0200742D01*
X0452210Y0200885D01*
X0451942Y0201022D01*
X0451671Y0201151D01*
X0451397Y0201274D01*
X0451120Y0201391D01*
X0450840Y0201500D01*
X0450557Y0201603D01*
X0450273Y0201699D01*
X0449985Y0201787D01*
X0449696Y0201869D01*
X0449405Y0201944D01*
X0449112Y0202011D01*
X0448818Y0202072D01*
X0448522Y0202125D01*
X0448225Y0202170D01*
X0447927Y0202209D01*
X0447628Y0202240D01*
X0447328Y0202264D01*
X0447028Y0202281D01*
X0446728Y0202290D01*
X0446427Y0202292D01*
X0446127Y0202286D01*
X0445826Y0202274D01*
X0445527Y0202253D01*
X0445227Y0202226D01*
X0444929Y0202191D01*
X0444631Y0202149D01*
X0444335Y0202100D01*
X0444040Y0202043D01*
X0443746Y0201979D01*
X0443454Y0201909D01*
X0443164Y0201831D01*
X0442875Y0201745D01*
X0442589Y0201653D01*
X0442305Y0201554D01*
X0442024Y0201448D01*
X0441746Y0201335D01*
X0441470Y0201216D01*
X0441197Y0201089D01*
X0440928Y0200956D01*
X0440662Y0200817D01*
X0440399Y0200671D01*
X0440140Y0200519D01*
X0439884Y0200360D01*
X0439633Y0200195D01*
X0439386Y0200024D01*
X0439143Y0199847D01*
X0438904Y0199664D01*
X0438670Y0199476D01*
X0438441Y0199282D01*
X0438217Y0199082D01*
X0437997Y0198877D01*
X0437783Y0198666D01*
X0437573Y0198450D01*
X0437369Y0198230D01*
X0437171Y0198004D01*
X0436978Y0197773D01*
X0436791Y0197538D01*
X0436609Y0197299D01*
X0436434Y0197055D01*
X0436264Y0196806D01*
X0436101Y0196554D01*
X0435944Y0196298D01*
X0435793Y0196038D01*
X0435649Y0195774D01*
X0435511Y0195507D01*
X0435379Y0195237D01*
X0435255Y0194964D01*
X0435137Y0194687D01*
X0435026Y0194408D01*
X0434921Y0194126D01*
X0434824Y0193842D01*
X0434733Y0193555D01*
X0434650Y0193266D01*
X0434574Y0192976D01*
X0434504Y0192683D01*
X0434442Y0192389D01*
X0434388Y0192094D01*
X0434340Y0191797D01*
X0434300Y0191499D01*
X0434267Y0191200D01*
X0434241Y0190901D01*
X0434223Y0190601D01*
X0434212Y0190301D01*
X0434208Y0190000D01*
X0434212Y0189699D01*
X0434223Y0189399D01*
X0434241Y0189099D01*
X0434267Y0188800D01*
X0434300Y0188501D01*
X0434340Y0188203D01*
X0434388Y0187906D01*
X0434442Y0187611D01*
X0434504Y0187317D01*
X0434574Y0187024D01*
X0434650Y0186734D01*
X0434733Y0186445D01*
X0434824Y0186158D01*
X0434921Y0185874D01*
X0435026Y0185592D01*
X0435137Y0185313D01*
X0435255Y0185036D01*
X0435379Y0184763D01*
X0435511Y0184493D01*
X0435649Y0184226D01*
X0435793Y0183962D01*
X0435944Y0183702D01*
X0436101Y0183446D01*
X0436264Y0183194D01*
X0436434Y0182945D01*
X0436609Y0182701D01*
X0436791Y0182462D01*
X0436978Y0182227D01*
X0437171Y0181996D01*
X0437369Y0181770D01*
X0437573Y0181550D01*
X0437783Y0181334D01*
X0437997Y0181123D01*
X0438217Y0180918D01*
X0438441Y0180718D01*
X0438670Y0180524D01*
X0438904Y0180336D01*
X0439143Y0180153D01*
X0439386Y0179976D01*
X0439633Y0179805D01*
X0439884Y0179640D01*
X0440140Y0179481D01*
X0440399Y0179329D01*
X0440662Y0179183D01*
X0440928Y0179044D01*
X0441197Y0178911D01*
X0441470Y0178784D01*
X0441746Y0178665D01*
X0442024Y0178552D01*
X0442305Y0178446D01*
X0442589Y0178347D01*
X0442875Y0178255D01*
X0443164Y0178169D01*
X0443454Y0178091D01*
X0443746Y0178021D01*
X0444040Y0177957D01*
X0444335Y0177900D01*
X0444631Y0177851D01*
X0444929Y0177809D01*
X0445227Y0177774D01*
X0445527Y0177747D01*
X0445826Y0177726D01*
X0446127Y0177714D01*
X0446427Y0177708D01*
X0446728Y0177710D01*
X0447028Y0177719D01*
X0447328Y0177736D01*
X0447628Y0177760D01*
X0447927Y0177791D01*
X0448225Y0177830D01*
X0448522Y0177875D01*
X0448818Y0177928D01*
X0449112Y0177989D01*
X0449405Y0178056D01*
X0449696Y0178131D01*
X0449985Y0178213D01*
X0450273Y0178301D01*
X0450557Y0178397D01*
X0450840Y0178500D01*
X0451120Y0178609D01*
X0451397Y0178726D01*
X0451671Y0178849D01*
X0451942Y0178978D01*
X0452210Y0179115D01*
X0452474Y0179258D01*
X0452735Y0179407D01*
X0452992Y0179562D01*
X0453246Y0179724D01*
X0453495Y0179892D01*
X0453740Y0180066D01*
X0453981Y0180246D01*
X0454217Y0180432D01*
X0454448Y0180624D01*
X0454675Y0180821D01*
X0454897Y0181023D01*
X0455114Y0181231D01*
X0455326Y0181445D01*
X0455533Y0181663D01*
X0455734Y0181886D01*
X0455929Y0182115D01*
X0456119Y0182347D01*
X0456304Y0182585D01*
X0456228Y0182641D01*
X0456046Y0182406D01*
X0455857Y0182175D01*
X0455663Y0181948D01*
X0455463Y0181726D01*
X0455258Y0181510D01*
X0455048Y0181298D01*
X0454833Y0181092D01*
X0454613Y0180891D01*
X0454387Y0180695D01*
X0454158Y0180505D01*
X0453923Y0180321D01*
X0453684Y0180142D01*
X0453441Y0179969D01*
X0453194Y0179803D01*
X0452942Y0179642D01*
X0452687Y0179488D01*
X0452428Y0179340D01*
X0452166Y0179198D01*
X0451900Y0179063D01*
X0451631Y0178934D01*
X0451359Y0178812D01*
X0451084Y0178696D01*
X0450806Y0178587D01*
X0450526Y0178486D01*
X0450243Y0178391D01*
X0449958Y0178303D01*
X0449671Y0178222D01*
X0449383Y0178147D01*
X0449092Y0178081D01*
X0448800Y0178021D01*
X0448506Y0177968D01*
X0448211Y0177923D01*
X0447916Y0177884D01*
X0447619Y0177853D01*
X0447322Y0177830D01*
X0447024Y0177813D01*
X0446726Y0177804D01*
X0446428Y0177802D01*
X0446129Y0177808D01*
X0445831Y0177820D01*
X0445534Y0177840D01*
X0445237Y0177868D01*
X0444941Y0177902D01*
X0444645Y0177944D01*
X0444351Y0177993D01*
X0444058Y0178049D01*
X0443767Y0178112D01*
X0443477Y0178183D01*
X0443189Y0178260D01*
X0442903Y0178344D01*
X0442619Y0178436D01*
X0442337Y0178534D01*
X0442058Y0178639D01*
X0441782Y0178751D01*
X0441508Y0178870D01*
X0441238Y0178995D01*
X0440970Y0179127D01*
X0440706Y0179266D01*
X0440445Y0179411D01*
X0440188Y0179562D01*
X0439935Y0179719D01*
X0439686Y0179883D01*
X0439440Y0180053D01*
X0439199Y0180228D01*
X0438962Y0180410D01*
X0438730Y0180597D01*
X0438503Y0180789D01*
X0438280Y0180988D01*
X0438062Y0181191D01*
X0437849Y0181400D01*
X0437641Y0181614D01*
X0437439Y0181834D01*
X0437242Y0182057D01*
X0437051Y0182286D01*
X0436865Y0182520D01*
X0436685Y0182757D01*
X0436511Y0182999D01*
X0436343Y0183246D01*
X0436181Y0183496D01*
X0436025Y0183750D01*
X0435875Y0184008D01*
X0435732Y0184270D01*
X0435595Y0184535D01*
X0435464Y0184803D01*
X0435341Y0185074D01*
X0435224Y0185349D01*
X0435113Y0185626D01*
X0435010Y0185906D01*
X0434913Y0186188D01*
X0434823Y0186472D01*
X0434741Y0186759D01*
X0434665Y0187047D01*
X0434596Y0187337D01*
X0434535Y0187629D01*
X0434480Y0187922D01*
X0434433Y0188217D01*
X0434393Y0188512D01*
X0434360Y0188809D01*
X0434335Y0189106D01*
X0434317Y0189404D01*
X0434306Y0189702D01*
X0434302Y0190000D01*
X0434306Y0190298D01*
X0434317Y0190596D01*
X0434335Y0190894D01*
X0434360Y0191191D01*
X0434393Y0191488D01*
X0434433Y0191783D01*
X0434480Y0192078D01*
X0434535Y0192371D01*
X0434596Y0192663D01*
X0434665Y0192953D01*
X0434741Y0193241D01*
X0434823Y0193528D01*
X0434913Y0193812D01*
X0435010Y0194094D01*
X0435113Y0194374D01*
X0435224Y0194651D01*
X0435341Y0194926D01*
X0435464Y0195197D01*
X0435595Y0195465D01*
X0435732Y0195730D01*
X0435875Y0195992D01*
X0436025Y0196250D01*
X0436181Y0196504D01*
X0436343Y0196754D01*
X0436511Y0197001D01*
X0436685Y0197243D01*
X0436865Y0197480D01*
X0437051Y0197714D01*
X0437242Y0197943D01*
X0437439Y0198166D01*
X0437641Y0198386D01*
X0437849Y0198600D01*
X0438062Y0198809D01*
X0438280Y0199012D01*
X0438503Y0199211D01*
X0438730Y0199403D01*
X0438962Y0199590D01*
X0439199Y0199772D01*
X0439440Y0199947D01*
X0439686Y0200117D01*
X0439935Y0200281D01*
X0440188Y0200438D01*
X0440445Y0200589D01*
X0440706Y0200734D01*
X0440970Y0200873D01*
X0441238Y0201005D01*
X0441508Y0201130D01*
X0441782Y0201249D01*
X0442058Y0201361D01*
X0442337Y0201466D01*
X0442619Y0201564D01*
X0442903Y0201656D01*
X0443189Y0201740D01*
X0443477Y0201817D01*
X0443767Y0201888D01*
X0444058Y0201951D01*
X0444351Y0202007D01*
X0444645Y0202056D01*
X0444941Y0202098D01*
X0445237Y0202132D01*
X0445534Y0202160D01*
X0445831Y0202180D01*
X0446129Y0202192D01*
X0446428Y0202198D01*
X0446726Y0202196D01*
X0447024Y0202187D01*
X0447322Y0202170D01*
X0447619Y0202147D01*
X0447916Y0202116D01*
X0448211Y0202077D01*
X0448506Y0202032D01*
X0448800Y0201979D01*
X0449092Y0201919D01*
X0449383Y0201853D01*
X0449671Y0201778D01*
X0449958Y0201697D01*
X0450243Y0201609D01*
X0450526Y0201514D01*
X0450806Y0201413D01*
X0451084Y0201304D01*
X0451359Y0201188D01*
X0451631Y0201066D01*
X0451900Y0200937D01*
X0452166Y0200802D01*
X0452428Y0200660D01*
X0452687Y0200512D01*
X0452942Y0200358D01*
X0453194Y0200197D01*
X0453441Y0200031D01*
X0453684Y0199858D01*
X0453923Y0199679D01*
X0454158Y0199495D01*
X0454387Y0199305D01*
X0454613Y0199109D01*
X0454833Y0198908D01*
X0455048Y0198702D01*
X0455258Y0198490D01*
X0455463Y0198274D01*
X0455663Y0198052D01*
X0455857Y0197825D01*
X0456046Y0197594D01*
X0456228Y0197359D01*
X0456153Y0197302D01*
X0455972Y0197536D01*
X0455785Y0197765D01*
X0455592Y0197990D01*
X0455394Y0198210D01*
X0455191Y0198425D01*
X0454982Y0198635D01*
X0454768Y0198840D01*
X0454550Y0199039D01*
X0454326Y0199233D01*
X0454098Y0199422D01*
X0453866Y0199605D01*
X0453629Y0199782D01*
X0453387Y0199953D01*
X0453142Y0200119D01*
X0452893Y0200278D01*
X0452639Y0200431D01*
X0452383Y0200578D01*
X0452122Y0200719D01*
X0451858Y0200853D01*
X0451591Y0200981D01*
X0451321Y0201102D01*
X0451049Y0201217D01*
X0450773Y0201325D01*
X0450495Y0201426D01*
X0450214Y0201520D01*
X0449932Y0201607D01*
X0449647Y0201688D01*
X0449360Y0201761D01*
X0449072Y0201828D01*
X0448782Y0201887D01*
X0448490Y0201939D01*
X0448198Y0201984D01*
X0447904Y0202022D01*
X0447610Y0202053D01*
X0447315Y0202077D01*
X0447020Y0202093D01*
X0446724Y0202102D01*
X0446428Y0202104D01*
X0446132Y0202098D01*
X0445836Y0202086D01*
X0445541Y0202066D01*
X0445246Y0202039D01*
X0444952Y0202005D01*
X0444659Y0201963D01*
X0444367Y0201915D01*
X0444077Y0201859D01*
X0443788Y0201796D01*
X0443500Y0201726D01*
X0443214Y0201649D01*
X0442930Y0201566D01*
X0442649Y0201475D01*
X0442369Y0201377D01*
X0442092Y0201273D01*
X0441818Y0201162D01*
X0441547Y0201044D01*
X0441278Y0200920D01*
X0441013Y0200789D01*
X0440751Y0200651D01*
X0440492Y0200508D01*
X0440237Y0200358D01*
X0439985Y0200201D01*
X0439738Y0200039D01*
X0439495Y0199871D01*
X0439255Y0199696D01*
X0439020Y0199516D01*
X0438790Y0199331D01*
X0438564Y0199139D01*
X0438343Y0198943D01*
X0438127Y0198741D01*
X0437916Y0198533D01*
X0437710Y0198321D01*
X0437509Y0198103D01*
X0437313Y0197881D01*
X0437123Y0197654D01*
X0436939Y0197423D01*
X0436761Y0197187D01*
X0436588Y0196947D01*
X0436421Y0196702D01*
X0436260Y0196454D01*
X0436105Y0196201D01*
X0435957Y0195945D01*
X0435815Y0195686D01*
X0435679Y0195423D01*
X0435549Y0195157D01*
X0435427Y0194888D01*
X0435310Y0194615D01*
X0435201Y0194340D01*
X0435098Y0194063D01*
X0435002Y0193783D01*
X0434913Y0193501D01*
X0434831Y0193216D01*
X0434756Y0192930D01*
X0434688Y0192642D01*
X0434627Y0192353D01*
X0434573Y0192062D01*
X0434526Y0191769D01*
X0434486Y0191476D01*
X0434454Y0191182D01*
X0434429Y0190887D01*
X0434410Y0190592D01*
X0434400Y0190296D01*
X0434396Y0190000D01*
X0434400Y0189704D01*
X0434410Y0189408D01*
X0434429Y0189113D01*
X0434454Y0188818D01*
X0434486Y0188524D01*
X0434526Y0188231D01*
X0434573Y0187938D01*
X0434627Y0187647D01*
X0434688Y0187358D01*
X0434756Y0187070D01*
X0434831Y0186784D01*
X0434913Y0186499D01*
X0435002Y0186217D01*
X0435098Y0185937D01*
X0435201Y0185660D01*
X0435310Y0185385D01*
X0435427Y0185112D01*
X0435549Y0184843D01*
X0435679Y0184577D01*
X0435815Y0184314D01*
X0435957Y0184055D01*
X0436105Y0183799D01*
X0436260Y0183546D01*
X0436421Y0183298D01*
X0436588Y0183053D01*
X0436761Y0182813D01*
X0436939Y0182577D01*
X0437123Y0182346D01*
X0437313Y0182119D01*
X0437509Y0181897D01*
X0437710Y0181679D01*
X0437916Y0181467D01*
X0438127Y0181259D01*
X0438343Y0181057D01*
X0438564Y0180861D01*
X0438790Y0180669D01*
X0439020Y0180484D01*
X0439255Y0180304D01*
X0439495Y0180129D01*
X0439738Y0179961D01*
X0439985Y0179799D01*
X0440237Y0179642D01*
X0440492Y0179492D01*
X0440751Y0179349D01*
X0441013Y0179211D01*
X0441278Y0179080D01*
X0441547Y0178956D01*
X0441818Y0178838D01*
X0442092Y0178727D01*
X0442369Y0178623D01*
X0442649Y0178525D01*
X0442930Y0178434D01*
X0443214Y0178351D01*
X0443500Y0178274D01*
X0443788Y0178204D01*
X0444077Y0178141D01*
X0444367Y0178085D01*
X0444659Y0178037D01*
X0444952Y0177995D01*
X0445246Y0177961D01*
X0445541Y0177934D01*
X0445836Y0177914D01*
X0446132Y0177902D01*
X0446428Y0177896D01*
X0446724Y0177898D01*
X0447020Y0177907D01*
X0447315Y0177923D01*
X0447610Y0177947D01*
X0447904Y0177978D01*
X0448198Y0178016D01*
X0448490Y0178061D01*
X0448782Y0178113D01*
X0449072Y0178172D01*
X0449360Y0178239D01*
X0449647Y0178312D01*
X0449932Y0178393D01*
X0450214Y0178480D01*
X0450495Y0178574D01*
X0450773Y0178675D01*
X0451049Y0178783D01*
X0451321Y0178898D01*
X0451591Y0179019D01*
X0451858Y0179147D01*
X0452122Y0179281D01*
X0452383Y0179422D01*
X0452639Y0179569D01*
X0452893Y0179722D01*
X0453142Y0179881D01*
X0453387Y0180047D01*
X0453629Y0180218D01*
X0453866Y0180395D01*
X0454098Y0180578D01*
X0454326Y0180767D01*
X0454550Y0180961D01*
X0454768Y0181160D01*
X0454982Y0181365D01*
X0455191Y0181575D01*
X0455394Y0181790D01*
X0455592Y0182010D01*
X0455785Y0182235D01*
X0455972Y0182464D01*
X0456153Y0182698D01*
D18*
X0454500Y0337500D02*
X0418500Y0337500D01*
X0418500Y0370000D01*
X0454500Y0370000D01*
X0454500Y0337500D01*
D19*
X0446500Y0333250D03*
X0436500Y0333250D03*
X0426500Y0333250D03*
D20*
X0254453Y0080000D02*
X0254455Y0080105D01*
X0254461Y0080210D01*
X0254471Y0080314D01*
X0254485Y0080418D01*
X0254503Y0080522D01*
X0254525Y0080624D01*
X0254550Y0080726D01*
X0254580Y0080827D01*
X0254613Y0080926D01*
X0254650Y0081024D01*
X0254691Y0081121D01*
X0254736Y0081216D01*
X0254784Y0081309D01*
X0254835Y0081401D01*
X0254891Y0081490D01*
X0254949Y0081577D01*
X0255011Y0081662D01*
X0255075Y0081745D01*
X0255143Y0081825D01*
X0255214Y0081902D01*
X0255288Y0081976D01*
X0255365Y0082048D01*
X0255444Y0082117D01*
X0255526Y0082182D01*
X0255610Y0082245D01*
X0255697Y0082304D01*
X0255786Y0082360D01*
X0255877Y0082413D01*
X0255970Y0082462D01*
X0256064Y0082507D01*
X0256160Y0082549D01*
X0256258Y0082587D01*
X0256357Y0082621D01*
X0256458Y0082652D01*
X0256559Y0082678D01*
X0256662Y0082701D01*
X0256765Y0082720D01*
X0256869Y0082735D01*
X0256973Y0082746D01*
X0257078Y0082753D01*
X0257183Y0082756D01*
X0257288Y0082755D01*
X0257393Y0082750D01*
X0257497Y0082741D01*
X0257601Y0082728D01*
X0257705Y0082711D01*
X0257808Y0082690D01*
X0257910Y0082665D01*
X0258011Y0082637D01*
X0258110Y0082604D01*
X0258209Y0082568D01*
X0258306Y0082528D01*
X0258401Y0082485D01*
X0258495Y0082437D01*
X0258587Y0082387D01*
X0258677Y0082333D01*
X0258765Y0082275D01*
X0258850Y0082214D01*
X0258933Y0082150D01*
X0259014Y0082083D01*
X0259092Y0082013D01*
X0259167Y0081939D01*
X0259239Y0081864D01*
X0259309Y0081785D01*
X0259375Y0081704D01*
X0259439Y0081620D01*
X0259499Y0081534D01*
X0259555Y0081446D01*
X0259609Y0081355D01*
X0259659Y0081263D01*
X0259705Y0081169D01*
X0259748Y0081073D01*
X0259787Y0080975D01*
X0259822Y0080877D01*
X0259853Y0080776D01*
X0259881Y0080675D01*
X0259905Y0080573D01*
X0259925Y0080470D01*
X0259941Y0080366D01*
X0259953Y0080262D01*
X0259961Y0080157D01*
X0259965Y0080052D01*
X0259965Y0079948D01*
X0259961Y0079843D01*
X0259953Y0079738D01*
X0259941Y0079634D01*
X0259925Y0079530D01*
X0259905Y0079427D01*
X0259881Y0079325D01*
X0259853Y0079224D01*
X0259822Y0079123D01*
X0259787Y0079025D01*
X0259748Y0078927D01*
X0259705Y0078831D01*
X0259659Y0078737D01*
X0259609Y0078645D01*
X0259555Y0078554D01*
X0259499Y0078466D01*
X0259439Y0078380D01*
X0259375Y0078296D01*
X0259309Y0078215D01*
X0259239Y0078136D01*
X0259167Y0078061D01*
X0259092Y0077987D01*
X0259014Y0077917D01*
X0258933Y0077850D01*
X0258850Y0077786D01*
X0258765Y0077725D01*
X0258677Y0077667D01*
X0258587Y0077613D01*
X0258495Y0077563D01*
X0258401Y0077515D01*
X0258306Y0077472D01*
X0258209Y0077432D01*
X0258110Y0077396D01*
X0258011Y0077363D01*
X0257910Y0077335D01*
X0257808Y0077310D01*
X0257705Y0077289D01*
X0257601Y0077272D01*
X0257497Y0077259D01*
X0257393Y0077250D01*
X0257288Y0077245D01*
X0257183Y0077244D01*
X0257078Y0077247D01*
X0256973Y0077254D01*
X0256869Y0077265D01*
X0256765Y0077280D01*
X0256662Y0077299D01*
X0256559Y0077322D01*
X0256458Y0077348D01*
X0256357Y0077379D01*
X0256258Y0077413D01*
X0256160Y0077451D01*
X0256064Y0077493D01*
X0255970Y0077538D01*
X0255877Y0077587D01*
X0255786Y0077640D01*
X0255697Y0077696D01*
X0255610Y0077755D01*
X0255526Y0077818D01*
X0255444Y0077883D01*
X0255365Y0077952D01*
X0255288Y0078024D01*
X0255214Y0078098D01*
X0255143Y0078175D01*
X0255075Y0078255D01*
X0255011Y0078338D01*
X0254949Y0078423D01*
X0254891Y0078510D01*
X0254835Y0078599D01*
X0254784Y0078691D01*
X0254736Y0078784D01*
X0254691Y0078879D01*
X0254650Y0078976D01*
X0254613Y0079074D01*
X0254580Y0079173D01*
X0254550Y0079274D01*
X0254525Y0079376D01*
X0254503Y0079478D01*
X0254485Y0079582D01*
X0254471Y0079686D01*
X0254461Y0079790D01*
X0254455Y0079895D01*
X0254453Y0080000D01*
X0093035Y0080000D02*
X0093037Y0080105D01*
X0093043Y0080210D01*
X0093053Y0080314D01*
X0093067Y0080418D01*
X0093085Y0080522D01*
X0093107Y0080624D01*
X0093132Y0080726D01*
X0093162Y0080827D01*
X0093195Y0080926D01*
X0093232Y0081024D01*
X0093273Y0081121D01*
X0093318Y0081216D01*
X0093366Y0081309D01*
X0093417Y0081401D01*
X0093473Y0081490D01*
X0093531Y0081577D01*
X0093593Y0081662D01*
X0093657Y0081745D01*
X0093725Y0081825D01*
X0093796Y0081902D01*
X0093870Y0081976D01*
X0093947Y0082048D01*
X0094026Y0082117D01*
X0094108Y0082182D01*
X0094192Y0082245D01*
X0094279Y0082304D01*
X0094368Y0082360D01*
X0094459Y0082413D01*
X0094552Y0082462D01*
X0094646Y0082507D01*
X0094742Y0082549D01*
X0094840Y0082587D01*
X0094939Y0082621D01*
X0095040Y0082652D01*
X0095141Y0082678D01*
X0095244Y0082701D01*
X0095347Y0082720D01*
X0095451Y0082735D01*
X0095555Y0082746D01*
X0095660Y0082753D01*
X0095765Y0082756D01*
X0095870Y0082755D01*
X0095975Y0082750D01*
X0096079Y0082741D01*
X0096183Y0082728D01*
X0096287Y0082711D01*
X0096390Y0082690D01*
X0096492Y0082665D01*
X0096593Y0082637D01*
X0096692Y0082604D01*
X0096791Y0082568D01*
X0096888Y0082528D01*
X0096983Y0082485D01*
X0097077Y0082437D01*
X0097169Y0082387D01*
X0097259Y0082333D01*
X0097347Y0082275D01*
X0097432Y0082214D01*
X0097515Y0082150D01*
X0097596Y0082083D01*
X0097674Y0082013D01*
X0097749Y0081939D01*
X0097821Y0081864D01*
X0097891Y0081785D01*
X0097957Y0081704D01*
X0098021Y0081620D01*
X0098081Y0081534D01*
X0098137Y0081446D01*
X0098191Y0081355D01*
X0098241Y0081263D01*
X0098287Y0081169D01*
X0098330Y0081073D01*
X0098369Y0080975D01*
X0098404Y0080877D01*
X0098435Y0080776D01*
X0098463Y0080675D01*
X0098487Y0080573D01*
X0098507Y0080470D01*
X0098523Y0080366D01*
X0098535Y0080262D01*
X0098543Y0080157D01*
X0098547Y0080052D01*
X0098547Y0079948D01*
X0098543Y0079843D01*
X0098535Y0079738D01*
X0098523Y0079634D01*
X0098507Y0079530D01*
X0098487Y0079427D01*
X0098463Y0079325D01*
X0098435Y0079224D01*
X0098404Y0079123D01*
X0098369Y0079025D01*
X0098330Y0078927D01*
X0098287Y0078831D01*
X0098241Y0078737D01*
X0098191Y0078645D01*
X0098137Y0078554D01*
X0098081Y0078466D01*
X0098021Y0078380D01*
X0097957Y0078296D01*
X0097891Y0078215D01*
X0097821Y0078136D01*
X0097749Y0078061D01*
X0097674Y0077987D01*
X0097596Y0077917D01*
X0097515Y0077850D01*
X0097432Y0077786D01*
X0097347Y0077725D01*
X0097259Y0077667D01*
X0097169Y0077613D01*
X0097077Y0077563D01*
X0096983Y0077515D01*
X0096888Y0077472D01*
X0096791Y0077432D01*
X0096692Y0077396D01*
X0096593Y0077363D01*
X0096492Y0077335D01*
X0096390Y0077310D01*
X0096287Y0077289D01*
X0096183Y0077272D01*
X0096079Y0077259D01*
X0095975Y0077250D01*
X0095870Y0077245D01*
X0095765Y0077244D01*
X0095660Y0077247D01*
X0095555Y0077254D01*
X0095451Y0077265D01*
X0095347Y0077280D01*
X0095244Y0077299D01*
X0095141Y0077322D01*
X0095040Y0077348D01*
X0094939Y0077379D01*
X0094840Y0077413D01*
X0094742Y0077451D01*
X0094646Y0077493D01*
X0094552Y0077538D01*
X0094459Y0077587D01*
X0094368Y0077640D01*
X0094279Y0077696D01*
X0094192Y0077755D01*
X0094108Y0077818D01*
X0094026Y0077883D01*
X0093947Y0077952D01*
X0093870Y0078024D01*
X0093796Y0078098D01*
X0093725Y0078175D01*
X0093657Y0078255D01*
X0093593Y0078338D01*
X0093531Y0078423D01*
X0093473Y0078510D01*
X0093417Y0078599D01*
X0093366Y0078691D01*
X0093318Y0078784D01*
X0093273Y0078879D01*
X0093232Y0078976D01*
X0093195Y0079074D01*
X0093162Y0079173D01*
X0093132Y0079274D01*
X0093107Y0079376D01*
X0093085Y0079478D01*
X0093067Y0079582D01*
X0093053Y0079686D01*
X0093043Y0079790D01*
X0093037Y0079895D01*
X0093035Y0080000D01*
M02*
