G75*
%MOIN*%
%OFA0B0*%
%FSLAX25Y25*%
%IPPOS*%
%LPD*%
%AMOC8*
5,1,8,0,0,1.08239X$1,22.5*
%
%ADD10C,0.01600*%
%ADD11C,0.07400*%
%ADD12C,0.07000*%
%ADD13C,0.08858*%
%ADD14C,0.08000*%
%ADD15C,0.06000*%
%ADD16C,0.00000*%
%ADD17OC8,0.12400*%
%ADD18C,0.01000*%
%ADD19C,0.04000*%
D10*
X0023333Y0040000D02*
X0023333Y0360000D01*
X0388333Y0360000D01*
X0388333Y0040000D01*
X0023333Y0040000D01*
D11*
X0033333Y0145000D03*
X0033333Y0155000D03*
X0043333Y0155000D03*
X0043333Y0145000D03*
X0053333Y0145000D03*
X0053333Y0155000D03*
X0063333Y0155000D03*
X0063333Y0145000D03*
X0073333Y0145000D03*
X0073333Y0155000D03*
X0083333Y0155000D03*
X0083333Y0145000D03*
X0093333Y0145000D03*
X0093333Y0155000D03*
X0103333Y0155000D03*
X0103333Y0145000D03*
X0113333Y0145000D03*
X0113333Y0155000D03*
X0123333Y0155000D03*
X0123333Y0145000D03*
X0103333Y0205000D03*
X0103333Y0220000D03*
X0103333Y0235000D03*
X0103333Y0250000D03*
X0113333Y0250000D03*
X0103333Y0265000D03*
X0073333Y0265000D03*
X0073333Y0250000D03*
X0073333Y0235000D03*
X0073333Y0220000D03*
X0073333Y0205000D03*
X0143333Y0250000D03*
X0123333Y0315000D03*
X0113333Y0315000D03*
X0103333Y0315000D03*
X0093333Y0315000D03*
X0083333Y0315000D03*
X0073333Y0315000D03*
X0063333Y0315000D03*
X0053333Y0315000D03*
X0043333Y0315000D03*
X0033333Y0315000D03*
X0033333Y0325000D03*
X0043333Y0325000D03*
X0053333Y0325000D03*
X0063333Y0325000D03*
X0073333Y0325000D03*
X0083333Y0325000D03*
X0093333Y0325000D03*
X0103333Y0325000D03*
X0113333Y0325000D03*
X0123333Y0325000D03*
X0243333Y0315000D03*
X0253333Y0315000D03*
X0263333Y0315000D03*
X0273333Y0315000D03*
X0283333Y0315000D03*
X0293333Y0315000D03*
X0303333Y0315000D03*
X0313333Y0315000D03*
X0293333Y0335000D03*
X0263333Y0335000D03*
X0263333Y0155000D03*
X0273333Y0155000D03*
X0283333Y0155000D03*
X0293333Y0155000D03*
X0303333Y0155000D03*
X0313333Y0155000D03*
X0278333Y0125000D03*
X0268333Y0125000D03*
X0258333Y0105000D03*
X0248333Y0105000D03*
X0238333Y0125000D03*
X0228333Y0125000D03*
X0218333Y0105000D03*
X0243333Y0155000D03*
X0253333Y0155000D03*
X0288333Y0105000D03*
X0278333Y0090000D03*
X0280533Y0073900D03*
X0280533Y0056100D03*
X0306133Y0056100D03*
X0306133Y0073900D03*
X0308333Y0090000D03*
X0343333Y0090000D03*
X0345533Y0073900D03*
X0345533Y0056100D03*
X0371133Y0056100D03*
X0371133Y0073900D03*
X0373333Y0090000D03*
D12*
X0339129Y0116000D03*
X0313538Y0116000D03*
D13*
X0213963Y0077874D03*
X0213963Y0062126D03*
X0042703Y0077874D03*
D14*
X0042833Y0105000D03*
X0053833Y0105000D03*
X0102833Y0105000D03*
X0113833Y0105000D03*
D15*
X0202333Y0104500D02*
X0208333Y0104500D01*
X0208333Y0114500D02*
X0202333Y0114500D01*
X0202333Y0124500D02*
X0208333Y0124500D01*
D16*
X0139833Y0114500D02*
X0139835Y0114661D01*
X0139841Y0114821D01*
X0139851Y0114982D01*
X0139865Y0115142D01*
X0139883Y0115302D01*
X0139904Y0115461D01*
X0139930Y0115620D01*
X0139960Y0115778D01*
X0139993Y0115935D01*
X0140031Y0116092D01*
X0140072Y0116247D01*
X0140117Y0116401D01*
X0140166Y0116554D01*
X0140219Y0116706D01*
X0140275Y0116857D01*
X0140336Y0117006D01*
X0140399Y0117154D01*
X0140467Y0117300D01*
X0140538Y0117444D01*
X0140612Y0117586D01*
X0140690Y0117727D01*
X0140772Y0117865D01*
X0140857Y0118002D01*
X0140945Y0118136D01*
X0141037Y0118268D01*
X0141132Y0118398D01*
X0141230Y0118526D01*
X0141331Y0118651D01*
X0141435Y0118773D01*
X0141542Y0118893D01*
X0141652Y0119010D01*
X0141765Y0119125D01*
X0141881Y0119236D01*
X0142000Y0119345D01*
X0142121Y0119450D01*
X0142245Y0119553D01*
X0142371Y0119653D01*
X0142499Y0119749D01*
X0142630Y0119842D01*
X0142764Y0119932D01*
X0142899Y0120019D01*
X0143037Y0120102D01*
X0143176Y0120182D01*
X0143318Y0120258D01*
X0143461Y0120331D01*
X0143606Y0120400D01*
X0143753Y0120466D01*
X0143901Y0120528D01*
X0144051Y0120586D01*
X0144202Y0120641D01*
X0144355Y0120692D01*
X0144509Y0120739D01*
X0144664Y0120782D01*
X0144820Y0120821D01*
X0144976Y0120857D01*
X0145134Y0120888D01*
X0145292Y0120916D01*
X0145451Y0120940D01*
X0145611Y0120960D01*
X0145771Y0120976D01*
X0145931Y0120988D01*
X0146092Y0120996D01*
X0146253Y0121000D01*
X0146413Y0121000D01*
X0146574Y0120996D01*
X0146735Y0120988D01*
X0146895Y0120976D01*
X0147055Y0120960D01*
X0147215Y0120940D01*
X0147374Y0120916D01*
X0147532Y0120888D01*
X0147690Y0120857D01*
X0147846Y0120821D01*
X0148002Y0120782D01*
X0148157Y0120739D01*
X0148311Y0120692D01*
X0148464Y0120641D01*
X0148615Y0120586D01*
X0148765Y0120528D01*
X0148913Y0120466D01*
X0149060Y0120400D01*
X0149205Y0120331D01*
X0149348Y0120258D01*
X0149490Y0120182D01*
X0149629Y0120102D01*
X0149767Y0120019D01*
X0149902Y0119932D01*
X0150036Y0119842D01*
X0150167Y0119749D01*
X0150295Y0119653D01*
X0150421Y0119553D01*
X0150545Y0119450D01*
X0150666Y0119345D01*
X0150785Y0119236D01*
X0150901Y0119125D01*
X0151014Y0119010D01*
X0151124Y0118893D01*
X0151231Y0118773D01*
X0151335Y0118651D01*
X0151436Y0118526D01*
X0151534Y0118398D01*
X0151629Y0118268D01*
X0151721Y0118136D01*
X0151809Y0118002D01*
X0151894Y0117865D01*
X0151976Y0117727D01*
X0152054Y0117586D01*
X0152128Y0117444D01*
X0152199Y0117300D01*
X0152267Y0117154D01*
X0152330Y0117006D01*
X0152391Y0116857D01*
X0152447Y0116706D01*
X0152500Y0116554D01*
X0152549Y0116401D01*
X0152594Y0116247D01*
X0152635Y0116092D01*
X0152673Y0115935D01*
X0152706Y0115778D01*
X0152736Y0115620D01*
X0152762Y0115461D01*
X0152783Y0115302D01*
X0152801Y0115142D01*
X0152815Y0114982D01*
X0152825Y0114821D01*
X0152831Y0114661D01*
X0152833Y0114500D01*
X0152831Y0114339D01*
X0152825Y0114179D01*
X0152815Y0114018D01*
X0152801Y0113858D01*
X0152783Y0113698D01*
X0152762Y0113539D01*
X0152736Y0113380D01*
X0152706Y0113222D01*
X0152673Y0113065D01*
X0152635Y0112908D01*
X0152594Y0112753D01*
X0152549Y0112599D01*
X0152500Y0112446D01*
X0152447Y0112294D01*
X0152391Y0112143D01*
X0152330Y0111994D01*
X0152267Y0111846D01*
X0152199Y0111700D01*
X0152128Y0111556D01*
X0152054Y0111414D01*
X0151976Y0111273D01*
X0151894Y0111135D01*
X0151809Y0110998D01*
X0151721Y0110864D01*
X0151629Y0110732D01*
X0151534Y0110602D01*
X0151436Y0110474D01*
X0151335Y0110349D01*
X0151231Y0110227D01*
X0151124Y0110107D01*
X0151014Y0109990D01*
X0150901Y0109875D01*
X0150785Y0109764D01*
X0150666Y0109655D01*
X0150545Y0109550D01*
X0150421Y0109447D01*
X0150295Y0109347D01*
X0150167Y0109251D01*
X0150036Y0109158D01*
X0149902Y0109068D01*
X0149767Y0108981D01*
X0149629Y0108898D01*
X0149490Y0108818D01*
X0149348Y0108742D01*
X0149205Y0108669D01*
X0149060Y0108600D01*
X0148913Y0108534D01*
X0148765Y0108472D01*
X0148615Y0108414D01*
X0148464Y0108359D01*
X0148311Y0108308D01*
X0148157Y0108261D01*
X0148002Y0108218D01*
X0147846Y0108179D01*
X0147690Y0108143D01*
X0147532Y0108112D01*
X0147374Y0108084D01*
X0147215Y0108060D01*
X0147055Y0108040D01*
X0146895Y0108024D01*
X0146735Y0108012D01*
X0146574Y0108004D01*
X0146413Y0108000D01*
X0146253Y0108000D01*
X0146092Y0108004D01*
X0145931Y0108012D01*
X0145771Y0108024D01*
X0145611Y0108040D01*
X0145451Y0108060D01*
X0145292Y0108084D01*
X0145134Y0108112D01*
X0144976Y0108143D01*
X0144820Y0108179D01*
X0144664Y0108218D01*
X0144509Y0108261D01*
X0144355Y0108308D01*
X0144202Y0108359D01*
X0144051Y0108414D01*
X0143901Y0108472D01*
X0143753Y0108534D01*
X0143606Y0108600D01*
X0143461Y0108669D01*
X0143318Y0108742D01*
X0143176Y0108818D01*
X0143037Y0108898D01*
X0142899Y0108981D01*
X0142764Y0109068D01*
X0142630Y0109158D01*
X0142499Y0109251D01*
X0142371Y0109347D01*
X0142245Y0109447D01*
X0142121Y0109550D01*
X0142000Y0109655D01*
X0141881Y0109764D01*
X0141765Y0109875D01*
X0141652Y0109990D01*
X0141542Y0110107D01*
X0141435Y0110227D01*
X0141331Y0110349D01*
X0141230Y0110474D01*
X0141132Y0110602D01*
X0141037Y0110732D01*
X0140945Y0110864D01*
X0140857Y0110998D01*
X0140772Y0111135D01*
X0140690Y0111273D01*
X0140612Y0111414D01*
X0140538Y0111556D01*
X0140467Y0111700D01*
X0140399Y0111846D01*
X0140336Y0111994D01*
X0140275Y0112143D01*
X0140219Y0112294D01*
X0140166Y0112446D01*
X0140117Y0112599D01*
X0140072Y0112753D01*
X0140031Y0112908D01*
X0139993Y0113065D01*
X0139960Y0113222D01*
X0139930Y0113380D01*
X0139904Y0113539D01*
X0139883Y0113698D01*
X0139865Y0113858D01*
X0139851Y0114018D01*
X0139841Y0114179D01*
X0139835Y0114339D01*
X0139833Y0114500D01*
D17*
X0349333Y0342000D03*
X0369333Y0342000D03*
D18*
X0368733Y0341600D01*
X0368733Y0287600D01*
X0213033Y0131900D01*
X0213033Y0122000D01*
X0205833Y0114800D01*
X0205333Y0114500D01*
X0207122Y0119200D02*
X0201398Y0119200D01*
X0199933Y0118593D01*
X0199933Y0120407D01*
X0201398Y0119800D01*
X0207722Y0119800D01*
X0207122Y0119200D01*
X0211812Y0117668D02*
X0215233Y0121089D01*
X0215233Y0130989D01*
X0238003Y0153758D01*
X0238755Y0151941D01*
X0240274Y0150422D01*
X0242259Y0149600D01*
X0244407Y0149600D01*
X0244945Y0149822D01*
X0236933Y0141811D01*
X0236933Y0130265D01*
X0235274Y0129578D01*
X0233755Y0128059D01*
X0233333Y0127040D01*
X0232911Y0128059D01*
X0231392Y0129578D01*
X0229407Y0130400D01*
X0227259Y0130400D01*
X0225274Y0129578D01*
X0223755Y0128059D01*
X0222933Y0126074D01*
X0222933Y0123926D01*
X0223377Y0122855D01*
X0216233Y0115711D01*
X0216233Y0109975D01*
X0215274Y0109578D01*
X0213755Y0108059D01*
X0212933Y0106074D01*
X0212933Y0105676D01*
X0212318Y0107162D01*
X0210996Y0108484D01*
X0209268Y0109200D01*
X0203745Y0109200D01*
X0203145Y0109800D01*
X0209268Y0109800D01*
X0210996Y0110516D01*
X0212318Y0111838D01*
X0213033Y0113565D01*
X0213033Y0115435D01*
X0212318Y0117162D01*
X0211812Y0117668D01*
X0211976Y0117832D02*
X0218354Y0117832D01*
X0219352Y0118830D02*
X0212975Y0118830D01*
X0213973Y0119829D02*
X0220351Y0119829D01*
X0221349Y0120827D02*
X0214972Y0120827D01*
X0215233Y0121826D02*
X0222348Y0121826D01*
X0223346Y0122824D02*
X0215233Y0122824D01*
X0215233Y0123823D02*
X0222976Y0123823D01*
X0222933Y0124821D02*
X0215233Y0124821D01*
X0215233Y0125820D02*
X0222933Y0125820D01*
X0223242Y0126818D02*
X0215233Y0126818D01*
X0215233Y0127817D02*
X0223655Y0127817D01*
X0224512Y0128815D02*
X0215233Y0128815D01*
X0215233Y0129814D02*
X0225844Y0129814D01*
X0230822Y0129814D02*
X0235844Y0129814D01*
X0236933Y0130812D02*
X0215233Y0130812D01*
X0216056Y0131811D02*
X0236933Y0131811D01*
X0236933Y0132809D02*
X0217054Y0132809D01*
X0218053Y0133808D02*
X0236933Y0133808D01*
X0236933Y0134806D02*
X0219051Y0134806D01*
X0220050Y0135805D02*
X0236933Y0135805D01*
X0236933Y0136803D02*
X0221048Y0136803D01*
X0222047Y0137802D02*
X0236933Y0137802D01*
X0236933Y0138801D02*
X0223045Y0138801D01*
X0224044Y0139799D02*
X0236933Y0139799D01*
X0236933Y0140798D02*
X0225042Y0140798D01*
X0226041Y0141796D02*
X0236933Y0141796D01*
X0237917Y0142795D02*
X0227039Y0142795D01*
X0228038Y0143793D02*
X0238915Y0143793D01*
X0239914Y0144792D02*
X0229036Y0144792D01*
X0230035Y0145790D02*
X0240912Y0145790D01*
X0241911Y0146789D02*
X0231033Y0146789D01*
X0232032Y0147787D02*
X0242909Y0147787D01*
X0243908Y0148786D02*
X0233030Y0148786D01*
X0234029Y0149784D02*
X0241815Y0149784D01*
X0239914Y0150783D02*
X0235027Y0150783D01*
X0236026Y0151781D02*
X0238915Y0151781D01*
X0238408Y0152780D02*
X0237024Y0152780D01*
X0233797Y0155775D02*
X0230120Y0155775D01*
X0229121Y0154777D02*
X0232799Y0154777D01*
X0231800Y0153778D02*
X0228123Y0153778D01*
X0227124Y0152780D02*
X0230802Y0152780D01*
X0229803Y0151781D02*
X0226126Y0151781D01*
X0225127Y0150783D02*
X0228805Y0150783D01*
X0227806Y0149784D02*
X0224129Y0149784D01*
X0223130Y0148786D02*
X0226808Y0148786D01*
X0225809Y0147787D02*
X0222132Y0147787D01*
X0221133Y0146789D02*
X0224811Y0146789D01*
X0223812Y0145790D02*
X0220135Y0145790D01*
X0219136Y0144792D02*
X0222814Y0144792D01*
X0221815Y0143793D02*
X0218138Y0143793D01*
X0217139Y0142795D02*
X0220817Y0142795D01*
X0219818Y0141796D02*
X0216141Y0141796D01*
X0215142Y0140798D02*
X0218820Y0140798D01*
X0217821Y0139799D02*
X0214144Y0139799D01*
X0213145Y0138801D02*
X0216823Y0138801D01*
X0215824Y0137802D02*
X0212147Y0137802D01*
X0211148Y0136803D02*
X0214826Y0136803D01*
X0213827Y0135805D02*
X0210150Y0135805D01*
X0209151Y0134806D02*
X0212829Y0134806D01*
X0212122Y0134100D02*
X0210833Y0132811D01*
X0210833Y0128552D01*
X0209268Y0129200D01*
X0203545Y0129200D01*
X0351133Y0276789D01*
X0351133Y0334100D01*
X0352606Y0334100D01*
X0357233Y0338728D01*
X0357233Y0345272D01*
X0352606Y0349900D01*
X0346061Y0349900D01*
X0341433Y0345272D01*
X0341433Y0338728D01*
X0346061Y0334100D01*
X0346733Y0334100D01*
X0346733Y0278611D01*
X0196822Y0128700D01*
X0195533Y0127411D01*
X0195533Y0111189D01*
X0198954Y0107768D01*
X0198349Y0107162D01*
X0197633Y0105435D01*
X0197633Y0103565D01*
X0198349Y0101838D01*
X0199671Y0100516D01*
X0201398Y0099800D01*
X0209268Y0099800D01*
X0210996Y0100516D01*
X0212318Y0101838D01*
X0213033Y0103565D01*
X0213033Y0103684D01*
X0213755Y0101941D01*
X0215274Y0100422D01*
X0217233Y0099611D01*
X0212633Y0095011D01*
X0212633Y0083957D01*
X0210491Y0083070D01*
X0208767Y0081346D01*
X0207834Y0079093D01*
X0207834Y0076655D01*
X0208767Y0074402D01*
X0210491Y0072678D01*
X0212744Y0071745D01*
X0215182Y0071745D01*
X0217435Y0072678D01*
X0219159Y0074402D01*
X0220092Y0076655D01*
X0220092Y0079093D01*
X0219159Y0081346D01*
X0217435Y0083070D01*
X0217033Y0083236D01*
X0217033Y0093189D01*
X0239145Y0115300D01*
X0240433Y0116589D01*
X0240433Y0120025D01*
X0241392Y0120422D01*
X0242911Y0121941D01*
X0243733Y0123926D01*
X0243733Y0126074D01*
X0242911Y0128059D01*
X0241392Y0129578D01*
X0241333Y0129602D01*
X0241333Y0139989D01*
X0250833Y0149489D01*
X0270286Y0130036D01*
X0269407Y0130400D01*
X0267259Y0130400D01*
X0265274Y0129578D01*
X0263755Y0128059D01*
X0262933Y0126074D01*
X0262933Y0123926D01*
X0263260Y0123138D01*
X0256733Y0116611D01*
X0256733Y0110182D01*
X0255274Y0109578D01*
X0253755Y0108059D01*
X0253333Y0107040D01*
X0252911Y0108059D01*
X0251392Y0109578D01*
X0249407Y0110400D01*
X0247259Y0110400D01*
X0245274Y0109578D01*
X0243755Y0108059D01*
X0242933Y0106074D01*
X0242933Y0103926D01*
X0243755Y0101941D01*
X0245274Y0100422D01*
X0247259Y0099600D01*
X0249407Y0099600D01*
X0251392Y0100422D01*
X0252911Y0101941D01*
X0253333Y0102960D01*
X0253755Y0101941D01*
X0255274Y0100422D01*
X0257259Y0099600D01*
X0259407Y0099600D01*
X0261392Y0100422D01*
X0262911Y0101941D01*
X0263733Y0103926D01*
X0263733Y0106074D01*
X0262911Y0108059D01*
X0261392Y0109578D01*
X0261133Y0109685D01*
X0261133Y0114789D01*
X0266330Y0119985D01*
X0267259Y0119600D01*
X0269407Y0119600D01*
X0271392Y0120422D01*
X0272911Y0121941D01*
X0273333Y0122960D01*
X0273755Y0121941D01*
X0275274Y0120422D01*
X0277259Y0119600D01*
X0279407Y0119600D01*
X0280337Y0119985D01*
X0290286Y0110036D01*
X0289407Y0110400D01*
X0287259Y0110400D01*
X0285274Y0109578D01*
X0283755Y0108059D01*
X0282933Y0106074D01*
X0282933Y0103926D01*
X0283755Y0101941D01*
X0285274Y0100422D01*
X0287259Y0099600D01*
X0289407Y0099600D01*
X0291392Y0100422D01*
X0292911Y0101941D01*
X0293733Y0103926D01*
X0293733Y0106074D01*
X0293369Y0106953D01*
X0305607Y0094715D01*
X0305274Y0094578D01*
X0303755Y0093059D01*
X0302933Y0091074D01*
X0302933Y0088926D01*
X0303755Y0086941D01*
X0305274Y0085422D01*
X0307259Y0084600D01*
X0309407Y0084600D01*
X0311392Y0085422D01*
X0312911Y0086941D01*
X0313733Y0088926D01*
X0313733Y0091074D01*
X0313260Y0092216D01*
X0313333Y0092289D01*
X0334538Y0113494D01*
X0334720Y0113054D01*
X0336183Y0111592D01*
X0338094Y0110800D01*
X0340163Y0110800D01*
X0341265Y0111257D01*
X0364222Y0088300D01*
X0368193Y0088300D01*
X0368755Y0086941D01*
X0370274Y0085422D01*
X0372259Y0084600D01*
X0374407Y0084600D01*
X0376392Y0085422D01*
X0377911Y0086941D01*
X0378733Y0088926D01*
X0378733Y0091074D01*
X0377911Y0093059D01*
X0376392Y0094578D01*
X0374407Y0095400D01*
X0372259Y0095400D01*
X0370274Y0094578D01*
X0368755Y0093059D01*
X0368607Y0092700D01*
X0366045Y0092700D01*
X0344168Y0114577D01*
X0344329Y0114966D01*
X0344329Y0117034D01*
X0343537Y0118946D01*
X0342074Y0120408D01*
X0340163Y0121200D01*
X0338094Y0121200D01*
X0336183Y0120408D01*
X0334720Y0118946D01*
X0334287Y0117900D01*
X0332722Y0117900D01*
X0310683Y0095861D01*
X0283407Y0123138D01*
X0283733Y0123926D01*
X0283733Y0126074D01*
X0282911Y0128059D01*
X0281392Y0129578D01*
X0279407Y0130400D01*
X0277259Y0130400D01*
X0276471Y0130074D01*
X0256201Y0150343D01*
X0256392Y0150422D01*
X0257911Y0151941D01*
X0258333Y0152960D01*
X0258755Y0151941D01*
X0260274Y0150422D01*
X0262259Y0149600D01*
X0264407Y0149600D01*
X0266392Y0150422D01*
X0267911Y0151941D01*
X0268333Y0152960D01*
X0268755Y0151941D01*
X0270274Y0150422D01*
X0272259Y0149600D01*
X0274407Y0149600D01*
X0276392Y0150422D01*
X0277911Y0151941D01*
X0278333Y0152960D01*
X0278755Y0151941D01*
X0280274Y0150422D01*
X0282259Y0149600D01*
X0284407Y0149600D01*
X0286392Y0150422D01*
X0287911Y0151941D01*
X0288333Y0152960D01*
X0288755Y0151941D01*
X0290274Y0150422D01*
X0292259Y0149600D01*
X0294407Y0149600D01*
X0296392Y0150422D01*
X0297911Y0151941D01*
X0298333Y0152960D01*
X0298755Y0151941D01*
X0300274Y0150422D01*
X0302259Y0149600D01*
X0304407Y0149600D01*
X0306392Y0150422D01*
X0307911Y0151941D01*
X0308333Y0152960D01*
X0308755Y0151941D01*
X0310274Y0150422D01*
X0312259Y0149600D01*
X0314407Y0149600D01*
X0316392Y0150422D01*
X0317911Y0151941D01*
X0318733Y0153926D01*
X0318733Y0156074D01*
X0317911Y0158059D01*
X0316392Y0159578D01*
X0314407Y0160400D01*
X0312259Y0160400D01*
X0310274Y0159578D01*
X0308755Y0158059D01*
X0308333Y0157040D01*
X0307911Y0158059D01*
X0306392Y0159578D01*
X0304407Y0160400D01*
X0302259Y0160400D01*
X0300274Y0159578D01*
X0298755Y0158059D01*
X0298333Y0157040D01*
X0297911Y0158059D01*
X0296392Y0159578D01*
X0294407Y0160400D01*
X0292259Y0160400D01*
X0290274Y0159578D01*
X0288755Y0158059D01*
X0288333Y0157040D01*
X0287911Y0158059D01*
X0286392Y0159578D01*
X0284407Y0160400D01*
X0282259Y0160400D01*
X0280274Y0159578D01*
X0278755Y0158059D01*
X0278333Y0157040D01*
X0277911Y0158059D01*
X0276392Y0159578D01*
X0274407Y0160400D01*
X0272259Y0160400D01*
X0270274Y0159578D01*
X0268755Y0158059D01*
X0268333Y0157040D01*
X0267911Y0158059D01*
X0266392Y0159578D01*
X0264407Y0160400D01*
X0262259Y0160400D01*
X0260274Y0159578D01*
X0258755Y0158059D01*
X0258333Y0157040D01*
X0257911Y0158059D01*
X0256392Y0159578D01*
X0254407Y0160400D01*
X0252259Y0160400D01*
X0250274Y0159578D01*
X0248755Y0158059D01*
X0248333Y0157040D01*
X0247911Y0158059D01*
X0246392Y0159578D01*
X0244575Y0160331D01*
X0370933Y0286689D01*
X0370933Y0334100D01*
X0372606Y0334100D01*
X0377233Y0338728D01*
X0377233Y0345272D01*
X0372606Y0349900D01*
X0366061Y0349900D01*
X0361433Y0345272D01*
X0361433Y0338728D01*
X0366061Y0334100D01*
X0366533Y0334100D01*
X0366533Y0288511D01*
X0212122Y0134100D01*
X0211830Y0133808D02*
X0208153Y0133808D01*
X0207154Y0132809D02*
X0210833Y0132809D01*
X0210833Y0131811D02*
X0206156Y0131811D01*
X0205157Y0130812D02*
X0210833Y0130812D01*
X0210833Y0129814D02*
X0204159Y0129814D01*
X0200932Y0132809D02*
X0146835Y0132809D01*
X0146833Y0132811D02*
X0146833Y0137867D01*
X0147770Y0138804D01*
X0148333Y0140164D01*
X0148333Y0141636D01*
X0147770Y0142996D01*
X0146729Y0144037D01*
X0145369Y0144600D01*
X0143897Y0144600D01*
X0142537Y0144037D01*
X0141497Y0142996D01*
X0140933Y0141636D01*
X0140933Y0140164D01*
X0141497Y0138804D01*
X0142433Y0137867D01*
X0142433Y0132811D01*
X0142433Y0130989D01*
X0147974Y0125449D01*
X0147782Y0125500D01*
X0144885Y0125500D01*
X0142087Y0124750D01*
X0139633Y0123333D01*
X0139633Y0145389D01*
X0242145Y0247900D01*
X0243469Y0247900D01*
X0244829Y0248463D01*
X0245870Y0249504D01*
X0246433Y0250864D01*
X0246433Y0252336D01*
X0245870Y0253696D01*
X0244829Y0254737D01*
X0243469Y0255300D01*
X0241997Y0255300D01*
X0241333Y0255025D01*
X0241333Y0256989D01*
X0293945Y0309600D01*
X0294407Y0309600D01*
X0296392Y0310422D01*
X0297911Y0311941D01*
X0298333Y0312960D01*
X0298755Y0311941D01*
X0300274Y0310422D01*
X0302259Y0309600D01*
X0304407Y0309600D01*
X0306392Y0310422D01*
X0307911Y0311941D01*
X0308333Y0312960D01*
X0308755Y0311941D01*
X0310274Y0310422D01*
X0312259Y0309600D01*
X0314407Y0309600D01*
X0316392Y0310422D01*
X0317911Y0311941D01*
X0318733Y0313926D01*
X0318733Y0316074D01*
X0317911Y0318059D01*
X0316392Y0319578D01*
X0314407Y0320400D01*
X0312259Y0320400D01*
X0311471Y0320074D01*
X0298407Y0333138D01*
X0298733Y0333926D01*
X0298733Y0336074D01*
X0297911Y0338059D01*
X0296392Y0339578D01*
X0294407Y0340400D01*
X0292259Y0340400D01*
X0290274Y0339578D01*
X0288755Y0338059D01*
X0287933Y0336074D01*
X0287933Y0333926D01*
X0288755Y0331941D01*
X0290274Y0330422D01*
X0292259Y0329600D01*
X0294407Y0329600D01*
X0295337Y0329985D01*
X0305286Y0320036D01*
X0304407Y0320400D01*
X0302259Y0320400D01*
X0300274Y0319578D01*
X0298755Y0318059D01*
X0298333Y0317040D01*
X0297911Y0318059D01*
X0296392Y0319578D01*
X0294407Y0320400D01*
X0292259Y0320400D01*
X0290274Y0319578D01*
X0288755Y0318059D01*
X0288333Y0317040D01*
X0287911Y0318059D01*
X0286392Y0319578D01*
X0284407Y0320400D01*
X0282259Y0320400D01*
X0280274Y0319578D01*
X0278755Y0318059D01*
X0278333Y0317040D01*
X0277911Y0318059D01*
X0276392Y0319578D01*
X0274407Y0320400D01*
X0272259Y0320400D01*
X0270274Y0319578D01*
X0268755Y0318059D01*
X0268333Y0317040D01*
X0267911Y0318059D01*
X0266392Y0319578D01*
X0264407Y0320400D01*
X0262259Y0320400D01*
X0260274Y0319578D01*
X0258755Y0318059D01*
X0258333Y0317040D01*
X0257911Y0318059D01*
X0256392Y0319578D01*
X0254407Y0320400D01*
X0252259Y0320400D01*
X0251210Y0319965D01*
X0261259Y0330014D01*
X0262259Y0329600D01*
X0264407Y0329600D01*
X0266392Y0330422D01*
X0267911Y0331941D01*
X0268733Y0333926D01*
X0268733Y0336074D01*
X0267911Y0338059D01*
X0266392Y0339578D01*
X0264407Y0340400D01*
X0262259Y0340400D01*
X0260274Y0339578D01*
X0258755Y0338059D01*
X0257933Y0336074D01*
X0257933Y0333926D01*
X0258230Y0333208D01*
X0245125Y0320103D01*
X0244407Y0320400D01*
X0242259Y0320400D01*
X0240274Y0319578D01*
X0238755Y0318059D01*
X0237933Y0316074D01*
X0237933Y0313926D01*
X0238755Y0311941D01*
X0240274Y0310422D01*
X0242259Y0309600D01*
X0244407Y0309600D01*
X0246392Y0310422D01*
X0247911Y0311941D01*
X0248333Y0312960D01*
X0248755Y0311941D01*
X0250274Y0310422D01*
X0252259Y0309600D01*
X0254407Y0309600D01*
X0256392Y0310422D01*
X0257911Y0311941D01*
X0258333Y0312960D01*
X0258755Y0311941D01*
X0260274Y0310422D01*
X0262259Y0309600D01*
X0264407Y0309600D01*
X0266392Y0310422D01*
X0267911Y0311941D01*
X0268333Y0312960D01*
X0268755Y0311941D01*
X0270274Y0310422D01*
X0271133Y0310066D01*
X0271133Y0298411D01*
X0128733Y0156011D01*
X0128733Y0156074D01*
X0127911Y0158059D01*
X0126392Y0159578D01*
X0124407Y0160400D01*
X0122259Y0160400D01*
X0120274Y0159578D01*
X0118755Y0158059D01*
X0118333Y0157040D01*
X0117911Y0158059D01*
X0116392Y0159578D01*
X0114407Y0160400D01*
X0112259Y0160400D01*
X0110274Y0159578D01*
X0108755Y0158059D01*
X0108333Y0157040D01*
X0107911Y0158059D01*
X0106392Y0159578D01*
X0104407Y0160400D01*
X0102259Y0160400D01*
X0100274Y0159578D01*
X0098755Y0158059D01*
X0098333Y0157040D01*
X0097911Y0158059D01*
X0096392Y0159578D01*
X0094407Y0160400D01*
X0092259Y0160400D01*
X0090274Y0159578D01*
X0088755Y0158059D01*
X0088333Y0157040D01*
X0087911Y0158059D01*
X0086392Y0159578D01*
X0084407Y0160400D01*
X0082259Y0160400D01*
X0080274Y0159578D01*
X0078755Y0158059D01*
X0078333Y0157040D01*
X0077911Y0158059D01*
X0076392Y0159578D01*
X0074407Y0160400D01*
X0072259Y0160400D01*
X0070274Y0159578D01*
X0068755Y0158059D01*
X0068333Y0157040D01*
X0067911Y0158059D01*
X0066392Y0159578D01*
X0064407Y0160400D01*
X0062259Y0160400D01*
X0060274Y0159578D01*
X0058755Y0158059D01*
X0058333Y0157040D01*
X0057911Y0158059D01*
X0056392Y0159578D01*
X0054407Y0160400D01*
X0052259Y0160400D01*
X0050274Y0159578D01*
X0049621Y0158924D01*
X0049245Y0159300D01*
X0045645Y0162900D01*
X0040222Y0162900D01*
X0038933Y0161611D01*
X0036646Y0159324D01*
X0036392Y0159578D01*
X0034407Y0160400D01*
X0032259Y0160400D01*
X0030274Y0159578D01*
X0028755Y0158059D01*
X0028633Y0157764D01*
X0028633Y0312236D01*
X0028755Y0311941D01*
X0030274Y0310422D01*
X0032259Y0309600D01*
X0034407Y0309600D01*
X0036392Y0310422D01*
X0037911Y0311941D01*
X0038333Y0312960D01*
X0038755Y0311941D01*
X0040274Y0310422D01*
X0042259Y0309600D01*
X0044407Y0309600D01*
X0046392Y0310422D01*
X0047911Y0311941D01*
X0048333Y0312960D01*
X0048755Y0311941D01*
X0050274Y0310422D01*
X0051533Y0309901D01*
X0051533Y0283089D01*
X0068113Y0266509D01*
X0067933Y0266074D01*
X0067933Y0263926D01*
X0068755Y0261941D01*
X0070274Y0260422D01*
X0071333Y0259984D01*
X0071333Y0255016D01*
X0070274Y0254578D01*
X0068755Y0253059D01*
X0067933Y0251074D01*
X0067933Y0248926D01*
X0068755Y0246941D01*
X0070274Y0245422D01*
X0071333Y0244984D01*
X0071333Y0240016D01*
X0070274Y0239578D01*
X0068755Y0238059D01*
X0067933Y0236074D01*
X0067933Y0233926D01*
X0068755Y0231941D01*
X0070274Y0230422D01*
X0071333Y0229984D01*
X0071333Y0225016D01*
X0070274Y0224578D01*
X0068755Y0223059D01*
X0067933Y0221074D01*
X0067933Y0218926D01*
X0068755Y0216941D01*
X0070274Y0215422D01*
X0071333Y0214984D01*
X0071333Y0210016D01*
X0070274Y0209578D01*
X0068755Y0208059D01*
X0067933Y0206074D01*
X0067933Y0203926D01*
X0068755Y0201941D01*
X0070274Y0200422D01*
X0072259Y0199600D01*
X0074407Y0199600D01*
X0076392Y0200422D01*
X0077911Y0201941D01*
X0078733Y0203926D01*
X0078733Y0206074D01*
X0077911Y0208059D01*
X0076392Y0209578D01*
X0075733Y0209851D01*
X0075733Y0215149D01*
X0076392Y0215422D01*
X0077911Y0216941D01*
X0078733Y0218926D01*
X0078733Y0221074D01*
X0077911Y0223059D01*
X0076392Y0224578D01*
X0075733Y0224851D01*
X0075733Y0230149D01*
X0076392Y0230422D01*
X0077911Y0231941D01*
X0078733Y0233926D01*
X0078733Y0236074D01*
X0077911Y0238059D01*
X0076392Y0239578D01*
X0075733Y0239851D01*
X0075733Y0245149D01*
X0076392Y0245422D01*
X0077911Y0246941D01*
X0078733Y0248926D01*
X0078733Y0251074D01*
X0077911Y0253059D01*
X0076392Y0254578D01*
X0075733Y0254851D01*
X0075733Y0260149D01*
X0076392Y0260422D01*
X0077911Y0261941D01*
X0078733Y0263926D01*
X0078733Y0266074D01*
X0077911Y0268059D01*
X0076392Y0269578D01*
X0074407Y0270400D01*
X0072259Y0270400D01*
X0070976Y0269869D01*
X0055933Y0284911D01*
X0055933Y0310232D01*
X0056392Y0310422D01*
X0057911Y0311941D01*
X0058333Y0312960D01*
X0058755Y0311941D01*
X0060274Y0310422D01*
X0062259Y0309600D01*
X0064407Y0309600D01*
X0066392Y0310422D01*
X0067911Y0311941D01*
X0068333Y0312960D01*
X0068755Y0311941D01*
X0070274Y0310422D01*
X0072259Y0309600D01*
X0074407Y0309600D01*
X0076392Y0310422D01*
X0077911Y0311941D01*
X0078333Y0312960D01*
X0078755Y0311941D01*
X0080274Y0310422D01*
X0082259Y0309600D01*
X0084407Y0309600D01*
X0086392Y0310422D01*
X0087911Y0311941D01*
X0088333Y0312960D01*
X0088755Y0311941D01*
X0090274Y0310422D01*
X0092259Y0309600D01*
X0094407Y0309600D01*
X0096392Y0310422D01*
X0097911Y0311941D01*
X0098333Y0312960D01*
X0098755Y0311941D01*
X0100274Y0310422D01*
X0102259Y0309600D01*
X0104407Y0309600D01*
X0106392Y0310422D01*
X0107911Y0311941D01*
X0108333Y0312960D01*
X0108755Y0311941D01*
X0110274Y0310422D01*
X0112259Y0309600D01*
X0114407Y0309600D01*
X0116392Y0310422D01*
X0117911Y0311941D01*
X0118333Y0312960D01*
X0118755Y0311941D01*
X0120274Y0310422D01*
X0122259Y0309600D01*
X0124407Y0309600D01*
X0126392Y0310422D01*
X0127911Y0311941D01*
X0128733Y0313926D01*
X0128733Y0316074D01*
X0127911Y0318059D01*
X0126392Y0319578D01*
X0125373Y0320000D01*
X0126392Y0320422D01*
X0127911Y0321941D01*
X0128733Y0323926D01*
X0128733Y0326074D01*
X0127911Y0328059D01*
X0126392Y0329578D01*
X0124407Y0330400D01*
X0122259Y0330400D01*
X0120274Y0329578D01*
X0118755Y0328059D01*
X0118333Y0327040D01*
X0117911Y0328059D01*
X0116392Y0329578D01*
X0114407Y0330400D01*
X0112259Y0330400D01*
X0110274Y0329578D01*
X0108755Y0328059D01*
X0108333Y0327040D01*
X0107911Y0328059D01*
X0106392Y0329578D01*
X0104407Y0330400D01*
X0102259Y0330400D01*
X0100274Y0329578D01*
X0098755Y0328059D01*
X0098333Y0327040D01*
X0097911Y0328059D01*
X0096392Y0329578D01*
X0094407Y0330400D01*
X0092259Y0330400D01*
X0090274Y0329578D01*
X0088755Y0328059D01*
X0088333Y0327040D01*
X0087911Y0328059D01*
X0086392Y0329578D01*
X0084407Y0330400D01*
X0082259Y0330400D01*
X0080274Y0329578D01*
X0078755Y0328059D01*
X0078333Y0327040D01*
X0077911Y0328059D01*
X0076392Y0329578D01*
X0074407Y0330400D01*
X0072259Y0330400D01*
X0070274Y0329578D01*
X0068755Y0328059D01*
X0068333Y0327040D01*
X0067911Y0328059D01*
X0066392Y0329578D01*
X0064407Y0330400D01*
X0062259Y0330400D01*
X0060274Y0329578D01*
X0058755Y0328059D01*
X0058333Y0327040D01*
X0057911Y0328059D01*
X0056392Y0329578D01*
X0054407Y0330400D01*
X0052259Y0330400D01*
X0050274Y0329578D01*
X0048755Y0328059D01*
X0048333Y0327040D01*
X0047911Y0328059D01*
X0046392Y0329578D01*
X0044407Y0330400D01*
X0042259Y0330400D01*
X0040274Y0329578D01*
X0038755Y0328059D01*
X0038333Y0327040D01*
X0037911Y0328059D01*
X0036392Y0329578D01*
X0034407Y0330400D01*
X0032259Y0330400D01*
X0030274Y0329578D01*
X0028755Y0328059D01*
X0028633Y0327764D01*
X0028633Y0354700D01*
X0383033Y0354700D01*
X0383033Y0045300D01*
X0028633Y0045300D01*
X0028633Y0142236D01*
X0028755Y0141941D01*
X0030274Y0140422D01*
X0032259Y0139600D01*
X0034407Y0139600D01*
X0036392Y0140422D01*
X0036996Y0141026D01*
X0079433Y0098589D01*
X0080722Y0097300D01*
X0116745Y0097300D01*
X0135333Y0115889D01*
X0135333Y0113052D01*
X0136083Y0110254D01*
X0137531Y0107746D01*
X0139579Y0105698D01*
X0142087Y0104250D01*
X0144885Y0103500D01*
X0147782Y0103500D01*
X0150579Y0104250D01*
X0153087Y0105698D01*
X0155136Y0107746D01*
X0156584Y0110254D01*
X0157333Y0113052D01*
X0157333Y0115948D01*
X0157282Y0116140D01*
X0208491Y0064931D01*
X0207834Y0063345D01*
X0207834Y0060907D01*
X0208767Y0058654D01*
X0210491Y0056930D01*
X0212744Y0055997D01*
X0215182Y0055997D01*
X0217435Y0056930D01*
X0219159Y0058654D01*
X0220092Y0060907D01*
X0220092Y0063345D01*
X0219159Y0065598D01*
X0217435Y0067322D01*
X0215182Y0068255D01*
X0212744Y0068255D01*
X0211786Y0067858D01*
X0146833Y0132811D01*
X0146833Y0133808D02*
X0201930Y0133808D01*
X0202929Y0134806D02*
X0146833Y0134806D01*
X0146833Y0135805D02*
X0203927Y0135805D01*
X0204926Y0136803D02*
X0146833Y0136803D01*
X0146833Y0137802D02*
X0205924Y0137802D01*
X0206923Y0138801D02*
X0147766Y0138801D01*
X0148182Y0139799D02*
X0207921Y0139799D01*
X0208920Y0140798D02*
X0148333Y0140798D01*
X0148267Y0141796D02*
X0209918Y0141796D01*
X0210917Y0142795D02*
X0147853Y0142795D01*
X0146973Y0143793D02*
X0211915Y0143793D01*
X0212914Y0144792D02*
X0139633Y0144792D01*
X0139633Y0143793D02*
X0142294Y0143793D01*
X0141413Y0142795D02*
X0139633Y0142795D01*
X0139633Y0141796D02*
X0141000Y0141796D01*
X0140933Y0140798D02*
X0139633Y0140798D01*
X0139633Y0139799D02*
X0141084Y0139799D01*
X0141500Y0138801D02*
X0139633Y0138801D01*
X0139633Y0137802D02*
X0142433Y0137802D01*
X0142433Y0136803D02*
X0139633Y0136803D01*
X0139633Y0135805D02*
X0142433Y0135805D01*
X0142433Y0134806D02*
X0139633Y0134806D01*
X0139633Y0133808D02*
X0142433Y0133808D01*
X0142433Y0132809D02*
X0139633Y0132809D01*
X0139633Y0131811D02*
X0142433Y0131811D01*
X0142610Y0130812D02*
X0139633Y0130812D01*
X0139633Y0129814D02*
X0143608Y0129814D01*
X0144607Y0128815D02*
X0139633Y0128815D01*
X0139633Y0127817D02*
X0145605Y0127817D01*
X0146604Y0126818D02*
X0139633Y0126818D01*
X0139633Y0125820D02*
X0147602Y0125820D01*
X0150829Y0128815D02*
X0196937Y0128815D01*
X0195939Y0127817D02*
X0151828Y0127817D01*
X0152826Y0126818D02*
X0195533Y0126818D01*
X0195533Y0125820D02*
X0153825Y0125820D01*
X0154823Y0124821D02*
X0195533Y0124821D01*
X0195533Y0123823D02*
X0155822Y0123823D01*
X0156820Y0122824D02*
X0195533Y0122824D01*
X0195533Y0121826D02*
X0157819Y0121826D01*
X0158817Y0120827D02*
X0195533Y0120827D01*
X0195533Y0119829D02*
X0159816Y0119829D01*
X0160814Y0118830D02*
X0195533Y0118830D01*
X0195533Y0117832D02*
X0161813Y0117832D01*
X0162811Y0116833D02*
X0195533Y0116833D01*
X0195533Y0115835D02*
X0163810Y0115835D01*
X0164808Y0114836D02*
X0195533Y0114836D01*
X0195533Y0113838D02*
X0165807Y0113838D01*
X0166805Y0112839D02*
X0195533Y0112839D01*
X0195533Y0111841D02*
X0167804Y0111841D01*
X0168802Y0110842D02*
X0195880Y0110842D01*
X0196878Y0109844D02*
X0169801Y0109844D01*
X0170799Y0108845D02*
X0197877Y0108845D01*
X0198875Y0107847D02*
X0171798Y0107847D01*
X0172796Y0106848D02*
X0198219Y0106848D01*
X0197805Y0105850D02*
X0173795Y0105850D01*
X0174793Y0104851D02*
X0197633Y0104851D01*
X0197633Y0103853D02*
X0175792Y0103853D01*
X0176790Y0102854D02*
X0197928Y0102854D01*
X0198341Y0101856D02*
X0177789Y0101856D01*
X0178787Y0100857D02*
X0199329Y0100857D01*
X0201257Y0099859D02*
X0179786Y0099859D01*
X0180785Y0098860D02*
X0216482Y0098860D01*
X0216635Y0099859D02*
X0209410Y0099859D01*
X0211337Y0100857D02*
X0214839Y0100857D01*
X0213841Y0101856D02*
X0212325Y0101856D01*
X0212739Y0102854D02*
X0213377Y0102854D01*
X0212933Y0105850D02*
X0212862Y0105850D01*
X0213254Y0106848D02*
X0212448Y0106848D01*
X0211633Y0107847D02*
X0213668Y0107847D01*
X0214542Y0108845D02*
X0210125Y0108845D01*
X0209374Y0109844D02*
X0215916Y0109844D01*
X0216233Y0110842D02*
X0211322Y0110842D01*
X0212319Y0111841D02*
X0216233Y0111841D01*
X0216233Y0112839D02*
X0212733Y0112839D01*
X0213033Y0113838D02*
X0216233Y0113838D01*
X0216233Y0114836D02*
X0213033Y0114836D01*
X0212868Y0115835D02*
X0216357Y0115835D01*
X0217355Y0116833D02*
X0212454Y0116833D01*
X0218433Y0114800D02*
X0228333Y0124700D01*
X0228333Y0125000D01*
X0232155Y0128815D02*
X0234512Y0128815D01*
X0233655Y0127817D02*
X0233011Y0127817D01*
X0238333Y0125000D02*
X0238233Y0124700D01*
X0238233Y0117500D01*
X0214833Y0094100D01*
X0214833Y0077900D01*
X0213963Y0077874D01*
X0207834Y0077891D02*
X0201753Y0077891D01*
X0202752Y0076893D02*
X0207834Y0076893D01*
X0208149Y0075894D02*
X0203750Y0075894D01*
X0204749Y0074896D02*
X0208563Y0074896D01*
X0209272Y0073897D02*
X0205747Y0073897D01*
X0206746Y0072899D02*
X0210271Y0072899D01*
X0212369Y0071900D02*
X0207744Y0071900D01*
X0208743Y0070902D02*
X0275930Y0070902D01*
X0275955Y0070841D02*
X0277474Y0069322D01*
X0279459Y0068500D01*
X0281607Y0068500D01*
X0283592Y0069322D01*
X0285111Y0070841D01*
X0285933Y0072826D01*
X0285933Y0072989D01*
X0301030Y0057892D01*
X0300733Y0057174D01*
X0300733Y0055026D01*
X0301555Y0053041D01*
X0303074Y0051522D01*
X0305059Y0050700D01*
X0307207Y0050700D01*
X0309192Y0051522D01*
X0310711Y0053041D01*
X0311533Y0055026D01*
X0311533Y0057174D01*
X0310711Y0059159D01*
X0309192Y0060678D01*
X0307207Y0061500D01*
X0305059Y0061500D01*
X0304059Y0061086D01*
X0280933Y0084211D01*
X0280933Y0085232D01*
X0281392Y0085422D01*
X0282911Y0086941D01*
X0283733Y0088926D01*
X0283733Y0091074D01*
X0282911Y0093059D01*
X0281392Y0094578D01*
X0279407Y0095400D01*
X0277259Y0095400D01*
X0275274Y0094578D01*
X0273755Y0093059D01*
X0272933Y0091074D01*
X0272933Y0088926D01*
X0273755Y0086941D01*
X0275274Y0085422D01*
X0276533Y0084901D01*
X0276533Y0082389D01*
X0279622Y0079300D01*
X0279459Y0079300D01*
X0277474Y0078478D01*
X0275955Y0076959D01*
X0275133Y0074974D01*
X0275133Y0072826D01*
X0275955Y0070841D01*
X0275517Y0071900D02*
X0215558Y0071900D01*
X0217656Y0072899D02*
X0275133Y0072899D01*
X0275133Y0073897D02*
X0218654Y0073897D01*
X0219364Y0074896D02*
X0275133Y0074896D01*
X0275514Y0075894D02*
X0219777Y0075894D01*
X0220092Y0076893D02*
X0275928Y0076893D01*
X0276888Y0077891D02*
X0220092Y0077891D01*
X0220092Y0078890D02*
X0278469Y0078890D01*
X0279034Y0079888D02*
X0219763Y0079888D01*
X0219349Y0080887D02*
X0278035Y0080887D01*
X0277037Y0081885D02*
X0218620Y0081885D01*
X0217621Y0082884D02*
X0276533Y0082884D01*
X0276533Y0083882D02*
X0217033Y0083882D01*
X0217033Y0084881D02*
X0276533Y0084881D01*
X0274817Y0085879D02*
X0217033Y0085879D01*
X0217033Y0086878D02*
X0273819Y0086878D01*
X0273368Y0087876D02*
X0217033Y0087876D01*
X0217033Y0088875D02*
X0272954Y0088875D01*
X0272933Y0089873D02*
X0217033Y0089873D01*
X0217033Y0090872D02*
X0272933Y0090872D01*
X0273263Y0091870D02*
X0217033Y0091870D01*
X0217033Y0092869D02*
X0273677Y0092869D01*
X0274564Y0093868D02*
X0217712Y0093868D01*
X0218711Y0094866D02*
X0275970Y0094866D01*
X0280697Y0094866D02*
X0305456Y0094866D01*
X0304564Y0093868D02*
X0282103Y0093868D01*
X0282990Y0092869D02*
X0303677Y0092869D01*
X0303263Y0091870D02*
X0283403Y0091870D01*
X0283733Y0090872D02*
X0302933Y0090872D01*
X0302933Y0089873D02*
X0283733Y0089873D01*
X0283712Y0088875D02*
X0302954Y0088875D01*
X0303368Y0087876D02*
X0283299Y0087876D01*
X0282848Y0086878D02*
X0303819Y0086878D01*
X0304817Y0085879D02*
X0281849Y0085879D01*
X0280933Y0084881D02*
X0306581Y0084881D01*
X0310086Y0084881D02*
X0327603Y0084881D01*
X0328601Y0085879D02*
X0311849Y0085879D01*
X0312848Y0086878D02*
X0329600Y0086878D01*
X0330598Y0087876D02*
X0313299Y0087876D01*
X0313712Y0088875D02*
X0331597Y0088875D01*
X0332596Y0089873D02*
X0313733Y0089873D01*
X0313733Y0090872D02*
X0333594Y0090872D01*
X0334593Y0091870D02*
X0313403Y0091870D01*
X0313333Y0092289D02*
X0313333Y0092289D01*
X0313914Y0092869D02*
X0335591Y0092869D01*
X0336590Y0093868D02*
X0314912Y0093868D01*
X0315911Y0094866D02*
X0337588Y0094866D01*
X0338587Y0095865D02*
X0316909Y0095865D01*
X0317908Y0096863D02*
X0339585Y0096863D01*
X0339922Y0097200D02*
X0338633Y0095911D01*
X0319222Y0076500D01*
X0310901Y0076500D01*
X0310711Y0076959D01*
X0309192Y0078478D01*
X0307207Y0079300D01*
X0305059Y0079300D01*
X0303074Y0078478D01*
X0301555Y0076959D01*
X0300733Y0074974D01*
X0300733Y0072826D01*
X0301555Y0070841D01*
X0303074Y0069322D01*
X0305059Y0068500D01*
X0307207Y0068500D01*
X0309192Y0069322D01*
X0310711Y0070841D01*
X0311233Y0072100D01*
X0321045Y0072100D01*
X0337933Y0088989D01*
X0337933Y0088926D01*
X0338755Y0086941D01*
X0340274Y0085422D01*
X0341333Y0084984D01*
X0341333Y0082389D01*
X0344433Y0079289D01*
X0342474Y0078478D01*
X0340955Y0076959D01*
X0340133Y0074974D01*
X0340133Y0072826D01*
X0340955Y0070841D01*
X0342474Y0069322D01*
X0344459Y0068500D01*
X0346607Y0068500D01*
X0348592Y0069322D01*
X0350111Y0070841D01*
X0350922Y0072800D01*
X0365972Y0057750D01*
X0365733Y0057174D01*
X0365733Y0055026D01*
X0366555Y0053041D01*
X0368074Y0051522D01*
X0370059Y0050700D01*
X0372207Y0050700D01*
X0374192Y0051522D01*
X0375711Y0053041D01*
X0376533Y0055026D01*
X0376533Y0057174D01*
X0375711Y0059159D01*
X0374192Y0060678D01*
X0372207Y0061500D01*
X0370059Y0061500D01*
X0368917Y0061027D01*
X0345733Y0084211D01*
X0345733Y0085149D01*
X0346392Y0085422D01*
X0347911Y0086941D01*
X0348733Y0088926D01*
X0348733Y0091074D01*
X0348018Y0092800D01*
X0348922Y0092800D01*
X0366030Y0075692D01*
X0365733Y0074974D01*
X0365733Y0072826D01*
X0366555Y0070841D01*
X0368074Y0069322D01*
X0370059Y0068500D01*
X0372207Y0068500D01*
X0374192Y0069322D01*
X0375711Y0070841D01*
X0376533Y0072826D01*
X0376533Y0074974D01*
X0375711Y0076959D01*
X0374192Y0078478D01*
X0372207Y0079300D01*
X0370059Y0079300D01*
X0369059Y0078886D01*
X0350745Y0097200D01*
X0339922Y0097200D01*
X0340833Y0095000D02*
X0349833Y0095000D01*
X0370533Y0074300D01*
X0371133Y0073900D01*
X0365733Y0073897D02*
X0356047Y0073897D01*
X0355049Y0074896D02*
X0365733Y0074896D01*
X0365828Y0075894D02*
X0354050Y0075894D01*
X0353052Y0076893D02*
X0364829Y0076893D01*
X0363831Y0077891D02*
X0352053Y0077891D01*
X0351055Y0078890D02*
X0362832Y0078890D01*
X0361834Y0079888D02*
X0350056Y0079888D01*
X0349058Y0080887D02*
X0360835Y0080887D01*
X0359837Y0081885D02*
X0348059Y0081885D01*
X0347061Y0082884D02*
X0358838Y0082884D01*
X0357840Y0083882D02*
X0346062Y0083882D01*
X0345733Y0084881D02*
X0356841Y0084881D01*
X0355843Y0085879D02*
X0346849Y0085879D01*
X0347848Y0086878D02*
X0354844Y0086878D01*
X0353846Y0087876D02*
X0348299Y0087876D01*
X0348712Y0088875D02*
X0352847Y0088875D01*
X0351849Y0089873D02*
X0348733Y0089873D01*
X0348733Y0090872D02*
X0350850Y0090872D01*
X0349852Y0091870D02*
X0348403Y0091870D01*
X0352080Y0095865D02*
X0356658Y0095865D01*
X0357656Y0094866D02*
X0353079Y0094866D01*
X0354077Y0093868D02*
X0358655Y0093868D01*
X0359653Y0092869D02*
X0355076Y0092869D01*
X0356074Y0091870D02*
X0360652Y0091870D01*
X0361650Y0090872D02*
X0357073Y0090872D01*
X0358071Y0089873D02*
X0362649Y0089873D01*
X0363647Y0088875D02*
X0359070Y0088875D01*
X0360068Y0087876D02*
X0368368Y0087876D01*
X0368819Y0086878D02*
X0361067Y0086878D01*
X0362065Y0085879D02*
X0369817Y0085879D01*
X0371581Y0084881D02*
X0363064Y0084881D01*
X0364062Y0083882D02*
X0383033Y0083882D01*
X0383033Y0082884D02*
X0365061Y0082884D01*
X0366059Y0081885D02*
X0383033Y0081885D01*
X0383033Y0080887D02*
X0367058Y0080887D01*
X0368056Y0079888D02*
X0383033Y0079888D01*
X0383033Y0078890D02*
X0373198Y0078890D01*
X0374779Y0077891D02*
X0383033Y0077891D01*
X0383033Y0076893D02*
X0375739Y0076893D01*
X0376152Y0075894D02*
X0383033Y0075894D01*
X0383033Y0074896D02*
X0376533Y0074896D01*
X0376533Y0073897D02*
X0383033Y0073897D01*
X0383033Y0072899D02*
X0376533Y0072899D01*
X0376150Y0071900D02*
X0383033Y0071900D01*
X0383033Y0070902D02*
X0375736Y0070902D01*
X0374773Y0069903D02*
X0383033Y0069903D01*
X0383033Y0068905D02*
X0373185Y0068905D01*
X0369082Y0068905D02*
X0361040Y0068905D01*
X0360041Y0069903D02*
X0367493Y0069903D01*
X0366530Y0070902D02*
X0359043Y0070902D01*
X0358044Y0071900D02*
X0366117Y0071900D01*
X0365733Y0072899D02*
X0357046Y0072899D01*
X0353819Y0069903D02*
X0349173Y0069903D01*
X0350136Y0070902D02*
X0352820Y0070902D01*
X0351822Y0071900D02*
X0350550Y0071900D01*
X0347585Y0068905D02*
X0354817Y0068905D01*
X0355816Y0067906D02*
X0297238Y0067906D01*
X0296240Y0068905D02*
X0304082Y0068905D01*
X0302493Y0069903D02*
X0295241Y0069903D01*
X0294243Y0070902D02*
X0301530Y0070902D01*
X0301117Y0071900D02*
X0293244Y0071900D01*
X0292246Y0072899D02*
X0300733Y0072899D01*
X0300733Y0073897D02*
X0291247Y0073897D01*
X0290249Y0074896D02*
X0300733Y0074896D01*
X0301114Y0075894D02*
X0289250Y0075894D01*
X0288252Y0076893D02*
X0301528Y0076893D01*
X0302488Y0077891D02*
X0287253Y0077891D01*
X0286255Y0078890D02*
X0304069Y0078890D01*
X0308198Y0078890D02*
X0321612Y0078890D01*
X0322610Y0079888D02*
X0285256Y0079888D01*
X0284258Y0080887D02*
X0323609Y0080887D01*
X0324607Y0081885D02*
X0283259Y0081885D01*
X0282261Y0082884D02*
X0325606Y0082884D01*
X0326604Y0083882D02*
X0281262Y0083882D01*
X0278733Y0083300D02*
X0305733Y0056300D01*
X0306133Y0056100D01*
X0309952Y0059918D02*
X0341715Y0059918D01*
X0340955Y0059159D02*
X0340133Y0057174D01*
X0340133Y0055026D01*
X0340955Y0053041D01*
X0342474Y0051522D01*
X0344459Y0050700D01*
X0346607Y0050700D01*
X0348592Y0051522D01*
X0350111Y0053041D01*
X0350933Y0055026D01*
X0350933Y0057174D01*
X0350111Y0059159D01*
X0348592Y0060678D01*
X0346607Y0061500D01*
X0344459Y0061500D01*
X0342474Y0060678D01*
X0340955Y0059159D01*
X0340856Y0058920D02*
X0310810Y0058920D01*
X0311224Y0057921D02*
X0340443Y0057921D01*
X0340133Y0056923D02*
X0311533Y0056923D01*
X0311533Y0055924D02*
X0340133Y0055924D01*
X0340175Y0054926D02*
X0311492Y0054926D01*
X0311078Y0053927D02*
X0340588Y0053927D01*
X0341068Y0052929D02*
X0310599Y0052929D01*
X0309600Y0051930D02*
X0342067Y0051930D01*
X0343900Y0050932D02*
X0307766Y0050932D01*
X0304500Y0050932D02*
X0282166Y0050932D01*
X0281607Y0050700D02*
X0283592Y0051522D01*
X0285111Y0053041D01*
X0285933Y0055026D01*
X0285933Y0057174D01*
X0285111Y0059159D01*
X0283592Y0060678D01*
X0281607Y0061500D01*
X0279459Y0061500D01*
X0277474Y0060678D01*
X0275955Y0059159D01*
X0275133Y0057174D01*
X0275133Y0055026D01*
X0275955Y0053041D01*
X0277474Y0051522D01*
X0279459Y0050700D01*
X0281607Y0050700D01*
X0284000Y0051930D02*
X0302667Y0051930D01*
X0301668Y0052929D02*
X0284999Y0052929D01*
X0285478Y0053927D02*
X0301188Y0053927D01*
X0300775Y0054926D02*
X0285892Y0054926D01*
X0285933Y0055924D02*
X0300733Y0055924D01*
X0300733Y0056923D02*
X0285933Y0056923D01*
X0285624Y0057921D02*
X0301001Y0057921D01*
X0300002Y0058920D02*
X0285210Y0058920D01*
X0284352Y0059918D02*
X0299004Y0059918D01*
X0298005Y0060917D02*
X0283016Y0060917D01*
X0278051Y0060917D02*
X0220092Y0060917D01*
X0220092Y0061915D02*
X0297007Y0061915D01*
X0296008Y0062914D02*
X0220092Y0062914D01*
X0219858Y0063912D02*
X0295010Y0063912D01*
X0294011Y0064911D02*
X0219444Y0064911D01*
X0218848Y0065909D02*
X0293013Y0065909D01*
X0292014Y0066908D02*
X0217849Y0066908D01*
X0216025Y0067906D02*
X0291016Y0067906D01*
X0290017Y0068905D02*
X0282585Y0068905D01*
X0284173Y0069903D02*
X0289019Y0069903D01*
X0288020Y0070902D02*
X0285136Y0070902D01*
X0285550Y0071900D02*
X0287022Y0071900D01*
X0286023Y0072899D02*
X0285933Y0072899D01*
X0278482Y0068905D02*
X0210740Y0068905D01*
X0209741Y0069903D02*
X0276893Y0069903D01*
X0276715Y0059918D02*
X0219683Y0059918D01*
X0219269Y0058920D02*
X0275856Y0058920D01*
X0275443Y0057921D02*
X0218426Y0057921D01*
X0217417Y0056923D02*
X0275133Y0056923D01*
X0275133Y0055924D02*
X0028633Y0055924D01*
X0028633Y0054926D02*
X0275175Y0054926D01*
X0275588Y0053927D02*
X0028633Y0053927D01*
X0028633Y0052929D02*
X0276068Y0052929D01*
X0277067Y0051930D02*
X0028633Y0051930D01*
X0028633Y0050932D02*
X0278900Y0050932D01*
X0298237Y0066908D02*
X0356814Y0066908D01*
X0357813Y0065909D02*
X0299235Y0065909D01*
X0300234Y0064911D02*
X0358811Y0064911D01*
X0359810Y0063912D02*
X0301232Y0063912D01*
X0302231Y0062914D02*
X0360808Y0062914D01*
X0361807Y0061915D02*
X0303229Y0061915D01*
X0308616Y0060917D02*
X0343051Y0060917D01*
X0348016Y0060917D02*
X0362805Y0060917D01*
X0363804Y0059918D02*
X0349352Y0059918D01*
X0350210Y0058920D02*
X0364802Y0058920D01*
X0365801Y0057921D02*
X0350624Y0057921D01*
X0350933Y0056923D02*
X0365733Y0056923D01*
X0365733Y0055924D02*
X0350933Y0055924D01*
X0350892Y0054926D02*
X0365775Y0054926D01*
X0366188Y0053927D02*
X0350478Y0053927D01*
X0349999Y0052929D02*
X0366668Y0052929D01*
X0367667Y0051930D02*
X0349000Y0051930D01*
X0347166Y0050932D02*
X0369500Y0050932D01*
X0372766Y0050932D02*
X0383033Y0050932D01*
X0383033Y0051930D02*
X0374600Y0051930D01*
X0375599Y0052929D02*
X0383033Y0052929D01*
X0383033Y0053927D02*
X0376078Y0053927D01*
X0376492Y0054926D02*
X0383033Y0054926D01*
X0383033Y0055924D02*
X0376533Y0055924D01*
X0376533Y0056923D02*
X0383033Y0056923D01*
X0383033Y0057921D02*
X0376224Y0057921D01*
X0375810Y0058920D02*
X0383033Y0058920D01*
X0383033Y0059918D02*
X0374952Y0059918D01*
X0373616Y0060917D02*
X0383033Y0060917D01*
X0383033Y0061915D02*
X0368029Y0061915D01*
X0367031Y0062914D02*
X0383033Y0062914D01*
X0383033Y0063912D02*
X0366032Y0063912D01*
X0365034Y0064911D02*
X0383033Y0064911D01*
X0383033Y0065909D02*
X0364035Y0065909D01*
X0363037Y0066908D02*
X0383033Y0066908D01*
X0383033Y0067906D02*
X0362038Y0067906D01*
X0369055Y0078890D02*
X0369069Y0078890D01*
X0375086Y0084881D02*
X0383033Y0084881D01*
X0383033Y0085879D02*
X0376849Y0085879D01*
X0377848Y0086878D02*
X0383033Y0086878D01*
X0383033Y0087876D02*
X0378299Y0087876D01*
X0378712Y0088875D02*
X0383033Y0088875D01*
X0383033Y0089873D02*
X0378733Y0089873D01*
X0378733Y0090872D02*
X0383033Y0090872D01*
X0383033Y0091870D02*
X0378403Y0091870D01*
X0377990Y0092869D02*
X0383033Y0092869D01*
X0383033Y0093868D02*
X0377103Y0093868D01*
X0375697Y0094866D02*
X0383033Y0094866D01*
X0383033Y0095865D02*
X0362880Y0095865D01*
X0361882Y0096863D02*
X0383033Y0096863D01*
X0383033Y0097862D02*
X0360883Y0097862D01*
X0359885Y0098860D02*
X0383033Y0098860D01*
X0383033Y0099859D02*
X0358886Y0099859D01*
X0357887Y0100857D02*
X0383033Y0100857D01*
X0383033Y0101856D02*
X0356889Y0101856D01*
X0355890Y0102854D02*
X0383033Y0102854D01*
X0383033Y0103853D02*
X0354892Y0103853D01*
X0353893Y0104851D02*
X0383033Y0104851D01*
X0383033Y0105850D02*
X0352895Y0105850D01*
X0351896Y0106848D02*
X0383033Y0106848D01*
X0383033Y0107847D02*
X0350898Y0107847D01*
X0349899Y0108845D02*
X0383033Y0108845D01*
X0383033Y0109844D02*
X0348901Y0109844D01*
X0347902Y0110842D02*
X0383033Y0110842D01*
X0383033Y0111841D02*
X0346904Y0111841D01*
X0345905Y0112839D02*
X0383033Y0112839D01*
X0383033Y0113838D02*
X0344907Y0113838D01*
X0344275Y0114836D02*
X0383033Y0114836D01*
X0383033Y0115835D02*
X0344329Y0115835D01*
X0344329Y0116833D02*
X0383033Y0116833D01*
X0383033Y0117832D02*
X0343998Y0117832D01*
X0343585Y0118830D02*
X0383033Y0118830D01*
X0383033Y0119829D02*
X0342654Y0119829D01*
X0341063Y0120827D02*
X0383033Y0120827D01*
X0383033Y0121826D02*
X0284719Y0121826D01*
X0285717Y0120827D02*
X0311604Y0120827D01*
X0312504Y0121200D02*
X0310592Y0120408D01*
X0309130Y0118946D01*
X0308338Y0117034D01*
X0308338Y0114966D01*
X0309130Y0113054D01*
X0310592Y0111592D01*
X0312504Y0110800D01*
X0314572Y0110800D01*
X0316484Y0111592D01*
X0317946Y0113054D01*
X0318738Y0114966D01*
X0318738Y0117034D01*
X0317946Y0118946D01*
X0316484Y0120408D01*
X0314572Y0121200D01*
X0312504Y0121200D01*
X0310013Y0119829D02*
X0286716Y0119829D01*
X0287714Y0118830D02*
X0309082Y0118830D01*
X0308668Y0117832D02*
X0288713Y0117832D01*
X0289711Y0116833D02*
X0308338Y0116833D01*
X0308338Y0115835D02*
X0290710Y0115835D01*
X0291708Y0114836D02*
X0308392Y0114836D01*
X0308805Y0113838D02*
X0292707Y0113838D01*
X0293705Y0112839D02*
X0309345Y0112839D01*
X0310343Y0111841D02*
X0294704Y0111841D01*
X0295702Y0110842D02*
X0312402Y0110842D01*
X0314674Y0110842D02*
X0325664Y0110842D01*
X0324666Y0109844D02*
X0296701Y0109844D01*
X0297699Y0108845D02*
X0323667Y0108845D01*
X0322669Y0107847D02*
X0298698Y0107847D01*
X0299696Y0106848D02*
X0321670Y0106848D01*
X0320672Y0105850D02*
X0300695Y0105850D01*
X0301693Y0104851D02*
X0319673Y0104851D01*
X0318675Y0103853D02*
X0302692Y0103853D01*
X0303690Y0102854D02*
X0317676Y0102854D01*
X0316678Y0101856D02*
X0304689Y0101856D01*
X0305688Y0100857D02*
X0315679Y0100857D01*
X0314681Y0099859D02*
X0306686Y0099859D01*
X0307685Y0098860D02*
X0313682Y0098860D01*
X0312684Y0097862D02*
X0308683Y0097862D01*
X0309682Y0096863D02*
X0311685Y0096863D01*
X0310687Y0095865D02*
X0310680Y0095865D01*
X0310233Y0093200D02*
X0311133Y0093200D01*
X0333633Y0115700D01*
X0339033Y0115700D01*
X0339129Y0116000D01*
X0339933Y0115700D01*
X0365133Y0090500D01*
X0373233Y0090500D01*
X0373333Y0090000D01*
X0369564Y0093868D02*
X0364877Y0093868D01*
X0363879Y0094866D02*
X0370970Y0094866D01*
X0368677Y0092869D02*
X0365876Y0092869D01*
X0355659Y0096863D02*
X0351082Y0096863D01*
X0353662Y0098860D02*
X0319905Y0098860D01*
X0320903Y0099859D02*
X0352663Y0099859D01*
X0351665Y0100857D02*
X0321902Y0100857D01*
X0322900Y0101856D02*
X0350666Y0101856D01*
X0349668Y0102854D02*
X0323899Y0102854D01*
X0324897Y0103853D02*
X0348669Y0103853D01*
X0347671Y0104851D02*
X0325896Y0104851D01*
X0326894Y0105850D02*
X0346672Y0105850D01*
X0345674Y0106848D02*
X0327893Y0106848D01*
X0328891Y0107847D02*
X0344675Y0107847D01*
X0343677Y0108845D02*
X0329890Y0108845D01*
X0330888Y0109844D02*
X0342678Y0109844D01*
X0341680Y0110842D02*
X0340265Y0110842D01*
X0337992Y0110842D02*
X0331887Y0110842D01*
X0332885Y0111841D02*
X0335934Y0111841D01*
X0334935Y0112839D02*
X0333884Y0112839D01*
X0330657Y0115835D02*
X0318738Y0115835D01*
X0318738Y0116833D02*
X0331655Y0116833D01*
X0332654Y0117832D02*
X0318408Y0117832D01*
X0317994Y0118830D02*
X0334673Y0118830D01*
X0335603Y0119829D02*
X0317063Y0119829D01*
X0315472Y0120827D02*
X0337195Y0120827D01*
X0329658Y0114836D02*
X0318684Y0114836D01*
X0318271Y0113838D02*
X0328660Y0113838D01*
X0327661Y0112839D02*
X0317731Y0112839D01*
X0316733Y0111841D02*
X0326663Y0111841D01*
X0318906Y0097862D02*
X0354660Y0097862D01*
X0343333Y0090000D02*
X0343533Y0089600D01*
X0343533Y0083300D01*
X0370533Y0056300D01*
X0371133Y0056100D01*
X0383033Y0049933D02*
X0028633Y0049933D01*
X0028633Y0048934D02*
X0383033Y0048934D01*
X0383033Y0047936D02*
X0028633Y0047936D01*
X0028633Y0046937D02*
X0383033Y0046937D01*
X0383033Y0045939D02*
X0028633Y0045939D01*
X0028633Y0056923D02*
X0210509Y0056923D01*
X0209500Y0057921D02*
X0028633Y0057921D01*
X0028633Y0058920D02*
X0208657Y0058920D01*
X0208244Y0059918D02*
X0028633Y0059918D01*
X0028633Y0060917D02*
X0207834Y0060917D01*
X0207834Y0061915D02*
X0028633Y0061915D01*
X0028633Y0062914D02*
X0207834Y0062914D01*
X0208069Y0063912D02*
X0028633Y0063912D01*
X0028633Y0064911D02*
X0208483Y0064911D01*
X0207513Y0065909D02*
X0028633Y0065909D01*
X0028633Y0066908D02*
X0206514Y0066908D01*
X0205516Y0067906D02*
X0028633Y0067906D01*
X0028633Y0068905D02*
X0204517Y0068905D01*
X0203519Y0069903D02*
X0028633Y0069903D01*
X0028633Y0070902D02*
X0202520Y0070902D01*
X0201522Y0071900D02*
X0044298Y0071900D01*
X0043923Y0071745D02*
X0046175Y0072678D01*
X0047899Y0074402D01*
X0048833Y0076655D01*
X0048833Y0079093D01*
X0047899Y0081346D01*
X0046175Y0083070D01*
X0043923Y0084003D01*
X0041484Y0084003D01*
X0039232Y0083070D01*
X0037507Y0081346D01*
X0036574Y0079093D01*
X0036574Y0076655D01*
X0037507Y0074402D01*
X0039232Y0072678D01*
X0041484Y0071745D01*
X0043923Y0071745D01*
X0046396Y0072899D02*
X0200523Y0072899D01*
X0199525Y0073897D02*
X0047395Y0073897D01*
X0048104Y0074896D02*
X0198526Y0074896D01*
X0197528Y0075894D02*
X0048517Y0075894D01*
X0048833Y0076893D02*
X0196529Y0076893D01*
X0195531Y0077891D02*
X0048833Y0077891D01*
X0048833Y0078890D02*
X0194532Y0078890D01*
X0193534Y0079888D02*
X0048503Y0079888D01*
X0048090Y0080887D02*
X0192535Y0080887D01*
X0191537Y0081885D02*
X0047360Y0081885D01*
X0046361Y0082884D02*
X0190538Y0082884D01*
X0189540Y0083882D02*
X0044214Y0083882D01*
X0041193Y0083882D02*
X0028633Y0083882D01*
X0028633Y0082884D02*
X0039045Y0082884D01*
X0038047Y0081885D02*
X0028633Y0081885D01*
X0028633Y0080887D02*
X0037317Y0080887D01*
X0036904Y0079888D02*
X0028633Y0079888D01*
X0028633Y0078890D02*
X0036574Y0078890D01*
X0036574Y0077891D02*
X0028633Y0077891D01*
X0028633Y0076893D02*
X0036574Y0076893D01*
X0036889Y0075894D02*
X0028633Y0075894D01*
X0028633Y0074896D02*
X0037303Y0074896D01*
X0038012Y0073897D02*
X0028633Y0073897D01*
X0028633Y0072899D02*
X0039011Y0072899D01*
X0041109Y0071900D02*
X0028633Y0071900D01*
X0028633Y0084881D02*
X0188541Y0084881D01*
X0187543Y0085879D02*
X0028633Y0085879D01*
X0028633Y0086878D02*
X0186544Y0086878D01*
X0185546Y0087876D02*
X0028633Y0087876D01*
X0028633Y0088875D02*
X0184547Y0088875D01*
X0183549Y0089873D02*
X0028633Y0089873D01*
X0028633Y0090872D02*
X0182550Y0090872D01*
X0181552Y0091870D02*
X0028633Y0091870D01*
X0028633Y0092869D02*
X0180553Y0092869D01*
X0179555Y0093868D02*
X0028633Y0093868D01*
X0028633Y0094866D02*
X0178556Y0094866D01*
X0177558Y0095865D02*
X0028633Y0095865D01*
X0028633Y0096863D02*
X0176559Y0096863D01*
X0175560Y0097862D02*
X0117306Y0097862D01*
X0118305Y0098860D02*
X0174562Y0098860D01*
X0173563Y0099859D02*
X0119303Y0099859D01*
X0120302Y0100857D02*
X0172565Y0100857D01*
X0171566Y0101856D02*
X0121300Y0101856D01*
X0122299Y0102854D02*
X0170568Y0102854D01*
X0169569Y0103853D02*
X0149098Y0103853D01*
X0151621Y0104851D02*
X0168571Y0104851D01*
X0167572Y0105850D02*
X0153239Y0105850D01*
X0154238Y0106848D02*
X0166574Y0106848D01*
X0165575Y0107847D02*
X0155194Y0107847D01*
X0155770Y0108845D02*
X0164577Y0108845D01*
X0163578Y0109844D02*
X0156347Y0109844D01*
X0156741Y0110842D02*
X0162580Y0110842D01*
X0161581Y0111841D02*
X0157009Y0111841D01*
X0157276Y0112839D02*
X0160583Y0112839D01*
X0159584Y0113838D02*
X0157333Y0113838D01*
X0157333Y0114836D02*
X0158586Y0114836D01*
X0157587Y0115835D02*
X0157333Y0115835D01*
X0142352Y0124821D02*
X0139633Y0124821D01*
X0139633Y0123823D02*
X0140481Y0123823D01*
X0137433Y0121100D02*
X0137433Y0146300D01*
X0242733Y0251600D01*
X0246433Y0251632D02*
X0319754Y0251632D01*
X0318756Y0250634D02*
X0246338Y0250634D01*
X0245924Y0249635D02*
X0317757Y0249635D01*
X0316759Y0248637D02*
X0245003Y0248637D01*
X0241883Y0247638D02*
X0315760Y0247638D01*
X0314762Y0246640D02*
X0240884Y0246640D01*
X0239886Y0245641D02*
X0313763Y0245641D01*
X0312765Y0244643D02*
X0238887Y0244643D01*
X0237889Y0243644D02*
X0311766Y0243644D01*
X0310768Y0242646D02*
X0236890Y0242646D01*
X0235892Y0241647D02*
X0309769Y0241647D01*
X0308771Y0240649D02*
X0234893Y0240649D01*
X0233895Y0239650D02*
X0307772Y0239650D01*
X0306774Y0238652D02*
X0232896Y0238652D01*
X0231898Y0237653D02*
X0305775Y0237653D01*
X0304777Y0236655D02*
X0230899Y0236655D01*
X0229901Y0235656D02*
X0303778Y0235656D01*
X0302780Y0234658D02*
X0228902Y0234658D01*
X0227904Y0233659D02*
X0301781Y0233659D01*
X0300783Y0232661D02*
X0226905Y0232661D01*
X0225907Y0231662D02*
X0299784Y0231662D01*
X0298786Y0230664D02*
X0224908Y0230664D01*
X0223910Y0229665D02*
X0297787Y0229665D01*
X0296789Y0228667D02*
X0222911Y0228667D01*
X0221913Y0227668D02*
X0295790Y0227668D01*
X0294792Y0226670D02*
X0220914Y0226670D01*
X0219916Y0225671D02*
X0293793Y0225671D01*
X0292795Y0224672D02*
X0218917Y0224672D01*
X0217919Y0223674D02*
X0291796Y0223674D01*
X0290798Y0222675D02*
X0216920Y0222675D01*
X0215922Y0221677D02*
X0289799Y0221677D01*
X0288801Y0220678D02*
X0214923Y0220678D01*
X0213925Y0219680D02*
X0287802Y0219680D01*
X0286803Y0218681D02*
X0212926Y0218681D01*
X0211928Y0217683D02*
X0285805Y0217683D01*
X0284806Y0216684D02*
X0210929Y0216684D01*
X0209930Y0215686D02*
X0283808Y0215686D01*
X0282809Y0214687D02*
X0208932Y0214687D01*
X0207933Y0213689D02*
X0281811Y0213689D01*
X0280812Y0212690D02*
X0206935Y0212690D01*
X0205936Y0211692D02*
X0279814Y0211692D01*
X0278815Y0210693D02*
X0204938Y0210693D01*
X0203939Y0209695D02*
X0277817Y0209695D01*
X0276818Y0208696D02*
X0202941Y0208696D01*
X0201942Y0207698D02*
X0275820Y0207698D01*
X0274821Y0206699D02*
X0200944Y0206699D01*
X0199945Y0205701D02*
X0273823Y0205701D01*
X0272824Y0204702D02*
X0198947Y0204702D01*
X0197948Y0203704D02*
X0271826Y0203704D01*
X0270827Y0202705D02*
X0196950Y0202705D01*
X0195951Y0201707D02*
X0269829Y0201707D01*
X0268830Y0200708D02*
X0194953Y0200708D01*
X0193954Y0199710D02*
X0267832Y0199710D01*
X0266833Y0198711D02*
X0192956Y0198711D01*
X0191957Y0197713D02*
X0265835Y0197713D01*
X0264836Y0196714D02*
X0190959Y0196714D01*
X0189960Y0195716D02*
X0263838Y0195716D01*
X0262839Y0194717D02*
X0188962Y0194717D01*
X0187963Y0193719D02*
X0261841Y0193719D01*
X0260842Y0192720D02*
X0186965Y0192720D01*
X0185966Y0191722D02*
X0259844Y0191722D01*
X0258845Y0190723D02*
X0184968Y0190723D01*
X0183969Y0189725D02*
X0257847Y0189725D01*
X0256848Y0188726D02*
X0182971Y0188726D01*
X0181972Y0187728D02*
X0255850Y0187728D01*
X0254851Y0186729D02*
X0180974Y0186729D01*
X0179975Y0185731D02*
X0253853Y0185731D01*
X0252854Y0184732D02*
X0178977Y0184732D01*
X0177978Y0183734D02*
X0251856Y0183734D01*
X0250857Y0182735D02*
X0176980Y0182735D01*
X0175981Y0181737D02*
X0249859Y0181737D01*
X0248860Y0180738D02*
X0174983Y0180738D01*
X0173984Y0179739D02*
X0247862Y0179739D01*
X0246863Y0178741D02*
X0172986Y0178741D01*
X0171987Y0177742D02*
X0245865Y0177742D01*
X0244866Y0176744D02*
X0170989Y0176744D01*
X0169990Y0175745D02*
X0243867Y0175745D01*
X0242869Y0174747D02*
X0168992Y0174747D01*
X0167993Y0173748D02*
X0241870Y0173748D01*
X0240872Y0172750D02*
X0166995Y0172750D01*
X0165996Y0171751D02*
X0239873Y0171751D01*
X0238875Y0170753D02*
X0164997Y0170753D01*
X0163999Y0169754D02*
X0237876Y0169754D01*
X0236878Y0168756D02*
X0163000Y0168756D01*
X0162002Y0167757D02*
X0235879Y0167757D01*
X0234881Y0166759D02*
X0161003Y0166759D01*
X0160005Y0165760D02*
X0233882Y0165760D01*
X0232884Y0164762D02*
X0159006Y0164762D01*
X0158008Y0163763D02*
X0231885Y0163763D01*
X0230887Y0162765D02*
X0157009Y0162765D01*
X0156011Y0161766D02*
X0229888Y0161766D01*
X0228890Y0160768D02*
X0155012Y0160768D01*
X0154014Y0159769D02*
X0227891Y0159769D01*
X0226893Y0158771D02*
X0153015Y0158771D01*
X0152017Y0157772D02*
X0225894Y0157772D01*
X0224896Y0156774D02*
X0151018Y0156774D01*
X0150020Y0155775D02*
X0223897Y0155775D01*
X0222899Y0154777D02*
X0149021Y0154777D01*
X0148023Y0153778D02*
X0221900Y0153778D01*
X0220902Y0152780D02*
X0147024Y0152780D01*
X0146026Y0151781D02*
X0219903Y0151781D01*
X0218905Y0150783D02*
X0145027Y0150783D01*
X0144029Y0149784D02*
X0217906Y0149784D01*
X0216908Y0148786D02*
X0143030Y0148786D01*
X0142032Y0147787D02*
X0215909Y0147787D01*
X0214911Y0146789D02*
X0141033Y0146789D01*
X0140035Y0145790D02*
X0213912Y0145790D01*
X0199933Y0131811D02*
X0147834Y0131811D01*
X0148832Y0130812D02*
X0198934Y0130812D01*
X0197936Y0129814D02*
X0149831Y0129814D01*
X0144633Y0131900D02*
X0213933Y0062600D01*
X0213963Y0062126D01*
X0211902Y0067906D02*
X0211738Y0067906D01*
X0207834Y0078890D02*
X0200755Y0078890D01*
X0199756Y0079888D02*
X0208163Y0079888D01*
X0208577Y0080887D02*
X0198758Y0080887D01*
X0197759Y0081885D02*
X0209307Y0081885D01*
X0210305Y0082884D02*
X0196761Y0082884D01*
X0195762Y0083882D02*
X0212453Y0083882D01*
X0212633Y0084881D02*
X0194764Y0084881D01*
X0193765Y0085879D02*
X0212633Y0085879D01*
X0212633Y0086878D02*
X0192767Y0086878D01*
X0191768Y0087876D02*
X0212633Y0087876D01*
X0212633Y0088875D02*
X0190770Y0088875D01*
X0189771Y0089873D02*
X0212633Y0089873D01*
X0212633Y0090872D02*
X0188773Y0090872D01*
X0187774Y0091870D02*
X0212633Y0091870D01*
X0212633Y0092869D02*
X0186776Y0092869D01*
X0185777Y0093868D02*
X0212633Y0093868D01*
X0212633Y0094866D02*
X0184779Y0094866D01*
X0183780Y0095865D02*
X0213487Y0095865D01*
X0214485Y0096863D02*
X0182782Y0096863D01*
X0181783Y0097862D02*
X0215484Y0097862D01*
X0219709Y0095865D02*
X0304458Y0095865D01*
X0303459Y0096863D02*
X0220708Y0096863D01*
X0221706Y0097862D02*
X0302460Y0097862D01*
X0301462Y0098860D02*
X0222705Y0098860D01*
X0223703Y0099859D02*
X0246635Y0099859D01*
X0244839Y0100857D02*
X0224702Y0100857D01*
X0225700Y0101856D02*
X0243841Y0101856D01*
X0243377Y0102854D02*
X0226699Y0102854D01*
X0227697Y0103853D02*
X0242964Y0103853D01*
X0242933Y0104851D02*
X0228696Y0104851D01*
X0229694Y0105850D02*
X0242933Y0105850D01*
X0243254Y0106848D02*
X0230693Y0106848D01*
X0231691Y0107847D02*
X0243668Y0107847D01*
X0244542Y0108845D02*
X0232690Y0108845D01*
X0233688Y0109844D02*
X0245916Y0109844D01*
X0250750Y0109844D02*
X0255916Y0109844D01*
X0256733Y0110842D02*
X0234687Y0110842D01*
X0235685Y0111841D02*
X0256733Y0111841D01*
X0256733Y0112839D02*
X0236684Y0112839D01*
X0237682Y0113838D02*
X0256733Y0113838D01*
X0256733Y0114836D02*
X0238681Y0114836D01*
X0239679Y0115835D02*
X0256733Y0115835D01*
X0256955Y0116833D02*
X0240433Y0116833D01*
X0240433Y0117832D02*
X0257954Y0117832D01*
X0258952Y0118830D02*
X0240433Y0118830D01*
X0240433Y0119829D02*
X0259951Y0119829D01*
X0260949Y0120827D02*
X0241797Y0120827D01*
X0242796Y0121826D02*
X0261948Y0121826D01*
X0262946Y0122824D02*
X0243277Y0122824D01*
X0243691Y0123823D02*
X0262976Y0123823D01*
X0262933Y0124821D02*
X0243733Y0124821D01*
X0243733Y0125820D02*
X0262933Y0125820D01*
X0263242Y0126818D02*
X0243425Y0126818D01*
X0243011Y0127817D02*
X0263655Y0127817D01*
X0264512Y0128815D02*
X0242155Y0128815D01*
X0241333Y0129814D02*
X0265844Y0129814D01*
X0268511Y0131811D02*
X0241333Y0131811D01*
X0241333Y0132809D02*
X0267513Y0132809D01*
X0266514Y0133808D02*
X0241333Y0133808D01*
X0241333Y0134806D02*
X0265516Y0134806D01*
X0264517Y0135805D02*
X0241333Y0135805D01*
X0241333Y0136803D02*
X0263519Y0136803D01*
X0262520Y0137802D02*
X0241333Y0137802D01*
X0241333Y0138801D02*
X0261522Y0138801D01*
X0260523Y0139799D02*
X0241333Y0139799D01*
X0242142Y0140798D02*
X0259525Y0140798D01*
X0258526Y0141796D02*
X0243141Y0141796D01*
X0244139Y0142795D02*
X0257527Y0142795D01*
X0256529Y0143793D02*
X0245138Y0143793D01*
X0246136Y0144792D02*
X0255530Y0144792D01*
X0254532Y0145790D02*
X0247135Y0145790D01*
X0248133Y0146789D02*
X0253533Y0146789D01*
X0252535Y0147787D02*
X0249132Y0147787D01*
X0250130Y0148786D02*
X0251536Y0148786D01*
X0250833Y0152600D02*
X0253333Y0155000D01*
X0252633Y0154400D01*
X0250833Y0152600D01*
X0277833Y0125600D01*
X0278333Y0125000D01*
X0278733Y0124700D01*
X0310233Y0093200D01*
X0311133Y0093200D02*
X0308433Y0090500D01*
X0308333Y0090000D01*
X0309779Y0077891D02*
X0320613Y0077891D01*
X0319615Y0076893D02*
X0310739Y0076893D01*
X0306633Y0074300D02*
X0306133Y0073900D01*
X0306633Y0074300D02*
X0320133Y0074300D01*
X0340833Y0095000D01*
X0337954Y0088875D02*
X0337820Y0088875D01*
X0338368Y0087876D02*
X0336821Y0087876D01*
X0335823Y0086878D02*
X0338819Y0086878D01*
X0339817Y0085879D02*
X0334824Y0085879D01*
X0333825Y0084881D02*
X0341333Y0084881D01*
X0341333Y0083882D02*
X0332827Y0083882D01*
X0331828Y0082884D02*
X0341333Y0082884D01*
X0341837Y0081885D02*
X0330830Y0081885D01*
X0329831Y0080887D02*
X0342835Y0080887D01*
X0343834Y0079888D02*
X0328833Y0079888D01*
X0327834Y0078890D02*
X0343469Y0078890D01*
X0341888Y0077891D02*
X0326836Y0077891D01*
X0325837Y0076893D02*
X0340928Y0076893D01*
X0340514Y0075894D02*
X0324839Y0075894D01*
X0323840Y0074896D02*
X0340133Y0074896D01*
X0340133Y0073897D02*
X0322842Y0073897D01*
X0321843Y0072899D02*
X0340133Y0072899D01*
X0340517Y0071900D02*
X0311150Y0071900D01*
X0310736Y0070902D02*
X0340930Y0070902D01*
X0341893Y0069903D02*
X0309773Y0069903D01*
X0308185Y0068905D02*
X0343482Y0068905D01*
X0300463Y0099859D02*
X0290032Y0099859D01*
X0291827Y0100857D02*
X0299465Y0100857D01*
X0298466Y0101856D02*
X0292826Y0101856D01*
X0293289Y0102854D02*
X0297468Y0102854D01*
X0296469Y0103853D02*
X0293703Y0103853D01*
X0293733Y0104851D02*
X0295471Y0104851D01*
X0294472Y0105850D02*
X0293733Y0105850D01*
X0293474Y0106848D02*
X0293413Y0106848D01*
X0289480Y0110842D02*
X0261133Y0110842D01*
X0261133Y0109844D02*
X0285916Y0109844D01*
X0284542Y0108845D02*
X0262125Y0108845D01*
X0262999Y0107847D02*
X0283668Y0107847D01*
X0283254Y0106848D02*
X0263413Y0106848D01*
X0263733Y0105850D02*
X0282933Y0105850D01*
X0282933Y0104851D02*
X0263733Y0104851D01*
X0263703Y0103853D02*
X0282964Y0103853D01*
X0283377Y0102854D02*
X0263289Y0102854D01*
X0262826Y0101856D02*
X0283841Y0101856D01*
X0284839Y0100857D02*
X0261827Y0100857D01*
X0260032Y0099859D02*
X0286635Y0099859D01*
X0288481Y0111841D02*
X0261133Y0111841D01*
X0261133Y0112839D02*
X0287483Y0112839D01*
X0286484Y0113838D02*
X0261133Y0113838D01*
X0261181Y0114836D02*
X0285486Y0114836D01*
X0284487Y0115835D02*
X0262179Y0115835D01*
X0263178Y0116833D02*
X0283489Y0116833D01*
X0282490Y0117832D02*
X0264176Y0117832D01*
X0265175Y0118830D02*
X0281492Y0118830D01*
X0280493Y0119829D02*
X0279960Y0119829D01*
X0276707Y0119829D02*
X0269960Y0119829D01*
X0271797Y0120827D02*
X0274869Y0120827D01*
X0273871Y0121826D02*
X0272796Y0121826D01*
X0273277Y0122824D02*
X0273390Y0122824D01*
X0268333Y0125000D02*
X0267933Y0124700D01*
X0258933Y0115700D01*
X0258933Y0105800D01*
X0258333Y0105000D01*
X0256635Y0099859D02*
X0250032Y0099859D01*
X0251827Y0100857D02*
X0254839Y0100857D01*
X0253841Y0101856D02*
X0252826Y0101856D01*
X0253289Y0102854D02*
X0253377Y0102854D01*
X0253668Y0107847D02*
X0252999Y0107847D01*
X0252125Y0108845D02*
X0254542Y0108845D01*
X0266173Y0119829D02*
X0266707Y0119829D01*
X0269510Y0130812D02*
X0241333Y0130812D01*
X0239133Y0125600D02*
X0238333Y0125000D01*
X0239133Y0125600D02*
X0239133Y0140900D01*
X0250833Y0152600D01*
X0248637Y0157772D02*
X0248030Y0157772D01*
X0247199Y0158771D02*
X0249467Y0158771D01*
X0250736Y0159769D02*
X0245930Y0159769D01*
X0245012Y0160768D02*
X0383033Y0160768D01*
X0383033Y0161766D02*
X0246011Y0161766D01*
X0247009Y0162765D02*
X0383033Y0162765D01*
X0383033Y0163763D02*
X0248008Y0163763D01*
X0249006Y0164762D02*
X0383033Y0164762D01*
X0383033Y0165760D02*
X0250005Y0165760D01*
X0251003Y0166759D02*
X0383033Y0166759D01*
X0383033Y0167757D02*
X0252002Y0167757D01*
X0253000Y0168756D02*
X0383033Y0168756D01*
X0383033Y0169754D02*
X0253999Y0169754D01*
X0254997Y0170753D02*
X0383033Y0170753D01*
X0383033Y0171751D02*
X0255996Y0171751D01*
X0256994Y0172750D02*
X0383033Y0172750D01*
X0383033Y0173748D02*
X0257993Y0173748D01*
X0258992Y0174747D02*
X0383033Y0174747D01*
X0383033Y0175745D02*
X0259990Y0175745D01*
X0260989Y0176744D02*
X0383033Y0176744D01*
X0383033Y0177742D02*
X0261987Y0177742D01*
X0262986Y0178741D02*
X0383033Y0178741D01*
X0383033Y0179739D02*
X0263984Y0179739D01*
X0264983Y0180738D02*
X0383033Y0180738D01*
X0383033Y0181737D02*
X0265981Y0181737D01*
X0266980Y0182735D02*
X0383033Y0182735D01*
X0383033Y0183734D02*
X0267978Y0183734D01*
X0268977Y0184732D02*
X0383033Y0184732D01*
X0383033Y0185731D02*
X0269975Y0185731D01*
X0270974Y0186729D02*
X0383033Y0186729D01*
X0383033Y0187728D02*
X0271972Y0187728D01*
X0272971Y0188726D02*
X0383033Y0188726D01*
X0383033Y0189725D02*
X0273969Y0189725D01*
X0274968Y0190723D02*
X0383033Y0190723D01*
X0383033Y0191722D02*
X0275966Y0191722D01*
X0276965Y0192720D02*
X0383033Y0192720D01*
X0383033Y0193719D02*
X0277963Y0193719D01*
X0278962Y0194717D02*
X0383033Y0194717D01*
X0383033Y0195716D02*
X0279960Y0195716D01*
X0280959Y0196714D02*
X0383033Y0196714D01*
X0383033Y0197713D02*
X0281957Y0197713D01*
X0282956Y0198711D02*
X0383033Y0198711D01*
X0383033Y0199710D02*
X0283954Y0199710D01*
X0284953Y0200708D02*
X0383033Y0200708D01*
X0383033Y0201707D02*
X0285951Y0201707D01*
X0286950Y0202705D02*
X0383033Y0202705D01*
X0383033Y0203704D02*
X0287948Y0203704D01*
X0288947Y0204702D02*
X0383033Y0204702D01*
X0383033Y0205701D02*
X0289945Y0205701D01*
X0290944Y0206699D02*
X0383033Y0206699D01*
X0383033Y0207698D02*
X0291942Y0207698D01*
X0292941Y0208696D02*
X0383033Y0208696D01*
X0383033Y0209695D02*
X0293939Y0209695D01*
X0294938Y0210693D02*
X0383033Y0210693D01*
X0383033Y0211692D02*
X0295936Y0211692D01*
X0296935Y0212690D02*
X0383033Y0212690D01*
X0383033Y0213689D02*
X0297933Y0213689D01*
X0298932Y0214687D02*
X0383033Y0214687D01*
X0383033Y0215686D02*
X0299930Y0215686D01*
X0300929Y0216684D02*
X0383033Y0216684D01*
X0383033Y0217683D02*
X0301927Y0217683D01*
X0302926Y0218681D02*
X0383033Y0218681D01*
X0383033Y0219680D02*
X0303925Y0219680D01*
X0304923Y0220678D02*
X0383033Y0220678D01*
X0383033Y0221677D02*
X0305922Y0221677D01*
X0306920Y0222675D02*
X0383033Y0222675D01*
X0383033Y0223674D02*
X0307919Y0223674D01*
X0308917Y0224672D02*
X0383033Y0224672D01*
X0383033Y0225671D02*
X0309916Y0225671D01*
X0310914Y0226670D02*
X0383033Y0226670D01*
X0383033Y0227668D02*
X0311913Y0227668D01*
X0312911Y0228667D02*
X0383033Y0228667D01*
X0383033Y0229665D02*
X0313910Y0229665D01*
X0314908Y0230664D02*
X0383033Y0230664D01*
X0383033Y0231662D02*
X0315907Y0231662D01*
X0316905Y0232661D02*
X0383033Y0232661D01*
X0383033Y0233659D02*
X0317904Y0233659D01*
X0318902Y0234658D02*
X0383033Y0234658D01*
X0383033Y0235656D02*
X0319901Y0235656D01*
X0320899Y0236655D02*
X0383033Y0236655D01*
X0383033Y0237653D02*
X0321898Y0237653D01*
X0322896Y0238652D02*
X0383033Y0238652D01*
X0383033Y0239650D02*
X0323895Y0239650D01*
X0324893Y0240649D02*
X0383033Y0240649D01*
X0383033Y0241647D02*
X0325892Y0241647D01*
X0326890Y0242646D02*
X0383033Y0242646D01*
X0383033Y0243644D02*
X0327889Y0243644D01*
X0328887Y0244643D02*
X0383033Y0244643D01*
X0383033Y0245641D02*
X0329886Y0245641D01*
X0330884Y0246640D02*
X0383033Y0246640D01*
X0383033Y0247638D02*
X0331883Y0247638D01*
X0332881Y0248637D02*
X0383033Y0248637D01*
X0383033Y0249635D02*
X0333880Y0249635D01*
X0334878Y0250634D02*
X0383033Y0250634D01*
X0383033Y0251632D02*
X0335877Y0251632D01*
X0336875Y0252631D02*
X0383033Y0252631D01*
X0383033Y0253629D02*
X0337874Y0253629D01*
X0338872Y0254628D02*
X0383033Y0254628D01*
X0383033Y0255626D02*
X0339871Y0255626D01*
X0340869Y0256625D02*
X0383033Y0256625D01*
X0383033Y0257623D02*
X0341868Y0257623D01*
X0342866Y0258622D02*
X0383033Y0258622D01*
X0383033Y0259620D02*
X0343865Y0259620D01*
X0344863Y0260619D02*
X0383033Y0260619D01*
X0383033Y0261617D02*
X0345862Y0261617D01*
X0346861Y0262616D02*
X0383033Y0262616D01*
X0383033Y0263614D02*
X0347859Y0263614D01*
X0348858Y0264613D02*
X0383033Y0264613D01*
X0383033Y0265611D02*
X0349856Y0265611D01*
X0350855Y0266610D02*
X0383033Y0266610D01*
X0383033Y0267608D02*
X0351853Y0267608D01*
X0352852Y0268607D02*
X0383033Y0268607D01*
X0383033Y0269605D02*
X0353850Y0269605D01*
X0354849Y0270604D02*
X0383033Y0270604D01*
X0383033Y0271603D02*
X0355847Y0271603D01*
X0356846Y0272601D02*
X0383033Y0272601D01*
X0383033Y0273600D02*
X0357844Y0273600D01*
X0358843Y0274598D02*
X0383033Y0274598D01*
X0383033Y0275597D02*
X0359841Y0275597D01*
X0360840Y0276595D02*
X0383033Y0276595D01*
X0383033Y0277594D02*
X0361838Y0277594D01*
X0362837Y0278592D02*
X0383033Y0278592D01*
X0383033Y0279591D02*
X0363835Y0279591D01*
X0364834Y0280589D02*
X0383033Y0280589D01*
X0383033Y0281588D02*
X0365832Y0281588D01*
X0366831Y0282586D02*
X0383033Y0282586D01*
X0383033Y0283585D02*
X0367829Y0283585D01*
X0368828Y0284583D02*
X0383033Y0284583D01*
X0383033Y0285582D02*
X0369826Y0285582D01*
X0370825Y0286580D02*
X0383033Y0286580D01*
X0383033Y0287579D02*
X0370933Y0287579D01*
X0370933Y0288577D02*
X0383033Y0288577D01*
X0383033Y0289576D02*
X0370933Y0289576D01*
X0370933Y0290574D02*
X0383033Y0290574D01*
X0383033Y0291573D02*
X0370933Y0291573D01*
X0370933Y0292571D02*
X0383033Y0292571D01*
X0383033Y0293570D02*
X0370933Y0293570D01*
X0370933Y0294568D02*
X0383033Y0294568D01*
X0383033Y0295567D02*
X0370933Y0295567D01*
X0370933Y0296565D02*
X0383033Y0296565D01*
X0383033Y0297564D02*
X0370933Y0297564D01*
X0370933Y0298562D02*
X0383033Y0298562D01*
X0383033Y0299561D02*
X0370933Y0299561D01*
X0370933Y0300559D02*
X0383033Y0300559D01*
X0383033Y0301558D02*
X0370933Y0301558D01*
X0370933Y0302556D02*
X0383033Y0302556D01*
X0383033Y0303555D02*
X0370933Y0303555D01*
X0370933Y0304553D02*
X0383033Y0304553D01*
X0383033Y0305552D02*
X0370933Y0305552D01*
X0370933Y0306550D02*
X0383033Y0306550D01*
X0383033Y0307549D02*
X0370933Y0307549D01*
X0370933Y0308547D02*
X0383033Y0308547D01*
X0383033Y0309546D02*
X0370933Y0309546D01*
X0370933Y0310544D02*
X0383033Y0310544D01*
X0383033Y0311543D02*
X0370933Y0311543D01*
X0370933Y0312541D02*
X0383033Y0312541D01*
X0383033Y0313540D02*
X0370933Y0313540D01*
X0370933Y0314539D02*
X0383033Y0314539D01*
X0383033Y0315537D02*
X0370933Y0315537D01*
X0370933Y0316536D02*
X0383033Y0316536D01*
X0383033Y0317534D02*
X0370933Y0317534D01*
X0370933Y0318533D02*
X0383033Y0318533D01*
X0383033Y0319531D02*
X0370933Y0319531D01*
X0370933Y0320530D02*
X0383033Y0320530D01*
X0383033Y0321528D02*
X0370933Y0321528D01*
X0370933Y0322527D02*
X0383033Y0322527D01*
X0383033Y0323525D02*
X0370933Y0323525D01*
X0370933Y0324524D02*
X0383033Y0324524D01*
X0383033Y0325522D02*
X0370933Y0325522D01*
X0370933Y0326521D02*
X0383033Y0326521D01*
X0383033Y0327519D02*
X0370933Y0327519D01*
X0370933Y0328518D02*
X0383033Y0328518D01*
X0383033Y0329516D02*
X0370933Y0329516D01*
X0370933Y0330515D02*
X0383033Y0330515D01*
X0383033Y0331513D02*
X0370933Y0331513D01*
X0370933Y0332512D02*
X0383033Y0332512D01*
X0383033Y0333510D02*
X0370933Y0333510D01*
X0373014Y0334509D02*
X0383033Y0334509D01*
X0383033Y0335507D02*
X0374013Y0335507D01*
X0375011Y0336506D02*
X0383033Y0336506D01*
X0383033Y0337504D02*
X0376010Y0337504D01*
X0377008Y0338503D02*
X0383033Y0338503D01*
X0383033Y0339501D02*
X0377233Y0339501D01*
X0377233Y0340500D02*
X0383033Y0340500D01*
X0383033Y0341498D02*
X0377233Y0341498D01*
X0377233Y0342497D02*
X0383033Y0342497D01*
X0383033Y0343495D02*
X0377233Y0343495D01*
X0377233Y0344494D02*
X0383033Y0344494D01*
X0383033Y0345492D02*
X0377013Y0345492D01*
X0376015Y0346491D02*
X0383033Y0346491D01*
X0383033Y0347489D02*
X0375016Y0347489D01*
X0374018Y0348488D02*
X0383033Y0348488D01*
X0383033Y0349486D02*
X0373019Y0349486D01*
X0365647Y0349486D02*
X0353019Y0349486D01*
X0354018Y0348488D02*
X0364649Y0348488D01*
X0363650Y0347489D02*
X0355016Y0347489D01*
X0356015Y0346491D02*
X0362652Y0346491D01*
X0361653Y0345492D02*
X0357013Y0345492D01*
X0357233Y0344494D02*
X0361433Y0344494D01*
X0361433Y0343495D02*
X0357233Y0343495D01*
X0357233Y0342497D02*
X0361433Y0342497D01*
X0361433Y0341498D02*
X0357233Y0341498D01*
X0357233Y0340500D02*
X0361433Y0340500D01*
X0361433Y0339501D02*
X0357233Y0339501D01*
X0357008Y0338503D02*
X0361658Y0338503D01*
X0362657Y0337504D02*
X0356010Y0337504D01*
X0355011Y0336506D02*
X0363655Y0336506D01*
X0364654Y0335507D02*
X0354013Y0335507D01*
X0353014Y0334509D02*
X0365652Y0334509D01*
X0366533Y0333510D02*
X0351133Y0333510D01*
X0351133Y0332512D02*
X0366533Y0332512D01*
X0366533Y0331513D02*
X0351133Y0331513D01*
X0351133Y0330515D02*
X0366533Y0330515D01*
X0366533Y0329516D02*
X0351133Y0329516D01*
X0351133Y0328518D02*
X0366533Y0328518D01*
X0366533Y0327519D02*
X0351133Y0327519D01*
X0351133Y0326521D02*
X0366533Y0326521D01*
X0366533Y0325522D02*
X0351133Y0325522D01*
X0351133Y0324524D02*
X0366533Y0324524D01*
X0366533Y0323525D02*
X0351133Y0323525D01*
X0351133Y0322527D02*
X0366533Y0322527D01*
X0366533Y0321528D02*
X0351133Y0321528D01*
X0351133Y0320530D02*
X0366533Y0320530D01*
X0366533Y0319531D02*
X0351133Y0319531D01*
X0351133Y0318533D02*
X0366533Y0318533D01*
X0366533Y0317534D02*
X0351133Y0317534D01*
X0351133Y0316536D02*
X0366533Y0316536D01*
X0366533Y0315537D02*
X0351133Y0315537D01*
X0351133Y0314539D02*
X0366533Y0314539D01*
X0366533Y0313540D02*
X0351133Y0313540D01*
X0351133Y0312541D02*
X0366533Y0312541D01*
X0366533Y0311543D02*
X0351133Y0311543D01*
X0351133Y0310544D02*
X0366533Y0310544D01*
X0366533Y0309546D02*
X0351133Y0309546D01*
X0351133Y0308547D02*
X0366533Y0308547D01*
X0366533Y0307549D02*
X0351133Y0307549D01*
X0351133Y0306550D02*
X0366533Y0306550D01*
X0366533Y0305552D02*
X0351133Y0305552D01*
X0351133Y0304553D02*
X0366533Y0304553D01*
X0366533Y0303555D02*
X0351133Y0303555D01*
X0351133Y0302556D02*
X0366533Y0302556D01*
X0366533Y0301558D02*
X0351133Y0301558D01*
X0351133Y0300559D02*
X0366533Y0300559D01*
X0366533Y0299561D02*
X0351133Y0299561D01*
X0351133Y0298562D02*
X0366533Y0298562D01*
X0366533Y0297564D02*
X0351133Y0297564D01*
X0351133Y0296565D02*
X0366533Y0296565D01*
X0366533Y0295567D02*
X0351133Y0295567D01*
X0351133Y0294568D02*
X0366533Y0294568D01*
X0366533Y0293570D02*
X0351133Y0293570D01*
X0351133Y0292571D02*
X0366533Y0292571D01*
X0366533Y0291573D02*
X0351133Y0291573D01*
X0351133Y0290574D02*
X0366533Y0290574D01*
X0366533Y0289576D02*
X0351133Y0289576D01*
X0351133Y0288577D02*
X0366533Y0288577D01*
X0365601Y0287579D02*
X0351133Y0287579D01*
X0351133Y0286580D02*
X0364602Y0286580D01*
X0363604Y0285582D02*
X0351133Y0285582D01*
X0351133Y0284583D02*
X0362605Y0284583D01*
X0361607Y0283585D02*
X0351133Y0283585D01*
X0351133Y0282586D02*
X0360608Y0282586D01*
X0359610Y0281588D02*
X0351133Y0281588D01*
X0351133Y0280589D02*
X0358611Y0280589D01*
X0357613Y0279591D02*
X0351133Y0279591D01*
X0351133Y0278592D02*
X0356614Y0278592D01*
X0355616Y0277594D02*
X0351133Y0277594D01*
X0350940Y0276595D02*
X0354617Y0276595D01*
X0353619Y0275597D02*
X0349941Y0275597D01*
X0348943Y0274598D02*
X0352620Y0274598D01*
X0351622Y0273600D02*
X0347944Y0273600D01*
X0346946Y0272601D02*
X0350623Y0272601D01*
X0349625Y0271603D02*
X0345947Y0271603D01*
X0344949Y0270604D02*
X0348626Y0270604D01*
X0347628Y0269605D02*
X0343950Y0269605D01*
X0342952Y0268607D02*
X0346629Y0268607D01*
X0345631Y0267608D02*
X0341953Y0267608D01*
X0340955Y0266610D02*
X0344632Y0266610D01*
X0343634Y0265611D02*
X0339956Y0265611D01*
X0338958Y0264613D02*
X0342635Y0264613D01*
X0341636Y0263614D02*
X0337959Y0263614D01*
X0336961Y0262616D02*
X0340638Y0262616D01*
X0339639Y0261617D02*
X0335962Y0261617D01*
X0334963Y0260619D02*
X0338641Y0260619D01*
X0337642Y0259620D02*
X0333965Y0259620D01*
X0332966Y0258622D02*
X0336644Y0258622D01*
X0335645Y0257623D02*
X0331968Y0257623D01*
X0330969Y0256625D02*
X0334647Y0256625D01*
X0333648Y0255626D02*
X0329971Y0255626D01*
X0328972Y0254628D02*
X0332650Y0254628D01*
X0331651Y0253629D02*
X0327974Y0253629D01*
X0326975Y0252631D02*
X0330653Y0252631D01*
X0329654Y0251632D02*
X0325977Y0251632D01*
X0324978Y0250634D02*
X0328656Y0250634D01*
X0327657Y0249635D02*
X0323980Y0249635D01*
X0322981Y0248637D02*
X0326659Y0248637D01*
X0325660Y0247638D02*
X0321983Y0247638D01*
X0320984Y0246640D02*
X0324662Y0246640D01*
X0323663Y0245641D02*
X0319986Y0245641D01*
X0318987Y0244643D02*
X0322665Y0244643D01*
X0321666Y0243644D02*
X0317989Y0243644D01*
X0316990Y0242646D02*
X0320668Y0242646D01*
X0319669Y0241647D02*
X0315992Y0241647D01*
X0314993Y0240649D02*
X0318671Y0240649D01*
X0317672Y0239650D02*
X0313995Y0239650D01*
X0312996Y0238652D02*
X0316674Y0238652D01*
X0315675Y0237653D02*
X0311998Y0237653D01*
X0310999Y0236655D02*
X0314677Y0236655D01*
X0313678Y0235656D02*
X0310001Y0235656D01*
X0309002Y0234658D02*
X0312680Y0234658D01*
X0311681Y0233659D02*
X0308004Y0233659D01*
X0307005Y0232661D02*
X0310683Y0232661D01*
X0309684Y0231662D02*
X0306007Y0231662D01*
X0305008Y0230664D02*
X0308686Y0230664D01*
X0307687Y0229665D02*
X0304010Y0229665D01*
X0303011Y0228667D02*
X0306689Y0228667D01*
X0305690Y0227668D02*
X0302013Y0227668D01*
X0301014Y0226670D02*
X0304692Y0226670D01*
X0303693Y0225671D02*
X0300016Y0225671D01*
X0299017Y0224672D02*
X0302695Y0224672D01*
X0301696Y0223674D02*
X0298019Y0223674D01*
X0297020Y0222675D02*
X0300698Y0222675D01*
X0299699Y0221677D02*
X0296022Y0221677D01*
X0295023Y0220678D02*
X0298701Y0220678D01*
X0297702Y0219680D02*
X0294025Y0219680D01*
X0293026Y0218681D02*
X0296703Y0218681D01*
X0295705Y0217683D02*
X0292027Y0217683D01*
X0291029Y0216684D02*
X0294706Y0216684D01*
X0293708Y0215686D02*
X0290030Y0215686D01*
X0289032Y0214687D02*
X0292709Y0214687D01*
X0291711Y0213689D02*
X0288033Y0213689D01*
X0287035Y0212690D02*
X0290712Y0212690D01*
X0289714Y0211692D02*
X0286036Y0211692D01*
X0285038Y0210693D02*
X0288715Y0210693D01*
X0287717Y0209695D02*
X0284039Y0209695D01*
X0283041Y0208696D02*
X0286718Y0208696D01*
X0285720Y0207698D02*
X0282042Y0207698D01*
X0281044Y0206699D02*
X0284721Y0206699D01*
X0283723Y0205701D02*
X0280045Y0205701D01*
X0279047Y0204702D02*
X0282724Y0204702D01*
X0281726Y0203704D02*
X0278048Y0203704D01*
X0277050Y0202705D02*
X0280727Y0202705D01*
X0279729Y0201707D02*
X0276051Y0201707D01*
X0275053Y0200708D02*
X0278730Y0200708D01*
X0277732Y0199710D02*
X0274054Y0199710D01*
X0273056Y0198711D02*
X0276733Y0198711D01*
X0275735Y0197713D02*
X0272057Y0197713D01*
X0271059Y0196714D02*
X0274736Y0196714D01*
X0273738Y0195716D02*
X0270060Y0195716D01*
X0269062Y0194717D02*
X0272739Y0194717D01*
X0271741Y0193719D02*
X0268063Y0193719D01*
X0267065Y0192720D02*
X0270742Y0192720D01*
X0269744Y0191722D02*
X0266066Y0191722D01*
X0265068Y0190723D02*
X0268745Y0190723D01*
X0267747Y0189725D02*
X0264069Y0189725D01*
X0263071Y0188726D02*
X0266748Y0188726D01*
X0265750Y0187728D02*
X0262072Y0187728D01*
X0261074Y0186729D02*
X0264751Y0186729D01*
X0263753Y0185731D02*
X0260075Y0185731D01*
X0259077Y0184732D02*
X0262754Y0184732D01*
X0261756Y0183734D02*
X0258078Y0183734D01*
X0257080Y0182735D02*
X0260757Y0182735D01*
X0259759Y0181737D02*
X0256081Y0181737D01*
X0255083Y0180738D02*
X0258760Y0180738D01*
X0257762Y0179739D02*
X0254084Y0179739D01*
X0253086Y0178741D02*
X0256763Y0178741D01*
X0255765Y0177742D02*
X0252087Y0177742D01*
X0251089Y0176744D02*
X0254766Y0176744D01*
X0253767Y0175745D02*
X0250090Y0175745D01*
X0249092Y0174747D02*
X0252769Y0174747D01*
X0251770Y0173748D02*
X0248093Y0173748D01*
X0247094Y0172750D02*
X0250772Y0172750D01*
X0249773Y0171751D02*
X0246096Y0171751D01*
X0245097Y0170753D02*
X0248775Y0170753D01*
X0247776Y0169754D02*
X0244099Y0169754D01*
X0243100Y0168756D02*
X0246778Y0168756D01*
X0245779Y0167757D02*
X0242102Y0167757D01*
X0241103Y0166759D02*
X0244781Y0166759D01*
X0243782Y0165760D02*
X0240105Y0165760D01*
X0239106Y0164762D02*
X0242784Y0164762D01*
X0241785Y0163763D02*
X0238108Y0163763D01*
X0237109Y0162765D02*
X0240787Y0162765D01*
X0239788Y0161766D02*
X0236111Y0161766D01*
X0235112Y0160768D02*
X0238790Y0160768D01*
X0237791Y0159769D02*
X0234114Y0159769D01*
X0233115Y0158771D02*
X0236793Y0158771D01*
X0235794Y0157772D02*
X0232117Y0157772D01*
X0231118Y0156774D02*
X0234796Y0156774D01*
X0244852Y0149784D02*
X0244906Y0149784D01*
X0256760Y0149784D02*
X0261815Y0149784D01*
X0259914Y0150783D02*
X0256753Y0150783D01*
X0257751Y0151781D02*
X0258915Y0151781D01*
X0258408Y0152780D02*
X0258259Y0152780D01*
X0257759Y0148786D02*
X0383033Y0148786D01*
X0383033Y0149784D02*
X0314852Y0149784D01*
X0316753Y0150783D02*
X0383033Y0150783D01*
X0383033Y0151781D02*
X0317751Y0151781D01*
X0318259Y0152780D02*
X0383033Y0152780D01*
X0383033Y0153778D02*
X0318672Y0153778D01*
X0318733Y0154777D02*
X0383033Y0154777D01*
X0383033Y0155775D02*
X0318733Y0155775D01*
X0318444Y0156774D02*
X0383033Y0156774D01*
X0383033Y0157772D02*
X0318030Y0157772D01*
X0317199Y0158771D02*
X0383033Y0158771D01*
X0383033Y0159769D02*
X0315930Y0159769D01*
X0310736Y0159769D02*
X0305930Y0159769D01*
X0307199Y0158771D02*
X0309467Y0158771D01*
X0308637Y0157772D02*
X0308030Y0157772D01*
X0308259Y0152780D02*
X0308408Y0152780D01*
X0308915Y0151781D02*
X0307751Y0151781D01*
X0306753Y0150783D02*
X0309914Y0150783D01*
X0311815Y0149784D02*
X0304852Y0149784D01*
X0301815Y0149784D02*
X0294852Y0149784D01*
X0296753Y0150783D02*
X0299914Y0150783D01*
X0298915Y0151781D02*
X0297751Y0151781D01*
X0298259Y0152780D02*
X0298408Y0152780D01*
X0298637Y0157772D02*
X0298030Y0157772D01*
X0297199Y0158771D02*
X0299467Y0158771D01*
X0300736Y0159769D02*
X0295930Y0159769D01*
X0290736Y0159769D02*
X0285930Y0159769D01*
X0287199Y0158771D02*
X0289467Y0158771D01*
X0288637Y0157772D02*
X0288030Y0157772D01*
X0288259Y0152780D02*
X0288408Y0152780D01*
X0288915Y0151781D02*
X0287751Y0151781D01*
X0286753Y0150783D02*
X0289914Y0150783D01*
X0291815Y0149784D02*
X0284852Y0149784D01*
X0281815Y0149784D02*
X0274852Y0149784D01*
X0276753Y0150783D02*
X0279914Y0150783D01*
X0278915Y0151781D02*
X0277751Y0151781D01*
X0278259Y0152780D02*
X0278408Y0152780D01*
X0278637Y0157772D02*
X0278030Y0157772D01*
X0277199Y0158771D02*
X0279467Y0158771D01*
X0280736Y0159769D02*
X0275930Y0159769D01*
X0270736Y0159769D02*
X0265930Y0159769D01*
X0267199Y0158771D02*
X0269467Y0158771D01*
X0268637Y0157772D02*
X0268030Y0157772D01*
X0268259Y0152780D02*
X0268408Y0152780D01*
X0268915Y0151781D02*
X0267751Y0151781D01*
X0266753Y0150783D02*
X0269914Y0150783D01*
X0271815Y0149784D02*
X0264852Y0149784D01*
X0260754Y0145790D02*
X0383033Y0145790D01*
X0383033Y0144792D02*
X0261753Y0144792D01*
X0262752Y0143793D02*
X0383033Y0143793D01*
X0383033Y0142795D02*
X0263750Y0142795D01*
X0264749Y0141796D02*
X0383033Y0141796D01*
X0383033Y0140798D02*
X0265747Y0140798D01*
X0266746Y0139799D02*
X0383033Y0139799D01*
X0383033Y0138801D02*
X0267744Y0138801D01*
X0268743Y0137802D02*
X0383033Y0137802D01*
X0383033Y0136803D02*
X0269741Y0136803D01*
X0270740Y0135805D02*
X0383033Y0135805D01*
X0383033Y0134806D02*
X0271738Y0134806D01*
X0272737Y0133808D02*
X0383033Y0133808D01*
X0383033Y0132809D02*
X0273735Y0132809D01*
X0274734Y0131811D02*
X0383033Y0131811D01*
X0383033Y0130812D02*
X0275732Y0130812D01*
X0280822Y0129814D02*
X0383033Y0129814D01*
X0383033Y0128815D02*
X0282155Y0128815D01*
X0283011Y0127817D02*
X0383033Y0127817D01*
X0383033Y0126818D02*
X0283425Y0126818D01*
X0283733Y0125820D02*
X0383033Y0125820D01*
X0383033Y0124821D02*
X0283733Y0124821D01*
X0283691Y0123823D02*
X0383033Y0123823D01*
X0383033Y0122824D02*
X0283720Y0122824D01*
X0259756Y0146789D02*
X0383033Y0146789D01*
X0383033Y0147787D02*
X0258757Y0147787D01*
X0258637Y0157772D02*
X0258030Y0157772D01*
X0257199Y0158771D02*
X0259467Y0158771D01*
X0260736Y0159769D02*
X0255930Y0159769D01*
X0210833Y0128815D02*
X0210197Y0128815D01*
X0201329Y0119829D02*
X0199933Y0119829D01*
X0199933Y0118830D02*
X0200506Y0118830D01*
X0197733Y0112100D02*
X0205333Y0104500D01*
X0197733Y0112100D02*
X0197733Y0126500D01*
X0348933Y0277700D01*
X0348933Y0341600D01*
X0349333Y0342000D01*
X0343655Y0336506D02*
X0298555Y0336506D01*
X0298733Y0335507D02*
X0344654Y0335507D01*
X0345652Y0334509D02*
X0298733Y0334509D01*
X0298561Y0333510D02*
X0346733Y0333510D01*
X0346733Y0332512D02*
X0299033Y0332512D01*
X0300031Y0331513D02*
X0346733Y0331513D01*
X0346733Y0330515D02*
X0301030Y0330515D01*
X0302028Y0329516D02*
X0346733Y0329516D01*
X0346733Y0328518D02*
X0303027Y0328518D01*
X0304025Y0327519D02*
X0346733Y0327519D01*
X0346733Y0326521D02*
X0305024Y0326521D01*
X0306022Y0325522D02*
X0346733Y0325522D01*
X0346733Y0324524D02*
X0307021Y0324524D01*
X0308019Y0323525D02*
X0346733Y0323525D01*
X0346733Y0322527D02*
X0309018Y0322527D01*
X0310016Y0321528D02*
X0346733Y0321528D01*
X0346733Y0320530D02*
X0311015Y0320530D01*
X0312933Y0315500D02*
X0313333Y0315000D01*
X0312933Y0315500D02*
X0294033Y0334400D01*
X0293333Y0335000D01*
X0289199Y0338503D02*
X0267467Y0338503D01*
X0268141Y0337504D02*
X0288526Y0337504D01*
X0288112Y0336506D02*
X0268555Y0336506D01*
X0268733Y0335507D02*
X0287933Y0335507D01*
X0287933Y0334509D02*
X0268733Y0334509D01*
X0268561Y0333510D02*
X0288105Y0333510D01*
X0288519Y0332512D02*
X0268148Y0332512D01*
X0267483Y0331513D02*
X0289183Y0331513D01*
X0290182Y0330515D02*
X0266485Y0330515D01*
X0263333Y0335000D02*
X0262533Y0334400D01*
X0243633Y0315500D01*
X0243333Y0315000D01*
X0248319Y0317074D02*
X0248368Y0317123D01*
X0248333Y0317040D01*
X0248319Y0317074D01*
X0245552Y0320530D02*
X0126500Y0320530D01*
X0126439Y0319531D02*
X0240228Y0319531D01*
X0239229Y0318533D02*
X0127438Y0318533D01*
X0128129Y0317534D02*
X0238538Y0317534D01*
X0238124Y0316536D02*
X0128542Y0316536D01*
X0128733Y0315537D02*
X0237933Y0315537D01*
X0237933Y0314539D02*
X0128733Y0314539D01*
X0128573Y0313540D02*
X0238093Y0313540D01*
X0238507Y0312541D02*
X0128160Y0312541D01*
X0127513Y0311543D02*
X0239154Y0311543D01*
X0240152Y0310544D02*
X0126515Y0310544D01*
X0120152Y0310544D02*
X0116515Y0310544D01*
X0117513Y0311543D02*
X0119154Y0311543D01*
X0118507Y0312541D02*
X0118160Y0312541D01*
X0118333Y0317040D02*
X0117911Y0318059D01*
X0116392Y0319578D01*
X0115373Y0320000D01*
X0116392Y0320422D01*
X0117911Y0321941D01*
X0118333Y0322960D01*
X0118755Y0321941D01*
X0120274Y0320422D01*
X0121294Y0320000D01*
X0120274Y0319578D01*
X0118755Y0318059D01*
X0118333Y0317040D01*
X0118129Y0317534D02*
X0118538Y0317534D01*
X0119229Y0318533D02*
X0117438Y0318533D01*
X0116439Y0319531D02*
X0120228Y0319531D01*
X0120167Y0320530D02*
X0116500Y0320530D01*
X0117498Y0321528D02*
X0119168Y0321528D01*
X0118513Y0322527D02*
X0118154Y0322527D01*
X0118135Y0327519D02*
X0118532Y0327519D01*
X0119214Y0328518D02*
X0117452Y0328518D01*
X0116454Y0329516D02*
X0120213Y0329516D01*
X0126454Y0329516D02*
X0254538Y0329516D01*
X0253540Y0328518D02*
X0127452Y0328518D01*
X0128135Y0327519D02*
X0252541Y0327519D01*
X0251543Y0326521D02*
X0128548Y0326521D01*
X0128733Y0325522D02*
X0250544Y0325522D01*
X0249546Y0324524D02*
X0128733Y0324524D01*
X0128567Y0323525D02*
X0248547Y0323525D01*
X0247549Y0322527D02*
X0128154Y0322527D01*
X0127498Y0321528D02*
X0246550Y0321528D01*
X0251774Y0320530D02*
X0304792Y0320530D01*
X0303794Y0321528D02*
X0252773Y0321528D01*
X0253771Y0322527D02*
X0302795Y0322527D01*
X0301797Y0323525D02*
X0254770Y0323525D01*
X0255768Y0324524D02*
X0300798Y0324524D01*
X0299800Y0325522D02*
X0256767Y0325522D01*
X0257765Y0326521D02*
X0298801Y0326521D01*
X0297803Y0327519D02*
X0258764Y0327519D01*
X0259762Y0328518D02*
X0296804Y0328518D01*
X0295806Y0329516D02*
X0260761Y0329516D01*
X0257534Y0332512D02*
X0028633Y0332512D01*
X0028633Y0333510D02*
X0258105Y0333510D01*
X0257933Y0334509D02*
X0028633Y0334509D01*
X0028633Y0335507D02*
X0257933Y0335507D01*
X0258112Y0336506D02*
X0028633Y0336506D01*
X0028633Y0337504D02*
X0258526Y0337504D01*
X0259199Y0338503D02*
X0028633Y0338503D01*
X0028633Y0339501D02*
X0260198Y0339501D01*
X0266469Y0339501D02*
X0290198Y0339501D01*
X0296469Y0339501D02*
X0341433Y0339501D01*
X0341433Y0340500D02*
X0028633Y0340500D01*
X0028633Y0341498D02*
X0341433Y0341498D01*
X0341433Y0342497D02*
X0028633Y0342497D01*
X0028633Y0343495D02*
X0341433Y0343495D01*
X0341433Y0344494D02*
X0028633Y0344494D01*
X0028633Y0345492D02*
X0341653Y0345492D01*
X0342652Y0346491D02*
X0028633Y0346491D01*
X0028633Y0347489D02*
X0343650Y0347489D01*
X0344649Y0348488D02*
X0028633Y0348488D01*
X0028633Y0349486D02*
X0345647Y0349486D01*
X0341658Y0338503D02*
X0297467Y0338503D01*
X0298141Y0337504D02*
X0342657Y0337504D01*
X0346733Y0319531D02*
X0316439Y0319531D01*
X0317438Y0318533D02*
X0346733Y0318533D01*
X0346733Y0317534D02*
X0318129Y0317534D01*
X0318542Y0316536D02*
X0346733Y0316536D01*
X0346733Y0315537D02*
X0318733Y0315537D01*
X0318733Y0314539D02*
X0346733Y0314539D01*
X0346733Y0313540D02*
X0318573Y0313540D01*
X0318160Y0312541D02*
X0346733Y0312541D01*
X0346733Y0311543D02*
X0317513Y0311543D01*
X0316515Y0310544D02*
X0346733Y0310544D01*
X0346733Y0309546D02*
X0293891Y0309546D01*
X0292892Y0308547D02*
X0346733Y0308547D01*
X0346733Y0307549D02*
X0291894Y0307549D01*
X0290895Y0306550D02*
X0346733Y0306550D01*
X0346733Y0305552D02*
X0289897Y0305552D01*
X0288898Y0304553D02*
X0346733Y0304553D01*
X0346733Y0303555D02*
X0287899Y0303555D01*
X0286901Y0302556D02*
X0346733Y0302556D01*
X0346733Y0301558D02*
X0285902Y0301558D01*
X0284904Y0300559D02*
X0346733Y0300559D01*
X0346733Y0299561D02*
X0283905Y0299561D01*
X0282907Y0298562D02*
X0346733Y0298562D01*
X0346733Y0297564D02*
X0281908Y0297564D01*
X0280910Y0296565D02*
X0346733Y0296565D01*
X0346733Y0295567D02*
X0279911Y0295567D01*
X0278913Y0294568D02*
X0346733Y0294568D01*
X0346733Y0293570D02*
X0277914Y0293570D01*
X0276916Y0292571D02*
X0346733Y0292571D01*
X0346733Y0291573D02*
X0275917Y0291573D01*
X0274919Y0290574D02*
X0346733Y0290574D01*
X0346733Y0289576D02*
X0273920Y0289576D01*
X0272922Y0288577D02*
X0346733Y0288577D01*
X0346733Y0287579D02*
X0271923Y0287579D01*
X0270925Y0286580D02*
X0346733Y0286580D01*
X0346733Y0285582D02*
X0269926Y0285582D01*
X0268928Y0284583D02*
X0346733Y0284583D01*
X0346733Y0283585D02*
X0267929Y0283585D01*
X0266931Y0282586D02*
X0346733Y0282586D01*
X0346733Y0281588D02*
X0265932Y0281588D01*
X0264934Y0280589D02*
X0346733Y0280589D01*
X0346733Y0279591D02*
X0263935Y0279591D01*
X0262937Y0278592D02*
X0346714Y0278592D01*
X0345716Y0277594D02*
X0261938Y0277594D01*
X0260940Y0276595D02*
X0344717Y0276595D01*
X0343719Y0275597D02*
X0259941Y0275597D01*
X0258943Y0274598D02*
X0342720Y0274598D01*
X0341722Y0273600D02*
X0257944Y0273600D01*
X0256946Y0272601D02*
X0340723Y0272601D01*
X0339725Y0271603D02*
X0255947Y0271603D01*
X0254949Y0270604D02*
X0338726Y0270604D01*
X0337728Y0269605D02*
X0253950Y0269605D01*
X0252952Y0268607D02*
X0336729Y0268607D01*
X0335731Y0267608D02*
X0251953Y0267608D01*
X0250955Y0266610D02*
X0334732Y0266610D01*
X0333734Y0265611D02*
X0249956Y0265611D01*
X0248958Y0264613D02*
X0332735Y0264613D01*
X0331736Y0263614D02*
X0247959Y0263614D01*
X0246961Y0262616D02*
X0330738Y0262616D01*
X0329739Y0261617D02*
X0245962Y0261617D01*
X0244963Y0260619D02*
X0328741Y0260619D01*
X0327742Y0259620D02*
X0243965Y0259620D01*
X0242966Y0258622D02*
X0326744Y0258622D01*
X0325745Y0257623D02*
X0241968Y0257623D01*
X0241333Y0256625D02*
X0324747Y0256625D01*
X0323748Y0255626D02*
X0241333Y0255626D01*
X0239133Y0257900D02*
X0239133Y0250700D01*
X0126633Y0138200D01*
X0112233Y0138200D01*
X0105933Y0144500D01*
X0104133Y0144500D01*
X0103333Y0145000D01*
X0101294Y0150000D02*
X0100274Y0149578D01*
X0098755Y0148059D01*
X0098333Y0147040D01*
X0097911Y0148059D01*
X0096392Y0149578D01*
X0095373Y0150000D01*
X0096392Y0150422D01*
X0097911Y0151941D01*
X0098333Y0152960D01*
X0098755Y0151941D01*
X0100274Y0150422D01*
X0101294Y0150000D01*
X0100772Y0149784D02*
X0095894Y0149784D01*
X0096753Y0150783D02*
X0099914Y0150783D01*
X0098915Y0151781D02*
X0097751Y0151781D01*
X0098259Y0152780D02*
X0098408Y0152780D01*
X0099482Y0148786D02*
X0097184Y0148786D01*
X0098024Y0147787D02*
X0098643Y0147787D01*
X0098333Y0142960D02*
X0098755Y0141941D01*
X0100274Y0140422D01*
X0102259Y0139600D01*
X0104407Y0139600D01*
X0106392Y0140422D01*
X0106646Y0140676D01*
X0110033Y0137289D01*
X0111322Y0136000D01*
X0127545Y0136000D01*
X0135233Y0143689D01*
X0135233Y0122011D01*
X0119481Y0106259D01*
X0118666Y0108229D01*
X0117062Y0109832D01*
X0114967Y0110700D01*
X0112700Y0110700D01*
X0110605Y0109832D01*
X0109001Y0108229D01*
X0108333Y0106617D01*
X0107666Y0108229D01*
X0106062Y0109832D01*
X0103967Y0110700D01*
X0101700Y0110700D01*
X0099605Y0109832D01*
X0098001Y0108229D01*
X0097906Y0108000D01*
X0086145Y0108000D01*
X0054504Y0139640D01*
X0056392Y0140422D01*
X0057911Y0141941D01*
X0058333Y0142960D01*
X0058755Y0141941D01*
X0060274Y0140422D01*
X0062259Y0139600D01*
X0064407Y0139600D01*
X0066392Y0140422D01*
X0067911Y0141941D01*
X0068333Y0142960D01*
X0068755Y0141941D01*
X0070274Y0140422D01*
X0072259Y0139600D01*
X0074407Y0139600D01*
X0076392Y0140422D01*
X0077911Y0141941D01*
X0078333Y0142960D01*
X0078755Y0141941D01*
X0080274Y0140422D01*
X0082259Y0139600D01*
X0084407Y0139600D01*
X0086392Y0140422D01*
X0087911Y0141941D01*
X0088333Y0142960D01*
X0088755Y0141941D01*
X0090274Y0140422D01*
X0092259Y0139600D01*
X0094407Y0139600D01*
X0096392Y0140422D01*
X0097911Y0141941D01*
X0098333Y0142960D01*
X0098265Y0142795D02*
X0098402Y0142795D01*
X0098901Y0141796D02*
X0097766Y0141796D01*
X0096768Y0140798D02*
X0099899Y0140798D01*
X0101779Y0139799D02*
X0094888Y0139799D01*
X0091779Y0139799D02*
X0084888Y0139799D01*
X0086768Y0140798D02*
X0089899Y0140798D01*
X0088901Y0141796D02*
X0087766Y0141796D01*
X0088265Y0142795D02*
X0088402Y0142795D01*
X0088333Y0147040D02*
X0087911Y0148059D01*
X0086392Y0149578D01*
X0085373Y0150000D01*
X0086392Y0150422D01*
X0087911Y0151941D01*
X0088333Y0152960D01*
X0088755Y0151941D01*
X0090274Y0150422D01*
X0091294Y0150000D01*
X0090274Y0149578D01*
X0088755Y0148059D01*
X0088333Y0147040D01*
X0088024Y0147787D02*
X0088643Y0147787D01*
X0089482Y0148786D02*
X0087184Y0148786D01*
X0085894Y0149784D02*
X0090772Y0149784D01*
X0089914Y0150783D02*
X0086753Y0150783D01*
X0087751Y0151781D02*
X0088915Y0151781D01*
X0088408Y0152780D02*
X0088259Y0152780D01*
X0088030Y0157772D02*
X0088637Y0157772D01*
X0089467Y0158771D02*
X0087199Y0158771D01*
X0085930Y0159769D02*
X0090736Y0159769D01*
X0095930Y0159769D02*
X0100736Y0159769D01*
X0099467Y0158771D02*
X0097199Y0158771D01*
X0098030Y0157772D02*
X0098637Y0157772D01*
X0105930Y0159769D02*
X0110736Y0159769D01*
X0109467Y0158771D02*
X0107199Y0158771D01*
X0108030Y0157772D02*
X0108637Y0157772D01*
X0108333Y0152960D02*
X0108755Y0151941D01*
X0110274Y0150422D01*
X0111294Y0150000D01*
X0110274Y0149578D01*
X0108755Y0148059D01*
X0108333Y0147040D01*
X0107911Y0148059D01*
X0106392Y0149578D01*
X0105373Y0150000D01*
X0106392Y0150422D01*
X0107911Y0151941D01*
X0108333Y0152960D01*
X0108259Y0152780D02*
X0108408Y0152780D01*
X0108915Y0151781D02*
X0107751Y0151781D01*
X0106753Y0150783D02*
X0109914Y0150783D01*
X0110772Y0149784D02*
X0105894Y0149784D01*
X0107184Y0148786D02*
X0109482Y0148786D01*
X0108643Y0147787D02*
X0108024Y0147787D01*
X0113333Y0145000D02*
X0114033Y0144500D01*
X0116733Y0144500D01*
X0121233Y0140000D01*
X0125733Y0140000D01*
X0237333Y0251600D01*
X0237333Y0258800D01*
X0283233Y0304700D01*
X0283233Y0314600D01*
X0283333Y0315000D01*
X0278333Y0312960D02*
X0278755Y0311941D01*
X0280274Y0310422D01*
X0281033Y0310108D01*
X0281033Y0305611D01*
X0275533Y0300111D01*
X0275533Y0310066D01*
X0276392Y0310422D01*
X0277911Y0311941D01*
X0278333Y0312960D01*
X0278160Y0312541D02*
X0278507Y0312541D01*
X0279154Y0311543D02*
X0277513Y0311543D01*
X0276515Y0310544D02*
X0280152Y0310544D01*
X0281033Y0309546D02*
X0275533Y0309546D01*
X0275533Y0308547D02*
X0281033Y0308547D01*
X0281033Y0307549D02*
X0275533Y0307549D01*
X0275533Y0306550D02*
X0281033Y0306550D01*
X0280974Y0305552D02*
X0275533Y0305552D01*
X0275533Y0304553D02*
X0279975Y0304553D01*
X0278977Y0303555D02*
X0275533Y0303555D01*
X0275533Y0302556D02*
X0277978Y0302556D01*
X0276980Y0301558D02*
X0275533Y0301558D01*
X0275533Y0300559D02*
X0275981Y0300559D01*
X0273333Y0297500D02*
X0273333Y0315000D01*
X0269229Y0318533D02*
X0267438Y0318533D01*
X0268129Y0317534D02*
X0268538Y0317534D01*
X0270228Y0319531D02*
X0266439Y0319531D01*
X0260228Y0319531D02*
X0256439Y0319531D01*
X0257438Y0318533D02*
X0259229Y0318533D01*
X0258538Y0317534D02*
X0258129Y0317534D01*
X0258160Y0312541D02*
X0258507Y0312541D01*
X0259154Y0311543D02*
X0257513Y0311543D01*
X0256515Y0310544D02*
X0260152Y0310544D01*
X0266515Y0310544D02*
X0270152Y0310544D01*
X0271133Y0309546D02*
X0055933Y0309546D01*
X0055933Y0308547D02*
X0271133Y0308547D01*
X0271133Y0307549D02*
X0055933Y0307549D01*
X0055933Y0306550D02*
X0271133Y0306550D01*
X0271133Y0305552D02*
X0055933Y0305552D01*
X0055933Y0304553D02*
X0271133Y0304553D01*
X0271133Y0303555D02*
X0055933Y0303555D01*
X0055933Y0302556D02*
X0271133Y0302556D01*
X0271133Y0301558D02*
X0055933Y0301558D01*
X0055933Y0300559D02*
X0271133Y0300559D01*
X0271133Y0299561D02*
X0055933Y0299561D01*
X0055933Y0298562D02*
X0271133Y0298562D01*
X0270286Y0297564D02*
X0055933Y0297564D01*
X0055933Y0296565D02*
X0269287Y0296565D01*
X0268289Y0295567D02*
X0055933Y0295567D01*
X0055933Y0294568D02*
X0267290Y0294568D01*
X0266292Y0293570D02*
X0055933Y0293570D01*
X0055933Y0292571D02*
X0265293Y0292571D01*
X0264295Y0291573D02*
X0055933Y0291573D01*
X0055933Y0290574D02*
X0263296Y0290574D01*
X0262298Y0289576D02*
X0055933Y0289576D01*
X0055933Y0288577D02*
X0261299Y0288577D01*
X0260301Y0287579D02*
X0055933Y0287579D01*
X0055933Y0286580D02*
X0259302Y0286580D01*
X0258304Y0285582D02*
X0055933Y0285582D01*
X0056261Y0284583D02*
X0257305Y0284583D01*
X0256307Y0283585D02*
X0057260Y0283585D01*
X0058258Y0282586D02*
X0255308Y0282586D01*
X0254310Y0281588D02*
X0059257Y0281588D01*
X0060255Y0280589D02*
X0253311Y0280589D01*
X0252313Y0279591D02*
X0061254Y0279591D01*
X0062252Y0278592D02*
X0251314Y0278592D01*
X0250316Y0277594D02*
X0063251Y0277594D01*
X0064250Y0276595D02*
X0249317Y0276595D01*
X0248319Y0275597D02*
X0065248Y0275597D01*
X0066247Y0274598D02*
X0247320Y0274598D01*
X0246322Y0273600D02*
X0067245Y0273600D01*
X0068244Y0272601D02*
X0245323Y0272601D01*
X0244325Y0271603D02*
X0069242Y0271603D01*
X0070241Y0270604D02*
X0243326Y0270604D01*
X0242328Y0269605D02*
X0106326Y0269605D01*
X0106392Y0269578D02*
X0104407Y0270400D01*
X0102259Y0270400D01*
X0100274Y0269578D01*
X0098755Y0268059D01*
X0097933Y0266074D01*
X0097933Y0263926D01*
X0098755Y0261941D01*
X0100274Y0260422D01*
X0101033Y0260108D01*
X0101033Y0257911D01*
X0096922Y0253800D01*
X0095633Y0252511D01*
X0095633Y0239889D01*
X0098377Y0237145D01*
X0097933Y0236074D01*
X0097933Y0233926D01*
X0098755Y0231941D01*
X0100274Y0230422D01*
X0101933Y0229735D01*
X0101933Y0225265D01*
X0100274Y0224578D01*
X0098755Y0223059D01*
X0097933Y0221074D01*
X0097933Y0218926D01*
X0098755Y0216941D01*
X0100274Y0215422D01*
X0101933Y0214735D01*
X0101933Y0210265D01*
X0100274Y0209578D01*
X0098755Y0208059D01*
X0097933Y0206074D01*
X0097933Y0203926D01*
X0098755Y0201941D01*
X0100274Y0200422D01*
X0102259Y0199600D01*
X0104407Y0199600D01*
X0106392Y0200422D01*
X0107911Y0201941D01*
X0108733Y0203926D01*
X0108733Y0206074D01*
X0107911Y0208059D01*
X0106392Y0209578D01*
X0106333Y0209602D01*
X0106333Y0215398D01*
X0106392Y0215422D01*
X0107911Y0216941D01*
X0108733Y0218926D01*
X0108733Y0221074D01*
X0107911Y0223059D01*
X0106392Y0224578D01*
X0106333Y0224602D01*
X0106333Y0230398D01*
X0106392Y0230422D01*
X0107911Y0231941D01*
X0108733Y0233926D01*
X0108733Y0236074D01*
X0107911Y0238059D01*
X0106392Y0239578D01*
X0104407Y0240400D01*
X0102259Y0240400D01*
X0101612Y0240132D01*
X0100033Y0241711D01*
X0100033Y0245663D01*
X0100274Y0245422D01*
X0102259Y0244600D01*
X0104407Y0244600D01*
X0106392Y0245422D01*
X0107911Y0246941D01*
X0108333Y0247960D01*
X0108755Y0246941D01*
X0110274Y0245422D01*
X0112259Y0244600D01*
X0114407Y0244600D01*
X0116392Y0245422D01*
X0117911Y0246941D01*
X0118733Y0248926D01*
X0118733Y0251074D01*
X0117911Y0253059D01*
X0116392Y0254578D01*
X0115856Y0254800D01*
X0135622Y0254800D01*
X0138348Y0252074D01*
X0137933Y0251074D01*
X0137933Y0248926D01*
X0138755Y0246941D01*
X0140274Y0245422D01*
X0142259Y0244600D01*
X0144407Y0244600D01*
X0146392Y0245422D01*
X0147911Y0246941D01*
X0148733Y0248926D01*
X0148733Y0251074D01*
X0147911Y0253059D01*
X0146392Y0254578D01*
X0144407Y0255400D01*
X0142259Y0255400D01*
X0141542Y0255103D01*
X0137445Y0259200D01*
X0105433Y0259200D01*
X0105433Y0260025D01*
X0106392Y0260422D01*
X0107911Y0261941D01*
X0108733Y0263926D01*
X0108733Y0266074D01*
X0107911Y0268059D01*
X0106392Y0269578D01*
X0107363Y0268607D02*
X0241329Y0268607D01*
X0240331Y0267608D02*
X0108098Y0267608D01*
X0108511Y0266610D02*
X0239332Y0266610D01*
X0238334Y0265611D02*
X0108733Y0265611D01*
X0108733Y0264613D02*
X0237335Y0264613D01*
X0236337Y0263614D02*
X0108604Y0263614D01*
X0108191Y0262616D02*
X0235338Y0262616D01*
X0234339Y0261617D02*
X0107587Y0261617D01*
X0106589Y0260619D02*
X0233341Y0260619D01*
X0232342Y0259620D02*
X0105433Y0259620D01*
X0103233Y0257000D02*
X0136533Y0257000D01*
X0142833Y0250700D01*
X0143333Y0250000D01*
X0147341Y0253629D02*
X0226351Y0253629D01*
X0225353Y0252631D02*
X0148089Y0252631D01*
X0148502Y0251632D02*
X0224354Y0251632D01*
X0223356Y0250634D02*
X0148733Y0250634D01*
X0148733Y0249635D02*
X0222357Y0249635D01*
X0221359Y0248637D02*
X0148614Y0248637D01*
X0148200Y0247638D02*
X0220360Y0247638D01*
X0219362Y0246640D02*
X0147610Y0246640D01*
X0146611Y0245641D02*
X0218363Y0245641D01*
X0217365Y0244643D02*
X0144511Y0244643D01*
X0142156Y0244643D02*
X0114511Y0244643D01*
X0116611Y0245641D02*
X0140055Y0245641D01*
X0139057Y0246640D02*
X0117610Y0246640D01*
X0118200Y0247638D02*
X0138467Y0247638D01*
X0138053Y0248637D02*
X0118614Y0248637D01*
X0118733Y0249635D02*
X0137933Y0249635D01*
X0137933Y0250634D02*
X0118733Y0250634D01*
X0118502Y0251632D02*
X0138165Y0251632D01*
X0137791Y0252631D02*
X0118089Y0252631D01*
X0117341Y0253629D02*
X0136793Y0253629D01*
X0135794Y0254628D02*
X0116272Y0254628D01*
X0113133Y0250700D02*
X0113333Y0250000D01*
X0113133Y0250700D02*
X0104133Y0250700D01*
X0103333Y0250000D01*
X0107341Y0253629D02*
X0109326Y0253629D01*
X0108755Y0253059D02*
X0108690Y0252900D01*
X0107977Y0252900D01*
X0107911Y0253059D01*
X0106392Y0254578D01*
X0105856Y0254800D01*
X0110811Y0254800D01*
X0110274Y0254578D01*
X0108755Y0253059D01*
X0110395Y0254628D02*
X0106272Y0254628D01*
X0103233Y0257000D02*
X0097833Y0251600D01*
X0097833Y0240800D01*
X0103233Y0235400D01*
X0103333Y0235000D01*
X0104133Y0234500D01*
X0104133Y0220100D01*
X0103333Y0220000D01*
X0104133Y0219200D01*
X0104133Y0205700D01*
X0103333Y0205000D01*
X0099393Y0208696D02*
X0077274Y0208696D01*
X0078061Y0207698D02*
X0098606Y0207698D01*
X0098192Y0206699D02*
X0078474Y0206699D01*
X0078733Y0205701D02*
X0097933Y0205701D01*
X0097933Y0204702D02*
X0078733Y0204702D01*
X0078641Y0203704D02*
X0098025Y0203704D01*
X0098439Y0202705D02*
X0078228Y0202705D01*
X0077677Y0201707D02*
X0098990Y0201707D01*
X0099988Y0200708D02*
X0076678Y0200708D01*
X0074672Y0199710D02*
X0101994Y0199710D01*
X0104672Y0199710D02*
X0172432Y0199710D01*
X0173430Y0200708D02*
X0106678Y0200708D01*
X0107677Y0201707D02*
X0174429Y0201707D01*
X0175427Y0202705D02*
X0108228Y0202705D01*
X0108641Y0203704D02*
X0176426Y0203704D01*
X0177424Y0204702D02*
X0108733Y0204702D01*
X0108733Y0205701D02*
X0178423Y0205701D01*
X0179421Y0206699D02*
X0108474Y0206699D01*
X0108061Y0207698D02*
X0180420Y0207698D01*
X0181418Y0208696D02*
X0107274Y0208696D01*
X0106333Y0209695D02*
X0182417Y0209695D01*
X0183415Y0210693D02*
X0106333Y0210693D01*
X0106333Y0211692D02*
X0184414Y0211692D01*
X0185412Y0212690D02*
X0106333Y0212690D01*
X0106333Y0213689D02*
X0186411Y0213689D01*
X0187409Y0214687D02*
X0106333Y0214687D01*
X0106656Y0215686D02*
X0188408Y0215686D01*
X0189406Y0216684D02*
X0107654Y0216684D01*
X0108218Y0217683D02*
X0190405Y0217683D01*
X0191403Y0218681D02*
X0108632Y0218681D01*
X0108733Y0219680D02*
X0192402Y0219680D01*
X0193401Y0220678D02*
X0108733Y0220678D01*
X0108484Y0221677D02*
X0194399Y0221677D01*
X0195398Y0222675D02*
X0108070Y0222675D01*
X0107296Y0223674D02*
X0196396Y0223674D01*
X0197395Y0224672D02*
X0106333Y0224672D01*
X0106333Y0225671D02*
X0198393Y0225671D01*
X0199392Y0226670D02*
X0106333Y0226670D01*
X0106333Y0227668D02*
X0200390Y0227668D01*
X0201389Y0228667D02*
X0106333Y0228667D01*
X0106333Y0229665D02*
X0202387Y0229665D01*
X0203386Y0230664D02*
X0106634Y0230664D01*
X0107632Y0231662D02*
X0204384Y0231662D01*
X0205383Y0232661D02*
X0108209Y0232661D01*
X0108623Y0233659D02*
X0206381Y0233659D01*
X0207380Y0234658D02*
X0108733Y0234658D01*
X0108733Y0235656D02*
X0208378Y0235656D01*
X0209377Y0236655D02*
X0108493Y0236655D01*
X0108079Y0237653D02*
X0210375Y0237653D01*
X0211374Y0238652D02*
X0107318Y0238652D01*
X0106218Y0239650D02*
X0212372Y0239650D01*
X0213371Y0240649D02*
X0101096Y0240649D01*
X0100097Y0241647D02*
X0214369Y0241647D01*
X0215368Y0242646D02*
X0100033Y0242646D01*
X0100033Y0243644D02*
X0216366Y0243644D01*
X0219593Y0240649D02*
X0223271Y0240649D01*
X0224269Y0241647D02*
X0220592Y0241647D01*
X0221590Y0242646D02*
X0225268Y0242646D01*
X0226266Y0243644D02*
X0222589Y0243644D01*
X0223587Y0244643D02*
X0227265Y0244643D01*
X0228263Y0245641D02*
X0224586Y0245641D01*
X0225584Y0246640D02*
X0229262Y0246640D01*
X0230260Y0247638D02*
X0226583Y0247638D01*
X0227581Y0248637D02*
X0231259Y0248637D01*
X0232257Y0249635D02*
X0228580Y0249635D01*
X0229578Y0250634D02*
X0233256Y0250634D01*
X0234254Y0251632D02*
X0230577Y0251632D01*
X0231575Y0252631D02*
X0235133Y0252631D01*
X0235133Y0252511D02*
X0128722Y0146100D01*
X0127911Y0148059D01*
X0127457Y0148513D01*
X0235133Y0256189D01*
X0235133Y0252511D01*
X0235133Y0253629D02*
X0232574Y0253629D01*
X0233572Y0254628D02*
X0235133Y0254628D01*
X0235133Y0255626D02*
X0234571Y0255626D01*
X0231344Y0258622D02*
X0138023Y0258622D01*
X0139021Y0257623D02*
X0230345Y0257623D01*
X0229347Y0256625D02*
X0140020Y0256625D01*
X0141018Y0255626D02*
X0228348Y0255626D01*
X0227350Y0254628D02*
X0146272Y0254628D01*
X0112156Y0244643D02*
X0104511Y0244643D01*
X0106611Y0245641D02*
X0110055Y0245641D01*
X0109057Y0246640D02*
X0107610Y0246640D01*
X0108200Y0247638D02*
X0108467Y0247638D01*
X0102156Y0244643D02*
X0100033Y0244643D01*
X0100033Y0245641D02*
X0100055Y0245641D01*
X0095633Y0245641D02*
X0076611Y0245641D01*
X0075733Y0244643D02*
X0095633Y0244643D01*
X0095633Y0243644D02*
X0075733Y0243644D01*
X0075733Y0242646D02*
X0095633Y0242646D01*
X0095633Y0241647D02*
X0075733Y0241647D01*
X0075733Y0240649D02*
X0095633Y0240649D01*
X0095872Y0239650D02*
X0076218Y0239650D01*
X0077318Y0238652D02*
X0096870Y0238652D01*
X0097869Y0237653D02*
X0078079Y0237653D01*
X0078493Y0236655D02*
X0098174Y0236655D01*
X0097933Y0235656D02*
X0078733Y0235656D01*
X0078733Y0234658D02*
X0097933Y0234658D01*
X0098044Y0233659D02*
X0078623Y0233659D01*
X0078209Y0232661D02*
X0098457Y0232661D01*
X0099034Y0231662D02*
X0077632Y0231662D01*
X0076634Y0230664D02*
X0100033Y0230664D01*
X0101933Y0229665D02*
X0075733Y0229665D01*
X0075733Y0228667D02*
X0101933Y0228667D01*
X0101933Y0227668D02*
X0075733Y0227668D01*
X0075733Y0226670D02*
X0101933Y0226670D01*
X0101933Y0225671D02*
X0075733Y0225671D01*
X0076164Y0224672D02*
X0100503Y0224672D01*
X0099371Y0223674D02*
X0077296Y0223674D01*
X0078070Y0222675D02*
X0098597Y0222675D01*
X0098183Y0221677D02*
X0078484Y0221677D01*
X0078733Y0220678D02*
X0097933Y0220678D01*
X0097933Y0219680D02*
X0078733Y0219680D01*
X0078632Y0218681D02*
X0098035Y0218681D01*
X0098448Y0217683D02*
X0078218Y0217683D01*
X0077654Y0216684D02*
X0099012Y0216684D01*
X0100011Y0215686D02*
X0076656Y0215686D01*
X0075733Y0214687D02*
X0101933Y0214687D01*
X0101933Y0213689D02*
X0075733Y0213689D01*
X0075733Y0212690D02*
X0101933Y0212690D01*
X0101933Y0211692D02*
X0075733Y0211692D01*
X0075733Y0210693D02*
X0101933Y0210693D01*
X0100557Y0209695D02*
X0076110Y0209695D01*
X0073533Y0205700D02*
X0073333Y0205000D01*
X0073533Y0205700D02*
X0073533Y0219200D01*
X0073333Y0220000D01*
X0073533Y0220100D01*
X0073533Y0234500D01*
X0073333Y0235000D01*
X0073533Y0235400D01*
X0073533Y0249800D01*
X0073333Y0250000D01*
X0073533Y0250700D01*
X0073533Y0264200D01*
X0073333Y0265000D01*
X0072633Y0265100D01*
X0053733Y0284000D01*
X0053733Y0314600D01*
X0053333Y0315000D01*
X0043333Y0325000D01*
X0038333Y0322960D02*
X0038755Y0321941D01*
X0040274Y0320422D01*
X0041294Y0320000D01*
X0040274Y0319578D01*
X0038755Y0318059D01*
X0038333Y0317040D01*
X0037911Y0318059D01*
X0036392Y0319578D01*
X0035373Y0320000D01*
X0036392Y0320422D01*
X0037911Y0321941D01*
X0038333Y0322960D01*
X0038154Y0322527D02*
X0038513Y0322527D01*
X0039168Y0321528D02*
X0037498Y0321528D01*
X0036500Y0320530D02*
X0040167Y0320530D01*
X0040228Y0319531D02*
X0036439Y0319531D01*
X0037438Y0318533D02*
X0039229Y0318533D01*
X0038538Y0317534D02*
X0038129Y0317534D01*
X0038160Y0312541D02*
X0038507Y0312541D01*
X0039154Y0311543D02*
X0037513Y0311543D01*
X0036515Y0310544D02*
X0040152Y0310544D01*
X0046515Y0310544D02*
X0050152Y0310544D01*
X0049154Y0311543D02*
X0047513Y0311543D01*
X0048160Y0312541D02*
X0048507Y0312541D01*
X0051533Y0309546D02*
X0028633Y0309546D01*
X0028633Y0310544D02*
X0030152Y0310544D01*
X0029154Y0311543D02*
X0028633Y0311543D01*
X0028633Y0308547D02*
X0051533Y0308547D01*
X0051533Y0307549D02*
X0028633Y0307549D01*
X0028633Y0306550D02*
X0051533Y0306550D01*
X0051533Y0305552D02*
X0028633Y0305552D01*
X0028633Y0304553D02*
X0051533Y0304553D01*
X0051533Y0303555D02*
X0028633Y0303555D01*
X0028633Y0302556D02*
X0051533Y0302556D01*
X0051533Y0301558D02*
X0028633Y0301558D01*
X0028633Y0300559D02*
X0051533Y0300559D01*
X0051533Y0299561D02*
X0028633Y0299561D01*
X0028633Y0298562D02*
X0051533Y0298562D01*
X0051533Y0297564D02*
X0028633Y0297564D01*
X0028633Y0296565D02*
X0051533Y0296565D01*
X0051533Y0295567D02*
X0028633Y0295567D01*
X0028633Y0294568D02*
X0051533Y0294568D01*
X0051533Y0293570D02*
X0028633Y0293570D01*
X0028633Y0292571D02*
X0051533Y0292571D01*
X0051533Y0291573D02*
X0028633Y0291573D01*
X0028633Y0290574D02*
X0051533Y0290574D01*
X0051533Y0289576D02*
X0028633Y0289576D01*
X0028633Y0288577D02*
X0051533Y0288577D01*
X0051533Y0287579D02*
X0028633Y0287579D01*
X0028633Y0286580D02*
X0051533Y0286580D01*
X0051533Y0285582D02*
X0028633Y0285582D01*
X0028633Y0284583D02*
X0051533Y0284583D01*
X0051533Y0283585D02*
X0028633Y0283585D01*
X0028633Y0282586D02*
X0052036Y0282586D01*
X0053034Y0281588D02*
X0028633Y0281588D01*
X0028633Y0280589D02*
X0054033Y0280589D01*
X0055031Y0279591D02*
X0028633Y0279591D01*
X0028633Y0278592D02*
X0056030Y0278592D01*
X0057028Y0277594D02*
X0028633Y0277594D01*
X0028633Y0276595D02*
X0058027Y0276595D01*
X0059025Y0275597D02*
X0028633Y0275597D01*
X0028633Y0274598D02*
X0060024Y0274598D01*
X0061023Y0273600D02*
X0028633Y0273600D01*
X0028633Y0272601D02*
X0062021Y0272601D01*
X0063020Y0271603D02*
X0028633Y0271603D01*
X0028633Y0270604D02*
X0064018Y0270604D01*
X0065017Y0269605D02*
X0028633Y0269605D01*
X0028633Y0268607D02*
X0066015Y0268607D01*
X0067014Y0267608D02*
X0028633Y0267608D01*
X0028633Y0266610D02*
X0068012Y0266610D01*
X0067933Y0265611D02*
X0028633Y0265611D01*
X0028633Y0264613D02*
X0067933Y0264613D01*
X0068062Y0263614D02*
X0028633Y0263614D01*
X0028633Y0262616D02*
X0068476Y0262616D01*
X0069079Y0261617D02*
X0028633Y0261617D01*
X0028633Y0260619D02*
X0070078Y0260619D01*
X0071333Y0259620D02*
X0028633Y0259620D01*
X0028633Y0258622D02*
X0071333Y0258622D01*
X0071333Y0257623D02*
X0028633Y0257623D01*
X0028633Y0256625D02*
X0071333Y0256625D01*
X0071333Y0255626D02*
X0028633Y0255626D01*
X0028633Y0254628D02*
X0070395Y0254628D01*
X0069326Y0253629D02*
X0028633Y0253629D01*
X0028633Y0252631D02*
X0068578Y0252631D01*
X0068165Y0251632D02*
X0028633Y0251632D01*
X0028633Y0250634D02*
X0067933Y0250634D01*
X0067933Y0249635D02*
X0028633Y0249635D01*
X0028633Y0248637D02*
X0068053Y0248637D01*
X0068467Y0247638D02*
X0028633Y0247638D01*
X0028633Y0246640D02*
X0069057Y0246640D01*
X0070055Y0245641D02*
X0028633Y0245641D01*
X0028633Y0244643D02*
X0071333Y0244643D01*
X0071333Y0243644D02*
X0028633Y0243644D01*
X0028633Y0242646D02*
X0071333Y0242646D01*
X0071333Y0241647D02*
X0028633Y0241647D01*
X0028633Y0240649D02*
X0071333Y0240649D01*
X0070449Y0239650D02*
X0028633Y0239650D01*
X0028633Y0238652D02*
X0069348Y0238652D01*
X0068587Y0237653D02*
X0028633Y0237653D01*
X0028633Y0236655D02*
X0068174Y0236655D01*
X0067933Y0235656D02*
X0028633Y0235656D01*
X0028633Y0234658D02*
X0067933Y0234658D01*
X0068044Y0233659D02*
X0028633Y0233659D01*
X0028633Y0232661D02*
X0068457Y0232661D01*
X0069034Y0231662D02*
X0028633Y0231662D01*
X0028633Y0230664D02*
X0070033Y0230664D01*
X0071333Y0229665D02*
X0028633Y0229665D01*
X0028633Y0228667D02*
X0071333Y0228667D01*
X0071333Y0227668D02*
X0028633Y0227668D01*
X0028633Y0226670D02*
X0071333Y0226670D01*
X0071333Y0225671D02*
X0028633Y0225671D01*
X0028633Y0224672D02*
X0070503Y0224672D01*
X0069371Y0223674D02*
X0028633Y0223674D01*
X0028633Y0222675D02*
X0068597Y0222675D01*
X0068183Y0221677D02*
X0028633Y0221677D01*
X0028633Y0220678D02*
X0067933Y0220678D01*
X0067933Y0219680D02*
X0028633Y0219680D01*
X0028633Y0218681D02*
X0068035Y0218681D01*
X0068448Y0217683D02*
X0028633Y0217683D01*
X0028633Y0216684D02*
X0069012Y0216684D01*
X0070011Y0215686D02*
X0028633Y0215686D01*
X0028633Y0214687D02*
X0071333Y0214687D01*
X0071333Y0213689D02*
X0028633Y0213689D01*
X0028633Y0212690D02*
X0071333Y0212690D01*
X0071333Y0211692D02*
X0028633Y0211692D01*
X0028633Y0210693D02*
X0071333Y0210693D01*
X0070557Y0209695D02*
X0028633Y0209695D01*
X0028633Y0208696D02*
X0069393Y0208696D01*
X0068606Y0207698D02*
X0028633Y0207698D01*
X0028633Y0206699D02*
X0068192Y0206699D01*
X0067933Y0205701D02*
X0028633Y0205701D01*
X0028633Y0204702D02*
X0067933Y0204702D01*
X0068025Y0203704D02*
X0028633Y0203704D01*
X0028633Y0202705D02*
X0068439Y0202705D01*
X0068990Y0201707D02*
X0028633Y0201707D01*
X0028633Y0200708D02*
X0069988Y0200708D01*
X0071994Y0199710D02*
X0028633Y0199710D01*
X0028633Y0198711D02*
X0171433Y0198711D01*
X0170435Y0197713D02*
X0028633Y0197713D01*
X0028633Y0196714D02*
X0169436Y0196714D01*
X0168438Y0195716D02*
X0028633Y0195716D01*
X0028633Y0194717D02*
X0167439Y0194717D01*
X0166441Y0193719D02*
X0028633Y0193719D01*
X0028633Y0192720D02*
X0165442Y0192720D01*
X0164444Y0191722D02*
X0028633Y0191722D01*
X0028633Y0190723D02*
X0163445Y0190723D01*
X0162447Y0189725D02*
X0028633Y0189725D01*
X0028633Y0188726D02*
X0161448Y0188726D01*
X0160450Y0187728D02*
X0028633Y0187728D01*
X0028633Y0186729D02*
X0159451Y0186729D01*
X0158453Y0185731D02*
X0028633Y0185731D01*
X0028633Y0184732D02*
X0157454Y0184732D01*
X0156456Y0183734D02*
X0028633Y0183734D01*
X0028633Y0182735D02*
X0155457Y0182735D01*
X0154459Y0181737D02*
X0028633Y0181737D01*
X0028633Y0180738D02*
X0153460Y0180738D01*
X0152462Y0179739D02*
X0028633Y0179739D01*
X0028633Y0178741D02*
X0151463Y0178741D01*
X0150465Y0177742D02*
X0028633Y0177742D01*
X0028633Y0176744D02*
X0149466Y0176744D01*
X0148468Y0175745D02*
X0028633Y0175745D01*
X0028633Y0174747D02*
X0147469Y0174747D01*
X0146470Y0173748D02*
X0028633Y0173748D01*
X0028633Y0172750D02*
X0145472Y0172750D01*
X0144473Y0171751D02*
X0028633Y0171751D01*
X0028633Y0170753D02*
X0143475Y0170753D01*
X0142476Y0169754D02*
X0028633Y0169754D01*
X0028633Y0168756D02*
X0141478Y0168756D01*
X0140479Y0167757D02*
X0028633Y0167757D01*
X0028633Y0166759D02*
X0139481Y0166759D01*
X0138482Y0165760D02*
X0028633Y0165760D01*
X0028633Y0164762D02*
X0137484Y0164762D01*
X0136485Y0163763D02*
X0028633Y0163763D01*
X0028633Y0162765D02*
X0040087Y0162765D01*
X0039088Y0161766D02*
X0028633Y0161766D01*
X0028633Y0160768D02*
X0038090Y0160768D01*
X0037091Y0159769D02*
X0035930Y0159769D01*
X0035733Y0155300D02*
X0041133Y0160700D01*
X0044733Y0160700D01*
X0048333Y0157100D01*
X0048333Y0142700D01*
X0085233Y0105800D01*
X0102333Y0105800D01*
X0102833Y0105000D01*
X0097553Y0102854D02*
X0081390Y0102854D01*
X0080392Y0103853D02*
X0084069Y0103853D01*
X0084322Y0103600D02*
X0097244Y0103600D01*
X0098001Y0101771D01*
X0098072Y0101700D01*
X0082545Y0101700D01*
X0044575Y0139669D01*
X0046392Y0140422D01*
X0046946Y0140976D01*
X0083033Y0104889D01*
X0084322Y0103600D01*
X0083071Y0104851D02*
X0079393Y0104851D01*
X0078395Y0105850D02*
X0082072Y0105850D01*
X0081074Y0106848D02*
X0077396Y0106848D01*
X0076398Y0107847D02*
X0080075Y0107847D01*
X0079077Y0108845D02*
X0075399Y0108845D01*
X0074401Y0109844D02*
X0078078Y0109844D01*
X0077080Y0110842D02*
X0073402Y0110842D01*
X0072404Y0111841D02*
X0076081Y0111841D01*
X0075083Y0112839D02*
X0071405Y0112839D01*
X0070407Y0113838D02*
X0074084Y0113838D01*
X0073086Y0114836D02*
X0069408Y0114836D01*
X0068410Y0115835D02*
X0072087Y0115835D01*
X0071089Y0116833D02*
X0067411Y0116833D01*
X0066413Y0117832D02*
X0070090Y0117832D01*
X0069092Y0118830D02*
X0065414Y0118830D01*
X0064416Y0119829D02*
X0068093Y0119829D01*
X0067095Y0120827D02*
X0063417Y0120827D01*
X0062419Y0121826D02*
X0066096Y0121826D01*
X0065098Y0122824D02*
X0061420Y0122824D01*
X0060422Y0123823D02*
X0064099Y0123823D01*
X0063101Y0124821D02*
X0059423Y0124821D01*
X0058425Y0125820D02*
X0062102Y0125820D01*
X0061104Y0126818D02*
X0057426Y0126818D01*
X0056428Y0127817D02*
X0060105Y0127817D01*
X0059107Y0128815D02*
X0055429Y0128815D01*
X0054431Y0129814D02*
X0058108Y0129814D01*
X0057110Y0130812D02*
X0053432Y0130812D01*
X0052434Y0131811D02*
X0056111Y0131811D01*
X0055113Y0132809D02*
X0051435Y0132809D01*
X0050437Y0133808D02*
X0054114Y0133808D01*
X0053116Y0134806D02*
X0049438Y0134806D01*
X0048440Y0135805D02*
X0052117Y0135805D01*
X0051119Y0136803D02*
X0047441Y0136803D01*
X0046443Y0137802D02*
X0050120Y0137802D01*
X0049122Y0138801D02*
X0045444Y0138801D01*
X0044888Y0139799D02*
X0048123Y0139799D01*
X0047125Y0140798D02*
X0046768Y0140798D01*
X0042217Y0135805D02*
X0028633Y0135805D01*
X0028633Y0136803D02*
X0041219Y0136803D01*
X0040220Y0137802D02*
X0028633Y0137802D01*
X0028633Y0138801D02*
X0039222Y0138801D01*
X0038223Y0139799D02*
X0034888Y0139799D01*
X0036768Y0140798D02*
X0037225Y0140798D01*
X0036633Y0144500D02*
X0033933Y0144500D01*
X0033333Y0145000D01*
X0036633Y0144500D02*
X0081633Y0099500D01*
X0115833Y0099500D01*
X0137433Y0121100D01*
X0135048Y0121826D02*
X0072319Y0121826D01*
X0073317Y0120827D02*
X0134049Y0120827D01*
X0133051Y0119829D02*
X0074316Y0119829D01*
X0075314Y0118830D02*
X0132052Y0118830D01*
X0131054Y0117832D02*
X0076313Y0117832D01*
X0077311Y0116833D02*
X0130055Y0116833D01*
X0129057Y0115835D02*
X0078310Y0115835D01*
X0079308Y0114836D02*
X0128058Y0114836D01*
X0127060Y0113838D02*
X0080307Y0113838D01*
X0081305Y0112839D02*
X0126061Y0112839D01*
X0125063Y0111841D02*
X0082304Y0111841D01*
X0083302Y0110842D02*
X0124064Y0110842D01*
X0123066Y0109844D02*
X0117034Y0109844D01*
X0118049Y0108845D02*
X0122067Y0108845D01*
X0121069Y0107847D02*
X0118824Y0107847D01*
X0119237Y0106848D02*
X0120070Y0106848D01*
X0123297Y0103853D02*
X0143569Y0103853D01*
X0141046Y0104851D02*
X0124296Y0104851D01*
X0125294Y0105850D02*
X0139427Y0105850D01*
X0138429Y0106848D02*
X0126293Y0106848D01*
X0127291Y0107847D02*
X0137473Y0107847D01*
X0136896Y0108845D02*
X0128290Y0108845D01*
X0129288Y0109844D02*
X0136320Y0109844D01*
X0135925Y0110842D02*
X0130287Y0110842D01*
X0131285Y0111841D02*
X0135658Y0111841D01*
X0135390Y0112839D02*
X0132284Y0112839D01*
X0133282Y0113838D02*
X0135333Y0113838D01*
X0135333Y0114836D02*
X0134281Y0114836D01*
X0135279Y0115835D02*
X0135333Y0115835D01*
X0135233Y0122824D02*
X0071320Y0122824D01*
X0070322Y0123823D02*
X0135233Y0123823D01*
X0135233Y0124821D02*
X0069323Y0124821D01*
X0068325Y0125820D02*
X0135233Y0125820D01*
X0135233Y0126818D02*
X0067326Y0126818D01*
X0066328Y0127817D02*
X0135233Y0127817D01*
X0135233Y0128815D02*
X0065329Y0128815D01*
X0064331Y0129814D02*
X0135233Y0129814D01*
X0135233Y0130812D02*
X0063332Y0130812D01*
X0062334Y0131811D02*
X0135233Y0131811D01*
X0135233Y0132809D02*
X0061335Y0132809D01*
X0060337Y0133808D02*
X0135233Y0133808D01*
X0135233Y0134806D02*
X0059338Y0134806D01*
X0058340Y0135805D02*
X0135233Y0135805D01*
X0135233Y0136803D02*
X0128348Y0136803D01*
X0129347Y0137802D02*
X0135233Y0137802D01*
X0135233Y0138801D02*
X0130345Y0138801D01*
X0131344Y0139799D02*
X0135233Y0139799D01*
X0135233Y0140798D02*
X0132342Y0140798D01*
X0133341Y0141796D02*
X0135233Y0141796D01*
X0135233Y0142795D02*
X0134339Y0142795D01*
X0129411Y0146789D02*
X0128437Y0146789D01*
X0128024Y0147787D02*
X0130409Y0147787D01*
X0131408Y0148786D02*
X0127730Y0148786D01*
X0128729Y0149784D02*
X0132406Y0149784D01*
X0133405Y0150783D02*
X0129727Y0150783D01*
X0130726Y0151781D02*
X0134403Y0151781D01*
X0135402Y0152780D02*
X0131724Y0152780D01*
X0132723Y0153778D02*
X0136400Y0153778D01*
X0137399Y0154777D02*
X0133721Y0154777D01*
X0134720Y0155775D02*
X0138397Y0155775D01*
X0139396Y0156774D02*
X0135718Y0156774D01*
X0136717Y0157772D02*
X0140394Y0157772D01*
X0141393Y0158771D02*
X0137715Y0158771D01*
X0138714Y0159769D02*
X0142391Y0159769D01*
X0143390Y0160768D02*
X0139712Y0160768D01*
X0140711Y0161766D02*
X0144388Y0161766D01*
X0145387Y0162765D02*
X0141709Y0162765D01*
X0142708Y0163763D02*
X0146385Y0163763D01*
X0147384Y0164762D02*
X0143706Y0164762D01*
X0144705Y0165760D02*
X0148382Y0165760D01*
X0149381Y0166759D02*
X0145703Y0166759D01*
X0146702Y0167757D02*
X0150379Y0167757D01*
X0151378Y0168756D02*
X0147700Y0168756D01*
X0148699Y0169754D02*
X0152376Y0169754D01*
X0153375Y0170753D02*
X0149697Y0170753D01*
X0150696Y0171751D02*
X0154373Y0171751D01*
X0155372Y0172750D02*
X0151694Y0172750D01*
X0152693Y0173748D02*
X0156370Y0173748D01*
X0157369Y0174747D02*
X0153692Y0174747D01*
X0154690Y0175745D02*
X0158368Y0175745D01*
X0159366Y0176744D02*
X0155689Y0176744D01*
X0156687Y0177742D02*
X0160365Y0177742D01*
X0161363Y0178741D02*
X0157686Y0178741D01*
X0158684Y0179739D02*
X0162362Y0179739D01*
X0163360Y0180738D02*
X0159683Y0180738D01*
X0160681Y0181737D02*
X0164359Y0181737D01*
X0165357Y0182735D02*
X0161680Y0182735D01*
X0162678Y0183734D02*
X0166356Y0183734D01*
X0167354Y0184732D02*
X0163677Y0184732D01*
X0164675Y0185731D02*
X0168353Y0185731D01*
X0169351Y0186729D02*
X0165674Y0186729D01*
X0166672Y0187728D02*
X0170350Y0187728D01*
X0171348Y0188726D02*
X0167671Y0188726D01*
X0168669Y0189725D02*
X0172347Y0189725D01*
X0173345Y0190723D02*
X0169668Y0190723D01*
X0170666Y0191722D02*
X0174344Y0191722D01*
X0175342Y0192720D02*
X0171665Y0192720D01*
X0172663Y0193719D02*
X0176341Y0193719D01*
X0177339Y0194717D02*
X0173662Y0194717D01*
X0174660Y0195716D02*
X0178338Y0195716D01*
X0179336Y0196714D02*
X0175659Y0196714D01*
X0176657Y0197713D02*
X0180335Y0197713D01*
X0181333Y0198711D02*
X0177656Y0198711D01*
X0178654Y0199710D02*
X0182332Y0199710D01*
X0183330Y0200708D02*
X0179653Y0200708D01*
X0180651Y0201707D02*
X0184329Y0201707D01*
X0185327Y0202705D02*
X0181650Y0202705D01*
X0182648Y0203704D02*
X0186326Y0203704D01*
X0187324Y0204702D02*
X0183647Y0204702D01*
X0184645Y0205701D02*
X0188323Y0205701D01*
X0189321Y0206699D02*
X0185644Y0206699D01*
X0186642Y0207698D02*
X0190320Y0207698D01*
X0191318Y0208696D02*
X0187641Y0208696D01*
X0188639Y0209695D02*
X0192317Y0209695D01*
X0193315Y0210693D02*
X0189638Y0210693D01*
X0190636Y0211692D02*
X0194314Y0211692D01*
X0195312Y0212690D02*
X0191635Y0212690D01*
X0192633Y0213689D02*
X0196311Y0213689D01*
X0197309Y0214687D02*
X0193632Y0214687D01*
X0194630Y0215686D02*
X0198308Y0215686D01*
X0199306Y0216684D02*
X0195629Y0216684D01*
X0196627Y0217683D02*
X0200305Y0217683D01*
X0201303Y0218681D02*
X0197626Y0218681D01*
X0198625Y0219680D02*
X0202302Y0219680D01*
X0203301Y0220678D02*
X0199623Y0220678D01*
X0200622Y0221677D02*
X0204299Y0221677D01*
X0205298Y0222675D02*
X0201620Y0222675D01*
X0202619Y0223674D02*
X0206296Y0223674D01*
X0207295Y0224672D02*
X0203617Y0224672D01*
X0204616Y0225671D02*
X0208293Y0225671D01*
X0209292Y0226670D02*
X0205614Y0226670D01*
X0206613Y0227668D02*
X0210290Y0227668D01*
X0211289Y0228667D02*
X0207611Y0228667D01*
X0208610Y0229665D02*
X0212287Y0229665D01*
X0213286Y0230664D02*
X0209608Y0230664D01*
X0210607Y0231662D02*
X0214284Y0231662D01*
X0215283Y0232661D02*
X0211605Y0232661D01*
X0212604Y0233659D02*
X0216281Y0233659D01*
X0217280Y0234658D02*
X0213602Y0234658D01*
X0214601Y0235656D02*
X0218278Y0235656D01*
X0219277Y0236655D02*
X0215599Y0236655D01*
X0216598Y0237653D02*
X0220275Y0237653D01*
X0221274Y0238652D02*
X0217596Y0238652D01*
X0218595Y0239650D02*
X0222272Y0239650D01*
X0239133Y0257900D02*
X0293133Y0311900D01*
X0293133Y0314600D01*
X0293333Y0315000D01*
X0288333Y0312960D02*
X0288755Y0311941D01*
X0289409Y0311287D01*
X0285433Y0307311D01*
X0285433Y0310025D01*
X0286392Y0310422D01*
X0287911Y0311941D01*
X0288333Y0312960D01*
X0288160Y0312541D02*
X0288507Y0312541D01*
X0289154Y0311543D02*
X0287513Y0311543D01*
X0286515Y0310544D02*
X0288667Y0310544D01*
X0287668Y0309546D02*
X0285433Y0309546D01*
X0285433Y0308547D02*
X0286670Y0308547D01*
X0285671Y0307549D02*
X0285433Y0307549D01*
X0296515Y0310544D02*
X0300152Y0310544D01*
X0299154Y0311543D02*
X0297513Y0311543D01*
X0298160Y0312541D02*
X0298507Y0312541D01*
X0298538Y0317534D02*
X0298129Y0317534D01*
X0297438Y0318533D02*
X0299229Y0318533D01*
X0300228Y0319531D02*
X0296439Y0319531D01*
X0290228Y0319531D02*
X0286439Y0319531D01*
X0287438Y0318533D02*
X0289229Y0318533D01*
X0288538Y0317534D02*
X0288129Y0317534D01*
X0280228Y0319531D02*
X0276439Y0319531D01*
X0277438Y0318533D02*
X0279229Y0318533D01*
X0278538Y0317534D02*
X0278129Y0317534D01*
X0269154Y0311543D02*
X0267513Y0311543D01*
X0268160Y0312541D02*
X0268507Y0312541D01*
X0273333Y0297500D02*
X0123933Y0148100D01*
X0123933Y0145400D01*
X0123333Y0145000D01*
X0118333Y0147040D02*
X0117911Y0148059D01*
X0116392Y0149578D01*
X0115373Y0150000D01*
X0116392Y0150422D01*
X0117911Y0151941D01*
X0118333Y0152960D01*
X0118755Y0151941D01*
X0120274Y0150422D01*
X0121294Y0150000D01*
X0120274Y0149578D01*
X0118755Y0148059D01*
X0118333Y0147040D01*
X0118024Y0147787D02*
X0118643Y0147787D01*
X0119482Y0148786D02*
X0117184Y0148786D01*
X0115894Y0149784D02*
X0120772Y0149784D01*
X0119914Y0150783D02*
X0116753Y0150783D01*
X0117751Y0151781D02*
X0118915Y0151781D01*
X0118408Y0152780D02*
X0118259Y0152780D01*
X0118030Y0157772D02*
X0118637Y0157772D01*
X0119467Y0158771D02*
X0117199Y0158771D01*
X0115930Y0159769D02*
X0120736Y0159769D01*
X0125930Y0159769D02*
X0132491Y0159769D01*
X0131493Y0158771D02*
X0127199Y0158771D01*
X0128030Y0157772D02*
X0130494Y0157772D01*
X0129496Y0156774D02*
X0128444Y0156774D01*
X0133490Y0160768D02*
X0047777Y0160768D01*
X0046778Y0161766D02*
X0134488Y0161766D01*
X0135487Y0162765D02*
X0045780Y0162765D01*
X0048775Y0159769D02*
X0050736Y0159769D01*
X0055930Y0159769D02*
X0060736Y0159769D01*
X0059467Y0158771D02*
X0057199Y0158771D01*
X0058030Y0157772D02*
X0058637Y0157772D01*
X0058333Y0152960D02*
X0058755Y0151941D01*
X0060274Y0150422D01*
X0061294Y0150000D01*
X0060274Y0149578D01*
X0058755Y0148059D01*
X0058565Y0147600D01*
X0058101Y0147600D01*
X0057911Y0148059D01*
X0056392Y0149578D01*
X0055373Y0150000D01*
X0056392Y0150422D01*
X0057911Y0151941D01*
X0058333Y0152960D01*
X0058259Y0152780D02*
X0058408Y0152780D01*
X0058915Y0151781D02*
X0057751Y0151781D01*
X0056753Y0150783D02*
X0059914Y0150783D01*
X0060772Y0149784D02*
X0055894Y0149784D01*
X0057184Y0148786D02*
X0059482Y0148786D01*
X0058643Y0147787D02*
X0058024Y0147787D01*
X0053733Y0145400D02*
X0053333Y0145000D01*
X0053733Y0145400D02*
X0062733Y0145400D01*
X0063333Y0145000D01*
X0065373Y0150000D02*
X0066392Y0150422D01*
X0067911Y0151941D01*
X0068333Y0152960D01*
X0068755Y0151941D01*
X0070274Y0150422D01*
X0071294Y0150000D01*
X0070274Y0149578D01*
X0068755Y0148059D01*
X0068333Y0147040D01*
X0067911Y0148059D01*
X0066392Y0149578D01*
X0065373Y0150000D01*
X0065894Y0149784D02*
X0070772Y0149784D01*
X0069914Y0150783D02*
X0066753Y0150783D01*
X0067751Y0151781D02*
X0068915Y0151781D01*
X0068408Y0152780D02*
X0068259Y0152780D01*
X0067184Y0148786D02*
X0069482Y0148786D01*
X0068643Y0147787D02*
X0068024Y0147787D01*
X0068265Y0142795D02*
X0068402Y0142795D01*
X0068901Y0141796D02*
X0067766Y0141796D01*
X0066768Y0140798D02*
X0069899Y0140798D01*
X0071779Y0139799D02*
X0064888Y0139799D01*
X0061779Y0139799D02*
X0054888Y0139799D01*
X0055344Y0138801D02*
X0108522Y0138801D01*
X0107523Y0139799D02*
X0104888Y0139799D01*
X0109520Y0137802D02*
X0056343Y0137802D01*
X0057341Y0136803D02*
X0110519Y0136803D01*
X0116339Y0140400D02*
X0116392Y0140422D01*
X0117046Y0141076D01*
X0117722Y0140400D01*
X0116339Y0140400D01*
X0116768Y0140798D02*
X0117325Y0140798D01*
X0144633Y0140900D02*
X0144633Y0131900D01*
X0110632Y0109844D02*
X0106034Y0109844D01*
X0107049Y0108845D02*
X0109617Y0108845D01*
X0108843Y0107847D02*
X0107824Y0107847D01*
X0108237Y0106848D02*
X0108429Y0106848D01*
X0108333Y0103383D02*
X0109001Y0101771D01*
X0109072Y0101700D01*
X0107594Y0101700D01*
X0107666Y0101771D01*
X0108333Y0103383D01*
X0108114Y0102854D02*
X0108553Y0102854D01*
X0108966Y0101856D02*
X0107701Y0101856D01*
X0099632Y0109844D02*
X0084301Y0109844D01*
X0085299Y0108845D02*
X0098617Y0108845D01*
X0097966Y0101856D02*
X0082389Y0101856D01*
X0079162Y0098860D02*
X0028633Y0098860D01*
X0028633Y0097862D02*
X0080160Y0097862D01*
X0078163Y0099859D02*
X0056316Y0099859D01*
X0057062Y0100168D02*
X0058666Y0101771D01*
X0059533Y0103866D01*
X0059533Y0106134D01*
X0058666Y0108229D01*
X0057062Y0109832D01*
X0054967Y0110700D01*
X0052700Y0110700D01*
X0050605Y0109832D01*
X0049001Y0108229D01*
X0048333Y0106617D01*
X0047666Y0108229D01*
X0046062Y0109832D01*
X0043967Y0110700D01*
X0041700Y0110700D01*
X0039605Y0109832D01*
X0038001Y0108229D01*
X0037133Y0106134D01*
X0037133Y0103866D01*
X0038001Y0101771D01*
X0039605Y0100168D01*
X0041700Y0099300D01*
X0043967Y0099300D01*
X0046062Y0100168D01*
X0047666Y0101771D01*
X0048333Y0103383D01*
X0049001Y0101771D01*
X0050605Y0100168D01*
X0052700Y0099300D01*
X0054967Y0099300D01*
X0057062Y0100168D01*
X0057751Y0100857D02*
X0077165Y0100857D01*
X0076166Y0101856D02*
X0058701Y0101856D01*
X0059114Y0102854D02*
X0075168Y0102854D01*
X0074169Y0103853D02*
X0059528Y0103853D01*
X0059533Y0104851D02*
X0073171Y0104851D01*
X0072172Y0105850D02*
X0059533Y0105850D01*
X0059237Y0106848D02*
X0071174Y0106848D01*
X0070175Y0107847D02*
X0058824Y0107847D01*
X0058049Y0108845D02*
X0069177Y0108845D01*
X0068178Y0109844D02*
X0057034Y0109844D01*
X0062187Y0115835D02*
X0028633Y0115835D01*
X0028633Y0116833D02*
X0061189Y0116833D01*
X0060190Y0117832D02*
X0028633Y0117832D01*
X0028633Y0118830D02*
X0059192Y0118830D01*
X0058193Y0119829D02*
X0028633Y0119829D01*
X0028633Y0120827D02*
X0057195Y0120827D01*
X0056196Y0121826D02*
X0028633Y0121826D01*
X0028633Y0122824D02*
X0055198Y0122824D01*
X0054199Y0123823D02*
X0028633Y0123823D01*
X0028633Y0124821D02*
X0053201Y0124821D01*
X0052202Y0125820D02*
X0028633Y0125820D01*
X0028633Y0126818D02*
X0051204Y0126818D01*
X0050205Y0127817D02*
X0028633Y0127817D01*
X0028633Y0128815D02*
X0049207Y0128815D01*
X0048208Y0129814D02*
X0028633Y0129814D01*
X0028633Y0130812D02*
X0047210Y0130812D01*
X0046211Y0131811D02*
X0028633Y0131811D01*
X0028633Y0132809D02*
X0045213Y0132809D01*
X0044214Y0133808D02*
X0028633Y0133808D01*
X0028633Y0134806D02*
X0043216Y0134806D01*
X0031779Y0139799D02*
X0028633Y0139799D01*
X0028633Y0140798D02*
X0029899Y0140798D01*
X0028901Y0141796D02*
X0028633Y0141796D01*
X0028633Y0147764D02*
X0028633Y0152236D01*
X0028755Y0151941D01*
X0030274Y0150422D01*
X0031294Y0150000D01*
X0030274Y0149578D01*
X0028755Y0148059D01*
X0028633Y0147764D01*
X0028633Y0147787D02*
X0028643Y0147787D01*
X0028633Y0148786D02*
X0029482Y0148786D01*
X0028633Y0149784D02*
X0030772Y0149784D01*
X0029914Y0150783D02*
X0028633Y0150783D01*
X0028633Y0151781D02*
X0028915Y0151781D01*
X0033333Y0155000D02*
X0033933Y0155300D01*
X0035733Y0155300D01*
X0038333Y0152960D02*
X0038755Y0151941D01*
X0040274Y0150422D01*
X0041294Y0150000D01*
X0040274Y0149578D01*
X0038755Y0148059D01*
X0038333Y0147040D01*
X0037911Y0148059D01*
X0036392Y0149578D01*
X0035373Y0150000D01*
X0036392Y0150422D01*
X0037911Y0151941D01*
X0038333Y0152960D01*
X0038259Y0152780D02*
X0038408Y0152780D01*
X0038915Y0151781D02*
X0037751Y0151781D01*
X0036753Y0150783D02*
X0039914Y0150783D01*
X0040772Y0149784D02*
X0035894Y0149784D01*
X0037184Y0148786D02*
X0039482Y0148786D01*
X0038643Y0147787D02*
X0038024Y0147787D01*
X0045373Y0150000D02*
X0046133Y0149685D01*
X0046133Y0150315D01*
X0045373Y0150000D01*
X0045894Y0149784D02*
X0046133Y0149784D01*
X0050533Y0149784D02*
X0050772Y0149784D01*
X0050533Y0149685D02*
X0050533Y0150315D01*
X0051294Y0150000D01*
X0050533Y0149685D01*
X0058265Y0142795D02*
X0058402Y0142795D01*
X0058901Y0141796D02*
X0057766Y0141796D01*
X0056768Y0140798D02*
X0059899Y0140798D01*
X0074888Y0139799D02*
X0081779Y0139799D01*
X0079899Y0140798D02*
X0076768Y0140798D01*
X0077766Y0141796D02*
X0078901Y0141796D01*
X0078402Y0142795D02*
X0078265Y0142795D01*
X0078333Y0147040D02*
X0077911Y0148059D01*
X0076392Y0149578D01*
X0075373Y0150000D01*
X0076392Y0150422D01*
X0077911Y0151941D01*
X0078333Y0152960D01*
X0078755Y0151941D01*
X0080274Y0150422D01*
X0081294Y0150000D01*
X0080274Y0149578D01*
X0078755Y0148059D01*
X0078333Y0147040D01*
X0078024Y0147787D02*
X0078643Y0147787D01*
X0079482Y0148786D02*
X0077184Y0148786D01*
X0075894Y0149784D02*
X0080772Y0149784D01*
X0079914Y0150783D02*
X0076753Y0150783D01*
X0077751Y0151781D02*
X0078915Y0151781D01*
X0078408Y0152780D02*
X0078259Y0152780D01*
X0078030Y0157772D02*
X0078637Y0157772D01*
X0079467Y0158771D02*
X0077199Y0158771D01*
X0075930Y0159769D02*
X0080736Y0159769D01*
X0070736Y0159769D02*
X0065930Y0159769D01*
X0067199Y0158771D02*
X0069467Y0158771D01*
X0068637Y0157772D02*
X0068030Y0157772D01*
X0030736Y0159769D02*
X0028633Y0159769D01*
X0028633Y0158771D02*
X0029467Y0158771D01*
X0028637Y0157772D02*
X0028633Y0157772D01*
X0028633Y0114836D02*
X0063186Y0114836D01*
X0064184Y0113838D02*
X0028633Y0113838D01*
X0028633Y0112839D02*
X0065183Y0112839D01*
X0066181Y0111841D02*
X0028633Y0111841D01*
X0028633Y0110842D02*
X0067180Y0110842D01*
X0050632Y0109844D02*
X0046034Y0109844D01*
X0047049Y0108845D02*
X0049617Y0108845D01*
X0048843Y0107847D02*
X0047824Y0107847D01*
X0048237Y0106848D02*
X0048429Y0106848D01*
X0048553Y0102854D02*
X0048114Y0102854D01*
X0047701Y0101856D02*
X0048966Y0101856D01*
X0049915Y0100857D02*
X0046751Y0100857D01*
X0045316Y0099859D02*
X0051351Y0099859D01*
X0040351Y0099859D02*
X0028633Y0099859D01*
X0028633Y0100857D02*
X0038915Y0100857D01*
X0037966Y0101856D02*
X0028633Y0101856D01*
X0028633Y0102854D02*
X0037553Y0102854D01*
X0037139Y0103853D02*
X0028633Y0103853D01*
X0028633Y0104851D02*
X0037133Y0104851D01*
X0037133Y0105850D02*
X0028633Y0105850D01*
X0028633Y0106848D02*
X0037429Y0106848D01*
X0037843Y0107847D02*
X0028633Y0107847D01*
X0028633Y0108845D02*
X0038617Y0108845D01*
X0039632Y0109844D02*
X0028633Y0109844D01*
X0077610Y0246640D02*
X0095633Y0246640D01*
X0095633Y0247638D02*
X0078200Y0247638D01*
X0078614Y0248637D02*
X0095633Y0248637D01*
X0095633Y0249635D02*
X0078733Y0249635D01*
X0078733Y0250634D02*
X0095633Y0250634D01*
X0095633Y0251632D02*
X0078502Y0251632D01*
X0078089Y0252631D02*
X0095753Y0252631D01*
X0096751Y0253629D02*
X0077341Y0253629D01*
X0076272Y0254628D02*
X0097750Y0254628D01*
X0098748Y0255626D02*
X0075733Y0255626D01*
X0075733Y0256625D02*
X0099747Y0256625D01*
X0100745Y0257623D02*
X0075733Y0257623D01*
X0075733Y0258622D02*
X0101033Y0258622D01*
X0101033Y0259620D02*
X0075733Y0259620D01*
X0076589Y0260619D02*
X0100078Y0260619D01*
X0099079Y0261617D02*
X0077587Y0261617D01*
X0078191Y0262616D02*
X0098476Y0262616D01*
X0098062Y0263614D02*
X0078604Y0263614D01*
X0078733Y0264613D02*
X0097933Y0264613D01*
X0097933Y0265611D02*
X0078733Y0265611D01*
X0078511Y0266610D02*
X0098155Y0266610D01*
X0098569Y0267608D02*
X0078098Y0267608D01*
X0077363Y0268607D02*
X0099304Y0268607D01*
X0100341Y0269605D02*
X0076326Y0269605D01*
X0103333Y0265000D02*
X0103233Y0264200D01*
X0103233Y0257000D01*
X0100152Y0310544D02*
X0096515Y0310544D01*
X0097513Y0311543D02*
X0099154Y0311543D01*
X0098507Y0312541D02*
X0098160Y0312541D01*
X0098333Y0317040D02*
X0097911Y0318059D01*
X0096392Y0319578D01*
X0095373Y0320000D01*
X0096392Y0320422D01*
X0097911Y0321941D01*
X0098333Y0322960D01*
X0098755Y0321941D01*
X0100274Y0320422D01*
X0101294Y0320000D01*
X0100274Y0319578D01*
X0098755Y0318059D01*
X0098333Y0317040D01*
X0098129Y0317534D02*
X0098538Y0317534D01*
X0099229Y0318533D02*
X0097438Y0318533D01*
X0096439Y0319531D02*
X0100228Y0319531D01*
X0100167Y0320530D02*
X0096500Y0320530D01*
X0097498Y0321528D02*
X0099168Y0321528D01*
X0098513Y0322527D02*
X0098154Y0322527D01*
X0091294Y0320000D02*
X0090274Y0319578D01*
X0088755Y0318059D01*
X0088333Y0317040D01*
X0087911Y0318059D01*
X0086392Y0319578D01*
X0085373Y0320000D01*
X0086392Y0320422D01*
X0087911Y0321941D01*
X0088333Y0322960D01*
X0088755Y0321941D01*
X0090274Y0320422D01*
X0091294Y0320000D01*
X0090228Y0319531D02*
X0086439Y0319531D01*
X0086500Y0320530D02*
X0090167Y0320530D01*
X0089168Y0321528D02*
X0087498Y0321528D01*
X0088154Y0322527D02*
X0088513Y0322527D01*
X0089229Y0318533D02*
X0087438Y0318533D01*
X0088129Y0317534D02*
X0088538Y0317534D01*
X0088507Y0312541D02*
X0088160Y0312541D01*
X0087513Y0311543D02*
X0089154Y0311543D01*
X0090152Y0310544D02*
X0086515Y0310544D01*
X0080152Y0310544D02*
X0076515Y0310544D01*
X0077513Y0311543D02*
X0079154Y0311543D01*
X0078507Y0312541D02*
X0078160Y0312541D01*
X0078333Y0317040D02*
X0077911Y0318059D01*
X0076392Y0319578D01*
X0075373Y0320000D01*
X0076392Y0320422D01*
X0077911Y0321941D01*
X0078333Y0322960D01*
X0078755Y0321941D01*
X0080274Y0320422D01*
X0081294Y0320000D01*
X0080274Y0319578D01*
X0078755Y0318059D01*
X0078333Y0317040D01*
X0078129Y0317534D02*
X0078538Y0317534D01*
X0079229Y0318533D02*
X0077438Y0318533D01*
X0076439Y0319531D02*
X0080228Y0319531D01*
X0080167Y0320530D02*
X0076500Y0320530D01*
X0077498Y0321528D02*
X0079168Y0321528D01*
X0078513Y0322527D02*
X0078154Y0322527D01*
X0078135Y0327519D02*
X0078532Y0327519D01*
X0079214Y0328518D02*
X0077452Y0328518D01*
X0076454Y0329516D02*
X0080213Y0329516D01*
X0086454Y0329516D02*
X0090213Y0329516D01*
X0089214Y0328518D02*
X0087452Y0328518D01*
X0088135Y0327519D02*
X0088532Y0327519D01*
X0096454Y0329516D02*
X0100213Y0329516D01*
X0099214Y0328518D02*
X0097452Y0328518D01*
X0098135Y0327519D02*
X0098532Y0327519D01*
X0106454Y0329516D02*
X0110213Y0329516D01*
X0109214Y0328518D02*
X0107452Y0328518D01*
X0108135Y0327519D02*
X0108532Y0327519D01*
X0108333Y0322960D02*
X0108755Y0321941D01*
X0110274Y0320422D01*
X0111294Y0320000D01*
X0110274Y0319578D01*
X0108755Y0318059D01*
X0108333Y0317040D01*
X0107911Y0318059D01*
X0106392Y0319578D01*
X0105373Y0320000D01*
X0106392Y0320422D01*
X0107911Y0321941D01*
X0108333Y0322960D01*
X0108154Y0322527D02*
X0108513Y0322527D01*
X0109168Y0321528D02*
X0107498Y0321528D01*
X0106500Y0320530D02*
X0110167Y0320530D01*
X0110228Y0319531D02*
X0106439Y0319531D01*
X0107438Y0318533D02*
X0109229Y0318533D01*
X0108538Y0317534D02*
X0108129Y0317534D01*
X0108160Y0312541D02*
X0108507Y0312541D01*
X0109154Y0311543D02*
X0107513Y0311543D01*
X0106515Y0310544D02*
X0110152Y0310544D01*
X0071294Y0320000D02*
X0070274Y0319578D01*
X0068755Y0318059D01*
X0068333Y0317040D01*
X0067911Y0318059D01*
X0066392Y0319578D01*
X0065373Y0320000D01*
X0066392Y0320422D01*
X0067911Y0321941D01*
X0068333Y0322960D01*
X0068755Y0321941D01*
X0070274Y0320422D01*
X0071294Y0320000D01*
X0070228Y0319531D02*
X0066439Y0319531D01*
X0066500Y0320530D02*
X0070167Y0320530D01*
X0069168Y0321528D02*
X0067498Y0321528D01*
X0068154Y0322527D02*
X0068513Y0322527D01*
X0069229Y0318533D02*
X0067438Y0318533D01*
X0068129Y0317534D02*
X0068538Y0317534D01*
X0068507Y0312541D02*
X0068160Y0312541D01*
X0067513Y0311543D02*
X0069154Y0311543D01*
X0070152Y0310544D02*
X0066515Y0310544D01*
X0060152Y0310544D02*
X0056515Y0310544D01*
X0057513Y0311543D02*
X0059154Y0311543D01*
X0058507Y0312541D02*
X0058160Y0312541D01*
X0058333Y0317040D02*
X0057911Y0318059D01*
X0056392Y0319578D01*
X0055373Y0320000D01*
X0056392Y0320422D01*
X0057911Y0321941D01*
X0058333Y0322960D01*
X0058755Y0321941D01*
X0060274Y0320422D01*
X0061294Y0320000D01*
X0060274Y0319578D01*
X0058755Y0318059D01*
X0058333Y0317040D01*
X0058129Y0317534D02*
X0058538Y0317534D01*
X0059229Y0318533D02*
X0057438Y0318533D01*
X0056439Y0319531D02*
X0060228Y0319531D01*
X0060167Y0320530D02*
X0056500Y0320530D01*
X0057498Y0321528D02*
X0059168Y0321528D01*
X0058513Y0322527D02*
X0058154Y0322527D01*
X0058135Y0327519D02*
X0058532Y0327519D01*
X0059214Y0328518D02*
X0057452Y0328518D01*
X0056454Y0329516D02*
X0060213Y0329516D01*
X0066454Y0329516D02*
X0070213Y0329516D01*
X0069214Y0328518D02*
X0067452Y0328518D01*
X0068135Y0327519D02*
X0068532Y0327519D01*
X0050213Y0329516D02*
X0046454Y0329516D01*
X0047452Y0328518D02*
X0049214Y0328518D01*
X0048532Y0327519D02*
X0048135Y0327519D01*
X0040213Y0329516D02*
X0036454Y0329516D01*
X0037452Y0328518D02*
X0039214Y0328518D01*
X0038532Y0327519D02*
X0038135Y0327519D01*
X0030213Y0329516D02*
X0028633Y0329516D01*
X0028633Y0328518D02*
X0029214Y0328518D01*
X0028633Y0330515D02*
X0255537Y0330515D01*
X0256535Y0331513D02*
X0028633Y0331513D01*
X0028633Y0322236D02*
X0028755Y0321941D01*
X0030274Y0320422D01*
X0031294Y0320000D01*
X0030274Y0319578D01*
X0028755Y0318059D01*
X0028633Y0317764D01*
X0028633Y0322236D01*
X0028633Y0321528D02*
X0029168Y0321528D01*
X0028633Y0320530D02*
X0030167Y0320530D01*
X0030228Y0319531D02*
X0028633Y0319531D01*
X0028633Y0318533D02*
X0029229Y0318533D01*
X0028633Y0350485D02*
X0383033Y0350485D01*
X0383033Y0351483D02*
X0028633Y0351483D01*
X0028633Y0352482D02*
X0383033Y0352482D01*
X0383033Y0353480D02*
X0028633Y0353480D01*
X0028633Y0354479D02*
X0383033Y0354479D01*
X0310152Y0310544D02*
X0306515Y0310544D01*
X0307513Y0311543D02*
X0309154Y0311543D01*
X0308507Y0312541D02*
X0308160Y0312541D01*
X0250152Y0310544D02*
X0246515Y0310544D01*
X0247513Y0311543D02*
X0249154Y0311543D01*
X0248507Y0312541D02*
X0248160Y0312541D01*
X0244938Y0254628D02*
X0322750Y0254628D01*
X0321751Y0253629D02*
X0245898Y0253629D01*
X0246311Y0252631D02*
X0320753Y0252631D01*
X0233333Y0122960D02*
X0233755Y0121941D01*
X0235274Y0120422D01*
X0236033Y0120108D01*
X0236033Y0118411D01*
X0223722Y0106100D01*
X0222911Y0108059D01*
X0221392Y0109578D01*
X0220633Y0109892D01*
X0220633Y0113889D01*
X0226612Y0119868D01*
X0227259Y0119600D01*
X0229407Y0119600D01*
X0231392Y0120422D01*
X0232911Y0121941D01*
X0233333Y0122960D01*
X0233277Y0122824D02*
X0233390Y0122824D01*
X0233871Y0121826D02*
X0232796Y0121826D01*
X0231797Y0120827D02*
X0234869Y0120827D01*
X0236033Y0119829D02*
X0229960Y0119829D01*
X0226707Y0119829D02*
X0226573Y0119829D01*
X0225575Y0118830D02*
X0236033Y0118830D01*
X0235454Y0117832D02*
X0224576Y0117832D01*
X0223578Y0116833D02*
X0234455Y0116833D01*
X0233457Y0115835D02*
X0222579Y0115835D01*
X0221581Y0114836D02*
X0232458Y0114836D01*
X0231460Y0113838D02*
X0220633Y0113838D01*
X0220633Y0112839D02*
X0230461Y0112839D01*
X0229463Y0111841D02*
X0220633Y0111841D01*
X0220633Y0110842D02*
X0228464Y0110842D01*
X0227466Y0109844D02*
X0220750Y0109844D01*
X0222125Y0108845D02*
X0226467Y0108845D01*
X0225469Y0107847D02*
X0222999Y0107847D01*
X0223413Y0106848D02*
X0224470Y0106848D01*
X0218433Y0105800D02*
X0218433Y0114800D01*
X0218433Y0105800D02*
X0218333Y0105000D01*
X0278333Y0090000D02*
X0278733Y0089600D01*
X0278733Y0083300D01*
D19*
X0144633Y0140900D03*
X0242733Y0251600D03*
M02*
