%
M48
M72
T01C0.02400
T02C0.03200
T03C0.03543
T04C0.04000
T05C0.04400
T06C0.05906
T07C0.13000
%
T01
X114433Y125100
X113533Y132300
X128833Y147600
X132433Y168300
X154033Y160200
X157633Y168300
X161233Y141300
X84733Y134100
X175633Y234900
X243133Y261900
T02
X243333Y135000
X233333Y135000
X273333Y135000
X283333Y135000
T03
X293333Y115000
X278333Y90000
X263333Y115000
X253333Y115000
X223333Y115000
X308333Y90000
X343333Y90000
X373333Y90000
X351129Y125000
X325538Y125000
X143333Y260000
X113333Y260000
X103333Y260000
X103333Y245000
X103333Y230000
X103333Y215000
X73333Y215000
X73333Y230000
X73333Y245000
X73333Y260000
X73333Y275000
X103333Y275000
X263333Y345000
X293333Y345000
T04
X293333Y325000
X303333Y325000
X313333Y325000
X283333Y325000
X273333Y325000
X263333Y325000
X253333Y325000
X243333Y325000
X123333Y325000
X113333Y325000
X103333Y325000
X93333Y325000
X83333Y325000
X73333Y325000
X63333Y325000
X53333Y325000
X43333Y325000
X33333Y325000
X33333Y335000
X43333Y335000
X53333Y335000
X63333Y335000
X73333Y335000
X83333Y335000
X93333Y335000
X103333Y335000
X113333Y335000
X123333Y335000
X123333Y165000
X113333Y165000
X103333Y165000
X93333Y165000
X83333Y165000
X73333Y165000
X63333Y165000
X53333Y165000
X43333Y165000
X33333Y165000
X33333Y155000
X43333Y155000
X53333Y155000
X63333Y155000
X73333Y155000
X83333Y155000
X93333Y155000
X103333Y155000
X113333Y155000
X123333Y155000
X148333Y140500
X148333Y129500
X148333Y110500
X148333Y99500
X123333Y103000
X123333Y113000
X123333Y123000
X243333Y165000
X253333Y165000
X263333Y165000
X273333Y165000
X283333Y165000
X293333Y165000
X303333Y165000
X313333Y165000
X306133Y73900
X306133Y56100
X280533Y56100
X280533Y73900
X345533Y73900
X345533Y56100
X371133Y56100
X371133Y73900
T05
X183333Y110000
X183333Y130000
T06
X67703Y62126
X67703Y77874
X238963Y77874
T07
X64333Y113000
M30
